<?xml version="1.0" encoding="utf-8"?>
<!-- Generator: Adobe Illustrator 21.1.0, SVG Export Plug-In . SVG Version: 6.00 Build 0)  -->
<svg version="1.1" id="Layer_1" xmlns="http://www.w3.org/2000/svg" xmlns:xlink="http://www.w3.org/1999/xlink" x="0px" y="0px"
	 viewBox="0 0 72 72" style="enable-background:new 0 0 72 72;" xml:space="preserve">
<style type="text/css">
	.st0{fill:none;}
	.st1{fill:#242424;}
</style>
<g id="google_" transform="translate(-34 -135)">
	<g id="youtube" transform="translate(66 -803)">
		<rect id="Rectangle_433" x="-32" y="938" class="st0" width="72" height="72"/>
	</g>
	<path id="google-plus" class="st1" d="M106,167.5h-6.5v-6.5h-6.5v6.5h-6.5v6.5h6.5v6.5h6.5V174h6.5 M56.9,167.5v7.9H70
		c-1.3,6.1-6.9,10.2-13.1,9.8c-8,0-14.4-6.4-14.4-14.4s6.4-14.4,14.4-14.4c3.4-0.1,6.7,1.2,9.2,3.6l6.2-5.9
		c-4.1-4.1-9.6-6.3-15.4-6.2c-12.7,0-22.9,10.3-22.9,22.9s10.3,22.9,22.9,22.9c13.1,0,21.9-9.2,21.9-22.3c0.1-1.3,0-2.6-0.3-3.9
		H56.9z"/>
</g>
</svg>
