<?xml version="1.0" encoding="utf-8"?>
<!-- Generator: Adobe Illustrator 21.1.0, SVG Export Plug-In . SVG Version: 6.00 Build 0)  -->
<svg version="1.1" id="Layer_1" xmlns="http://www.w3.org/2000/svg" xmlns:xlink="http://www.w3.org/1999/xlink" x="0px" y="0px"
	 viewBox="0 0 40 40" style="enable-background:new 0 0 40 40;" xml:space="preserve">
<path d="M8.1,17.3c3.2,6.3,8.3,11.4,14.6,14.6l4.9-4.9c0.6-0.6,1.5-0.8,2.3-0.6c2.5,0.8,5.1,1.3,7.9,1.3c1.2,0,2.2,1,2.2,2.2v7.8
	c0,1.2-1,2.2-2.2,2.2C16.9,40,0,23.1,0,2.3C0,1,1,0,2.3,0H10c1.2,0,2.2,1,2.2,2.2c0,2.8,0.4,5.4,1.3,7.9c0.2,0.8,0.1,1.6-0.6,2.3
	L8.1,17.3z"/>
</svg>
