<?xml version="1.0" encoding="utf-8"?>
<!-- Generator: Adobe Illustrator 21.1.0, SVG Export Plug-In . SVG Version: 6.00 Build 0)  -->
<svg version="1.1" id="Layer_1" xmlns="http://www.w3.org/2000/svg" xmlns:xlink="http://www.w3.org/1999/xlink" x="0px" y="0px"
	 viewBox="0 0 72 72" style="enable-background:new 0 0 72 72;" xml:space="preserve">
<style type="text/css">
	.st0{fill:none;}
	.st1{fill:#282828;}
</style>
<g id="youtube" transform="translate(228 -938)">
	<rect id="Rectangle_433" x="-228" y="938" class="st0" width="72" height="72"/>
	<g id="YouTube-icon-dark" transform="translate(1168 3569)">
		<g id="Lozenge">
			<g id="XMLID_184_">
				<path class="st1" d="M-1326-2612.1c-0.8-3.1-3.2-5.5-6.3-6.3c-5.5-1.5-27.7-1.5-27.7-1.5s-22.2,0-27.7,1.5
					c-3.1,0.8-5.5,3.2-6.3,6.3c-1.5,5.6-1.5,17.2-1.5,17.2s0,11.6,1.5,17.2c0.8,3.1,3.2,5.5,6.3,6.3c5.5,1.5,27.7,1.5,27.7,1.5
					s22.2,0,27.7-1.5c3.1-0.8,5.5-3.2,6.3-6.3c1.5-5.6,1.5-17.2,1.5-17.2S-1324.5-2606.5-1326-2612.1z M-1367.3-2584.3v-21.1
					l18.6,10.6L-1367.3-2584.3z"/>
			</g>
		</g>
	</g>
</g>
</svg>
