<?xml version="1.0" encoding="UTF-8"?>
<svg width="291px" height="222px" viewBox="0 0 291 222" version="1.1" xmlns="http://www.w3.org/2000/svg" xmlns:xlink="http://www.w3.org/1999/xlink">
	<!-- Generator: Sketch 52.5 (67469) - http://www.bohemiancoding.com/sketch -->
	<title>Benefits</title>
	<desc>Created with Sketch.</desc>
	<defs>
		<linearGradient x1="34.7281633%" y1="75.1790905%" x2="64.6308844%" y2="24.4010512%" id="linearGradient-1">
			<stop stop-color="#B948BE" offset="0%"></stop>
			<stop stop-color="#FF7576" offset="100%"></stop>
		</linearGradient>
		<linearGradient x1="100%" y1="50%" x2="0%" y2="50%" id="linearGradient-2">
			<stop stop-color="#28B655" offset="0%"></stop>
			<stop stop-color="#7ED257" offset="100%"></stop>
		</linearGradient>
		<filter x="-35.2%" y="-77.5%" width="170.5%" height="255.0%" filterUnits="objectBoundingBox" id="filter-3">
			<feOffset dx="0" dy="7" in="SourceAlpha" result="shadowOffsetOuter1"></feOffset>
			<feGaussianBlur stdDeviation="12.5" in="shadowOffsetOuter1" result="shadowBlurOuter1"></feGaussianBlur>
			<feColorMatrix values="0 0 0 0 0   0 0 0 0 0   0 0 0 0 0  0 0 0 0.0849467844 0" type="matrix" in="shadowBlurOuter1" result="shadowMatrixOuter1"></feColorMatrix>
			<feMerge>
				<feMergeNode in="shadowMatrixOuter1"></feMergeNode>
				<feMergeNode in="SourceGraphic"></feMergeNode>
			</feMerge>
		</filter>
		<filter x="-39.7%" y="-81.6%" width="179.5%" height="263.2%" filterUnits="objectBoundingBox" id="filter-4">
			<feOffset dx="0" dy="7" in="SourceAlpha" result="shadowOffsetOuter1"></feOffset>
			<feGaussianBlur stdDeviation="12.5" in="shadowOffsetOuter1" result="shadowBlurOuter1"></feGaussianBlur>
			<feColorMatrix values="0 0 0 0 0   0 0 0 0 0   0 0 0 0 0  0 0 0 0.0849467844 0" type="matrix" in="shadowBlurOuter1" result="shadowMatrixOuter1"></feColorMatrix>
			<feMerge>
				<feMergeNode in="shadowMatrixOuter1"></feMergeNode>
				<feMergeNode in="SourceGraphic"></feMergeNode>
			</feMerge>
		</filter>
		<linearGradient x1="99.2276829%" y1="50.0077895%" x2="1.66329268%" y2="50.0077895%" id="linearGradient-5">
			<stop stop-color="#7A54CE" offset="0%"></stop>
			<stop stop-color="#5418B4" offset="100%"></stop>
		</linearGradient>
		<linearGradient x1="73.4055556%" y1="24.2352174%" x2="25.8361111%" y2="76.5847826%" id="linearGradient-6">
			<stop stop-color="#0B757D" offset="0%"></stop>
			<stop stop-color="#0E5A64" offset="100%"></stop>
		</linearGradient>
	</defs>
	<g id="Desktop" stroke="none" stroke-width="1" fill="none" fill-rule="evenodd">
		<g id="Case-Study:-Major-Insurance-Company" transform="translate(-277.000000, -3055.000000)">
			<g id="Group-13" transform="translate(0.000000, 2888.000000)">
				<g id="Group-12" transform="translate(277.000000, 70.000000)">
					<g id="Benefits" transform="translate(0.000000, 97.000000)">
						<circle id="Oval" fill="url(#linearGradient-1)" opacity="0.5" cx="25" cy="25" r="25"></circle>
						<path d="M70.7397749,83.8246303 L60.984269,93.5801362 C52.5517468,102.012658 47.8144052,113.449613 47.8144052,125.375 L47.8144052,125.375 C47.8144052,135.661303 56.1531017,144 66.4394052,144 L76.4597009,144 C93.4929355,144 110.243869,139.649156 125.124109,131.360033 L128.71672,129.358748 C136.862814,124.82092 139.787892,114.538569 135.250063,106.392475 C133.739686,103.681118 131.511178,101.438541 128.80938,99.9111315 L106.890819,87.519893 C103.921179,85.841064 100.867578,84.3152913 97.7419946,82.9485596 L90.998923,80 C84.102275,76.9842856 76.0622879,78.5021173 70.7397749,83.8246303 Z" id="Path-16" fill="url(#linearGradient-2)" fill-rule="nonzero" opacity="0.5" transform="translate(101.407203, 109.500000) rotate(-10.000000) translate(-101.407203, -109.500000) "></path>
						<g id="aws-1" filter="url(#filter-3)" transform="translate(90.000000, 110.000000)">
							<path d="M172.685811,0 L3.31418887,0 C1.49138499,0 0,1.49202128 0,3.31560284 L0,76.2588652 C0,78.0824468 1.49138499,79.5744681 3.31418887,79.5744681 L172.685811,79.5744681 C174.508615,79.5744681 176,78.0824468 176,76.2588652 L176,3.31560284 C176,1.49202128 174.508615,0 172.685811,0 Z" id="Shape" fill="#FFFFFF" fill-rule="nonzero"></path>
							<g id="Group-17" transform="translate(22.468085, 12.170213)">
								<g id="Layer_1-3" transform="translate(0.291948, 0.058566)">
									<g id="Group">
										<path d="M18.2460719,14.0769 C18.2460719,14.8695182 18.3253338,15.5194652 18.4838574,15.9791838 C18.6582334,16.4547547 18.8643142,16.9620304 19.1655091,17.5168632 C19.2764757,17.6912392 19.3081804,17.8656152 19.3081804,18.0082865 C19.3081804,18.2302196 19.1813615,18.4363003 18.8960189,18.6582334 L17.5485679,19.5618182 C17.3583395,19.6886371 17.1681111,19.7520466 16.9937351,19.7520466 C16.771802,19.7520466 16.5657213,19.64108 16.3437882,19.4508517 C16.0425932,19.1338044 15.7889554,18.7850523 15.5670223,18.4363003 C15.3450892,18.0716959 15.1390084,17.6595344 14.901223,17.1681111 C13.2208723,19.1496567 11.1283601,20.1325034 8.59198175,20.1325034 C6.78481215,20.1325034 5.35809932,19.6252277 4.29599087,18.594824 C3.23388243,17.5644202 2.71075439,16.1852645 2.71075439,14.4732091 C2.71075439,12.6501871 3.36070135,11.1759172 4.66059526,10.0503993 C5.96048918,8.92488141 7.70424931,8.37004864 9.92358039,8.37004864 C10.6527892,8.37004864 11.3978503,8.4334581 12.1904686,8.54442465 C12.9830868,8.65539121 13.8074098,8.82976722 14.6634375,9.0199956 L14.6634375,7.45061148 C14.6634375,5.8178179 14.3146855,4.67644763 13.6488861,4.01064831 C12.9672344,3.34484898 11.8100118,3.02780169 10.1455135,3.02780169 C9.40045235,3.02780169 8.62368648,3.10706351 7.83106823,3.31314425 C7.03844999,3.50337263 6.26168411,3.7411581 5.51662297,4.04235304 C5.16787094,4.18502432 4.9142331,4.28013851 4.77156182,4.3276956 C4.62889053,4.3752527 4.51792398,4.39110506 4.42280979,4.39110506 C4.12161486,4.39110506 3.97894358,4.16917195 3.97894358,3.72530574 L3.97894358,2.67904966 C3.97894358,2.33029763 4.02650067,2.07665979 4.12161486,1.93398851 C4.23258141,1.79131723 4.42280979,1.63279358 4.72400472,1.4901223 C5.46906587,1.10966554 6.37265067,0.776765877 7.43475911,0.52312804 C8.48101519,0.237785473 9.6065331,0.110966554 10.7796081,0.110966554 C13.3318388,0.110966554 15.2024179,0.697504053 16.4071976,1.85472669 C17.5802726,3.01194932 18.1826625,4.77156182 18.1826625,7.13356418 L18.1826625,14.0927523 L18.2460719,14.0927523 L18.2460719,14.0769 Z M9.54312364,17.3424871 C10.2564801,17.3424871 10.9856888,17.2156682 11.7466023,16.9620304 C12.5233682,16.7083925 13.2050199,16.2328216 13.7915574,15.5828746 C14.1403094,15.1707132 14.3939473,14.7268469 14.5207662,14.2037189 C14.6475851,13.6964432 14.7426993,13.0623486 14.7426993,12.3331398 L14.7426993,11.4295551 C14.1244571,11.2868838 13.4586578,11.1442125 12.7611537,11.0649507 C12.079502,10.9856888 11.4137027,10.9381317 10.7479034,10.9381317 C9.30533816,10.9381317 8.25908208,11.2234743 7.54572567,11.7941594 C6.83236925,12.3806969 6.49946959,13.1891676 6.49946959,14.2671284 C6.49946959,15.2816797 6.75310742,16.0267409 7.29208783,16.5340165 C7.7993635,17.0888493 8.56027702,17.3424871 9.54312364,17.3424871 Z M26.7746442,19.6569324 C26.3941875,19.6569324 26.1246973,19.5935229 25.9661736,19.4349993 C25.7917976,19.3081804 25.6491263,19.0069854 25.5223074,18.594824 L20.465403,2.01325034 C20.3385841,1.58523648 20.2751746,1.29989392 20.2751746,1.15722263 C20.2751746,0.808470607 20.4495506,0.618242229 20.7824503,0.618242229 L22.8908148,0.618242229 C23.3029763,0.618242229 23.5724665,0.681651688 23.7309902,0.840175337 C23.9053662,0.966994256 24.0321851,1.26818919 24.159004,1.68035067 L27.7574908,15.8840696 L31.1023398,1.68035067 C31.2133064,1.25233682 31.3401253,0.966994256 31.5145013,0.840175337 C31.6888773,0.713356418 31.9900723,0.618242229 32.370529,0.618242229 L34.0825844,0.618242229 C34.4947459,0.618242229 34.7642361,0.681651688 34.9386121,0.840175337 C35.1129881,0.966994256 35.2556594,1.26818919 35.3507736,1.68035067 L38.7431797,16.0584456 L42.4526331,1.68035067 C42.579452,1.25233682 42.7379756,0.966994256 42.8806469,0.840175337 C43.0550229,0.713356418 43.3245131,0.618242229 43.7208222,0.618242229 L45.7182202,0.618242229 C46.0669722,0.618242229 46.2572006,0.792618242 46.2572006,1.15722263 C46.2572006,1.26818919 46.2413483,1.37915574 46.2096435,1.50597466 C46.1937912,1.63279358 46.1462341,1.80716959 46.0669722,2.04495506 L40.8991013,18.6265287 C40.7722824,19.0545425 40.6137587,19.3398851 40.4552351,19.466704 C40.2808591,19.5935229 40.0113689,19.6886371 39.6467645,19.6886371 L37.8078902,19.6886371 C37.3957287,19.6886371 37.1262385,19.6252277 36.9518625,19.466704 C36.7774864,19.3240327 36.6348152,19.0386902 36.539701,18.6106763 L33.2107043,4.77156182 L29.9134125,18.594824 C29.8024459,19.0228378 29.675627,19.3081804 29.501251,19.4508517 C29.326875,19.5935229 29.02568,19.6727848 28.6452233,19.6727848 L26.7746442,19.6727848 L26.7746442,19.6569324 Z M54.3419067,20.2434699 C53.2322411,20.2434699 52.1067232,20.116651 51.0446148,19.8630132 C49.966654,19.6093753 49.142331,19.3240327 48.5716459,19.0069854 C48.2228939,18.8167571 47.9851084,18.594824 47.9058466,18.4045956 C47.8265847,18.2143672 47.7790276,17.9924341 47.7790276,17.8022057 L47.7790276,16.7083925 C47.7790276,16.2645263 47.9534037,16.0425932 48.270451,16.0425932 C48.3972699,16.0425932 48.5240888,16.0584456 48.6509077,16.1060027 C48.7777266,16.1535598 48.967955,16.2328216 49.1898881,16.3279358 C49.9190969,16.6449831 50.7117151,16.9144733 51.5518905,17.0729969 C52.4079182,17.247373 53.2480935,17.3266348 54.1041212,17.3266348 C55.4515722,17.3266348 56.5136807,17.0888493 57.2428895,16.6132784 C57.9720982,16.1377074 58.352555,15.4560557 58.352555,14.5683233 C58.352555,13.9659334 58.1623266,13.4745101 57.7660175,13.0623486 C57.3855607,12.6501871 56.656352,12.2855828 55.5942435,11.9526831 L52.48718,10.9856888 C50.9177959,10.4942655 49.7605732,9.76505674 49.0472168,8.79806249 C48.3338604,7.8469206 47.969256,6.80066452 47.969256,5.69099898 C47.969256,4.78741418 48.1594844,3.99479594 48.5557935,3.31314425 C48.9362503,2.63149256 49.4593783,2.0291027 50.0934729,1.55353175 C50.7434199,1.06210844 51.4726287,0.697504053 52.3286564,0.443866216 C53.1846841,0.190228378 54.0882688,0.0792618242 55.0394107,0.0792618242 C55.5149817,0.0792618242 56.006405,0.0951141891 56.4819759,0.158523648 C56.9733993,0.221933108 57.4331178,0.301194932 57.876984,0.396309121 C58.3049979,0.507275675 58.7171594,0.618242229 59.0976161,0.745061148 C59.4780729,0.871880066 59.7792678,0.998698985 60.0012009,1.1255179 C60.3023959,1.29989392 60.5084766,1.47426993 60.6511479,1.66449831 C60.7779668,1.83887432 60.8413763,2.07665979 60.8413763,2.37785473 L60.8413763,3.39240608 C60.8413763,3.83627229 60.6670003,4.07405777 60.349953,4.07405777 C60.175577,4.07405777 59.9060867,3.99479594 59.5414824,3.82041993 C58.3208503,3.26558716 56.9416945,2.98024459 55.4198675,2.98024459 C54.1992354,2.98024459 53.2322411,3.17047297 52.5664418,3.58263445 C51.9006425,3.99479594 51.5518905,4.61303817 51.5518905,5.48491824 C51.5518905,6.0873081 51.7738236,6.59458378 52.2018374,7.00674526 C52.6298513,7.41890675 53.4224695,7.81521587 54.5638398,8.17982026 L57.6074938,9.14681452 C59.1451732,9.63823783 60.2706911,10.3198895 60.9364905,11.2076219 C61.6022898,12.0953544 61.9193371,13.0940534 61.9193371,14.2037189 C61.9193371,15.1231561 61.7291087,15.9633314 61.3645043,16.6925402 C60.9840476,17.421749 60.4609195,18.0716959 59.7951202,18.5789716 C59.1293209,19.117952 58.3367026,19.4984088 57.4172655,19.7837513 C56.4502712,20.0849463 55.4357199,20.2434699 54.3419067,20.2434699 Z" id="Shape" fill="#252F3E" fill-rule="nonzero"></path>
										<g transform="translate(0.000000, 24.095595)" fill="#FF9900" id="Path">
											<path d="M58.4001121,6.56287905 C51.3458097,11.7783071 41.0893297,14.5524709 32.2595625,14.5524709 C19.8947179,14.5524709 8.76635776,9.98698985 0.348752027,2.39370709 C-0.317047297,1.79131723 0.285342567,0.98284662 1.07796081,1.4425652 C10.1772182,6.72140269 21.4006925,9.92358039 33.0046236,9.92358039 C40.8356918,9.92358039 49.443526,8.29078681 57.353856,4.94593783 C58.5427834,4.40695743 59.5573347,5.70685134 58.4001121,6.56287905 Z"></path>
											<path d="M61.3327996,3.21803006 C60.4292148,2.06080743 55.3723104,2.66319729 53.0737175,2.9326875 C52.3920658,3.01194932 52.2810993,2.42541182 52.8993415,1.96569324 C56.9258422,-0.871880066 63.567983,-0.0475570945 64.3288965,0.887732431 C65.1056624,1.85472669 64.1069634,8.48101519 60.3341006,11.6514882 C59.7475631,12.1429115 59.1927303,11.8892736 59.4622205,11.2393267 C60.3341006,9.14681452 62.2363844,4.35940033 61.3327996,3.21803006 Z"></path>
										</g>
									</g>
									<g id="Group" transform="translate(82.907868, 0.475571)" fill="#252F3E">
										<path d="M0.348752027,24.4919037 C0.237785473,24.4919037 0.126818919,24.4284942 0.126818919,24.2699706 L0.126818919,17.7387963 C0.126818919,17.6278297 0.190228378,17.5168632 0.348752027,17.5168632 L0.634094594,17.5168632 C0.808470607,17.5168632 0.856027702,17.5802726 0.856027702,17.7387963 L0.919437161,18.3094814 C1.36330338,17.9607294 1.80716959,17.7387963 2.31444527,17.5644202 C2.82172094,17.3900442 3.26558716,17.2790777 3.70945337,17.2790777 C4.3752527,17.2790777 4.88252837,17.4534537 5.21542803,17.8022057 C5.5483277,18.1509577 5.72270371,18.6582334 5.72270371,19.4032946 L5.72270371,24.2699706 C5.72270371,24.3809371 5.65929425,24.4919037 5.5007706,24.4919037 L5.10446148,24.4919037 C4.99349493,24.4919037 4.88252837,24.4284942 4.88252837,24.2699706 L4.88252837,19.7520466 C4.88252837,19.117952 4.77156182,18.7216429 4.54962871,18.4363003 C4.3276956,18.1509577 3.93138648,18.0399912 3.48752027,18.0399912 C2.59978783,18.0399912 1.69620304,18.3253338 0.856027702,18.9594284 L0.856027702,24.3492324 C0.856027702,24.460199 0.792618242,24.5711655 0.634094594,24.5711655 L0.348752027,24.5711655 L0.348752027,24.4919037 Z" id="Path"></path>
										<path d="M10.7637557,24.7296892 C9.70164728,24.7296892 8.86147195,24.4443466 8.35419627,23.810252 C7.7993635,23.1761574 7.51402094,22.2567202 7.51402094,21.0043834 C7.51402094,19.8630132 7.7993635,18.943576 8.35419627,18.3094814 C8.90902904,17.6753868 9.70164728,17.3424871 10.6527892,17.3424871 C11.4929645,17.3424871 12.1112067,17.5644202 12.555073,18.0875483 C12.9989392,18.5472669 13.2208723,19.2289186 13.2208723,20.1483557 C13.2208723,20.4971077 13.2208723,20.7824503 13.1574628,21.0043834 C13.1574628,21.11535 13.0464963,21.2263165 12.9355297,21.2263165 L8.35419627,21.2263165 C8.35419627,22.1933108 8.57612938,22.9383719 8.9724385,23.3980905 C9.36874762,23.8578091 10.0345469,24.0797422 10.8747223,24.0797422 C11.5405216,24.0797422 12.1587638,23.9687756 12.7135966,23.7309902 C12.8245632,23.6675807 12.9355297,23.6675807 12.9355297,23.6675807 C12.9989392,23.6675807 12.9989392,23.6675807 13.0464963,23.7309902 C13.0464963,23.7943996 13.1099057,23.7943996 13.1099057,23.8419567 L13.1099057,24.0638898 C13.1099057,24.2382658 13.0464963,24.2858229 12.9355297,24.3492324 C12.2697304,24.5553131 11.5405216,24.7296892 10.7637557,24.7296892 Z M12.428254,20.4812554 C12.428254,20.3702888 12.428254,20.1959128 12.428254,20.0215368 C12.428254,19.3398851 12.253878,18.8801665 11.9843878,18.5314145 C11.6514882,18.1826625 11.2076219,18.0082865 10.5893797,18.0082865 C9.13096215,18.0082865 8.40175337,18.8167571 8.29078681,20.465403 L12.428254,20.465403 L12.428254,20.4812554 Z" id="Shape" fill-rule="nonzero"></path>
										<path d="M17.0254398,24.6187226 C16.4706071,24.6187226 16.074298,24.4443466 15.7889554,24.159004 C15.5036128,23.8736615 15.3450892,23.4773523 15.3450892,22.8908148 L15.3450892,18.1985148 L14.2829807,18.1985148 C14.1720142,18.1985148 14.0610476,18.1351054 14.0610476,17.9765817 L14.0610476,17.8656152 C14.0610476,17.8022057 14.0610476,17.7546486 14.1244571,17.6912392 C14.1244571,17.6278297 14.1878665,17.6278297 14.2988331,17.6278297 L15.424351,17.5168632 L15.5353175,15.6779888 C15.5353175,15.6145794 15.598727,15.5670223 15.598727,15.5036128 C15.6621365,15.4402034 15.6621365,15.4402034 15.773103,15.4402034 L15.9950361,15.4402034 C16.1060027,15.4402034 16.2169692,15.5036128 16.2169692,15.6621365 L16.2169692,17.5010108 L18.1668101,17.5010108 C18.2777767,17.5010108 18.3887432,17.5644202 18.3887432,17.7229439 L18.3887432,18.0082865 C18.3887432,18.119253 18.3253338,18.2302196 18.1668101,18.2302196 L16.2169692,18.2302196 L16.2169692,22.8749625 C16.2169692,23.2712716 16.2803787,23.5090571 16.4389023,23.6834331 C16.6132784,23.8578091 16.8827686,23.9053662 17.2156682,23.9053662 C17.5010108,23.9053662 17.7229439,23.9053662 17.8814675,23.8419567 C17.9924341,23.8419567 18.0558436,23.7785473 18.1034007,23.7785473 C18.1668101,23.7785473 18.2143672,23.7785473 18.2143672,23.7785473 C18.3253338,23.7785473 18.3887432,23.8419567 18.3887432,23.9529233 L18.3887432,24.1748564 C18.3887432,24.3492324 18.3253338,24.3967895 18.2143672,24.460199 C17.8497628,24.5553131 17.4693061,24.6187226 17.0254398,24.6187226 Z" id="Path"></path>
										<path d="M21.4323973,24.4919037 C21.3214307,24.4919037 21.2104642,24.4284942 21.1470547,24.3175277 L19.0228378,17.8497628 C18.9594284,17.7387963 18.9594284,17.6753868 18.9594284,17.6278297 C18.9594284,17.5802726 19.0228378,17.5168632 19.1338044,17.5168632 L19.5776706,17.5168632 C19.6886371,17.5168632 19.7520466,17.5802726 19.7996037,17.6912392 L21.638478,23.5883189 L23.2554192,17.6912392 C23.3188287,17.5802726 23.3663858,17.5168632 23.5407618,17.5168632 L24.0480375,17.5168632 C24.159004,17.5168632 24.2699706,17.5802726 24.33338,17.6912392 L25.9503213,23.5883189 L27.852605,17.6278297 C27.9160145,17.5168632 27.9635716,17.4534537 28.0745381,17.4534537 L28.4708473,17.4534537 C28.5818138,17.4534537 28.6452233,17.5168632 28.6452233,17.5644202 C28.6452233,17.6278297 28.6452233,17.6753868 28.5818138,17.7863534 L26.3466304,24.2541182 C26.2832209,24.3650848 26.2356638,24.4284942 26.0612878,24.4284942 L25.6174216,24.4284942 C25.506455,24.4284942 25.3954885,24.3650848 25.332079,24.2541182 L23.7151378,18.3570385 L22.0981966,24.2541182 C22.0347871,24.3650848 21.98723,24.4284942 21.812854,24.4284942 L21.4165449,24.4284942 L21.4165449,24.4919037 L21.4323973,24.4919037 Z" id="Path"></path>
										<path d="M32.6717239,24.7296892 C31.673025,24.7296892 30.8804067,24.3809371 30.3255739,23.7626949 C29.7707412,23.1286003 29.4853986,22.2091631 29.4853986,21.0202358 C29.4853986,19.8788655 29.7707412,18.9594284 30.3255739,18.2777767 C30.8804067,17.6436821 31.673025,17.3107824 32.6717239,17.3107824 C33.6704229,17.3107824 34.4630412,17.6595344 35.0178739,18.2777767 C35.5727067,18.9118713 35.8580493,19.8313084 35.8580493,21.0202358 C35.8580493,22.1616061 35.5727067,23.0810432 35.0178739,23.7626949 C34.4630412,24.3809371 33.6862753,24.7296892 32.6717239,24.7296892 Z M32.6717239,23.984628 C34.2411081,23.984628 35.0178739,23.0176338 35.0178739,21.0043834 C35.0178739,19.0069854 34.2411081,18.0241388 32.6717239,18.0241388 C31.1023398,18.0241388 30.3255739,18.9911331 30.3255739,21.0043834 C30.3255739,23.0017814 31.1023398,23.984628 32.6717239,23.984628 Z" id="Shape" fill-rule="nonzero"></path>
										<path d="M37.8237425,24.4919037 C37.712776,24.4919037 37.6018094,24.4284942 37.6018094,24.2699706 L37.6018094,17.7387963 C37.6018094,17.6278297 37.6652189,17.5168632 37.8237425,17.5168632 L38.1090851,17.5168632 C38.2834611,17.5168632 38.3310182,17.5802726 38.3310182,17.7387963 L38.3944277,18.5472669 C38.7273273,18.1509577 39.060227,17.8656152 39.3931266,17.7387963 C39.7260263,17.5644202 40.1223354,17.5168632 40.5186445,17.5168632 C40.6930206,17.5168632 40.8039871,17.5168632 40.8515442,17.5168632 C40.9625108,17.5168632 41.0734773,17.5802726 41.0734773,17.7387963 L41.0734773,18.0875483 C41.0734773,18.1509577 41.0734773,18.1509577 41.0100679,18.1985148 C40.9466584,18.2619243 40.9466584,18.2619243 40.8991013,18.2619243 C40.8515442,18.2619243 40.7247253,18.2619243 40.6771682,18.2619243 C40.6137587,18.2619243 40.5027922,18.2619243 40.3918256,18.2619243 C39.9955165,18.2619243 39.6150597,18.3253338 39.2663077,18.4838574 C38.9334081,18.6582334 38.6480655,18.8801665 38.3151658,19.2289186 L38.3151658,24.33338 C38.3151658,24.4443466 38.2517564,24.5553131 38.0932327,24.5553131 L37.8078902,24.5553131 L37.8078902,24.4919037 L37.8237425,24.4919037 Z" id="Path"></path>
										<g>
											<path d="M0.348752027,11.9526831 C0.237785473,11.9526831 0.126818919,11.8892736 0.126818919,11.73075 L0.126818919,2.28274054 C0.126818919,2.17177398 0.190228378,2.06080743 0.348752027,2.06080743 L0.634094594,2.06080743 C0.808470607,2.06080743 0.856027702,2.12421689 0.856027702,2.28274054 L0.919437161,2.85342567 C1.31574628,2.50467365 1.7596125,2.28274054 2.15592162,2.10836452 C2.55223074,1.93398851 2.9326875,1.88643142 3.39240608,1.88643142 C4.28013851,1.88643142 4.9617902,2.23518344 5.46906587,2.85342567 C5.97634155,3.48752027 6.24583175,4.40695743 6.24583175,5.48491824 C6.24583175,6.62628851 5.96048918,7.54572567 5.46906587,8.22737735 C4.9142331,8.90902904 4.23258141,9.25778107 3.28143952,9.25778107 C2.44126419,9.25778107 1.7120554,8.90902904 0.98284662,8.29078681 L0.98284662,11.73075 C0.98284662,11.8417165 0.919437161,11.9526831 0.760913513,11.9526831 L0.348752027,11.9526831 Z M3.1546206,8.51271992 C3.88382939,8.51271992 4.43866216,8.29078681 4.83497128,7.76765877 C5.2312804,7.24453073 5.38980405,6.49946959 5.38980405,5.53247533 C5.38980405,3.58263445 4.66059526,2.6156402 3.2021777,2.6156402 C2.47296892,2.6156402 1.69620304,2.90098277 0.966994256,3.53507736 L0.966994256,7.60913513 C1.36330338,7.95788715 1.69620304,8.17982026 2.0291027,8.35419627 C2.36200236,8.40175337 2.75831148,8.51271992 3.1546206,8.51271992 Z" id="Shape" fill-rule="nonzero"></path>
											<path d="M9.52727127,9.21022397 C8.90902904,9.21022397 8.40175337,9.03584796 8.02129661,8.63953884 C7.62498749,8.29078681 7.46646384,7.78351114 7.46646384,7.14941654 C7.46646384,6.46776486 7.68839695,5.94463682 8.13226317,5.5483277 C8.57612938,5.15201857 9.19437161,4.97764256 9.97113749,4.97764256 C10.5893797,4.97764256 11.2076219,5.08860912 11.9209784,5.32639459 L11.9209784,4.18502432 C11.9209784,3.61433918 11.8100118,3.21803006 11.5246692,2.98024459 C11.2393267,2.75831148 10.8588699,2.63149256 10.2406277,2.63149256 C9.62238546,2.63149256 8.95658614,2.74245912 8.29078681,2.98024459 C8.22737735,2.98024459 8.1164108,3.04365405 8.06885371,3.04365405 C7.95788715,3.04365405 7.95788715,2.98024459 7.95788715,2.86927804 L7.95788715,2.58393547 C7.95788715,2.52052601 7.95788715,2.47296892 8.02129661,2.40955946 C8.08470607,2.34615 8.08470607,2.34615 8.13226317,2.2985929 C8.86147195,2.01325034 9.59068073,1.83887432 10.4308561,1.83887432 C11.2076219,1.83887432 11.8258642,2.01325034 12.2221733,2.36200236 C12.6184824,2.71075439 12.7770061,3.21803006 12.7770061,3.91553412 L12.7770061,8.84561958 C12.7770061,8.95658614 12.7135966,9.06755269 12.555073,9.06755269 L12.2697304,9.06755269 C12.1587638,9.06755269 12.0477973,9.00414323 12.0477973,8.84561958 L11.9843878,8.27493445 C11.2076219,8.90902904 10.3674466,9.21022397 9.52727127,9.21022397 Z M9.63823783,8.51271992 C9.97113749,8.51271992 10.3674466,8.44931046 10.7637557,8.29078681 C11.1600649,8.1164108 11.5405216,7.94203479 12.0002402,7.65669222 L12.0002402,5.94463682 C11.381998,5.7702608 10.8271652,5.72270371 10.208923,5.72270371 C8.92488141,5.72270371 8.30663918,6.24583175 8.30663918,7.212826 C8.30663918,7.60913513 8.41760573,7.95788715 8.63953884,8.17982026 C8.86147195,8.40175337 9.19437161,8.51271992 9.63823783,8.51271992 Z" id="Shape" fill-rule="nonzero"></path>
											<path d="M15.0597466,9.08340506 C14.94878,9.08340506 14.8378135,9.0199956 14.8378135,8.86147195 L14.8378135,2.26688817 C14.8378135,2.15592162 14.901223,2.04495506 15.0597466,2.04495506 L15.3450892,2.04495506 C15.5194652,2.04495506 15.5670223,2.10836452 15.5670223,2.26688817 L15.6304317,3.07535878 C15.9633314,2.67904966 16.2962311,2.39370709 16.6291307,2.26688817 C16.9620304,2.09251216 17.3583395,2.04495506 17.7546486,2.04495506 C17.9290246,2.04495506 18.0399912,2.04495506 18.0875483,2.04495506 C18.1985148,2.04495506 18.3094814,2.10836452 18.3094814,2.26688817 L18.3094814,2.6156402 C18.3094814,2.67904966 18.3094814,2.67904966 18.2460719,2.72660675 C18.2460719,2.79001621 18.1826625,2.79001621 18.1351054,2.79001621 C18.0716959,2.79001621 17.9607294,2.79001621 17.9131723,2.79001621 C17.8497628,2.79001621 17.7387963,2.79001621 17.6278297,2.79001621 C17.2315206,2.79001621 16.8510638,2.85342567 16.5023118,3.01194932 C16.1694121,3.18632533 15.8840696,3.40825844 15.5511699,3.75701047 L15.5511699,8.86147195 C15.5511699,8.9724385 15.4877605,9.08340506 15.3292368,9.08340506 L15.0597466,9.08340506 Z" id="Path"></path>
											<path d="M21.8762635,9.14681452 C21.3214307,9.14681452 20.9251216,8.9724385 20.639779,8.68709593 C20.3544365,8.40175337 20.1959128,8.00544425 20.1959128,7.41890675 L20.1959128,2.77416385 L19.1338044,2.77416385 C19.0228378,2.77416385 18.9118713,2.71075439 18.9118713,2.55223074 L18.9118713,2.44126419 C18.9118713,2.37785473 18.9118713,2.33029763 18.9752807,2.26688817 C18.9752807,2.20347871 19.0386902,2.20347871 19.1496567,2.20347871 L20.2751746,2.09251216 L20.3861412,0.253637838 C20.3861412,0.190228378 20.4495506,0.142671284 20.4495506,0.0792618242 C20.5129601,0.0158523648 20.5129601,0.0158523648 20.6239267,0.0158523648 L20.8458598,0.0158523648 C20.9568263,0.0158523648 21.0677929,0.0792618242 21.0677929,0.237785473 L21.0677929,2.07665979 L23.0176338,2.07665979 C23.1286003,2.07665979 23.2395669,2.14006925 23.2395669,2.2985929 L23.2395669,2.58393547 C23.2395669,2.69490202 23.1761574,2.80586858 23.0176338,2.80586858 L21.0677929,2.80586858 L21.0677929,7.45061148 C21.0677929,7.8469206 21.1312023,8.08470607 21.289726,8.25908208 C21.464102,8.4334581 21.7335922,8.48101519 22.0664919,8.48101519 C22.3518344,8.48101519 22.5737675,8.48101519 22.7322912,8.41760573 C22.8432577,8.41760573 22.9066672,8.35419627 22.9542243,8.35419627 C23.0176338,8.35419627 23.0651908,8.35419627 23.0651908,8.35419627 C23.1761574,8.35419627 23.2395669,8.41760573 23.2395669,8.52857229 L23.2395669,8.75050539 C23.2395669,8.92488141 23.1761574,8.9724385 23.0651908,9.03584796 C22.7164388,9.08340506 22.3359821,9.14681452 21.8762635,9.14681452 Z" id="Path"></path>
											<path d="M24.9040652,9.08340506 C24.7930986,9.08340506 24.6821321,9.0199956 24.6821321,8.86147195 L24.6821321,2.26688817 C24.6821321,2.15592162 24.7455415,2.04495506 24.9040652,2.04495506 L25.1894077,2.04495506 C25.3637838,2.04495506 25.4113408,2.10836452 25.4113408,2.26688817 L25.4747503,2.83757331 C25.9186165,2.48882128 26.3624827,2.26688817 26.8697584,2.09251216 C27.3770341,1.91813615 27.8209003,1.80716959 28.2647665,1.80716959 C28.9305658,1.80716959 29.4378415,1.98154561 29.7707412,2.33029763 C30.1036408,2.67904966 30.2780169,3.18632533 30.2780169,3.93138648 L30.2780169,8.79806249 C30.2780169,8.90902904 30.2146074,9.0199956 30.0560837,9.0199956 L29.6597746,9.0199956 C29.5488081,9.0199956 29.4378415,8.95658614 29.4378415,8.79806249 L29.4378415,4.3276956 C29.4378415,3.69360101 29.326875,3.29729189 29.1049419,3.01194932 C28.8830087,2.72660675 28.4866996,2.6156402 28.0428334,2.6156402 C27.155101,2.6156402 26.2515162,2.90098277 25.4113408,3.53507736 L25.4113408,8.92488141 C25.4113408,9.03584796 25.3479314,9.14681452 25.1894077,9.14681452 L24.9040652,9.14681452 L24.9040652,9.08340506 Z" id="Path"></path>
											<path d="M35.3032165,9.25778107 C34.2411081,9.25778107 33.4009327,8.9724385 32.8936571,8.33834391 C32.3388243,7.70424931 32.0534817,6.78481215 32.0534817,5.53247533 C32.0534817,4.39110506 32.3388243,3.4716679 32.8936571,2.83757331 C33.4484898,2.20347871 34.2411081,1.87057905 35.19225,1.87057905 C36.0324253,1.87057905 36.6506675,2.09251216 37.0945337,2.6156402 C37.5384,3.07535878 37.7603331,3.75701047 37.7603331,4.67644763 C37.7603331,5.02519966 37.7603331,5.31054222 37.6969236,5.53247533 C37.6969236,5.64344188 37.585957,5.75440844 37.4749905,5.75440844 L32.8936571,5.75440844 C32.8936571,6.72140269 33.1155902,7.46646384 33.5118993,7.92618242 C33.9082084,8.385901 34.5740077,8.60783411 35.4141831,8.60783411 C36.0799824,8.60783411 36.6982246,8.49686756 37.2530574,8.25908208 C37.3640239,8.19567262 37.4749905,8.19567262 37.4749905,8.19567262 C37.5384,8.19567262 37.5384,8.19567262 37.585957,8.25908208 C37.585957,8.32249154 37.6493665,8.32249154 37.6493665,8.37004864 L37.6493665,8.59198175 C37.6493665,8.76635776 37.585957,8.81391485 37.4749905,8.87732431 C36.7616341,9.08340506 36.0799824,9.25778107 35.3032165,9.25778107 Z M36.9835672,5.07275675 C36.9835672,4.9617902 36.9835672,4.78741418 36.9835672,4.61303817 C36.9835672,3.93138648 36.8091912,3.4716679 36.539701,3.12291587 C36.2068013,2.77416385 35.7629351,2.59978783 35.1446929,2.59978783 C33.6862753,2.59978783 32.9570665,3.40825844 32.8461,5.05690439 L36.9835672,5.05690439 L36.9835672,5.07275675 Z" id="Shape" fill-rule="nonzero"></path>
											<path d="M39.6150597,9.08340506 C39.5040932,9.08340506 39.3931266,9.0199956 39.3931266,8.86147195 L39.3931266,2.26688817 C39.3931266,2.15592162 39.4565361,2.04495506 39.6150597,2.04495506 L39.9004023,2.04495506 C40.0747783,2.04495506 40.1223354,2.10836452 40.1223354,2.26688817 L40.1857449,3.07535878 C40.5186445,2.67904966 40.8515442,2.39370709 41.1844439,2.26688817 C41.5173435,2.09251216 41.9136526,2.04495506 42.3099618,2.04495506 C42.4843378,2.04495506 42.5953043,2.04495506 42.6428614,2.04495506 C42.753828,2.04495506 42.8647945,2.10836452 42.8647945,2.26688817 L42.8647945,2.6156402 C42.8647945,2.67904966 42.8647945,2.67904966 42.8013851,2.72660675 C42.8013851,2.79001621 42.7379756,2.79001621 42.6904185,2.79001621 C42.6270091,2.79001621 42.5160425,2.79001621 42.4684854,2.79001621 C42.405076,2.79001621 42.2941094,2.79001621 42.1831429,2.79001621 C41.7868337,2.79001621 41.406377,2.85342567 41.0576249,3.01194932 C40.7247253,3.18632533 40.4393827,3.40825844 40.1064831,3.75701047 L40.1064831,8.86147195 C40.1064831,8.9724385 40.0430736,9.08340506 39.8845499,9.08340506 L39.6150597,9.08340506 Z" id="Path"></path>
											<path d="M42.4526331,24.4919037 C42.3416665,24.4919037 42.2306999,24.4284942 42.2306999,24.2699706 L42.2306999,14.4097996 C42.2306999,14.2988331 42.2941094,14.1878665 42.4526331,14.1878665 L42.8489422,14.1878665 C42.9599087,14.1878665 43.0708753,14.251276 43.0708753,14.4097996 L43.0708753,20.5922219 L46.3206101,17.6119773 C46.4315766,17.5010108 46.5425432,17.5010108 46.6535097,17.5010108 L47.1607854,17.5010108 C47.271752,17.5010108 47.3351614,17.5644202 47.3351614,17.6119773 C47.3351614,17.6595344 47.271752,17.7229439 47.1607854,17.8339105 L43.8634935,20.814155 L47.446128,24.1907088 C47.5095374,24.2541182 47.5570945,24.3016753 47.5570945,24.3650848 C47.5570945,24.4760513 47.4936851,24.4760513 47.3827185,24.4760513 L46.8278858,24.4760513 C46.7169192,24.4760513 46.6059526,24.4126419 46.5425432,24.3650848 L43.0708753,21.0360881 L43.0708753,24.2382658 C43.0708753,24.3492324 43.0074658,24.460199 42.8489422,24.460199 L42.4526331,24.460199 L42.4526331,24.4919037 Z" id="Path"></path>
										</g>
									</g>
								</g>
								<path d="M2.05156022,54.7492244 L4.14407238,49.2960109 L4.92083825,49.2960109 L7.1560217,54.7492244 L6.33169873,54.7492244 L5.69760413,53.1005785 L3.41486359,53.1005785 L2.81247373,54.7492244 L2.05156022,54.7492244 Z M3.62094434,52.514041 L5.45981866,52.514041 L4.88913352,51.0080663 C4.71475751,50.5483477 4.58793859,50.167891 4.50867677,49.8825484 C4.44526731,50.2313004 4.33430075,50.5800524 4.20748184,50.9288045 L3.62094434,52.514041 Z" id="Shape" fill="#5A5B5E" fill-rule="nonzero"></path>
								<path d="M7.50477372,54.7492244 L7.50477372,49.2960109 L9.37535278,49.2960109 C9.70825244,49.2801585 10.0252997,49.3118633 10.342347,49.3752727 C10.643542,49.4386822 10.9130322,49.5655011 11.1349653,49.7715818 C11.4203078,50.0252197 11.6422409,50.342267 11.7849122,50.7068714 C11.9275835,51.1190328 12.0068453,51.5628991 11.990993,52.0067653 C11.990993,52.3713697 11.9434359,52.7518264 11.8483217,53.1005785 C11.7690599,53.385921 11.6422409,53.6554112 11.4837173,53.8931967 C11.3568984,54.0834251 11.1825224,54.2578011 10.992294,54.38462 C10.7862132,54.5114389 10.5801325,54.6065531 10.342347,54.6541102 C10.0570045,54.7175197 9.75580953,54.7492244 9.47046696,54.7492244 L7.50477372,54.7492244 Z M8.21813014,54.0992774 L9.37535278,54.0992774 C9.66069534,54.1151298 9.94603791,54.0675727 10.2155281,54.0041632 C10.4057565,53.9566062 10.5642801,53.8456396 10.7069514,53.7188207 C10.8971798,53.5285923 11.0239987,53.2908068 11.1032605,53.037169 C11.1983747,52.7042693 11.2617842,52.3396649 11.2459318,51.9909129 C11.2459318,51.4202278 11.1508176,50.9763616 10.9605893,50.6751666 C10.8020656,50.4056764 10.5642801,50.1837433 10.2789376,50.0569244 C9.97774264,49.9618102 9.66069534,49.9301055 9.34364805,49.9459578 L8.21813014,49.9459578 L8.21813014,54.0992774 Z" id="Shape" fill="#5A5B5E" fill-rule="nonzero"></path>
								<path d="M14.3212906,54.7492244 L12.2129261,49.2960109 L12.989692,49.2960109 L14.4005524,53.2591021 C14.511519,53.5761494 14.6066332,53.8773443 14.685895,54.1468345 C14.7651568,53.8456396 14.860271,53.5444447 14.9870899,53.2591021 L16.4613599,49.2960109 L17.1905686,49.2960109 L15.0663518,54.7492244 L14.3212906,54.7492244 Z" id="Path" fill="#5A5B5E"></path>
								<path d="M16.4455075,54.7492244 L18.5380197,49.2960109 L19.3147855,49.2960109 L21.549969,54.7492244 L20.725646,54.7492244 L20.0915514,53.1005785 L17.8088109,53.1005785 L17.206421,54.7492244 L16.4455075,54.7492244 Z M18.0148916,52.514041 L19.8537659,52.514041 L19.2830808,51.0080663 C19.1087048,50.5483477 18.9818859,50.167891 18.902624,49.8825484 C18.8392146,50.2313004 18.728248,50.5800524 18.6014291,50.9288045 L18.0148916,52.514041 Z" id="Shape" fill="#5A5B5E" fill-rule="nonzero"></path>
								<polygon id="Path" fill="#5A5B5E" points="21.8828686 54.7492244 21.8828686 49.2960109 22.6279298 49.2960109 25.4813555 53.5761494 25.4813555 49.2960109 26.1788595 49.2960109 26.1788595 54.7492244 25.4337984 54.7492244 22.5803727 50.4690859 22.5803727 54.7492244"></polygon>
								<path d="M31.0455355,52.8469406 L31.7588919,53.0213166 C31.6479254,53.5444447 31.3625828,54.0200156 30.9504213,54.3687676 C30.5382598,54.6858149 30.0309842,54.8443386 29.5078561,54.8284862 C29.0005805,54.8443386 28.5091571,54.733372 28.0811433,54.4638818 C27.7006865,54.210244 27.415344,53.8456396 27.240968,53.4176257 C27.0507396,52.9579072 26.9556254,52.4664839 26.9556254,51.9592082 C26.939773,51.4519325 27.0507396,50.9288045 27.288525,50.4690859 C27.4946058,50.0569244 27.8116531,49.7240247 28.2079622,49.5020916 C28.6201237,49.2801585 29.0639899,49.169192 29.5237085,49.169192 C30.0151318,49.1533396 30.4907027,49.2960109 30.9028642,49.5813535 C31.283321,49.866696 31.5528112,50.2788575 31.6796301,50.7544285 L30.9662737,50.9288045 C30.8711595,50.5959048 30.6809311,50.2947099 30.4114409,50.0569244 C30.1419507,49.866696 29.8249034,49.7715818 29.5078561,49.7874342 C29.1273994,49.7715818 28.762795,49.8825484 28.4616,50.0886291 C28.1762575,50.2947099 27.9701767,50.5642001 27.8750625,50.8970997 C27.764096,51.2299994 27.7006865,51.5946038 27.7006865,51.9433558 C27.6848342,52.3555173 27.764096,52.7676788 27.9067673,53.1639879 C28.0177338,53.4810352 28.2396669,53.7663778 28.5408619,53.9407538 C28.8262044,54.1151298 29.1432517,54.1943916 29.460299,54.1943916 C29.8407558,54.210244 30.1895078,54.0834251 30.4907027,53.8456396 C30.7760453,53.6078541 30.9821261,53.2432497 31.0455355,52.8469406 Z" id="Path" fill="#5A5B5E"></path>
								<polygon id="Path" fill="#5A5B5E" points="32.4405436 54.7492244 32.4405436 49.2960109 36.3719301 49.2960109 36.3719301 49.9459578 33.1539 49.9459578 33.1539 51.6104562 36.1658494 51.6104562 36.1658494 52.2445507 33.1539 52.2445507 33.1539 54.0992774 36.498749 54.0992774 36.498749 54.7492244 32.4405436 54.7492244"></polygon>
								<path d="M37.2755149,54.7492244 L37.2755149,49.2960109 L39.146094,49.2960109 C39.4789936,49.2801585 39.7960409,49.3118633 40.1130882,49.3752727 C40.4142831,49.4386822 40.6837733,49.5655011 40.9057065,49.7715818 C41.191049,50.0252197 41.4129821,50.342267 41.5556534,50.7068714 C41.6983247,51.1190328 41.7775865,51.5628991 41.7617342,52.0067653 C41.7617342,52.3713697 41.7141771,52.7518264 41.6190629,53.1005785 C41.539801,53.385921 41.4129821,53.6554112 41.2544585,53.8931967 C41.1276396,54.0834251 40.9532635,54.2578011 40.7630352,54.38462 C40.5569544,54.5114389 40.3508737,54.6065531 40.1130882,54.6541102 C39.8277456,54.7175197 39.5265507,54.7492244 39.2412081,54.7492244 L37.2755149,54.7492244 Z M37.9888713,54.0992774 L39.146094,54.0992774 C39.4314365,54.1151298 39.7167791,54.0675727 39.9862693,54.0041632 C40.1764977,53.9566062 40.3350213,53.8456396 40.4776926,53.7188207 C40.667921,53.5285923 40.7947399,53.2908068 40.8740017,53.037169 C40.9691159,52.7042693 41.0325254,52.3396649 41.016673,51.9909129 C41.016673,51.4202278 40.9215588,50.9763616 40.7313304,50.6751666 C40.5728068,50.4056764 40.3350213,50.1837433 40.0496787,50.0569244 C39.7484838,49.9618102 39.4314365,49.9301055 39.1143892,49.9459578 L37.973019,49.9459578 L37.9888713,54.0992774 Z" id="Shape" fill="#5A5B5E" fill-rule="nonzero"></path>
								<polygon id="Path" fill="#5A5B5E" points="45.6772683 54.7492244 45.6772683 49.9459578 43.885951 49.9459578 43.885951 49.2960109 48.1977943 49.2960109 48.1977943 49.9459578 46.3906247 49.9459578 46.3906247 54.7492244"></polygon>
								<polygon id="Path" fill="#5A5B5E" points="48.7209223 54.7492244 48.7209223 49.2960109 52.6523088 49.2960109 52.6523088 49.9459578 49.4342787 49.9459578 49.4342787 51.6104562 52.4462281 51.6104562 52.4462281 52.2445507 49.4342787 52.2445507 49.4342787 54.0992774 52.7791277 54.0992774 52.7791277 54.7492244 48.7209223 54.7492244"></polygon>
								<path d="M57.439723,52.8469406 L58.1530794,53.0213166 C58.0421128,53.5444447 57.7567703,54.0200156 57.3446088,54.3687676 C56.9324473,54.6858149 56.4251716,54.8443386 55.9020436,54.8284862 C55.3947679,54.8443386 54.9033446,54.733372 54.4753308,54.4638818 C54.094874,54.210244 53.8095314,53.8456396 53.6351554,53.4176257 C53.444927,52.9579072 53.3498129,52.4664839 53.3498129,51.9592082 C53.3339605,51.4519325 53.444927,50.9288045 53.6827125,50.4690859 C53.8887933,50.0569244 54.2058406,49.7240247 54.6021497,49.5020916 C55.0143112,49.2801585 55.4581774,49.169192 55.917896,49.169192 C56.4093193,49.1533396 56.8848902,49.2960109 57.2970517,49.5813535 C57.6775085,49.866696 57.9469987,50.2788575 58.0738176,50.7544285 L57.3604612,50.9288045 C57.265347,50.5959048 57.0751186,50.2947099 56.8056284,50.0569244 C56.5361382,49.866696 56.2190909,49.7715818 55.9020436,49.7874342 C55.5215868,49.7715818 55.1569824,49.8825484 54.8557875,50.0886291 C54.5704449,50.2947099 54.3643642,50.5642001 54.26925,50.8970997 C54.1582835,51.2299994 54.094874,51.5946038 54.094874,51.9433558 C54.0790216,52.3555173 54.1582835,52.7676788 54.3009547,53.1639879 C54.4119213,53.4810352 54.6338544,53.7663778 54.9350493,53.9407538 C55.2203919,54.1151298 55.5374392,54.1943916 55.8544865,54.1943916 C56.2349433,54.210244 56.5836953,54.0834251 56.8848902,53.8456396 C57.1702328,53.6078541 57.3763135,53.2432497 57.439723,52.8469406 Z" id="Path" fill="#5A5B5E"></path>
								<polygon id="Path" fill="#5A5B5E" points="58.8505835 54.7492244 58.8505835 49.2960109 59.5639399 49.2960109 59.5639399 51.5311943 62.4015132 51.5311943 62.4015132 49.2960109 63.1148696 49.2960109 63.1148696 54.7492244 62.4015132 54.7492244 62.4015132 52.1811413 59.5639399 52.1811413 59.5639399 54.7492244"></polygon>
								<polygon id="Path" fill="#5A5B5E" points="64.0818639 54.7492244 64.0818639 49.2960109 64.826925 49.2960109 67.6803507 53.5761494 67.6803507 49.2960109 68.3778547 49.2960109 68.3778547 54.7492244 67.6327936 54.7492244 64.7793679 50.4690859 64.7793679 54.7492244"></polygon>
								<path d="M69.1387682,52.1018795 C69.1387682,51.1982947 69.3765537,50.4849383 69.867977,49.9776626 C70.3594003,49.4703869 71.041052,49.1850443 71.7544084,49.2167491 C72.2299794,49.2167491 72.7055503,49.3277156 73.1177118,49.5813535 C73.5140209,49.8191389 73.8469206,50.167891 74.037149,50.5800524 C74.2590821,51.039771 74.3700486,51.5311943 74.3541963,52.03847 C74.3700486,52.5457457 74.2432297,53.0530214 74.0212966,53.5285923 C73.8152159,53.9407538 73.4823162,54.2895058 73.0701547,54.5114389 C72.6579932,54.733372 72.214127,54.8443386 71.7544084,54.8443386 C71.2629851,54.8443386 70.7874142,54.7175197 70.3752527,54.4797342 C69.9789436,54.2419487 69.6618963,53.8931967 69.4558155,53.4651828 C69.2497348,53.037169 69.1387682,52.561598 69.1387682,52.1018795 Z M69.8838294,52.1018795 C69.8838294,52.7518264 70.0582054,53.2749545 70.4069574,53.6554112 C71.1203138,54.38462 72.2775365,54.4163247 73.0225976,53.7029683 C73.03845,53.687116 73.0543024,53.6712636 73.0860071,53.6395589 C73.4347591,53.2591021 73.6091351,52.7201217 73.6091351,52.0226176 C73.6249875,51.6263085 73.5457257,51.2299994 73.387202,50.865395 C73.2445307,50.5483477 73.0225976,50.2788575 72.7372551,50.0886291 C72.4519125,49.8984008 72.1031605,49.8032866 71.7702608,49.8191389 C71.2788375,49.8191389 70.8032665,49.9935149 70.4545145,50.342267 C70.0582054,50.7068714 69.8838294,51.2934089 69.8838294,52.1018795 Z" id="Shape" fill="#5A5B5E" fill-rule="nonzero"></path>
								<polygon id="Path" fill="#5A5B5E" points="75.0199956 54.7492244 75.0199956 49.2960109 75.733352 49.2960109 75.733352 54.0992774 78.4124017 54.0992774 78.4124017 54.7492244 75.0199956 54.7492244"></polygon>
								<path d="M78.8404155,52.1018795 C78.8404155,51.1982947 79.078201,50.4849383 79.5696243,49.9776626 C80.0610476,49.4703869 80.7426993,49.1850443 81.4560557,49.2167491 C81.9316267,49.2167491 82.4071976,49.3277156 82.8193591,49.5813535 C83.2156682,49.8191389 83.5485679,50.167891 83.7387963,50.5800524 C83.9607294,51.039771 84.0716959,51.5311943 84.0558436,52.03847 C84.0716959,52.5457457 83.944877,53.0530214 83.7229439,53.5285923 C83.5168632,53.9407538 83.1839635,54.2895058 82.771802,54.5114389 C82.3596405,54.733372 81.9157743,54.8443386 81.4560557,54.8443386 C80.9646324,54.8443386 80.4890615,54.7175197 80.0769,54.4797342 C79.6805909,54.2419487 79.3635436,53.8931967 79.1574628,53.4651828 C78.9355297,53.037169 78.8245632,52.561598 78.8404155,52.1018795 Z M79.5696243,52.1018795 C79.5696243,52.7518264 79.7440003,53.2749545 80.0927523,53.6554112 C80.8061088,54.38462 81.9633314,54.4163247 82.7083925,53.7029683 C82.7242449,53.687116 82.7400973,53.6712636 82.771802,53.6395589 C83.120554,53.2591021 83.29493,52.7201217 83.29493,52.0226176 C83.3107824,51.6263085 83.2315206,51.2299994 83.0729969,50.865395 C82.9303257,50.5483477 82.7083925,50.2788575 82.42305,50.0886291 C82.1377074,49.8984008 81.7889554,49.8032866 81.4560557,49.8191389 C80.9646324,49.8191389 80.4890615,49.9935149 80.1403094,50.342267 C79.7598527,50.7068714 79.5696243,51.2934089 79.5696243,52.1018795 Z" id="Shape" fill="#5A5B5E" fill-rule="nonzero"></path>
								<path d="M87.289726,52.6091551 L87.289726,51.9750605 L89.6041713,51.9750605 L89.6041713,54.0041632 C89.2712716,54.2736534 88.9066672,54.4797342 88.5103581,54.6382578 C88.1457537,54.7809291 87.7494446,54.8443386 87.3531354,54.8443386 C86.8458598,54.8443386 86.3385841,54.733372 85.8947179,54.4955866 C85.466704,54.2736534 85.117952,53.9249014 84.9118713,53.4968876 C84.6899382,53.0530214 84.5631192,52.5457457 84.5789716,52.03847 C84.5789716,51.5311943 84.6899382,51.0239187 84.9118713,50.5483477 C85.117952,50.1203339 85.4508517,49.7557295 85.8630132,49.517944 C86.3068794,49.2960109 86.7983027,49.169192 87.3055784,49.1850443 C87.6701827,49.1850443 88.0347871,49.2484538 88.3676868,49.3752727 C88.6530294,49.4862393 88.9225196,49.6606153 89.1127479,49.9142531 C89.3188287,50.1837433 89.4456476,50.4849383 89.5249094,50.8019855 L88.8749625,50.9763616 C88.811553,50.7385761 88.7164388,50.516643 88.5737675,50.3264146 C88.4310963,50.1520386 88.2567202,50.0252197 88.0506395,49.9459578 C87.812854,49.8508437 87.5592162,49.8032866 87.3055784,49.8032866 C87.0202358,49.8032866 86.7190409,49.8508437 86.4495506,49.9459578 C86.2276175,50.0252197 86.0373892,50.167891 85.8630132,50.342267 C85.7203419,50.5007906 85.6093753,50.691019 85.5142611,50.8812474 C85.3715898,51.2299994 85.3081804,51.5946038 85.3081804,51.9750605 C85.292328,52.4030744 85.3874422,52.8152359 85.5618182,53.1956926 C85.7203419,53.5127399 85.9739797,53.7663778 86.291027,53.9249014 C86.6080743,54.0834251 86.9568263,54.1626869 87.3055784,54.1626869 C87.6226256,54.1626869 87.9238206,54.0992774 88.2250155,53.9883109 C88.462801,53.8931967 88.7005865,53.7663778 88.9066672,53.6078541 L88.9066672,52.5933028 L87.289726,52.6091551 Z" id="Path" fill="#5A5B5E"></path>
								<path d="M91.9661736,54.7492244 L91.9661736,52.4347791 L89.8736615,49.2960109 L90.7455415,49.2960109 L91.8235023,50.9446568 C92.0137307,51.2458518 92.2039591,51.5628991 92.3783351,51.864094 C92.5368587,51.5787514 92.7429395,51.2617041 92.980725,50.8970997 L94.0428334,49.2960109 L94.8830087,49.2960109 L92.7112348,52.4347791 L92.7112348,54.7492244 L91.9661736,54.7492244 Z" id="Path" fill="#5A5B5E"></path>
								<path d="M97.023078,54.7492244 L97.023078,49.2960109 L99.0838854,49.2960109 C99.3533756,49.2960109 99.6387182,49.3118633 99.9082084,49.343568 C100.145994,49.3752727 100.383779,49.4703869 100.574008,49.5972058 C100.764236,49.7240247 100.906907,49.9142531 101.017874,50.1203339 C101.319069,50.7544285 101.208102,51.515342 100.748384,52.03847 C100.447189,52.3555173 99.9240608,52.514041 99.1472949,52.514041 L97.7522868,52.514041 L97.7522868,54.733372 L97.023078,54.733372 L97.023078,54.7492244 Z M97.7522868,51.8957987 L99.1631473,51.8957987 C99.6228658,51.8957987 99.9557655,51.8165369 100.161846,51.6421609 C100.367927,51.4519325 100.478894,51.1824423 100.463041,50.9129521 C100.463041,50.7068714 100.415484,50.5007906 100.288665,50.3264146 C100.177699,50.167891 100.019175,50.0569244 99.8289466,50.0093673 C99.6070135,49.9618102 99.3850804,49.9459578 99.1631473,49.9618102 L97.7681391,49.9618102 L97.7681391,51.8957987 L97.7522868,51.8957987 Z" id="Shape" fill="#5A5B5E" fill-rule="nonzero"></path>
								<path d="M100.716679,54.7492244 L102.809191,49.2960109 L103.585957,49.2960109 L105.82114,54.7492244 L104.996818,54.7492244 L104.362723,53.1005785 L102.079982,53.1005785 L101.477593,54.7492244 L100.716679,54.7492244 Z M102.286063,52.514041 L104.124937,52.514041 L103.554252,51.0080663 C103.379876,50.5483477 103.253057,50.167891 103.173796,49.8825484 C103.110386,50.2313004 102.99942,50.5800524 102.872601,50.9288045 L102.286063,52.514041 Z" id="Shape" fill="#5A5B5E" fill-rule="nonzero"></path>
								<path d="M106.169893,54.7492244 L106.169893,49.2960109 L108.579452,49.2960109 C108.959909,49.2801585 109.324513,49.3277156 109.689118,49.4386822 C109.942755,49.5337964 110.164688,49.7240247 110.291507,49.9618102 C110.450031,50.215448 110.51344,50.5007906 110.51344,50.7861332 C110.529293,51.1507376 110.386622,51.4994896 110.132984,51.7689798 C109.879346,52.03847 109.498889,52.1969937 108.975761,52.2762555 C109.134285,52.3396649 109.276956,52.4347791 109.403775,52.5457457 C109.625708,52.7676788 109.831789,53.0054643 110.006165,53.2749545 L110.957307,54.7650768 L110.053722,54.7650768 L109.340365,53.6395589 C109.134285,53.3066592 108.959909,53.0688737 108.817237,52.8944977 C108.722123,52.7518264 108.595304,52.6250075 108.452633,52.5298933 C108.357519,52.4664839 108.246552,52.4189268 108.119733,52.387222 C107.992914,52.3713697 107.850243,52.3555173 107.723424,52.3555173 L106.883249,52.3555173 L106.883249,54.7492244 L106.169893,54.7492244 Z M106.883249,51.7055703 L108.436781,51.7055703 C108.690419,51.7214227 108.959909,51.6738656 109.213547,51.6104562 C109.387923,51.5470467 109.530594,51.4360801 109.64156,51.2775565 C109.736675,51.1348852 109.784232,50.9605092 109.784232,50.7861332 C109.784232,50.5483477 109.689118,50.3105622 109.498889,50.1520386 C109.308661,49.9935149 109.023318,49.8984008 108.611157,49.8984008 L106.883249,49.8984008 L106.883249,51.7055703 Z" id="Shape" fill="#5A5B5E" fill-rule="nonzero"></path>
								<polygon id="Path" fill="#5A5B5E" points="112.669362 54.7492244 112.669362 49.9459578 110.878045 49.9459578 110.878045 49.2960109 115.189888 49.2960109 115.189888 49.9459578 113.382719 49.9459578 113.382719 54.7492244"></polygon>
								<polygon id="Path" fill="#5A5B5E" points="115.697164 54.7492244 115.697164 49.2960109 116.442225 49.2960109 119.295651 53.5761494 119.295651 49.2960109 119.993155 49.2960109 119.993155 54.7492244 119.248094 54.7492244 116.394668 50.4690859 116.394668 54.7492244"></polygon>
								<polygon id="Path" fill="#5A5B5E" points="120.991854 54.7492244 120.991854 49.2960109 124.92324 49.2960109 124.92324 49.9459578 121.70521 49.9459578 121.70521 51.6104562 124.717159 51.6104562 124.717159 52.2445507 121.70521 52.2445507 121.70521 54.0992774 125.050059 54.0992774 125.050059 54.7492244 120.991854 54.7492244"></polygon>
								<path d="M125.826825,54.7492244 L125.826825,49.2960109 L128.236384,49.2960109 C128.616841,49.2801585 128.981446,49.3277156 129.34605,49.4386822 C129.599688,49.5337964 129.821621,49.7240247 129.94844,49.9618102 C130.106963,50.215448 130.170373,50.5007906 130.170373,50.7861332 C130.186225,51.1507376 130.043554,51.4994896 129.789916,51.7689798 C129.536278,52.03847 129.155822,52.1969937 128.632694,52.2762555 C128.791217,52.3396649 128.933888,52.4347791 129.060707,52.5457457 C129.28264,52.7676788 129.488721,53.0054643 129.663097,53.2749545 L130.614239,54.7650768 L129.710654,54.7650768 L128.997298,53.6395589 C128.791217,53.3066592 128.616841,53.0688737 128.47417,52.8944977 C128.379056,52.7518264 128.252237,52.6250075 128.109565,52.5298933 C128.014451,52.4664839 127.903485,52.4189268 127.776666,52.387222 C127.649847,52.3713697 127.507176,52.3555173 127.380357,52.3555173 L126.540181,52.3555173 L126.540181,54.7492244 L125.826825,54.7492244 Z M126.556034,51.7055703 L128.109565,51.7055703 C128.363203,51.7214227 128.632694,51.6738656 128.886331,51.6104562 C129.060707,51.5470467 129.203379,51.4360801 129.314345,51.2775565 C129.409459,51.1348852 129.457016,50.9605092 129.457016,50.7861332 C129.457016,50.5483477 129.361902,50.3105622 129.171674,50.1520386 C128.981446,49.9935149 128.696103,49.8984008 128.283941,49.8984008 L126.556034,49.8984008 L126.556034,51.7055703 Z" id="Shape" fill="#5A5B5E" fill-rule="nonzero"></path>
							</g>
						</g>
						<g id="mitoc" filter="url(#filter-4)" transform="translate(30.000000, 20.000000)">
							<path d="M151.179362,0 L4.82063836,0 C2.16928726,0 0,2.17021277 0,4.82269504 L3.09618997e-12,70.9219858 C3.09618997e-12,73.5744681 2.16928726,75.7446809 4.82063836,75.7446809 L151.179362,75.7446809 C153.830713,75.7446809 156,73.5744681 156,70.9219858 L156,4.82269504 C156,2.17021277 153.830713,0 151.179362,0 Z" id="Shape" fill="#FFFFFF" fill-rule="nonzero"></path>
							<path d="M151.179362,0 L4.82063836,0 C2.16928726,0 0,2.17021277 0,4.82269504 L3.09618997e-12,70.9219858 C3.09618997e-12,73.5744681 2.16928726,75.7446809 4.82063836,75.7446809 L151.179362,75.7446809 C153.830713,75.7446809 156,73.5744681 156,70.9219858 L156,4.82269504 C156,2.17021277 153.830713,0 151.179362,0 Z" id="Shape" fill="#FFFFFF" fill-rule="nonzero"></path>
							<polygon id="Path_6158" fill="#28B655" points="20.354375 20 34.091875 20 34.091875 54.97725 20.354375 54.97725"></polygon>
							<polygon id="Path_6136" fill="#28B655" points="49.749125 20 63.486625 20 63.486625 54.97725 49.749125 54.97725"></polygon>
							<polygon id="Path_1" fill="#7ED257" points="20.354375 20 34.081375 20 41.91525 33.26675 49.749125 20 63.47525 20 41.91525 55"></polygon>
							<path d="M81.236,23.793125 C81.3792734,23.4642977 81.7565222,23.3071429 82.090875,23.437 C82.3641122,23.5424893 82.5271786,23.8238517 82.482875,24.113375 L82.482875,34.68075 C82.4697819,35.0446001 82.1710231,35.3328014 81.8069375,35.3328014 C81.4428519,35.3328014 81.1440931,35.0446001 81.131,34.68075 L81.131,26.320125 L77.393,32.193125 C77.2287074,32.5396535 76.8214276,32.6963292 76.46725,32.54925 C76.3078829,32.479694 76.180681,32.3524921 76.111125,32.193125 L72.409,26.356 L72.409,34.68425 C72.3959069,35.0481001 72.0971481,35.3363014 71.7330625,35.3363014 C71.3689769,35.3363014 71.0702181,35.0481001 71.057125,34.68425 L71.057125,24.116875 C71.0375287,23.9460671 71.0872348,23.7745335 71.1951182,23.6406659 C71.3030017,23.5067983 71.4600541,23.4217749 71.631125,23.404625 C71.9173915,23.376386 72.1896909,23.5341999 72.3075,23.796625 L76.7875,30.772125 L81.236,23.793125 Z" id="Path_2" fill="#121212"></path>
							<path d="M86.752875,23.75725 C86.7659681,23.3933999 87.0647269,23.1051986 87.4288125,23.1051986 C87.7928981,23.1051986 88.0916569,23.3933999 88.10475,23.75725 L88.10475,34.791 C88.0916569,35.1548501 87.7928981,35.4430514 87.4288125,35.4430514 C87.0647269,35.4430514 86.7659681,35.1548501 86.752875,34.791 L86.752875,23.75725 Z" id="Path_3" fill="#121212"></path>
							<path d="M100.598,23.472875 C100.834817,23.4604922 101.059141,23.5797903 101.18127,23.7830642 C101.303398,23.9863381 101.303398,24.2404119 101.18127,24.4436858 C101.059141,24.6469597 100.834817,24.7662578 100.598,24.753875 L96.505625,24.753875 L96.505625,34.71925 C96.5058576,34.898707 96.4346716,35.0708808 96.3077762,35.1977762 C96.1808808,35.3246716 96.008707,35.3958576 95.82925,35.395625 L95.793375,35.395625 C95.4356654,35.3896839 95.1419211,35.1111399 95.117,34.75425 L95.117,24.753 L91.02375,24.753 C90.786933,24.7653828 90.5626087,24.6460847 90.4404803,24.4428108 C90.318352,24.2395369 90.318352,23.9854631 90.4404803,23.7821892 C90.5626087,23.5789153 90.786933,23.4596172 91.02375,23.472 L100.598,23.472875 Z" id="Path_4" fill="#121212"></path>
							<path d="M102.698,29.130625 C102.631297,26.2448621 104.720186,23.7594098 107.574375,23.3285 C108.223447,23.2576455 108.878303,23.2576455 109.527375,23.3285 C112.408908,23.7478997 114.545873,26.2187307 114.5455,29.130625 C114.634437,30.6987462 114.094742,32.2376519 113.045863,33.4067403 C111.996985,34.5758286 110.525423,35.2786857 108.956875,35.35975 L108.636625,35.35975 C105.33175,35.40175 102.698,33.04625 102.698,29.130625 Z M104.049875,29.2015 C104.049875,32.22725 106.043125,34.112875 108.6445,34.112875 C111.245875,34.112875 113.16475,32.26225 113.16475,29.2015 C113.198003,26.9416076 111.582759,24.9931478 109.355875,24.606875 C108.824492,24.5357812 108.286008,24.5357812 107.754625,24.606875 C105.50823,24.9333913 103.893775,26.9370554 104.0525,29.2015 L104.049875,29.2015 Z" id="Path_5" fill="#121212" fill-rule="nonzero"></path>
							<path d="M126.260875,34.71925 C125.399721,35.1207439 124.469246,35.3524715 123.520375,35.40175 C120.170266,35.3485055 117.495335,32.5937258 117.540625,29.2435 L117.540625,29.17175 C117.50653,26.2504763 119.637681,23.7540379 122.528125,23.329375 C124.548812,22.9424336 126.62727,23.6131488 128.040625,25.10825 C128.248721,25.3656328 128.217363,25.7412128 127.969467,25.9605238 C127.72157,26.1798348 127.344969,26.1651717 127.114875,25.92725 C126.001275,24.7756953 124.380055,24.2667994 122.808125,24.575375 C120.502029,24.8285304 118.805961,26.8553966 118.963375,29.17 C118.901633,31.8112087 120.985395,34.0060213 123.62625,34.081375 L123.662125,34.081375 C124.406887,34.0819875 125.140271,33.8986416 125.797125,33.547625 C126.385838,33.255193 126.897496,32.8283615 127.29075,32.301625 C127.71775,31.66025 128.821125,32.3725 128.359125,33.04975 C127.814034,33.7770683 127.090804,34.3517349 126.259125,34.718375 L126.260875,34.71925 Z" id="Path_6" fill="#121212"></path>
							<path d="M81.558,50.366 C79.9601192,52.3400675 77.2796523,53.0724784 74.8999498,52.185246 C72.5202473,51.2980136 70.9735153,48.989562 71.058,46.45125 C71.1054362,43.5803831 73.1521934,41.1328801 75.969375,40.57825 C76.2763488,40.5369383 76.5854401,40.5132744 76.895125,40.507375 C78.5139871,40.4463061 80.0815748,41.0810486 81.201875,42.25125 C81.735625,42.892625 80.809875,43.781625 80.276125,43.106125 C79.2363392,41.9586505 77.6547295,41.4675402 76.147875,41.82425 C73.8249955,42.3458213 72.2357604,44.4916595 72.4141249,46.8656839 C72.5924893,49.2397082 74.4845144,51.1239935 76.85925,51.292625 C78.2452591,51.3266999 79.570358,50.7233268 80.454625,49.6555 L80.454625,47.1985 L77.143625,47.1985 C76.8092166,47.1985 76.538125,46.9274084 76.538125,46.593 C76.538125,46.2585916 76.8092166,45.9875 77.143625,45.9875 L81.0225,45.9875 C81.55625,45.9875 81.73475,46.27275 81.73475,46.663875 L81.73475,49.726375 C81.7716624,49.9554009 81.7078674,50.1892097 81.55975,50.36775 L81.558,50.366 Z" id="Path_7" fill="#121212"></path>
							<path d="M87.21575,48.301875 L87.21575,51.863125 C87.2026569,52.2269751 86.9038981,52.5151764 86.5398125,52.5151764 C86.1757269,52.5151764 85.8769681,52.2269751 85.863875,51.863125 L85.863875,41.326375 C85.8560233,41.1601958 85.9161071,40.9979718 86.0303127,40.8769997 C86.1445182,40.7560276 86.3030193,40.6867159 86.469375,40.685 L90.8855,40.685 C94.053875,40.685 95.690125,42.535625 95.690125,44.635625 C95.690125,46.48625 94.6935,47.839 92.415,48.231 L95.401375,51.434375 C95.5667443,51.6002132 95.6310782,51.8416775 95.5701428,52.0678107 C95.5092073,52.2939438 95.33226,52.4703908 95.1059553,52.5306857 C94.8796505,52.5909806 94.6383693,52.5259632 94.473,52.360125 L90.80675,48.3395 L87.21575,48.301875 Z M87.21575,47.12675 L90.8855,47.12675 C93.30575,47.12675 94.33825,46.0225 94.302375,44.635625 C94.2665,43.24875 93.0205,41.895125 90.8855,41.895125 L87.21925,41.895125 L87.21575,47.12675 Z" id="Path_8" fill="#121212" fill-rule="nonzero"></path>
							<path d="M98.750875,46.3445 C98.6841718,43.4587371 100.773061,40.9732848 103.62725,40.542375 C104.276322,40.4715274 104.931178,40.4715274 105.58025,40.542375 C108.589887,41.072805 110.736054,43.7577541 110.590409,46.8103035 C110.444764,49.8628529 108.052717,52.3312722 105.00625,52.57275 L104.686,52.57275 C101.3855,52.608625 98.750875,50.25925 98.750875,46.3445 Z M100.10275,46.415375 C100.10275,49.441125 102.096,51.32675 104.697375,51.32675 C107.29875,51.32675 109.217625,49.476125 109.217625,46.415375 C109.250878,44.1554826 107.635634,42.2070228 105.40875,41.82075 C104.877367,41.7496562 104.338883,41.7496562 103.8075,41.82075 C101.561105,42.1472663 99.9466502,44.1509304 100.105375,46.415375 L100.10275,46.415375 Z" id="Path_9" fill="#121212" fill-rule="nonzero"></path>
							<path d="M123.698,41.18375 C123.697767,41.004293 123.768953,40.8321192 123.895849,40.7052238 C124.022744,40.5783284 124.194918,40.5071424 124.374375,40.507375 C124.742739,40.519611 125.038514,40.8153857 125.05075,41.18375 L125.05075,47.232625 C125.05075,50.2205545 122.628555,52.64275 119.640625,52.64275 C116.652695,52.64275 114.2305,50.2205545 114.2305,47.232625 L114.2305,41.18375 C114.2305,40.36475 115.61825,40.36475 115.61825,41.18375 L115.61825,47.1985 C115.61825,52.501875 123.698,52.501875 123.698,47.1985 L123.698,41.18375 Z" id="Path_10" fill="#121212"></path>
							<path d="M130.639375,48.94325 L130.639375,51.8955 C130.639608,52.074957 130.568422,52.2471308 130.441526,52.3740262 C130.314631,52.5009216 130.142457,52.5721076 129.963,52.571875 C129.781795,52.5780397 129.606151,52.5087605 129.477945,52.3805548 C129.349739,52.2523491 129.28046,52.0767054 129.286625,51.8955 L129.286625,41.328125 C129.287866,41.1522612 129.360687,40.9844897 129.488302,40.8634778 C129.615918,40.7424659 129.787318,40.6786543 129.963,40.68675 L133.983625,40.68675 C137.152,40.68675 138.6465,42.78675 138.6465,44.92175 C138.6465,47.05675 137.152875,48.942375 133.91275,48.942375 L130.639375,48.94325 Z M130.639375,47.73225 L133.9145,47.73225 C136.370625,47.73225 137.36725,46.308625 137.331375,44.92 C137.308178,44.087772 136.952797,43.2994624 136.344539,42.7309877 C135.736281,42.1625129 134.925769,41.861186 134.093875,41.89425 L130.641125,41.89425 L130.639375,47.73225 Z" id="Path_11" fill="#121212" fill-rule="nonzero"></path>
						</g>
						<circle id="Oval-Copy-3" fill="url(#linearGradient-5)" opacity="0.5" cx="35" cy="186" r="10"></circle>
						<g id="Group-23" opacity="0.5" transform="translate(220.000000, 5.000000)">
							<polygon id="Path" fill="#00F7FF" points="40 36.2 20.2 47.7 0.4 36.2 20.1 24.7"></polygon>
							<polygon id="Path" fill="#0B757D" points="40 36.2 40 42.9 20.2 54.4 20.2 47.7"></polygon>
							<polygon id="Path" fill="#0E5A64" points="20.2 47.7 20.2 54.4 0.3 42.9 0.4 36.2"></polygon>
							<polygon id="Path" fill="#00F7FF" points="39.9 28.1 20.2 39.5 0.3 28.1 20 16.6"></polygon>
							<polygon id="Path" fill="#0B757D" points="39.9 28.1 39.9 34.8 20.2 46.3 20.2 39.5"></polygon>
							<polygon id="Path" fill="#0E5A64" points="20.2 39.5 20.2 46.3 0.3 34.8 0.3 28.1"></polygon>
							<polygon id="Path" fill="#00F7FF" points="39.9 19.8 20.2 31.3 0.3 19.8 20 8.4"></polygon>
							<polygon id="Path" fill="#0B757D" points="39.9 19.8 39.9 26.5 20.2 38 20.2 31.3"></polygon>
							<polygon id="Path" fill="#0E5A64" points="20.2 31.3 20.2 38 0.3 26.6 0.3 19.8"></polygon>
							<polygon id="Path" fill="url(#linearGradient-6)" points="39.9 11.6 20.2 23.1 0.3 11.6 20 0.1"></polygon>
							<polygon id="Path" fill="#0B757D" points="39.9 11.6 39.9 18.3 20.2 29.8 20.2 23.1"></polygon>
							<polygon id="Path" fill="#0E5A64" points="20.2 23.1 20.2 29.8 0.3 18.3 0.3 11.6"></polygon>
							<path d="M3.8,16.5 C3.5,16.3 3.2,16.5 3.2,16.8 C3.2,17.2 3.5,17.6 3.8,17.8 C4.1,18 4.4,17.8 4.4,17.5 C4.3,17.2 4.1,16.7 3.8,16.5" id="Path" fill="#A3FF7A"></path>
							<path d="M6.1,17.9 C5.8,17.7 5.5,17.9 5.5,18.2 C5.5,18.6 5.8,19 6.1,19.2 C6.4,19.4 6.7,19.2 6.7,18.9 C6.7,18.5 6.4,18.1 6.1,17.9" id="Path" fill="#A3FF7A"></path>
							<polyline id="Path" fill="#0B4C52" points="33.4 36.7 27.4 40.2 27.4 42 33.4 38.5 33.4 36.7"></polyline>
							<polyline id="Path" fill="#0B4C52" points="33.4 28.5 27.4 32 27.4 33.8 33.4 30.3 33.4 28.5"></polyline>
							<polyline id="Path" fill="#0B4C52" points="33.4 20.2 27.4 23.7 27.4 25.6 33.4 22.1 33.4 20.2"></polyline>
						</g>
					</g>
				</g>
			</g>
		</g>
	</g>
</svg>
