<svg width="204" height="345" xmlns="http://www.w3.org/2000/svg"><desc>Created with Sketch.</desc><defs><linearGradient x1="50.4%" y1="5.052%" x2="50.4%" y2="94.672%" id="a"><stop stop-color="#151953" offset="0%"/><stop stop-color="#134753" offset="68.34%"/></linearGradient></defs><g fill="none" fill-rule="evenodd"><path d="M134.576 313.746l2.171 7.47s1.688.482 2.894 0c1.447-.482 1.93-9.398 1.93-9.398l-6.995 1.928zM157.247 321.698l2.17 7.47s1.689.482 2.895 0 1.93-9.398 1.93-9.398l-6.995 1.928z" fill="#FFC4A8"/><path d="M39.518 114.185c2.17-3.856-3.86-7.23-5.789-3.374-12.3 22.651-10.611 51.086-11.576 75.906-.241 7.47 0 14.459 1.206 21.206-.241.482-.483 1.205-.483 1.687 0 19.76 5.065 38.314 14.953 55.182.483 1.687.965 3.133 1.206 4.82.483 2.169 2.653 2.65 4.341 2.169 1.689.481 3.618-.241 3.86-2.17 2.17-14.698 1.205-29.639.723-44.58 1.447 12.05 3.135 24.098 5.788 35.665 1.447 5.783 3.859 17.35 10.13 20 4.823 1.928 7.958-.963 9.647-5.06 3.858-8.916 3.858-22.651 4.823-32.29a367.37 367.37 0 0 0 1.447-40.002c-.723-26.988-6.27-53.736-5.788-80.725 0-4.338-6.753-4.338-6.753 0" fill="url(#a)" transform="translate(94.094 42.206)"/><path d="M160.624 70.605l-3.86 5.542s.724 5.302 13.507 1.446l6.753-2.41s-6.753-13.735-7.477-18.073c-.723-4.337-6.753-14.94-14.23-14.458 0 0-19.052.723-17.364 18.073.241 2.41.241 4.578.241 6.506-.482 6.988 5.306 12.772 12.3 11.808h.724c13.747-1.928 9.406-8.434 9.406-8.434z" fill="#0B2C33"/><path d="M163.759 61.448c-.724 0-1.447.24-2.17.482 0-.241.24-.723.24-.964 0-1.446-.24-2.892-.723-4.097-.241-.24-.241-.722-.482-.963 0-.482-.242-.964-.724-1.446-2.412-2.169-7.476-3.856-10.612-1.928-.964-.482-2.17-.241-2.653.964-2.17 4.337-3.135 8.916-2.411 13.735.482 3.374 1.447 7.952 5.064 9.398.483.241.724.241 1.206.241l-2.894 5.06 5.065 15.664 8.44-19.037-2.652-6.024c.723-.964 1.206-2.17 1.93-2.892.964-1.205 1.446-.964 2.893-1.687 1.448-.964 1.448-1.928 1.93-3.614.482-1.687.241-3.133-1.447-2.892z" fill="#FFC4A8"/><path d="M202.83 105.064c-4.342-14.94-23.636-20.242-35.936-26.266-1.447-.723-4.823-.964-5.788 0-1.206.24.723-1.446 0 0-4.1 7.23-5.065 12.53-8.441 18.314-.483-1.446 0-.482-.483-1.687-.964-2.892-.723-4.578-1.688-7.47-.241-.964-1.206-4.82-1.93-5.06-.964-1.687-1.929.481-1.929.481-2.894 3.615-12.54 6.025-15.917 8.916-1.447.964-2.17 2.41-2.894 3.856-.483 1.205-.724 2.169-1.93 3.133-2.17 1.686-4.341-.241-5.065-2.651-.24-.723-.482-1.205-.964-1.687-.241-2.41-3.377-4.337-5.789-2.169-11.576 10.121-22.429 25.784-18.57 41.93 3.135 13.253 14.47 13.735 24.6 9.156 6.994 11.326 22.67 17.591 34.488 20.965 15.435 4.097 27.735 2.65 35.694-12.049 6.753-13.012 16.883-32.53 12.541-47.712z" fill="#F06887"/><path d="M149.288 52.773s3.86 6.265 12.541 8.193c0 0-9.164-6.265-9.647-9.157-.24-2.65-2.894.964-2.894.964z" fill="#0B2C33"/><path fill="#FFF" d="M152.424 97.353l-15.195 7.71 11.095-22.169zM166.894 79.039v26.025l-14.47-7.711 8.44-18.314z"/><g fill="#0B2C33"><path d="M158.453 73.015s-2.412 9.638 12.059 4.819c14.712-4.82-12.06-4.82-12.06-4.82zM161.83 58.556c3.858 1.446 1.688-4.578 1.688-4.578l-8.924-3.615s3.377 6.747 7.235 8.193z"/></g><path d="M183.535 118.558l-5.547 13.977c-2.17 5.301-7.235 8.675-12.782 8.675h-6.994c-7.236 0 25.323-22.652 25.323-22.652z" fill="#CD4669"/><path d="M114.8 93.015l14.23-16.627s7.958-5.542 6.994-3.132c-.965 2.41-5.306 7.229-5.306 7.229s3.376 2.891 2.653 4.82c-.724 2.168-6.03 6.987-8.2 7.951-2.171.723-6.995 3.374-6.995 3.374l-3.376-3.615zM119.624 143.62l6.752-6.266s-5.788-2.892-6.752 0c-.965 2.892 0 6.265 0 6.265z" fill="#FFC4A8"/><path d="M114.8 91.328s4.824-1.204 5.547 5.302c.724 6.265-8.2-2.65-8.2-2.65l2.653-2.652zM119.624 143.62s5.305-6.748 6.752-6.266c1.689.482 1.206 1.928 0 3.615-1.205 1.687-5.788 6.747-5.788 6.747l-1.447-2.892.483-1.205zM122.759 329.168s-.965 1.687.241 1.928c1.447.24 4.341 1.928 7.959 0 3.617-1.928 4.341-4.097 5.306-4.579.964-.482 2.894-.964 3.859-1.445.964-.482 3.376-.964 3.135-2.651 0-.723-1.688-2.169-2.412-2.169-.723 0-3.376 1.687-3.376 1.687l-8.683 4.096-6.03 3.133z" fill="#FFF"/><path d="M132.165 317.12s4.823.24 4.823 1.686-.482 1.928-.482 1.928l3.376-.482.965-1.205s.965 2.41.724 2.892c-.242.482-2.412 2.892-4.583 3.614-2.412.723-5.788 4.097-8.2 4.82-2.17.723-5.306.723-6.03-.964-.482-1.205 7.718-7.711 8.442-8.434.482-.964.965-3.856.965-3.856z" fill="#0B2C33"/><path d="M163.759 329.168s3.376 0 2.894 1.446c-.482 1.446-5.306 11.567-6.994 13.012-1.688 1.446-4.824 1.446-5.306.482-.482-.964.965-2.65.965-2.65l8.44-12.29z" fill="#FFF"/><path d="M155.076 326.517s5.306-.723 5.789 0c.482.723 1.447 2.651 1.447 2.651s1.206-1.687.964-1.446c0 .241.965 2.41.965 3.133 0 .723-3.376 10.844-6.27 11.808-2.895.963-4.1-.482-3.377-2.41.724-1.928.724-5.784.965-7.952.241-2.17-.483-5.784-.483-5.784z" fill="#0B2C33"/><path d="M133.13 188.2l8.44 4.096v39.278s-12.782-29.64-8.44-43.375z" fill="#0A1F2E"/><path fill="#FFF" opacity=".5" d="M143.018 82.172L.24 0 0 127.715l142.776 82.413.242-127.956"/></g></svg>
