<svg width="226" height="255" xmlns="http://www.w3.org/2000/svg"><desc>Created with Sketch.</desc><defs><linearGradient x1="20.579%" y1="84.024%" x2="79.403%" y2="15.997%" id="a"><stop stop-color="#A7FF81" offset="0%"/><stop stop-color="#19B650" offset="100%"/></linearGradient><linearGradient x1="25.119%" y1="67.269%" x2="73.476%" y2="33.175%" id="b"><stop stop-color="#B948BE" offset="0%"/><stop stop-color="#7D2D7B" offset="100%"/></linearGradient><linearGradient x1="34.728%" y1="75.179%" x2="64.631%" y2="24.401%" id="c"><stop stop-color="#B948BE" offset="0%"/><stop stop-color="#FF7576" offset="100%"/></linearGradient><linearGradient x1="50.012%" y1="8.355%" x2="50.012%" y2="96.256%" id="d"><stop stop-color="#731FDB" offset="0%"/><stop stop-color="#481D7B" offset="100%"/></linearGradient><linearGradient x1="82.634%" y1="18.047%" x2="27.098%" y2="85.606%" id="e"><stop stop-color="#842C84" offset="0%"/><stop stop-color="#FF7576" stop-opacity="0" offset="100%"/></linearGradient></defs><g fill="none" fill-rule="evenodd"><path fill="url(#a)" opacity=".2" d="M142.615 111.964L.122 194.834l81.801 46.726 142.494-82.871z" transform="translate(0 12.891)"/><path fill="url(#b)" d="M142.79 4.055l-.175 108.438 81.098 46.548 1.407-.881.352-106.498z" transform="translate(0 12.891)"/><path d="M216.5 68.609s8.972-12.343 8.972-3.88v14.106L216.5 68.61z" fill="#7F2A7D"/><path d="M138.745 2.468L94.94 53.248l82.506 47.784 46.794-54.13L145.606 1.41c-2.287-1.411-5.102-.882-6.861 1.057z" fill="url(#c)" transform="translate(0 12.891)"/><path d="M218.611 66.317s5.454-5.819 7.037-1.94v-1.763c0-1.41-.704-2.645-1.759-3.174-.88-.529-2.111-1.234-2.815-1.587-2.11-1.234-8.268-4.76-8.268-4.76l-4.046 6.347 9.851 6.877z" fill="#FF7473"/><path fill="#A639A9" d="M225.648 171.051l-1.583.882V63.143h1.583z"/><g fill="#BB42C0"><path d="M139.448 50.271l16.713-3.879-.352-3.879-.88-2.116.352 3.88-16.712 4.055.352 13.753-4.75.882.88 2.115 4.925-1.058zM176.04 47.627l-36.064 24.685-2.639-2.822.88 1.94 2.639 2.821 36.239-24.685zM180.261 56.09l-.88-2.116.529 17.456-21.286 5.113.88 2.116 21.285-5.113z"/></g><g><path d="M53.249 25.41l-1.056 5.819s8.092 5.29 9.676 3.703c1.583-1.587.703-8.993.703-8.993s3.519 1.587 5.102 0c1.583-1.587.528-12.519.528-12.519l-4.574-1.94-7.037 2.646L53.25 25.41zM114.292 65.964s2.99-4.937 3.87-5.819c.88-.881.528 2.469.88 2.998.352.529 3.87-3.35 5.981-3.527 1.056-.176 6.157-1.057 6.861 0 .704 1.058-2.815 3.88-4.398 5.995-2.99 4.408-9.148 7.935-9.148 7.935l-4.046-7.582z" fill="#FFC4A8"/><path d="M70.313 5.31l-.704 2.468c0-2.292-.528-4.408-1.407-5.29C66.09.902 57.47-1.567 58.35 2.665c.88 4.055 1.584 2.468.176 4.584-1.407 2.292-4.398 3.703-6.509 4.408-1.759.705-1.231 1.234-2.287 2.821-1.055 1.587-.351 3.35-.175 5.29.175.882.175 2.116.703 2.821 2.639 4.232 6.157 3.174 6.157 3.174l4.398-3.174s-2.99-2.116-2.287-3.879c.704-1.763 2.99-.705 3.343.176.352.882 3.342 2.116 3.342 2.116s1.232-2.116.88-3.174c-.352-1.058.528-4.408 2.287-4.408.176 0 .352-.176.527-.352.528-.353 1.056-.706 1.584-1.235.88-1.057 1.407-4.937-.176-6.523z" fill="#0B2C33"/><path fill="#FFF" d="M52.897 27.173h-.704l-.352 1.411 9.5 4.937h3.167l-.88-3.174zM52.193 168.76c.528-.53 1.056-.706 1.056-.706l-10.731-10.05s-4.75.705-4.222 1.41c.528.705 4.222 10.58 7.212 11.637.176 1.235 1.232 2.469 6.158 1.587 1.055-.176 1.759-1.41 1.407-2.468l-.88-1.41zM77.35 174.049l-9.148.529-6.333.881-.176 4.056h-.176c-1.232.881-1.232 2.468-1.407 3.173-.176.706 1.407.882 1.407.882s6.157 0 11.61-1.234c2.991-.705 4.926-3.174 6.158-5.29.703-1.587-.352-3.174-1.935-2.997z"/><path d="M40.935 77.601l.351 12.519 1.76 6.524 3.87 68.589s4.925 3.526 5.805 2.292c.88-1.234 5.805-68.765 5.805-68.765s2.287 83.047 3.87 81.989c1.76-1.058 4.75.176 4.926-2.998.176-3.173 8.092-96.623 8.092-96.623L40.934 77.6z" fill="#0243A0"/><path d="M46.916 164.175s-1.056 1.234-.88 2.116c.352.705 1.76 2.82 4.046 2.644 2.287-.176 3.695.177 3.519-.881-.176-1.058 0-2.645 0-2.645s-5.102 1.94-6.685-1.234zM61.693 175.107s-.528 4.584-.176 5.29c.352.705.704 0 2.99 0 2.287-.177 3.695.176 3.519-.882-.176-1.058-.528-3.35-.528-3.35s-4.222 2.115-5.805-1.058z" fill="#1D69C3"/><path d="M100.995 65.259s-21.286-1.235-26.388-6.7c-5.102-5.466-7.037-14.282-9.675-17.809-2.815-3.703-15.657-7.23-15.657-7.23l-16.712-7.052s-3.87-1.41-6.861 0c-2.99 1.41-10.555 6.524-12.49 9.698-4.75 7.582-7.213 9.521-9.852 15.163-3.342 7.406-4.398 10.403-.352 17.809 4.047 7.405 22.87 8.816 22.87 8.816l-2.463-4.585c-.704.882-1.056.882-.352 2.293.176.352.352.529.528.881 0 .177.176.177.176.353.528.529 1.407.881 2.11 1.234 6.51 3.527 13.546 5.466 20.935 6.348 4.046.529 10.555 1.763 14.777-.353.528 0-1.055.529-1.055.529.527-.529 1.055-1.763 1.407-2.468.176-.353.352-.53.528-.882l.176-.176c.703-1.058.351-2.293-.352-3.174-.352-.53.88-.353.352-.53-.528-7.934-1.408-14.105-1.408-14.105s10.907 8.287 16.888 9.698c5.982 1.41 26.916.352 26.916.352l-4.046-8.11zm-88.487-2.821c.352-1.587.704-8.64 4.222-9.698 3.518-1.058 6.86 18.866 6.86 18.866s-11.61-7.582-11.082-9.168z" fill="url(#d)" fill-rule="nonzero" transform="translate(14.353)"/><path d="M75.59 62.967s-9.5-5.995-9.851-4.937c-.352.881-3.694 12.342 1.407 12.342 4.926 0 8.444-7.405 8.444-7.405z" fill="#3A0D72"/><path fill="#043A7C" d="M58.35 98.936h-8.62l7.213 6.7z"/><path d="M32.315 52.74s.175-5.113 0-6.171c-.176-1.058-4.926 7.934-3.343 7.934 1.583-.353 3.343-1.763 3.343-1.763z" fill="#3A0D72"/><path d="M113.589 65.435l1.583 7.934s3.342.177 4.398-.352c.88-.53-4.046-7.935-4.046-7.935l-1.935.353z" fill="#FFF"/></g><path fill="url(#e)" opacity=".2" d="M155.337 40L109 74.42 158.366 104 181 55.955z"/><path fill="#FFF" d="M154.661 40l.339 3.953-16.089 4.133.339 14.016-4.573.898L134 45.21zM173.518 45L176 47.872 139.66 73 137 70.128zM178.492 53L179 70.79 158.508 76 158 72.047l16.258-3.953-.508-14.016z"/></g></svg>
