<svg width="207" height="324" xmlns="http://www.w3.org/2000/svg"><desc>Created with Sketch.</desc><defs><linearGradient x1="50.02%" y1="96.619%" x2="50.02%" y2="1.009%" id="a"><stop stop-color="#1CB850" offset="0%"/><stop stop-color="#A7FF81" offset="100%"/></linearGradient><linearGradient x1="49.982%" y1="98.4%" x2="49.982%" y2="-.183%" id="b"><stop stop-color="#D2FFC7" offset="0%"/><stop stop-color="#5EDD63" offset="100%"/></linearGradient><linearGradient x1="49.978%" y1="96.62%" x2="49.978%" y2="1.009%" id="c"><stop stop-color="#1CB850" offset="0%"/><stop stop-color="#A7FF81" offset="100%"/></linearGradient><linearGradient x1="101.165%" y1="87.52%" x2=".72%" y2="13.973%" id="d"><stop stop-color="#1CB850" offset="0%"/><stop stop-color="#3BCC57" offset="100%"/></linearGradient><linearGradient x1=".125%" y1="50.107%" x2="100.013%" y2="50.107%" id="e"><stop stop-color="#1CB850" offset="0%"/><stop stop-color="#3BCC57" offset="100%"/></linearGradient><linearGradient x1="49.984%" y1="96.522%" x2="49.984%" y2=".912%" id="f"><stop stop-color="#1CB850" offset="0%"/><stop stop-color="#A7FF81" offset="100%"/></linearGradient><linearGradient x1="50.023%" y1="98.577%" x2="50.023%" y2="-.005%" id="g"><stop stop-color="#D2FFC7" offset="0%"/><stop stop-color="#5EDD63" offset="100%"/></linearGradient><linearGradient x1="50.009%" y1="96.523%" x2="50.009%" y2=".912%" id="h"><stop stop-color="#1CB850" offset="0%"/><stop stop-color="#A7FF81" offset="100%"/></linearGradient><linearGradient x1="101.231%" y1="87.371%" x2=".518%" y2="13.825%" id="i"><stop stop-color="#1CB850" offset="0%"/><stop stop-color="#3BCC57" offset="100%"/></linearGradient><linearGradient x1="-.079%" y1="49.958%" x2="100.076%" y2="49.958%" id="j"><stop stop-color="#1CB850" offset="0%"/><stop stop-color="#3BCC57" offset="100%"/></linearGradient><linearGradient x1="49.961%" y1="97.876%" x2="49.961%" y2="2.069%" id="k"><stop stop-color="#6EFF3F" stop-opacity=".3" offset="0%"/><stop stop-color="#FFF" stop-opacity="0" offset="100%"/></linearGradient><linearGradient x1="49.881%" y1="97.83%" x2="49.881%" y2="2.106%" id="l"><stop stop-color="#6EFF3F" stop-opacity=".3" offset="0%"/><stop stop-color="#FFF" stop-opacity="0" offset="100%"/></linearGradient></defs><g fill="none" fill-rule="evenodd"><path fill="url(#a)" d="M126.494 149.499l-62.839 36.413L.31 149.499l62.838-36.414z" transform="translate(0 79.13)"/><path fill="url(#b)" d="M96.454 27.647L48.818 55.294.845 27.647 48.48 0z" transform="translate(15.681 152.093)"/><path d="M112.136 179.74l-.17 41.133-47.635 27.647.169-41.133z" opacity=".42" fill="#A7FF81"/><path d="M64.5 207.387l-.17 41.133-47.973-27.647.169-41.133z" opacity=".42" fill="#CBFFB2"/><path fill="url(#c)" d="M126.494 36.55L63.655 72.964.478 36.55 63.318.137z" transform="translate(0 79.13)"/><path fill="#11A03E" d="M126.494 115.68v10.957l-62.839 36.414v-10.958z"/><path fill="url(#d)" d="M63.655 72.964V83.92L.31 47.508.478 36.55z" transform="translate(0 79.13)"/><path fill="#11A03E" d="M126.494 228.628v10.958l-62.839 36.413V265.04z"/><path fill="url(#e)" d="M63.655 185.912v10.957L.31 160.456.478 149.5z" transform="translate(0 79.13)"/><path fill="#54FFFB" opacity=".42" d="M63.655 163.05v101.991L.478 228.628.31 126.638z"/><path fill="#00DDD2" opacity=".42" d="M63.486 163.05v101.991l63.177-36.413v-101.99z"/><g><path fill="url(#f)" d="M126.691 149.667L63.852 186.08.676 149.667l62.839-36.413z" transform="translate(79.872 126.331)"/><path fill="url(#g)" d="M95.92 27.647L48.282 55.294.31 27.647 47.945 0z" transform="translate(96.285 199.295)"/><path d="M192.205 226.942v41.302L144.4 295.891l.169-41.302z" opacity=".42" fill="#A7FF81"/><path d="M144.569 254.59l-.17 41.301-47.973-27.647.169-41.302z" opacity=".42" fill="#CBFFB2"/><path fill="url(#h)" d="M126.691 36.72L63.852 73.131.676 36.72 63.515.306z" transform="translate(79.872 126.331)"/><path fill="#11A03E" d="M206.563 163.05v10.958l-62.839 36.413v-10.957z"/><path fill="url(#i)" d="M63.852 73.132V84.09L.676 47.677V36.719z" transform="translate(79.872 126.331)"/><path fill="#11A03E" d="M206.563 275.999v10.957l-62.839 36.413v-10.957z"/><path fill="url(#j)" d="M63.852 186.08v10.958L.676 160.625v-10.958z" transform="translate(79.872 126.331)"/><path fill="#54FFFB" opacity=".42" d="M143.724 210.421v101.99L80.547 276v-101.99z"/><path fill="#54FFFB" opacity=".42" d="M143.555 210.421v101.99L206.732 276v-101.99z"/></g><path fill="url(#k)" d="M179.029 47.877h-69.934l10.135 118.68 24.325 13.991 25.338-13.992z" transform="translate(0 -3)"/><path fill="url(#l)" d="M98.453.337H28.52l10.136 118.68 24.831 14.16 24.832-14.16z" transform="translate(0 -3)"/><g transform="translate(51 64)"><ellipse fill="#F5FFF1" cx="1.504" cy="28.029" rx="1" ry="1"/><ellipse fill="#CDFFB4" cx="4.846" cy="11.178" rx="1" ry="1"/><ellipse fill="#F5FFF1" cx="8.189" cy="58.361" rx="1" ry="1"/><ellipse fill="#F5FFF1" cx="24.9" cy="39.825" rx="1" ry="1"/><ellipse fill="#CDFFB4" cx="16.545" cy="22.974" rx="1" ry="1"/><ellipse fill="#CDFFB4" cx="23.229" cy="1.068" rx="1" ry="1"/><g transform="translate(80.216 43.812)"><ellipse fill="#F1FFEB" cx="1.504" cy="28.029" rx="1" ry="1"/><ellipse fill="#CDFFB4" cx="4.846" cy="11.178" rx="1" ry="1"/><ellipse fill="#F1FFEB" cx="8.189" cy="58.361" rx="1" ry="1"/><ellipse fill="#CDFFB4" cx="24.9" cy="39.825" rx="1" ry="1"/><ellipse fill="#CDFFB4" cx="16.545" cy="22.974" rx="1" ry="1"/><ellipse fill="#F1FFEB" cx="11.531" cy="36.455" rx="1" ry="1"/><ellipse fill="#CDFFB4" cx="23.229" cy="1.068" rx="1" ry="1"/></g></g></g></svg>
