<?xml version="1.0" encoding="utf-8"?>
<!-- Generator: Adobe Illustrator 22.1.0, SVG Export Plug-In . SVG Version: 6.00 Build 0)  -->
<svg version="1.1" id="Layer_1" xmlns="http://www.w3.org/2000/svg" xmlns:xlink="http://www.w3.org/1999/xlink" x="0px" y="0px"
	 viewBox="0 0 1109 311" style="enable-background:new 0 0 1109 311;" xml:space="preserve">
<style type="text/css">
	.st0{fill:none;stroke:#EAEAEA;}
	.st1{fill:#EAEAEA;}
	.st2{fill:none;stroke:#EAEAEA;stroke-miterlimit:10;}
</style>
<title>Bitmap</title>
<desc>Created with Sketch.</desc>
<g>
	<g>
		<path class="st0" d="M1.6,20L19.4,2.4c0,0,2.9-2,5.1,0S42.4,20,42.4,20s2.1,3.1,0,5.5s-18.1,18-18.1,18s-0.8,0.9-2,1
			c-0.8,0.1-1.7-0.2-2.7-1C16.8,41.2,1,25,1,25S-0.4,22.1,1.6,20z"/>
		<g>
			<g>
				<line class="st0" x1="21.9" y1="66.4" x2="22.2" y2="44.6"/>
				<g>
					<path class="st1" d="M25.4,61.6c-0.2-0.1-0.4-0.1-0.5,0.1l-3,4.5l-2.9-4.6c-0.1-0.2-0.3-0.2-0.5-0.1c-0.2,0.1-0.2,0.3-0.1,0.5
						l3.2,5.1c0.1,0.1,0.2,0.2,0.3,0.2c0.1,0,0.2-0.1,0.3-0.2l3.3-5c0-0.1,0.1-0.1,0.1-0.2C25.6,61.8,25.5,61.7,25.4,61.6z"/>
				</g>
			</g>
		</g>
	</g>
	<path class="st0" d="M30.6,76c0,0.5,0,1-0.1,1.5c-0.7,4.1-4.3,7.2-8.6,7.2c-4.8,0-8.7-3.9-8.7-8.7s3.9-8.7,8.7-8.7
		S30.6,71.2,30.6,76z"/>
</g>
<path class="st0" d="M30.5,77.5l20.7,0c0,0,12.3,0,12.4,15.7s0.1,63.2,0.1,63.2v41.5c0,0,0,14.7,14.2,14.8h19.4"/>
<circle class="st0" cx="106" cy="212.1" r="8.7"/>
<path class="st0" d="M114.6,213"/>
<line class="st0" x1="114.6" y1="213" x2="123.3" y2="213"/>
<circle class="st0" cx="131.6" cy="212.7" r="8.3"/>
<path class="st0" d="M139.9,212.7h9.3h6.4c0,0,13.7,1.2,13.7,16.3c0,15,0,13,0,13s0.9,15.4,15,15.5c13.5,0.1,13.6,0.1,13.6,0.1"/>
<path class="st0" d="M216.3,256.2c0,0.4,0,0.8-0.1,1.1c-0.6,4.6-4.4,8.1-9.1,8.1c-5.1,0-9.2-4.1-9.2-9.2c0-5.1,4.1-9.2,9.2-9.2
	C212.2,247,216.3,251.1,216.3,256.2z"/>
<line class="st0" x1="216.2" y1="257.3" x2="224.1" y2="257.3"/>
<circle class="st0" cx="233.1" cy="256.4" r="9"/>
<circle class="st0" cx="382.1" cy="256" r="9"/>
<line class="st0" x1="242.1" y1="257.3" x2="373.2" y2="257.2"/>
<circle class="st0" cx="106" cy="300.8" r="9"/>
<path class="st0" d="M216.1,300.8c0,0.6-0.1,1.2-0.2,1.7c-0.8,4.1-4.5,7.2-8.8,7.2c-5,0-9-4-9-9c0-5,4-9,9-9
	C212.1,291.8,216.1,295.9,216.1,300.8z"/>
<path class="st0" d="M274,300.8c0,0.6-0.1,1.2-0.2,1.7c-0.8,4.1-4.5,7.2-8.8,7.2c-5,0-9-4-9-9c0-5,4-9,9-9
	C269.9,291.8,274,295.9,274,300.8z"/>
<circle class="st0" cx="291.3" cy="300.8" r="9"/>
<circle class="st0" cx="796.1" cy="211.9" r="9"/>
<circle class="st0" cx="821.9" cy="257.5" r="9"/>
<circle class="st0" cx="797" cy="257.5" r="9"/>
<circle class="st0" cx="905.9" cy="121.8" r="9"/>
<circle class="st0" cx="1015.2" cy="167.3" r="9"/>
<circle class="st0" cx="989.1" cy="167.3" r="9"/>
<circle class="st0" cx="1016" cy="121.8" r="9"/>
<circle class="st0" cx="1098.7" cy="211.5" r="9"/>
<circle class="st0" cx="905.6" cy="300.3" r="9"/>
<circle class="st0" cx="106.3" cy="122.1" r="9"/>
<circle class="st0" cx="265" cy="75.9" r="9"/>
<circle class="st0" cx="291.1" cy="211.9" r="9"/>
<path class="st0" d="M63.7,105.4c0,0,0.5,16.7,17.1,16.7s16.6,0,16.6,0"/>
<path class="st0" d="M115.3,122.1l63.3-0.2c0,0,19.5,0.3,19.5,19.6s0,44.6,0,44.6v10c0,0,0.2,16.3,19.7,16.5c19.5,0.2,64.3,0,64.3,0
	"/>
<path class="st0" d="M130,121.9c0,0,17.3-2.1,17.8-17.7v-10c0,0-1.7-17.3,19.7-17.5s88.6-0.7,88.6-0.7"/>
<line class="st0" x1="106" y1="220.8" x2="106" y2="291.8"/>
<line class="st0" x1="114.7" y1="303.2" x2="198.4" y2="303.2"/>
<path class="st2" d="M256.2,302.6"/>
<line class="st0" x1="256.2" y1="302.6" x2="215.9" y2="302.6"/>
<line class="st0" x1="282.5" y1="302.6" x2="273.8" y2="302.6"/>
<path class="st0" d="M300.1,302.6l228,0.3c0,0,21.6,0.1,21.7-17.7v-9.8c0,0-1.8-17.1,17.5-17.3c19.3-0.1,84.2,0,84.2,0l136.5-0.6"/>
<line class="st0" x1="806" y1="257.5" x2="812.9" y2="257.5"/>
<line class="st0" x1="797" y1="248.5" x2="797" y2="220.8"/>
<path class="st0" d="M860,212.5"/>
<path class="st0" d="M805.1,211.9h53.2c0,0,14.4-0.8,14.4-14.8s0-14,0-14l-0.2-47.2c0,0,0.5-13.5,12.5-13.4c12,0.1,12,0.1,12,0.1"/>
<line class="st0" x1="1007" y1="121.8" x2="914.9" y2="121.8"/>
<line class="st0" x1="1006.2" y1="167.3" x2="998.1" y2="167.3"/>
<path class="st0" d="M914.6,300.3h15.9c0,0,18.6,1.2,18.5-20.2c-0.1-21.4,0-22.4,0-22.4l-0.2-72c0,0-0.7-19.6,18.2-19.7h13.1"/>
<line class="st0" x1="1016" y1="130.8" x2="1016" y2="158.4"/>
<path class="st0" d="M1024.2,167.3h16.5c0,0,16.4,0.5,16.6,18.8c0,0-1.1,26.7,18.1,26.7h14.3"/>
<path class="st0" d="M995.4,65.3l16.6-16.4c0,0,3.6-3.5,7,0s16.8,17.4,16.8,17.4s3,2.5,0,5.4s-17.2,17.5-17.2,17.5s-0.9,0.8-2.3,0.9
	c-0.8,0.1-1.8-0.1-2.9-0.9c-2.9-2-17.9-17.9-17.9-17.9S992.4,68.3,995.4,65.3z"/>
<g>
	<g>
		<line class="st0" x1="1016" y1="111.7" x2="1016.2" y2="90"/>
		<g>
			<polygon class="st1" points="1020.1,108.4 1019.4,107.7 1016,111.3 1012.7,107.7 1011.9,108.4 1016,112.8 			"/>
		</g>
	</g>
</g>
<path class="st0" d="M244.9,19.4l16.6-16.4c0,0,3.6-3.5,7,0s16.8,17.4,16.8,17.4s3,2.5,0,5.4S268,43.3,268,43.3s-0.9,0.8-2.3,0.9
	c-0.8,0.1-1.8-0.1-2.9-0.9c-2.9-2-17.9-17.9-17.9-17.9S241.8,22.4,244.9,19.4z"/>
<g>
	<g>
		<line class="st0" x1="265.5" y1="65.9" x2="265.7" y2="44.2"/>
		<g>
			<polygon class="st1" points="269.6,62.6 268.9,61.9 265.5,65.5 262.2,61.8 261.4,62.5 265.5,67 			"/>
		</g>
	</g>
</g>
</svg>
