<svg xmlns="http://www.w3.org/2000/svg" viewBox="0 0 165 68"><style type="text/css">
	.st0{fill:#FFFFFF;}
</style><path class="st0" d="M6.5 36.8c0 0 1.2-11.8 8.7-12.6s14.8-0.2 16.2 0c1.4 0.2 4.3 1.4 4.4 4.1s-0.5 9-1.4 11.9 -3 6.6-8.7 7.7 -13 0.5-15 2 -4.9 2.6-5.5 10v1.1h25l-0.5 3.2h-29c0 0 1.3-14.5 8.3-16.9 0 0-0.8-0.1 4.1-1 4.8-0.9 12.1-0.9 14.2-2 2-1.1 4.3-4.3 5-10.1C33 29 31.4 28 31.4 28s0.6-1-7-1.3c0 0-10.4-0.7-12.5 2.8 -1.8 3-1.7 7.2-1.7 7.2L6.5 36.8z"/><polygon class="st0" points="38.5 41.5 41.9 23.8 47.5 23.8 51.8 39 52.5 39 55.4 23.8 58.4 23.8 55 41.4 48.9 41.5 44.8 25.9 44.2 25.9 41.5 41.5 "/><path class="st0" d="M75.9 26.4c-0.5-1.3-0.9-2.2-3-2.4H62l-3.6 17.7 8.8-0.2c0 0 5.8 0.5 6.8-3.5s1-4 1-4S76.4 27.7 75.9 26.4zM73 28.9c0 0-0.4 3.2-1.2 6.8C71 39 67.6 39 67.6 39L62 39l2.6-12.7H71C73.7 26.4 73 28.9 73 28.9z"/><polygon class="st0" points="38.5 43.7 41.7 43.7 45.9 61.2 46.8 61.2 51.5 43.7 55.5 43.7 60.3 61.2 60.9 61.2 65.5 43.7 68.7 43.7 63.3 64.3 58 64.3 53.6 46.6 48.8 64.3 43.6 64.3 "/><path class="st0" d="M80.6 47.2H76l-5.8 17.1h3.4l1-3.5 7.2 0.2 1.1 3.3h3.3L80.6 47.2zM75.4 58.4l2.9-8.6 2.9 8.6H75.4z"/><polygon class="st0" points="87.3 47.2 87.3 49.8 92.4 49.8 92.4 64.3 95.7 64.3 95.7 49.8 100.6 49.8 100.6 47.2 "/><path class="st0" d="M117.7 52.7h-3.1v-1.8c0 0 0.2-1.2-1.7-1.2s-3.8 0-3.8 0 -2.1-0.2-2.1 2.5 0 7.1 0 7.1 -0.2 2.5 2.8 2.5c3 0 3 0 3 0s2-0.4 2-1.9c0-1.5 0-1.5 0-1.5h3v2.2c0 0 0.3 3.4-3.1 3.5h-4.4c0 0-6.1 0.8-6.2-3.6 -0.1-4.4 0-8.1 0-8.1s-0.1-5 3.3-5.1 6.5 0 6.5 0 4 0.5 3.9 3S117.7 52.7 117.7 52.7z"/><polygon class="st0" points="121.9 47.1 121.9 64.1 125.1 64.1 125.1 57 133 57.1 133 64.1 136.2 64.1 136.2 47.1 133 47.1 132.9 53.9 125.4 53.8 125.3 47.1 "/><path class="st0" d="M84.6 26.6H95V45H76.4c0 0 1.6-4 3.5-6.3 1.8-2.2 4.4-3.1 4.4-3.1S83.5 29.4 84.6 26.6z"/><rect x="97.4" y="26.6" class="st0" width="17.9" height="18.2"/><path class="st0" d="M138.6 26.6v18.2H157c0 0-0.5-4.2-3.5-6.7 0 0-2.1-2.2-4.6-3 0 0 0.6-5.7-1.5-8.5H138.6z"/><rect x="118.2" y="26.6" class="st0" width="18" height="18.2"/><path class="st0" d="M95 11.8v12.5h-9.7c0 0 0.8-3.2 3.1-6.2C90.7 15 93.6 12.8 95 11.8z"/><path class="st0" d="M97.3 10.4l0.2 13.9h17.9l0.2-13.9c0 0-1.8-2.3-9.1-2.2C106.4 8.2 101 7.9 97.3 10.4z"/><path class="st0" d="M118 11.2v13h18.2v-7.5c0 0-2.1-1.2-5.2-1.2 -3.1 0-4.7 1-4.7 1S121.9 12.5 118 11.2z"/><path class="st0" d="M138.5 17.6l0.2 6.7h7c0 0-0.3-1.5-3-3.9S138.5 17.6 138.5 17.6z"/><path class="st0" d="M138.5 47.1l0.2 17h8.1c0 0 7.2-2.4 9.2-7.7 2.1-5.4 1.6-9.3 1.6-9.3H138.5z"/><path class="st0" d="M159.5 45.3l2.8-2.8c0 0 1.7 5.4-3 10.8C159.3 53.2 160.3 48.2 159.5 45.3z"/><path class="st0" d="M148.7 24.9l3-2.9c0 0 2.1 2.5 1.6 8.2 0 0 3.7 1.8 5.7 4.8 0.8 1.2 2.7 5 2.7 5l-2.4 2.6c0 0-3.2-6.7-8.3-8.9C151 33.8 149.8 26.2 148.7 24.9z"/><path class="st0" d="M140.3 16l3-3c0 0 5.1 2.4 6.9 6.4l-2.8 2.8C147.5 22.3 143.7 17.8 140.3 16z"/><path class="st0" d="M119.6 9l3-3c0 0 4.9 2.4 7 5.7 0 0 5.8-2.3 11.2 0.4L138 15c0 0-4-3-11.8-1.1C126.3 13.9 123.6 10.6 119.6 9z"/><path class="st0" d="M117.1 7.9l3-2.9c0 0-4.2-2-9.6-1.6 0 0-5.1 0.1-9.6 3.5C100.8 6.9 113.2 5.2 117.1 7.9z"/></svg>
