<svg xmlns="http://www.w3.org/2000/svg" width="302" height="180" viewBox="0 0 302 180"><title>  powered-by-aws</title><desc>  Created with Sketch.</desc><g fill="none"><g fill="#FFF"><path d="M85.4 65.4C85.4 69.1 85.8 72.1 86.5 74.3 87.3 76.5 88.3 78.9 89.7 81.5 90.2 82.3 90.4 83.1 90.4 83.8 90.4 84.8 89.8 85.8 88.5 86.8L82.2 91C81.3 91.6 80.4 91.9 79.6 91.9 78.6 91.9 77.6 91.4 76.6 90.5 75.2 89 74 87.4 73 85.8 72 84.1 71 82.2 69.9 79.9 62.1 89.1 52.3 93.7 40.5 93.7 32.1 93.7 25.4 91.3 20.5 86.5 15.6 81.7 13.1 75.3 13.1 67.3 13.1 58.8 16.1 51.9 22.2 46.7 28.3 41.5 36.4 38.9 46.7 38.9 50.1 38.9 53.6 39.2 57.3 39.7 61 40.2 64.8 41 68.8 41.9L68.8 34.6C68.8 27 67.2 21.7 64.1 18.6 60.9 15.5 55.5 14 47.8 14 44.3 14 40.7 14.4 37 15.3 33.3 16.2 29.7 17.3 26.2 18.7 24.6 19.4 23.4 19.8 22.7 20 22 20.2 21.5 20.3 21.1 20.3 19.7 20.3 19 19.3 19 17.2L19 12.3C19 10.7 19.2 9.5 19.7 8.8 20.2 8.1 21.1 7.4 22.5 6.7 26 4.9 30.2 3.4 35.1 2.2 40 0.9 45.2 0.3 50.7 0.3 62.6 0.3 71.3 3 76.9 8.4 82.4 13.8 85.2 22 85.2 33L85.2 65.4 85.4 65.4ZM44.8 80.6C48.1 80.6 51.5 80 55.1 78.8 58.7 77.6 61.9 75.4 64.6 72.4 66.2 70.5 67.4 68.4 68 66 68.6 63.6 69 60.7 69 57.3L69 53.1C66.1 52.4 63 51.8 59.8 51.4 56.6 51 53.5 50.8 50.4 50.8 43.7 50.8 38.8 52.1 35.5 54.8 32.2 57.5 30.6 61.3 30.6 66.3 30.6 71 31.8 74.5 34.3 76.9 36.7 79.4 40.2 80.6 44.8 80.6ZM125.1 91.4C123.3 91.4 122.1 91.1 121.3 90.4 120.5 89.8 119.8 88.4 119.2 86.5L95.7 9.2C95.1 7.2 94.8 5.9 94.8 5.2 94.8 3.6 95.6 2.7 97.2 2.7L107 2.7C108.9 2.7 110.2 3 110.9 3.7 111.7 4.3 112.3 5.7 112.9 7.6L129.7 73.8 145.3 7.6C145.8 5.6 146.4 4.3 147.2 3.7 148 3.1 149.4 2.7 151.2 2.7L159.2 2.7C161.1 2.7 162.4 3 163.2 3.7 164 4.3 164.7 5.7 165.1 7.6L180.9 74.6 198.2 7.6C198.8 5.6 199.5 4.3 200.2 3.7 201 3.1 202.3 2.7 204.1 2.7L213.4 2.7C215 2.7 215.9 3.5 215.9 5.2 215.9 5.7 215.8 6.2 215.7 6.8 215.6 7.4 215.4 8.2 215 9.3L190.9 86.6C190.3 88.6 189.6 89.9 188.8 90.5 188 91.1 186.7 91.5 185 91.5L176.4 91.5C174.5 91.5 173.2 91.2 172.4 90.5 171.6 89.8 170.9 88.5 170.5 86.5L155 22 139.6 86.4C139.1 88.4 138.5 89.7 137.7 90.4 136.9 91.1 135.5 91.4 133.7 91.4L125.1 91.4ZM253.6 94.1C248.4 94.1 243.2 93.5 238.2 92.3 233.2 91.1 229.3 89.8 226.7 88.3 225.1 87.4 224 86.4 223.6 85.5 223.2 84.6 223 83.6 223 82.7L223 77.6C223 75.5 223.8 74.5 225.3 74.5 225.9 74.5 226.5 74.6 227.1 74.8 227.7 75 228.6 75.4 229.6 75.8 233 77.3 236.7 78.5 240.6 79.3 244.6 80.1 248.5 80.5 252.5 80.5 258.8 80.5 263.7 79.4 267.1 77.2 270.5 75 272.3 71.8 272.3 67.7 272.3 64.9 271.4 62.6 269.6 60.7 267.8 58.8 264.4 57.1 259.5 55.5L245 51C237.7 48.7 232.3 45.3 229 40.8 225.7 36.4 224 31.5 224 26.3 224 22.1 224.9 18.4 226.7 15.2 228.5 12 230.9 9.2 233.9 7 236.9 4.7 240.3 3 244.3 1.8 248.3 0.6 252.5 0.1 256.9 0.1 259.1 0.1 261.4 0.2 263.6 0.5 265.9 0.8 268 1.2 270.1 1.6 272.1 2.1 274 2.6 275.8 3.2 277.6 3.8 279 4.4 280 5 281.4 5.8 282.4 6.6 283 7.5 283.6 8.3 283.9 9.4 283.9 10.8L283.9 15.5C283.9 17.6 283.1 18.7 281.6 18.7 280.8 18.7 279.5 18.3 277.8 17.5 272.1 14.9 265.7 13.6 258.6 13.6 252.9 13.6 248.4 14.5 245.3 16.4 242.2 18.3 240.6 21.2 240.6 25.3 240.6 28.1 241.6 30.5 243.6 32.4 245.6 34.3 249.3 36.2 254.6 37.9L268.8 42.4C276 44.7 281.2 47.9 284.3 52 287.4 56.1 288.9 60.8 288.9 66 288.9 70.3 288 74.2 286.3 77.6 284.5 81 282.1 84 279 86.4 275.9 88.9 272.2 90.7 267.9 92 263.4 93.4 258.7 94.1 253.6 94.1Z"/><path d="M272.5 142.7C239.6 167 191.8 179.9 150.7 179.9 93.1 179.9 41.2 158.6 2 123.2 -1.1 120.4 1.7 116.6 5.4 118.8 47.8 143.4 100.1 158.3 154.2 158.3 190.7 158.3 230.8 150.7 267.7 135.1 273.2 132.6 277.9 138.7 272.5 142.7Z"/><path d="M286.2 127.1C282 121.7 258.4 124.5 247.7 125.8 244.5 126.2 244 123.4 246.9 121.3 265.7 108.1 296.6 111.9 300.2 116.3 303.8 120.8 299.2 151.7 281.6 166.5 278.9 168.8 276.3 167.6 277.5 164.6 281.5 154.7 290.4 132.4 286.2 127.1Z"/></g></g></svg>
