<svg width="94" height="83" xmlns="http://www.w3.org/2000/svg"><desc>Created with Sketch.</desc><g fill="none" fill-rule="evenodd"><path fill="#CAC9C2" d="M30.5 69L14 41.5 30.5 14h33L80 41.5 63.5 69h-33"/><path d="M48.5 55C41.607 55 36 49.392 36 42.5 36 35.607 41.607 30 48.5 30S61 35.607 61 42.5C61 49.392 55.393 55 48.5 55" fill="#FFF"/><path d="M73.723 3.242C72.709 1.46 70.223 0 68.196 0H27.451c-2.026 0-4.513 1.46-5.526 3.242L10.019 24.197c-.093 1.354.151 2.768.739 3.801L18.817 42l14.386-25.256h45.471c1.076 0 2.28.414 3.326 1.066L73.723 3.242" fill="#5072AA"/><path d="M9.577 23l-.556.784c-.1 1.157.16 2.366.788 3.249L18.42 39 23 32.567 9.577 23" fill="#4D6796"/><path d="M29.358 11c-1.302-.002-2.356-1.12-2.358-2.5.002-1.38 1.056-2.498 2.358-2.5 1.302.001 2.357 1.12 2.359 2.5-.002 1.38-1.057 2.499-2.359 2.5zM68 8.5c.01.834-.404 1.61-1.084 2.03-.68.42-1.52.42-2.2 0-.68-.42-1.093-1.196-1.083-2.03.015-1.267.988-2.286 2.183-2.286 1.196 0 2.169 1.019 2.184 2.286z" fill="#FFF" fill-rule="nonzero"/><path d="M93.038 38.126L80.824 17.343c-1.057-.636-2.273-1.04-3.36-1.04H60.907l14.318 24.79-22.668 39.341c-.5.848-1.352 1.62-2.332 2.19h16.66c2.046 0 4.558-1.424 5.581-3.165l20.573-35.003c1.023-1.74 1.023-4.59 0-6.33" fill="#CC4232"/><path d="M81.375 18.276l-.548-.933c-1.056-.636-2.271-1.04-3.358-1.04H60.911l4.31 7.462 16.154-5.49" fill="#B23F33"/><path d="M65.619 76.578c-1.386-.002-2.51-1.105-2.511-2.467.001-1.361 1.125-2.465 2.51-2.466 1.387.001 2.51 1.104 2.512 2.466-.002 1.362-1.125 2.466-2.511 2.467M85.16 43.703c-1.386-.001-2.51-1.105-2.511-2.467.002-1.361 1.125-2.465 2.511-2.466 1.386.002 2.51 1.105 2.51 2.466 0 1.362-1.124 2.466-2.51 2.467" fill="#FFF" fill-rule="nonzero"/><g><path d="M32.033 65.712L9.815 26.094c-.573-1.035-.812-2.452-.72-3.808L.828 37.217c-.99 1.787-.99 4.71 0 6.498L20.717 79.64c.989 1.787 3.417 3.248 5.395 3.248h23.67c.948-.584 1.772-1.376 2.255-2.247l8.102-14.93H32.033" fill="#ECB02A"/><path d="M48.437 82.89h1.377c.947-.585 1.771-1.377 2.253-2.248l8.103-14.93h-8.629L48.437 82.89" fill="#C79732"/><path d="M27.137 76.685c-1.34-.002-2.426-1.135-2.427-2.532.001-1.398 1.087-2.53 2.427-2.532 1.34.001 2.426 1.134 2.428 2.532-.002 1.397-1.088 2.53-2.428 2.532M8.212 42.942c-1.34-.001-2.426-1.134-2.427-2.532.001-1.397 1.087-2.53 2.427-2.531 1.34.001 2.426 1.134 2.428 2.531-.002 1.398-1.087 2.53-2.428 2.532" fill="#FFF" fill-rule="nonzero"/></g></g></svg>
