<svg width="318" height="95" xmlns="http://www.w3.org/2000/svg"><desc>Created with Sketch.</desc><g fill="none" fill-rule="evenodd"><path fill="#A2EF80" d="M.45.5h36.826v93.763H.45zM79.248.5h36.825v93.763H79.248z"/><path fill="#B8FF98" d="M.45.5h36.798l21 35.564L79.248.5h36.795L58.248 94.324z"/><path d="M163.654 10.668a1.792 1.792 0 0 1 2.291-.955 1.672 1.672 0 0 1 1.051 1.814v28.327a1.813 1.813 0 0 1-3.624 0V17.442l-10.02 15.744a1.928 1.928 0 0 1-2.482.954 1.848 1.848 0 0 1-.954-.954l-9.925-15.648v22.326a1.813 1.813 0 0 1-3.624 0V11.536a1.722 1.722 0 0 1 1.54-1.91 1.794 1.794 0 0 1 1.812 1.052l12.01 18.699 11.925-18.709zM178.443 10.572a1.813 1.813 0 0 1 3.624 0V40.15a1.813 1.813 0 0 1-3.624 0V10.572zM215.557 9.81a1.72 1.72 0 1 1 0 3.434h-10.97v26.713a1.81 1.81 0 0 1-1.814 1.814h-.096a1.848 1.848 0 0 1-1.813-1.72v-26.81h-10.973a1.72 1.72 0 1 1 0-3.434l25.666.003z" fill="#FFF"/><path d="M221.186 24.976a15.37 15.37 0 0 1 13.072-15.553c1.74-.19 3.496-.19 5.236 0a15.715 15.715 0 0 1 13.452 15.553 15.823 15.823 0 0 1-14.982 16.698h-.858c-8.86.113-15.92-6.201-15.92-16.698zm3.624.19c0 8.111 5.343 13.166 12.317 13.166 6.973 0 12.117-4.96 12.117-13.166a12.317 12.317 0 0 0-10.21-12.316 16.185 16.185 0 0 0-4.293 0 11.625 11.625 0 0 0-9.924 12.316h-.007z" fill="#FFF" fill-rule="nonzero"/><path d="M284.35 39.957a19.818 19.818 0 0 1-7.346 1.83c-8.98-.143-16.151-7.527-16.03-16.508v-.193a15.645 15.645 0 0 1 13.37-15.661 16.154 16.154 0 0 1 14.778 4.769 1.658 1.658 0 0 1-2.482 2.195 12.666 12.666 0 0 0-11.545-3.624c-6.182.679-10.729 6.112-10.307 12.317-.165 7.08 5.42 12.964 12.5 13.166h.096c1.997.001 3.963-.49 5.723-1.431a11.233 11.233 0 0 0 4.004-3.34c1.145-1.72 4.103.19 2.864 2.005a14.186 14.186 0 0 1-5.63 4.473l.006.002zM164.517 81.901a15.842 15.842 0 0 1-28.147-10.494 16.32 16.32 0 0 1 13.166-15.743c.822-.111 1.651-.175 2.481-.19a15.19 15.19 0 0 1 11.545 4.674c1.431 1.72-1.05 4.103-2.481 2.292a11.393 11.393 0 0 0-11.067-3.436 12.863 12.863 0 0 0 1.907 25.381 12.127 12.127 0 0 0 9.638-4.388V73.41h-8.876a1.623 1.623 0 0 1 0-3.246h10.398c1.431 0 1.91.765 1.91 1.813v8.21a2.156 2.156 0 0 1-.47 1.719l-.004-.005z" fill="#FFF"/><path d="M179.683 76.368v9.547a1.813 1.813 0 0 1-3.624 0V57.669a1.642 1.642 0 0 1 1.624-1.72h11.838c8.493 0 12.88 4.962 12.88 10.591 0 4.961-2.672 8.587-8.78 9.638l8.005 8.587a1.757 1.757 0 1 1-2.488 2.482l-9.828-10.778-9.627-.1zm0-3.15h9.838c6.488 0 9.255-2.96 9.16-6.678-.097-3.718-3.437-7.346-9.16-7.346h-9.828l-.01 14.024zM210.605 71.121a15.37 15.37 0 0 1 13.072-15.554c1.74-.19 3.496-.19 5.236 0 8.067 1.422 13.82 8.62 13.43 16.803-.39 8.183-6.803 14.8-14.97 15.447h-.858c-8.847.096-15.91-6.202-15.91-16.696zm3.624.19c0 8.111 5.343 13.166 12.317 13.166 6.973 0 12.117-4.961 12.117-13.166a12.317 12.317 0 0 0-10.21-12.317 16.185 16.185 0 0 0-4.293 0 11.625 11.625 0 0 0-9.924 12.317h-.007z" fill="#FFF" fill-rule="nonzero"/><path d="M277.48 57.287a1.81 1.81 0 0 1 1.813-1.813c.988.032 1.78.825 1.814 1.813v16.215c0 8.01-6.493 14.503-14.503 14.503S252.1 81.51 252.1 73.502V57.287c0-2.196 3.72-2.196 3.72 0V73.41c0 14.217 21.66 14.217 21.66 0V57.287z" fill="#FFF"/><path d="M296.088 78.087v7.914a1.81 1.81 0 0 1-1.813 1.814A1.754 1.754 0 0 1 292.462 86V57.674a1.733 1.733 0 0 1 1.813-1.72h10.778c8.493 0 12.5 5.63 12.5 11.353s-4.005 10.778-12.69 10.778l-8.775.002zm0-3.246h8.78c6.584 0 9.255-3.816 9.159-7.539a8.35 8.35 0 0 0-8.679-8.11h-9.255l-.005 15.65z" fill="#FFF" fill-rule="nonzero"/></g></svg>
