<svg width="119" height="35" xmlns="http://www.w3.org/2000/svg"><desc>Created with Sketch.</desc><g fill="none" fill-rule="evenodd"><path fill="#28B655" d="M.354 0h13.738v34.977H.354zM29.75 0h13.737v34.977H29.749z"/><path fill="#75DB4F" d="M.354 0h13.727l7.834 13.267L29.75 0h13.726l-21.56 35z"/><path d="M61.236 3.793a.668.668 0 0 1 .855-.356.624.624 0 0 1 .392.676v10.568a.676.676 0 0 1-1.352 0V6.32l-3.738 5.872a.72.72 0 0 1-.926.356.69.69 0 0 1-.356-.356L52.41 6.356v8.328a.676.676 0 0 1-1.352 0V4.117a.642.642 0 0 1 .574-.712.67.67 0 0 1 .676.392l4.48 6.975 4.449-6.979zM66.753 3.757a.676.676 0 0 1 1.352 0v11.034a.676.676 0 0 1-1.352 0V3.757zM80.598 3.473a.641.641 0 1 1 0 1.28h-4.092v9.966a.675.675 0 0 1-.677.677h-.036a.69.69 0 0 1-.676-.642V4.753h-4.093a.641.641 0 1 1 0-1.281h9.574z" fill="#121212"/><path d="M82.698 9.13a5.734 5.734 0 0 1 4.876-5.802c.65-.07 1.304-.07 1.953 0a5.862 5.862 0 0 1 5.019 5.803 5.903 5.903 0 0 1-5.59 6.229h-.32c-3.304.042-5.938-2.314-5.938-6.23zm1.352.071c0 3.026 1.993 4.912 4.594 4.912 2.602 0 4.52-1.85 4.52-4.912a4.595 4.595 0 0 0-3.808-4.594 6.038 6.038 0 0 0-1.601 0A4.337 4.337 0 0 0 84.052 9.2h-.002z" fill="#121212" fill-rule="nonzero"/><path d="M106.26 14.72a7.393 7.393 0 0 1-2.74.682 6.077 6.077 0 0 1-5.98-6.159v-.071a5.836 5.836 0 0 1 4.988-5.843c2.02-.387 4.1.284 5.513 1.78a.619.619 0 0 1-.926.818 4.725 4.725 0 0 0-4.307-1.352 4.327 4.327 0 0 0-3.845 4.595 4.801 4.801 0 0 0 4.663 4.911h.036c.745.001 1.478-.182 2.135-.533a4.19 4.19 0 0 0 1.494-1.246c.427-.642 1.53.07 1.068.748a5.292 5.292 0 0 1-2.1 1.668l.002.001zM61.558 30.366a5.91 5.91 0 0 1-10.5-3.915 6.088 6.088 0 0 1 4.911-5.873c.307-.041.616-.065.926-.07a5.667 5.667 0 0 1 4.307 1.743c.534.642-.392 1.53-.926.855a4.25 4.25 0 0 0-4.128-1.282 4.798 4.798 0 0 0 .711 9.469 4.524 4.524 0 0 0 3.596-1.637v-2.457h-3.311a.606.606 0 0 1 0-1.212h3.879c.533 0 .712.286.712.677v3.062a.804.804 0 0 1-.175.642l-.002-.002z" fill="#121212"/><path d="M67.216 28.302v3.561a.676.676 0 0 1-1.352 0V21.326a.613.613 0 0 1 .605-.641h4.416c3.169 0 4.805 1.85 4.805 3.95 0 1.851-.996 3.204-3.275 3.596l2.986 3.203a.656.656 0 0 1-.928.926l-3.666-4.02-3.591-.038zm0-1.175h3.67c2.42 0 3.452-1.104 3.416-2.491-.036-1.387-1.282-2.74-3.417-2.74H67.22l-.003 5.23zM78.75 26.345a5.734 5.734 0 0 1 4.877-5.803 9 9 0 0 1 1.953 0 6.07 6.07 0 0 1-.574 12.03h-.32c-3.3.037-5.935-2.313-5.935-6.228zm1.353.07c0 3.026 1.993 4.912 4.594 4.912 2.602 0 4.52-1.85 4.52-4.912a4.595 4.595 0 0 0-3.808-4.594 6.038 6.038 0 0 0-1.602 0 4.337 4.337 0 0 0-3.702 4.594h-.002z" fill="#121212" fill-rule="nonzero"/><path d="M103.698 21.184a.675.675 0 0 1 .676-.677.7.7 0 0 1 .677.677v6.049a5.41 5.41 0 1 1-10.82 0v-6.05c0-.818 1.387-.818 1.387 0v6.015c0 5.304 8.08 5.304 8.08 0v-6.014z" fill="#121212"/><path d="M110.64 28.943v2.952a.675.675 0 0 1-.677.677.655.655 0 0 1-.676-.677V21.328a.647.647 0 0 1 .676-.641h4.02c3.169 0 4.663 2.1 4.663 4.235 0 2.135-1.493 4.02-4.733 4.02l-3.274.001zm0-1.21h3.275c2.456 0 3.452-1.424 3.416-2.813a3.115 3.115 0 0 0-3.237-3.026h-3.453l-.002 5.838z" fill="#121212" fill-rule="nonzero"/></g></svg>
