<svg xmlns="http://www.w3.org/2000/svg" width="34" height="22" viewBox="0 0 34 22">
  <path fill="#4065E0" fill-rule="evenodd" d="M29.659,9.1132 C29.423,6.2762 27.039,4.0402 24.141,4.0402 C23.576,4.0402 23.018,4.1252 22.482,4.2932 C22.271,4.3592 22.067,4.4472 21.866,4.5382 C20.46,1.8452 17.644,0.0002 14.402,0.0002 C10.122,0.0002 6.577,3.2122 6.051,7.3512 C2.629,7.8752 0,10.8382 0,14.4022 C0,18.3362 3.2,21.5352 7.133,21.5352 L10.818,21.5352 L10.818,19.2352 L7.133,19.2352 C4.468,19.2352 2.3,17.0672 2.3,14.4022 C2.3,11.7372 4.468,9.5692 7.133,9.5692 L8.283,9.5692 L8.283,8.4202 C8.283,5.0452 11.028,2.3002 14.402,2.3002 C17.777,2.3002 20.522,5.0452 20.522,8.4202 L20.522,13.4612 L18.752,13.4612 L21.672,16.8452 L24.592,13.4612 L22.822,13.4612 L22.822,8.4202 C22.822,7.8342 22.762,7.2632 22.647,6.7122 C22.816,6.6232 22.99,6.5452 23.172,6.4872 C23.484,6.3892 23.81,6.3402 24.141,6.3402 C25.927,6.3402 27.379,7.7922 27.379,9.5762 C27.379,9.6712 27.373,9.7632 27.365,9.8562 L27.28,10.8432 L28.244,11.0732 C30.114,11.5192 31.421,13.1742 31.421,15.0952 C31.421,17.3782 29.563,19.2352 27.281,19.2352 L18.721,19.2352 C16.438,19.2352 14.582,17.3792 14.582,15.0962 L14.582,11.4612 L16.352,11.4612 L13.432,8.0752 L10.512,11.4612 L12.282,11.4612 L12.282,15.0962 C12.282,18.6472 15.171,21.5352 18.721,21.5352 L27.281,21.5352 C30.832,21.5352 33.721,18.6462 33.721,15.0952 C33.721,12.4172 32.091,10.0722 29.659,9.1132"/>
</svg>
