<?xml version="1.0" encoding="utf-8"?>
<!-- Generator: Adobe Illustrator 21.0.1, SVG Export Plug-In . SVG Version: 6.00 Build 0)  -->
<svg version="1.1" id="Layer_1" xmlns="http://www.w3.org/2000/svg" xmlns:xlink="http://www.w3.org/1999/xlink" x="0px" y="0px"
	 viewBox="0 0 940 364" style="enable-background:new 0 0 940 364;" xml:space="preserve">
<style type="text/css">
	.st0{display:none;fill:#FFFFFF;stroke:#231F20;stroke-miterlimit:10;}
	.st1{fill:#020000;stroke:#231F20;stroke-miterlimit:10;}
	.st2{stroke:#231F20;stroke-miterlimit:10;}
	.st3{fill:#070000;stroke:#231F20;stroke-miterlimit:10;}
	.st4{display:none;}
	.st5{display:inline;}
	.st6{fill:none;}
</style>
<g id="Layer_1_1_">
	<rect x="-125" y="-217" class="st0" width="1190.6" height="841.9"/>
	<path class="st1" d="M360.5,198.4l64.1-137.5l-37.1-17.3l-91.3,195.8h89.4v81.4h41V198.4H360.5z M418.7,313h-25.3v-81.4h-84.9
		L391.3,54l22.9,10.7l-66,141.5h70.5L418.7,313L418.7,313z"/>
	<path class="st1" d="M295.9,320.8V69.7l-20.5-20.5h-93.3l-20.5,20.5v251.1h41V90.2H255v230.6H295.9z M194.8,82.3V313h-25.3V73
		l15.9-16h86.8l15.9,15.9v240h-25.3V82.3H194.8z"/>
	<path class="st2" d="M95.6,361.1l331,0.3V333h-331L95.6,361.1z M418.7,340.8v12.7l-315.3-0.3v-12.5L418.7,340.8L418.7,340.8z"/>
	<path class="st3" d="M95.8,320.8h41V198.4h-66L146.9,34h279.6V6.9H115.1L6.5,239.4h89.4L95.8,320.8L95.8,320.8z M18.8,231.5
		L120.1,14.7h298.6v11.4H141.9L58.5,206.3H129V313h-25.3v-81.4H18.8V231.5z"/>
	<polygon class="st1" points="403.8,68.5 395.1,64.5 320.8,223.7 401.3,223.7 401.3,305.1 410.8,305.1 410.8,214.1 335.9,214.1 	"/>
	<polygon class="st1" points="270.7,305.1 280.2,305.1 280.2,76.2 269,64.9 188.7,64.9 177.4,76.2 177.4,305.1 187,305.1 187,74.5 
		270.7,74.5 	"/>
	<polygon class="st1" points="111.5,305.1 121.1,305.1 121.1,214.1 46.2,214.1 133.6,26.1 123.8,26.1 31.1,223.7 111.5,223.7 	"/>
	<g>
		<path class="st1" d="M565.4,149.1c0,3.3-1.2,6.1-3.5,8.5c-2.4,2.4-5.2,3.6-8.6,3.6c-3.4,0-6.3-1.2-8.7-3.6
			c-2.4-2.4-3.6-5.3-3.6-8.5v-47.5c0-2.5-0.5-4.8-1.4-6.9c-1-2.1-2.2-4-3.8-5.6s-3.4-2.8-5.6-3.8c-2.1-1-4.4-1.4-6.9-1.4
			c-2.4,0-4.6,0.5-6.8,1.4c-2.2,1-4.1,2.2-5.6,3.8c-1.6,1.6-2.8,3.4-3.8,5.6c-1,2.1-1.4,4.4-1.4,6.9v47.5c0,3.3-1.2,6.1-3.5,8.5
			c-2.4,2.4-5.2,3.6-8.6,3.6s-6.3-1.2-8.7-3.6c-2.4-2.4-3.6-5.3-3.6-8.5V75.7c0-3.3,1.2-6.1,3.6-8.5s5.3-3.6,8.7-3.6
			c3.4,0,6.2,1.2,8.6,3.6s3.5,5.3,3.5,8.5c1-1.1,2.4-2.4,4-3.9c1.7-1.5,3.7-2.8,6.1-4s5.1-2.2,8.1-3s6.5-1.3,10.3-1.3
			c4.3,0,8.3,0.7,12.1,2.2s7.2,3.5,10,6.1c2.9,2.6,5.1,5.7,6.7,9.4c1.6,3.7,2.4,7.7,2.4,12.2V149.1L565.4,149.1z"/>
		<path class="st1" d="M605,159.8c-6-2.4-11.1-5.8-15.5-10.2s-7.8-9.6-10.4-15.8c-2.5-6.1-3.8-12.9-3.8-20.3s1.3-14.2,3.8-20.3
			c2.5-6.1,6-11.4,10.4-15.8s9.6-7.8,15.5-10.2c6-2.4,12.3-3.6,19.1-3.6c6.9,0,13.3,1.2,19.2,3.6c6,2.4,11.1,5.8,15.5,10.2
			c4.4,4.4,7.8,9.6,10.4,15.8c2.5,6.1,3.8,12.9,3.8,20.3s-1.3,14.2-3.8,20.3s-6,11.4-10.4,15.8s-9.6,7.8-15.5,10.2
			c-6,2.4-12.4,3.6-19.2,3.6C617.3,163.4,611,162.2,605,159.8z M648.9,101.3c-1.2-3.9-3-7.3-5.2-10.3s-5-5.3-8.3-7.1
			c-3.3-1.7-7.1-2.6-11.2-2.6c-4.2,0-7.9,0.9-11.1,2.6c-3.3,1.7-6,4.1-8.3,7.1s-4.1,6.4-5.3,10.3s-1.9,8-1.9,12.2
			c0,4.3,0.6,8.4,1.9,12.3c1.2,3.9,3,7.4,5.3,10.3c2.3,2.9,5.1,5.3,8.3,7c3.3,1.7,7,2.6,11.1,2.6c4.2,0,7.9-0.9,11.2-2.6
			c3.3-1.7,6.1-4.1,8.3-7s4-6.4,5.2-10.3c1.2-3.9,1.9-8,1.9-12.3C650.7,109.2,650.1,105.1,648.9,101.3z"/>
		<path class="st1" d="M717,63.6v2.2h12c2.1,0,4,0.8,5.5,2.3s2.3,3.3,2.3,5.5s-0.8,4.1-2.3,5.6s-3.3,2.2-5.5,2.2h-12v67.8
			c0,3.3-1.2,6.1-3.6,8.5c-2.4,2.4-5.3,3.6-8.5,3.6c-3.4,0-6.3-1.2-8.7-3.6c-2.4-2.4-3.6-5.3-3.6-8.5V81.3h-7.1
			c-2.1,0-4-0.7-5.5-2.2s-2.3-3.3-2.3-5.6c0-2.1,0.8-4,2.3-5.5s3.3-2.3,5.5-2.3h7.1v-2.2V44.7c0-3.4,1.2-6.2,3.6-8.6
			c2.4-2.4,5.3-3.5,8.7-3.5c3.3,0,6.1,1.2,8.5,3.5c2.4,2.4,3.6,5.2,3.6,8.6V63.6z"/>
		<path class="st1" d="M517.2,307.9c0,3.3-1.2,6.1-3.6,8.5c-2.4,2.4-5.3,3.6-8.5,3.6c-3.4,0-6.3-1.2-8.7-3.6
			c-2.4-2.4-3.6-5.3-3.6-8.5v-67.8h-7.1c-2.1,0-4-0.7-5.5-2.2s-2.3-3.3-2.3-5.6c0-2.1,0.8-4,2.3-5.5s3.3-2.3,5.5-2.3h7.1v-2.2
			c0-5.3,0.4-10.1,1.3-14.5c0.8-4.4,2.3-8.1,4.5-11.2c2.1-3.1,5.1-5.5,8.8-7.2c3.7-1.7,8.4-2.5,14.2-2.5s10.5,0.6,14.1,1.9
			c3.5,1.2,5.3,3.9,5.3,8.1c0,2.9-0.7,5.3-2,7.2s-4,2.8-7.9,2.8c-4.8,0-8.3,1.1-10.5,3.3c-2.1,2.2-3.2,6.3-3.2,12.2v2.2h12
			c2.1,0,4,0.8,5.5,2.3s2.3,3.3,2.3,5.5s-0.8,4.1-2.3,5.6s-3.3,2.2-5.5,2.2h-12L517.2,307.9L517.2,307.9z"/>
		<path class="st1" d="M575.2,318.6c-6-2.4-11.1-5.8-15.5-10.2s-7.8-9.6-10.4-15.8c-2.5-6.1-3.8-12.9-3.8-20.3s1.3-14.2,3.8-20.3
			c2.5-6.1,6-11.4,10.4-15.8c4.4-4.4,9.6-7.8,15.5-10.2c6-2.4,12.3-3.6,19.1-3.6c6.9,0,13.3,1.2,19.2,3.6c6,2.4,11.1,5.8,15.5,10.2
			s7.8,9.6,10.4,15.8c2.5,6.1,3.8,12.9,3.8,20.3s-1.3,14.2-3.8,20.3c-2.5,6.1-6,11.4-10.4,15.8s-9.6,7.8-15.5,10.2
			c-6,2.4-12.4,3.6-19.2,3.6S581.1,321,575.2,318.6z M619,260.1c-1.2-3.9-3-7.3-5.2-10.3s-5-5.3-8.3-7.1c-3.3-1.7-7.1-2.6-11.2-2.6
			c-4.2,0-7.9,0.9-11.1,2.6c-3.3,1.7-6,4.1-8.3,7.1s-4.1,6.4-5.3,10.3s-1.9,8-1.9,12.2c0,4.3,0.6,8.4,1.9,12.3
			c1.2,3.9,3,7.4,5.3,10.3s5.1,5.3,8.3,7c3.3,1.7,7,2.6,11.1,2.6c4.2,0,7.9-0.9,11.2-2.6s6.1-4.1,8.3-7s4-6.4,5.2-10.3
			s1.9-8,1.9-12.3C620.9,268.1,620.3,264,619,260.1z"/>
		<path class="st1" d="M653.1,234.6c0-3.3,1.2-6.1,3.6-8.5c2.4-2.4,5.3-3.6,8.7-3.6s6.2,1.2,8.6,3.6c2.4,2.4,3.5,5.3,3.5,8.5v47.5
			c0,2.5,0.5,4.8,1.4,6.9c1,2.1,2.2,4,3.8,5.6s3.5,2.9,5.6,3.8c2.2,0.9,4.5,1.3,6.8,1.3c2.5,0,4.8-0.4,6.9-1.3
			c2.1-0.9,4-2.2,5.6-3.8c1.6-1.6,2.8-3.5,3.8-5.6s1.4-4.4,1.4-6.9v-47.5c0-3.3,1.2-6.1,3.6-8.5c2.4-2.4,5.3-3.6,8.7-3.6
			s6.2,1.2,8.6,3.6c2.4,2.4,3.5,5.3,3.5,8.5v73.3c0,3.3-1.2,6.1-3.5,8.5c-2.4,2.4-5.2,3.6-8.6,3.6c-3.4,0-6.2-1.2-8.6-3.6
			c-2.4-2.4-3.5-5.3-3.5-8.5c-1,1.2-2.4,2.6-4,4c-1.7,1.4-3.7,2.7-6.1,3.9c-2.4,1.2-5.1,2.2-8.1,3s-6.5,1.3-10.3,1.3
			c-4.3,0-8.3-0.7-12.1-2.1s-7.2-3.4-10-6.1c-2.9-2.6-5.1-5.8-6.8-9.4c-1.7-3.7-2.5-7.7-2.5-12.2L653.1,234.6L653.1,234.6z"/>
		<path class="st1" d="M834.9,307.9c0,3.3-1.2,6.1-3.5,8.5c-2.4,2.4-5.2,3.6-8.6,3.6c-3.4,0-6.3-1.2-8.7-3.6s-3.6-5.3-3.6-8.5v-47.5
			c0-2.5-0.5-4.8-1.4-6.9c-1-2.1-2.2-4-3.8-5.6s-3.4-2.8-5.6-3.8c-2.1-1-4.4-1.4-6.9-1.4c-2.4,0-4.6,0.5-6.8,1.4
			c-2.2,1-4.1,2.2-5.6,3.8c-1.6,1.6-2.8,3.4-3.8,5.6c-1,2.1-1.4,4.4-1.4,6.9v47.5c0,3.3-1.2,6.1-3.5,8.5c-2.4,2.4-5.2,3.6-8.6,3.6
			c-3.4,0-6.3-1.2-8.7-3.6s-3.6-5.3-3.6-8.5v-73.3c0-3.3,1.2-6.1,3.6-8.5c2.4-2.4,5.3-3.6,8.7-3.6s6.2,1.2,8.6,3.6
			c2.4,2.4,3.5,5.3,3.5,8.5c1-1.1,2.4-2.4,4-3.9c1.7-1.5,3.7-2.8,6.1-4s5.1-2.2,8.1-3s6.5-1.3,10.3-1.3c4.3,0,8.3,0.7,12.1,2.2
			s7.2,3.5,10,6.1c2.9,2.6,5.1,5.7,6.7,9.4c1.6,3.7,2.4,7.7,2.4,12.2V307.9L834.9,307.9z"/>
		<path class="st1" d="M906.5,311.7c-1.2,1.4-2.9,2.7-5,4c-2.1,1.2-4.7,2.3-7.9,3.1c-3.2,0.8-7.2,1.3-12.1,1.3
			c-5.6,0-10.7-1.2-15.2-3.5c-4.5-2.4-8.3-5.7-11.5-10s-5.7-9.5-7.4-15.4c-1.7-6-2.6-12.5-2.6-19.7s0.9-13.8,2.6-19.8
			c1.7-6,4.2-11.2,7.4-15.5s7.1-7.7,11.5-10c4.5-2.4,9.6-3.5,15.2-3.5c4.2,0,7.8,0.6,11,1.9c3.1,1.2,5.8,2.6,8.1,4.1
			c2.2,1.5,4,2.9,5.4,4.1c1.3,1.2,2.4,1.9,3,1.9s0.8-0.7,0.8-2.2v-33c0-3.4,1.2-6.2,3.5-8.6c2.4-2.4,5.2-3.5,8.6-3.5
			c3.4,0,6.3,1.2,8.7,3.5c2.4,2.4,3.6,5.2,3.6,8.6v108.8c0,3.3-1.2,6.1-3.6,8.5c-2.4,2.4-5.3,3.6-8.7,3.6s-6.2-1.2-8.6-3.6
			c-2.4-2.4-3.5-5.3-3.5-8.5C908.9,309,907.8,310.3,906.5,311.7z M872.9,250.1c-4,5.2-6,12.3-6,21.2c0,8.9,2,15.9,6,21.1
			s9.5,7.8,16.6,7.8s12.6-2.6,16.6-7.8c4-5.2,6-12.2,6-21.1c0-9-2-16.1-6-21.2c-4-5.2-9.5-7.8-16.6-7.8S876.9,244.9,872.9,250.1z"/>
	</g>
</g>
<g id="Layer_2" class="st4">
	<g class="st5">
		<polygon points="555.8,129.5 620,-8.1 582.8,-25.4 491.5,170.5 580.9,170.5 580.9,251.9 621.9,251.9 621.9,129.5 		"/>
		<polygon points="491.2,251.9 491.2,0.7 470.7,-19.8 377.4,-19.8 356.9,0.7 356.9,251.9 397.9,251.9 397.9,21.2 450.2,21.2 
			450.2,251.9 		"/>
		<polygon points="290.7,292.2 621.9,292.5 621.9,264.1 290.7,264.1 		"/>
		<polygon points="291,251.9 332,251.9 332,129.5 266,129.5 342.2,-35 621.9,-35 621.9,-62.2 310.3,-62.2 201.6,170.5 291,170.5 		
			"/>
	</g>
</g>
<rect class="st6" width="940" height="364"/>
</svg>
