<svg xmlns="http://www.w3.org/2000/svg" viewBox="0 0 600 90"><defs><style>.cls-1{fill:none;}.cls-2{fill:#1a1918;}</style></defs><title>ansible</title><g id="Layer_2" data-name="Layer 2"><g id="Layer_1-2" data-name="Layer 1"><rect class="cls-1" width="600" height="90"/><path class="cls-2" d="M157.99639,81.25417a4.202,4.202,0,0,1-3.5991-1.61162L113.555,25.93322V80.71854h-9.31257v-67.462A4.84633,4.84633,0,0,1,109.00677,8.424a4.2442,4.2442,0,0,1,3.70013,1.71729l40.73657,53.60129V9.17579h9.31021V76.52506A4.68449,4.68449,0,0,1,157.994,81.2518m77.033.646a80.80853,80.80853,0,0,1-28.14441-5.37049l2.22242-7.73619c8.35875,2.68761,17.45753,4.62107,25.922,4.62107,11.74642,0,17.88275-4.19112,17.88275-10.09724,0-5.37048-4.76435-8.058-21.16236-15.79192C215.3471,39.78925,208.896,34.851,208.896,25.18136c0-12.13637,9.30786-17.07927,26.87112-17.07927A104.54211,104.54211,0,0,1,260.74,11.54142l-1.48,7.94761a106.382,106.382,0,0,0-23.28141-2.899c-12.376,0-17.45519,2.361-17.45519,8.26945,0,5.80037,3.70012,8.26945,21.05428,16.32755,18.30562,8.48561,22.95956,12.78248,22.95956,21.58993,0,12.78477-12.06358,19.12084-27.51011,19.12084M306.66145,9.17808h9.62738V80.71381h-9.62738Zm91.52808,39.09915H374.27384V72.55476h23.91569c8.145,0,13.1184-5.15669,13.1184-12.35726,0-6.76595-5.1825-11.92027-13.1184-11.92027M393.5309,17.33949H374.2738v22.882h19.2571c7.72443,0,13.33219-4.9429,13.33219-11.81689,0-6.76595-4.86773-11.06511-13.33219-11.06511m4.76434,63.37661H369.51651a4.80188,4.80188,0,0,1-4.86966-4.7332q-.0007-.04968-.0004-.09929V14.00821a4.8677,4.8677,0,0,1,4.87006-4.8325H393.3218c14.60079,0,23.27672,7.19583,23.27672,18.4748,0,6.12221-3.5991,11.8169-9.10111,15.14582,8.152,2.47145,13.64933,9.2374,13.64933,17.40117,0,11.38465-9.41592,20.51631-22.8515,20.51631m69.09012.00236a4.84608,4.84608,0,0,1-4.75728-4.83249V9.17808h9.625V72.01669h38.30273V80.7161H467.38536Zm108.80473,1.18167c-19.68,0-31.52975-7.30395-31.52975-22.01981a17.85539,17.85539,0,0,1,11.535-16.75743c-6.13869-3.86691-9.31257-9.34544-9.31257-15.3596,0-13.32048,10.26636-19.65884,29.52109-19.65884a114.205,114.205,0,0,1,23.17333,2.47145l-1.05953,7.94762a144.09147,144.09147,0,0,0-22.8562-2.03921c-12.48408,0-19.15134,3.437-19.15134,11.70886,0,6.55452,6.13869,11.70885,14.286,11.70885h16.5037a4.13473,4.13473,0,0,1,0,8.26945H569.52745c-9.31257,0-15.2351,4.61634-15.2351,11.70885,0,10.41907,9.62738,13.5319,21.68857,13.5319a105.93694,105.93694,0,0,0,22.64-2.57483L600,78.67467a93.73878,93.73878,0,0,1-23.81,3.22324M32.594,22.59484,49.45713,64.84438,23.99089,44.47606ZM62.54969,74.57748,36.61359,11.20789A4.18576,4.18576,0,0,0,32.594,8.41224a4.32278,4.32278,0,0,0-4.12535,2.79565L0,80.71617H9.73543L21.0073,52.05961,54.635,79.64018a5.42037,5.42037,0,0,0,3.5991,1.61162,4.68393,4.68393,0,0,0,4.762-4.72208,6.323,6.323,0,0,0-.44636-1.94988Z"/></g></g></svg>