<?xml version="1.0" encoding="utf-8"?>
<!-- Generator: Adobe Illustrator 22.1.0, SVG Export Plug-In . SVG Version: 6.00 Build 0)  -->
<svg version="1.1" id="Layer_1" xmlns="http://www.w3.org/2000/svg" xmlns:xlink="http://www.w3.org/1999/xlink" x="0px" y="0px"
	 viewBox="0 0 934.6 438.4" style="enable-background:new 0 0 934.6 438.4;" xml:space="preserve">
<style type="text/css">
	.st0{fill:#252F3E;}
	.st1{fill:#FF9900;}
</style>
<title>aws-1</title>
<g id="Layer_1-2">
	<g id="Layer_1-3">
		<g>
			<path class="st0" d="M172,190.2c0,5,0.5,9.1,1.5,12c1.1,3,2.4,6.2,4.3,9.7c0.7,1.1,0.9,2.2,0.9,3.1c0,1.4-0.8,2.7-2.6,4.1
				l-8.5,5.7c-1.2,0.8-2.4,1.2-3.5,1.2c-1.4,0-2.7-0.7-4.1-1.9c-1.9-2-3.5-4.2-4.9-6.4c-1.4-2.3-2.7-4.9-4.2-8
				c-10.6,12.5-23.8,18.7-39.8,18.7c-11.4,0-20.4-3.2-27.1-9.7c-6.6-6.5-10-15.2-10-26c0-11.5,4.1-20.8,12.3-27.9
				s19.2-10.6,33.2-10.6c4.6,0,9.3,0.4,14.3,1.1c5,0.7,10.2,1.8,15.6,3v-9.9c0-10.3-2.2-17.5-6.4-21.7c-4.3-4.2-11.6-6.2-22.1-6.2
				c-4.7,0-9.6,0.5-14.6,1.8c-5,1.2-9.9,2.7-14.6,4.6c-2.2,0.9-3.8,1.5-4.7,1.8c-0.9,0.3-1.6,0.4-2.2,0.4c-1.9,0-2.8-1.4-2.8-4.2
				v-6.6c0-2.2,0.3-3.8,0.9-4.7c0.7-0.9,1.9-1.9,3.8-2.8c4.7-2.4,10.4-4.5,17.1-6.1c6.6-1.8,13.7-2.6,21.1-2.6
				c16.1,0,27.9,3.7,35.5,11c7.4,7.3,11.2,18.4,11.2,33.3v43.9H172z M117,210.7c4.5,0,9.1-0.8,13.9-2.4s9.2-4.6,12.9-8.7
				c2.2-2.6,3.8-5.4,4.6-8.7c0.8-3.2,1.4-7.2,1.4-11.8v-5.7c-3.9-0.9-8.1-1.8-12.5-2.3c-4.3-0.5-8.5-0.8-12.7-0.8
				c-9.1,0-15.7,1.8-20.2,5.4c-4.5,3.7-6.6,8.8-6.6,15.6c0,6.4,1.6,11.1,5,14.3C106,209.1,110.8,210.7,117,210.7z M225.7,225.3
				c-2.4,0-4.1-0.4-5.1-1.4c-1.1-0.8-2-2.7-2.8-5.3l-31.8-104.6c-0.8-2.7-1.2-4.5-1.2-5.4c0-2.2,1.1-3.4,3.2-3.4h13.3
				c2.6,0,4.3,0.4,5.3,1.4c1.1,0.8,1.9,2.7,2.7,5.3l22.7,89.6l21.1-89.6c0.7-2.7,1.5-4.5,2.6-5.3c1.1-0.8,3-1.4,5.4-1.4h10.8
				c2.6,0,4.3,0.4,5.4,1.4c1.1,0.8,2,2.7,2.6,5.3l21.4,90.7l23.4-90.7c0.8-2.7,1.8-4.5,2.7-5.3c1.1-0.8,2.8-1.4,5.3-1.4h12.6
				c2.2,0,3.4,1.1,3.4,3.4c0,0.7-0.1,1.4-0.3,2.2c-0.1,0.8-0.4,1.9-0.9,3.4l-32.6,104.6c-0.8,2.7-1.8,4.5-2.8,5.3
				c-1.1,0.8-2.8,1.4-5.1,1.4h-11.6c-2.6,0-4.3-0.4-5.4-1.4c-1.1-0.9-2-2.7-2.6-5.4l-21-87.3l-20.8,87.2c-0.7,2.7-1.5,4.5-2.6,5.4
				c-1.1,0.9-3,1.4-5.4,1.4H225.7z M399.6,229c-7,0-14.1-0.8-20.8-2.4c-6.8-1.6-12-3.4-15.6-5.4c-2.2-1.2-3.7-2.6-4.2-3.8
				c-0.5-1.2-0.8-2.6-0.8-3.8v-6.9c0-2.8,1.1-4.2,3.1-4.2c0.8,0,1.6,0.1,2.4,0.4c0.8,0.3,2,0.8,3.4,1.4c4.6,2,9.6,3.7,14.9,4.7
				c5.4,1.1,10.7,1.6,16.1,1.6c8.5,0,15.2-1.5,19.8-4.5c4.6-3,7-7.3,7-12.9c0-3.8-1.2-6.9-3.7-9.5c-2.4-2.6-7-4.9-13.7-7l-19.6-6.1
				c-9.9-3.1-17.2-7.7-21.7-13.8c-4.5-6-6.8-12.6-6.8-19.6c0-5.7,1.2-10.7,3.7-15c2.4-4.3,5.7-8.1,9.7-11.1c4.1-3.1,8.7-5.4,14.1-7
				c5.4-1.6,11.1-2.3,17.1-2.3c3,0,6.1,0.1,9.1,0.5c3.1,0.4,6,0.9,8.8,1.5c2.7,0.7,5.3,1.4,7.7,2.2c2.4,0.8,4.3,1.6,5.7,2.4
				c1.9,1.1,3.2,2.2,4.1,3.4c0.8,1.1,1.2,2.6,1.2,4.5v6.4c0,2.8-1.1,4.3-3.1,4.3c-1.1,0-2.8-0.5-5.1-1.6c-7.7-3.5-16.4-5.3-26-5.3
				c-7.7,0-13.8,1.2-18,3.8c-4.2,2.6-6.4,6.5-6.4,12c0,3.8,1.4,7,4.1,9.6s7.7,5.1,14.9,7.4l19.2,6.1c9.7,3.1,16.8,7.4,21,13
				c4.2,5.5,6.2,11.9,6.2,18.9c0,5.8-1.2,11.1-3.5,15.7c-2.4,4.6-5.7,8.7-9.9,11.9c-4.2,3.4-9.2,5.8-15,7.6
				C412.9,228.1,406.5,229,399.6,229z"/>
			<g>
				<path class="st1" d="M425.2,294.8c-44.5,32.9-109.2,50.4-164.9,50.4c-78,0-148.2-28.8-201.3-76.7c-4.2-3.8-0.4-8.9,4.6-6
					c57.4,33.3,128.2,53.5,201.4,53.5c49.4,0,103.7-10.3,153.6-31.4C426.2,281.1,432.5,289.4,425.2,294.8z"/>
				<path class="st1" d="M443.8,273.7c-5.7-7.3-37.6-3.5-52.1-1.8c-4.3,0.5-5-3.2-1.1-6.1c25.4-17.9,67.3-12.7,72.1-6.8
					c4.9,6.1-1.4,47.9-25.2,67.9c-3.7,3.1-7.2,1.5-5.5-2.6C437.4,311,449.4,280.8,443.8,273.7z"/>
			</g>
		</g>
		<g>
			<path class="st0" d="M582.1,258.9c-0.7,0-1.4-0.4-1.4-1.4v-41.2c0-0.7,0.4-1.4,1.4-1.4h1.8c1.1,0,1.4,0.4,1.4,1.4l0.4,3.6
				c2.8-2.2,5.6-3.6,8.8-4.7c3.2-1.1,6-1.8,8.8-1.8c4.2,0,7.4,1.1,9.5,3.3c2.1,2.2,3.2,5.4,3.2,10.1v30.7c0,0.7-0.4,1.4-1.4,1.4
				h-2.5c-0.7,0-1.4-0.4-1.4-1.4v-28.5c0-4-0.7-6.5-2.1-8.3c-1.4-1.8-3.9-2.5-6.7-2.5c-5.6,0-11.3,1.8-16.6,5.8v34
				c0,0.7-0.4,1.4-1.4,1.4h-1.8V258.9z"/>
			<path class="st0" d="M647.7,260.3c-6.7,0-12-1.8-15.2-5.8c-3.5-4-5.3-9.8-5.3-17.7c0-7.2,1.8-13,5.3-17c3.5-4,8.5-6.1,14.5-6.1
				c5.3,0,9.2,1.4,12,4.7c2.8,2.9,4.2,7.2,4.2,13c0,2.2,0,4-0.4,5.4c0,0.7-0.7,1.4-1.4,1.4h-28.9c0,6.1,1.4,10.8,3.9,13.7
				c2.5,2.9,6.7,4.3,12,4.3c4.2,0,8.1-0.7,11.6-2.2c0.7-0.4,1.4-0.4,1.4-0.4c0.4,0,0.4,0,0.7,0.4c0,0.4,0.4,0.4,0.4,0.7v1.4
				c0,1.1-0.4,1.4-1.1,1.8C657.2,259.3,652.6,260.3,647.7,260.3L647.7,260.3z M658.3,233.6c0-0.7,0-1.8,0-2.9c0-4.3-1.1-7.2-2.8-9.4
				c-2.1-2.2-4.9-3.3-8.8-3.3c-9.2,0-13.8,5.1-14.5,15.5H658.3L658.3,233.6z"/>
			<path class="st0" d="M687.2,259.6c-3.5,0-6-1.1-7.8-2.9c-1.8-1.8-2.8-4.3-2.8-8v-29.6h-6.7c-0.7,0-1.4-0.4-1.4-1.4V217
				c0-0.4,0-0.7,0.4-1.1c0-0.4,0.4-0.4,1.1-0.4l7.1-0.7l0.7-11.6c0-0.4,0.4-0.7,0.4-1.1c0.4-0.4,0.4-0.4,1.1-0.4h1.4
				c0.7,0,1.4,0.4,1.4,1.4v11.6h12.3c0.7,0,1.4,0.4,1.4,1.4v1.8c0,0.7-0.4,1.4-1.4,1.4h-12.3v29.3c0,2.5,0.4,4,1.4,5.1
				c1.1,1.1,2.8,1.4,4.9,1.4c1.8,0,3.2,0,4.2-0.4c0.7,0,1.1-0.4,1.4-0.4s0.7,0,0.7,0c0.7,0,1.1,0.4,1.1,1.1v1.4
				c0,1.1-0.4,1.4-1.1,1.8C692.5,259.3,690,259.6,687.2,259.6L687.2,259.6z"/>
			<path class="st0" d="M715.1,258.9c-0.7,0-1.4-0.4-1.8-1.1L699.9,217c-0.4-0.7-0.4-1.1-0.4-1.4s0.4-0.7,1.1-0.7h2.8
				c0.7,0,1.1,0.4,1.4,1.1l11.6,37.2l10.2-37.2c0.4-0.7,0.7-1.1,1.8-1.1h3.2c0.7,0,1.4,0.4,1.8,1.1l10.2,37.2l12-37.6
				c0.4-0.7,0.7-1.1,1.4-1.1h2.5c0.7,0,1.1,0.4,1.1,0.7c0,0.4,0,0.7-0.4,1.4l-14.1,40.8c-0.4,0.7-0.7,1.1-1.8,1.1h-2.8
				c-0.7,0-1.4-0.4-1.8-1.1l-10.2-37.2l-10.2,37.2c-0.4,0.7-0.7,1.1-1.8,1.1h-2.5V258.9z"/>
			<path class="st0" d="M786,260.3c-6.3,0-11.3-2.2-14.8-6.1c-3.5-4-5.3-9.8-5.3-17.3c0-7.2,1.8-13,5.3-17.3c3.5-4,8.5-6.1,14.8-6.1
				c6.3,0,11.3,2.2,14.8,6.1c3.5,4,5.3,9.8,5.3,17.3c0,7.2-1.8,13-5.3,17.3C797.2,258.2,792.3,260.3,786,260.3L786,260.3z
				 M786,255.6c9.9,0,14.8-6.1,14.8-18.8c0-12.6-4.9-18.8-14.8-18.8c-9.9,0-14.8,6.1-14.8,18.8C771.1,249.5,776.1,255.6,786,255.6
				L786,255.6z"/>
			<path class="st0" d="M818.4,258.9c-0.7,0-1.4-0.4-1.4-1.4v-41.2c0-0.7,0.4-1.4,1.4-1.4h1.8c1.1,0,1.4,0.4,1.4,1.4l0.4,5.1
				c2.1-2.5,4.2-4.3,6.3-5.1c2.1-1.1,4.6-1.4,7.1-1.4c1.1,0,1.8,0,2.1,0c0.7,0,1.4,0.4,1.4,1.4v2.2c0,0.4,0,0.4-0.4,0.7
				c-0.4,0.4-0.4,0.4-0.7,0.4c-0.4,0-1.1,0-1.4,0c-0.4,0-1.1,0-1.8,0c-2.5,0-4.9,0.4-7.1,1.4c-2.1,1.1-3.9,2.5-6,4.7v32.2
				c0,0.7-0.4,1.4-1.4,1.4h-1.8V258.9z"/>
			<g>
				<path class="st0" d="M582.1,179.8c-0.7,0-1.4-0.4-1.4-1.4v-59.6c0-0.7,0.4-1.4,1.4-1.4h1.8c1.1,0,1.4,0.4,1.4,1.4l0.4,3.6
					c2.5-2.2,5.3-3.6,7.8-4.7c2.5-1.1,4.9-1.4,7.8-1.4c5.6,0,9.9,2.2,13.1,6.1c3.2,4,4.9,9.8,4.9,16.6c0,7.2-1.8,13-4.9,17.3
					c-3.5,4.3-7.8,6.5-13.8,6.5c-5.3,0-9.9-2.2-14.5-6.1v21.7c0,0.7-0.4,1.4-1.4,1.4H582.1L582.1,179.8z M599.7,158.1
					c4.6,0,8.1-1.4,10.6-4.7c2.5-3.3,3.5-8,3.5-14.1c0-12.3-4.6-18.4-13.8-18.4c-4.6,0-9.5,1.8-14.1,5.8v25.7
					c2.5,2.2,4.6,3.6,6.7,4.7C594.8,157.3,597.3,158.1,599.7,158.1L599.7,158.1z"/>
				<path class="st0" d="M639.9,162.4c-3.9,0-7.1-1.1-9.5-3.6c-2.5-2.2-3.5-5.4-3.5-9.4c0-4.3,1.4-7.6,4.2-10.1
					c2.8-2.5,6.7-3.6,11.6-3.6c3.9,0,7.8,0.7,12.3,2.2v-7.2c0-3.6-0.7-6.1-2.5-7.6c-1.8-1.4-4.2-2.2-8.1-2.2s-8.1,0.7-12.3,2.2
					c-0.4,0-1.1,0.4-1.4,0.4c-0.7,0-0.7-0.4-0.7-1.1v-1.8c0-0.4,0-0.7,0.4-1.1c0.4-0.4,0.4-0.4,0.7-0.7c4.6-1.8,9.2-2.9,14.5-2.9
					c4.9,0,8.8,1.1,11.3,3.3c2.5,2.2,3.5,5.4,3.5,9.8v31.1c0,0.7-0.4,1.4-1.4,1.4h-1.8c-0.7,0-1.4-0.4-1.4-1.4l-0.4-3.6
					C650.5,160.6,645.2,162.4,639.9,162.4L639.9,162.4z M640.6,158.1c2.1,0,4.6-0.4,7.1-1.4c2.5-1.1,4.9-2.2,7.8-4v-10.8
					c-3.9-1.1-7.4-1.4-11.3-1.4c-8.1,0-12,3.3-12,9.4c0,2.5,0.7,4.7,2.1,6.1C635.7,157.3,637.8,158.1,640.6,158.1L640.6,158.1z"/>
				<path class="st0" d="M674.8,161.7c-0.7,0-1.4-0.4-1.4-1.4v-41.6c0-0.7,0.4-1.4,1.4-1.4h1.8c1.1,0,1.4,0.4,1.4,1.4l0.4,5.1
					c2.1-2.5,4.2-4.3,6.3-5.1c2.1-1.1,4.6-1.4,7.1-1.4c1.1,0,1.8,0,2.1,0c0.7,0,1.4,0.4,1.4,1.4v2.2c0,0.4,0,0.4-0.4,0.7
					c0,0.4-0.4,0.4-0.7,0.4c-0.4,0-1.1,0-1.4,0c-0.4,0-1.1,0-1.8,0c-2.5,0-4.9,0.4-7.1,1.4c-2.1,1.1-3.9,2.5-6,4.7v32.2
					c0,0.7-0.4,1.4-1.4,1.4L674.8,161.7L674.8,161.7z"/>
				<path class="st0" d="M717.9,162c-3.5,0-6-1.1-7.8-2.9c-1.8-1.8-2.8-4.3-2.8-8v-29.3h-6.7c-0.7,0-1.4-0.4-1.4-1.4v-0.7
					c0-0.4,0-0.7,0.4-1.1c0-0.4,0.4-0.4,1.1-0.4l7.1-0.7l0.7-11.6c0-0.4,0.4-0.7,0.4-1.1c0.4-0.4,0.4-0.4,1.1-0.4h1.4
					c0.7,0,1.4,0.4,1.4,1.4v11.6h12.3c0.7,0,1.4,0.4,1.4,1.4v1.8c0,0.7-0.4,1.4-1.4,1.4h-12.3v29.3c0,2.5,0.4,4,1.4,5.1
					c1.1,1.1,2.8,1.4,4.9,1.4c1.8,0,3.2,0,4.2-0.4c0.7,0,1.1-0.4,1.4-0.4c0.4,0,0.7,0,0.7,0c0.7,0,1.1,0.4,1.1,1.1v1.4
					c0,1.1-0.4,1.4-1.1,1.8C723.2,161.7,720.7,162,717.9,162L717.9,162z"/>
				<path class="st0" d="M736.9,161.7c-0.7,0-1.4-0.4-1.4-1.4v-41.6c0-0.7,0.4-1.4,1.4-1.4h1.8c1.1,0,1.4,0.4,1.4,1.4l0.4,3.6
					c2.8-2.2,5.6-3.6,8.8-4.7c3.2-1.1,6-1.8,8.8-1.8c4.2,0,7.4,1.1,9.5,3.3c2.1,2.2,3.2,5.4,3.2,10.1v30.7c0,0.7-0.4,1.4-1.4,1.4
					h-2.5c-0.7,0-1.4-0.4-1.4-1.4v-28.2c0-4-0.7-6.5-2.1-8.3c-1.4-1.8-3.9-2.5-6.7-2.5c-5.6,0-11.3,1.8-16.6,5.8v34
					c0,0.7-0.4,1.4-1.4,1.4h-1.8V161.7z"/>
				<path class="st0" d="M802.5,162.8c-6.7,0-12-1.8-15.2-5.8c-3.5-4-5.3-9.8-5.3-17.7c0-7.2,1.8-13,5.3-17c3.5-4,8.5-6.1,14.5-6.1
					c5.3,0,9.2,1.4,12,4.7c2.8,2.9,4.2,7.2,4.2,13c0,2.2,0,4-0.4,5.4c0,0.7-0.7,1.4-1.4,1.4h-28.9c0,6.1,1.4,10.8,3.9,13.7
					c2.5,2.9,6.7,4.3,12,4.3c4.2,0,8.1-0.7,11.6-2.2c0.7-0.4,1.4-0.4,1.4-0.4c0.4,0,0.4,0,0.7,0.4c0,0.4,0.4,0.4,0.4,0.7v1.4
					c0,1.1-0.4,1.4-1.1,1.8C811.7,161.7,807.5,162.8,802.5,162.8L802.5,162.8z M813.1,136.4c0-0.7,0-1.8,0-2.9
					c0-4.3-1.1-7.2-2.8-9.4c-2.1-2.2-4.9-3.3-8.8-3.3c-9.2,0-13.8,5.1-14.5,15.5H813.1L813.1,136.4z"/>
				<path class="st0" d="M829.7,161.7c-0.7,0-1.4-0.4-1.4-1.4v-41.6c0-0.7,0.4-1.4,1.4-1.4h1.8c1.1,0,1.4,0.4,1.4,1.4l0.4,5.1
					c2.1-2.5,4.2-4.3,6.3-5.1c2.1-1.1,4.6-1.4,7.1-1.4c1.1,0,1.8,0,2.1,0c0.7,0,1.4,0.4,1.4,1.4v2.2c0,0.4,0,0.4-0.4,0.7
					c0,0.4-0.4,0.4-0.7,0.4c-0.4,0-1.1,0-1.4,0c-0.4,0-1.1,0-1.8,0c-2.5,0-4.9,0.4-7.1,1.4c-2.1,1.1-3.9,2.5-6,4.7v32.2
					c0,0.7-0.4,1.4-1.4,1.4L829.7,161.7L829.7,161.7z"/>
				<path class="st0" d="M847.7,258.9c-0.7,0-1.4-0.4-1.4-1.4v-62.2c0-0.7,0.4-1.4,1.4-1.4h2.5c0.7,0,1.4,0.4,1.4,1.4v39l20.5-18.8
					c0.7-0.7,1.4-0.7,2.1-0.7h3.2c0.7,0,1.1,0.4,1.1,0.7s-0.4,0.7-1.1,1.4l-20.8,18.8l22.6,21.3c0.4,0.4,0.7,0.7,0.7,1.1
					c0,0.7-0.4,0.7-1.1,0.7h-3.5c-0.7,0-1.4-0.4-1.8-0.7l-21.9-21v20.2c0,0.7-0.4,1.4-1.4,1.4H847.7L847.7,258.9z"/>
			</g>
		</g>
	</g>
</g>
</svg>
