<svg xmlns="http://www.w3.org/2000/svg" viewBox="0 0 600 112"><defs><style>.cls-1{fill:none;}.cls-2{fill:#b7ca9d;}.cls-3{fill:#3c4929;}.cls-4{fill:#759c3e;}.cls-5{fill:#4b612c;}</style></defs><title>aws-cloudformation</title><g id="Layer_2" data-name="Layer 2"><g id="Layer_1-2" data-name="Layer 1"><rect class="cls-1" width="600" height="112"/><path class="cls-2" d="M5.85963,77.08273l.77318.87765L45.68812,89.03117l.177-6.86235L18.51232,75.3047l-1.3385-.48289L5.85963,77.08274"/><path class="cls-2" d="M85.1016,77.08273l-39.88677,13.314-.11868-8.22786,27.3524-6.86412,1.1921-1.3417,11.46094,3.11973"/><path class="cls-3" d="M45.09615,30.05042l27.3524,6.37485L84.478,35.85462l.6236-1.20561L46.99145,20.93106l-1.8953,9.11936"/><path class="cls-4" d="M18.51232,75.3047l-12.65269,1.778L5.5075,75.7691V36.03228L5.85963,34.649l11.43287.85029,1.21982.92739v38.878"/><path class="cls-3" d="M45.86507,30.05042,18.51232,36.42527,5.85963,34.649l.47684-.74866L45.68812,22.70057l.177,7.34985"/><path class="cls-5" d="M45.4266.5,0,23.42934.02167,88.31591,45.4266,111.23317l.67654-1.02723V1.83247ZM32.14321,84.9709,5.85963,77.08273V34.649l26.28358-7.88532Zm40.30534-9.6662,12.65305,1.778.70886-1.25429V35.85462L85.1016,34.649,72.44855,36.42669v38.878"/><path class="cls-4" d="M45.4266,111.23316,90.941,88.31733l.02168-64.88621L45.4266.5ZM58.81766,26.76369,85.1016,34.649V77.08273L58.81766,84.9709V26.76369Z"/><path d="M149.05762,65.05555,146.583,72.38172h-6.74219L150.61133,40.664h8.61426l11.23535,31.71777h-7.21l-2.60645-7.32617ZM159.168,59.43446c-2.25195-6.69434-3.68652-10.97071-4.45215-13.82129h-.0459c-.78222,3.127-2.36621,8.10254-4.17187,13.82129Z"/><path d="M177.16211,72.38172,169.08789,40.664h7.31445c2.97266,14.57324,4.32618,21.03711,4.69727,24.52637h.0459c1.20605-5.8252,4.26855-16.86621,6.11816-24.52637h6.16211c1.63086,6.085,4.83887,18.3916,5.8711,24.19726h.04687c1.05176-6.98437,4.167-19.26855,5.28125-24.19726h6.66113l-8.58886,31.71777H195.5918c-1.66992-7.02343-4.457-17.27246-5.57618-22.70605h-.04589c-1.15235,5.64453-4.01465,16.32129-5.708,22.70605Z"/><path d="M220.48535,63.08485c.72363,3.18457,3.00879,4.581,6.67969,4.581,3.66113,0,5.22656-1.44531,5.22656-3.76758,0-2.581-1.5293-3.70214-6.95312-4.96386-8.63184-2.02637-10.76563-5.166-10.76563-9.44825,0-5.52832,4.13477-9.28222,11.64356-9.28222,8.42089,0,11.77539,4.52734,12.23047,9.166h-6.91016c-.33106-1.95117-1.41016-4.07129-5.499-4.07129-2.78418,0-4.46387,1.14942-4.46387,3.40137,0,2.20606,1.34668,3.10059,6.47168,4.28906,9.22558,2.17286,11.248,5.60547,11.248,10.07715,0,5.791-4.38183,9.76465-12.7666,9.76465-8.05078,0-12.291-3.96387-13.05078-9.74609Z"/><path d="M283.10352,62.60438c-1.2754,5.916-5.73633,10.22656-13.67969,10.22656-10.05664,0-14.81153-7.11816-14.81153-16.14062,0-8.69532,4.90625-16.48633,15.14161-16.48633,8.44531,0,12.54,4.958,13.31445,10.25976H276.21c-.66211-2.44531-2.36426-4.88183-6.6748-4.88183-5.65625,0-7.83985,5.08789-7.83985,10.86035,0,5.36133,1.89453,11.01074,8.02344,11.01074a6.30655,6.30655,0,0,0,6.48535-4.84863Z"/><path d="M287.43066,72.38172v-33.582h6.59278v33.582Z"/><path d="M322.10254,60.42957c0,7.20411-4.3125,12.50391-11.85547,12.50391-7.38477,0-11.69531-5.26855-11.69531-12.377,0-7.34864,4.44433-12.53907,12.00683-12.53907C317.56836,48.01746,322.10254,52.96375,322.10254,60.42957Zm-16.85938.0459c0,4.584,1.97168,7.29883,5.14746,7.29883,3.22754,0,5.02149-2.7168,5.02149-7.25879,0-4.98242-1.8291-7.33887-5.11328-7.33887C307.24121,53.17664,305.24316,55.44032,305.24316,60.47547Z"/><path d="M347.60059,65.46278c0,2.29492.00586,4.78906.04589,6.91894h-6.46c-.09277-.63867-.13867-1.91406-.17871-2.74707-1.41211,2.39063-3.51465,3.29883-6.55664,3.29883-4.85156,0-7.95019-2.94824-7.95019-8.85352V48.56922h6.58789V62.75868c0,2.62988.81543,4.80273,3.66894,4.80273,3.00586,0,4.25-1.60254,4.25-6.31836V48.56922h6.59278Z"/><path d="M375.55469,38.79969V65.83778c0,2.168,0,4.36523.04687,6.54394h-6.33984c-.13281-.71386-.25977-1.94433-.29981-2.4873-1.15039,1.875-3.20019,3.03906-6.75683,3.03906-6.02149,0-9.85254-4.83594-9.85254-12.26269,0-7.32813,4.07226-12.65333,10.81543-12.65333,3.42578,0,5.26562,1.208,5.79394,2.2754V38.79969ZM359.124,60.497c0,4.64258,1.8086,7.15625,5.03614,7.15625,4.5332,0,5.05566-3.78125,5.05566-7.20313,0-4.07226-.5752-7.15234-4.88477-7.15234C360.87012,53.29774,359.124,56.00086,359.124,60.497Z"/><path d="M382.12012,40.664h22.13867V46.285H388.81641v7.77149h14.46582v5.62109H388.81641v12.7041h-6.69629Z"/><path d="M430.5293,60.42957c0,7.20411-4.3125,12.50391-11.85547,12.50391-7.38477,0-11.69531-5.26855-11.69531-12.377,0-7.34864,4.44433-12.53907,12.00683-12.53907C425.99512,48.01746,430.5293,52.96375,430.5293,60.42957Zm-16.85938.0459c0,4.584,1.97168,7.29883,5.14746,7.29883,3.22754,0,5.02149-2.7168,5.02149-7.25879,0-4.98242-1.8291-7.33887-5.11328-7.33887C415.668,53.17664,413.66992,55.44032,413.66992,60.47547Z"/><path d="M435.05664,55.02821c0-2.36621-.00586-4.46778-.04687-6.459h6.46679c.08594.53321.17285,2.89649.17285,4.18067,1.05079-2.72168,3.58985-4.71094,7.64063-4.73243v6.291c-4.78516-.124-7.64063,1.16406-7.64063,7.69141V72.38172h-6.59277Z"/><path d="M452.832,54.70594c0-2.05859,0-4.09961-.04687-6.13672h6.30468c.08692.5791.21875,1.91016.25391,2.83887a7.43066,7.43066,0,0,1,6.61719-3.39063,6.29068,6.29068,0,0,1,6.14453,3.623,8.25666,8.25666,0,0,1,7.33691-3.623c4.14942,0,7.54688,2.55079,7.54688,8.74219V72.38172h-6.43164V57.56239c0-2.15039-.78028-4.25391-3.47852-4.25391-2.80273,0-3.89551,1.80664-3.89551,5.459V72.38172h-6.46582V57.81141c0-2.46777-.60742-4.46191-3.42187-4.46191-2.68067,0-3.95215,1.64746-3.95215,5.73242v13.2998H452.832Z"/><path d="M512.38184,66.22938a53.67111,53.67111,0,0,0,.32226,6.15234h-6.29883a9.7458,9.7458,0,0,1-.333-2.32715c-.86329,1.33789-2.48243,2.87891-6.69434,2.87891-5.74121,0-8.16309-3.77441-8.16309-7.46777,0-5.42481,4.35547-7.92774,11.33789-7.92774h3.39844V56.08289c0-1.69238-.60937-3.35742-3.667-3.35742-2.7832,0-3.39258,1.18262-3.69629,2.90723h-6.26953c.35742-4.23145,2.97461-7.65625,10.21387-7.61524,6.3789.04,9.84961,2.53223,9.84961,8.2002Zm-6.42579-4.68848h-2.68554c-3.97266,0-5.44629,1.21289-5.44629,3.50879,0,1.72461,1.05762,3.17578,3.42773,3.17578,4.18946,0,4.7041-2.91211,4.7041-6.05859Z"/><path d="M515.57422,48.56922h3.6709V42.121h6.59277v6.44824h4.665v4.957h-4.665v11.752c0,1.80664.55176,2.50976,2.51758,2.50976a12.10143,12.10143,0,0,0,1.501-.07422v4.53516a15.00512,15.00512,0,0,1-4.43165.45508c-4.6455,0-6.17968-2.48535-6.17968-6.65137V53.52625h-3.6709Z"/><path d="M534.17285,38.79969h6.59277v5.87988h-6.59277Zm0,9.76953h6.59277v23.8125h-6.59277Z"/><path d="M568.84375,60.42957c0,7.20411-4.3125,12.50391-11.85547,12.50391-7.38476,0-11.69531-5.26855-11.69531-12.377,0-7.34864,4.44433-12.53907,12.00683-12.53907C564.30957,48.01746,568.84375,52.96375,568.84375,60.42957Zm-16.85937.0459c0,4.584,1.97167,7.29883,5.14746,7.29883,3.22754,0,5.02148-2.7168,5.02148-7.25879,0-4.98242-1.8291-7.33887-5.11328-7.33887C553.98242,53.17664,551.98438,55.44032,551.98438,60.47547Z"/><path d="M573.41113,54.56825c0-2.02442,0-4.24024-.0459-5.999H579.75a27.8494,27.8494,0,0,1,.25391,3.03418c.81054-1.49609,2.73632-3.58594,6.9082-3.58594,4.7832,0,7.89062,3.23145,7.89062,9.21583V72.38172H588.21v-14.416c0-2.67676-.89258-4.61621-3.80078-4.61621-2.80176,0-4.40527,1.55761-4.40527,5.76171V72.38172h-6.59278Z"/></g></g></svg>