<svg xmlns="http://www.w3.org/2000/svg" viewBox="0 0 600.3913 137"><defs><style>.cls-1{fill:none;}.cls-2{fill:#5c4ee5;}.cls-3{fill:#4040b2;}</style></defs><title>terraform-logo</title><g id="Layer_2" data-name="Layer 2"><g id="Layer_1-2" data-name="Layer 1"><rect class="cls-1" x="0.3913" width="600" height="137"/><polygon id="Shape" class="cls-2" points="41.555 24.14 79.004 45.767 79.004 89.021 41.555 67.394 41.555 24.14"/><polygon id="Shape-2" data-name="Shape" class="cls-3" points="83.11 45.767 83.11 89.021 120.576 67.394 120.576 24.14 83.11 45.767"/><polygon id="Shape-3" data-name="Shape" class="cls-2" points="0 0 0 43.254 37.449 64.881 37.449 21.627 0 0"/><polygon id="Shape-4" data-name="Shape" class="cls-2" points="41.555 115.373 79.004 137 79.004 94.047 79.004 93.764 41.555 72.137 41.555 115.373"/><path id="Shape-5" data-name="Shape" d="M176.33,19.736V11.79423h-7.19256v7.90433H165.3913V.7057h3.74613V8.68494H176.33V.7057h3.74612V19.736Zm17.26963,0h-2.922l-.26223-1.01145a8.05434,8.05434,0,0,1-4.27059,1.19876c-2.62228,0-3.74612-1.72322-3.74612-4.08327s1.27368-3.74614,4.1582-3.74614h3.44643V10.67039c0-1.53591-.44953-2.06037-2.73467-2.06037a20.79163,20.79163,0,0,0-3.97089.41208l-.44954-2.62228a19.40444,19.40444,0,0,1,5.01981-.67431c4.49535,0,5.80649,1.53591,5.80649,4.94488Zm-3.74612-5.16966h-2.47244c-1.1613,0-1.49845.29969-1.49845,1.34861s.33715,1.38606,1.42352,1.38606a5.80631,5.80631,0,0,0,2.69721-.71176Zm11.23837,5.46935a17.49357,17.49357,0,0,1-4.94488-.7867l.487-2.62228a16.63312,16.63312,0,0,0,4.27058.59938c1.57338,0,1.83561-.33716,1.83561-1.386s0-1.2737-2.50991-1.79816c-3.4839-.82414-3.74612-1.64829-3.74612-4.308s1.27368-3.97088,5.357-3.97088a19.55425,19.55425,0,0,1,4.27058.487l-.33715,2.73466a26.22041,26.22041,0,0,0-3.93343-.412c-1.57338,0-1.83561.33713-1.83561,1.19875s0,1.19875,2.02291,1.6483c4.00836,1.01145,4.383,1.53591,4.383,4.34549s-.974,4.23312-5.282,4.23312Zm16.408-.29969V10.14594c0-.74921-.33716-1.08637-1.1613-1.08637a10.18951,10.18951,0,0,0-3.74613,1.16128V19.736h-3.74612V.44348l3.74612.52446V7.03667a13.03648,13.03648,0,0,1,5.24458-1.31116c2.36006,0,3.22166,1.61084,3.22166,4.04582V19.736Zm6.59318-15.65881V.7057h3.74612V4.07721Zm0,15.65881V5.98775h3.74612V19.736Zm6.44333-13.59844c0-3.44643,2.09783-5.43188,6.96779-5.43188a23.00229,23.00229,0,0,1,5.3195.63685l-.41208,3.07182a29.96718,29.96718,0,0,0-4.795-.6743c-2.54736,0-3.37151.8616-3.37151,2.84705v7.23c0,1.98546.82415,2.84707,3.37151,2.84707a29.96853,29.96853,0,0,0,4.795-.487l.41208,3.07182a23.00012,23.00012,0,0,1-5.3195.63685c-4.87,0-6.96779-1.98543-6.96779-5.43188ZM250.728,20.03571c-4.90742,0-6.21856-2.58483-6.21856-5.39443v-3.409c0-2.8096,1.31114-5.39443,6.21856-5.39443s6.21857,2.58483,6.21857,5.39443v3.4839c0,2.69719-1.31114,5.282-6.21857,5.282Zm0-11.23838c-1.91052,0-2.65975.82415-2.65975,2.36006v3.74613c0,1.53591.74923,2.36006,2.65975,2.36006s2.65975-.82415,2.65975-2.36006V11.15739c0-1.68575-.74922-2.5099-2.65975-2.5099Zm16.29564.22477a28.396,28.396,0,0,0-3.74613,1.98545v8.84086h-3.74612V5.98775h3.25913V7.48619a16.29477,16.29477,0,0,1,3.74613-1.79813Zm14.49751,5.95634a4.23312,4.23312,0,0,1-4.72012,4.8325,20.52912,20.52912,0,0,1-3.74612-.41207v5.61918l-3.74613.52446V5.98775h2.847L272.493,7.149a7.71708,7.71708,0,0,1,4.5328-1.42352c2.88452,0,4.42043,1.64829,4.42043,4.75758ZM272.98,16.51435a16.51862,16.51862,0,0,0,3.18421.3746c1.27368,0,1.79814-.59937,1.79814-1.8356V10.40818c0-1.12384-.44954-1.76069-1.76069-1.76069a5.16968,5.16968,0,0,0-3.1842,1.23623Z"/><polygon id="Shape-6" data-name="Shape" points="187.231 48.431 165.391 48.431 165.391 35.395 223.868 35.395 223.868 48.431 202.028 48.431 202.028 113.614 187.231 113.614 187.231 48.431"/><path id="Shape-7" data-name="Shape" d="M237.35436,103.01237a59.937,59.937,0,0,0,17.4944-2.69722l2.24767,10.78882a61.39873,61.39873,0,0,1-21.01576,3.74614c-17.98139,0-24.2-8.35384-24.2-22.06465V77.801c0-12.1,5.39442-22.47678,23.713-22.47678s22.47675,10.67646,22.47675,23.00121V90.53778H226.22837v2.92195C226.22837,100.31515,228.66335,103.01237,237.35436,103.01237ZM226.116,78.92477h18.20617V76.11519c0-5.39443-1.6483-9.14052-8.691-9.14052s-9.51516,3.74609-9.51516,9.14052Z"/><path id="Shape-8" data-name="Shape" d="M296.31835,68.39819a112.11733,112.11733,0,0,0-14.9845,8.35385v36.86185H266.83636V56.41057h12.1l.93653,6.331a64.059,64.059,0,0,1,14.9845-7.49223Z"/><path id="Shape-9" data-name="Shape" d="M331.30716,68.39819a112.11671,112.11671,0,0,0-14.9845,8.35385v36.86185h-14.4975V56.41057h12.1l.93654,6.331a64.059,64.059,0,0,1,14.98449-7.49223Z"/><path id="Shape-10" data-name="Shape" d="M379.18264,113.57642H367.45726l-1.04892-3.74609a31.28007,31.28007,0,0,1-17.0074,5.05725c-10.45169,0-14.9845-7.15509-14.9845-17.0074,0-11.613,5.05727-16.07089,16.67027-16.07089H364.835V75.81548c0-6.33094-1.76068-8.57862-10.90123-8.57862a79.9036,79.9036,0,0,0-15.8461,1.76071L336.327,58.09634a74.623,74.623,0,0,1,19.59224-2.69722c17.98138,0,23.26343,6.33095,23.26343,20.6786ZM364.87243,91.96131H354.30836c-4.68265,0-5.9938,1.27369-5.9938,5.61916s1.27368,5.769,5.769,5.769a22.47676,22.47676,0,0,0,10.78884-2.92195Z"/><path id="Shape-11" data-name="Shape" d="M423.23705,43.37406a42.03227,42.03227,0,0,0-8.204-.93654c-5.61918,0-6.44333,2.47245-6.44333,6.818v7.15509h14.53495l-.82414,11.23837H408.55224v45.77765H394.24205V67.79881h-9.178V56.56041h9.14054V48.43133c0-11.87521,5.50682-17.71916,18.20618-17.71916a45.3652,45.3652,0,0,1,12.32475,1.6483Z"/><path id="Shape-12" data-name="Shape" d="M451.18315,114.77522c-19.59223,0-24.87428-10.78887-24.87428-22.47678v-14.46c0-11.72538,5.282-22.47678,24.87428-22.47678s24.91172,10.78887,24.91172,22.47678v14.46C476.05741,103.94888,470.77538,114.77522,451.18315,114.77522Zm0-47.31358c-7.49225,0-10.56407,3.409-10.56407,9.8523V92.71052c0,6.44335,2.922,9.85231,10.56407,9.85231s10.56407-3.409,10.56407-9.85231V77.31394c0-6.48077-2.95943-9.88977-10.56407-9.88977Z"/><path id="Shape-13" data-name="Shape" d="M512.91928,68.39819a112.11608,112.11608,0,0,0-14.9845,8.35385v36.86185h-14.46V56.41057h12.1l.93653,6.331a64.059,64.059,0,0,1,14.9845-7.49223Z"/><path id="Shape-14" data-name="Shape" d="M552.25358,113.57642V73.68022c0-3.03436-1.2737-4.57029-4.57029-4.57029a39.48439,39.48439,0,0,0-14.98448,4.83253v39.67143H518.46354V56.41057h10.90123l1.42353,4.83253a57.27759,57.27759,0,0,1,22.8888-5.99381A10.86378,10.86378,0,0,1,564.466,61.35546a56.19147,56.19147,0,0,1,23.00121-6.10617c9.51513,0,12.92413,6.70555,12.92413,16.895v41.43214H586.08108V73.68022c0-3.03436-1.27365-4.57029-4.57025-4.57029a37.91006,37.91006,0,0,0-14.9845,4.83253v39.67143Z"/></g></g></svg>