<?xml version="1.0" encoding="utf-8"?>
<!-- Generator: Adobe Illustrator 22.1.0, SVG Export Plug-In . SVG Version: 6.00 Build 0)  -->
<svg version="1.1" id="Layer_1" xmlns="http://www.w3.org/2000/svg" xmlns:xlink="http://www.w3.org/1999/xlink" x="0px" y="0px"
	 viewBox="0 0 720 1024" style="enable-background:new 0 0 720 1024;" xml:space="preserve">
<style type="text/css">
	.st0{filter:url(#filter-3);}
	.st1{fill:#28B655;}
	.st2{filter:url(#Adobe_OpacityMaskFilter);}
	.st3{fill:#FFFFFF;}
	.st4{mask:url(#mask-2_1_);}
	.st5{opacity:0.4475;fill:url(#Combined-Shape_1_);enable-background:new    ;}
	.st6{opacity:0.4475;fill:url(#Combined-Shape-Copy_1_);enable-background:new    ;}
	.st7{opacity:0.3213;fill:#6FD84F;enable-background:new    ;}
	.st8{opacity:0.4533;fill:#A7FF81;enable-background:new    ;}
	.st9{fill:url(#Path_1_1_);}
</style>
<filter  filterUnits="objectBoundingBox" height="111.1%" id="filter-3" width="115.7%" x="-7.8%" y="-2.8%">
	<feMorphology  in="SourceAlpha" operator="erode" radius="10" result="shadowSpreadOuter1"></feMorphology>
	<feOffset  dx="0" dy="29" in="shadowSpreadOuter1" result="shadowOffsetOuter1"></feOffset>
	<feGaussianBlur  in="shadowOffsetOuter1" result="shadowBlurOuter1" stdDeviation="24"></feGaussianBlur>
	
		<feColorMatrix  in="shadowBlurOuter1" type="matrix" values="0 0 0 0 0.11372549   0 0 0 0 0.623529412   0 0 0 0 0.274509804  0 0 0 0.6 0">
		</feColorMatrix>
</filter>
<title>Group 4</title>
<desc>Created with Sketch.</desc>
<g id="Desktop">
	<g id="Become-a-partner">
		<g id="Group-4">
			<g id="Rectangle">
				<g class="st0">
					<rect id="path-1_4_" width="720" height="1024"/>
				</g>
				<g>
					<rect id="path-1_2_" class="st1" width="720" height="1024"/>
				</g>
			</g>
			<defs>
				<filter id="Adobe_OpacityMaskFilter" filterUnits="userSpaceOnUse" x="-30" y="-240" width="846" height="1407.6">
					<feColorMatrix  type="matrix" values="1 0 0 0 0  0 1 0 0 0  0 0 1 0 0  0 0 0 1 0"/>
				</filter>
			</defs>
			<mask maskUnits="userSpaceOnUse" x="-30" y="-240" width="846" height="1407.6" id="mask-2_1_">
				<g class="st2">
					<rect id="path-1_3_" class="st3" width="720" height="1024"/>
				</g>
			</mask>
			<g id="Group" class="st4">
				
					<g transform="translate(392.500000, 464.000000) rotate(90.000000) translate(-392.500000, -464.000000) translate(-311.500000, 40.500000)">
					
						<linearGradient id="Combined-Shape_1_" gradientUnits="userSpaceOnUse" x1="1101.8033" y1="792.4347" x2="1102.7882" y2="793.2158" gradientTransform="matrix(0 -450.4681 -334 0 265118.4062 496564.875)">
						<stop  offset="0" style="stop-color:#9AFF93"/>
						<stop  offset="1" style="stop-color:#28B655;stop-opacity:0.4929"/>
					</linearGradient>
					<path id="Combined-Shape" class="st5" d="M428.4,173h4.7v4.7h-4.7V173z M451.9,173h4.7v4.7h-4.7V173z M475.4,173h4.7v4.7h-4.7
						V173z M499,173h4.7v4.7H499V173z M522.5,173h4.7v4.7h-4.7V173z M546,173h4.7v4.7H546V173z M569.5,173h4.7v4.7h-4.7V173z
						 M593,173h4.7v4.7H593V173z M616.6,173h4.7v4.7h-4.7V173z M640.1,173h4.7v4.7h-4.7V173z M663.6,173h4.7v4.7h-4.7V173z
						 M687.1,173h4.7v4.7h-4.7V173z M710.6,173h4.7v4.7h-4.7V173z M734.2,173h4.7v4.7h-4.7V173z M757.7,173h4.7v4.7h-4.7V173z
						 M428.4,196.5h4.7v4.7h-4.7V196.5z M451.9,196.5h4.7v4.7h-4.7V196.5z M475.4,196.5h4.7v4.7h-4.7V196.5z M499,196.5h4.7v4.7H499
						V196.5z M522.5,196.5h4.7v4.7h-4.7V196.5z M546,196.5h4.7v4.7H546V196.5z M569.5,196.5h4.7v4.7h-4.7V196.5z M593,196.5h4.7v4.7
						H593V196.5z M616.6,196.5h4.7v4.7h-4.7V196.5z M640.1,196.5h4.7v4.7h-4.7V196.5z M663.6,196.5h4.7v4.7h-4.7V196.5z
						 M687.1,196.5h4.7v4.7h-4.7V196.5z M710.6,196.5h4.7v4.7h-4.7V196.5z M734.2,196.5h4.7v4.7h-4.7V196.5z M757.7,196.5h4.7v4.7
						h-4.7V196.5z M428.4,220h4.7v4.7h-4.7V220z M451.9,220h4.7v4.7h-4.7V220z M475.4,220h4.7v4.7h-4.7V220z M499,220h4.7v4.7H499
						V220z M522.5,220h4.7v4.7h-4.7V220z M546,220h4.7v4.7H546V220z M569.5,220h4.7v4.7h-4.7V220z M593,220h4.7v4.7H593V220z
						 M616.6,220h4.7v4.7h-4.7V220z M640.1,220h4.7v4.7h-4.7V220z M663.6,220h4.7v4.7h-4.7V220z M687.1,220h4.7v4.7h-4.7V220z
						 M710.6,220h4.7v4.7h-4.7V220z M734.2,220h4.7v4.7h-4.7V220z M757.7,220h4.7v4.7h-4.7V220z M428.4,243.6h4.7v4.7h-4.7V243.6z
						 M451.9,243.6h4.7v4.7h-4.7V243.6z M475.4,243.6h4.7v4.7h-4.7V243.6z M499,243.6h4.7v4.7H499V243.6z M522.5,243.6h4.7v4.7h-4.7
						V243.6z M546,243.6h4.7v4.7H546V243.6z M569.5,243.6h4.7v4.7h-4.7V243.6z M593,243.6h4.7v4.7H593V243.6z M616.6,243.6h4.7v4.7
						h-4.7V243.6z M640.1,243.6h4.7v4.7h-4.7V243.6z M663.6,243.6h4.7v4.7h-4.7V243.6z M687.1,243.6h4.7v4.7h-4.7V243.6z
						 M710.6,243.6h4.7v4.7h-4.7V243.6z M734.2,243.6h4.7v4.7h-4.7V243.6z M757.7,243.6h4.7v4.7h-4.7V243.6z M428.4,267.1h4.7v4.7
						h-4.7V267.1z M451.9,267.1h4.7v4.7h-4.7V267.1z M475.4,267.1h4.7v4.7h-4.7V267.1z M499,267.1h4.7v4.7H499V267.1z M522.5,267.1
						h4.7v4.7h-4.7V267.1z M546,267.1h4.7v4.7H546V267.1z M569.5,267.1h4.7v4.7h-4.7V267.1z M593,267.1h4.7v4.7H593V267.1z
						 M616.6,267.1h4.7v4.7h-4.7V267.1z M640.1,267.1h4.7v4.7h-4.7V267.1z M663.6,267.1h4.7v4.7h-4.7V267.1z M687.1,267.1h4.7v4.7
						h-4.7V267.1z M710.6,267.1h4.7v4.7h-4.7V267.1z M734.2,267.1h4.7v4.7h-4.7V267.1z M757.7,267.1h4.7v4.7h-4.7V267.1z
						 M428.4,290.6h4.7v4.7h-4.7V290.6z M451.9,290.6h4.7v4.7h-4.7V290.6z M475.4,290.6h4.7v4.7h-4.7V290.6z M499,290.6h4.7v4.7H499
						V290.6z M522.5,290.6h4.7v4.7h-4.7V290.6z M546,290.6h4.7v4.7H546V290.6z M569.5,290.6h4.7v4.7h-4.7V290.6z M593,290.6h4.7v4.7
						H593V290.6z M616.6,290.6h4.7v4.7h-4.7V290.6z M640.1,290.6h4.7v4.7h-4.7V290.6z M663.6,290.6h4.7v4.7h-4.7V290.6z
						 M687.1,290.6h4.7v4.7h-4.7V290.6z M710.6,290.6h4.7v4.7h-4.7V290.6z M734.2,290.6h4.7v4.7h-4.7V290.6z M757.7,290.6h4.7v4.7
						h-4.7V290.6z M428.4,314.1h4.7v4.7h-4.7V314.1z M451.9,314.1h4.7v4.7h-4.7V314.1z M475.4,314.1h4.7v4.7h-4.7V314.1z M499,314.1
						h4.7v4.7H499V314.1z M522.5,314.1h4.7v4.7h-4.7V314.1z M546,314.1h4.7v4.7H546V314.1z M569.5,314.1h4.7v4.7h-4.7V314.1z
						 M593,314.1h4.7v4.7H593V314.1z M616.6,314.1h4.7v4.7h-4.7V314.1z M640.1,314.1h4.7v4.7h-4.7V314.1z M663.6,314.1h4.7v4.7h-4.7
						V314.1z M687.1,314.1h4.7v4.7h-4.7V314.1z M710.6,314.1h4.7v4.7h-4.7V314.1z M734.2,314.1h4.7v4.7h-4.7V314.1z M757.7,314.1
						h4.7v4.7h-4.7V314.1z M428.4,337.6h4.7v4.7h-4.7V337.6z M451.9,337.6h4.7v4.7h-4.7V337.6z M475.4,337.6h4.7v4.7h-4.7V337.6z
						 M499,337.6h4.7v4.7H499V337.6z M522.5,337.6h4.7v4.7h-4.7V337.6z M546,337.6h4.7v4.7H546V337.6z M569.5,337.6h4.7v4.7h-4.7
						V337.6z M593,337.6h4.7v4.7H593V337.6z M616.6,337.6h4.7v4.7h-4.7V337.6z M640.1,337.6h4.7v4.7h-4.7V337.6z M663.6,337.6h4.7
						v4.7h-4.7V337.6z M687.1,337.6h4.7v4.7h-4.7V337.6z M710.6,337.6h4.7v4.7h-4.7V337.6z M734.2,337.6h4.7v4.7h-4.7V337.6z
						 M757.7,337.6h4.7v4.7h-4.7V337.6z M428.4,361.2h4.7v4.7h-4.7V361.2z M451.9,361.2h4.7v4.7h-4.7V361.2z M475.4,361.2h4.7v4.7
						h-4.7V361.2z M499,361.2h4.7v4.7H499V361.2z M522.5,361.2h4.7v4.7h-4.7V361.2z M546,361.2h4.7v4.7H546V361.2z M569.5,361.2h4.7
						v4.7h-4.7V361.2z M593,361.2h4.7v4.7H593V361.2z M616.6,361.2h4.7v4.7h-4.7V361.2z M640.1,361.2h4.7v4.7h-4.7V361.2z
						 M663.6,361.2h4.7v4.7h-4.7V361.2z M687.1,361.2h4.7v4.7h-4.7V361.2z M710.6,361.2h4.7v4.7h-4.7V361.2z M734.2,361.2h4.7v4.7
						h-4.7V361.2z M757.7,361.2h4.7v4.7h-4.7V361.2z M428.4,384.7h4.7v4.7h-4.7V384.7z M451.9,384.7h4.7v4.7h-4.7V384.7z
						 M475.4,384.7h4.7v4.7h-4.7V384.7z M499,384.7h4.7v4.7H499V384.7z M522.5,384.7h4.7v4.7h-4.7V384.7z M546,384.7h4.7v4.7H546
						V384.7z M569.5,384.7h4.7v4.7h-4.7V384.7z M593,384.7h4.7v4.7H593V384.7z M616.6,384.7h4.7v4.7h-4.7V384.7z M640.1,384.7h4.7
						v4.7h-4.7V384.7z M663.6,384.7h4.7v4.7h-4.7V384.7z M687.1,384.7h4.7v4.7h-4.7V384.7z M710.6,384.7h4.7v4.7h-4.7V384.7z
						 M734.2,384.7h4.7v4.7h-4.7V384.7z M757.7,384.7h4.7v4.7h-4.7V384.7z M428.4,407.1h4.7v4.7h-4.7V407.1z M451.9,407.1h4.7v4.7
						h-4.7V407.1z M475.4,407.1h4.7v4.7h-4.7V407.1z M499,407.1h4.7v4.7H499V407.1z M522.5,407.1h4.7v4.7h-4.7V407.1z M546,407.1
						h4.7v4.7H546V407.1z M569.5,407.1h4.7v4.7h-4.7V407.1z M593,407.1h4.7v4.7H593V407.1z M616.6,407.1h4.7v4.7h-4.7V407.1z
						 M640.1,407.1h4.7v4.7h-4.7V407.1z M663.6,407.1h4.7v4.7h-4.7V407.1z M687.1,407.1h4.7v4.7h-4.7V407.1z M710.6,407.1h4.7v4.7
						h-4.7V407.1z M734.2,407.1h4.7v4.7h-4.7V407.1z M757.7,407.1h4.7v4.7h-4.7V407.1z M428.4,430.6h4.7v4.7h-4.7V430.6z
						 M451.9,430.6h4.7v4.7h-4.7V430.6z M475.4,430.6h4.7v4.7h-4.7V430.6z M499,430.6h4.7v4.7H499V430.6z M522.5,430.6h4.7v4.7h-4.7
						V430.6z M546,430.6h4.7v4.7H546V430.6z M569.5,430.6h4.7v4.7h-4.7V430.6z M593,430.6h4.7v4.7H593V430.6z M616.6,430.6h4.7v4.7
						h-4.7V430.6z M640.1,430.6h4.7v4.7h-4.7V430.6z M663.6,430.6h4.7v4.7h-4.7V430.6z M687.1,430.6h4.7v4.7h-4.7V430.6z
						 M710.6,430.6h4.7v4.7h-4.7V430.6z M734.2,430.6h4.7v4.7h-4.7V430.6z M757.7,430.6h4.7v4.7h-4.7V430.6z M428.4,454.1h4.7v4.7
						h-4.7V454.1z M451.9,454.1h4.7v4.7h-4.7V454.1z M475.4,454.1h4.7v4.7h-4.7V454.1z M499,454.1h4.7v4.7H499V454.1z M522.5,454.1
						h4.7v4.7h-4.7V454.1z M546,454.1h4.7v4.7H546V454.1z M569.5,454.1h4.7v4.7h-4.7V454.1z M593,454.1h4.7v4.7H593V454.1z
						 M616.6,454.1h4.7v4.7h-4.7V454.1z M640.1,454.1h4.7v4.7h-4.7V454.1z M663.6,454.1h4.7v4.7h-4.7V454.1z M687.1,454.1h4.7v4.7
						h-4.7V454.1z M710.6,454.1h4.7v4.7h-4.7V454.1z M734.2,454.1h4.7v4.7h-4.7V454.1z M757.7,454.1h4.7v4.7h-4.7V454.1z
						 M428.4,477.6h4.7v4.7h-4.7V477.6z M451.9,477.6h4.7v4.7h-4.7V477.6z M475.4,477.6h4.7v4.7h-4.7V477.6z M499,477.6h4.7v4.7H499
						V477.6z M522.5,477.6h4.7v4.7h-4.7V477.6z M546,477.6h4.7v4.7H546V477.6z M569.5,477.6h4.7v4.7h-4.7V477.6z M593,477.6h4.7v4.7
						H593V477.6z M616.6,477.6h4.7v4.7h-4.7V477.6z M640.1,477.6h4.7v4.7h-4.7V477.6z M663.6,477.6h4.7v4.7h-4.7V477.6z
						 M687.1,477.6h4.7v4.7h-4.7V477.6z M710.6,477.6h4.7v4.7h-4.7V477.6z M734.2,477.6h4.7v4.7h-4.7V477.6z M757.7,477.6h4.7v4.7
						h-4.7V477.6z M428.4,501.2h4.7v4.7h-4.7V501.2z M451.9,501.2h4.7v4.7h-4.7V501.2z M475.4,501.2h4.7v4.7h-4.7V501.2z M499,501.2
						h4.7v4.7H499V501.2z M522.5,501.2h4.7v4.7h-4.7V501.2z M546,501.2h4.7v4.7H546V501.2z M569.5,501.2h4.7v4.7h-4.7V501.2z
						 M593,501.2h4.7v4.7H593V501.2z M616.6,501.2h4.7v4.7h-4.7V501.2z M640.1,501.2h4.7v4.7h-4.7V501.2z M663.6,501.2h4.7v4.7h-4.7
						V501.2z M687.1,501.2h4.7v4.7h-4.7V501.2z M710.6,501.2h4.7v4.7h-4.7V501.2z M734.2,501.2h4.7v4.7h-4.7V501.2z M757.7,501.2
						h4.7v4.7h-4.7V501.2z M428.4,524.7h4.7v4.7h-4.7V524.7z M451.9,524.7h4.7v4.7h-4.7V524.7z M475.4,524.7h4.7v4.7h-4.7V524.7z
						 M499,524.7h4.7v4.7H499V524.7z M522.5,524.7h4.7v4.7h-4.7V524.7z M546,524.7h4.7v4.7H546V524.7z M569.5,524.7h4.7v4.7h-4.7
						V524.7z M593,524.7h4.7v4.7H593V524.7z M616.6,524.7h4.7v4.7h-4.7V524.7z M640.1,524.7h4.7v4.7h-4.7V524.7z M663.6,524.7h4.7
						v4.7h-4.7V524.7z M687.1,524.7h4.7v4.7h-4.7V524.7z M710.6,524.7h4.7v4.7h-4.7V524.7z M734.2,524.7h4.7v4.7h-4.7V524.7z
						 M757.7,524.7h4.7v4.7h-4.7V524.7z M428.4,548.2h4.7v4.7h-4.7V548.2z M451.9,548.2h4.7v4.7h-4.7V548.2z M475.4,548.2h4.7v4.7
						h-4.7V548.2z M499,548.2h4.7v4.7H499V548.2z M522.5,548.2h4.7v4.7h-4.7V548.2z M546,548.2h4.7v4.7H546V548.2z M569.5,548.2h4.7
						v4.7h-4.7V548.2z M593,548.2h4.7v4.7H593V548.2z M616.6,548.2h4.7v4.7h-4.7V548.2z M640.1,548.2h4.7v4.7h-4.7V548.2z
						 M663.6,548.2h4.7v4.7h-4.7V548.2z M687.1,548.2h4.7v4.7h-4.7V548.2z M710.6,548.2h4.7v4.7h-4.7V548.2z M734.2,548.2h4.7v4.7
						h-4.7V548.2z M757.7,548.2h4.7v4.7h-4.7V548.2z M428.4,571.7h4.7v4.7h-4.7V571.7z M451.9,571.7h4.7v4.7h-4.7V571.7z
						 M475.4,571.7h4.7v4.7h-4.7V571.7z M499,571.7h4.7v4.7H499V571.7z M522.5,571.7h4.7v4.7h-4.7V571.7z M546,571.7h4.7v4.7H546
						V571.7z M569.5,571.7h4.7v4.7h-4.7V571.7z M593,571.7h4.7v4.7H593V571.7z M616.6,571.7h4.7v4.7h-4.7V571.7z M640.1,571.7h4.7
						v4.7h-4.7V571.7z M663.6,571.7h4.7v4.7h-4.7V571.7z M687.1,571.7h4.7v4.7h-4.7V571.7z M710.6,571.7h4.7v4.7h-4.7V571.7z
						 M734.2,571.7h4.7v4.7h-4.7V571.7z M757.7,571.7h4.7v4.7h-4.7V571.7z M428.4,595.2h4.7v4.7h-4.7V595.2z M451.9,595.2h4.7v4.7
						h-4.7V595.2z M475.4,595.2h4.7v4.7h-4.7V595.2z M499,595.2h4.7v4.7H499V595.2z M522.5,595.2h4.7v4.7h-4.7V595.2z M546,595.2
						h4.7v4.7H546V595.2z M569.5,595.2h4.7v4.7h-4.7V595.2z M593,595.2h4.7v4.7H593V595.2z M616.6,595.2h4.7v4.7h-4.7V595.2z
						 M640.1,595.2h4.7v4.7h-4.7V595.2z M663.6,595.2h4.7v4.7h-4.7V595.2z M687.1,595.2h4.7v4.7h-4.7V595.2z M710.6,595.2h4.7v4.7
						h-4.7V595.2z M734.2,595.2h4.7v4.7h-4.7V595.2z M757.7,595.2h4.7v4.7h-4.7V595.2z M428.4,618.8h4.7v4.7h-4.7V618.8z
						 M451.9,618.8h4.7v4.7h-4.7V618.8z M475.4,618.8h4.7v4.7h-4.7V618.8z M499,618.8h4.7v4.7H499V618.8z M522.5,618.8h4.7v4.7h-4.7
						V618.8z M546,618.8h4.7v4.7H546V618.8z M569.5,618.8h4.7v4.7h-4.7V618.8z M593,618.8h4.7v4.7H593V618.8z M616.6,618.8h4.7v4.7
						h-4.7V618.8z M640.1,618.8h4.7v4.7h-4.7V618.8z M663.6,618.8h4.7v4.7h-4.7V618.8z M687.1,618.8h4.7v4.7h-4.7V618.8z
						 M710.6,618.8h4.7v4.7h-4.7V618.8z M734.2,618.8h4.7v4.7h-4.7V618.8z M757.7,618.8h4.7v4.7h-4.7V618.8z"/>
					
						<linearGradient id="Combined-Shape-Copy_1_" gradientUnits="userSpaceOnUse" x1="1101.9316" y1="791.5944" x2="1102.9696" y2="792.2721" gradientTransform="matrix(0 450.4681 334 0 -263220.5938 -495653.4062)">
						<stop  offset="0" style="stop-color:#9AFF93"/>
						<stop  offset="1" style="stop-color:#28B655;stop-opacity:0.4929"/>
					</linearGradient>
					<path id="Combined-Shape-Copy" class="st6" d="M1145.4,786.5h-4.7v-4.7h4.7V786.5z M1121.9,786.5h-4.7v-4.7h4.7V786.5z
						 M1098.3,786.5h-4.7v-4.7h4.7V786.5z M1074.8,786.5h-4.7v-4.7h4.7V786.5z M1051.3,786.5h-4.7v-4.7h4.7V786.5z M1027.8,786.5
						h-4.7v-4.7h4.7V786.5z M1004.3,786.5h-4.7v-4.7h4.7V786.5z M980.7,786.5H976v-4.7h4.7V786.5z M957.2,786.5h-4.7v-4.7h4.7V786.5
						z M933.7,786.5H929v-4.7h4.7V786.5z M910.2,786.5h-4.7v-4.7h4.7V786.5z M886.7,786.5H882v-4.7h4.7V786.5z M863.1,786.5h-4.7
						v-4.7h4.7V786.5z M839.6,786.5h-4.7v-4.7h4.7V786.5z M816.1,786.5h-4.7v-4.7h4.7V786.5z M1145.4,762.9h-4.7v-4.7h4.7V762.9z
						 M1121.9,762.9h-4.7v-4.7h4.7V762.9z M1098.3,762.9h-4.7v-4.7h4.7V762.9z M1074.8,762.9h-4.7v-4.7h4.7V762.9z M1051.3,762.9
						h-4.7v-4.7h4.7V762.9z M1027.8,762.9h-4.7v-4.7h4.7V762.9z M1004.3,762.9h-4.7v-4.7h4.7V762.9z M980.7,762.9H976v-4.7h4.7
						V762.9z M957.2,762.9h-4.7v-4.7h4.7V762.9z M933.7,762.9H929v-4.7h4.7V762.9z M910.2,762.9h-4.7v-4.7h4.7V762.9z M886.7,762.9
						H882v-4.7h4.7V762.9z M863.1,762.9h-4.7v-4.7h4.7V762.9z M839.6,762.9h-4.7v-4.7h4.7V762.9z M816.1,762.9h-4.7v-4.7h4.7V762.9z
						 M1145.4,739.4h-4.7v-4.7h4.7V739.4z M1121.9,739.4h-4.7v-4.7h4.7V739.4z M1098.3,739.4h-4.7v-4.7h4.7V739.4z M1074.8,739.4
						h-4.7v-4.7h4.7V739.4z M1051.3,739.4h-4.7v-4.7h4.7V739.4z M1027.8,739.4h-4.7v-4.7h4.7V739.4z M1004.3,739.4h-4.7v-4.7h4.7
						V739.4z M980.7,739.4H976v-4.7h4.7V739.4z M957.2,739.4h-4.7v-4.7h4.7V739.4z M933.7,739.4H929v-4.7h4.7V739.4z M910.2,739.4
						h-4.7v-4.7h4.7V739.4z M886.7,739.4H882v-4.7h4.7V739.4z M863.1,739.4h-4.7v-4.7h4.7V739.4z M839.6,739.4h-4.7v-4.7h4.7V739.4z
						 M816.1,739.4h-4.7v-4.7h4.7V739.4z M1145.4,715.9h-4.7v-4.7h4.7V715.9z M1121.9,715.9h-4.7v-4.7h4.7V715.9z M1098.3,715.9
						h-4.7v-4.7h4.7V715.9z M1074.8,715.9h-4.7v-4.7h4.7V715.9z M1051.3,715.9h-4.7v-4.7h4.7V715.9z M1027.8,715.9h-4.7v-4.7h4.7
						V715.9z M1004.3,715.9h-4.7v-4.7h4.7V715.9z M980.7,715.9H976v-4.7h4.7V715.9z M957.2,715.9h-4.7v-4.7h4.7V715.9z M933.7,715.9
						H929v-4.7h4.7V715.9z M910.2,715.9h-4.7v-4.7h4.7V715.9z M886.7,715.9H882v-4.7h4.7V715.9z M863.1,715.9h-4.7v-4.7h4.7V715.9z
						 M839.6,715.9h-4.7v-4.7h4.7V715.9z M816.1,715.9h-4.7v-4.7h4.7V715.9z M1145.4,692.4h-4.7v-4.7h4.7V692.4z M1121.9,692.4h-4.7
						v-4.7h4.7V692.4z M1098.3,692.4h-4.7v-4.7h4.7V692.4z M1074.8,692.4h-4.7v-4.7h4.7V692.4z M1051.3,692.4h-4.7v-4.7h4.7V692.4z
						 M1027.8,692.4h-4.7v-4.7h4.7V692.4z M1004.3,692.4h-4.7v-4.7h4.7V692.4z M980.7,692.4H976v-4.7h4.7V692.4z M957.2,692.4h-4.7
						v-4.7h4.7V692.4z M933.7,692.4H929v-4.7h4.7V692.4z M910.2,692.4h-4.7v-4.7h4.7V692.4z M886.7,692.4H882v-4.7h4.7V692.4z
						 M863.1,692.4h-4.7v-4.7h4.7V692.4z M839.6,692.4h-4.7v-4.7h4.7V692.4z M816.1,692.4h-4.7v-4.7h4.7V692.4z M1145.4,668.9h-4.7
						v-4.7h4.7V668.9z M1121.9,668.9h-4.7v-4.7h4.7V668.9z M1098.3,668.9h-4.7v-4.7h4.7V668.9z M1074.8,668.9h-4.7v-4.7h4.7V668.9z
						 M1051.3,668.9h-4.7v-4.7h4.7V668.9z M1027.8,668.9h-4.7v-4.7h4.7V668.9z M1004.3,668.9h-4.7v-4.7h4.7V668.9z M980.7,668.9H976
						v-4.7h4.7V668.9z M957.2,668.9h-4.7v-4.7h4.7V668.9z M933.7,668.9H929v-4.7h4.7V668.9z M910.2,668.9h-4.7v-4.7h4.7V668.9z
						 M886.7,668.9H882v-4.7h4.7V668.9z M863.1,668.9h-4.7v-4.7h4.7V668.9z M839.6,668.9h-4.7v-4.7h4.7V668.9z M816.1,668.9h-4.7
						v-4.7h4.7V668.9z M1145.4,645.3h-4.7v-4.7h4.7V645.3z M1121.9,645.3h-4.7v-4.7h4.7V645.3z M1098.3,645.3h-4.7v-4.7h4.7V645.3z
						 M1074.8,645.3h-4.7v-4.7h4.7V645.3z M1051.3,645.3h-4.7v-4.7h4.7V645.3z M1027.8,645.3h-4.7v-4.7h4.7V645.3z M1004.3,645.3
						h-4.7v-4.7h4.7V645.3z M980.7,645.3H976v-4.7h4.7V645.3z M957.2,645.3h-4.7v-4.7h4.7V645.3z M933.7,645.3H929v-4.7h4.7V645.3z
						 M910.2,645.3h-4.7v-4.7h4.7V645.3z M886.7,645.3H882v-4.7h4.7V645.3z M863.1,645.3h-4.7v-4.7h4.7V645.3z M839.6,645.3h-4.7
						v-4.7h4.7V645.3z M816.1,645.3h-4.7v-4.7h4.7V645.3z M1145.4,621.8h-4.7v-4.7h4.7V621.8z M1121.9,621.8h-4.7v-4.7h4.7V621.8z
						 M1098.3,621.8h-4.7v-4.7h4.7V621.8z M1074.8,621.8h-4.7v-4.7h4.7V621.8z M1051.3,621.8h-4.7v-4.7h4.7V621.8z M1027.8,621.8
						h-4.7v-4.7h4.7V621.8z M1004.3,621.8h-4.7v-4.7h4.7V621.8z M980.7,621.8H976v-4.7h4.7V621.8z M957.2,621.8h-4.7v-4.7h4.7V621.8
						z M933.7,621.8H929v-4.7h4.7V621.8z M910.2,621.8h-4.7v-4.7h4.7V621.8z M886.7,621.8H882v-4.7h4.7V621.8z M863.1,621.8h-4.7
						v-4.7h4.7V621.8z M839.6,621.8h-4.7v-4.7h4.7V621.8z M816.1,621.8h-4.7v-4.7h4.7V621.8z M1145.4,598.3h-4.7v-4.7h4.7V598.3z
						 M1121.9,598.3h-4.7v-4.7h4.7V598.3z M1098.3,598.3h-4.7v-4.7h4.7V598.3z M1074.8,598.3h-4.7v-4.7h4.7V598.3z M1051.3,598.3
						h-4.7v-4.7h4.7V598.3z M1027.8,598.3h-4.7v-4.7h4.7V598.3z M1004.3,598.3h-4.7v-4.7h4.7V598.3z M980.7,598.3H976v-4.7h4.7
						V598.3z M957.2,598.3h-4.7v-4.7h4.7V598.3z M933.7,598.3H929v-4.7h4.7V598.3z M910.2,598.3h-4.7v-4.7h4.7V598.3z M886.7,598.3
						H882v-4.7h4.7V598.3z M863.1,598.3h-4.7v-4.7h4.7V598.3z M839.6,598.3h-4.7v-4.7h4.7V598.3z M816.1,598.3h-4.7v-4.7h4.7V598.3z
						 M1145.4,574.8h-4.7v-4.7h4.7V574.8z M1121.9,574.8h-4.7v-4.7h4.7V574.8z M1098.3,574.8h-4.7v-4.7h4.7V574.8z M1074.8,574.8
						h-4.7v-4.7h4.7V574.8z M1051.3,574.8h-4.7v-4.7h4.7V574.8z M1027.8,574.8h-4.7v-4.7h4.7V574.8z M1004.3,574.8h-4.7v-4.7h4.7
						V574.8z M980.7,574.8H976v-4.7h4.7V574.8z M957.2,574.8h-4.7v-4.7h4.7V574.8z M933.7,574.8H929v-4.7h4.7V574.8z M910.2,574.8
						h-4.7v-4.7h4.7V574.8z M886.7,574.8H882v-4.7h4.7V574.8z M863.1,574.8h-4.7v-4.7h4.7V574.8z M839.6,574.8h-4.7v-4.7h4.7V574.8z
						 M816.1,574.8h-4.7v-4.7h4.7V574.8z M1145.4,552.4h-4.7v-4.7h4.7V552.4z M1121.9,552.4h-4.7v-4.7h4.7V552.4z M1098.3,552.4
						h-4.7v-4.7h4.7V552.4z M1074.8,552.4h-4.7v-4.7h4.7V552.4z M1051.3,552.4h-4.7v-4.7h4.7V552.4z M1027.8,552.4h-4.7v-4.7h4.7
						V552.4z M1004.3,552.4h-4.7v-4.7h4.7V552.4z M980.7,552.4H976v-4.7h4.7V552.4z M957.2,552.4h-4.7v-4.7h4.7V552.4z M933.7,552.4
						H929v-4.7h4.7V552.4z M910.2,552.4h-4.7v-4.7h4.7V552.4z M886.7,552.4H882v-4.7h4.7V552.4z M863.1,552.4h-4.7v-4.7h4.7V552.4z
						 M839.6,552.4h-4.7v-4.7h4.7V552.4z M816.1,552.4h-4.7v-4.7h4.7V552.4z M1145.4,528.9h-4.7v-4.7h4.7V528.9z M1121.9,528.9h-4.7
						v-4.7h4.7V528.9z M1098.3,528.9h-4.7v-4.7h4.7V528.9z M1074.8,528.9h-4.7v-4.7h4.7V528.9z M1051.3,528.9h-4.7v-4.7h4.7V528.9z
						 M1027.8,528.9h-4.7v-4.7h4.7V528.9z M1004.3,528.9h-4.7v-4.7h4.7V528.9z M980.7,528.9H976v-4.7h4.7V528.9z M957.2,528.9h-4.7
						v-4.7h4.7V528.9z M933.7,528.9H929v-4.7h4.7V528.9z M910.2,528.9h-4.7v-4.7h4.7V528.9z M886.7,528.9H882v-4.7h4.7V528.9z
						 M863.1,528.9h-4.7v-4.7h4.7V528.9z M839.6,528.9h-4.7v-4.7h4.7V528.9z M816.1,528.9h-4.7v-4.7h4.7V528.9z M1145.4,505.4h-4.7
						v-4.7h4.7V505.4z M1121.9,505.4h-4.7v-4.7h4.7V505.4z M1098.3,505.4h-4.7v-4.7h4.7V505.4z M1074.8,505.4h-4.7v-4.7h4.7V505.4z
						 M1051.3,505.4h-4.7v-4.7h4.7V505.4z M1027.8,505.4h-4.7v-4.7h4.7V505.4z M1004.3,505.4h-4.7v-4.7h4.7V505.4z M980.7,505.4H976
						v-4.7h4.7V505.4z M957.2,505.4h-4.7v-4.7h4.7V505.4z M933.7,505.4H929v-4.7h4.7V505.4z M910.2,505.4h-4.7v-4.7h4.7V505.4z
						 M886.7,505.4H882v-4.7h4.7V505.4z M863.1,505.4h-4.7v-4.7h4.7V505.4z M839.6,505.4h-4.7v-4.7h4.7V505.4z M816.1,505.4h-4.7
						v-4.7h4.7V505.4z M1145.4,481.8h-4.7v-4.7h4.7V481.8z M1121.9,481.8h-4.7v-4.7h4.7V481.8z M1098.3,481.8h-4.7v-4.7h4.7V481.8z
						 M1074.8,481.8h-4.7v-4.7h4.7V481.8z M1051.3,481.8h-4.7v-4.7h4.7V481.8z M1027.8,481.8h-4.7v-4.7h4.7V481.8z M1004.3,481.8
						h-4.7v-4.7h4.7V481.8z M980.7,481.8H976v-4.7h4.7V481.8z M957.2,481.8h-4.7v-4.7h4.7V481.8z M933.7,481.8H929v-4.7h4.7V481.8z
						 M910.2,481.8h-4.7v-4.7h4.7V481.8z M886.7,481.8H882v-4.7h4.7V481.8z M863.1,481.8h-4.7v-4.7h4.7V481.8z M839.6,481.8h-4.7
						v-4.7h4.7V481.8z M816.1,481.8h-4.7v-4.7h4.7V481.8z M1145.4,458.3h-4.7v-4.7h4.7V458.3z M1121.9,458.3h-4.7v-4.7h4.7V458.3z
						 M1098.3,458.3h-4.7v-4.7h4.7V458.3z M1074.8,458.3h-4.7v-4.7h4.7V458.3z M1051.3,458.3h-4.7v-4.7h4.7V458.3z M1027.8,458.3
						h-4.7v-4.7h4.7V458.3z M1004.3,458.3h-4.7v-4.7h4.7V458.3z M980.7,458.3H976v-4.7h4.7V458.3z M957.2,458.3h-4.7v-4.7h4.7V458.3
						z M933.7,458.3H929v-4.7h4.7V458.3z M910.2,458.3h-4.7v-4.7h4.7V458.3z M886.7,458.3H882v-4.7h4.7V458.3z M863.1,458.3h-4.7
						v-4.7h4.7V458.3z M839.6,458.3h-4.7v-4.7h4.7V458.3z M816.1,458.3h-4.7v-4.7h4.7V458.3z M1145.4,434.8h-4.7v-4.7h4.7V434.8z
						 M1121.9,434.8h-4.7v-4.7h4.7V434.8z M1098.3,434.8h-4.7v-4.7h4.7V434.8z M1074.8,434.8h-4.7v-4.7h4.7V434.8z M1051.3,434.8
						h-4.7v-4.7h4.7V434.8z M1027.8,434.8h-4.7v-4.7h4.7V434.8z M1004.3,434.8h-4.7v-4.7h4.7V434.8z M980.7,434.8H976v-4.7h4.7
						V434.8z M957.2,434.8h-4.7v-4.7h4.7V434.8z M933.7,434.8H929v-4.7h4.7V434.8z M910.2,434.8h-4.7v-4.7h4.7V434.8z M886.7,434.8
						H882v-4.7h4.7V434.8z M863.1,434.8h-4.7v-4.7h4.7V434.8z M839.6,434.8h-4.7v-4.7h4.7V434.8z M816.1,434.8h-4.7v-4.7h4.7V434.8z
						 M1145.4,411.3h-4.7v-4.7h4.7V411.3z M1121.9,411.3h-4.7v-4.7h4.7V411.3z M1098.3,411.3h-4.7v-4.7h4.7V411.3z M1074.8,411.3
						h-4.7v-4.7h4.7V411.3z M1051.3,411.3h-4.7v-4.7h4.7V411.3z M1027.8,411.3h-4.7v-4.7h4.7V411.3z M1004.3,411.3h-4.7v-4.7h4.7
						V411.3z M980.7,411.3H976v-4.7h4.7V411.3z M957.2,411.3h-4.7v-4.7h4.7V411.3z M933.7,411.3H929v-4.7h4.7V411.3z M910.2,411.3
						h-4.7v-4.7h4.7V411.3z M886.7,411.3H882v-4.7h4.7V411.3z M863.1,411.3h-4.7v-4.7h4.7V411.3z M839.6,411.3h-4.7v-4.7h4.7V411.3z
						 M816.1,411.3h-4.7v-4.7h4.7V411.3z M1145.4,387.7h-4.7V383h4.7V387.7z M1121.9,387.7h-4.7V383h4.7V387.7z M1098.3,387.7h-4.7
						V383h4.7V387.7z M1074.8,387.7h-4.7V383h4.7V387.7z M1051.3,387.7h-4.7V383h4.7V387.7z M1027.8,387.7h-4.7V383h4.7V387.7z
						 M1004.3,387.7h-4.7V383h4.7V387.7z M980.7,387.7H976V383h4.7V387.7z M957.2,387.7h-4.7V383h4.7V387.7z M933.7,387.7H929V383
						h4.7V387.7z M910.2,387.7h-4.7V383h4.7V387.7z M886.7,387.7H882V383h4.7V387.7z M863.1,387.7h-4.7V383h4.7V387.7z M839.6,387.7
						h-4.7V383h4.7V387.7z M816.1,387.7h-4.7V383h4.7V387.7z M1145.4,364.2h-4.7v-4.7h4.7V364.2z M1121.9,364.2h-4.7v-4.7h4.7V364.2
						z M1098.3,364.2h-4.7v-4.7h4.7V364.2z M1074.8,364.2h-4.7v-4.7h4.7V364.2z M1051.3,364.2h-4.7v-4.7h4.7V364.2z M1027.8,364.2
						h-4.7v-4.7h4.7V364.2z M1004.3,364.2h-4.7v-4.7h4.7V364.2z M980.7,364.2H976v-4.7h4.7V364.2z M957.2,364.2h-4.7v-4.7h4.7V364.2
						z M933.7,364.2H929v-4.7h4.7V364.2z M910.2,364.2h-4.7v-4.7h4.7V364.2z M886.7,364.2H882v-4.7h4.7V364.2z M863.1,364.2h-4.7
						v-4.7h4.7V364.2z M839.6,364.2h-4.7v-4.7h4.7V364.2z M816.1,364.2h-4.7v-4.7h4.7V364.2z M1145.4,340.7h-4.7V336h4.7V340.7z
						 M1121.9,340.7h-4.7V336h4.7V340.7z M1098.3,340.7h-4.7V336h4.7V340.7z M1074.8,340.7h-4.7V336h4.7V340.7z M1051.3,340.7h-4.7
						V336h4.7V340.7z M1027.8,340.7h-4.7V336h4.7V340.7z M1004.3,340.7h-4.7V336h4.7V340.7z M980.7,340.7H976V336h4.7V340.7z
						 M957.2,340.7h-4.7V336h4.7V340.7z M933.7,340.7H929V336h4.7V340.7z M910.2,340.7h-4.7V336h4.7V340.7z M886.7,340.7H882V336
						h4.7V340.7z M863.1,340.7h-4.7V336h4.7V340.7z M839.6,340.7h-4.7V336h4.7V340.7z M816.1,340.7h-4.7V336h4.7V340.7z"/>
					<polyline id="Path" class="st7" points="1407.6,222.7 1094.7,42 866.4,174.7 1179.3,355.4 1407.6,222.7 					"/>
					<polyline id="Path_1_" class="st8" points="1407.6,180.7 1094.7,0 866.4,132.7 1179.3,313.4 1407.6,180.7 					"/>
					
						<linearGradient id="Path_1_1_" gradientUnits="userSpaceOnUse" x1="1101.8427" y1="791.1859" x2="1102.1722" y2="791.7474" gradientTransform="matrix(0 549 676.1208 0 -534649.5625 -604176)">
						<stop  offset="0" style="stop-color:#75DB4F;stop-opacity:0"/>
						<stop  offset="1" style="stop-color:#75DB4F"/>
					</linearGradient>
					<polygon id="Path_1" class="st9" points="676.1,846 460.9,846 338.1,637.9 215.2,846 0,846 338.1,297 					"/>
				</g>
			</g>
		</g>
	</g>
</g>
</svg>
