<?xml version="1.0" encoding="UTF-8"?>
<svg width="1440px" height="690px" viewBox="0 0 1440 690" version="1.1" xmlns="http://www.w3.org/2000/svg" xmlns:xlink="http://www.w3.org/1999/xlink">
    <!-- Generator: Sketch 52.5 (67469) - http://www.bohemiancoding.com/sketch -->
    <title>Mid - Background</title>
    <desc>Created with Sketch.</desc>
    <defs>
        <linearGradient x1="100%" y1="50%" x2="0%" y2="50%" id="linearGradient-1">
            <stop stop-color="#0069DE" offset="0%"></stop>
            <stop stop-color="#008AFF" offset="100%"></stop>
        </linearGradient>
        <rect id="path-2" x="0" y="0" width="1440" height="690"></rect>
        <linearGradient x1="17.0342099%" y1="43.8389186%" x2="50%" y2="100%" id="linearGradient-4">
            <stop stop-color="#0069DE" stop-opacity="0.668931159" offset="0%"></stop>
            <stop stop-color="#008AFF" stop-opacity="0.181244339" offset="100%"></stop>
        </linearGradient>
        <linearGradient x1="0%" y1="20.6859385%" x2="98.4894328%" y2="98.8019078%" id="linearGradient-5">
            <stop stop-color="#2E86E9" offset="0%"></stop>
            <stop stop-color="#008AFF" stop-opacity="0.7" offset="100%"></stop>
        </linearGradient>
        <linearGradient x1="0%" y1="20.6859385%" x2="98.4894328%" y2="98.8019078%" id="linearGradient-6">
            <stop stop-color="#0069DE" offset="0%"></stop>
            <stop stop-color="#0069E1" stop-opacity="0.4" offset="100%"></stop>
        </linearGradient>
        <polygon id="path-7" points="215.023947 27 -1.56486352e-12 162.920621 266.176053 313.537472 481.2 177.616851"></polygon>
        <filter x="-2.4%" y="-4.0%" width="104.8%" height="115.1%" filterUnits="objectBoundingBox" id="filter-8">
            <feMorphology radius="8" operator="erode" in="SourceAlpha" result="shadowSpreadOuter1"></feMorphology>
            <feOffset dx="0" dy="15" in="shadowSpreadOuter1" result="shadowOffsetOuter1"></feOffset>
            <feGaussianBlur stdDeviation="12" in="shadowOffsetOuter1" result="shadowBlurOuter1"></feGaussianBlur>
            <feColorMatrix values="0 0 0 0 0   0 0 0 0 0.411764706   0 0 0 0 0.870588235  0 0 0 0.5 0" type="matrix" in="shadowBlurOuter1"></feColorMatrix>
        </filter>
        <polygon id="path-9" points="215.023947 -8.52651283e-14 -1.84908061e-12 135.920621 266.176053 286.537472 481.2 150.616851"></polygon>
        <filter x="-2.4%" y="-4.0%" width="104.8%" height="115.1%" filterUnits="objectBoundingBox" id="filter-10">
            <feMorphology radius="8" operator="erode" in="SourceAlpha" result="shadowSpreadOuter1"></feMorphology>
            <feOffset dx="0" dy="15" in="shadowSpreadOuter1" result="shadowOffsetOuter1"></feOffset>
            <feGaussianBlur stdDeviation="12" in="shadowOffsetOuter1" result="shadowBlurOuter1"></feGaussianBlur>
            <feColorMatrix values="0 0 0 0 0   0 0 0 0 0.411764706   0 0 0 0 0.870588235  0 0 0 0.5 0" type="matrix" in="shadowBlurOuter1"></feColorMatrix>
        </filter>
    </defs>
    <g id="Desktop" stroke="none" stroke-width="1" fill="none" fill-rule="evenodd">
        <g id="Mid---Background">
            <mask id="mask-3" fill="white">
                <use xlink:href="#path-2"></use>
            </mask>
            <use id="Rectangle" fill="url(#linearGradient-1)" fill-rule="nonzero" transform="translate(720.000000, 345.000000) scale(-1, 1) translate(-720.000000, -345.000000) " xlink:href="#path-2"></use>
            <g id="Group-31" mask="url(#mask-3)">
                <g transform="translate(-280.000000, -72.000000)">
                    <polygon id="Path_1" fill="url(#linearGradient-4)" fill-rule="evenodd" transform="translate(338.060438, 606.500000) rotate(-180.000000) translate(-338.060438, -606.500000) " points="2.27373675e-13 332 215.234762 332 338.067297 540.09845 460.899833 332 676.120875 332 338.067297 881"></polygon>
                    <path d="M350,102 L353.43662,102 L353.43662,105.43662 L350,105.43662 L350,102 Z M367.183099,102 L370.619718,102 L370.619718,105.43662 L367.183099,105.43662 L367.183099,102 Z M384.366197,102 L387.802817,102 L387.802817,105.43662 L384.366197,105.43662 L384.366197,102 Z M401.549296,102 L404.985915,102 L404.985915,105.43662 L401.549296,105.43662 L401.549296,102 Z M418.732394,102 L422.169014,102 L422.169014,105.43662 L418.732394,105.43662 L418.732394,102 Z M435.915493,102 L439.352113,102 L439.352113,105.43662 L435.915493,105.43662 L435.915493,102 Z M453.098592,102 L456.535211,102 L456.535211,105.43662 L453.098592,105.43662 L453.098592,102 Z M470.28169,102 L473.71831,102 L473.71831,105.43662 L470.28169,105.43662 L470.28169,102 Z M487.464789,102 L490.901408,102 L490.901408,105.43662 L487.464789,105.43662 L487.464789,102 Z M504.647887,102 L508.084507,102 L508.084507,105.43662 L504.647887,105.43662 L504.647887,102 Z M521.830986,102 L525.267606,102 L525.267606,105.43662 L521.830986,105.43662 L521.830986,102 Z M539.014085,102 L542.450704,102 L542.450704,105.43662 L539.014085,105.43662 L539.014085,102 Z M556.197183,102 L559.633803,102 L559.633803,105.43662 L556.197183,105.43662 L556.197183,102 Z M573.380282,102 L576.816901,102 L576.816901,105.43662 L573.380282,105.43662 L573.380282,102 Z M590.56338,102 L594,102 L594,105.43662 L590.56338,105.43662 L590.56338,102 Z M350,119.183099 L353.43662,119.183099 L353.43662,122.619718 L350,122.619718 L350,119.183099 Z M367.183099,119.183099 L370.619718,119.183099 L370.619718,122.619718 L367.183099,122.619718 L367.183099,119.183099 Z M384.366197,119.183099 L387.802817,119.183099 L387.802817,122.619718 L384.366197,122.619718 L384.366197,119.183099 Z M401.549296,119.183099 L404.985915,119.183099 L404.985915,122.619718 L401.549296,122.619718 L401.549296,119.183099 Z M418.732394,119.183099 L422.169014,119.183099 L422.169014,122.619718 L418.732394,122.619718 L418.732394,119.183099 Z M435.915493,119.183099 L439.352113,119.183099 L439.352113,122.619718 L435.915493,122.619718 L435.915493,119.183099 Z M453.098592,119.183099 L456.535211,119.183099 L456.535211,122.619718 L453.098592,122.619718 L453.098592,119.183099 Z M470.28169,119.183099 L473.71831,119.183099 L473.71831,122.619718 L470.28169,122.619718 L470.28169,119.183099 Z M487.464789,119.183099 L490.901408,119.183099 L490.901408,122.619718 L487.464789,122.619718 L487.464789,119.183099 Z M504.647887,119.183099 L508.084507,119.183099 L508.084507,122.619718 L504.647887,122.619718 L504.647887,119.183099 Z M521.830986,119.183099 L525.267606,119.183099 L525.267606,122.619718 L521.830986,122.619718 L521.830986,119.183099 Z M539.014085,119.183099 L542.450704,119.183099 L542.450704,122.619718 L539.014085,122.619718 L539.014085,119.183099 Z M556.197183,119.183099 L559.633803,119.183099 L559.633803,122.619718 L556.197183,122.619718 L556.197183,119.183099 Z M573.380282,119.183099 L576.816901,119.183099 L576.816901,122.619718 L573.380282,122.619718 L573.380282,119.183099 Z M590.56338,119.183099 L594,119.183099 L594,122.619718 L590.56338,122.619718 L590.56338,119.183099 Z M350,136.366197 L353.43662,136.366197 L353.43662,139.802817 L350,139.802817 L350,136.366197 Z M367.183099,136.366197 L370.619718,136.366197 L370.619718,139.802817 L367.183099,139.802817 L367.183099,136.366197 Z M384.366197,136.366197 L387.802817,136.366197 L387.802817,139.802817 L384.366197,139.802817 L384.366197,136.366197 Z M401.549296,136.366197 L404.985915,136.366197 L404.985915,139.802817 L401.549296,139.802817 L401.549296,136.366197 Z M418.732394,136.366197 L422.169014,136.366197 L422.169014,139.802817 L418.732394,139.802817 L418.732394,136.366197 Z M435.915493,136.366197 L439.352113,136.366197 L439.352113,139.802817 L435.915493,139.802817 L435.915493,136.366197 Z M453.098592,136.366197 L456.535211,136.366197 L456.535211,139.802817 L453.098592,139.802817 L453.098592,136.366197 Z M470.28169,136.366197 L473.71831,136.366197 L473.71831,139.802817 L470.28169,139.802817 L470.28169,136.366197 Z M487.464789,136.366197 L490.901408,136.366197 L490.901408,139.802817 L487.464789,139.802817 L487.464789,136.366197 Z M504.647887,136.366197 L508.084507,136.366197 L508.084507,139.802817 L504.647887,139.802817 L504.647887,136.366197 Z M521.830986,136.366197 L525.267606,136.366197 L525.267606,139.802817 L521.830986,139.802817 L521.830986,136.366197 Z M539.014085,136.366197 L542.450704,136.366197 L542.450704,139.802817 L539.014085,139.802817 L539.014085,136.366197 Z M556.197183,136.366197 L559.633803,136.366197 L559.633803,139.802817 L556.197183,139.802817 L556.197183,136.366197 Z M573.380282,136.366197 L576.816901,136.366197 L576.816901,139.802817 L573.380282,139.802817 L573.380282,136.366197 Z M590.56338,136.366197 L594,136.366197 L594,139.802817 L590.56338,139.802817 L590.56338,136.366197 Z M350,153.549296 L353.43662,153.549296 L353.43662,156.985915 L350,156.985915 L350,153.549296 Z M367.183099,153.549296 L370.619718,153.549296 L370.619718,156.985915 L367.183099,156.985915 L367.183099,153.549296 Z M384.366197,153.549296 L387.802817,153.549296 L387.802817,156.985915 L384.366197,156.985915 L384.366197,153.549296 Z M401.549296,153.549296 L404.985915,153.549296 L404.985915,156.985915 L401.549296,156.985915 L401.549296,153.549296 Z M418.732394,153.549296 L422.169014,153.549296 L422.169014,156.985915 L418.732394,156.985915 L418.732394,153.549296 Z M435.915493,153.549296 L439.352113,153.549296 L439.352113,156.985915 L435.915493,156.985915 L435.915493,153.549296 Z M453.098592,153.549296 L456.535211,153.549296 L456.535211,156.985915 L453.098592,156.985915 L453.098592,153.549296 Z M470.28169,153.549296 L473.71831,153.549296 L473.71831,156.985915 L470.28169,156.985915 L470.28169,153.549296 Z M487.464789,153.549296 L490.901408,153.549296 L490.901408,156.985915 L487.464789,156.985915 L487.464789,153.549296 Z M504.647887,153.549296 L508.084507,153.549296 L508.084507,156.985915 L504.647887,156.985915 L504.647887,153.549296 Z M521.830986,153.549296 L525.267606,153.549296 L525.267606,156.985915 L521.830986,156.985915 L521.830986,153.549296 Z M539.014085,153.549296 L542.450704,153.549296 L542.450704,156.985915 L539.014085,156.985915 L539.014085,153.549296 Z M556.197183,153.549296 L559.633803,153.549296 L559.633803,156.985915 L556.197183,156.985915 L556.197183,153.549296 Z M573.380282,153.549296 L576.816901,153.549296 L576.816901,156.985915 L573.380282,156.985915 L573.380282,153.549296 Z M590.56338,153.549296 L594,153.549296 L594,156.985915 L590.56338,156.985915 L590.56338,153.549296 Z M350,170.732394 L353.43662,170.732394 L353.43662,174.169014 L350,174.169014 L350,170.732394 Z M367.183099,170.732394 L370.619718,170.732394 L370.619718,174.169014 L367.183099,174.169014 L367.183099,170.732394 Z M384.366197,170.732394 L387.802817,170.732394 L387.802817,174.169014 L384.366197,174.169014 L384.366197,170.732394 Z M401.549296,170.732394 L404.985915,170.732394 L404.985915,174.169014 L401.549296,174.169014 L401.549296,170.732394 Z M418.732394,170.732394 L422.169014,170.732394 L422.169014,174.169014 L418.732394,174.169014 L418.732394,170.732394 Z M435.915493,170.732394 L439.352113,170.732394 L439.352113,174.169014 L435.915493,174.169014 L435.915493,170.732394 Z M453.098592,170.732394 L456.535211,170.732394 L456.535211,174.169014 L453.098592,174.169014 L453.098592,170.732394 Z M470.28169,170.732394 L473.71831,170.732394 L473.71831,174.169014 L470.28169,174.169014 L470.28169,170.732394 Z M487.464789,170.732394 L490.901408,170.732394 L490.901408,174.169014 L487.464789,174.169014 L487.464789,170.732394 Z M504.647887,170.732394 L508.084507,170.732394 L508.084507,174.169014 L504.647887,174.169014 L504.647887,170.732394 Z M521.830986,170.732394 L525.267606,170.732394 L525.267606,174.169014 L521.830986,174.169014 L521.830986,170.732394 Z M539.014085,170.732394 L542.450704,170.732394 L542.450704,174.169014 L539.014085,174.169014 L539.014085,170.732394 Z M556.197183,170.732394 L559.633803,170.732394 L559.633803,174.169014 L556.197183,174.169014 L556.197183,170.732394 Z M573.380282,170.732394 L576.816901,170.732394 L576.816901,174.169014 L573.380282,174.169014 L573.380282,170.732394 Z M590.56338,170.732394 L594,170.732394 L594,174.169014 L590.56338,174.169014 L590.56338,170.732394 Z M350,187.915493 L353.43662,187.915493 L353.43662,191.352113 L350,191.352113 L350,187.915493 Z M367.183099,187.915493 L370.619718,187.915493 L370.619718,191.352113 L367.183099,191.352113 L367.183099,187.915493 Z M384.366197,187.915493 L387.802817,187.915493 L387.802817,191.352113 L384.366197,191.352113 L384.366197,187.915493 Z M401.549296,187.915493 L404.985915,187.915493 L404.985915,191.352113 L401.549296,191.352113 L401.549296,187.915493 Z M418.732394,187.915493 L422.169014,187.915493 L422.169014,191.352113 L418.732394,191.352113 L418.732394,187.915493 Z M435.915493,187.915493 L439.352113,187.915493 L439.352113,191.352113 L435.915493,191.352113 L435.915493,187.915493 Z M453.098592,187.915493 L456.535211,187.915493 L456.535211,191.352113 L453.098592,191.352113 L453.098592,187.915493 Z M470.28169,187.915493 L473.71831,187.915493 L473.71831,191.352113 L470.28169,191.352113 L470.28169,187.915493 Z M487.464789,187.915493 L490.901408,187.915493 L490.901408,191.352113 L487.464789,191.352113 L487.464789,187.915493 Z M504.647887,187.915493 L508.084507,187.915493 L508.084507,191.352113 L504.647887,191.352113 L504.647887,187.915493 Z M521.830986,187.915493 L525.267606,187.915493 L525.267606,191.352113 L521.830986,191.352113 L521.830986,187.915493 Z M539.014085,187.915493 L542.450704,187.915493 L542.450704,191.352113 L539.014085,191.352113 L539.014085,187.915493 Z M556.197183,187.915493 L559.633803,187.915493 L559.633803,191.352113 L556.197183,191.352113 L556.197183,187.915493 Z M573.380282,187.915493 L576.816901,187.915493 L576.816901,191.352113 L573.380282,191.352113 L573.380282,187.915493 Z M590.56338,187.915493 L594,187.915493 L594,191.352113 L590.56338,191.352113 L590.56338,187.915493 Z M350,205.098592 L353.43662,205.098592 L353.43662,208.535211 L350,208.535211 L350,205.098592 Z M367.183099,205.098592 L370.619718,205.098592 L370.619718,208.535211 L367.183099,208.535211 L367.183099,205.098592 Z M384.366197,205.098592 L387.802817,205.098592 L387.802817,208.535211 L384.366197,208.535211 L384.366197,205.098592 Z M401.549296,205.098592 L404.985915,205.098592 L404.985915,208.535211 L401.549296,208.535211 L401.549296,205.098592 Z M418.732394,205.098592 L422.169014,205.098592 L422.169014,208.535211 L418.732394,208.535211 L418.732394,205.098592 Z M435.915493,205.098592 L439.352113,205.098592 L439.352113,208.535211 L435.915493,208.535211 L435.915493,205.098592 Z M453.098592,205.098592 L456.535211,205.098592 L456.535211,208.535211 L453.098592,208.535211 L453.098592,205.098592 Z M470.28169,205.098592 L473.71831,205.098592 L473.71831,208.535211 L470.28169,208.535211 L470.28169,205.098592 Z M487.464789,205.098592 L490.901408,205.098592 L490.901408,208.535211 L487.464789,208.535211 L487.464789,205.098592 Z M504.647887,205.098592 L508.084507,205.098592 L508.084507,208.535211 L504.647887,208.535211 L504.647887,205.098592 Z M521.830986,205.098592 L525.267606,205.098592 L525.267606,208.535211 L521.830986,208.535211 L521.830986,205.098592 Z M539.014085,205.098592 L542.450704,205.098592 L542.450704,208.535211 L539.014085,208.535211 L539.014085,205.098592 Z M556.197183,205.098592 L559.633803,205.098592 L559.633803,208.535211 L556.197183,208.535211 L556.197183,205.098592 Z M573.380282,205.098592 L576.816901,205.098592 L576.816901,208.535211 L573.380282,208.535211 L573.380282,205.098592 Z M590.56338,205.098592 L594,205.098592 L594,208.535211 L590.56338,208.535211 L590.56338,205.098592 Z M350,222.28169 L353.43662,222.28169 L353.43662,225.71831 L350,225.71831 L350,222.28169 Z M367.183099,222.28169 L370.619718,222.28169 L370.619718,225.71831 L367.183099,225.71831 L367.183099,222.28169 Z M384.366197,222.28169 L387.802817,222.28169 L387.802817,225.71831 L384.366197,225.71831 L384.366197,222.28169 Z M401.549296,222.28169 L404.985915,222.28169 L404.985915,225.71831 L401.549296,225.71831 L401.549296,222.28169 Z M418.732394,222.28169 L422.169014,222.28169 L422.169014,225.71831 L418.732394,225.71831 L418.732394,222.28169 Z M435.915493,222.28169 L439.352113,222.28169 L439.352113,225.71831 L435.915493,225.71831 L435.915493,222.28169 Z M453.098592,222.28169 L456.535211,222.28169 L456.535211,225.71831 L453.098592,225.71831 L453.098592,222.28169 Z M470.28169,222.28169 L473.71831,222.28169 L473.71831,225.71831 L470.28169,225.71831 L470.28169,222.28169 Z M487.464789,222.28169 L490.901408,222.28169 L490.901408,225.71831 L487.464789,225.71831 L487.464789,222.28169 Z M504.647887,222.28169 L508.084507,222.28169 L508.084507,225.71831 L504.647887,225.71831 L504.647887,222.28169 Z M521.830986,222.28169 L525.267606,222.28169 L525.267606,225.71831 L521.830986,225.71831 L521.830986,222.28169 Z M539.014085,222.28169 L542.450704,222.28169 L542.450704,225.71831 L539.014085,225.71831 L539.014085,222.28169 Z M556.197183,222.28169 L559.633803,222.28169 L559.633803,225.71831 L556.197183,225.71831 L556.197183,222.28169 Z M573.380282,222.28169 L576.816901,222.28169 L576.816901,225.71831 L573.380282,225.71831 L573.380282,222.28169 Z M590.56338,222.28169 L594,222.28169 L594,225.71831 L590.56338,225.71831 L590.56338,222.28169 Z M350,239.464789 L353.43662,239.464789 L353.43662,242.901408 L350,242.901408 L350,239.464789 Z M367.183099,239.464789 L370.619718,239.464789 L370.619718,242.901408 L367.183099,242.901408 L367.183099,239.464789 Z M384.366197,239.464789 L387.802817,239.464789 L387.802817,242.901408 L384.366197,242.901408 L384.366197,239.464789 Z M401.549296,239.464789 L404.985915,239.464789 L404.985915,242.901408 L401.549296,242.901408 L401.549296,239.464789 Z M418.732394,239.464789 L422.169014,239.464789 L422.169014,242.901408 L418.732394,242.901408 L418.732394,239.464789 Z M435.915493,239.464789 L439.352113,239.464789 L439.352113,242.901408 L435.915493,242.901408 L435.915493,239.464789 Z M453.098592,239.464789 L456.535211,239.464789 L456.535211,242.901408 L453.098592,242.901408 L453.098592,239.464789 Z M470.28169,239.464789 L473.71831,239.464789 L473.71831,242.901408 L470.28169,242.901408 L470.28169,239.464789 Z M487.464789,239.464789 L490.901408,239.464789 L490.901408,242.901408 L487.464789,242.901408 L487.464789,239.464789 Z M504.647887,239.464789 L508.084507,239.464789 L508.084507,242.901408 L504.647887,242.901408 L504.647887,239.464789 Z M521.830986,239.464789 L525.267606,239.464789 L525.267606,242.901408 L521.830986,242.901408 L521.830986,239.464789 Z M539.014085,239.464789 L542.450704,239.464789 L542.450704,242.901408 L539.014085,242.901408 L539.014085,239.464789 Z M556.197183,239.464789 L559.633803,239.464789 L559.633803,242.901408 L556.197183,242.901408 L556.197183,239.464789 Z M573.380282,239.464789 L576.816901,239.464789 L576.816901,242.901408 L573.380282,242.901408 L573.380282,239.464789 Z M590.56338,239.464789 L594,239.464789 L594,242.901408 L590.56338,242.901408 L590.56338,239.464789 Z M350,256.647887 L353.43662,256.647887 L353.43662,260.084507 L350,260.084507 L350,256.647887 Z M367.183099,256.647887 L370.619718,256.647887 L370.619718,260.084507 L367.183099,260.084507 L367.183099,256.647887 Z M384.366197,256.647887 L387.802817,256.647887 L387.802817,260.084507 L384.366197,260.084507 L384.366197,256.647887 Z M401.549296,256.647887 L404.985915,256.647887 L404.985915,260.084507 L401.549296,260.084507 L401.549296,256.647887 Z M418.732394,256.647887 L422.169014,256.647887 L422.169014,260.084507 L418.732394,260.084507 L418.732394,256.647887 Z M435.915493,256.647887 L439.352113,256.647887 L439.352113,260.084507 L435.915493,260.084507 L435.915493,256.647887 Z M453.098592,256.647887 L456.535211,256.647887 L456.535211,260.084507 L453.098592,260.084507 L453.098592,256.647887 Z M470.28169,256.647887 L473.71831,256.647887 L473.71831,260.084507 L470.28169,260.084507 L470.28169,256.647887 Z M487.464789,256.647887 L490.901408,256.647887 L490.901408,260.084507 L487.464789,260.084507 L487.464789,256.647887 Z M504.647887,256.647887 L508.084507,256.647887 L508.084507,260.084507 L504.647887,260.084507 L504.647887,256.647887 Z M521.830986,256.647887 L525.267606,256.647887 L525.267606,260.084507 L521.830986,260.084507 L521.830986,256.647887 Z M539.014085,256.647887 L542.450704,256.647887 L542.450704,260.084507 L539.014085,260.084507 L539.014085,256.647887 Z M556.197183,256.647887 L559.633803,256.647887 L559.633803,260.084507 L556.197183,260.084507 L556.197183,256.647887 Z M573.380282,256.647887 L576.816901,256.647887 L576.816901,260.084507 L573.380282,260.084507 L573.380282,256.647887 Z M590.56338,256.647887 L594,256.647887 L594,260.084507 L590.56338,260.084507 L590.56338,256.647887 Z M350,273 L353.43662,273 L353.43662,276.43662 L350,276.43662 L350,273 Z M367.183099,273 L370.619718,273 L370.619718,276.43662 L367.183099,276.43662 L367.183099,273 Z M384.366197,273 L387.802817,273 L387.802817,276.43662 L384.366197,276.43662 L384.366197,273 Z M401.549296,273 L404.985915,273 L404.985915,276.43662 L401.549296,276.43662 L401.549296,273 Z M418.732394,273 L422.169014,273 L422.169014,276.43662 L418.732394,276.43662 L418.732394,273 Z M435.915493,273 L439.352113,273 L439.352113,276.43662 L435.915493,276.43662 L435.915493,273 Z M453.098592,273 L456.535211,273 L456.535211,276.43662 L453.098592,276.43662 L453.098592,273 Z M470.28169,273 L473.71831,273 L473.71831,276.43662 L470.28169,276.43662 L470.28169,273 Z M487.464789,273 L490.901408,273 L490.901408,276.43662 L487.464789,276.43662 L487.464789,273 Z M504.647887,273 L508.084507,273 L508.084507,276.43662 L504.647887,276.43662 L504.647887,273 Z M521.830986,273 L525.267606,273 L525.267606,276.43662 L521.830986,276.43662 L521.830986,273 Z M539.014085,273 L542.450704,273 L542.450704,276.43662 L539.014085,276.43662 L539.014085,273 Z M556.197183,273 L559.633803,273 L559.633803,276.43662 L556.197183,276.43662 L556.197183,273 Z M573.380282,273 L576.816901,273 L576.816901,276.43662 L573.380282,276.43662 L573.380282,273 Z M590.56338,273 L594,273 L594,276.43662 L590.56338,276.43662 L590.56338,273 Z M350,290.183099 L353.43662,290.183099 L353.43662,293.619718 L350,293.619718 L350,290.183099 Z M367.183099,290.183099 L370.619718,290.183099 L370.619718,293.619718 L367.183099,293.619718 L367.183099,290.183099 Z M384.366197,290.183099 L387.802817,290.183099 L387.802817,293.619718 L384.366197,293.619718 L384.366197,290.183099 Z M401.549296,290.183099 L404.985915,290.183099 L404.985915,293.619718 L401.549296,293.619718 L401.549296,290.183099 Z M418.732394,290.183099 L422.169014,290.183099 L422.169014,293.619718 L418.732394,293.619718 L418.732394,290.183099 Z M435.915493,290.183099 L439.352113,290.183099 L439.352113,293.619718 L435.915493,293.619718 L435.915493,290.183099 Z M453.098592,290.183099 L456.535211,290.183099 L456.535211,293.619718 L453.098592,293.619718 L453.098592,290.183099 Z M470.28169,290.183099 L473.71831,290.183099 L473.71831,293.619718 L470.28169,293.619718 L470.28169,290.183099 Z M487.464789,290.183099 L490.901408,290.183099 L490.901408,293.619718 L487.464789,293.619718 L487.464789,290.183099 Z M504.647887,290.183099 L508.084507,290.183099 L508.084507,293.619718 L504.647887,293.619718 L504.647887,290.183099 Z M521.830986,290.183099 L525.267606,290.183099 L525.267606,293.619718 L521.830986,293.619718 L521.830986,290.183099 Z M539.014085,290.183099 L542.450704,290.183099 L542.450704,293.619718 L539.014085,293.619718 L539.014085,290.183099 Z M556.197183,290.183099 L559.633803,290.183099 L559.633803,293.619718 L556.197183,293.619718 L556.197183,290.183099 Z M573.380282,290.183099 L576.816901,290.183099 L576.816901,293.619718 L573.380282,293.619718 L573.380282,290.183099 Z M590.56338,290.183099 L594,290.183099 L594,293.619718 L590.56338,293.619718 L590.56338,290.183099 Z M350,307.366197 L353.43662,307.366197 L353.43662,310.802817 L350,310.802817 L350,307.366197 Z M367.183099,307.366197 L370.619718,307.366197 L370.619718,310.802817 L367.183099,310.802817 L367.183099,307.366197 Z M384.366197,307.366197 L387.802817,307.366197 L387.802817,310.802817 L384.366197,310.802817 L384.366197,307.366197 Z M401.549296,307.366197 L404.985915,307.366197 L404.985915,310.802817 L401.549296,310.802817 L401.549296,307.366197 Z M418.732394,307.366197 L422.169014,307.366197 L422.169014,310.802817 L418.732394,310.802817 L418.732394,307.366197 Z M435.915493,307.366197 L439.352113,307.366197 L439.352113,310.802817 L435.915493,310.802817 L435.915493,307.366197 Z M453.098592,307.366197 L456.535211,307.366197 L456.535211,310.802817 L453.098592,310.802817 L453.098592,307.366197 Z M470.28169,307.366197 L473.71831,307.366197 L473.71831,310.802817 L470.28169,310.802817 L470.28169,307.366197 Z M487.464789,307.366197 L490.901408,307.366197 L490.901408,310.802817 L487.464789,310.802817 L487.464789,307.366197 Z M504.647887,307.366197 L508.084507,307.366197 L508.084507,310.802817 L504.647887,310.802817 L504.647887,307.366197 Z M521.830986,307.366197 L525.267606,307.366197 L525.267606,310.802817 L521.830986,310.802817 L521.830986,307.366197 Z M539.014085,307.366197 L542.450704,307.366197 L542.450704,310.802817 L539.014085,310.802817 L539.014085,307.366197 Z M556.197183,307.366197 L559.633803,307.366197 L559.633803,310.802817 L556.197183,310.802817 L556.197183,307.366197 Z M573.380282,307.366197 L576.816901,307.366197 L576.816901,310.802817 L573.380282,310.802817 L573.380282,307.366197 Z M590.56338,307.366197 L594,307.366197 L594,310.802817 L590.56338,310.802817 L590.56338,307.366197 Z M350,324.549296 L353.43662,324.549296 L353.43662,327.985915 L350,327.985915 L350,324.549296 Z M367.183099,324.549296 L370.619718,324.549296 L370.619718,327.985915 L367.183099,327.985915 L367.183099,324.549296 Z M384.366197,324.549296 L387.802817,324.549296 L387.802817,327.985915 L384.366197,327.985915 L384.366197,324.549296 Z M401.549296,324.549296 L404.985915,324.549296 L404.985915,327.985915 L401.549296,327.985915 L401.549296,324.549296 Z M418.732394,324.549296 L422.169014,324.549296 L422.169014,327.985915 L418.732394,327.985915 L418.732394,324.549296 Z M435.915493,324.549296 L439.352113,324.549296 L439.352113,327.985915 L435.915493,327.985915 L435.915493,324.549296 Z M453.098592,324.549296 L456.535211,324.549296 L456.535211,327.985915 L453.098592,327.985915 L453.098592,324.549296 Z M470.28169,324.549296 L473.71831,324.549296 L473.71831,327.985915 L470.28169,327.985915 L470.28169,324.549296 Z M487.464789,324.549296 L490.901408,324.549296 L490.901408,327.985915 L487.464789,327.985915 L487.464789,324.549296 Z M504.647887,324.549296 L508.084507,324.549296 L508.084507,327.985915 L504.647887,327.985915 L504.647887,324.549296 Z M521.830986,324.549296 L525.267606,324.549296 L525.267606,327.985915 L521.830986,327.985915 L521.830986,324.549296 Z M539.014085,324.549296 L542.450704,324.549296 L542.450704,327.985915 L539.014085,327.985915 L539.014085,324.549296 Z M556.197183,324.549296 L559.633803,324.549296 L559.633803,327.985915 L556.197183,327.985915 L556.197183,324.549296 Z M573.380282,324.549296 L576.816901,324.549296 L576.816901,327.985915 L573.380282,327.985915 L573.380282,324.549296 Z M590.56338,324.549296 L594,324.549296 L594,327.985915 L590.56338,327.985915 L590.56338,324.549296 Z M350,341.732394 L353.43662,341.732394 L353.43662,345.169014 L350,345.169014 L350,341.732394 Z M367.183099,341.732394 L370.619718,341.732394 L370.619718,345.169014 L367.183099,345.169014 L367.183099,341.732394 Z M384.366197,341.732394 L387.802817,341.732394 L387.802817,345.169014 L384.366197,345.169014 L384.366197,341.732394 Z M401.549296,341.732394 L404.985915,341.732394 L404.985915,345.169014 L401.549296,345.169014 L401.549296,341.732394 Z M418.732394,341.732394 L422.169014,341.732394 L422.169014,345.169014 L418.732394,345.169014 L418.732394,341.732394 Z M435.915493,341.732394 L439.352113,341.732394 L439.352113,345.169014 L435.915493,345.169014 L435.915493,341.732394 Z M453.098592,341.732394 L456.535211,341.732394 L456.535211,345.169014 L453.098592,345.169014 L453.098592,341.732394 Z M470.28169,341.732394 L473.71831,341.732394 L473.71831,345.169014 L470.28169,345.169014 L470.28169,341.732394 Z M487.464789,341.732394 L490.901408,341.732394 L490.901408,345.169014 L487.464789,345.169014 L487.464789,341.732394 Z M504.647887,341.732394 L508.084507,341.732394 L508.084507,345.169014 L504.647887,345.169014 L504.647887,341.732394 Z M521.830986,341.732394 L525.267606,341.732394 L525.267606,345.169014 L521.830986,345.169014 L521.830986,341.732394 Z M539.014085,341.732394 L542.450704,341.732394 L542.450704,345.169014 L539.014085,345.169014 L539.014085,341.732394 Z M556.197183,341.732394 L559.633803,341.732394 L559.633803,345.169014 L556.197183,345.169014 L556.197183,341.732394 Z M573.380282,341.732394 L576.816901,341.732394 L576.816901,345.169014 L573.380282,345.169014 L573.380282,341.732394 Z M590.56338,341.732394 L594,341.732394 L594,345.169014 L590.56338,345.169014 L590.56338,341.732394 Z M350,358.915493 L353.43662,358.915493 L353.43662,362.352113 L350,362.352113 L350,358.915493 Z M367.183099,358.915493 L370.619718,358.915493 L370.619718,362.352113 L367.183099,362.352113 L367.183099,358.915493 Z M384.366197,358.915493 L387.802817,358.915493 L387.802817,362.352113 L384.366197,362.352113 L384.366197,358.915493 Z M401.549296,358.915493 L404.985915,358.915493 L404.985915,362.352113 L401.549296,362.352113 L401.549296,358.915493 Z M418.732394,358.915493 L422.169014,358.915493 L422.169014,362.352113 L418.732394,362.352113 L418.732394,358.915493 Z M435.915493,358.915493 L439.352113,358.915493 L439.352113,362.352113 L435.915493,362.352113 L435.915493,358.915493 Z M453.098592,358.915493 L456.535211,358.915493 L456.535211,362.352113 L453.098592,362.352113 L453.098592,358.915493 Z M470.28169,358.915493 L473.71831,358.915493 L473.71831,362.352113 L470.28169,362.352113 L470.28169,358.915493 Z M487.464789,358.915493 L490.901408,358.915493 L490.901408,362.352113 L487.464789,362.352113 L487.464789,358.915493 Z M504.647887,358.915493 L508.084507,358.915493 L508.084507,362.352113 L504.647887,362.352113 L504.647887,358.915493 Z M521.830986,358.915493 L525.267606,358.915493 L525.267606,362.352113 L521.830986,362.352113 L521.830986,358.915493 Z M539.014085,358.915493 L542.450704,358.915493 L542.450704,362.352113 L539.014085,362.352113 L539.014085,358.915493 Z M556.197183,358.915493 L559.633803,358.915493 L559.633803,362.352113 L556.197183,362.352113 L556.197183,358.915493 Z M573.380282,358.915493 L576.816901,358.915493 L576.816901,362.352113 L573.380282,362.352113 L573.380282,358.915493 Z M590.56338,358.915493 L594,358.915493 L594,362.352113 L590.56338,362.352113 L590.56338,358.915493 Z M350,376.098592 L353.43662,376.098592 L353.43662,379.535211 L350,379.535211 L350,376.098592 Z M367.183099,376.098592 L370.619718,376.098592 L370.619718,379.535211 L367.183099,379.535211 L367.183099,376.098592 Z M384.366197,376.098592 L387.802817,376.098592 L387.802817,379.535211 L384.366197,379.535211 L384.366197,376.098592 Z M401.549296,376.098592 L404.985915,376.098592 L404.985915,379.535211 L401.549296,379.535211 L401.549296,376.098592 Z M418.732394,376.098592 L422.169014,376.098592 L422.169014,379.535211 L418.732394,379.535211 L418.732394,376.098592 Z M435.915493,376.098592 L439.352113,376.098592 L439.352113,379.535211 L435.915493,379.535211 L435.915493,376.098592 Z M453.098592,376.098592 L456.535211,376.098592 L456.535211,379.535211 L453.098592,379.535211 L453.098592,376.098592 Z M470.28169,376.098592 L473.71831,376.098592 L473.71831,379.535211 L470.28169,379.535211 L470.28169,376.098592 Z M487.464789,376.098592 L490.901408,376.098592 L490.901408,379.535211 L487.464789,379.535211 L487.464789,376.098592 Z M504.647887,376.098592 L508.084507,376.098592 L508.084507,379.535211 L504.647887,379.535211 L504.647887,376.098592 Z M521.830986,376.098592 L525.267606,376.098592 L525.267606,379.535211 L521.830986,379.535211 L521.830986,376.098592 Z M539.014085,376.098592 L542.450704,376.098592 L542.450704,379.535211 L539.014085,379.535211 L539.014085,376.098592 Z M556.197183,376.098592 L559.633803,376.098592 L559.633803,379.535211 L556.197183,379.535211 L556.197183,376.098592 Z M573.380282,376.098592 L576.816901,376.098592 L576.816901,379.535211 L573.380282,379.535211 L573.380282,376.098592 Z M590.56338,376.098592 L594,376.098592 L594,379.535211 L590.56338,379.535211 L590.56338,376.098592 Z M350,393.28169 L353.43662,393.28169 L353.43662,396.71831 L350,396.71831 L350,393.28169 Z M367.183099,393.28169 L370.619718,393.28169 L370.619718,396.71831 L367.183099,396.71831 L367.183099,393.28169 Z M384.366197,393.28169 L387.802817,393.28169 L387.802817,396.71831 L384.366197,396.71831 L384.366197,393.28169 Z M401.549296,393.28169 L404.985915,393.28169 L404.985915,396.71831 L401.549296,396.71831 L401.549296,393.28169 Z M418.732394,393.28169 L422.169014,393.28169 L422.169014,396.71831 L418.732394,396.71831 L418.732394,393.28169 Z M435.915493,393.28169 L439.352113,393.28169 L439.352113,396.71831 L435.915493,396.71831 L435.915493,393.28169 Z M453.098592,393.28169 L456.535211,393.28169 L456.535211,396.71831 L453.098592,396.71831 L453.098592,393.28169 Z M470.28169,393.28169 L473.71831,393.28169 L473.71831,396.71831 L470.28169,396.71831 L470.28169,393.28169 Z M487.464789,393.28169 L490.901408,393.28169 L490.901408,396.71831 L487.464789,396.71831 L487.464789,393.28169 Z M504.647887,393.28169 L508.084507,393.28169 L508.084507,396.71831 L504.647887,396.71831 L504.647887,393.28169 Z M521.830986,393.28169 L525.267606,393.28169 L525.267606,396.71831 L521.830986,396.71831 L521.830986,393.28169 Z M539.014085,393.28169 L542.450704,393.28169 L542.450704,396.71831 L539.014085,396.71831 L539.014085,393.28169 Z M556.197183,393.28169 L559.633803,393.28169 L559.633803,396.71831 L556.197183,396.71831 L556.197183,393.28169 Z M573.380282,393.28169 L576.816901,393.28169 L576.816901,396.71831 L573.380282,396.71831 L573.380282,393.28169 Z M590.56338,393.28169 L594,393.28169 L594,396.71831 L590.56338,396.71831 L590.56338,393.28169 Z M350,410.464789 L353.43662,410.464789 L353.43662,413.901408 L350,413.901408 L350,410.464789 Z M367.183099,410.464789 L370.619718,410.464789 L370.619718,413.901408 L367.183099,413.901408 L367.183099,410.464789 Z M384.366197,410.464789 L387.802817,410.464789 L387.802817,413.901408 L384.366197,413.901408 L384.366197,410.464789 Z M401.549296,410.464789 L404.985915,410.464789 L404.985915,413.901408 L401.549296,413.901408 L401.549296,410.464789 Z M418.732394,410.464789 L422.169014,410.464789 L422.169014,413.901408 L418.732394,413.901408 L418.732394,410.464789 Z M435.915493,410.464789 L439.352113,410.464789 L439.352113,413.901408 L435.915493,413.901408 L435.915493,410.464789 Z M453.098592,410.464789 L456.535211,410.464789 L456.535211,413.901408 L453.098592,413.901408 L453.098592,410.464789 Z M470.28169,410.464789 L473.71831,410.464789 L473.71831,413.901408 L470.28169,413.901408 L470.28169,410.464789 Z M487.464789,410.464789 L490.901408,410.464789 L490.901408,413.901408 L487.464789,413.901408 L487.464789,410.464789 Z M504.647887,410.464789 L508.084507,410.464789 L508.084507,413.901408 L504.647887,413.901408 L504.647887,410.464789 Z M521.830986,410.464789 L525.267606,410.464789 L525.267606,413.901408 L521.830986,413.901408 L521.830986,410.464789 Z M539.014085,410.464789 L542.450704,410.464789 L542.450704,413.901408 L539.014085,413.901408 L539.014085,410.464789 Z M556.197183,410.464789 L559.633803,410.464789 L559.633803,413.901408 L556.197183,413.901408 L556.197183,410.464789 Z M573.380282,410.464789 L576.816901,410.464789 L576.816901,413.901408 L573.380282,413.901408 L573.380282,410.464789 Z M590.56338,410.464789 L594,410.464789 L594,413.901408 L590.56338,413.901408 L590.56338,410.464789 Z M350,427.647887 L353.43662,427.647887 L353.43662,431.084507 L350,431.084507 L350,427.647887 Z M367.183099,427.647887 L370.619718,427.647887 L370.619718,431.084507 L367.183099,431.084507 L367.183099,427.647887 Z M384.366197,427.647887 L387.802817,427.647887 L387.802817,431.084507 L384.366197,431.084507 L384.366197,427.647887 Z M401.549296,427.647887 L404.985915,427.647887 L404.985915,431.084507 L401.549296,431.084507 L401.549296,427.647887 Z M418.732394,427.647887 L422.169014,427.647887 L422.169014,431.084507 L418.732394,431.084507 L418.732394,427.647887 Z M435.915493,427.647887 L439.352113,427.647887 L439.352113,431.084507 L435.915493,431.084507 L435.915493,427.647887 Z M453.098592,427.647887 L456.535211,427.647887 L456.535211,431.084507 L453.098592,431.084507 L453.098592,427.647887 Z M470.28169,427.647887 L473.71831,427.647887 L473.71831,431.084507 L470.28169,431.084507 L470.28169,427.647887 Z M487.464789,427.647887 L490.901408,427.647887 L490.901408,431.084507 L487.464789,431.084507 L487.464789,427.647887 Z M504.647887,427.647887 L508.084507,427.647887 L508.084507,431.084507 L504.647887,431.084507 L504.647887,427.647887 Z M521.830986,427.647887 L525.267606,427.647887 L525.267606,431.084507 L521.830986,431.084507 L521.830986,427.647887 Z M539.014085,427.647887 L542.450704,427.647887 L542.450704,431.084507 L539.014085,431.084507 L539.014085,427.647887 Z M556.197183,427.647887 L559.633803,427.647887 L559.633803,431.084507 L556.197183,431.084507 L556.197183,427.647887 Z M573.380282,427.647887 L576.816901,427.647887 L576.816901,431.084507 L573.380282,431.084507 L573.380282,427.647887 Z M590.56338,427.647887 L594,427.647887 L594,431.084507 L590.56338,431.084507 L590.56338,427.647887 Z" id="Combined-Shape" fill="url(#linearGradient-5)" fill-rule="nonzero" opacity="0.447521391"></path>
                    <path d="M1453,413 L1456.43662,413 L1456.43662,416.43662 L1453,416.43662 L1453,413 Z M1470.1831,413 L1473.61972,413 L1473.61972,416.43662 L1470.1831,416.43662 L1470.1831,413 Z M1487.3662,413 L1490.80282,413 L1490.80282,416.43662 L1487.3662,416.43662 L1487.3662,413 Z M1504.5493,413 L1507.98592,413 L1507.98592,416.43662 L1504.5493,416.43662 L1504.5493,413 Z M1521.73239,413 L1525.16901,413 L1525.16901,416.43662 L1521.73239,416.43662 L1521.73239,413 Z M1538.91549,413 L1542.35211,413 L1542.35211,416.43662 L1538.91549,416.43662 L1538.91549,413 Z M1556.09859,413 L1559.53521,413 L1559.53521,416.43662 L1556.09859,416.43662 L1556.09859,413 Z M1573.28169,413 L1576.71831,413 L1576.71831,416.43662 L1573.28169,416.43662 L1573.28169,413 Z M1590.46479,413 L1593.90141,413 L1593.90141,416.43662 L1590.46479,416.43662 L1590.46479,413 Z M1607.64789,413 L1611.08451,413 L1611.08451,416.43662 L1607.64789,416.43662 L1607.64789,413 Z M1624.83099,413 L1628.26761,413 L1628.26761,416.43662 L1624.83099,416.43662 L1624.83099,413 Z M1642.01408,413 L1645.4507,413 L1645.4507,416.43662 L1642.01408,416.43662 L1642.01408,413 Z M1659.19718,413 L1662.6338,413 L1662.6338,416.43662 L1659.19718,416.43662 L1659.19718,413 Z M1676.38028,413 L1679.8169,413 L1679.8169,416.43662 L1676.38028,416.43662 L1676.38028,413 Z M1693.56338,413 L1697,413 L1697,416.43662 L1693.56338,416.43662 L1693.56338,413 Z M1453,430.183099 L1456.43662,430.183099 L1456.43662,433.619718 L1453,433.619718 L1453,430.183099 Z M1470.1831,430.183099 L1473.61972,430.183099 L1473.61972,433.619718 L1470.1831,433.619718 L1470.1831,430.183099 Z M1487.3662,430.183099 L1490.80282,430.183099 L1490.80282,433.619718 L1487.3662,433.619718 L1487.3662,430.183099 Z M1504.5493,430.183099 L1507.98592,430.183099 L1507.98592,433.619718 L1504.5493,433.619718 L1504.5493,430.183099 Z M1521.73239,430.183099 L1525.16901,430.183099 L1525.16901,433.619718 L1521.73239,433.619718 L1521.73239,430.183099 Z M1538.91549,430.183099 L1542.35211,430.183099 L1542.35211,433.619718 L1538.91549,433.619718 L1538.91549,430.183099 Z M1556.09859,430.183099 L1559.53521,430.183099 L1559.53521,433.619718 L1556.09859,433.619718 L1556.09859,430.183099 Z M1573.28169,430.183099 L1576.71831,430.183099 L1576.71831,433.619718 L1573.28169,433.619718 L1573.28169,430.183099 Z M1590.46479,430.183099 L1593.90141,430.183099 L1593.90141,433.619718 L1590.46479,433.619718 L1590.46479,430.183099 Z M1607.64789,430.183099 L1611.08451,430.183099 L1611.08451,433.619718 L1607.64789,433.619718 L1607.64789,430.183099 Z M1624.83099,430.183099 L1628.26761,430.183099 L1628.26761,433.619718 L1624.83099,433.619718 L1624.83099,430.183099 Z M1642.01408,430.183099 L1645.4507,430.183099 L1645.4507,433.619718 L1642.01408,433.619718 L1642.01408,430.183099 Z M1659.19718,430.183099 L1662.6338,430.183099 L1662.6338,433.619718 L1659.19718,433.619718 L1659.19718,430.183099 Z M1676.38028,430.183099 L1679.8169,430.183099 L1679.8169,433.619718 L1676.38028,433.619718 L1676.38028,430.183099 Z M1693.56338,430.183099 L1697,430.183099 L1697,433.619718 L1693.56338,433.619718 L1693.56338,430.183099 Z M1453,447.366197 L1456.43662,447.366197 L1456.43662,450.802817 L1453,450.802817 L1453,447.366197 Z M1470.1831,447.366197 L1473.61972,447.366197 L1473.61972,450.802817 L1470.1831,450.802817 L1470.1831,447.366197 Z M1487.3662,447.366197 L1490.80282,447.366197 L1490.80282,450.802817 L1487.3662,450.802817 L1487.3662,447.366197 Z M1504.5493,447.366197 L1507.98592,447.366197 L1507.98592,450.802817 L1504.5493,450.802817 L1504.5493,447.366197 Z M1521.73239,447.366197 L1525.16901,447.366197 L1525.16901,450.802817 L1521.73239,450.802817 L1521.73239,447.366197 Z M1538.91549,447.366197 L1542.35211,447.366197 L1542.35211,450.802817 L1538.91549,450.802817 L1538.91549,447.366197 Z M1556.09859,447.366197 L1559.53521,447.366197 L1559.53521,450.802817 L1556.09859,450.802817 L1556.09859,447.366197 Z M1573.28169,447.366197 L1576.71831,447.366197 L1576.71831,450.802817 L1573.28169,450.802817 L1573.28169,447.366197 Z M1590.46479,447.366197 L1593.90141,447.366197 L1593.90141,450.802817 L1590.46479,450.802817 L1590.46479,447.366197 Z M1607.64789,447.366197 L1611.08451,447.366197 L1611.08451,450.802817 L1607.64789,450.802817 L1607.64789,447.366197 Z M1624.83099,447.366197 L1628.26761,447.366197 L1628.26761,450.802817 L1624.83099,450.802817 L1624.83099,447.366197 Z M1642.01408,447.366197 L1645.4507,447.366197 L1645.4507,450.802817 L1642.01408,450.802817 L1642.01408,447.366197 Z M1659.19718,447.366197 L1662.6338,447.366197 L1662.6338,450.802817 L1659.19718,450.802817 L1659.19718,447.366197 Z M1676.38028,447.366197 L1679.8169,447.366197 L1679.8169,450.802817 L1676.38028,450.802817 L1676.38028,447.366197 Z M1693.56338,447.366197 L1697,447.366197 L1697,450.802817 L1693.56338,450.802817 L1693.56338,447.366197 Z M1453,464.549296 L1456.43662,464.549296 L1456.43662,467.985915 L1453,467.985915 L1453,464.549296 Z M1470.1831,464.549296 L1473.61972,464.549296 L1473.61972,467.985915 L1470.1831,467.985915 L1470.1831,464.549296 Z M1487.3662,464.549296 L1490.80282,464.549296 L1490.80282,467.985915 L1487.3662,467.985915 L1487.3662,464.549296 Z M1504.5493,464.549296 L1507.98592,464.549296 L1507.98592,467.985915 L1504.5493,467.985915 L1504.5493,464.549296 Z M1521.73239,464.549296 L1525.16901,464.549296 L1525.16901,467.985915 L1521.73239,467.985915 L1521.73239,464.549296 Z M1538.91549,464.549296 L1542.35211,464.549296 L1542.35211,467.985915 L1538.91549,467.985915 L1538.91549,464.549296 Z M1556.09859,464.549296 L1559.53521,464.549296 L1559.53521,467.985915 L1556.09859,467.985915 L1556.09859,464.549296 Z M1573.28169,464.549296 L1576.71831,464.549296 L1576.71831,467.985915 L1573.28169,467.985915 L1573.28169,464.549296 Z M1590.46479,464.549296 L1593.90141,464.549296 L1593.90141,467.985915 L1590.46479,467.985915 L1590.46479,464.549296 Z M1607.64789,464.549296 L1611.08451,464.549296 L1611.08451,467.985915 L1607.64789,467.985915 L1607.64789,464.549296 Z M1624.83099,464.549296 L1628.26761,464.549296 L1628.26761,467.985915 L1624.83099,467.985915 L1624.83099,464.549296 Z M1642.01408,464.549296 L1645.4507,464.549296 L1645.4507,467.985915 L1642.01408,467.985915 L1642.01408,464.549296 Z M1659.19718,464.549296 L1662.6338,464.549296 L1662.6338,467.985915 L1659.19718,467.985915 L1659.19718,464.549296 Z M1676.38028,464.549296 L1679.8169,464.549296 L1679.8169,467.985915 L1676.38028,467.985915 L1676.38028,464.549296 Z M1693.56338,464.549296 L1697,464.549296 L1697,467.985915 L1693.56338,467.985915 L1693.56338,464.549296 Z M1453,481.732394 L1456.43662,481.732394 L1456.43662,485.169014 L1453,485.169014 L1453,481.732394 Z M1470.1831,481.732394 L1473.61972,481.732394 L1473.61972,485.169014 L1470.1831,485.169014 L1470.1831,481.732394 Z M1487.3662,481.732394 L1490.80282,481.732394 L1490.80282,485.169014 L1487.3662,485.169014 L1487.3662,481.732394 Z M1504.5493,481.732394 L1507.98592,481.732394 L1507.98592,485.169014 L1504.5493,485.169014 L1504.5493,481.732394 Z M1521.73239,481.732394 L1525.16901,481.732394 L1525.16901,485.169014 L1521.73239,485.169014 L1521.73239,481.732394 Z M1538.91549,481.732394 L1542.35211,481.732394 L1542.35211,485.169014 L1538.91549,485.169014 L1538.91549,481.732394 Z M1556.09859,481.732394 L1559.53521,481.732394 L1559.53521,485.169014 L1556.09859,485.169014 L1556.09859,481.732394 Z M1573.28169,481.732394 L1576.71831,481.732394 L1576.71831,485.169014 L1573.28169,485.169014 L1573.28169,481.732394 Z M1590.46479,481.732394 L1593.90141,481.732394 L1593.90141,485.169014 L1590.46479,485.169014 L1590.46479,481.732394 Z M1607.64789,481.732394 L1611.08451,481.732394 L1611.08451,485.169014 L1607.64789,485.169014 L1607.64789,481.732394 Z M1624.83099,481.732394 L1628.26761,481.732394 L1628.26761,485.169014 L1624.83099,485.169014 L1624.83099,481.732394 Z M1642.01408,481.732394 L1645.4507,481.732394 L1645.4507,485.169014 L1642.01408,485.169014 L1642.01408,481.732394 Z M1659.19718,481.732394 L1662.6338,481.732394 L1662.6338,485.169014 L1659.19718,485.169014 L1659.19718,481.732394 Z M1676.38028,481.732394 L1679.8169,481.732394 L1679.8169,485.169014 L1676.38028,485.169014 L1676.38028,481.732394 Z M1693.56338,481.732394 L1697,481.732394 L1697,485.169014 L1693.56338,485.169014 L1693.56338,481.732394 Z M1453,498.915493 L1456.43662,498.915493 L1456.43662,502.352113 L1453,502.352113 L1453,498.915493 Z M1470.1831,498.915493 L1473.61972,498.915493 L1473.61972,502.352113 L1470.1831,502.352113 L1470.1831,498.915493 Z M1487.3662,498.915493 L1490.80282,498.915493 L1490.80282,502.352113 L1487.3662,502.352113 L1487.3662,498.915493 Z M1504.5493,498.915493 L1507.98592,498.915493 L1507.98592,502.352113 L1504.5493,502.352113 L1504.5493,498.915493 Z M1521.73239,498.915493 L1525.16901,498.915493 L1525.16901,502.352113 L1521.73239,502.352113 L1521.73239,498.915493 Z M1538.91549,498.915493 L1542.35211,498.915493 L1542.35211,502.352113 L1538.91549,502.352113 L1538.91549,498.915493 Z M1556.09859,498.915493 L1559.53521,498.915493 L1559.53521,502.352113 L1556.09859,502.352113 L1556.09859,498.915493 Z M1573.28169,498.915493 L1576.71831,498.915493 L1576.71831,502.352113 L1573.28169,502.352113 L1573.28169,498.915493 Z M1590.46479,498.915493 L1593.90141,498.915493 L1593.90141,502.352113 L1590.46479,502.352113 L1590.46479,498.915493 Z M1607.64789,498.915493 L1611.08451,498.915493 L1611.08451,502.352113 L1607.64789,502.352113 L1607.64789,498.915493 Z M1624.83099,498.915493 L1628.26761,498.915493 L1628.26761,502.352113 L1624.83099,502.352113 L1624.83099,498.915493 Z M1642.01408,498.915493 L1645.4507,498.915493 L1645.4507,502.352113 L1642.01408,502.352113 L1642.01408,498.915493 Z M1659.19718,498.915493 L1662.6338,498.915493 L1662.6338,502.352113 L1659.19718,502.352113 L1659.19718,498.915493 Z M1676.38028,498.915493 L1679.8169,498.915493 L1679.8169,502.352113 L1676.38028,502.352113 L1676.38028,498.915493 Z M1693.56338,498.915493 L1697,498.915493 L1697,502.352113 L1693.56338,502.352113 L1693.56338,498.915493 Z M1453,516.098592 L1456.43662,516.098592 L1456.43662,519.535211 L1453,519.535211 L1453,516.098592 Z M1470.1831,516.098592 L1473.61972,516.098592 L1473.61972,519.535211 L1470.1831,519.535211 L1470.1831,516.098592 Z M1487.3662,516.098592 L1490.80282,516.098592 L1490.80282,519.535211 L1487.3662,519.535211 L1487.3662,516.098592 Z M1504.5493,516.098592 L1507.98592,516.098592 L1507.98592,519.535211 L1504.5493,519.535211 L1504.5493,516.098592 Z M1521.73239,516.098592 L1525.16901,516.098592 L1525.16901,519.535211 L1521.73239,519.535211 L1521.73239,516.098592 Z M1538.91549,516.098592 L1542.35211,516.098592 L1542.35211,519.535211 L1538.91549,519.535211 L1538.91549,516.098592 Z M1556.09859,516.098592 L1559.53521,516.098592 L1559.53521,519.535211 L1556.09859,519.535211 L1556.09859,516.098592 Z M1573.28169,516.098592 L1576.71831,516.098592 L1576.71831,519.535211 L1573.28169,519.535211 L1573.28169,516.098592 Z M1590.46479,516.098592 L1593.90141,516.098592 L1593.90141,519.535211 L1590.46479,519.535211 L1590.46479,516.098592 Z M1607.64789,516.098592 L1611.08451,516.098592 L1611.08451,519.535211 L1607.64789,519.535211 L1607.64789,516.098592 Z M1624.83099,516.098592 L1628.26761,516.098592 L1628.26761,519.535211 L1624.83099,519.535211 L1624.83099,516.098592 Z M1642.01408,516.098592 L1645.4507,516.098592 L1645.4507,519.535211 L1642.01408,519.535211 L1642.01408,516.098592 Z M1659.19718,516.098592 L1662.6338,516.098592 L1662.6338,519.535211 L1659.19718,519.535211 L1659.19718,516.098592 Z M1676.38028,516.098592 L1679.8169,516.098592 L1679.8169,519.535211 L1676.38028,519.535211 L1676.38028,516.098592 Z M1693.56338,516.098592 L1697,516.098592 L1697,519.535211 L1693.56338,519.535211 L1693.56338,516.098592 Z M1453,533.28169 L1456.43662,533.28169 L1456.43662,536.71831 L1453,536.71831 L1453,533.28169 Z M1470.1831,533.28169 L1473.61972,533.28169 L1473.61972,536.71831 L1470.1831,536.71831 L1470.1831,533.28169 Z M1487.3662,533.28169 L1490.80282,533.28169 L1490.80282,536.71831 L1487.3662,536.71831 L1487.3662,533.28169 Z M1504.5493,533.28169 L1507.98592,533.28169 L1507.98592,536.71831 L1504.5493,536.71831 L1504.5493,533.28169 Z M1521.73239,533.28169 L1525.16901,533.28169 L1525.16901,536.71831 L1521.73239,536.71831 L1521.73239,533.28169 Z M1538.91549,533.28169 L1542.35211,533.28169 L1542.35211,536.71831 L1538.91549,536.71831 L1538.91549,533.28169 Z M1556.09859,533.28169 L1559.53521,533.28169 L1559.53521,536.71831 L1556.09859,536.71831 L1556.09859,533.28169 Z M1573.28169,533.28169 L1576.71831,533.28169 L1576.71831,536.71831 L1573.28169,536.71831 L1573.28169,533.28169 Z M1590.46479,533.28169 L1593.90141,533.28169 L1593.90141,536.71831 L1590.46479,536.71831 L1590.46479,533.28169 Z M1607.64789,533.28169 L1611.08451,533.28169 L1611.08451,536.71831 L1607.64789,536.71831 L1607.64789,533.28169 Z M1624.83099,533.28169 L1628.26761,533.28169 L1628.26761,536.71831 L1624.83099,536.71831 L1624.83099,533.28169 Z M1642.01408,533.28169 L1645.4507,533.28169 L1645.4507,536.71831 L1642.01408,536.71831 L1642.01408,533.28169 Z M1659.19718,533.28169 L1662.6338,533.28169 L1662.6338,536.71831 L1659.19718,536.71831 L1659.19718,533.28169 Z M1676.38028,533.28169 L1679.8169,533.28169 L1679.8169,536.71831 L1676.38028,536.71831 L1676.38028,533.28169 Z M1693.56338,533.28169 L1697,533.28169 L1697,536.71831 L1693.56338,536.71831 L1693.56338,533.28169 Z M1453,550.464789 L1456.43662,550.464789 L1456.43662,553.901408 L1453,553.901408 L1453,550.464789 Z M1470.1831,550.464789 L1473.61972,550.464789 L1473.61972,553.901408 L1470.1831,553.901408 L1470.1831,550.464789 Z M1487.3662,550.464789 L1490.80282,550.464789 L1490.80282,553.901408 L1487.3662,553.901408 L1487.3662,550.464789 Z M1504.5493,550.464789 L1507.98592,550.464789 L1507.98592,553.901408 L1504.5493,553.901408 L1504.5493,550.464789 Z M1521.73239,550.464789 L1525.16901,550.464789 L1525.16901,553.901408 L1521.73239,553.901408 L1521.73239,550.464789 Z M1538.91549,550.464789 L1542.35211,550.464789 L1542.35211,553.901408 L1538.91549,553.901408 L1538.91549,550.464789 Z M1556.09859,550.464789 L1559.53521,550.464789 L1559.53521,553.901408 L1556.09859,553.901408 L1556.09859,550.464789 Z M1573.28169,550.464789 L1576.71831,550.464789 L1576.71831,553.901408 L1573.28169,553.901408 L1573.28169,550.464789 Z M1590.46479,550.464789 L1593.90141,550.464789 L1593.90141,553.901408 L1590.46479,553.901408 L1590.46479,550.464789 Z M1607.64789,550.464789 L1611.08451,550.464789 L1611.08451,553.901408 L1607.64789,553.901408 L1607.64789,550.464789 Z M1624.83099,550.464789 L1628.26761,550.464789 L1628.26761,553.901408 L1624.83099,553.901408 L1624.83099,550.464789 Z M1642.01408,550.464789 L1645.4507,550.464789 L1645.4507,553.901408 L1642.01408,553.901408 L1642.01408,550.464789 Z M1659.19718,550.464789 L1662.6338,550.464789 L1662.6338,553.901408 L1659.19718,553.901408 L1659.19718,550.464789 Z M1676.38028,550.464789 L1679.8169,550.464789 L1679.8169,553.901408 L1676.38028,553.901408 L1676.38028,550.464789 Z M1693.56338,550.464789 L1697,550.464789 L1697,553.901408 L1693.56338,553.901408 L1693.56338,550.464789 Z M1453,567.647887 L1456.43662,567.647887 L1456.43662,571.084507 L1453,571.084507 L1453,567.647887 Z M1470.1831,567.647887 L1473.61972,567.647887 L1473.61972,571.084507 L1470.1831,571.084507 L1470.1831,567.647887 Z M1487.3662,567.647887 L1490.80282,567.647887 L1490.80282,571.084507 L1487.3662,571.084507 L1487.3662,567.647887 Z M1504.5493,567.647887 L1507.98592,567.647887 L1507.98592,571.084507 L1504.5493,571.084507 L1504.5493,567.647887 Z M1521.73239,567.647887 L1525.16901,567.647887 L1525.16901,571.084507 L1521.73239,571.084507 L1521.73239,567.647887 Z M1538.91549,567.647887 L1542.35211,567.647887 L1542.35211,571.084507 L1538.91549,571.084507 L1538.91549,567.647887 Z M1556.09859,567.647887 L1559.53521,567.647887 L1559.53521,571.084507 L1556.09859,571.084507 L1556.09859,567.647887 Z M1573.28169,567.647887 L1576.71831,567.647887 L1576.71831,571.084507 L1573.28169,571.084507 L1573.28169,567.647887 Z M1590.46479,567.647887 L1593.90141,567.647887 L1593.90141,571.084507 L1590.46479,571.084507 L1590.46479,567.647887 Z M1607.64789,567.647887 L1611.08451,567.647887 L1611.08451,571.084507 L1607.64789,571.084507 L1607.64789,567.647887 Z M1624.83099,567.647887 L1628.26761,567.647887 L1628.26761,571.084507 L1624.83099,571.084507 L1624.83099,567.647887 Z M1642.01408,567.647887 L1645.4507,567.647887 L1645.4507,571.084507 L1642.01408,571.084507 L1642.01408,567.647887 Z M1659.19718,567.647887 L1662.6338,567.647887 L1662.6338,571.084507 L1659.19718,571.084507 L1659.19718,567.647887 Z M1676.38028,567.647887 L1679.8169,567.647887 L1679.8169,571.084507 L1676.38028,571.084507 L1676.38028,567.647887 Z M1693.56338,567.647887 L1697,567.647887 L1697,571.084507 L1693.56338,571.084507 L1693.56338,567.647887 Z M1453,584 L1456.43662,584 L1456.43662,587.43662 L1453,587.43662 L1453,584 Z M1470.1831,584 L1473.61972,584 L1473.61972,587.43662 L1470.1831,587.43662 L1470.1831,584 Z M1487.3662,584 L1490.80282,584 L1490.80282,587.43662 L1487.3662,587.43662 L1487.3662,584 Z M1504.5493,584 L1507.98592,584 L1507.98592,587.43662 L1504.5493,587.43662 L1504.5493,584 Z M1521.73239,584 L1525.16901,584 L1525.16901,587.43662 L1521.73239,587.43662 L1521.73239,584 Z M1538.91549,584 L1542.35211,584 L1542.35211,587.43662 L1538.91549,587.43662 L1538.91549,584 Z M1556.09859,584 L1559.53521,584 L1559.53521,587.43662 L1556.09859,587.43662 L1556.09859,584 Z M1573.28169,584 L1576.71831,584 L1576.71831,587.43662 L1573.28169,587.43662 L1573.28169,584 Z M1590.46479,584 L1593.90141,584 L1593.90141,587.43662 L1590.46479,587.43662 L1590.46479,584 Z M1607.64789,584 L1611.08451,584 L1611.08451,587.43662 L1607.64789,587.43662 L1607.64789,584 Z M1624.83099,584 L1628.26761,584 L1628.26761,587.43662 L1624.83099,587.43662 L1624.83099,584 Z M1642.01408,584 L1645.4507,584 L1645.4507,587.43662 L1642.01408,587.43662 L1642.01408,584 Z M1659.19718,584 L1662.6338,584 L1662.6338,587.43662 L1659.19718,587.43662 L1659.19718,584 Z M1676.38028,584 L1679.8169,584 L1679.8169,587.43662 L1676.38028,587.43662 L1676.38028,584 Z M1693.56338,584 L1697,584 L1697,587.43662 L1693.56338,587.43662 L1693.56338,584 Z M1453,601.183099 L1456.43662,601.183099 L1456.43662,604.619718 L1453,604.619718 L1453,601.183099 Z M1470.1831,601.183099 L1473.61972,601.183099 L1473.61972,604.619718 L1470.1831,604.619718 L1470.1831,601.183099 Z M1487.3662,601.183099 L1490.80282,601.183099 L1490.80282,604.619718 L1487.3662,604.619718 L1487.3662,601.183099 Z M1504.5493,601.183099 L1507.98592,601.183099 L1507.98592,604.619718 L1504.5493,604.619718 L1504.5493,601.183099 Z M1521.73239,601.183099 L1525.16901,601.183099 L1525.16901,604.619718 L1521.73239,604.619718 L1521.73239,601.183099 Z M1538.91549,601.183099 L1542.35211,601.183099 L1542.35211,604.619718 L1538.91549,604.619718 L1538.91549,601.183099 Z M1556.09859,601.183099 L1559.53521,601.183099 L1559.53521,604.619718 L1556.09859,604.619718 L1556.09859,601.183099 Z M1573.28169,601.183099 L1576.71831,601.183099 L1576.71831,604.619718 L1573.28169,604.619718 L1573.28169,601.183099 Z M1590.46479,601.183099 L1593.90141,601.183099 L1593.90141,604.619718 L1590.46479,604.619718 L1590.46479,601.183099 Z M1607.64789,601.183099 L1611.08451,601.183099 L1611.08451,604.619718 L1607.64789,604.619718 L1607.64789,601.183099 Z M1624.83099,601.183099 L1628.26761,601.183099 L1628.26761,604.619718 L1624.83099,604.619718 L1624.83099,601.183099 Z M1642.01408,601.183099 L1645.4507,601.183099 L1645.4507,604.619718 L1642.01408,604.619718 L1642.01408,601.183099 Z M1659.19718,601.183099 L1662.6338,601.183099 L1662.6338,604.619718 L1659.19718,604.619718 L1659.19718,601.183099 Z M1676.38028,601.183099 L1679.8169,601.183099 L1679.8169,604.619718 L1676.38028,604.619718 L1676.38028,601.183099 Z M1693.56338,601.183099 L1697,601.183099 L1697,604.619718 L1693.56338,604.619718 L1693.56338,601.183099 Z M1453,618.366197 L1456.43662,618.366197 L1456.43662,621.802817 L1453,621.802817 L1453,618.366197 Z M1470.1831,618.366197 L1473.61972,618.366197 L1473.61972,621.802817 L1470.1831,621.802817 L1470.1831,618.366197 Z M1487.3662,618.366197 L1490.80282,618.366197 L1490.80282,621.802817 L1487.3662,621.802817 L1487.3662,618.366197 Z M1504.5493,618.366197 L1507.98592,618.366197 L1507.98592,621.802817 L1504.5493,621.802817 L1504.5493,618.366197 Z M1521.73239,618.366197 L1525.16901,618.366197 L1525.16901,621.802817 L1521.73239,621.802817 L1521.73239,618.366197 Z M1538.91549,618.366197 L1542.35211,618.366197 L1542.35211,621.802817 L1538.91549,621.802817 L1538.91549,618.366197 Z M1556.09859,618.366197 L1559.53521,618.366197 L1559.53521,621.802817 L1556.09859,621.802817 L1556.09859,618.366197 Z M1573.28169,618.366197 L1576.71831,618.366197 L1576.71831,621.802817 L1573.28169,621.802817 L1573.28169,618.366197 Z M1590.46479,618.366197 L1593.90141,618.366197 L1593.90141,621.802817 L1590.46479,621.802817 L1590.46479,618.366197 Z M1607.64789,618.366197 L1611.08451,618.366197 L1611.08451,621.802817 L1607.64789,621.802817 L1607.64789,618.366197 Z M1624.83099,618.366197 L1628.26761,618.366197 L1628.26761,621.802817 L1624.83099,621.802817 L1624.83099,618.366197 Z M1642.01408,618.366197 L1645.4507,618.366197 L1645.4507,621.802817 L1642.01408,621.802817 L1642.01408,618.366197 Z M1659.19718,618.366197 L1662.6338,618.366197 L1662.6338,621.802817 L1659.19718,621.802817 L1659.19718,618.366197 Z M1676.38028,618.366197 L1679.8169,618.366197 L1679.8169,621.802817 L1676.38028,621.802817 L1676.38028,618.366197 Z M1693.56338,618.366197 L1697,618.366197 L1697,621.802817 L1693.56338,621.802817 L1693.56338,618.366197 Z M1453,635.549296 L1456.43662,635.549296 L1456.43662,638.985915 L1453,638.985915 L1453,635.549296 Z M1470.1831,635.549296 L1473.61972,635.549296 L1473.61972,638.985915 L1470.1831,638.985915 L1470.1831,635.549296 Z M1487.3662,635.549296 L1490.80282,635.549296 L1490.80282,638.985915 L1487.3662,638.985915 L1487.3662,635.549296 Z M1504.5493,635.549296 L1507.98592,635.549296 L1507.98592,638.985915 L1504.5493,638.985915 L1504.5493,635.549296 Z M1521.73239,635.549296 L1525.16901,635.549296 L1525.16901,638.985915 L1521.73239,638.985915 L1521.73239,635.549296 Z M1538.91549,635.549296 L1542.35211,635.549296 L1542.35211,638.985915 L1538.91549,638.985915 L1538.91549,635.549296 Z M1556.09859,635.549296 L1559.53521,635.549296 L1559.53521,638.985915 L1556.09859,638.985915 L1556.09859,635.549296 Z M1573.28169,635.549296 L1576.71831,635.549296 L1576.71831,638.985915 L1573.28169,638.985915 L1573.28169,635.549296 Z M1590.46479,635.549296 L1593.90141,635.549296 L1593.90141,638.985915 L1590.46479,638.985915 L1590.46479,635.549296 Z M1607.64789,635.549296 L1611.08451,635.549296 L1611.08451,638.985915 L1607.64789,638.985915 L1607.64789,635.549296 Z M1624.83099,635.549296 L1628.26761,635.549296 L1628.26761,638.985915 L1624.83099,638.985915 L1624.83099,635.549296 Z M1642.01408,635.549296 L1645.4507,635.549296 L1645.4507,638.985915 L1642.01408,638.985915 L1642.01408,635.549296 Z M1659.19718,635.549296 L1662.6338,635.549296 L1662.6338,638.985915 L1659.19718,638.985915 L1659.19718,635.549296 Z M1676.38028,635.549296 L1679.8169,635.549296 L1679.8169,638.985915 L1676.38028,638.985915 L1676.38028,635.549296 Z M1693.56338,635.549296 L1697,635.549296 L1697,638.985915 L1693.56338,638.985915 L1693.56338,635.549296 Z M1453,652.732394 L1456.43662,652.732394 L1456.43662,656.169014 L1453,656.169014 L1453,652.732394 Z M1470.1831,652.732394 L1473.61972,652.732394 L1473.61972,656.169014 L1470.1831,656.169014 L1470.1831,652.732394 Z M1487.3662,652.732394 L1490.80282,652.732394 L1490.80282,656.169014 L1487.3662,656.169014 L1487.3662,652.732394 Z M1504.5493,652.732394 L1507.98592,652.732394 L1507.98592,656.169014 L1504.5493,656.169014 L1504.5493,652.732394 Z M1521.73239,652.732394 L1525.16901,652.732394 L1525.16901,656.169014 L1521.73239,656.169014 L1521.73239,652.732394 Z M1538.91549,652.732394 L1542.35211,652.732394 L1542.35211,656.169014 L1538.91549,656.169014 L1538.91549,652.732394 Z M1556.09859,652.732394 L1559.53521,652.732394 L1559.53521,656.169014 L1556.09859,656.169014 L1556.09859,652.732394 Z M1573.28169,652.732394 L1576.71831,652.732394 L1576.71831,656.169014 L1573.28169,656.169014 L1573.28169,652.732394 Z M1590.46479,652.732394 L1593.90141,652.732394 L1593.90141,656.169014 L1590.46479,656.169014 L1590.46479,652.732394 Z M1607.64789,652.732394 L1611.08451,652.732394 L1611.08451,656.169014 L1607.64789,656.169014 L1607.64789,652.732394 Z M1624.83099,652.732394 L1628.26761,652.732394 L1628.26761,656.169014 L1624.83099,656.169014 L1624.83099,652.732394 Z M1642.01408,652.732394 L1645.4507,652.732394 L1645.4507,656.169014 L1642.01408,656.169014 L1642.01408,652.732394 Z M1659.19718,652.732394 L1662.6338,652.732394 L1662.6338,656.169014 L1659.19718,656.169014 L1659.19718,652.732394 Z M1676.38028,652.732394 L1679.8169,652.732394 L1679.8169,656.169014 L1676.38028,656.169014 L1676.38028,652.732394 Z M1693.56338,652.732394 L1697,652.732394 L1697,656.169014 L1693.56338,656.169014 L1693.56338,652.732394 Z M1453,669.915493 L1456.43662,669.915493 L1456.43662,673.352113 L1453,673.352113 L1453,669.915493 Z M1470.1831,669.915493 L1473.61972,669.915493 L1473.61972,673.352113 L1470.1831,673.352113 L1470.1831,669.915493 Z M1487.3662,669.915493 L1490.80282,669.915493 L1490.80282,673.352113 L1487.3662,673.352113 L1487.3662,669.915493 Z M1504.5493,669.915493 L1507.98592,669.915493 L1507.98592,673.352113 L1504.5493,673.352113 L1504.5493,669.915493 Z M1521.73239,669.915493 L1525.16901,669.915493 L1525.16901,673.352113 L1521.73239,673.352113 L1521.73239,669.915493 Z M1538.91549,669.915493 L1542.35211,669.915493 L1542.35211,673.352113 L1538.91549,673.352113 L1538.91549,669.915493 Z M1556.09859,669.915493 L1559.53521,669.915493 L1559.53521,673.352113 L1556.09859,673.352113 L1556.09859,669.915493 Z M1573.28169,669.915493 L1576.71831,669.915493 L1576.71831,673.352113 L1573.28169,673.352113 L1573.28169,669.915493 Z M1590.46479,669.915493 L1593.90141,669.915493 L1593.90141,673.352113 L1590.46479,673.352113 L1590.46479,669.915493 Z M1607.64789,669.915493 L1611.08451,669.915493 L1611.08451,673.352113 L1607.64789,673.352113 L1607.64789,669.915493 Z M1624.83099,669.915493 L1628.26761,669.915493 L1628.26761,673.352113 L1624.83099,673.352113 L1624.83099,669.915493 Z M1642.01408,669.915493 L1645.4507,669.915493 L1645.4507,673.352113 L1642.01408,673.352113 L1642.01408,669.915493 Z M1659.19718,669.915493 L1662.6338,669.915493 L1662.6338,673.352113 L1659.19718,673.352113 L1659.19718,669.915493 Z M1676.38028,669.915493 L1679.8169,669.915493 L1679.8169,673.352113 L1676.38028,673.352113 L1676.38028,669.915493 Z M1693.56338,669.915493 L1697,669.915493 L1697,673.352113 L1693.56338,673.352113 L1693.56338,669.915493 Z M1453,687.098592 L1456.43662,687.098592 L1456.43662,690.535211 L1453,690.535211 L1453,687.098592 Z M1470.1831,687.098592 L1473.61972,687.098592 L1473.61972,690.535211 L1470.1831,690.535211 L1470.1831,687.098592 Z M1487.3662,687.098592 L1490.80282,687.098592 L1490.80282,690.535211 L1487.3662,690.535211 L1487.3662,687.098592 Z M1504.5493,687.098592 L1507.98592,687.098592 L1507.98592,690.535211 L1504.5493,690.535211 L1504.5493,687.098592 Z M1521.73239,687.098592 L1525.16901,687.098592 L1525.16901,690.535211 L1521.73239,690.535211 L1521.73239,687.098592 Z M1538.91549,687.098592 L1542.35211,687.098592 L1542.35211,690.535211 L1538.91549,690.535211 L1538.91549,687.098592 Z M1556.09859,687.098592 L1559.53521,687.098592 L1559.53521,690.535211 L1556.09859,690.535211 L1556.09859,687.098592 Z M1573.28169,687.098592 L1576.71831,687.098592 L1576.71831,690.535211 L1573.28169,690.535211 L1573.28169,687.098592 Z M1590.46479,687.098592 L1593.90141,687.098592 L1593.90141,690.535211 L1590.46479,690.535211 L1590.46479,687.098592 Z M1607.64789,687.098592 L1611.08451,687.098592 L1611.08451,690.535211 L1607.64789,690.535211 L1607.64789,687.098592 Z M1624.83099,687.098592 L1628.26761,687.098592 L1628.26761,690.535211 L1624.83099,690.535211 L1624.83099,687.098592 Z M1642.01408,687.098592 L1645.4507,687.098592 L1645.4507,690.535211 L1642.01408,690.535211 L1642.01408,687.098592 Z M1659.19718,687.098592 L1662.6338,687.098592 L1662.6338,690.535211 L1659.19718,690.535211 L1659.19718,687.098592 Z M1676.38028,687.098592 L1679.8169,687.098592 L1679.8169,690.535211 L1676.38028,690.535211 L1676.38028,687.098592 Z M1693.56338,687.098592 L1697,687.098592 L1697,690.535211 L1693.56338,690.535211 L1693.56338,687.098592 Z M1453,704.28169 L1456.43662,704.28169 L1456.43662,707.71831 L1453,707.71831 L1453,704.28169 Z M1470.1831,704.28169 L1473.61972,704.28169 L1473.61972,707.71831 L1470.1831,707.71831 L1470.1831,704.28169 Z M1487.3662,704.28169 L1490.80282,704.28169 L1490.80282,707.71831 L1487.3662,707.71831 L1487.3662,704.28169 Z M1504.5493,704.28169 L1507.98592,704.28169 L1507.98592,707.71831 L1504.5493,707.71831 L1504.5493,704.28169 Z M1521.73239,704.28169 L1525.16901,704.28169 L1525.16901,707.71831 L1521.73239,707.71831 L1521.73239,704.28169 Z M1538.91549,704.28169 L1542.35211,704.28169 L1542.35211,707.71831 L1538.91549,707.71831 L1538.91549,704.28169 Z M1556.09859,704.28169 L1559.53521,704.28169 L1559.53521,707.71831 L1556.09859,707.71831 L1556.09859,704.28169 Z M1573.28169,704.28169 L1576.71831,704.28169 L1576.71831,707.71831 L1573.28169,707.71831 L1573.28169,704.28169 Z M1590.46479,704.28169 L1593.90141,704.28169 L1593.90141,707.71831 L1590.46479,707.71831 L1590.46479,704.28169 Z M1607.64789,704.28169 L1611.08451,704.28169 L1611.08451,707.71831 L1607.64789,707.71831 L1607.64789,704.28169 Z M1624.83099,704.28169 L1628.26761,704.28169 L1628.26761,707.71831 L1624.83099,707.71831 L1624.83099,704.28169 Z M1642.01408,704.28169 L1645.4507,704.28169 L1645.4507,707.71831 L1642.01408,707.71831 L1642.01408,704.28169 Z M1659.19718,704.28169 L1662.6338,704.28169 L1662.6338,707.71831 L1659.19718,707.71831 L1659.19718,704.28169 Z M1676.38028,704.28169 L1679.8169,704.28169 L1679.8169,707.71831 L1676.38028,707.71831 L1676.38028,704.28169 Z M1693.56338,704.28169 L1697,704.28169 L1697,707.71831 L1693.56338,707.71831 L1693.56338,704.28169 Z M1453,721.464789 L1456.43662,721.464789 L1456.43662,724.901408 L1453,724.901408 L1453,721.464789 Z M1470.1831,721.464789 L1473.61972,721.464789 L1473.61972,724.901408 L1470.1831,724.901408 L1470.1831,721.464789 Z M1487.3662,721.464789 L1490.80282,721.464789 L1490.80282,724.901408 L1487.3662,724.901408 L1487.3662,721.464789 Z M1504.5493,721.464789 L1507.98592,721.464789 L1507.98592,724.901408 L1504.5493,724.901408 L1504.5493,721.464789 Z M1521.73239,721.464789 L1525.16901,721.464789 L1525.16901,724.901408 L1521.73239,724.901408 L1521.73239,721.464789 Z M1538.91549,721.464789 L1542.35211,721.464789 L1542.35211,724.901408 L1538.91549,724.901408 L1538.91549,721.464789 Z M1556.09859,721.464789 L1559.53521,721.464789 L1559.53521,724.901408 L1556.09859,724.901408 L1556.09859,721.464789 Z M1573.28169,721.464789 L1576.71831,721.464789 L1576.71831,724.901408 L1573.28169,724.901408 L1573.28169,721.464789 Z M1590.46479,721.464789 L1593.90141,721.464789 L1593.90141,724.901408 L1590.46479,724.901408 L1590.46479,721.464789 Z M1607.64789,721.464789 L1611.08451,721.464789 L1611.08451,724.901408 L1607.64789,724.901408 L1607.64789,721.464789 Z M1624.83099,721.464789 L1628.26761,721.464789 L1628.26761,724.901408 L1624.83099,724.901408 L1624.83099,721.464789 Z M1642.01408,721.464789 L1645.4507,721.464789 L1645.4507,724.901408 L1642.01408,724.901408 L1642.01408,721.464789 Z M1659.19718,721.464789 L1662.6338,721.464789 L1662.6338,724.901408 L1659.19718,724.901408 L1659.19718,721.464789 Z M1676.38028,721.464789 L1679.8169,721.464789 L1679.8169,724.901408 L1676.38028,724.901408 L1676.38028,721.464789 Z M1693.56338,721.464789 L1697,721.464789 L1697,724.901408 L1693.56338,724.901408 L1693.56338,721.464789 Z M1453,738.647887 L1456.43662,738.647887 L1456.43662,742.084507 L1453,742.084507 L1453,738.647887 Z M1470.1831,738.647887 L1473.61972,738.647887 L1473.61972,742.084507 L1470.1831,742.084507 L1470.1831,738.647887 Z M1487.3662,738.647887 L1490.80282,738.647887 L1490.80282,742.084507 L1487.3662,742.084507 L1487.3662,738.647887 Z M1504.5493,738.647887 L1507.98592,738.647887 L1507.98592,742.084507 L1504.5493,742.084507 L1504.5493,738.647887 Z M1521.73239,738.647887 L1525.16901,738.647887 L1525.16901,742.084507 L1521.73239,742.084507 L1521.73239,738.647887 Z M1538.91549,738.647887 L1542.35211,738.647887 L1542.35211,742.084507 L1538.91549,742.084507 L1538.91549,738.647887 Z M1556.09859,738.647887 L1559.53521,738.647887 L1559.53521,742.084507 L1556.09859,742.084507 L1556.09859,738.647887 Z M1573.28169,738.647887 L1576.71831,738.647887 L1576.71831,742.084507 L1573.28169,742.084507 L1573.28169,738.647887 Z M1590.46479,738.647887 L1593.90141,738.647887 L1593.90141,742.084507 L1590.46479,742.084507 L1590.46479,738.647887 Z M1607.64789,738.647887 L1611.08451,738.647887 L1611.08451,742.084507 L1607.64789,742.084507 L1607.64789,738.647887 Z M1624.83099,738.647887 L1628.26761,738.647887 L1628.26761,742.084507 L1624.83099,742.084507 L1624.83099,738.647887 Z M1642.01408,738.647887 L1645.4507,738.647887 L1645.4507,742.084507 L1642.01408,742.084507 L1642.01408,738.647887 Z M1659.19718,738.647887 L1662.6338,738.647887 L1662.6338,742.084507 L1659.19718,742.084507 L1659.19718,738.647887 Z M1676.38028,738.647887 L1679.8169,738.647887 L1679.8169,742.084507 L1676.38028,742.084507 L1676.38028,738.647887 Z M1693.56338,738.647887 L1697,738.647887 L1697,742.084507 L1693.56338,742.084507 L1693.56338,738.647887 Z" id="Combined-Shape-Copy" fill="url(#linearGradient-6)" fill-rule="nonzero" opacity="0.447521391" transform="translate(1575.000000, 577.542254) scale(-1, -1) translate(-1575.000000, -577.542254) "></path>
                    <g id="Group-25" stroke-width="1" fill="none" fill-rule="evenodd" transform="translate(1458.000000, 0.000000)">
                        <g id="Path" opacity="0.3" fill-rule="nonzero" transform="translate(240.600000, 170.268736) scale(-1, 1) translate(-240.600000, -170.268736) ">
                            <use fill="black" fill-opacity="1" filter="url(#filter-8)" xlink:href="#path-7"></use>
                            <use fill="url(#linearGradient-1)" xlink:href="#path-7"></use>
                        </g>
                        <g id="Path" fill-rule="nonzero" transform="translate(240.600000, 143.268736) scale(-1, 1) translate(-240.600000, -143.268736) ">
                            <use fill="black" fill-opacity="1" filter="url(#filter-10)" xlink:href="#path-9"></use>
                            <use fill="url(#linearGradient-1)" xlink:href="#path-9"></use>
                        </g>
                    </g>
                </g>
            </g>
        </g>
    </g>
</svg>
