<?xml version="1.0" encoding="UTF-8"?>
<svg width="1440px" height="423px" viewBox="0 0 1440 423" version="1.1" xmlns="http://www.w3.org/2000/svg" xmlns:xlink="http://www.w3.org/1999/xlink">
    <!-- Generator: Sketch 52.5 (67469) - http://www.bohemiancoding.com/sketch -->
    <title>Start a project_BG</title>
    <desc>Created with Sketch.</desc>
    <defs>
        <linearGradient x1="100%" y1="50%" x2="0%" y2="50%" id="linearGradient-1">
            <stop stop-color="#0069DE" offset="0%"></stop>
            <stop stop-color="#008AFF" offset="100%"></stop>
        </linearGradient>
        <rect id="path-2" x="0" y="0" width="1440" height="423"></rect>
        <linearGradient x1="0%" y1="20.6859385%" x2="98.4894328%" y2="98.8019078%" id="linearGradient-4">
            <stop stop-color="#2E86E9" offset="0%"></stop>
            <stop stop-color="#008AFF" stop-opacity="0.7" offset="100%"></stop>
        </linearGradient>
        <linearGradient x1="0%" y1="20.6859385%" x2="98.4894328%" y2="98.8019078%" id="linearGradient-5">
            <stop stop-color="#0069DE" offset="0%"></stop>
            <stop stop-color="#0069E1" stop-opacity="0.4" offset="100%"></stop>
        </linearGradient>
        <polyline id="path-6" points="1428.2 222.7 1115.3 42 887 174.7 1199.9 355.4 1428.2 222.7"></polyline>
        <filter x="-2.1%" y="-3.7%" width="104.2%" height="113.9%" filterUnits="objectBoundingBox" id="filter-7">
            <feMorphology radius="8" operator="erode" in="SourceAlpha" result="shadowSpreadOuter1"></feMorphology>
            <feOffset dx="0" dy="15" in="shadowSpreadOuter1" result="shadowOffsetOuter1"></feOffset>
            <feGaussianBlur stdDeviation="12" in="shadowOffsetOuter1" result="shadowBlurOuter1"></feGaussianBlur>
            <feColorMatrix values="0 0 0 0 0   0 0 0 0 0.411764706   0 0 0 0 0.870588235  0 0 0 0.5 0" type="matrix" in="shadowBlurOuter1"></feColorMatrix>
        </filter>
        <polyline id="path-8" points="1428.2 180.7 1115.3 -1.70530257e-13 887 132.7 1199.9 313.4 1428.2 180.7"></polyline>
        <filter x="-2.1%" y="-3.7%" width="104.2%" height="113.9%" filterUnits="objectBoundingBox" id="filter-9">
            <feMorphology radius="8" operator="erode" in="SourceAlpha" result="shadowSpreadOuter1"></feMorphology>
            <feOffset dx="0" dy="15" in="shadowSpreadOuter1" result="shadowOffsetOuter1"></feOffset>
            <feGaussianBlur stdDeviation="12" in="shadowOffsetOuter1" result="shadowBlurOuter1"></feGaussianBlur>
            <feColorMatrix values="0 0 0 0 0   0 0 0 0 0.411764706   0 0 0 0 0.870588235  0 0 0 0.5 0" type="matrix" in="shadowBlurOuter1"></feColorMatrix>
        </filter>
        <linearGradient x1="17.0342099%" y1="43.8389186%" x2="50%" y2="100%" id="linearGradient-10">
            <stop stop-color="#0069DE" stop-opacity="0.668931159" offset="0%"></stop>
            <stop stop-color="#008AFF" stop-opacity="0.181244339" offset="100%"></stop>
        </linearGradient>
    </defs>
    <g id="Desktop" stroke="none" stroke-width="1" fill="none" fill-rule="evenodd">
        <g id="Google-Cloud-Partner" transform="translate(0.000000, -3683.000000)">
            <g id="Group-12" transform="translate(0.000000, 1938.000000)">
                <g id="Group-3" transform="translate(0.000000, 1745.000000)">
                    <g id="Group-13-Copy">
                        <g id="Group-14">
                            <g id="Start-a-project_BG">
                                <g id="Bottom---Background">
                                    <mask id="mask-3" fill="white">
                                        <use xlink:href="#path-2"></use>
                                    </mask>
                                    <use id="Rectangle" fill="url(#linearGradient-1)" fill-rule="nonzero" transform="translate(720.000000, 211.500000) scale(-1, 1) translate(-720.000000, -211.500000) " xlink:href="#path-2"></use>
                                    <g id="Group-29" mask="url(#mask-3)">
                                        <g transform="translate(-133.000000, -173.000000)">
                                            <path d="M449,113 L452.43662,113 L452.43662,116.43662 L449,116.43662 L449,113 Z M466.183099,113 L469.619718,113 L469.619718,116.43662 L466.183099,116.43662 L466.183099,113 Z M483.366197,113 L486.802817,113 L486.802817,116.43662 L483.366197,116.43662 L483.366197,113 Z M500.549296,113 L503.985915,113 L503.985915,116.43662 L500.549296,116.43662 L500.549296,113 Z M517.732394,113 L521.169014,113 L521.169014,116.43662 L517.732394,116.43662 L517.732394,113 Z M534.915493,113 L538.352113,113 L538.352113,116.43662 L534.915493,116.43662 L534.915493,113 Z M552.098592,113 L555.535211,113 L555.535211,116.43662 L552.098592,116.43662 L552.098592,113 Z M569.28169,113 L572.71831,113 L572.71831,116.43662 L569.28169,116.43662 L569.28169,113 Z M586.464789,113 L589.901408,113 L589.901408,116.43662 L586.464789,116.43662 L586.464789,113 Z M603.647887,113 L607.084507,113 L607.084507,116.43662 L603.647887,116.43662 L603.647887,113 Z M620.830986,113 L624.267606,113 L624.267606,116.43662 L620.830986,116.43662 L620.830986,113 Z M638.014085,113 L641.450704,113 L641.450704,116.43662 L638.014085,116.43662 L638.014085,113 Z M655.197183,113 L658.633803,113 L658.633803,116.43662 L655.197183,116.43662 L655.197183,113 Z M672.380282,113 L675.816901,113 L675.816901,116.43662 L672.380282,116.43662 L672.380282,113 Z M689.56338,113 L693,113 L693,116.43662 L689.56338,116.43662 L689.56338,113 Z M449,130.183099 L452.43662,130.183099 L452.43662,133.619718 L449,133.619718 L449,130.183099 Z M466.183099,130.183099 L469.619718,130.183099 L469.619718,133.619718 L466.183099,133.619718 L466.183099,130.183099 Z M483.366197,130.183099 L486.802817,130.183099 L486.802817,133.619718 L483.366197,133.619718 L483.366197,130.183099 Z M500.549296,130.183099 L503.985915,130.183099 L503.985915,133.619718 L500.549296,133.619718 L500.549296,130.183099 Z M517.732394,130.183099 L521.169014,130.183099 L521.169014,133.619718 L517.732394,133.619718 L517.732394,130.183099 Z M534.915493,130.183099 L538.352113,130.183099 L538.352113,133.619718 L534.915493,133.619718 L534.915493,130.183099 Z M552.098592,130.183099 L555.535211,130.183099 L555.535211,133.619718 L552.098592,133.619718 L552.098592,130.183099 Z M569.28169,130.183099 L572.71831,130.183099 L572.71831,133.619718 L569.28169,133.619718 L569.28169,130.183099 Z M586.464789,130.183099 L589.901408,130.183099 L589.901408,133.619718 L586.464789,133.619718 L586.464789,130.183099 Z M603.647887,130.183099 L607.084507,130.183099 L607.084507,133.619718 L603.647887,133.619718 L603.647887,130.183099 Z M620.830986,130.183099 L624.267606,130.183099 L624.267606,133.619718 L620.830986,133.619718 L620.830986,130.183099 Z M638.014085,130.183099 L641.450704,130.183099 L641.450704,133.619718 L638.014085,133.619718 L638.014085,130.183099 Z M655.197183,130.183099 L658.633803,130.183099 L658.633803,133.619718 L655.197183,133.619718 L655.197183,130.183099 Z M672.380282,130.183099 L675.816901,130.183099 L675.816901,133.619718 L672.380282,133.619718 L672.380282,130.183099 Z M689.56338,130.183099 L693,130.183099 L693,133.619718 L689.56338,133.619718 L689.56338,130.183099 Z M449,147.366197 L452.43662,147.366197 L452.43662,150.802817 L449,150.802817 L449,147.366197 Z M466.183099,147.366197 L469.619718,147.366197 L469.619718,150.802817 L466.183099,150.802817 L466.183099,147.366197 Z M483.366197,147.366197 L486.802817,147.366197 L486.802817,150.802817 L483.366197,150.802817 L483.366197,147.366197 Z M500.549296,147.366197 L503.985915,147.366197 L503.985915,150.802817 L500.549296,150.802817 L500.549296,147.366197 Z M517.732394,147.366197 L521.169014,147.366197 L521.169014,150.802817 L517.732394,150.802817 L517.732394,147.366197 Z M534.915493,147.366197 L538.352113,147.366197 L538.352113,150.802817 L534.915493,150.802817 L534.915493,147.366197 Z M552.098592,147.366197 L555.535211,147.366197 L555.535211,150.802817 L552.098592,150.802817 L552.098592,147.366197 Z M569.28169,147.366197 L572.71831,147.366197 L572.71831,150.802817 L569.28169,150.802817 L569.28169,147.366197 Z M586.464789,147.366197 L589.901408,147.366197 L589.901408,150.802817 L586.464789,150.802817 L586.464789,147.366197 Z M603.647887,147.366197 L607.084507,147.366197 L607.084507,150.802817 L603.647887,150.802817 L603.647887,147.366197 Z M620.830986,147.366197 L624.267606,147.366197 L624.267606,150.802817 L620.830986,150.802817 L620.830986,147.366197 Z M638.014085,147.366197 L641.450704,147.366197 L641.450704,150.802817 L638.014085,150.802817 L638.014085,147.366197 Z M655.197183,147.366197 L658.633803,147.366197 L658.633803,150.802817 L655.197183,150.802817 L655.197183,147.366197 Z M672.380282,147.366197 L675.816901,147.366197 L675.816901,150.802817 L672.380282,150.802817 L672.380282,147.366197 Z M689.56338,147.366197 L693,147.366197 L693,150.802817 L689.56338,150.802817 L689.56338,147.366197 Z M449,164.549296 L452.43662,164.549296 L452.43662,167.985915 L449,167.985915 L449,164.549296 Z M466.183099,164.549296 L469.619718,164.549296 L469.619718,167.985915 L466.183099,167.985915 L466.183099,164.549296 Z M483.366197,164.549296 L486.802817,164.549296 L486.802817,167.985915 L483.366197,167.985915 L483.366197,164.549296 Z M500.549296,164.549296 L503.985915,164.549296 L503.985915,167.985915 L500.549296,167.985915 L500.549296,164.549296 Z M517.732394,164.549296 L521.169014,164.549296 L521.169014,167.985915 L517.732394,167.985915 L517.732394,164.549296 Z M534.915493,164.549296 L538.352113,164.549296 L538.352113,167.985915 L534.915493,167.985915 L534.915493,164.549296 Z M552.098592,164.549296 L555.535211,164.549296 L555.535211,167.985915 L552.098592,167.985915 L552.098592,164.549296 Z M569.28169,164.549296 L572.71831,164.549296 L572.71831,167.985915 L569.28169,167.985915 L569.28169,164.549296 Z M586.464789,164.549296 L589.901408,164.549296 L589.901408,167.985915 L586.464789,167.985915 L586.464789,164.549296 Z M603.647887,164.549296 L607.084507,164.549296 L607.084507,167.985915 L603.647887,167.985915 L603.647887,164.549296 Z M620.830986,164.549296 L624.267606,164.549296 L624.267606,167.985915 L620.830986,167.985915 L620.830986,164.549296 Z M638.014085,164.549296 L641.450704,164.549296 L641.450704,167.985915 L638.014085,167.985915 L638.014085,164.549296 Z M655.197183,164.549296 L658.633803,164.549296 L658.633803,167.985915 L655.197183,167.985915 L655.197183,164.549296 Z M672.380282,164.549296 L675.816901,164.549296 L675.816901,167.985915 L672.380282,167.985915 L672.380282,164.549296 Z M689.56338,164.549296 L693,164.549296 L693,167.985915 L689.56338,167.985915 L689.56338,164.549296 Z M449,181.732394 L452.43662,181.732394 L452.43662,185.169014 L449,185.169014 L449,181.732394 Z M466.183099,181.732394 L469.619718,181.732394 L469.619718,185.169014 L466.183099,185.169014 L466.183099,181.732394 Z M483.366197,181.732394 L486.802817,181.732394 L486.802817,185.169014 L483.366197,185.169014 L483.366197,181.732394 Z M500.549296,181.732394 L503.985915,181.732394 L503.985915,185.169014 L500.549296,185.169014 L500.549296,181.732394 Z M517.732394,181.732394 L521.169014,181.732394 L521.169014,185.169014 L517.732394,185.169014 L517.732394,181.732394 Z M534.915493,181.732394 L538.352113,181.732394 L538.352113,185.169014 L534.915493,185.169014 L534.915493,181.732394 Z M552.098592,181.732394 L555.535211,181.732394 L555.535211,185.169014 L552.098592,185.169014 L552.098592,181.732394 Z M569.28169,181.732394 L572.71831,181.732394 L572.71831,185.169014 L569.28169,185.169014 L569.28169,181.732394 Z M586.464789,181.732394 L589.901408,181.732394 L589.901408,185.169014 L586.464789,185.169014 L586.464789,181.732394 Z M603.647887,181.732394 L607.084507,181.732394 L607.084507,185.169014 L603.647887,185.169014 L603.647887,181.732394 Z M620.830986,181.732394 L624.267606,181.732394 L624.267606,185.169014 L620.830986,185.169014 L620.830986,181.732394 Z M638.014085,181.732394 L641.450704,181.732394 L641.450704,185.169014 L638.014085,185.169014 L638.014085,181.732394 Z M655.197183,181.732394 L658.633803,181.732394 L658.633803,185.169014 L655.197183,185.169014 L655.197183,181.732394 Z M672.380282,181.732394 L675.816901,181.732394 L675.816901,185.169014 L672.380282,185.169014 L672.380282,181.732394 Z M689.56338,181.732394 L693,181.732394 L693,185.169014 L689.56338,185.169014 L689.56338,181.732394 Z M449,198.915493 L452.43662,198.915493 L452.43662,202.352113 L449,202.352113 L449,198.915493 Z M466.183099,198.915493 L469.619718,198.915493 L469.619718,202.352113 L466.183099,202.352113 L466.183099,198.915493 Z M483.366197,198.915493 L486.802817,198.915493 L486.802817,202.352113 L483.366197,202.352113 L483.366197,198.915493 Z M500.549296,198.915493 L503.985915,198.915493 L503.985915,202.352113 L500.549296,202.352113 L500.549296,198.915493 Z M517.732394,198.915493 L521.169014,198.915493 L521.169014,202.352113 L517.732394,202.352113 L517.732394,198.915493 Z M534.915493,198.915493 L538.352113,198.915493 L538.352113,202.352113 L534.915493,202.352113 L534.915493,198.915493 Z M552.098592,198.915493 L555.535211,198.915493 L555.535211,202.352113 L552.098592,202.352113 L552.098592,198.915493 Z M569.28169,198.915493 L572.71831,198.915493 L572.71831,202.352113 L569.28169,202.352113 L569.28169,198.915493 Z M586.464789,198.915493 L589.901408,198.915493 L589.901408,202.352113 L586.464789,202.352113 L586.464789,198.915493 Z M603.647887,198.915493 L607.084507,198.915493 L607.084507,202.352113 L603.647887,202.352113 L603.647887,198.915493 Z M620.830986,198.915493 L624.267606,198.915493 L624.267606,202.352113 L620.830986,202.352113 L620.830986,198.915493 Z M638.014085,198.915493 L641.450704,198.915493 L641.450704,202.352113 L638.014085,202.352113 L638.014085,198.915493 Z M655.197183,198.915493 L658.633803,198.915493 L658.633803,202.352113 L655.197183,202.352113 L655.197183,198.915493 Z M672.380282,198.915493 L675.816901,198.915493 L675.816901,202.352113 L672.380282,202.352113 L672.380282,198.915493 Z M689.56338,198.915493 L693,198.915493 L693,202.352113 L689.56338,202.352113 L689.56338,198.915493 Z M449,216.098592 L452.43662,216.098592 L452.43662,219.535211 L449,219.535211 L449,216.098592 Z M466.183099,216.098592 L469.619718,216.098592 L469.619718,219.535211 L466.183099,219.535211 L466.183099,216.098592 Z M483.366197,216.098592 L486.802817,216.098592 L486.802817,219.535211 L483.366197,219.535211 L483.366197,216.098592 Z M500.549296,216.098592 L503.985915,216.098592 L503.985915,219.535211 L500.549296,219.535211 L500.549296,216.098592 Z M517.732394,216.098592 L521.169014,216.098592 L521.169014,219.535211 L517.732394,219.535211 L517.732394,216.098592 Z M534.915493,216.098592 L538.352113,216.098592 L538.352113,219.535211 L534.915493,219.535211 L534.915493,216.098592 Z M552.098592,216.098592 L555.535211,216.098592 L555.535211,219.535211 L552.098592,219.535211 L552.098592,216.098592 Z M569.28169,216.098592 L572.71831,216.098592 L572.71831,219.535211 L569.28169,219.535211 L569.28169,216.098592 Z M586.464789,216.098592 L589.901408,216.098592 L589.901408,219.535211 L586.464789,219.535211 L586.464789,216.098592 Z M603.647887,216.098592 L607.084507,216.098592 L607.084507,219.535211 L603.647887,219.535211 L603.647887,216.098592 Z M620.830986,216.098592 L624.267606,216.098592 L624.267606,219.535211 L620.830986,219.535211 L620.830986,216.098592 Z M638.014085,216.098592 L641.450704,216.098592 L641.450704,219.535211 L638.014085,219.535211 L638.014085,216.098592 Z M655.197183,216.098592 L658.633803,216.098592 L658.633803,219.535211 L655.197183,219.535211 L655.197183,216.098592 Z M672.380282,216.098592 L675.816901,216.098592 L675.816901,219.535211 L672.380282,219.535211 L672.380282,216.098592 Z M689.56338,216.098592 L693,216.098592 L693,219.535211 L689.56338,219.535211 L689.56338,216.098592 Z M449,233.28169 L452.43662,233.28169 L452.43662,236.71831 L449,236.71831 L449,233.28169 Z M466.183099,233.28169 L469.619718,233.28169 L469.619718,236.71831 L466.183099,236.71831 L466.183099,233.28169 Z M483.366197,233.28169 L486.802817,233.28169 L486.802817,236.71831 L483.366197,236.71831 L483.366197,233.28169 Z M500.549296,233.28169 L503.985915,233.28169 L503.985915,236.71831 L500.549296,236.71831 L500.549296,233.28169 Z M517.732394,233.28169 L521.169014,233.28169 L521.169014,236.71831 L517.732394,236.71831 L517.732394,233.28169 Z M534.915493,233.28169 L538.352113,233.28169 L538.352113,236.71831 L534.915493,236.71831 L534.915493,233.28169 Z M552.098592,233.28169 L555.535211,233.28169 L555.535211,236.71831 L552.098592,236.71831 L552.098592,233.28169 Z M569.28169,233.28169 L572.71831,233.28169 L572.71831,236.71831 L569.28169,236.71831 L569.28169,233.28169 Z M586.464789,233.28169 L589.901408,233.28169 L589.901408,236.71831 L586.464789,236.71831 L586.464789,233.28169 Z M603.647887,233.28169 L607.084507,233.28169 L607.084507,236.71831 L603.647887,236.71831 L603.647887,233.28169 Z M620.830986,233.28169 L624.267606,233.28169 L624.267606,236.71831 L620.830986,236.71831 L620.830986,233.28169 Z M638.014085,233.28169 L641.450704,233.28169 L641.450704,236.71831 L638.014085,236.71831 L638.014085,233.28169 Z M655.197183,233.28169 L658.633803,233.28169 L658.633803,236.71831 L655.197183,236.71831 L655.197183,233.28169 Z M672.380282,233.28169 L675.816901,233.28169 L675.816901,236.71831 L672.380282,236.71831 L672.380282,233.28169 Z M689.56338,233.28169 L693,233.28169 L693,236.71831 L689.56338,236.71831 L689.56338,233.28169 Z M449,250.464789 L452.43662,250.464789 L452.43662,253.901408 L449,253.901408 L449,250.464789 Z M466.183099,250.464789 L469.619718,250.464789 L469.619718,253.901408 L466.183099,253.901408 L466.183099,250.464789 Z M483.366197,250.464789 L486.802817,250.464789 L486.802817,253.901408 L483.366197,253.901408 L483.366197,250.464789 Z M500.549296,250.464789 L503.985915,250.464789 L503.985915,253.901408 L500.549296,253.901408 L500.549296,250.464789 Z M517.732394,250.464789 L521.169014,250.464789 L521.169014,253.901408 L517.732394,253.901408 L517.732394,250.464789 Z M534.915493,250.464789 L538.352113,250.464789 L538.352113,253.901408 L534.915493,253.901408 L534.915493,250.464789 Z M552.098592,250.464789 L555.535211,250.464789 L555.535211,253.901408 L552.098592,253.901408 L552.098592,250.464789 Z M569.28169,250.464789 L572.71831,250.464789 L572.71831,253.901408 L569.28169,253.901408 L569.28169,250.464789 Z M586.464789,250.464789 L589.901408,250.464789 L589.901408,253.901408 L586.464789,253.901408 L586.464789,250.464789 Z M603.647887,250.464789 L607.084507,250.464789 L607.084507,253.901408 L603.647887,253.901408 L603.647887,250.464789 Z M620.830986,250.464789 L624.267606,250.464789 L624.267606,253.901408 L620.830986,253.901408 L620.830986,250.464789 Z M638.014085,250.464789 L641.450704,250.464789 L641.450704,253.901408 L638.014085,253.901408 L638.014085,250.464789 Z M655.197183,250.464789 L658.633803,250.464789 L658.633803,253.901408 L655.197183,253.901408 L655.197183,250.464789 Z M672.380282,250.464789 L675.816901,250.464789 L675.816901,253.901408 L672.380282,253.901408 L672.380282,250.464789 Z M689.56338,250.464789 L693,250.464789 L693,253.901408 L689.56338,253.901408 L689.56338,250.464789 Z M449,267.647887 L452.43662,267.647887 L452.43662,271.084507 L449,271.084507 L449,267.647887 Z M466.183099,267.647887 L469.619718,267.647887 L469.619718,271.084507 L466.183099,271.084507 L466.183099,267.647887 Z M483.366197,267.647887 L486.802817,267.647887 L486.802817,271.084507 L483.366197,271.084507 L483.366197,267.647887 Z M500.549296,267.647887 L503.985915,267.647887 L503.985915,271.084507 L500.549296,271.084507 L500.549296,267.647887 Z M517.732394,267.647887 L521.169014,267.647887 L521.169014,271.084507 L517.732394,271.084507 L517.732394,267.647887 Z M534.915493,267.647887 L538.352113,267.647887 L538.352113,271.084507 L534.915493,271.084507 L534.915493,267.647887 Z M552.098592,267.647887 L555.535211,267.647887 L555.535211,271.084507 L552.098592,271.084507 L552.098592,267.647887 Z M569.28169,267.647887 L572.71831,267.647887 L572.71831,271.084507 L569.28169,271.084507 L569.28169,267.647887 Z M586.464789,267.647887 L589.901408,267.647887 L589.901408,271.084507 L586.464789,271.084507 L586.464789,267.647887 Z M603.647887,267.647887 L607.084507,267.647887 L607.084507,271.084507 L603.647887,271.084507 L603.647887,267.647887 Z M620.830986,267.647887 L624.267606,267.647887 L624.267606,271.084507 L620.830986,271.084507 L620.830986,267.647887 Z M638.014085,267.647887 L641.450704,267.647887 L641.450704,271.084507 L638.014085,271.084507 L638.014085,267.647887 Z M655.197183,267.647887 L658.633803,267.647887 L658.633803,271.084507 L655.197183,271.084507 L655.197183,267.647887 Z M672.380282,267.647887 L675.816901,267.647887 L675.816901,271.084507 L672.380282,271.084507 L672.380282,267.647887 Z M689.56338,267.647887 L693,267.647887 L693,271.084507 L689.56338,271.084507 L689.56338,267.647887 Z M449,284 L452.43662,284 L452.43662,287.43662 L449,287.43662 L449,284 Z M466.183099,284 L469.619718,284 L469.619718,287.43662 L466.183099,287.43662 L466.183099,284 Z M483.366197,284 L486.802817,284 L486.802817,287.43662 L483.366197,287.43662 L483.366197,284 Z M500.549296,284 L503.985915,284 L503.985915,287.43662 L500.549296,287.43662 L500.549296,284 Z M517.732394,284 L521.169014,284 L521.169014,287.43662 L517.732394,287.43662 L517.732394,284 Z M534.915493,284 L538.352113,284 L538.352113,287.43662 L534.915493,287.43662 L534.915493,284 Z M552.098592,284 L555.535211,284 L555.535211,287.43662 L552.098592,287.43662 L552.098592,284 Z M569.28169,284 L572.71831,284 L572.71831,287.43662 L569.28169,287.43662 L569.28169,284 Z M586.464789,284 L589.901408,284 L589.901408,287.43662 L586.464789,287.43662 L586.464789,284 Z M603.647887,284 L607.084507,284 L607.084507,287.43662 L603.647887,287.43662 L603.647887,284 Z M620.830986,284 L624.267606,284 L624.267606,287.43662 L620.830986,287.43662 L620.830986,284 Z M638.014085,284 L641.450704,284 L641.450704,287.43662 L638.014085,287.43662 L638.014085,284 Z M655.197183,284 L658.633803,284 L658.633803,287.43662 L655.197183,287.43662 L655.197183,284 Z M672.380282,284 L675.816901,284 L675.816901,287.43662 L672.380282,287.43662 L672.380282,284 Z M689.56338,284 L693,284 L693,287.43662 L689.56338,287.43662 L689.56338,284 Z M449,301.183099 L452.43662,301.183099 L452.43662,304.619718 L449,304.619718 L449,301.183099 Z M466.183099,301.183099 L469.619718,301.183099 L469.619718,304.619718 L466.183099,304.619718 L466.183099,301.183099 Z M483.366197,301.183099 L486.802817,301.183099 L486.802817,304.619718 L483.366197,304.619718 L483.366197,301.183099 Z M500.549296,301.183099 L503.985915,301.183099 L503.985915,304.619718 L500.549296,304.619718 L500.549296,301.183099 Z M517.732394,301.183099 L521.169014,301.183099 L521.169014,304.619718 L517.732394,304.619718 L517.732394,301.183099 Z M534.915493,301.183099 L538.352113,301.183099 L538.352113,304.619718 L534.915493,304.619718 L534.915493,301.183099 Z M552.098592,301.183099 L555.535211,301.183099 L555.535211,304.619718 L552.098592,304.619718 L552.098592,301.183099 Z M569.28169,301.183099 L572.71831,301.183099 L572.71831,304.619718 L569.28169,304.619718 L569.28169,301.183099 Z M586.464789,301.183099 L589.901408,301.183099 L589.901408,304.619718 L586.464789,304.619718 L586.464789,301.183099 Z M603.647887,301.183099 L607.084507,301.183099 L607.084507,304.619718 L603.647887,304.619718 L603.647887,301.183099 Z M620.830986,301.183099 L624.267606,301.183099 L624.267606,304.619718 L620.830986,304.619718 L620.830986,301.183099 Z M638.014085,301.183099 L641.450704,301.183099 L641.450704,304.619718 L638.014085,304.619718 L638.014085,301.183099 Z M655.197183,301.183099 L658.633803,301.183099 L658.633803,304.619718 L655.197183,304.619718 L655.197183,301.183099 Z M672.380282,301.183099 L675.816901,301.183099 L675.816901,304.619718 L672.380282,304.619718 L672.380282,301.183099 Z M689.56338,301.183099 L693,301.183099 L693,304.619718 L689.56338,304.619718 L689.56338,301.183099 Z M449,318.366197 L452.43662,318.366197 L452.43662,321.802817 L449,321.802817 L449,318.366197 Z M466.183099,318.366197 L469.619718,318.366197 L469.619718,321.802817 L466.183099,321.802817 L466.183099,318.366197 Z M483.366197,318.366197 L486.802817,318.366197 L486.802817,321.802817 L483.366197,321.802817 L483.366197,318.366197 Z M500.549296,318.366197 L503.985915,318.366197 L503.985915,321.802817 L500.549296,321.802817 L500.549296,318.366197 Z M517.732394,318.366197 L521.169014,318.366197 L521.169014,321.802817 L517.732394,321.802817 L517.732394,318.366197 Z M534.915493,318.366197 L538.352113,318.366197 L538.352113,321.802817 L534.915493,321.802817 L534.915493,318.366197 Z M552.098592,318.366197 L555.535211,318.366197 L555.535211,321.802817 L552.098592,321.802817 L552.098592,318.366197 Z M569.28169,318.366197 L572.71831,318.366197 L572.71831,321.802817 L569.28169,321.802817 L569.28169,318.366197 Z M586.464789,318.366197 L589.901408,318.366197 L589.901408,321.802817 L586.464789,321.802817 L586.464789,318.366197 Z M603.647887,318.366197 L607.084507,318.366197 L607.084507,321.802817 L603.647887,321.802817 L603.647887,318.366197 Z M620.830986,318.366197 L624.267606,318.366197 L624.267606,321.802817 L620.830986,321.802817 L620.830986,318.366197 Z M638.014085,318.366197 L641.450704,318.366197 L641.450704,321.802817 L638.014085,321.802817 L638.014085,318.366197 Z M655.197183,318.366197 L658.633803,318.366197 L658.633803,321.802817 L655.197183,321.802817 L655.197183,318.366197 Z M672.380282,318.366197 L675.816901,318.366197 L675.816901,321.802817 L672.380282,321.802817 L672.380282,318.366197 Z M689.56338,318.366197 L693,318.366197 L693,321.802817 L689.56338,321.802817 L689.56338,318.366197 Z M449,335.549296 L452.43662,335.549296 L452.43662,338.985915 L449,338.985915 L449,335.549296 Z M466.183099,335.549296 L469.619718,335.549296 L469.619718,338.985915 L466.183099,338.985915 L466.183099,335.549296 Z M483.366197,335.549296 L486.802817,335.549296 L486.802817,338.985915 L483.366197,338.985915 L483.366197,335.549296 Z M500.549296,335.549296 L503.985915,335.549296 L503.985915,338.985915 L500.549296,338.985915 L500.549296,335.549296 Z M517.732394,335.549296 L521.169014,335.549296 L521.169014,338.985915 L517.732394,338.985915 L517.732394,335.549296 Z M534.915493,335.549296 L538.352113,335.549296 L538.352113,338.985915 L534.915493,338.985915 L534.915493,335.549296 Z M552.098592,335.549296 L555.535211,335.549296 L555.535211,338.985915 L552.098592,338.985915 L552.098592,335.549296 Z M569.28169,335.549296 L572.71831,335.549296 L572.71831,338.985915 L569.28169,338.985915 L569.28169,335.549296 Z M586.464789,335.549296 L589.901408,335.549296 L589.901408,338.985915 L586.464789,338.985915 L586.464789,335.549296 Z M603.647887,335.549296 L607.084507,335.549296 L607.084507,338.985915 L603.647887,338.985915 L603.647887,335.549296 Z M620.830986,335.549296 L624.267606,335.549296 L624.267606,338.985915 L620.830986,338.985915 L620.830986,335.549296 Z M638.014085,335.549296 L641.450704,335.549296 L641.450704,338.985915 L638.014085,338.985915 L638.014085,335.549296 Z M655.197183,335.549296 L658.633803,335.549296 L658.633803,338.985915 L655.197183,338.985915 L655.197183,335.549296 Z M672.380282,335.549296 L675.816901,335.549296 L675.816901,338.985915 L672.380282,338.985915 L672.380282,335.549296 Z M689.56338,335.549296 L693,335.549296 L693,338.985915 L689.56338,338.985915 L689.56338,335.549296 Z M449,352.732394 L452.43662,352.732394 L452.43662,356.169014 L449,356.169014 L449,352.732394 Z M466.183099,352.732394 L469.619718,352.732394 L469.619718,356.169014 L466.183099,356.169014 L466.183099,352.732394 Z M483.366197,352.732394 L486.802817,352.732394 L486.802817,356.169014 L483.366197,356.169014 L483.366197,352.732394 Z M500.549296,352.732394 L503.985915,352.732394 L503.985915,356.169014 L500.549296,356.169014 L500.549296,352.732394 Z M517.732394,352.732394 L521.169014,352.732394 L521.169014,356.169014 L517.732394,356.169014 L517.732394,352.732394 Z M534.915493,352.732394 L538.352113,352.732394 L538.352113,356.169014 L534.915493,356.169014 L534.915493,352.732394 Z M552.098592,352.732394 L555.535211,352.732394 L555.535211,356.169014 L552.098592,356.169014 L552.098592,352.732394 Z M569.28169,352.732394 L572.71831,352.732394 L572.71831,356.169014 L569.28169,356.169014 L569.28169,352.732394 Z M586.464789,352.732394 L589.901408,352.732394 L589.901408,356.169014 L586.464789,356.169014 L586.464789,352.732394 Z M603.647887,352.732394 L607.084507,352.732394 L607.084507,356.169014 L603.647887,356.169014 L603.647887,352.732394 Z M620.830986,352.732394 L624.267606,352.732394 L624.267606,356.169014 L620.830986,356.169014 L620.830986,352.732394 Z M638.014085,352.732394 L641.450704,352.732394 L641.450704,356.169014 L638.014085,356.169014 L638.014085,352.732394 Z M655.197183,352.732394 L658.633803,352.732394 L658.633803,356.169014 L655.197183,356.169014 L655.197183,352.732394 Z M672.380282,352.732394 L675.816901,352.732394 L675.816901,356.169014 L672.380282,356.169014 L672.380282,352.732394 Z M689.56338,352.732394 L693,352.732394 L693,356.169014 L689.56338,356.169014 L689.56338,352.732394 Z M449,369.915493 L452.43662,369.915493 L452.43662,373.352113 L449,373.352113 L449,369.915493 Z M466.183099,369.915493 L469.619718,369.915493 L469.619718,373.352113 L466.183099,373.352113 L466.183099,369.915493 Z M483.366197,369.915493 L486.802817,369.915493 L486.802817,373.352113 L483.366197,373.352113 L483.366197,369.915493 Z M500.549296,369.915493 L503.985915,369.915493 L503.985915,373.352113 L500.549296,373.352113 L500.549296,369.915493 Z M517.732394,369.915493 L521.169014,369.915493 L521.169014,373.352113 L517.732394,373.352113 L517.732394,369.915493 Z M534.915493,369.915493 L538.352113,369.915493 L538.352113,373.352113 L534.915493,373.352113 L534.915493,369.915493 Z M552.098592,369.915493 L555.535211,369.915493 L555.535211,373.352113 L552.098592,373.352113 L552.098592,369.915493 Z M569.28169,369.915493 L572.71831,369.915493 L572.71831,373.352113 L569.28169,373.352113 L569.28169,369.915493 Z M586.464789,369.915493 L589.901408,369.915493 L589.901408,373.352113 L586.464789,373.352113 L586.464789,369.915493 Z M603.647887,369.915493 L607.084507,369.915493 L607.084507,373.352113 L603.647887,373.352113 L603.647887,369.915493 Z M620.830986,369.915493 L624.267606,369.915493 L624.267606,373.352113 L620.830986,373.352113 L620.830986,369.915493 Z M638.014085,369.915493 L641.450704,369.915493 L641.450704,373.352113 L638.014085,373.352113 L638.014085,369.915493 Z M655.197183,369.915493 L658.633803,369.915493 L658.633803,373.352113 L655.197183,373.352113 L655.197183,369.915493 Z M672.380282,369.915493 L675.816901,369.915493 L675.816901,373.352113 L672.380282,373.352113 L672.380282,369.915493 Z M689.56338,369.915493 L693,369.915493 L693,373.352113 L689.56338,373.352113 L689.56338,369.915493 Z M449,387.098592 L452.43662,387.098592 L452.43662,390.535211 L449,390.535211 L449,387.098592 Z M466.183099,387.098592 L469.619718,387.098592 L469.619718,390.535211 L466.183099,390.535211 L466.183099,387.098592 Z M483.366197,387.098592 L486.802817,387.098592 L486.802817,390.535211 L483.366197,390.535211 L483.366197,387.098592 Z M500.549296,387.098592 L503.985915,387.098592 L503.985915,390.535211 L500.549296,390.535211 L500.549296,387.098592 Z M517.732394,387.098592 L521.169014,387.098592 L521.169014,390.535211 L517.732394,390.535211 L517.732394,387.098592 Z M534.915493,387.098592 L538.352113,387.098592 L538.352113,390.535211 L534.915493,390.535211 L534.915493,387.098592 Z M552.098592,387.098592 L555.535211,387.098592 L555.535211,390.535211 L552.098592,390.535211 L552.098592,387.098592 Z M569.28169,387.098592 L572.71831,387.098592 L572.71831,390.535211 L569.28169,390.535211 L569.28169,387.098592 Z M586.464789,387.098592 L589.901408,387.098592 L589.901408,390.535211 L586.464789,390.535211 L586.464789,387.098592 Z M603.647887,387.098592 L607.084507,387.098592 L607.084507,390.535211 L603.647887,390.535211 L603.647887,387.098592 Z M620.830986,387.098592 L624.267606,387.098592 L624.267606,390.535211 L620.830986,390.535211 L620.830986,387.098592 Z M638.014085,387.098592 L641.450704,387.098592 L641.450704,390.535211 L638.014085,390.535211 L638.014085,387.098592 Z M655.197183,387.098592 L658.633803,387.098592 L658.633803,390.535211 L655.197183,390.535211 L655.197183,387.098592 Z M672.380282,387.098592 L675.816901,387.098592 L675.816901,390.535211 L672.380282,390.535211 L672.380282,387.098592 Z M689.56338,387.098592 L693,387.098592 L693,390.535211 L689.56338,390.535211 L689.56338,387.098592 Z M449,404.28169 L452.43662,404.28169 L452.43662,407.71831 L449,407.71831 L449,404.28169 Z M466.183099,404.28169 L469.619718,404.28169 L469.619718,407.71831 L466.183099,407.71831 L466.183099,404.28169 Z M483.366197,404.28169 L486.802817,404.28169 L486.802817,407.71831 L483.366197,407.71831 L483.366197,404.28169 Z M500.549296,404.28169 L503.985915,404.28169 L503.985915,407.71831 L500.549296,407.71831 L500.549296,404.28169 Z M517.732394,404.28169 L521.169014,404.28169 L521.169014,407.71831 L517.732394,407.71831 L517.732394,404.28169 Z M534.915493,404.28169 L538.352113,404.28169 L538.352113,407.71831 L534.915493,407.71831 L534.915493,404.28169 Z M552.098592,404.28169 L555.535211,404.28169 L555.535211,407.71831 L552.098592,407.71831 L552.098592,404.28169 Z M569.28169,404.28169 L572.71831,404.28169 L572.71831,407.71831 L569.28169,407.71831 L569.28169,404.28169 Z M586.464789,404.28169 L589.901408,404.28169 L589.901408,407.71831 L586.464789,407.71831 L586.464789,404.28169 Z M603.647887,404.28169 L607.084507,404.28169 L607.084507,407.71831 L603.647887,407.71831 L603.647887,404.28169 Z M620.830986,404.28169 L624.267606,404.28169 L624.267606,407.71831 L620.830986,407.71831 L620.830986,404.28169 Z M638.014085,404.28169 L641.450704,404.28169 L641.450704,407.71831 L638.014085,407.71831 L638.014085,404.28169 Z M655.197183,404.28169 L658.633803,404.28169 L658.633803,407.71831 L655.197183,407.71831 L655.197183,404.28169 Z M672.380282,404.28169 L675.816901,404.28169 L675.816901,407.71831 L672.380282,407.71831 L672.380282,404.28169 Z M689.56338,404.28169 L693,404.28169 L693,407.71831 L689.56338,407.71831 L689.56338,404.28169 Z M449,421.464789 L452.43662,421.464789 L452.43662,424.901408 L449,424.901408 L449,421.464789 Z M466.183099,421.464789 L469.619718,421.464789 L469.619718,424.901408 L466.183099,424.901408 L466.183099,421.464789 Z M483.366197,421.464789 L486.802817,421.464789 L486.802817,424.901408 L483.366197,424.901408 L483.366197,421.464789 Z M500.549296,421.464789 L503.985915,421.464789 L503.985915,424.901408 L500.549296,424.901408 L500.549296,421.464789 Z M517.732394,421.464789 L521.169014,421.464789 L521.169014,424.901408 L517.732394,424.901408 L517.732394,421.464789 Z M534.915493,421.464789 L538.352113,421.464789 L538.352113,424.901408 L534.915493,424.901408 L534.915493,421.464789 Z M552.098592,421.464789 L555.535211,421.464789 L555.535211,424.901408 L552.098592,424.901408 L552.098592,421.464789 Z M569.28169,421.464789 L572.71831,421.464789 L572.71831,424.901408 L569.28169,424.901408 L569.28169,421.464789 Z M586.464789,421.464789 L589.901408,421.464789 L589.901408,424.901408 L586.464789,424.901408 L586.464789,421.464789 Z M603.647887,421.464789 L607.084507,421.464789 L607.084507,424.901408 L603.647887,424.901408 L603.647887,421.464789 Z M620.830986,421.464789 L624.267606,421.464789 L624.267606,424.901408 L620.830986,424.901408 L620.830986,421.464789 Z M638.014085,421.464789 L641.450704,421.464789 L641.450704,424.901408 L638.014085,424.901408 L638.014085,421.464789 Z M655.197183,421.464789 L658.633803,421.464789 L658.633803,424.901408 L655.197183,424.901408 L655.197183,421.464789 Z M672.380282,421.464789 L675.816901,421.464789 L675.816901,424.901408 L672.380282,424.901408 L672.380282,421.464789 Z M689.56338,421.464789 L693,421.464789 L693,424.901408 L689.56338,424.901408 L689.56338,421.464789 Z M449,438.647887 L452.43662,438.647887 L452.43662,442.084507 L449,442.084507 L449,438.647887 Z M466.183099,438.647887 L469.619718,438.647887 L469.619718,442.084507 L466.183099,442.084507 L466.183099,438.647887 Z M483.366197,438.647887 L486.802817,438.647887 L486.802817,442.084507 L483.366197,442.084507 L483.366197,438.647887 Z M500.549296,438.647887 L503.985915,438.647887 L503.985915,442.084507 L500.549296,442.084507 L500.549296,438.647887 Z M517.732394,438.647887 L521.169014,438.647887 L521.169014,442.084507 L517.732394,442.084507 L517.732394,438.647887 Z M534.915493,438.647887 L538.352113,438.647887 L538.352113,442.084507 L534.915493,442.084507 L534.915493,438.647887 Z M552.098592,438.647887 L555.535211,438.647887 L555.535211,442.084507 L552.098592,442.084507 L552.098592,438.647887 Z M569.28169,438.647887 L572.71831,438.647887 L572.71831,442.084507 L569.28169,442.084507 L569.28169,438.647887 Z M586.464789,438.647887 L589.901408,438.647887 L589.901408,442.084507 L586.464789,442.084507 L586.464789,438.647887 Z M603.647887,438.647887 L607.084507,438.647887 L607.084507,442.084507 L603.647887,442.084507 L603.647887,438.647887 Z M620.830986,438.647887 L624.267606,438.647887 L624.267606,442.084507 L620.830986,442.084507 L620.830986,438.647887 Z M638.014085,438.647887 L641.450704,438.647887 L641.450704,442.084507 L638.014085,442.084507 L638.014085,438.647887 Z M655.197183,438.647887 L658.633803,438.647887 L658.633803,442.084507 L655.197183,442.084507 L655.197183,438.647887 Z M672.380282,438.647887 L675.816901,438.647887 L675.816901,442.084507 L672.380282,442.084507 L672.380282,438.647887 Z M689.56338,438.647887 L693,438.647887 L693,442.084507 L689.56338,442.084507 L689.56338,438.647887 Z" id="Combined-Shape" fill="url(#linearGradient-4)" fill-rule="nonzero" opacity="0.447521391"></path>
                                            <path d="M1232,426 L1235.43662,426 L1235.43662,429.43662 L1232,429.43662 L1232,426 Z M1249.1831,426 L1252.61972,426 L1252.61972,429.43662 L1249.1831,429.43662 L1249.1831,426 Z M1266.3662,426 L1269.80282,426 L1269.80282,429.43662 L1266.3662,429.43662 L1266.3662,426 Z M1283.5493,426 L1286.98592,426 L1286.98592,429.43662 L1283.5493,429.43662 L1283.5493,426 Z M1300.73239,426 L1304.16901,426 L1304.16901,429.43662 L1300.73239,429.43662 L1300.73239,426 Z M1317.91549,426 L1321.35211,426 L1321.35211,429.43662 L1317.91549,429.43662 L1317.91549,426 Z M1335.09859,426 L1338.53521,426 L1338.53521,429.43662 L1335.09859,429.43662 L1335.09859,426 Z M1352.28169,426 L1355.71831,426 L1355.71831,429.43662 L1352.28169,429.43662 L1352.28169,426 Z M1369.46479,426 L1372.90141,426 L1372.90141,429.43662 L1369.46479,429.43662 L1369.46479,426 Z M1386.64789,426 L1390.08451,426 L1390.08451,429.43662 L1386.64789,429.43662 L1386.64789,426 Z M1403.83099,426 L1407.26761,426 L1407.26761,429.43662 L1403.83099,429.43662 L1403.83099,426 Z M1421.01408,426 L1424.4507,426 L1424.4507,429.43662 L1421.01408,429.43662 L1421.01408,426 Z M1438.19718,426 L1441.6338,426 L1441.6338,429.43662 L1438.19718,429.43662 L1438.19718,426 Z M1455.38028,426 L1458.8169,426 L1458.8169,429.43662 L1455.38028,429.43662 L1455.38028,426 Z M1472.56338,426 L1476,426 L1476,429.43662 L1472.56338,429.43662 L1472.56338,426 Z M1232,443.183099 L1235.43662,443.183099 L1235.43662,446.619718 L1232,446.619718 L1232,443.183099 Z M1249.1831,443.183099 L1252.61972,443.183099 L1252.61972,446.619718 L1249.1831,446.619718 L1249.1831,443.183099 Z M1266.3662,443.183099 L1269.80282,443.183099 L1269.80282,446.619718 L1266.3662,446.619718 L1266.3662,443.183099 Z M1283.5493,443.183099 L1286.98592,443.183099 L1286.98592,446.619718 L1283.5493,446.619718 L1283.5493,443.183099 Z M1300.73239,443.183099 L1304.16901,443.183099 L1304.16901,446.619718 L1300.73239,446.619718 L1300.73239,443.183099 Z M1317.91549,443.183099 L1321.35211,443.183099 L1321.35211,446.619718 L1317.91549,446.619718 L1317.91549,443.183099 Z M1335.09859,443.183099 L1338.53521,443.183099 L1338.53521,446.619718 L1335.09859,446.619718 L1335.09859,443.183099 Z M1352.28169,443.183099 L1355.71831,443.183099 L1355.71831,446.619718 L1352.28169,446.619718 L1352.28169,443.183099 Z M1369.46479,443.183099 L1372.90141,443.183099 L1372.90141,446.619718 L1369.46479,446.619718 L1369.46479,443.183099 Z M1386.64789,443.183099 L1390.08451,443.183099 L1390.08451,446.619718 L1386.64789,446.619718 L1386.64789,443.183099 Z M1403.83099,443.183099 L1407.26761,443.183099 L1407.26761,446.619718 L1403.83099,446.619718 L1403.83099,443.183099 Z M1421.01408,443.183099 L1424.4507,443.183099 L1424.4507,446.619718 L1421.01408,446.619718 L1421.01408,443.183099 Z M1438.19718,443.183099 L1441.6338,443.183099 L1441.6338,446.619718 L1438.19718,446.619718 L1438.19718,443.183099 Z M1455.38028,443.183099 L1458.8169,443.183099 L1458.8169,446.619718 L1455.38028,446.619718 L1455.38028,443.183099 Z M1472.56338,443.183099 L1476,443.183099 L1476,446.619718 L1472.56338,446.619718 L1472.56338,443.183099 Z M1232,460.366197 L1235.43662,460.366197 L1235.43662,463.802817 L1232,463.802817 L1232,460.366197 Z M1249.1831,460.366197 L1252.61972,460.366197 L1252.61972,463.802817 L1249.1831,463.802817 L1249.1831,460.366197 Z M1266.3662,460.366197 L1269.80282,460.366197 L1269.80282,463.802817 L1266.3662,463.802817 L1266.3662,460.366197 Z M1283.5493,460.366197 L1286.98592,460.366197 L1286.98592,463.802817 L1283.5493,463.802817 L1283.5493,460.366197 Z M1300.73239,460.366197 L1304.16901,460.366197 L1304.16901,463.802817 L1300.73239,463.802817 L1300.73239,460.366197 Z M1317.91549,460.366197 L1321.35211,460.366197 L1321.35211,463.802817 L1317.91549,463.802817 L1317.91549,460.366197 Z M1335.09859,460.366197 L1338.53521,460.366197 L1338.53521,463.802817 L1335.09859,463.802817 L1335.09859,460.366197 Z M1352.28169,460.366197 L1355.71831,460.366197 L1355.71831,463.802817 L1352.28169,463.802817 L1352.28169,460.366197 Z M1369.46479,460.366197 L1372.90141,460.366197 L1372.90141,463.802817 L1369.46479,463.802817 L1369.46479,460.366197 Z M1386.64789,460.366197 L1390.08451,460.366197 L1390.08451,463.802817 L1386.64789,463.802817 L1386.64789,460.366197 Z M1403.83099,460.366197 L1407.26761,460.366197 L1407.26761,463.802817 L1403.83099,463.802817 L1403.83099,460.366197 Z M1421.01408,460.366197 L1424.4507,460.366197 L1424.4507,463.802817 L1421.01408,463.802817 L1421.01408,460.366197 Z M1438.19718,460.366197 L1441.6338,460.366197 L1441.6338,463.802817 L1438.19718,463.802817 L1438.19718,460.366197 Z M1455.38028,460.366197 L1458.8169,460.366197 L1458.8169,463.802817 L1455.38028,463.802817 L1455.38028,460.366197 Z M1472.56338,460.366197 L1476,460.366197 L1476,463.802817 L1472.56338,463.802817 L1472.56338,460.366197 Z M1232,477.549296 L1235.43662,477.549296 L1235.43662,480.985915 L1232,480.985915 L1232,477.549296 Z M1249.1831,477.549296 L1252.61972,477.549296 L1252.61972,480.985915 L1249.1831,480.985915 L1249.1831,477.549296 Z M1266.3662,477.549296 L1269.80282,477.549296 L1269.80282,480.985915 L1266.3662,480.985915 L1266.3662,477.549296 Z M1283.5493,477.549296 L1286.98592,477.549296 L1286.98592,480.985915 L1283.5493,480.985915 L1283.5493,477.549296 Z M1300.73239,477.549296 L1304.16901,477.549296 L1304.16901,480.985915 L1300.73239,480.985915 L1300.73239,477.549296 Z M1317.91549,477.549296 L1321.35211,477.549296 L1321.35211,480.985915 L1317.91549,480.985915 L1317.91549,477.549296 Z M1335.09859,477.549296 L1338.53521,477.549296 L1338.53521,480.985915 L1335.09859,480.985915 L1335.09859,477.549296 Z M1352.28169,477.549296 L1355.71831,477.549296 L1355.71831,480.985915 L1352.28169,480.985915 L1352.28169,477.549296 Z M1369.46479,477.549296 L1372.90141,477.549296 L1372.90141,480.985915 L1369.46479,480.985915 L1369.46479,477.549296 Z M1386.64789,477.549296 L1390.08451,477.549296 L1390.08451,480.985915 L1386.64789,480.985915 L1386.64789,477.549296 Z M1403.83099,477.549296 L1407.26761,477.549296 L1407.26761,480.985915 L1403.83099,480.985915 L1403.83099,477.549296 Z M1421.01408,477.549296 L1424.4507,477.549296 L1424.4507,480.985915 L1421.01408,480.985915 L1421.01408,477.549296 Z M1438.19718,477.549296 L1441.6338,477.549296 L1441.6338,480.985915 L1438.19718,480.985915 L1438.19718,477.549296 Z M1455.38028,477.549296 L1458.8169,477.549296 L1458.8169,480.985915 L1455.38028,480.985915 L1455.38028,477.549296 Z M1472.56338,477.549296 L1476,477.549296 L1476,480.985915 L1472.56338,480.985915 L1472.56338,477.549296 Z M1232,494.732394 L1235.43662,494.732394 L1235.43662,498.169014 L1232,498.169014 L1232,494.732394 Z M1249.1831,494.732394 L1252.61972,494.732394 L1252.61972,498.169014 L1249.1831,498.169014 L1249.1831,494.732394 Z M1266.3662,494.732394 L1269.80282,494.732394 L1269.80282,498.169014 L1266.3662,498.169014 L1266.3662,494.732394 Z M1283.5493,494.732394 L1286.98592,494.732394 L1286.98592,498.169014 L1283.5493,498.169014 L1283.5493,494.732394 Z M1300.73239,494.732394 L1304.16901,494.732394 L1304.16901,498.169014 L1300.73239,498.169014 L1300.73239,494.732394 Z M1317.91549,494.732394 L1321.35211,494.732394 L1321.35211,498.169014 L1317.91549,498.169014 L1317.91549,494.732394 Z M1335.09859,494.732394 L1338.53521,494.732394 L1338.53521,498.169014 L1335.09859,498.169014 L1335.09859,494.732394 Z M1352.28169,494.732394 L1355.71831,494.732394 L1355.71831,498.169014 L1352.28169,498.169014 L1352.28169,494.732394 Z M1369.46479,494.732394 L1372.90141,494.732394 L1372.90141,498.169014 L1369.46479,498.169014 L1369.46479,494.732394 Z M1386.64789,494.732394 L1390.08451,494.732394 L1390.08451,498.169014 L1386.64789,498.169014 L1386.64789,494.732394 Z M1403.83099,494.732394 L1407.26761,494.732394 L1407.26761,498.169014 L1403.83099,498.169014 L1403.83099,494.732394 Z M1421.01408,494.732394 L1424.4507,494.732394 L1424.4507,498.169014 L1421.01408,498.169014 L1421.01408,494.732394 Z M1438.19718,494.732394 L1441.6338,494.732394 L1441.6338,498.169014 L1438.19718,498.169014 L1438.19718,494.732394 Z M1455.38028,494.732394 L1458.8169,494.732394 L1458.8169,498.169014 L1455.38028,498.169014 L1455.38028,494.732394 Z M1472.56338,494.732394 L1476,494.732394 L1476,498.169014 L1472.56338,498.169014 L1472.56338,494.732394 Z M1232,511.915493 L1235.43662,511.915493 L1235.43662,515.352113 L1232,515.352113 L1232,511.915493 Z M1249.1831,511.915493 L1252.61972,511.915493 L1252.61972,515.352113 L1249.1831,515.352113 L1249.1831,511.915493 Z M1266.3662,511.915493 L1269.80282,511.915493 L1269.80282,515.352113 L1266.3662,515.352113 L1266.3662,511.915493 Z M1283.5493,511.915493 L1286.98592,511.915493 L1286.98592,515.352113 L1283.5493,515.352113 L1283.5493,511.915493 Z M1300.73239,511.915493 L1304.16901,511.915493 L1304.16901,515.352113 L1300.73239,515.352113 L1300.73239,511.915493 Z M1317.91549,511.915493 L1321.35211,511.915493 L1321.35211,515.352113 L1317.91549,515.352113 L1317.91549,511.915493 Z M1335.09859,511.915493 L1338.53521,511.915493 L1338.53521,515.352113 L1335.09859,515.352113 L1335.09859,511.915493 Z M1352.28169,511.915493 L1355.71831,511.915493 L1355.71831,515.352113 L1352.28169,515.352113 L1352.28169,511.915493 Z M1369.46479,511.915493 L1372.90141,511.915493 L1372.90141,515.352113 L1369.46479,515.352113 L1369.46479,511.915493 Z M1386.64789,511.915493 L1390.08451,511.915493 L1390.08451,515.352113 L1386.64789,515.352113 L1386.64789,511.915493 Z M1403.83099,511.915493 L1407.26761,511.915493 L1407.26761,515.352113 L1403.83099,515.352113 L1403.83099,511.915493 Z M1421.01408,511.915493 L1424.4507,511.915493 L1424.4507,515.352113 L1421.01408,515.352113 L1421.01408,511.915493 Z M1438.19718,511.915493 L1441.6338,511.915493 L1441.6338,515.352113 L1438.19718,515.352113 L1438.19718,511.915493 Z M1455.38028,511.915493 L1458.8169,511.915493 L1458.8169,515.352113 L1455.38028,515.352113 L1455.38028,511.915493 Z M1472.56338,511.915493 L1476,511.915493 L1476,515.352113 L1472.56338,515.352113 L1472.56338,511.915493 Z M1232,529.098592 L1235.43662,529.098592 L1235.43662,532.535211 L1232,532.535211 L1232,529.098592 Z M1249.1831,529.098592 L1252.61972,529.098592 L1252.61972,532.535211 L1249.1831,532.535211 L1249.1831,529.098592 Z M1266.3662,529.098592 L1269.80282,529.098592 L1269.80282,532.535211 L1266.3662,532.535211 L1266.3662,529.098592 Z M1283.5493,529.098592 L1286.98592,529.098592 L1286.98592,532.535211 L1283.5493,532.535211 L1283.5493,529.098592 Z M1300.73239,529.098592 L1304.16901,529.098592 L1304.16901,532.535211 L1300.73239,532.535211 L1300.73239,529.098592 Z M1317.91549,529.098592 L1321.35211,529.098592 L1321.35211,532.535211 L1317.91549,532.535211 L1317.91549,529.098592 Z M1335.09859,529.098592 L1338.53521,529.098592 L1338.53521,532.535211 L1335.09859,532.535211 L1335.09859,529.098592 Z M1352.28169,529.098592 L1355.71831,529.098592 L1355.71831,532.535211 L1352.28169,532.535211 L1352.28169,529.098592 Z M1369.46479,529.098592 L1372.90141,529.098592 L1372.90141,532.535211 L1369.46479,532.535211 L1369.46479,529.098592 Z M1386.64789,529.098592 L1390.08451,529.098592 L1390.08451,532.535211 L1386.64789,532.535211 L1386.64789,529.098592 Z M1403.83099,529.098592 L1407.26761,529.098592 L1407.26761,532.535211 L1403.83099,532.535211 L1403.83099,529.098592 Z M1421.01408,529.098592 L1424.4507,529.098592 L1424.4507,532.535211 L1421.01408,532.535211 L1421.01408,529.098592 Z M1438.19718,529.098592 L1441.6338,529.098592 L1441.6338,532.535211 L1438.19718,532.535211 L1438.19718,529.098592 Z M1455.38028,529.098592 L1458.8169,529.098592 L1458.8169,532.535211 L1455.38028,532.535211 L1455.38028,529.098592 Z M1472.56338,529.098592 L1476,529.098592 L1476,532.535211 L1472.56338,532.535211 L1472.56338,529.098592 Z M1232,546.28169 L1235.43662,546.28169 L1235.43662,549.71831 L1232,549.71831 L1232,546.28169 Z M1249.1831,546.28169 L1252.61972,546.28169 L1252.61972,549.71831 L1249.1831,549.71831 L1249.1831,546.28169 Z M1266.3662,546.28169 L1269.80282,546.28169 L1269.80282,549.71831 L1266.3662,549.71831 L1266.3662,546.28169 Z M1283.5493,546.28169 L1286.98592,546.28169 L1286.98592,549.71831 L1283.5493,549.71831 L1283.5493,546.28169 Z M1300.73239,546.28169 L1304.16901,546.28169 L1304.16901,549.71831 L1300.73239,549.71831 L1300.73239,546.28169 Z M1317.91549,546.28169 L1321.35211,546.28169 L1321.35211,549.71831 L1317.91549,549.71831 L1317.91549,546.28169 Z M1335.09859,546.28169 L1338.53521,546.28169 L1338.53521,549.71831 L1335.09859,549.71831 L1335.09859,546.28169 Z M1352.28169,546.28169 L1355.71831,546.28169 L1355.71831,549.71831 L1352.28169,549.71831 L1352.28169,546.28169 Z M1369.46479,546.28169 L1372.90141,546.28169 L1372.90141,549.71831 L1369.46479,549.71831 L1369.46479,546.28169 Z M1386.64789,546.28169 L1390.08451,546.28169 L1390.08451,549.71831 L1386.64789,549.71831 L1386.64789,546.28169 Z M1403.83099,546.28169 L1407.26761,546.28169 L1407.26761,549.71831 L1403.83099,549.71831 L1403.83099,546.28169 Z M1421.01408,546.28169 L1424.4507,546.28169 L1424.4507,549.71831 L1421.01408,549.71831 L1421.01408,546.28169 Z M1438.19718,546.28169 L1441.6338,546.28169 L1441.6338,549.71831 L1438.19718,549.71831 L1438.19718,546.28169 Z M1455.38028,546.28169 L1458.8169,546.28169 L1458.8169,549.71831 L1455.38028,549.71831 L1455.38028,546.28169 Z M1472.56338,546.28169 L1476,546.28169 L1476,549.71831 L1472.56338,549.71831 L1472.56338,546.28169 Z M1232,563.464789 L1235.43662,563.464789 L1235.43662,566.901408 L1232,566.901408 L1232,563.464789 Z M1249.1831,563.464789 L1252.61972,563.464789 L1252.61972,566.901408 L1249.1831,566.901408 L1249.1831,563.464789 Z M1266.3662,563.464789 L1269.80282,563.464789 L1269.80282,566.901408 L1266.3662,566.901408 L1266.3662,563.464789 Z M1283.5493,563.464789 L1286.98592,563.464789 L1286.98592,566.901408 L1283.5493,566.901408 L1283.5493,563.464789 Z M1300.73239,563.464789 L1304.16901,563.464789 L1304.16901,566.901408 L1300.73239,566.901408 L1300.73239,563.464789 Z M1317.91549,563.464789 L1321.35211,563.464789 L1321.35211,566.901408 L1317.91549,566.901408 L1317.91549,563.464789 Z M1335.09859,563.464789 L1338.53521,563.464789 L1338.53521,566.901408 L1335.09859,566.901408 L1335.09859,563.464789 Z M1352.28169,563.464789 L1355.71831,563.464789 L1355.71831,566.901408 L1352.28169,566.901408 L1352.28169,563.464789 Z M1369.46479,563.464789 L1372.90141,563.464789 L1372.90141,566.901408 L1369.46479,566.901408 L1369.46479,563.464789 Z M1386.64789,563.464789 L1390.08451,563.464789 L1390.08451,566.901408 L1386.64789,566.901408 L1386.64789,563.464789 Z M1403.83099,563.464789 L1407.26761,563.464789 L1407.26761,566.901408 L1403.83099,566.901408 L1403.83099,563.464789 Z M1421.01408,563.464789 L1424.4507,563.464789 L1424.4507,566.901408 L1421.01408,566.901408 L1421.01408,563.464789 Z M1438.19718,563.464789 L1441.6338,563.464789 L1441.6338,566.901408 L1438.19718,566.901408 L1438.19718,563.464789 Z M1455.38028,563.464789 L1458.8169,563.464789 L1458.8169,566.901408 L1455.38028,566.901408 L1455.38028,563.464789 Z M1472.56338,563.464789 L1476,563.464789 L1476,566.901408 L1472.56338,566.901408 L1472.56338,563.464789 Z M1232,580.647887 L1235.43662,580.647887 L1235.43662,584.084507 L1232,584.084507 L1232,580.647887 Z M1249.1831,580.647887 L1252.61972,580.647887 L1252.61972,584.084507 L1249.1831,584.084507 L1249.1831,580.647887 Z M1266.3662,580.647887 L1269.80282,580.647887 L1269.80282,584.084507 L1266.3662,584.084507 L1266.3662,580.647887 Z M1283.5493,580.647887 L1286.98592,580.647887 L1286.98592,584.084507 L1283.5493,584.084507 L1283.5493,580.647887 Z M1300.73239,580.647887 L1304.16901,580.647887 L1304.16901,584.084507 L1300.73239,584.084507 L1300.73239,580.647887 Z M1317.91549,580.647887 L1321.35211,580.647887 L1321.35211,584.084507 L1317.91549,584.084507 L1317.91549,580.647887 Z M1335.09859,580.647887 L1338.53521,580.647887 L1338.53521,584.084507 L1335.09859,584.084507 L1335.09859,580.647887 Z M1352.28169,580.647887 L1355.71831,580.647887 L1355.71831,584.084507 L1352.28169,584.084507 L1352.28169,580.647887 Z M1369.46479,580.647887 L1372.90141,580.647887 L1372.90141,584.084507 L1369.46479,584.084507 L1369.46479,580.647887 Z M1386.64789,580.647887 L1390.08451,580.647887 L1390.08451,584.084507 L1386.64789,584.084507 L1386.64789,580.647887 Z M1403.83099,580.647887 L1407.26761,580.647887 L1407.26761,584.084507 L1403.83099,584.084507 L1403.83099,580.647887 Z M1421.01408,580.647887 L1424.4507,580.647887 L1424.4507,584.084507 L1421.01408,584.084507 L1421.01408,580.647887 Z M1438.19718,580.647887 L1441.6338,580.647887 L1441.6338,584.084507 L1438.19718,584.084507 L1438.19718,580.647887 Z M1455.38028,580.647887 L1458.8169,580.647887 L1458.8169,584.084507 L1455.38028,584.084507 L1455.38028,580.647887 Z M1472.56338,580.647887 L1476,580.647887 L1476,584.084507 L1472.56338,584.084507 L1472.56338,580.647887 Z M1232,597 L1235.43662,597 L1235.43662,600.43662 L1232,600.43662 L1232,597 Z M1249.1831,597 L1252.61972,597 L1252.61972,600.43662 L1249.1831,600.43662 L1249.1831,597 Z M1266.3662,597 L1269.80282,597 L1269.80282,600.43662 L1266.3662,600.43662 L1266.3662,597 Z M1283.5493,597 L1286.98592,597 L1286.98592,600.43662 L1283.5493,600.43662 L1283.5493,597 Z M1300.73239,597 L1304.16901,597 L1304.16901,600.43662 L1300.73239,600.43662 L1300.73239,597 Z M1317.91549,597 L1321.35211,597 L1321.35211,600.43662 L1317.91549,600.43662 L1317.91549,597 Z M1335.09859,597 L1338.53521,597 L1338.53521,600.43662 L1335.09859,600.43662 L1335.09859,597 Z M1352.28169,597 L1355.71831,597 L1355.71831,600.43662 L1352.28169,600.43662 L1352.28169,597 Z M1369.46479,597 L1372.90141,597 L1372.90141,600.43662 L1369.46479,600.43662 L1369.46479,597 Z M1386.64789,597 L1390.08451,597 L1390.08451,600.43662 L1386.64789,600.43662 L1386.64789,597 Z M1403.83099,597 L1407.26761,597 L1407.26761,600.43662 L1403.83099,600.43662 L1403.83099,597 Z M1421.01408,597 L1424.4507,597 L1424.4507,600.43662 L1421.01408,600.43662 L1421.01408,597 Z M1438.19718,597 L1441.6338,597 L1441.6338,600.43662 L1438.19718,600.43662 L1438.19718,597 Z M1455.38028,597 L1458.8169,597 L1458.8169,600.43662 L1455.38028,600.43662 L1455.38028,597 Z M1472.56338,597 L1476,597 L1476,600.43662 L1472.56338,600.43662 L1472.56338,597 Z M1232,614.183099 L1235.43662,614.183099 L1235.43662,617.619718 L1232,617.619718 L1232,614.183099 Z M1249.1831,614.183099 L1252.61972,614.183099 L1252.61972,617.619718 L1249.1831,617.619718 L1249.1831,614.183099 Z M1266.3662,614.183099 L1269.80282,614.183099 L1269.80282,617.619718 L1266.3662,617.619718 L1266.3662,614.183099 Z M1283.5493,614.183099 L1286.98592,614.183099 L1286.98592,617.619718 L1283.5493,617.619718 L1283.5493,614.183099 Z M1300.73239,614.183099 L1304.16901,614.183099 L1304.16901,617.619718 L1300.73239,617.619718 L1300.73239,614.183099 Z M1317.91549,614.183099 L1321.35211,614.183099 L1321.35211,617.619718 L1317.91549,617.619718 L1317.91549,614.183099 Z M1335.09859,614.183099 L1338.53521,614.183099 L1338.53521,617.619718 L1335.09859,617.619718 L1335.09859,614.183099 Z M1352.28169,614.183099 L1355.71831,614.183099 L1355.71831,617.619718 L1352.28169,617.619718 L1352.28169,614.183099 Z M1369.46479,614.183099 L1372.90141,614.183099 L1372.90141,617.619718 L1369.46479,617.619718 L1369.46479,614.183099 Z M1386.64789,614.183099 L1390.08451,614.183099 L1390.08451,617.619718 L1386.64789,617.619718 L1386.64789,614.183099 Z M1403.83099,614.183099 L1407.26761,614.183099 L1407.26761,617.619718 L1403.83099,617.619718 L1403.83099,614.183099 Z M1421.01408,614.183099 L1424.4507,614.183099 L1424.4507,617.619718 L1421.01408,617.619718 L1421.01408,614.183099 Z M1438.19718,614.183099 L1441.6338,614.183099 L1441.6338,617.619718 L1438.19718,617.619718 L1438.19718,614.183099 Z M1455.38028,614.183099 L1458.8169,614.183099 L1458.8169,617.619718 L1455.38028,617.619718 L1455.38028,614.183099 Z M1472.56338,614.183099 L1476,614.183099 L1476,617.619718 L1472.56338,617.619718 L1472.56338,614.183099 Z M1232,631.366197 L1235.43662,631.366197 L1235.43662,634.802817 L1232,634.802817 L1232,631.366197 Z M1249.1831,631.366197 L1252.61972,631.366197 L1252.61972,634.802817 L1249.1831,634.802817 L1249.1831,631.366197 Z M1266.3662,631.366197 L1269.80282,631.366197 L1269.80282,634.802817 L1266.3662,634.802817 L1266.3662,631.366197 Z M1283.5493,631.366197 L1286.98592,631.366197 L1286.98592,634.802817 L1283.5493,634.802817 L1283.5493,631.366197 Z M1300.73239,631.366197 L1304.16901,631.366197 L1304.16901,634.802817 L1300.73239,634.802817 L1300.73239,631.366197 Z M1317.91549,631.366197 L1321.35211,631.366197 L1321.35211,634.802817 L1317.91549,634.802817 L1317.91549,631.366197 Z M1335.09859,631.366197 L1338.53521,631.366197 L1338.53521,634.802817 L1335.09859,634.802817 L1335.09859,631.366197 Z M1352.28169,631.366197 L1355.71831,631.366197 L1355.71831,634.802817 L1352.28169,634.802817 L1352.28169,631.366197 Z M1369.46479,631.366197 L1372.90141,631.366197 L1372.90141,634.802817 L1369.46479,634.802817 L1369.46479,631.366197 Z M1386.64789,631.366197 L1390.08451,631.366197 L1390.08451,634.802817 L1386.64789,634.802817 L1386.64789,631.366197 Z M1403.83099,631.366197 L1407.26761,631.366197 L1407.26761,634.802817 L1403.83099,634.802817 L1403.83099,631.366197 Z M1421.01408,631.366197 L1424.4507,631.366197 L1424.4507,634.802817 L1421.01408,634.802817 L1421.01408,631.366197 Z M1438.19718,631.366197 L1441.6338,631.366197 L1441.6338,634.802817 L1438.19718,634.802817 L1438.19718,631.366197 Z M1455.38028,631.366197 L1458.8169,631.366197 L1458.8169,634.802817 L1455.38028,634.802817 L1455.38028,631.366197 Z M1472.56338,631.366197 L1476,631.366197 L1476,634.802817 L1472.56338,634.802817 L1472.56338,631.366197 Z M1232,648.549296 L1235.43662,648.549296 L1235.43662,651.985915 L1232,651.985915 L1232,648.549296 Z M1249.1831,648.549296 L1252.61972,648.549296 L1252.61972,651.985915 L1249.1831,651.985915 L1249.1831,648.549296 Z M1266.3662,648.549296 L1269.80282,648.549296 L1269.80282,651.985915 L1266.3662,651.985915 L1266.3662,648.549296 Z M1283.5493,648.549296 L1286.98592,648.549296 L1286.98592,651.985915 L1283.5493,651.985915 L1283.5493,648.549296 Z M1300.73239,648.549296 L1304.16901,648.549296 L1304.16901,651.985915 L1300.73239,651.985915 L1300.73239,648.549296 Z M1317.91549,648.549296 L1321.35211,648.549296 L1321.35211,651.985915 L1317.91549,651.985915 L1317.91549,648.549296 Z M1335.09859,648.549296 L1338.53521,648.549296 L1338.53521,651.985915 L1335.09859,651.985915 L1335.09859,648.549296 Z M1352.28169,648.549296 L1355.71831,648.549296 L1355.71831,651.985915 L1352.28169,651.985915 L1352.28169,648.549296 Z M1369.46479,648.549296 L1372.90141,648.549296 L1372.90141,651.985915 L1369.46479,651.985915 L1369.46479,648.549296 Z M1386.64789,648.549296 L1390.08451,648.549296 L1390.08451,651.985915 L1386.64789,651.985915 L1386.64789,648.549296 Z M1403.83099,648.549296 L1407.26761,648.549296 L1407.26761,651.985915 L1403.83099,651.985915 L1403.83099,648.549296 Z M1421.01408,648.549296 L1424.4507,648.549296 L1424.4507,651.985915 L1421.01408,651.985915 L1421.01408,648.549296 Z M1438.19718,648.549296 L1441.6338,648.549296 L1441.6338,651.985915 L1438.19718,651.985915 L1438.19718,648.549296 Z M1455.38028,648.549296 L1458.8169,648.549296 L1458.8169,651.985915 L1455.38028,651.985915 L1455.38028,648.549296 Z M1472.56338,648.549296 L1476,648.549296 L1476,651.985915 L1472.56338,651.985915 L1472.56338,648.549296 Z M1232,665.732394 L1235.43662,665.732394 L1235.43662,669.169014 L1232,669.169014 L1232,665.732394 Z M1249.1831,665.732394 L1252.61972,665.732394 L1252.61972,669.169014 L1249.1831,669.169014 L1249.1831,665.732394 Z M1266.3662,665.732394 L1269.80282,665.732394 L1269.80282,669.169014 L1266.3662,669.169014 L1266.3662,665.732394 Z M1283.5493,665.732394 L1286.98592,665.732394 L1286.98592,669.169014 L1283.5493,669.169014 L1283.5493,665.732394 Z M1300.73239,665.732394 L1304.16901,665.732394 L1304.16901,669.169014 L1300.73239,669.169014 L1300.73239,665.732394 Z M1317.91549,665.732394 L1321.35211,665.732394 L1321.35211,669.169014 L1317.91549,669.169014 L1317.91549,665.732394 Z M1335.09859,665.732394 L1338.53521,665.732394 L1338.53521,669.169014 L1335.09859,669.169014 L1335.09859,665.732394 Z M1352.28169,665.732394 L1355.71831,665.732394 L1355.71831,669.169014 L1352.28169,669.169014 L1352.28169,665.732394 Z M1369.46479,665.732394 L1372.90141,665.732394 L1372.90141,669.169014 L1369.46479,669.169014 L1369.46479,665.732394 Z M1386.64789,665.732394 L1390.08451,665.732394 L1390.08451,669.169014 L1386.64789,669.169014 L1386.64789,665.732394 Z M1403.83099,665.732394 L1407.26761,665.732394 L1407.26761,669.169014 L1403.83099,669.169014 L1403.83099,665.732394 Z M1421.01408,665.732394 L1424.4507,665.732394 L1424.4507,669.169014 L1421.01408,669.169014 L1421.01408,665.732394 Z M1438.19718,665.732394 L1441.6338,665.732394 L1441.6338,669.169014 L1438.19718,669.169014 L1438.19718,665.732394 Z M1455.38028,665.732394 L1458.8169,665.732394 L1458.8169,669.169014 L1455.38028,669.169014 L1455.38028,665.732394 Z M1472.56338,665.732394 L1476,665.732394 L1476,669.169014 L1472.56338,669.169014 L1472.56338,665.732394 Z M1232,682.915493 L1235.43662,682.915493 L1235.43662,686.352113 L1232,686.352113 L1232,682.915493 Z M1249.1831,682.915493 L1252.61972,682.915493 L1252.61972,686.352113 L1249.1831,686.352113 L1249.1831,682.915493 Z M1266.3662,682.915493 L1269.80282,682.915493 L1269.80282,686.352113 L1266.3662,686.352113 L1266.3662,682.915493 Z M1283.5493,682.915493 L1286.98592,682.915493 L1286.98592,686.352113 L1283.5493,686.352113 L1283.5493,682.915493 Z M1300.73239,682.915493 L1304.16901,682.915493 L1304.16901,686.352113 L1300.73239,686.352113 L1300.73239,682.915493 Z M1317.91549,682.915493 L1321.35211,682.915493 L1321.35211,686.352113 L1317.91549,686.352113 L1317.91549,682.915493 Z M1335.09859,682.915493 L1338.53521,682.915493 L1338.53521,686.352113 L1335.09859,686.352113 L1335.09859,682.915493 Z M1352.28169,682.915493 L1355.71831,682.915493 L1355.71831,686.352113 L1352.28169,686.352113 L1352.28169,682.915493 Z M1369.46479,682.915493 L1372.90141,682.915493 L1372.90141,686.352113 L1369.46479,686.352113 L1369.46479,682.915493 Z M1386.64789,682.915493 L1390.08451,682.915493 L1390.08451,686.352113 L1386.64789,686.352113 L1386.64789,682.915493 Z M1403.83099,682.915493 L1407.26761,682.915493 L1407.26761,686.352113 L1403.83099,686.352113 L1403.83099,682.915493 Z M1421.01408,682.915493 L1424.4507,682.915493 L1424.4507,686.352113 L1421.01408,686.352113 L1421.01408,682.915493 Z M1438.19718,682.915493 L1441.6338,682.915493 L1441.6338,686.352113 L1438.19718,686.352113 L1438.19718,682.915493 Z M1455.38028,682.915493 L1458.8169,682.915493 L1458.8169,686.352113 L1455.38028,686.352113 L1455.38028,682.915493 Z M1472.56338,682.915493 L1476,682.915493 L1476,686.352113 L1472.56338,686.352113 L1472.56338,682.915493 Z M1232,700.098592 L1235.43662,700.098592 L1235.43662,703.535211 L1232,703.535211 L1232,700.098592 Z M1249.1831,700.098592 L1252.61972,700.098592 L1252.61972,703.535211 L1249.1831,703.535211 L1249.1831,700.098592 Z M1266.3662,700.098592 L1269.80282,700.098592 L1269.80282,703.535211 L1266.3662,703.535211 L1266.3662,700.098592 Z M1283.5493,700.098592 L1286.98592,700.098592 L1286.98592,703.535211 L1283.5493,703.535211 L1283.5493,700.098592 Z M1300.73239,700.098592 L1304.16901,700.098592 L1304.16901,703.535211 L1300.73239,703.535211 L1300.73239,700.098592 Z M1317.91549,700.098592 L1321.35211,700.098592 L1321.35211,703.535211 L1317.91549,703.535211 L1317.91549,700.098592 Z M1335.09859,700.098592 L1338.53521,700.098592 L1338.53521,703.535211 L1335.09859,703.535211 L1335.09859,700.098592 Z M1352.28169,700.098592 L1355.71831,700.098592 L1355.71831,703.535211 L1352.28169,703.535211 L1352.28169,700.098592 Z M1369.46479,700.098592 L1372.90141,700.098592 L1372.90141,703.535211 L1369.46479,703.535211 L1369.46479,700.098592 Z M1386.64789,700.098592 L1390.08451,700.098592 L1390.08451,703.535211 L1386.64789,703.535211 L1386.64789,700.098592 Z M1403.83099,700.098592 L1407.26761,700.098592 L1407.26761,703.535211 L1403.83099,703.535211 L1403.83099,700.098592 Z M1421.01408,700.098592 L1424.4507,700.098592 L1424.4507,703.535211 L1421.01408,703.535211 L1421.01408,700.098592 Z M1438.19718,700.098592 L1441.6338,700.098592 L1441.6338,703.535211 L1438.19718,703.535211 L1438.19718,700.098592 Z M1455.38028,700.098592 L1458.8169,700.098592 L1458.8169,703.535211 L1455.38028,703.535211 L1455.38028,700.098592 Z M1472.56338,700.098592 L1476,700.098592 L1476,703.535211 L1472.56338,703.535211 L1472.56338,700.098592 Z M1232,717.28169 L1235.43662,717.28169 L1235.43662,720.71831 L1232,720.71831 L1232,717.28169 Z M1249.1831,717.28169 L1252.61972,717.28169 L1252.61972,720.71831 L1249.1831,720.71831 L1249.1831,717.28169 Z M1266.3662,717.28169 L1269.80282,717.28169 L1269.80282,720.71831 L1266.3662,720.71831 L1266.3662,717.28169 Z M1283.5493,717.28169 L1286.98592,717.28169 L1286.98592,720.71831 L1283.5493,720.71831 L1283.5493,717.28169 Z M1300.73239,717.28169 L1304.16901,717.28169 L1304.16901,720.71831 L1300.73239,720.71831 L1300.73239,717.28169 Z M1317.91549,717.28169 L1321.35211,717.28169 L1321.35211,720.71831 L1317.91549,720.71831 L1317.91549,717.28169 Z M1335.09859,717.28169 L1338.53521,717.28169 L1338.53521,720.71831 L1335.09859,720.71831 L1335.09859,717.28169 Z M1352.28169,717.28169 L1355.71831,717.28169 L1355.71831,720.71831 L1352.28169,720.71831 L1352.28169,717.28169 Z M1369.46479,717.28169 L1372.90141,717.28169 L1372.90141,720.71831 L1369.46479,720.71831 L1369.46479,717.28169 Z M1386.64789,717.28169 L1390.08451,717.28169 L1390.08451,720.71831 L1386.64789,720.71831 L1386.64789,717.28169 Z M1403.83099,717.28169 L1407.26761,717.28169 L1407.26761,720.71831 L1403.83099,720.71831 L1403.83099,717.28169 Z M1421.01408,717.28169 L1424.4507,717.28169 L1424.4507,720.71831 L1421.01408,720.71831 L1421.01408,717.28169 Z M1438.19718,717.28169 L1441.6338,717.28169 L1441.6338,720.71831 L1438.19718,720.71831 L1438.19718,717.28169 Z M1455.38028,717.28169 L1458.8169,717.28169 L1458.8169,720.71831 L1455.38028,720.71831 L1455.38028,717.28169 Z M1472.56338,717.28169 L1476,717.28169 L1476,720.71831 L1472.56338,720.71831 L1472.56338,717.28169 Z M1232,734.464789 L1235.43662,734.464789 L1235.43662,737.901408 L1232,737.901408 L1232,734.464789 Z M1249.1831,734.464789 L1252.61972,734.464789 L1252.61972,737.901408 L1249.1831,737.901408 L1249.1831,734.464789 Z M1266.3662,734.464789 L1269.80282,734.464789 L1269.80282,737.901408 L1266.3662,737.901408 L1266.3662,734.464789 Z M1283.5493,734.464789 L1286.98592,734.464789 L1286.98592,737.901408 L1283.5493,737.901408 L1283.5493,734.464789 Z M1300.73239,734.464789 L1304.16901,734.464789 L1304.16901,737.901408 L1300.73239,737.901408 L1300.73239,734.464789 Z M1317.91549,734.464789 L1321.35211,734.464789 L1321.35211,737.901408 L1317.91549,737.901408 L1317.91549,734.464789 Z M1335.09859,734.464789 L1338.53521,734.464789 L1338.53521,737.901408 L1335.09859,737.901408 L1335.09859,734.464789 Z M1352.28169,734.464789 L1355.71831,734.464789 L1355.71831,737.901408 L1352.28169,737.901408 L1352.28169,734.464789 Z M1369.46479,734.464789 L1372.90141,734.464789 L1372.90141,737.901408 L1369.46479,737.901408 L1369.46479,734.464789 Z M1386.64789,734.464789 L1390.08451,734.464789 L1390.08451,737.901408 L1386.64789,737.901408 L1386.64789,734.464789 Z M1403.83099,734.464789 L1407.26761,734.464789 L1407.26761,737.901408 L1403.83099,737.901408 L1403.83099,734.464789 Z M1421.01408,734.464789 L1424.4507,734.464789 L1424.4507,737.901408 L1421.01408,737.901408 L1421.01408,734.464789 Z M1438.19718,734.464789 L1441.6338,734.464789 L1441.6338,737.901408 L1438.19718,737.901408 L1438.19718,734.464789 Z M1455.38028,734.464789 L1458.8169,734.464789 L1458.8169,737.901408 L1455.38028,737.901408 L1455.38028,734.464789 Z M1472.56338,734.464789 L1476,734.464789 L1476,737.901408 L1472.56338,737.901408 L1472.56338,734.464789 Z M1232,751.647887 L1235.43662,751.647887 L1235.43662,755.084507 L1232,755.084507 L1232,751.647887 Z M1249.1831,751.647887 L1252.61972,751.647887 L1252.61972,755.084507 L1249.1831,755.084507 L1249.1831,751.647887 Z M1266.3662,751.647887 L1269.80282,751.647887 L1269.80282,755.084507 L1266.3662,755.084507 L1266.3662,751.647887 Z M1283.5493,751.647887 L1286.98592,751.647887 L1286.98592,755.084507 L1283.5493,755.084507 L1283.5493,751.647887 Z M1300.73239,751.647887 L1304.16901,751.647887 L1304.16901,755.084507 L1300.73239,755.084507 L1300.73239,751.647887 Z M1317.91549,751.647887 L1321.35211,751.647887 L1321.35211,755.084507 L1317.91549,755.084507 L1317.91549,751.647887 Z M1335.09859,751.647887 L1338.53521,751.647887 L1338.53521,755.084507 L1335.09859,755.084507 L1335.09859,751.647887 Z M1352.28169,751.647887 L1355.71831,751.647887 L1355.71831,755.084507 L1352.28169,755.084507 L1352.28169,751.647887 Z M1369.46479,751.647887 L1372.90141,751.647887 L1372.90141,755.084507 L1369.46479,755.084507 L1369.46479,751.647887 Z M1386.64789,751.647887 L1390.08451,751.647887 L1390.08451,755.084507 L1386.64789,755.084507 L1386.64789,751.647887 Z M1403.83099,751.647887 L1407.26761,751.647887 L1407.26761,755.084507 L1403.83099,755.084507 L1403.83099,751.647887 Z M1421.01408,751.647887 L1424.4507,751.647887 L1424.4507,755.084507 L1421.01408,755.084507 L1421.01408,751.647887 Z M1438.19718,751.647887 L1441.6338,751.647887 L1441.6338,755.084507 L1438.19718,755.084507 L1438.19718,751.647887 Z M1455.38028,751.647887 L1458.8169,751.647887 L1458.8169,755.084507 L1455.38028,755.084507 L1455.38028,751.647887 Z M1472.56338,751.647887 L1476,751.647887 L1476,755.084507 L1472.56338,755.084507 L1472.56338,751.647887 Z" id="Combined-Shape-Copy" fill="url(#linearGradient-5)" fill-rule="nonzero" opacity="0.447521391"></path>
                                            <g id="Path" fill="none" opacity="0.3" fill-rule="nonzero">
                                                <use fill="black" fill-opacity="1" filter="url(#filter-7)" xlink:href="#path-6"></use>
                                                <use fill="url(#linearGradient-1)" xlink:href="#path-6"></use>
                                            </g>
                                            <g id="Path" fill="none" fill-rule="nonzero">
                                                <use fill="black" fill-opacity="1" filter="url(#filter-9)" xlink:href="#path-8"></use>
                                                <use fill="url(#linearGradient-1)" xlink:href="#path-8"></use>
                                            </g>
                                            <polygon id="Path_1" fill="url(#linearGradient-10)" fill-rule="evenodd" transform="translate(338.668480, 401.517055) rotate(-180.000000) translate(-338.668480, -401.517055) " points="0.608042724 127.017055 215.842804 127.017055 338.67534 335.115505 461.507876 127.017055 676.728918 127.017055 338.67534 676.017055"></polygon>
                                        </g>
                                    </g>
                                </g>
                                <g id="Group-18-Copy" transform="translate(316.000000, -60.000000)"></g>
                            </g>
                        </g>
                    </g>
                </g>
            </g>
        </g>
    </g>
</svg>
