<?xml version="1.0" encoding="utf-8"?>
<!-- Generator: Adobe Illustrator 22.1.0, SVG Export Plug-In . SVG Version: 6.00 Build 0)  -->
<svg version="1.1" id="Layer_1" xmlns="http://www.w3.org/2000/svg" xmlns:xlink="http://www.w3.org/1999/xlink" x="0px" y="0px"
	 viewBox="0 0 1304 667.9" style="enable-background:new 0 0 1304 667.9;" xml:space="preserve">
<style type="text/css">
	.st0{clip-path:url(#SVGID_2_);}
	.st1{filter:url(#filter-3);}
	.st2{fill:#28B655;}
	.st3{filter:url(#Adobe_OpacityMaskFilter);}
	.st4{fill:#FFFFFF;}
	.st5{opacity:0.4475;mask:url(#mask-2_1_);fill:url(#Combined-Shape_1_);enable-background:new    ;}
	.st6{filter:url(#Adobe_OpacityMaskFilter_1_);}
	.st7{opacity:0.4475;mask:url(#mask-2_2_);fill:url(#Combined-Shape-Copy_1_);enable-background:new    ;}
	.st8{filter:url(#Adobe_OpacityMaskFilter_2_);}
	.st9{opacity:0.3213;mask:url(#mask-2_3_);fill:#6FD84F;enable-background:new    ;}
	.st10{filter:url(#Adobe_OpacityMaskFilter_3_);}
	.st11{opacity:0.4533;mask:url(#mask-2_4_);fill:#A7FF81;enable-background:new    ;}
	.st12{filter:url(#Adobe_OpacityMaskFilter_4_);}
	.st13{mask:url(#mask-2_5_);fill:url(#Path_1_1_);}
</style>
<filter  filterUnits="objectBoundingBox" height="117.1%" id="filter-3" width="108.7%" x="-4.3%" y="-4.3%">
	<feMorphology  in="SourceAlpha" operator="erode" radius="10" result="shadowSpreadOuter1"></feMorphology>
	<feOffset  dx="0" dy="29" in="shadowSpreadOuter1" result="shadowOffsetOuter1"></feOffset>
	<feGaussianBlur  in="shadowOffsetOuter1" result="shadowBlurOuter1" stdDeviation="24"></feGaussianBlur>
	
		<feColorMatrix  in="shadowBlurOuter1" type="matrix" values="0 0 0 0 0.11372549   0 0 0 0 0.623529412   0 0 0 0 0.274509804  0 0 0 0.6 0">
		</feColorMatrix>
</filter>
<title>Our partners BG</title>
<desc>Created with Sketch.</desc>
<g>
	<defs>
		<rect id="SVGID_1_" width="1304" height="666.2"/>
	</defs>
	<clipPath id="SVGID_2_">
		<use xlink:href="#SVGID_1_"  style="overflow:visible;"/>
	</clipPath>
	<g id="Desktop" class="st0">
		<g id="Mitoc-Main-Page" transform="translate(-37.000000, -1571.000000)">
			<g id="PARTNERS" transform="translate(65.000000, 1571.000000)">
				<g id="Group-14">
					<g id="Our-partners-BG">
						<g id="Rectangle">
							<g class="st1">
								<rect id="path-1_8_" x="-28" width="1304" height="667"/>
							</g>
							<g>
								<rect id="path-1_2_" x="-28" class="st2" width="1304" height="667"/>
							</g>
						</g>
						<defs>
							<filter id="Adobe_OpacityMaskFilter" filterUnits="userSpaceOnUse" x="250.4" y="53" width="244" height="329.1">
								<feColorMatrix  type="matrix" values="1 0 0 0 0  0 1 0 0 0  0 0 1 0 0  0 0 0 1 0"/>
							</filter>
						</defs>
						<mask maskUnits="userSpaceOnUse" x="250.4" y="53" width="244" height="329.1" id="mask-2_1_">
							<g class="st3">
								<rect id="path-1_3_" x="-28" class="st4" width="1304" height="667"/>
							</g>
						</mask>
						
							<linearGradient id="Combined-Shape_1_" gradientUnits="userSpaceOnUse" x1="272.6979" y1="711.8931" x2="273.6828" y2="711.1119" gradientTransform="matrix(244 0 0 -329.0845 -66275.6094 234373.1719)">
							<stop  offset="0" style="stop-color:#9AFF93"/>
							<stop  offset="1" style="stop-color:#28B655;stop-opacity:0.4929"/>
						</linearGradient>
						<path id="Combined-Shape" class="st5" d="M250.4,53h3.4v3.4h-3.4V53z M267.6,53h3.4v3.4h-3.4V53z M284.8,53h3.4v3.4h-3.4V53z
							 M301.9,53h3.4v3.4h-3.4V53z M319.1,53h3.4v3.4h-3.4V53z M336.3,53h3.4v3.4h-3.4V53z M353.5,53h3.4v3.4h-3.4V53z M370.7,53
							h3.4v3.4h-3.4V53z M387.9,53h3.4v3.4h-3.4V53z M405,53h3.4v3.4H405V53z M422.2,53h3.4v3.4h-3.4V53z M439.4,53h3.4v3.4h-3.4V53
							z M456.6,53h3.4v3.4h-3.4V53z M473.8,53h3.4v3.4h-3.4V53z M491,53h3.4v3.4H491V53z M250.4,70.2h3.4v3.4h-3.4V70.2z
							 M267.6,70.2h3.4v3.4h-3.4V70.2z M284.8,70.2h3.4v3.4h-3.4V70.2z M301.9,70.2h3.4v3.4h-3.4V70.2z M319.1,70.2h3.4v3.4h-3.4
							V70.2z M336.3,70.2h3.4v3.4h-3.4V70.2z M353.5,70.2h3.4v3.4h-3.4V70.2z M370.7,70.2h3.4v3.4h-3.4V70.2z M387.9,70.2h3.4v3.4
							h-3.4V70.2z M405,70.2h3.4v3.4H405V70.2z M422.2,70.2h3.4v3.4h-3.4V70.2z M439.4,70.2h3.4v3.4h-3.4V70.2z M456.6,70.2h3.4v3.4
							h-3.4V70.2z M473.8,70.2h3.4v3.4h-3.4V70.2z M491,70.2h3.4v3.4H491V70.2z M250.4,87.4h3.4v3.4h-3.4V87.4z M267.6,87.4h3.4v3.4
							h-3.4V87.4z M284.8,87.4h3.4v3.4h-3.4V87.4z M301.9,87.4h3.4v3.4h-3.4V87.4z M319.1,87.4h3.4v3.4h-3.4V87.4z M336.3,87.4h3.4
							v3.4h-3.4V87.4z M353.5,87.4h3.4v3.4h-3.4V87.4z M370.7,87.4h3.4v3.4h-3.4V87.4z M387.9,87.4h3.4v3.4h-3.4V87.4z M405,87.4
							h3.4v3.4H405V87.4z M422.2,87.4h3.4v3.4h-3.4V87.4z M439.4,87.4h3.4v3.4h-3.4V87.4z M456.6,87.4h3.4v3.4h-3.4V87.4z
							 M473.8,87.4h3.4v3.4h-3.4V87.4z M491,87.4h3.4v3.4H491V87.4z M250.4,104.5h3.4v3.4h-3.4V104.5z M267.6,104.5h3.4v3.4h-3.4
							V104.5z M284.8,104.5h3.4v3.4h-3.4V104.5z M301.9,104.5h3.4v3.4h-3.4V104.5z M319.1,104.5h3.4v3.4h-3.4V104.5z M336.3,104.5
							h3.4v3.4h-3.4V104.5z M353.5,104.5h3.4v3.4h-3.4V104.5z M370.7,104.5h3.4v3.4h-3.4V104.5z M387.9,104.5h3.4v3.4h-3.4V104.5z
							 M405,104.5h3.4v3.4H405V104.5z M422.2,104.5h3.4v3.4h-3.4V104.5z M439.4,104.5h3.4v3.4h-3.4V104.5z M456.6,104.5h3.4v3.4
							h-3.4V104.5z M473.8,104.5h3.4v3.4h-3.4V104.5z M491,104.5h3.4v3.4H491V104.5z M250.4,121.7h3.4v3.4h-3.4V121.7z M267.6,121.7
							h3.4v3.4h-3.4V121.7z M284.8,121.7h3.4v3.4h-3.4V121.7z M301.9,121.7h3.4v3.4h-3.4V121.7z M319.1,121.7h3.4v3.4h-3.4V121.7z
							 M336.3,121.7h3.4v3.4h-3.4V121.7z M353.5,121.7h3.4v3.4h-3.4V121.7z M370.7,121.7h3.4v3.4h-3.4V121.7z M387.9,121.7h3.4v3.4
							h-3.4V121.7z M405,121.7h3.4v3.4H405V121.7z M422.2,121.7h3.4v3.4h-3.4V121.7z M439.4,121.7h3.4v3.4h-3.4V121.7z M456.6,121.7
							h3.4v3.4h-3.4V121.7z M473.8,121.7h3.4v3.4h-3.4V121.7z M491,121.7h3.4v3.4H491V121.7z M250.4,138.9h3.4v3.4h-3.4V138.9z
							 M267.6,138.9h3.4v3.4h-3.4V138.9z M284.8,138.9h3.4v3.4h-3.4V138.9z M301.9,138.9h3.4v3.4h-3.4V138.9z M319.1,138.9h3.4v3.4
							h-3.4V138.9z M336.3,138.9h3.4v3.4h-3.4V138.9z M353.5,138.9h3.4v3.4h-3.4V138.9z M370.7,138.9h3.4v3.4h-3.4V138.9z
							 M387.9,138.9h3.4v3.4h-3.4V138.9z M405,138.9h3.4v3.4H405V138.9z M422.2,138.9h3.4v3.4h-3.4V138.9z M439.4,138.9h3.4v3.4
							h-3.4V138.9z M456.6,138.9h3.4v3.4h-3.4V138.9z M473.8,138.9h3.4v3.4h-3.4V138.9z M491,138.9h3.4v3.4H491V138.9z M250.4,156.1
							h3.4v3.4h-3.4V156.1z M267.6,156.1h3.4v3.4h-3.4V156.1z M284.8,156.1h3.4v3.4h-3.4V156.1z M301.9,156.1h3.4v3.4h-3.4V156.1z
							 M319.1,156.1h3.4v3.4h-3.4V156.1z M336.3,156.1h3.4v3.4h-3.4V156.1z M353.5,156.1h3.4v3.4h-3.4V156.1z M370.7,156.1h3.4v3.4
							h-3.4V156.1z M387.9,156.1h3.4v3.4h-3.4V156.1z M405,156.1h3.4v3.4H405V156.1z M422.2,156.1h3.4v3.4h-3.4V156.1z M439.4,156.1
							h3.4v3.4h-3.4V156.1z M456.6,156.1h3.4v3.4h-3.4V156.1z M473.8,156.1h3.4v3.4h-3.4V156.1z M491,156.1h3.4v3.4H491V156.1z
							 M250.4,173.3h3.4v3.4h-3.4V173.3z M267.6,173.3h3.4v3.4h-3.4V173.3z M284.8,173.3h3.4v3.4h-3.4V173.3z M301.9,173.3h3.4v3.4
							h-3.4V173.3z M319.1,173.3h3.4v3.4h-3.4V173.3z M336.3,173.3h3.4v3.4h-3.4V173.3z M353.5,173.3h3.4v3.4h-3.4V173.3z
							 M370.7,173.3h3.4v3.4h-3.4V173.3z M387.9,173.3h3.4v3.4h-3.4V173.3z M405,173.3h3.4v3.4H405V173.3z M422.2,173.3h3.4v3.4
							h-3.4V173.3z M439.4,173.3h3.4v3.4h-3.4V173.3z M456.6,173.3h3.4v3.4h-3.4V173.3z M473.8,173.3h3.4v3.4h-3.4V173.3z
							 M491,173.3h3.4v3.4H491V173.3z M250.4,190.5h3.4v3.4h-3.4V190.5z M267.6,190.5h3.4v3.4h-3.4V190.5z M284.8,190.5h3.4v3.4
							h-3.4V190.5z M301.9,190.5h3.4v3.4h-3.4V190.5z M319.1,190.5h3.4v3.4h-3.4V190.5z M336.3,190.5h3.4v3.4h-3.4V190.5z
							 M353.5,190.5h3.4v3.4h-3.4V190.5z M370.7,190.5h3.4v3.4h-3.4V190.5z M387.9,190.5h3.4v3.4h-3.4V190.5z M405,190.5h3.4v3.4
							H405V190.5z M422.2,190.5h3.4v3.4h-3.4V190.5z M439.4,190.5h3.4v3.4h-3.4V190.5z M456.6,190.5h3.4v3.4h-3.4V190.5z
							 M473.8,190.5h3.4v3.4h-3.4V190.5z M491,190.5h3.4v3.4H491V190.5z M250.4,207.6h3.4v3.4h-3.4V207.6z M267.6,207.6h3.4v3.4
							h-3.4V207.6z M284.8,207.6h3.4v3.4h-3.4V207.6z M301.9,207.6h3.4v3.4h-3.4V207.6z M319.1,207.6h3.4v3.4h-3.4V207.6z
							 M336.3,207.6h3.4v3.4h-3.4V207.6z M353.5,207.6h3.4v3.4h-3.4V207.6z M370.7,207.6h3.4v3.4h-3.4V207.6z M387.9,207.6h3.4v3.4
							h-3.4V207.6z M405,207.6h3.4v3.4H405V207.6z M422.2,207.6h3.4v3.4h-3.4V207.6z M439.4,207.6h3.4v3.4h-3.4V207.6z M456.6,207.6
							h3.4v3.4h-3.4V207.6z M473.8,207.6h3.4v3.4h-3.4V207.6z M491,207.6h3.4v3.4H491V207.6z M250.4,224h3.4v3.4h-3.4V224z
							 M267.6,224h3.4v3.4h-3.4V224z M284.8,224h3.4v3.4h-3.4V224z M301.9,224h3.4v3.4h-3.4V224z M319.1,224h3.4v3.4h-3.4V224z
							 M336.3,224h3.4v3.4h-3.4V224z M353.5,224h3.4v3.4h-3.4V224z M370.7,224h3.4v3.4h-3.4V224z M387.9,224h3.4v3.4h-3.4V224z
							 M405,224h3.4v3.4H405V224z M422.2,224h3.4v3.4h-3.4V224z M439.4,224h3.4v3.4h-3.4V224z M456.6,224h3.4v3.4h-3.4V224z
							 M473.8,224h3.4v3.4h-3.4V224z M491,224h3.4v3.4H491V224z M250.4,241.2h3.4v3.4h-3.4V241.2z M267.6,241.2h3.4v3.4h-3.4V241.2z
							 M284.8,241.2h3.4v3.4h-3.4V241.2z M301.9,241.2h3.4v3.4h-3.4V241.2z M319.1,241.2h3.4v3.4h-3.4V241.2z M336.3,241.2h3.4v3.4
							h-3.4V241.2z M353.5,241.2h3.4v3.4h-3.4V241.2z M370.7,241.2h3.4v3.4h-3.4V241.2z M387.9,241.2h3.4v3.4h-3.4V241.2z
							 M405,241.2h3.4v3.4H405V241.2z M422.2,241.2h3.4v3.4h-3.4V241.2z M439.4,241.2h3.4v3.4h-3.4V241.2z M456.6,241.2h3.4v3.4
							h-3.4V241.2z M473.8,241.2h3.4v3.4h-3.4V241.2z M491,241.2h3.4v3.4H491V241.2z M250.4,258.4h3.4v3.4h-3.4V258.4z M267.6,258.4
							h3.4v3.4h-3.4V258.4z M284.8,258.4h3.4v3.4h-3.4V258.4z M301.9,258.4h3.4v3.4h-3.4V258.4z M319.1,258.4h3.4v3.4h-3.4V258.4z
							 M336.3,258.4h3.4v3.4h-3.4V258.4z M353.5,258.4h3.4v3.4h-3.4V258.4z M370.7,258.4h3.4v3.4h-3.4V258.4z M387.9,258.4h3.4v3.4
							h-3.4V258.4z M405,258.4h3.4v3.4H405V258.4z M422.2,258.4h3.4v3.4h-3.4V258.4z M439.4,258.4h3.4v3.4h-3.4V258.4z M456.6,258.4
							h3.4v3.4h-3.4V258.4z M473.8,258.4h3.4v3.4h-3.4V258.4z M491,258.4h3.4v3.4H491V258.4z M250.4,275.5h3.4v3.4h-3.4V275.5z
							 M267.6,275.5h3.4v3.4h-3.4V275.5z M284.8,275.5h3.4v3.4h-3.4V275.5z M301.9,275.5h3.4v3.4h-3.4V275.5z M319.1,275.5h3.4v3.4
							h-3.4V275.5z M336.3,275.5h3.4v3.4h-3.4V275.5z M353.5,275.5h3.4v3.4h-3.4V275.5z M370.7,275.5h3.4v3.4h-3.4V275.5z
							 M387.9,275.5h3.4v3.4h-3.4V275.5z M405,275.5h3.4v3.4H405V275.5z M422.2,275.5h3.4v3.4h-3.4V275.5z M439.4,275.5h3.4v3.4
							h-3.4V275.5z M456.6,275.5h3.4v3.4h-3.4V275.5z M473.8,275.5h3.4v3.4h-3.4V275.5z M491,275.5h3.4v3.4H491V275.5z M250.4,292.7
							h3.4v3.4h-3.4V292.7z M267.6,292.7h3.4v3.4h-3.4V292.7z M284.8,292.7h3.4v3.4h-3.4V292.7z M301.9,292.7h3.4v3.4h-3.4V292.7z
							 M319.1,292.7h3.4v3.4h-3.4V292.7z M336.3,292.7h3.4v3.4h-3.4V292.7z M353.5,292.7h3.4v3.4h-3.4V292.7z M370.7,292.7h3.4v3.4
							h-3.4V292.7z M387.9,292.7h3.4v3.4h-3.4V292.7z M405,292.7h3.4v3.4H405V292.7z M422.2,292.7h3.4v3.4h-3.4V292.7z M439.4,292.7
							h3.4v3.4h-3.4V292.7z M456.6,292.7h3.4v3.4h-3.4V292.7z M473.8,292.7h3.4v3.4h-3.4V292.7z M491,292.7h3.4v3.4H491V292.7z
							 M250.4,309.9h3.4v3.4h-3.4V309.9z M267.6,309.9h3.4v3.4h-3.4V309.9z M284.8,309.9h3.4v3.4h-3.4V309.9z M301.9,309.9h3.4v3.4
							h-3.4V309.9z M319.1,309.9h3.4v3.4h-3.4V309.9z M336.3,309.9h3.4v3.4h-3.4V309.9z M353.5,309.9h3.4v3.4h-3.4V309.9z
							 M370.7,309.9h3.4v3.4h-3.4V309.9z M387.9,309.9h3.4v3.4h-3.4V309.9z M405,309.9h3.4v3.4H405V309.9z M422.2,309.9h3.4v3.4
							h-3.4V309.9z M439.4,309.9h3.4v3.4h-3.4V309.9z M456.6,309.9h3.4v3.4h-3.4V309.9z M473.8,309.9h3.4v3.4h-3.4V309.9z
							 M491,309.9h3.4v3.4H491V309.9z M250.4,327.1h3.4v3.4h-3.4V327.1z M267.6,327.1h3.4v3.4h-3.4V327.1z M284.8,327.1h3.4v3.4
							h-3.4V327.1z M301.9,327.1h3.4v3.4h-3.4V327.1z M319.1,327.1h3.4v3.4h-3.4V327.1z M336.3,327.1h3.4v3.4h-3.4V327.1z
							 M353.5,327.1h3.4v3.4h-3.4V327.1z M370.7,327.1h3.4v3.4h-3.4V327.1z M387.9,327.1h3.4v3.4h-3.4V327.1z M405,327.1h3.4v3.4
							H405V327.1z M422.2,327.1h3.4v3.4h-3.4V327.1z M439.4,327.1h3.4v3.4h-3.4V327.1z M456.6,327.1h3.4v3.4h-3.4V327.1z
							 M473.8,327.1h3.4v3.4h-3.4V327.1z M491,327.1h3.4v3.4H491V327.1z M250.4,344.3h3.4v3.4h-3.4V344.3z M267.6,344.3h3.4v3.4
							h-3.4V344.3z M284.8,344.3h3.4v3.4h-3.4V344.3z M301.9,344.3h3.4v3.4h-3.4V344.3z M319.1,344.3h3.4v3.4h-3.4V344.3z
							 M336.3,344.3h3.4v3.4h-3.4V344.3z M353.5,344.3h3.4v3.4h-3.4V344.3z M370.7,344.3h3.4v3.4h-3.4V344.3z M387.9,344.3h3.4v3.4
							h-3.4V344.3z M405,344.3h3.4v3.4H405V344.3z M422.2,344.3h3.4v3.4h-3.4V344.3z M439.4,344.3h3.4v3.4h-3.4V344.3z M456.6,344.3
							h3.4v3.4h-3.4V344.3z M473.8,344.3h3.4v3.4h-3.4V344.3z M491,344.3h3.4v3.4H491V344.3z M250.4,361.5h3.4v3.4h-3.4V361.5z
							 M267.6,361.5h3.4v3.4h-3.4V361.5z M284.8,361.5h3.4v3.4h-3.4V361.5z M301.9,361.5h3.4v3.4h-3.4V361.5z M319.1,361.5h3.4v3.4
							h-3.4V361.5z M336.3,361.5h3.4v3.4h-3.4V361.5z M353.5,361.5h3.4v3.4h-3.4V361.5z M370.7,361.5h3.4v3.4h-3.4V361.5z
							 M387.9,361.5h3.4v3.4h-3.4V361.5z M405,361.5h3.4v3.4H405V361.5z M422.2,361.5h3.4v3.4h-3.4V361.5z M439.4,361.5h3.4v3.4
							h-3.4V361.5z M456.6,361.5h3.4v3.4h-3.4V361.5z M473.8,361.5h3.4v3.4h-3.4V361.5z M491,361.5h3.4v3.4H491V361.5z M250.4,378.6
							h3.4v3.4h-3.4V378.6z M267.6,378.6h3.4v3.4h-3.4V378.6z M284.8,378.6h3.4v3.4h-3.4V378.6z M301.9,378.6h3.4v3.4h-3.4V378.6z
							 M319.1,378.6h3.4v3.4h-3.4V378.6z M336.3,378.6h3.4v3.4h-3.4V378.6z M353.5,378.6h3.4v3.4h-3.4V378.6z M370.7,378.6h3.4v3.4
							h-3.4V378.6z M387.9,378.6h3.4v3.4h-3.4V378.6z M405,378.6h3.4v3.4H405V378.6z M422.2,378.6h3.4v3.4h-3.4V378.6z M439.4,378.6
							h3.4v3.4h-3.4V378.6z M456.6,378.6h3.4v3.4h-3.4V378.6z M473.8,378.6h3.4v3.4h-3.4V378.6z M491,378.6h3.4v3.4H491V378.6z"/>
						<defs>
							<filter id="Adobe_OpacityMaskFilter_1_" filterUnits="userSpaceOnUse" x="1023.4" y="356" width="244" height="329.1">
								<feColorMatrix  type="matrix" values="1 0 0 0 0  0 1 0 0 0  0 0 1 0 0  0 0 0 1 0"/>
							</filter>
						</defs>
						<mask maskUnits="userSpaceOnUse" x="1023.4" y="356" width="244" height="329.1" id="mask-2_2_">
							<g class="st6">
								<rect id="path-1_4_" x="-28" class="st4" width="1304" height="667"/>
							</g>
						</mask>
						
							<linearGradient id="Combined-Shape-Copy_1_" gradientUnits="userSpaceOnUse" x1="272.5681" y1="711.9148" x2="273.6061" y2="711.2371" gradientTransform="matrix(244 0 0 -329.0845 -65502.6094 234676.1875)">
							<stop  offset="0" style="stop-color:#9AFF93"/>
							<stop  offset="1" style="stop-color:#28B655;stop-opacity:0.4929"/>
						</linearGradient>
						<path id="Combined-Shape-Copy" class="st7" d="M1023.4,356h3.4v3.4h-3.4V356z M1040.6,356h3.4v3.4h-3.4V356z M1057.8,356h3.4
							v3.4h-3.4V356z M1074.9,356h3.4v3.4h-3.4V356z M1092.1,356h3.4v3.4h-3.4V356z M1109.3,356h3.4v3.4h-3.4V356z M1126.5,356h3.4
							v3.4h-3.4V356z M1143.7,356h3.4v3.4h-3.4V356z M1160.9,356h3.4v3.4h-3.4V356z M1178,356h3.4v3.4h-3.4V356z M1195.2,356h3.4
							v3.4h-3.4V356z M1212.4,356h3.4v3.4h-3.4V356z M1229.6,356h3.4v3.4h-3.4V356z M1246.8,356h3.4v3.4h-3.4V356z M1264,356h3.4
							v3.4h-3.4V356z M1023.4,373.2h3.4v3.4h-3.4V373.2z M1040.6,373.2h3.4v3.4h-3.4V373.2z M1057.8,373.2h3.4v3.4h-3.4V373.2z
							 M1074.9,373.2h3.4v3.4h-3.4V373.2z M1092.1,373.2h3.4v3.4h-3.4V373.2z M1109.3,373.2h3.4v3.4h-3.4V373.2z M1126.5,373.2h3.4
							v3.4h-3.4V373.2z M1143.7,373.2h3.4v3.4h-3.4V373.2z M1160.9,373.2h3.4v3.4h-3.4V373.2z M1178,373.2h3.4v3.4h-3.4V373.2z
							 M1195.2,373.2h3.4v3.4h-3.4V373.2z M1212.4,373.2h3.4v3.4h-3.4V373.2z M1229.6,373.2h3.4v3.4h-3.4V373.2z M1246.8,373.2h3.4
							v3.4h-3.4V373.2z M1264,373.2h3.4v3.4h-3.4V373.2z M1023.4,390.4h3.4v3.4h-3.4V390.4z M1040.6,390.4h3.4v3.4h-3.4V390.4z
							 M1057.8,390.4h3.4v3.4h-3.4V390.4z M1074.9,390.4h3.4v3.4h-3.4V390.4z M1092.1,390.4h3.4v3.4h-3.4V390.4z M1109.3,390.4h3.4
							v3.4h-3.4V390.4z M1126.5,390.4h3.4v3.4h-3.4V390.4z M1143.7,390.4h3.4v3.4h-3.4V390.4z M1160.9,390.4h3.4v3.4h-3.4V390.4z
							 M1178,390.4h3.4v3.4h-3.4V390.4z M1195.2,390.4h3.4v3.4h-3.4V390.4z M1212.4,390.4h3.4v3.4h-3.4V390.4z M1229.6,390.4h3.4
							v3.4h-3.4V390.4z M1246.8,390.4h3.4v3.4h-3.4V390.4z M1264,390.4h3.4v3.4h-3.4V390.4z M1023.4,407.5h3.4v3.4h-3.4V407.5z
							 M1040.6,407.5h3.4v3.4h-3.4V407.5z M1057.8,407.5h3.4v3.4h-3.4V407.5z M1074.9,407.5h3.4v3.4h-3.4V407.5z M1092.1,407.5h3.4
							v3.4h-3.4V407.5z M1109.3,407.5h3.4v3.4h-3.4V407.5z M1126.5,407.5h3.4v3.4h-3.4V407.5z M1143.7,407.5h3.4v3.4h-3.4V407.5z
							 M1160.9,407.5h3.4v3.4h-3.4V407.5z M1178,407.5h3.4v3.4h-3.4V407.5z M1195.2,407.5h3.4v3.4h-3.4V407.5z M1212.4,407.5h3.4
							v3.4h-3.4V407.5z M1229.6,407.5h3.4v3.4h-3.4V407.5z M1246.8,407.5h3.4v3.4h-3.4V407.5z M1264,407.5h3.4v3.4h-3.4V407.5z
							 M1023.4,424.7h3.4v3.4h-3.4V424.7z M1040.6,424.7h3.4v3.4h-3.4V424.7z M1057.8,424.7h3.4v3.4h-3.4V424.7z M1074.9,424.7h3.4
							v3.4h-3.4V424.7z M1092.1,424.7h3.4v3.4h-3.4V424.7z M1109.3,424.7h3.4v3.4h-3.4V424.7z M1126.5,424.7h3.4v3.4h-3.4V424.7z
							 M1143.7,424.7h3.4v3.4h-3.4V424.7z M1160.9,424.7h3.4v3.4h-3.4V424.7z M1178,424.7h3.4v3.4h-3.4V424.7z M1195.2,424.7h3.4
							v3.4h-3.4V424.7z M1212.4,424.7h3.4v3.4h-3.4V424.7z M1229.6,424.7h3.4v3.4h-3.4V424.7z M1246.8,424.7h3.4v3.4h-3.4V424.7z
							 M1264,424.7h3.4v3.4h-3.4V424.7z M1023.4,441.9h3.4v3.4h-3.4V441.9z M1040.6,441.9h3.4v3.4h-3.4V441.9z M1057.8,441.9h3.4
							v3.4h-3.4V441.9z M1074.9,441.9h3.4v3.4h-3.4V441.9z M1092.1,441.9h3.4v3.4h-3.4V441.9z M1109.3,441.9h3.4v3.4h-3.4V441.9z
							 M1126.5,441.9h3.4v3.4h-3.4V441.9z M1143.7,441.9h3.4v3.4h-3.4V441.9z M1160.9,441.9h3.4v3.4h-3.4V441.9z M1178,441.9h3.4
							v3.4h-3.4V441.9z M1195.2,441.9h3.4v3.4h-3.4V441.9z M1212.4,441.9h3.4v3.4h-3.4V441.9z M1229.6,441.9h3.4v3.4h-3.4V441.9z
							 M1246.8,441.9h3.4v3.4h-3.4V441.9z M1264,441.9h3.4v3.4h-3.4V441.9z M1023.4,459.1h3.4v3.4h-3.4V459.1z M1040.6,459.1h3.4
							v3.4h-3.4V459.1z M1057.8,459.1h3.4v3.4h-3.4V459.1z M1074.9,459.1h3.4v3.4h-3.4V459.1z M1092.1,459.1h3.4v3.4h-3.4V459.1z
							 M1109.3,459.1h3.4v3.4h-3.4V459.1z M1126.5,459.1h3.4v3.4h-3.4V459.1z M1143.7,459.1h3.4v3.4h-3.4V459.1z M1160.9,459.1h3.4
							v3.4h-3.4V459.1z M1178,459.1h3.4v3.4h-3.4V459.1z M1195.2,459.1h3.4v3.4h-3.4V459.1z M1212.4,459.1h3.4v3.4h-3.4V459.1z
							 M1229.6,459.1h3.4v3.4h-3.4V459.1z M1246.8,459.1h3.4v3.4h-3.4V459.1z M1264,459.1h3.4v3.4h-3.4V459.1z M1023.4,476.3h3.4
							v3.4h-3.4V476.3z M1040.6,476.3h3.4v3.4h-3.4V476.3z M1057.8,476.3h3.4v3.4h-3.4V476.3z M1074.9,476.3h3.4v3.4h-3.4V476.3z
							 M1092.1,476.3h3.4v3.4h-3.4V476.3z M1109.3,476.3h3.4v3.4h-3.4V476.3z M1126.5,476.3h3.4v3.4h-3.4V476.3z M1143.7,476.3h3.4
							v3.4h-3.4V476.3z M1160.9,476.3h3.4v3.4h-3.4V476.3z M1178,476.3h3.4v3.4h-3.4V476.3z M1195.2,476.3h3.4v3.4h-3.4V476.3z
							 M1212.4,476.3h3.4v3.4h-3.4V476.3z M1229.6,476.3h3.4v3.4h-3.4V476.3z M1246.8,476.3h3.4v3.4h-3.4V476.3z M1264,476.3h3.4
							v3.4h-3.4V476.3z M1023.4,493.5h3.4v3.4h-3.4V493.5z M1040.6,493.5h3.4v3.4h-3.4V493.5z M1057.8,493.5h3.4v3.4h-3.4V493.5z
							 M1074.9,493.5h3.4v3.4h-3.4V493.5z M1092.1,493.5h3.4v3.4h-3.4V493.5z M1109.3,493.5h3.4v3.4h-3.4V493.5z M1126.5,493.5h3.4
							v3.4h-3.4V493.5z M1143.7,493.5h3.4v3.4h-3.4V493.5z M1160.9,493.5h3.4v3.4h-3.4V493.5z M1178,493.5h3.4v3.4h-3.4V493.5z
							 M1195.2,493.5h3.4v3.4h-3.4V493.5z M1212.4,493.5h3.4v3.4h-3.4V493.5z M1229.6,493.5h3.4v3.4h-3.4V493.5z M1246.8,493.5h3.4
							v3.4h-3.4V493.5z M1264,493.5h3.4v3.4h-3.4V493.5z M1023.4,510.6h3.4v3.4h-3.4V510.6z M1040.6,510.6h3.4v3.4h-3.4V510.6z
							 M1057.8,510.6h3.4v3.4h-3.4V510.6z M1074.9,510.6h3.4v3.4h-3.4V510.6z M1092.1,510.6h3.4v3.4h-3.4V510.6z M1109.3,510.6h3.4
							v3.4h-3.4V510.6z M1126.5,510.6h3.4v3.4h-3.4V510.6z M1143.7,510.6h3.4v3.4h-3.4V510.6z M1160.9,510.6h3.4v3.4h-3.4V510.6z
							 M1178,510.6h3.4v3.4h-3.4V510.6z M1195.2,510.6h3.4v3.4h-3.4V510.6z M1212.4,510.6h3.4v3.4h-3.4V510.6z M1229.6,510.6h3.4
							v3.4h-3.4V510.6z M1246.8,510.6h3.4v3.4h-3.4V510.6z M1264,510.6h3.4v3.4h-3.4V510.6z M1023.4,527h3.4v3.4h-3.4V527z
							 M1040.6,527h3.4v3.4h-3.4V527z M1057.8,527h3.4v3.4h-3.4V527z M1074.9,527h3.4v3.4h-3.4V527z M1092.1,527h3.4v3.4h-3.4V527z
							 M1109.3,527h3.4v3.4h-3.4V527z M1126.5,527h3.4v3.4h-3.4V527z M1143.7,527h3.4v3.4h-3.4V527z M1160.9,527h3.4v3.4h-3.4V527z
							 M1178,527h3.4v3.4h-3.4V527z M1195.2,527h3.4v3.4h-3.4V527z M1212.4,527h3.4v3.4h-3.4V527z M1229.6,527h3.4v3.4h-3.4V527z
							 M1246.8,527h3.4v3.4h-3.4V527z M1264,527h3.4v3.4h-3.4V527z M1023.4,544.2h3.4v3.4h-3.4V544.2z M1040.6,544.2h3.4v3.4h-3.4
							V544.2z M1057.8,544.2h3.4v3.4h-3.4V544.2z M1074.9,544.2h3.4v3.4h-3.4V544.2z M1092.1,544.2h3.4v3.4h-3.4V544.2z
							 M1109.3,544.2h3.4v3.4h-3.4V544.2z M1126.5,544.2h3.4v3.4h-3.4V544.2z M1143.7,544.2h3.4v3.4h-3.4V544.2z M1160.9,544.2h3.4
							v3.4h-3.4V544.2z M1178,544.2h3.4v3.4h-3.4V544.2z M1195.2,544.2h3.4v3.4h-3.4V544.2z M1212.4,544.2h3.4v3.4h-3.4V544.2z
							 M1229.6,544.2h3.4v3.4h-3.4V544.2z M1246.8,544.2h3.4v3.4h-3.4V544.2z M1264,544.2h3.4v3.4h-3.4V544.2z M1023.4,561.4h3.4
							v3.4h-3.4V561.4z M1040.6,561.4h3.4v3.4h-3.4V561.4z M1057.8,561.4h3.4v3.4h-3.4V561.4z M1074.9,561.4h3.4v3.4h-3.4V561.4z
							 M1092.1,561.4h3.4v3.4h-3.4V561.4z M1109.3,561.4h3.4v3.4h-3.4V561.4z M1126.5,561.4h3.4v3.4h-3.4V561.4z M1143.7,561.4h3.4
							v3.4h-3.4V561.4z M1160.9,561.4h3.4v3.4h-3.4V561.4z M1178,561.4h3.4v3.4h-3.4V561.4z M1195.2,561.4h3.4v3.4h-3.4V561.4z
							 M1212.4,561.4h3.4v3.4h-3.4V561.4z M1229.6,561.4h3.4v3.4h-3.4V561.4z M1246.8,561.4h3.4v3.4h-3.4V561.4z M1264,561.4h3.4
							v3.4h-3.4V561.4z M1023.4,578.5h3.4v3.4h-3.4V578.5z M1040.6,578.5h3.4v3.4h-3.4V578.5z M1057.8,578.5h3.4v3.4h-3.4V578.5z
							 M1074.9,578.5h3.4v3.4h-3.4V578.5z M1092.1,578.5h3.4v3.4h-3.4V578.5z M1109.3,578.5h3.4v3.4h-3.4V578.5z M1126.5,578.5h3.4
							v3.4h-3.4V578.5z M1143.7,578.5h3.4v3.4h-3.4V578.5z M1160.9,578.5h3.4v3.4h-3.4V578.5z M1178,578.5h3.4v3.4h-3.4V578.5z
							 M1195.2,578.5h3.4v3.4h-3.4V578.5z M1212.4,578.5h3.4v3.4h-3.4V578.5z M1229.6,578.5h3.4v3.4h-3.4V578.5z M1246.8,578.5h3.4
							v3.4h-3.4V578.5z M1264,578.5h3.4v3.4h-3.4V578.5z M1023.4,595.7h3.4v3.4h-3.4V595.7z M1040.6,595.7h3.4v3.4h-3.4V595.7z
							 M1057.8,595.7h3.4v3.4h-3.4V595.7z M1074.9,595.7h3.4v3.4h-3.4V595.7z M1092.1,595.7h3.4v3.4h-3.4V595.7z M1109.3,595.7h3.4
							v3.4h-3.4V595.7z M1126.5,595.7h3.4v3.4h-3.4V595.7z M1143.7,595.7h3.4v3.4h-3.4V595.7z M1160.9,595.7h3.4v3.4h-3.4V595.7z
							 M1178,595.7h3.4v3.4h-3.4V595.7z M1195.2,595.7h3.4v3.4h-3.4V595.7z M1212.4,595.7h3.4v3.4h-3.4V595.7z M1229.6,595.7h3.4
							v3.4h-3.4V595.7z M1246.8,595.7h3.4v3.4h-3.4V595.7z M1264,595.7h3.4v3.4h-3.4V595.7z M1023.4,612.9h3.4v3.4h-3.4V612.9z
							 M1040.6,612.9h3.4v3.4h-3.4V612.9z M1057.8,612.9h3.4v3.4h-3.4V612.9z M1074.9,612.9h3.4v3.4h-3.4V612.9z M1092.1,612.9h3.4
							v3.4h-3.4V612.9z M1109.3,612.9h3.4v3.4h-3.4V612.9z M1126.5,612.9h3.4v3.4h-3.4V612.9z M1143.7,612.9h3.4v3.4h-3.4V612.9z
							 M1160.9,612.9h3.4v3.4h-3.4V612.9z M1178,612.9h3.4v3.4h-3.4V612.9z M1195.2,612.9h3.4v3.4h-3.4V612.9z M1212.4,612.9h3.4
							v3.4h-3.4V612.9z M1229.6,612.9h3.4v3.4h-3.4V612.9z M1246.8,612.9h3.4v3.4h-3.4V612.9z M1264,612.9h3.4v3.4h-3.4V612.9z
							 M1023.4,630.1h3.4v3.4h-3.4V630.1z M1040.6,630.1h3.4v3.4h-3.4V630.1z M1057.8,630.1h3.4v3.4h-3.4V630.1z M1074.9,630.1h3.4
							v3.4h-3.4V630.1z M1092.1,630.1h3.4v3.4h-3.4V630.1z M1109.3,630.1h3.4v3.4h-3.4V630.1z M1126.5,630.1h3.4v3.4h-3.4V630.1z
							 M1143.7,630.1h3.4v3.4h-3.4V630.1z M1160.9,630.1h3.4v3.4h-3.4V630.1z M1178,630.1h3.4v3.4h-3.4V630.1z M1195.2,630.1h3.4
							v3.4h-3.4V630.1z M1212.4,630.1h3.4v3.4h-3.4V630.1z M1229.6,630.1h3.4v3.4h-3.4V630.1z M1246.8,630.1h3.4v3.4h-3.4V630.1z
							 M1264,630.1h3.4v3.4h-3.4V630.1z M1023.4,647.3h3.4v3.4h-3.4V647.3z M1040.6,647.3h3.4v3.4h-3.4V647.3z M1057.8,647.3h3.4
							v3.4h-3.4V647.3z M1074.9,647.3h3.4v3.4h-3.4V647.3z M1092.1,647.3h3.4v3.4h-3.4V647.3z M1109.3,647.3h3.4v3.4h-3.4V647.3z
							 M1126.5,647.3h3.4v3.4h-3.4V647.3z M1143.7,647.3h3.4v3.4h-3.4V647.3z M1160.9,647.3h3.4v3.4h-3.4V647.3z M1178,647.3h3.4
							v3.4h-3.4V647.3z M1195.2,647.3h3.4v3.4h-3.4V647.3z M1212.4,647.3h3.4v3.4h-3.4V647.3z M1229.6,647.3h3.4v3.4h-3.4V647.3z
							 M1246.8,647.3h3.4v3.4h-3.4V647.3z M1264,647.3h3.4v3.4h-3.4V647.3z M1023.4,664.5h3.4v3.4h-3.4V664.5z M1040.6,664.5h3.4
							v3.4h-3.4V664.5z M1057.8,664.5h3.4v3.4h-3.4V664.5z M1074.9,664.5h3.4v3.4h-3.4V664.5z M1092.1,664.5h3.4v3.4h-3.4V664.5z
							 M1109.3,664.5h3.4v3.4h-3.4V664.5z M1126.5,664.5h3.4v3.4h-3.4V664.5z M1143.7,664.5h3.4v3.4h-3.4V664.5z M1160.9,664.5h3.4
							v3.4h-3.4V664.5z M1178,664.5h3.4v3.4h-3.4V664.5z M1195.2,664.5h3.4v3.4h-3.4V664.5z M1212.4,664.5h3.4v3.4h-3.4V664.5z
							 M1229.6,664.5h3.4v3.4h-3.4V664.5z M1246.8,664.5h3.4v3.4h-3.4V664.5z M1264,664.5h3.4v3.4h-3.4V664.5z M1023.4,681.6h3.4
							v3.4h-3.4V681.6z M1040.6,681.6h3.4v3.4h-3.4V681.6z M1057.8,681.6h3.4v3.4h-3.4V681.6z M1074.9,681.6h3.4v3.4h-3.4V681.6z
							 M1092.1,681.6h3.4v3.4h-3.4V681.6z M1109.3,681.6h3.4v3.4h-3.4V681.6z M1126.5,681.6h3.4v3.4h-3.4V681.6z M1143.7,681.6h3.4
							v3.4h-3.4V681.6z M1160.9,681.6h3.4v3.4h-3.4V681.6z M1178,681.6h3.4v3.4h-3.4V681.6z M1195.2,681.6h3.4v3.4h-3.4V681.6z
							 M1212.4,681.6h3.4v3.4h-3.4V681.6z M1229.6,681.6h3.4v3.4h-3.4V681.6z M1246.8,681.6h3.4v3.4h-3.4V681.6z M1264,681.6h3.4
							v3.4h-3.4V681.6z"/>
						<defs>
							<filter id="Adobe_OpacityMaskFilter_2_" filterUnits="userSpaceOnUse" x="678.4" y="-108" width="541.2" height="313.4">
								<feColorMatrix  type="matrix" values="1 0 0 0 0  0 1 0 0 0  0 0 1 0 0  0 0 0 1 0"/>
							</filter>
						</defs>
						<mask maskUnits="userSpaceOnUse" x="678.4" y="-108" width="541.2" height="313.4" id="mask-2_3_">
							<g class="st8">
								<rect id="path-1_5_" x="-28" class="st4" width="1304" height="667"/>
							</g>
						</mask>
						<polyline id="Path" class="st9" points="1219.6,72.7 906.7,-108 678.4,24.7 991.3,205.4 1219.6,72.7 						"/>
						<defs>
							<filter id="Adobe_OpacityMaskFilter_3_" filterUnits="userSpaceOnUse" x="678.4" y="-150" width="541.2" height="313.4">
								<feColorMatrix  type="matrix" values="1 0 0 0 0  0 1 0 0 0  0 0 1 0 0  0 0 0 1 0"/>
							</filter>
						</defs>
						<mask maskUnits="userSpaceOnUse" x="678.4" y="-150" width="541.2" height="313.4" id="mask-2_4_">
							<g class="st10">
								<rect id="path-1_6_" x="-28" class="st4" width="1304" height="667"/>
							</g>
						</mask>
						<polyline id="Path_1_" class="st11" points="1219.6,30.7 906.7,-150 678.4,-17.3 991.3,163.4 1219.6,30.7 						"/>
						<defs>
							<filter id="Adobe_OpacityMaskFilter_4_" filterUnits="userSpaceOnUse" x="-161" y="221" width="676.1" height="549">
								<feColorMatrix  type="matrix" values="1 0 0 0 0  0 1 0 0 0  0 0 1 0 0  0 0 0 1 0"/>
							</filter>
						</defs>
						<mask maskUnits="userSpaceOnUse" x="-161" y="221" width="676.1" height="549" id="mask-2_5_">
							<g class="st12">
								<rect id="path-1_7_" x="-28" class="st4" width="1304" height="667"/>
							</g>
						</mask>
						
							<linearGradient id="Path_1_1_" gradientUnits="userSpaceOnUse" x1="275.0627" y1="711.777" x2="275.3923" y2="711.2154" gradientTransform="matrix(-676.1208 0 0 549 186102.2344 -390106)">
							<stop  offset="0" style="stop-color:#75DB4F;stop-opacity:0"/>
							<stop  offset="1" style="stop-color:#75DB4F"/>
						</linearGradient>
						<polygon id="Path_1" class="st13" points="515.1,770 299.9,770 177.1,561.9 54.2,770 -161,770 177.1,221 						"/>
					</g>
				</g>
			</g>
		</g>
	</g>
</g>
</svg>
