<?xml version="1.0" encoding="utf-8"?>
<!-- Generator: Adobe Illustrator 22.1.0, SVG Export Plug-In . SVG Version: 6.00 Build 0)  -->
<svg version="1.1" id="Layer_1" xmlns="http://www.w3.org/2000/svg" xmlns:xlink="http://www.w3.org/1999/xlink" x="0px" y="0px"
	 viewBox="0 0 1440 472" style="enable-background:new 0 0 1440 472;" xml:space="preserve">
<style type="text/css">
	.st0{fill:#FF9900;}
	.st1{filter:url(#Adobe_OpacityMaskFilter);}
	.st2{fill:#FFFFFF;}
	.st3{mask:url(#mask-2_1_);}
	.st4{opacity:0.4475;fill:url(#Path_1_1_);enable-background:new    ;}
	.st5{opacity:0.3213;fill:#FFB03A;enable-background:new    ;}
	.st6{opacity:0.4533;fill:#FFB74A;enable-background:new    ;}
	.st7{opacity:0.4475;}
	.st8{fill:url(#Combined-Shape_1_);}
	.st9{fill:url(#Combined-Shape-Copy_1_);}
</style>
<title>Orange - Top</title>
<desc>Created with Sketch.</desc>
<g>
	<g id="Rectangle" transform="translate(720.000000, 236.000000) scale(-1, 1) translate(-720.000000, -236.000000) ">
		<polygon id="path-1_1_" class="st0" points="0,401 1440,471.2 1440.1,-0.8 0.1,-1 		"/>
	</g>
	<defs>
		<filter id="Adobe_OpacityMaskFilter" filterUnits="userSpaceOnUse" x="33" y="-106" width="1696.9" height="924.3">
			<feColorMatrix  type="matrix" values="1 0 0 0 0  0 1 0 0 0  0 0 1 0 0  0 0 0 1 0"/>
		</filter>
	</defs>
	<mask maskUnits="userSpaceOnUse" x="33" y="-106" width="1696.9" height="924.3" id="mask-2_1_">
		<g class="st1">
			<polygon id="path-1_2_" class="st2" points="1440,401.2 0,471 0.1,-1 1440.1,-0.8 			"/>
		</g>
	</mask>
	<g id="Group-19" class="st3">
		<g transform="translate(-290.000000, -105.000000)">
			
				<linearGradient id="Path_1_1_" gradientUnits="userSpaceOnUse" x1="863.6498" y1="490.8341" x2="864.6878" y2="490.1565" gradientTransform="matrix(676.1208 0.1312 -0.1065 549 -582538.75 -268662.0625)">
				<stop  offset="0" style="stop-color:#FFB84C"/>
				<stop  offset="1" style="stop-color:#FFBD59;stop-opacity:0.4885"/>
			</linearGradient>
			<polygon id="Path_1" class="st4" points="1682,374.2 2019.9,923.3 1804.7,923.3 1681.9,715.1 1559,923.2 1343.8,923.2 			"/>
			<polyline id="Path" class="st5" points="358.9,156.6 523.9,252.6 750.1,122 585.1,26 358.9,156.6 			"/>
			<polyline id="Path_1_" class="st6" points="358.9,129.6 523.9,225.6 750.1,95 585.1,-1 358.9,129.6 			"/>
			<g id="Group-18-Copy" transform="translate(350.000000, 125.000000)" class="st7">
				
					<linearGradient id="Combined-Shape_1_" gradientUnits="userSpaceOnUse" x1="499.7939" y1="366.1429" x2="500.8318" y2="365.4652" gradientTransform="matrix(-244 -4.735446e-02 6.386729e-02 -329.0845 123265.7734 120554.9062)">
					<stop  offset="0" style="stop-color:#FFB84C"/>
					<stop  offset="1" style="stop-color:#FFBD59;stop-opacity:0.4885"/>
				</linearGradient>
				<path id="Combined-Shape" class="st8" d="M1320.1,2.7l-3.4,0l0-3.4l3.4,0L1320.1,2.7z M1302.9,2.7l-3.4,0l0-3.4l3.4,0
					L1302.9,2.7z M1285.7,2.7l-3.4,0l0-3.4l3.4,0L1285.7,2.7z M1268.5,2.7l-3.4,0l0-3.4l3.4,0L1268.5,2.7z M1251.3,2.7l-3.4,0l0-3.4
					l3.4,0L1251.3,2.7z M1234.2,2.7l-3.4,0l0-3.4l3.4,0L1234.2,2.7z M1217,2.7l-3.4,0l0-3.4l3.4,0L1217,2.7z M1199.8,2.7l-3.4,0
					l0-3.4l3.4,0L1199.8,2.7z M1182.6,2.6l-3.4,0l0-3.4l3.4,0L1182.6,2.6z M1165.4,2.6l-3.4,0l0-3.4l3.4,0L1165.4,2.6z M1148.2,2.6
					l-3.4,0l0-3.4l3.4,0L1148.2,2.6z M1131.1,2.6l-3.4,0l0-3.4l3.4,0L1131.1,2.6z M1113.9,2.6l-3.4,0l0-3.4l3.4,0L1113.9,2.6z
					 M1096.7,2.6l-3.4,0l0-3.4l3.4,0L1096.7,2.6z M1079.5,2.6l-3.4,0l0-3.4l3.4,0L1079.5,2.6z M1320.1,19.9l-3.4,0l0-3.4l3.4,0
					L1320.1,19.9z M1302.9,19.9l-3.4,0l0-3.4l3.4,0L1302.9,19.9z M1285.7,19.9l-3.4,0l0-3.4l3.4,0L1285.7,19.9z M1268.5,19.8l-3.4,0
					l0-3.4l3.4,0L1268.5,19.8z M1251.3,19.8l-3.4,0l0-3.4l3.4,0L1251.3,19.8z M1234.2,19.8l-3.4,0l0-3.4l3.4,0L1234.2,19.8z
					 M1217,19.8l-3.4,0l0-3.4l3.4,0L1217,19.8z M1199.8,19.8l-3.4,0l0-3.4l3.4,0L1199.8,19.8z M1182.6,19.8l-3.4,0l0-3.4l3.4,0
					L1182.6,19.8z M1165.4,19.8l-3.4,0l0-3.4l3.4,0L1165.4,19.8z M1148.2,19.8l-3.4,0l0-3.4l3.4,0L1148.2,19.8z M1131.1,19.8l-3.4,0
					l0-3.4l3.4,0L1131.1,19.8z M1113.9,19.8l-3.4,0l0-3.4l3.4,0L1113.9,19.8z M1096.7,19.8l-3.4,0l0-3.4l3.4,0L1096.7,19.8z
					 M1079.5,19.8l-3.4,0l0-3.4l3.4,0L1079.5,19.8z M1320.1,37l-3.4,0l0-3.4l3.4,0L1320.1,37z M1302.9,37l-3.4,0l0-3.4l3.4,0
					L1302.9,37z M1285.7,37l-3.4,0l0-3.4l3.4,0L1285.7,37z M1268.5,37l-3.4,0l0-3.4l3.4,0L1268.5,37z M1251.3,37l-3.4,0l0-3.4l3.4,0
					L1251.3,37z M1234.2,37l-3.4,0l0-3.4l3.4,0L1234.2,37z M1217,37l-3.4,0l0-3.4l3.4,0L1217,37z M1199.8,37l-3.4,0l0-3.4l3.4,0
					L1199.8,37z M1182.6,37l-3.4,0l0-3.4l3.4,0L1182.6,37z M1165.4,37l-3.4,0l0-3.4l3.4,0L1165.4,37z M1148.2,37l-3.4,0l0-3.4l3.4,0
					L1148.2,37z M1131.1,37l-3.4,0l0-3.4l3.4,0L1131.1,37z M1113.9,37l-3.4,0l0-3.4l3.4,0L1113.9,37z M1096.7,37l-3.4,0l0-3.4l3.4,0
					L1096.7,37z M1079.5,37l-3.4,0l0-3.4l3.4,0L1079.5,37z M1320.1,54.2l-3.4,0l0-3.4l3.4,0L1320.1,54.2z M1302.9,54.2l-3.4,0l0-3.4
					l3.4,0L1302.9,54.2z M1285.7,54.2l-3.4,0l0-3.4l3.4,0L1285.7,54.2z M1268.5,54.2l-3.4,0l0-3.4l3.4,0L1268.5,54.2z M1251.3,54.2
					l-3.4,0l0-3.4l3.4,0L1251.3,54.2z M1234.1,54.2l-3.4,0l0-3.4l3.4,0L1234.1,54.2z M1217,54.2l-3.4,0l0-3.4l3.4,0L1217,54.2z
					 M1199.8,54.2l-3.4,0l0-3.4l3.4,0L1199.8,54.2z M1182.6,54.2l-3.4,0l0-3.4l3.4,0L1182.6,54.2z M1165.4,54.2l-3.4,0l0-3.4l3.4,0
					L1165.4,54.2z M1148.2,54.2l-3.4,0l0-3.4l3.4,0L1148.2,54.2z M1131,54.2l-3.4,0l0-3.4l3.4,0L1131,54.2z M1113.9,54.2l-3.4,0
					l0-3.4l3.4,0L1113.9,54.2z M1096.7,54.2l-3.4,0l0-3.4l3.4,0L1096.7,54.2z M1079.5,54.2l-3.4,0l0-3.4l3.4,0L1079.5,54.2z
					 M1320.1,71.4l-3.4,0l0-3.4l3.4,0L1320.1,71.4z M1302.9,71.4l-3.4,0l0-3.4l3.4,0L1302.9,71.4z M1285.7,71.4l-3.4,0l0-3.4l3.4,0
					L1285.7,71.4z M1268.5,71.4l-3.4,0l0-3.4l3.4,0L1268.5,71.4z M1251.3,71.4l-3.4,0l0-3.4l3.4,0L1251.3,71.4z M1234.1,71.4l-3.4,0
					l0-3.4l3.4,0L1234.1,71.4z M1217,71.4l-3.4,0l0-3.4l3.4,0L1217,71.4z M1199.8,71.4l-3.4,0l0-3.4l3.4,0L1199.8,71.4z
					 M1182.6,71.4l-3.4,0l0-3.4l3.4,0L1182.6,71.4z M1165.4,71.4l-3.4,0l0-3.4l3.4,0L1165.4,71.4z M1148.2,71.4l-3.4,0l0-3.4l3.4,0
					L1148.2,71.4z M1131,71.4l-3.4,0l0-3.4l3.4,0L1131,71.4z M1113.9,71.4l-3.4,0l0-3.4l3.4,0L1113.9,71.4z M1096.7,71.4l-3.4,0
					l0-3.4l3.4,0L1096.7,71.4z M1079.5,71.4l-3.4,0l0-3.4l3.4,0L1079.5,71.4z M1320.1,88.6l-3.4,0l0-3.4l3.4,0L1320.1,88.6z
					 M1302.9,88.6l-3.4,0l0-3.4l3.4,0L1302.9,88.6z M1285.7,88.6l-3.4,0l0-3.4l3.4,0L1285.7,88.6z M1268.5,88.6l-3.4,0l0-3.4l3.4,0
					L1268.5,88.6z M1251.3,88.6l-3.4,0l0-3.4l3.4,0L1251.3,88.6z M1234.1,88.6l-3.4,0l0-3.4l3.4,0L1234.1,88.6z M1217,88.6l-3.4,0
					l0-3.4l3.4,0L1217,88.6z M1199.8,88.6l-3.4,0l0-3.4l3.4,0L1199.8,88.6z M1182.6,88.6l-3.4,0l0-3.4l3.4,0L1182.6,88.6z
					 M1165.4,88.6l-3.4,0l0-3.4l3.4,0L1165.4,88.6z M1148.2,88.6l-3.4,0l0-3.4l3.4,0L1148.2,88.6z M1131,88.6l-3.4,0l0-3.4l3.4,0
					L1131,88.6z M1113.9,88.5l-3.4,0l0-3.4l3.4,0L1113.9,88.5z M1096.7,88.5l-3.4,0l0-3.4l3.4,0L1096.7,88.5z M1079.5,88.5l-3.4,0
					l0-3.4l3.4,0L1079.5,88.5z M1320.1,105.8l-3.4,0l0-3.4l3.4,0L1320.1,105.8z M1302.9,105.8l-3.4,0l0-3.4l3.4,0L1302.9,105.8z
					 M1285.7,105.8l-3.4,0l0-3.4l3.4,0L1285.7,105.8z M1268.5,105.8l-3.4,0l0-3.4l3.4,0L1268.5,105.8z M1251.3,105.8l-3.4,0l0-3.4
					l3.4,0L1251.3,105.8z M1234.1,105.8l-3.4,0l0-3.4l3.4,0L1234.1,105.8z M1217,105.8l-3.4,0l0-3.4l3.4,0L1217,105.8z
					 M1199.8,105.7l-3.4,0l0-3.4l3.4,0L1199.8,105.7z M1182.6,105.7l-3.4,0l0-3.4l3.4,0L1182.6,105.7z M1165.4,105.7l-3.4,0l0-3.4
					l3.4,0L1165.4,105.7z M1148.2,105.7l-3.4,0l0-3.4l3.4,0L1148.2,105.7z M1131,105.7l-3.4,0l0-3.4l3.4,0L1131,105.7z
					 M1113.9,105.7l-3.4,0l0-3.4l3.4,0L1113.9,105.7z M1096.7,105.7l-3.4,0l0-3.4l3.4,0L1096.7,105.7z M1079.5,105.7l-3.4,0l0-3.4
					l3.4,0L1079.5,105.7z M1320.1,123l-3.4,0l0-3.4l3.4,0L1320.1,123z M1302.9,123l-3.4,0l0-3.4l3.4,0L1302.9,123z M1285.7,122.9
					l-3.4,0l0-3.4l3.4,0L1285.7,122.9z M1268.5,122.9l-3.4,0l0-3.4l3.4,0L1268.5,122.9z M1251.3,122.9l-3.4,0l0-3.4l3.4,0
					L1251.3,122.9z M1234.1,122.9l-3.4,0l0-3.4l3.4,0L1234.1,122.9z M1217,122.9l-3.4,0l0-3.4l3.4,0L1217,122.9z M1199.8,122.9
					l-3.4,0l0-3.4l3.4,0L1199.8,122.9z M1182.6,122.9l-3.4,0l0-3.4l3.4,0L1182.6,122.9z M1165.4,122.9l-3.4,0l0-3.4l3.4,0
					L1165.4,122.9z M1148.2,122.9l-3.4,0l0-3.4l3.4,0L1148.2,122.9z M1131,122.9l-3.4,0l0-3.4l3.4,0L1131,122.9z M1113.9,122.9
					l-3.4,0l0-3.4l3.4,0L1113.9,122.9z M1096.7,122.9l-3.4,0l0-3.4l3.4,0L1096.7,122.9z M1079.5,122.9l-3.4,0l0-3.4l3.4,0
					L1079.5,122.9z M1320,140.1l-3.4,0l0-3.4l3.4,0L1320,140.1z M1302.9,140.1l-3.4,0l0-3.4l3.4,0L1302.9,140.1z M1285.7,140.1
					l-3.4,0l0-3.4l3.4,0L1285.7,140.1z M1268.5,140.1l-3.4,0l0-3.4l3.4,0L1268.5,140.1z M1251.3,140.1l-3.4,0l0-3.4l3.4,0
					L1251.3,140.1z M1234.1,140.1l-3.4,0l0-3.4l3.4,0L1234.1,140.1z M1216.9,140.1l-3.4,0l0-3.4l3.4,0L1216.9,140.1z M1199.8,140.1
					l-3.4,0l0-3.4l3.4,0L1199.8,140.1z M1182.6,140.1l-3.4,0l0-3.4l3.4,0L1182.6,140.1z M1165.4,140.1l-3.4,0l0-3.4l3.4,0
					L1165.4,140.1z M1148.2,140.1l-3.4,0l0-3.4l3.4,0L1148.2,140.1z M1131,140.1l-3.4,0l0-3.4l3.4,0L1131,140.1z M1113.8,140.1
					l-3.4,0l0-3.4l3.4,0L1113.8,140.1z M1096.7,140.1l-3.4,0l0-3.4l3.4,0L1096.7,140.1z M1079.5,140.1l-3.4,0l0-3.4l3.4,0
					L1079.5,140.1z M1320,157.3l-3.4,0l0-3.4l3.4,0L1320,157.3z M1302.9,157.3l-3.4,0l0-3.4l3.4,0L1302.9,157.3z M1285.7,157.3
					l-3.4,0l0-3.4l3.4,0L1285.7,157.3z M1268.5,157.3l-3.4,0l0-3.4l3.4,0L1268.5,157.3z M1251.3,157.3l-3.4,0l0-3.4l3.4,0
					L1251.3,157.3z M1234.1,157.3l-3.4,0l0-3.4l3.4,0L1234.1,157.3z M1216.9,157.3l-3.4,0l0-3.4l3.4,0L1216.9,157.3z M1199.8,157.3
					l-3.4,0l0-3.4l3.4,0L1199.8,157.3z M1182.6,157.3l-3.4,0l0-3.4l3.4,0L1182.6,157.3z M1165.4,157.3l-3.4,0l0-3.4l3.4,0
					L1165.4,157.3z M1148.2,157.3l-3.4,0l0-3.4l3.4,0L1148.2,157.3z M1131,157.3l-3.4,0l0-3.4l3.4,0L1131,157.3z M1113.8,157.3
					l-3.4,0l0-3.4l3.4,0L1113.8,157.3z M1096.7,157.3l-3.4,0l0-3.4l3.4,0L1096.7,157.3z M1079.5,157.3l-3.4,0l0-3.4l3.4,0
					L1079.5,157.3z M1320,173.7l-3.4,0l0-3.4l3.4,0L1320,173.7z M1302.9,173.7l-3.4,0l0-3.4l3.4,0L1302.9,173.7z M1285.7,173.7
					l-3.4,0l0-3.4l3.4,0L1285.7,173.7z M1268.5,173.7l-3.4,0l0-3.4l3.4,0L1268.5,173.7z M1251.3,173.7l-3.4,0l0-3.4l3.4,0
					L1251.3,173.7z M1234.1,173.7l-3.4,0l0-3.4l3.4,0L1234.1,173.7z M1216.9,173.7l-3.4,0l0-3.4l3.4,0L1216.9,173.7z M1199.8,173.7
					l-3.4,0l0-3.4l3.4,0L1199.8,173.7z M1182.6,173.6l-3.4,0l0-3.4l3.4,0L1182.6,173.6z M1165.4,173.6l-3.4,0l0-3.4l3.4,0
					L1165.4,173.6z M1148.2,173.6l-3.4,0l0-3.4l3.4,0L1148.2,173.6z M1131,173.6l-3.4,0l0-3.4l3.4,0L1131,173.6z M1113.8,173.6
					l-3.4,0l0-3.4l3.4,0L1113.8,173.6z M1096.7,173.6l-3.4,0l0-3.4l3.4,0L1096.7,173.6z M1079.5,173.6l-3.4,0l0-3.4l3.4,0
					L1079.5,173.6z M1320,190.9l-3.4,0l0-3.4l3.4,0L1320,190.9z M1302.9,190.9l-3.4,0l0-3.4l3.4,0L1302.9,190.9z M1285.7,190.9
					l-3.4,0l0-3.4l3.4,0L1285.7,190.9z M1268.5,190.8l-3.4,0l0-3.4l3.4,0L1268.5,190.8z M1251.3,190.8l-3.4,0l0-3.4l3.4,0
					L1251.3,190.8z M1234.1,190.8l-3.4,0l0-3.4l3.4,0L1234.1,190.8z M1216.9,190.8l-3.4,0l0-3.4l3.4,0L1216.9,190.8z M1199.8,190.8
					l-3.4,0l0-3.4l3.4,0L1199.8,190.8z M1182.6,190.8l-3.4,0l0-3.4l3.4,0L1182.6,190.8z M1165.4,190.8l-3.4,0l0-3.4l3.4,0
					L1165.4,190.8z M1148.2,190.8l-3.4,0l0-3.4l3.4,0L1148.2,190.8z M1131,190.8l-3.4,0l0-3.4l3.4,0L1131,190.8z M1113.8,190.8
					l-3.4,0l0-3.4l3.4,0L1113.8,190.8z M1096.7,190.8l-3.4,0l0-3.4l3.4,0L1096.7,190.8z M1079.5,190.8l-3.4,0l0-3.4l3.4,0
					L1079.5,190.8z M1320,208l-3.4,0l0-3.4l3.4,0L1320,208z M1302.9,208l-3.4,0l0-3.4l3.4,0L1302.9,208z M1285.7,208l-3.4,0l0-3.4
					l3.4,0L1285.7,208z M1268.5,208l-3.4,0l0-3.4l3.4,0L1268.5,208z M1251.3,208l-3.4,0l0-3.4l3.4,0L1251.3,208z M1234.1,208l-3.4,0
					l0-3.4l3.4,0L1234.1,208z M1216.9,208l-3.4,0l0-3.4l3.4,0L1216.9,208z M1199.8,208l-3.4,0l0-3.4l3.4,0L1199.8,208z M1182.6,208
					l-3.4,0l0-3.4l3.4,0L1182.6,208z M1165.4,208l-3.4,0l0-3.4l3.4,0L1165.4,208z M1148.2,208l-3.4,0l0-3.4l3.4,0L1148.2,208z
					 M1131,208l-3.4,0l0-3.4l3.4,0L1131,208z M1113.8,208l-3.4,0l0-3.4l3.4,0L1113.8,208z M1096.7,208l-3.4,0l0-3.4l3.4,0
					L1096.7,208z M1079.5,208l-3.4,0l0-3.4l3.4,0L1079.5,208z M1320,225.2l-3.4,0l0-3.4l3.4,0L1320,225.2z M1302.8,225.2l-3.4,0
					l0-3.4l3.4,0L1302.8,225.2z M1285.7,225.2l-3.4,0l0-3.4l3.4,0L1285.7,225.2z M1268.5,225.2l-3.4,0l0-3.4l3.4,0L1268.5,225.2z
					 M1251.3,225.2l-3.4,0l0-3.4l3.4,0L1251.3,225.2z M1234.1,225.2l-3.4,0l0-3.4l3.4,0L1234.1,225.2z M1216.9,225.2l-3.4,0l0-3.4
					l3.4,0L1216.9,225.2z M1199.7,225.2l-3.4,0l0-3.4l3.4,0L1199.7,225.2z M1182.6,225.2l-3.4,0l0-3.4l3.4,0L1182.6,225.2z
					 M1165.4,225.2l-3.4,0l0-3.4l3.4,0L1165.4,225.2z M1148.2,225.2l-3.4,0l0-3.4l3.4,0L1148.2,225.2z M1131,225.2l-3.4,0l0-3.4
					l3.4,0L1131,225.2z M1113.8,225.2l-3.4,0l0-3.4l3.4,0L1113.8,225.2z M1096.7,225.2l-3.4,0l0-3.4l3.4,0L1096.7,225.2z
					 M1079.5,225.2l-3.4,0l0-3.4l3.4,0L1079.5,225.2z M1320,242.4l-3.4,0l0-3.4l3.4,0L1320,242.4z M1302.8,242.4l-3.4,0l0-3.4l3.4,0
					L1302.8,242.4z M1285.7,242.4l-3.4,0l0-3.4l3.4,0L1285.7,242.4z M1268.5,242.4l-3.4,0l0-3.4l3.4,0L1268.5,242.4z M1251.3,242.4
					l-3.4,0l0-3.4l3.4,0L1251.3,242.4z M1234.1,242.4l-3.4,0l0-3.4l3.4,0L1234.1,242.4z M1216.9,242.4l-3.4,0l0-3.4l3.4,0
					L1216.9,242.4z M1199.7,242.4l-3.4,0l0-3.4l3.4,0L1199.7,242.4z M1182.6,242.4l-3.4,0l0-3.4l3.4,0L1182.6,242.4z M1165.4,242.4
					l-3.4,0l0-3.4l3.4,0L1165.4,242.4z M1148.2,242.4l-3.4,0l0-3.4l3.4,0L1148.2,242.4z M1131,242.4l-3.4,0l0-3.4l3.4,0L1131,242.4z
					 M1113.8,242.4l-3.4,0l0-3.4l3.4,0L1113.8,242.4z M1096.6,242.4l-3.4,0l0-3.4l3.4,0L1096.6,242.4z M1079.5,242.4l-3.4,0l0-3.4
					l3.4,0L1079.5,242.4z M1320,259.6l-3.4,0l0-3.4l3.4,0L1320,259.6z M1302.8,259.6l-3.4,0l0-3.4l3.4,0L1302.8,259.6z
					 M1285.7,259.6l-3.4,0l0-3.4l3.4,0L1285.7,259.6z M1268.5,259.6l-3.4,0l0-3.4l3.4,0L1268.5,259.6z M1251.3,259.6l-3.4,0l0-3.4
					l3.4,0L1251.3,259.6z M1234.1,259.6l-3.4,0l0-3.4l3.4,0L1234.1,259.6z M1216.9,259.6l-3.4,0l0-3.4l3.4,0L1216.9,259.6z
					 M1199.7,259.6l-3.4,0l0-3.4l3.4,0L1199.7,259.6z M1182.6,259.6l-3.4,0l0-3.4l3.4,0L1182.6,259.6z M1165.4,259.6l-3.4,0l0-3.4
					l3.4,0L1165.4,259.6z M1148.2,259.6l-3.4,0l0-3.4l3.4,0L1148.2,259.6z M1131,259.6l-3.4,0l0-3.4l3.4,0L1131,259.6z
					 M1113.8,259.5l-3.4,0l0-3.4l3.4,0L1113.8,259.5z M1096.6,259.5l-3.4,0l0-3.4l3.4,0L1096.6,259.5z M1079.5,259.5l-3.4,0l0-3.4
					l3.4,0L1079.5,259.5z M1320,276.8l-3.4,0l0-3.4l3.4,0L1320,276.8z M1302.8,276.8l-3.4,0l0-3.4l3.4,0L1302.8,276.8z
					 M1285.7,276.8l-3.4,0l0-3.4l3.4,0L1285.7,276.8z M1268.5,276.8l-3.4,0l0-3.4l3.4,0L1268.5,276.8z M1251.3,276.8l-3.4,0l0-3.4
					l3.4,0L1251.3,276.8z M1234.1,276.8l-3.4,0l0-3.4l3.4,0L1234.1,276.8z M1216.9,276.8l-3.4,0l0-3.4l3.4,0L1216.9,276.8z
					 M1199.7,276.7l-3.4,0l0-3.4l3.4,0L1199.7,276.7z M1182.6,276.7l-3.4,0l0-3.4l3.4,0L1182.6,276.7z M1165.4,276.7l-3.4,0l0-3.4
					l3.4,0L1165.4,276.7z M1148.2,276.7l-3.4,0l0-3.4l3.4,0L1148.2,276.7z M1131,276.7l-3.4,0l0-3.4l3.4,0L1131,276.7z
					 M1113.8,276.7l-3.4,0l0-3.4l3.4,0L1113.8,276.7z M1096.6,276.7l-3.4,0l0-3.4l3.4,0L1096.6,276.7z M1079.5,276.7l-3.4,0l0-3.4
					l3.4,0L1079.5,276.7z M1320,294l-3.4,0l0-3.4l3.4,0L1320,294z M1302.8,294l-3.4,0l0-3.4l3.4,0L1302.8,294z M1285.7,293.9l-3.4,0
					l0-3.4l3.4,0L1285.7,293.9z M1268.5,293.9l-3.4,0l0-3.4l3.4,0L1268.5,293.9z M1251.3,293.9l-3.4,0l0-3.4l3.4,0L1251.3,293.9z
					 M1234.1,293.9l-3.4,0l0-3.4l3.4,0L1234.1,293.9z M1216.9,293.9l-3.4,0l0-3.4l3.4,0L1216.9,293.9z M1199.7,293.9l-3.4,0l0-3.4
					l3.4,0L1199.7,293.9z M1182.6,293.9l-3.4,0l0-3.4l3.4,0L1182.6,293.9z M1165.4,293.9l-3.4,0l0-3.4l3.4,0L1165.4,293.9z
					 M1148.2,293.9l-3.4,0l0-3.4l3.4,0L1148.2,293.9z M1131,293.9l-3.4,0l0-3.4l3.4,0L1131,293.9z M1113.8,293.9l-3.4,0l0-3.4l3.4,0
					L1113.8,293.9z M1096.6,293.9l-3.4,0l0-3.4l3.4,0L1096.6,293.9z M1079.5,293.9l-3.4,0l0-3.4l3.4,0L1079.5,293.9z M1320,311.1
					l-3.4,0l0-3.4l3.4,0L1320,311.1z M1302.8,311.1l-3.4,0l0-3.4l3.4,0L1302.8,311.1z M1285.6,311.1l-3.4,0l0-3.4l3.4,0
					L1285.6,311.1z M1268.5,311.1l-3.4,0l0-3.4l3.4,0L1268.5,311.1z M1251.3,311.1l-3.4,0l0-3.4l3.4,0L1251.3,311.1z M1234.1,311.1
					l-3.4,0l0-3.4l3.4,0L1234.1,311.1z M1216.9,311.1l-3.4,0l0-3.4l3.4,0L1216.9,311.1z M1199.7,311.1l-3.4,0l0-3.4l3.4,0
					L1199.7,311.1z M1182.5,311.1l-3.4,0l0-3.4l3.4,0L1182.5,311.1z M1165.4,311.1l-3.4,0l0-3.4l3.4,0L1165.4,311.1z M1148.2,311.1
					l-3.4,0l0-3.4l3.4,0L1148.2,311.1z M1131,311.1l-3.4,0l0-3.4l3.4,0L1131,311.1z M1113.8,311.1l-3.4,0l0-3.4l3.4,0L1113.8,311.1z
					 M1096.6,311.1l-3.4,0l0-3.4l3.4,0L1096.6,311.1z M1079.5,311.1l-3.4,0l0-3.4l3.4,0L1079.5,311.1z M1320,328.3l-3.4,0l0-3.4
					l3.4,0L1320,328.3z M1302.8,328.3l-3.4,0l0-3.4l3.4,0L1302.8,328.3z M1285.6,328.3l-3.4,0l0-3.4l3.4,0L1285.6,328.3z
					 M1268.5,328.3l-3.4,0l0-3.4l3.4,0L1268.5,328.3z M1251.3,328.3l-3.4,0l0-3.4l3.4,0L1251.3,328.3z M1234.1,328.3l-3.4,0l0-3.4
					l3.4,0L1234.1,328.3z M1216.9,328.3l-3.4,0l0-3.4l3.4,0L1216.9,328.3z M1199.7,328.3l-3.4,0l0-3.4l3.4,0L1199.7,328.3z
					 M1182.5,328.3l-3.4,0l0-3.4l3.4,0L1182.5,328.3z M1165.4,328.3l-3.4,0l0-3.4l3.4,0L1165.4,328.3z M1148.2,328.3l-3.4,0l0-3.4
					l3.4,0L1148.2,328.3z M1131,328.3l-3.4,0l0-3.4l3.4,0L1131,328.3z M1113.8,328.3l-3.4,0l0-3.4l3.4,0L1113.8,328.3z
					 M1096.6,328.3l-3.4,0l0-3.4l3.4,0L1096.6,328.3z M1079.4,328.3l-3.4,0l0-3.4l3.4,0L1079.4,328.3z"/>
				
					<linearGradient id="Combined-Shape-Copy_1_" gradientUnits="userSpaceOnUse" x1="520.0472" y1="365.4618" x2="521.0852" y2="364.7841" gradientTransform="matrix(244 4.735446e-02 -6.386729e-02 329.0845 -126914.5547 -119951.4219)">
					<stop  offset="0" style="stop-color:#FFB84C"/>
					<stop  offset="1" style="stop-color:#FFBD59;stop-opacity:0.4885"/>
				</linearGradient>
				<path id="Combined-Shape-Copy" class="st9" d="M-27,377.6l3.4,0l0,3.4l-3.4,0L-27,377.6z M-9.8,377.6l3.4,0l0,3.4l-3.4,0
					L-9.8,377.6z M7.4,377.6l3.4,0l0,3.4l-3.4,0L7.4,377.6z M24.5,377.6l3.4,0l0,3.4l-3.4,0L24.5,377.6z M41.7,377.6l3.4,0l0,3.4
					l-3.4,0L41.7,377.6z M58.9,377.6l3.4,0l0,3.4l-3.4,0L58.9,377.6z M76.1,377.6l3.4,0l0,3.4l-3.4,0L76.1,377.6z M93.3,377.6l3.4,0
					l0,3.4l-3.4,0L93.3,377.6z M110.5,377.7l3.4,0l0,3.4l-3.4,0L110.5,377.7z M127.6,377.7l3.4,0l0,3.4l-3.4,0L127.6,377.7z
					 M144.8,377.7l3.4,0l0,3.4l-3.4,0L144.8,377.7z M162,377.7l3.4,0l0,3.4l-3.4,0L162,377.7z M179.2,377.7l3.4,0l0,3.4l-3.4,0
					L179.2,377.7z M196.4,377.7l3.4,0l0,3.4l-3.4,0L196.4,377.7z M213.6,377.7l3.4,0l0,3.4l-3.4,0L213.6,377.7z M-27,360.4l3.4,0
					l0,3.4l-3.4,0L-27,360.4z M-9.8,360.4l3.4,0l0,3.4l-3.4,0L-9.8,360.4z M7.4,360.4l3.4,0l0,3.4l-3.4,0L7.4,360.4z M24.6,360.5
					l3.4,0l0,3.4l-3.4,0L24.6,360.5z M41.7,360.5l3.4,0l0,3.4l-3.4,0L41.7,360.5z M58.9,360.5l3.4,0l0,3.4l-3.4,0L58.9,360.5z
					 M76.1,360.5l3.4,0l0,3.4l-3.4,0L76.1,360.5z M93.3,360.5l3.4,0l0,3.4l-3.4,0L93.3,360.5z M110.5,360.5l3.4,0l0,3.4l-3.4,0
					L110.5,360.5z M127.7,360.5l3.4,0l0,3.4l-3.4,0L127.7,360.5z M144.8,360.5l3.4,0l0,3.4l-3.4,0L144.8,360.5z M162,360.5l3.4,0
					l0,3.4l-3.4,0L162,360.5z M179.2,360.5l3.4,0l0,3.4l-3.4,0L179.2,360.5z M196.4,360.5l3.4,0l0,3.4l-3.4,0L196.4,360.5z
					 M213.6,360.5l3.4,0l0,3.4l-3.4,0L213.6,360.5z M-27,343.3l3.4,0l0,3.4l-3.4,0L-27,343.3z M-9.8,343.3l3.4,0l0,3.4l-3.4,0
					L-9.8,343.3z M7.4,343.3l3.4,0l0,3.4l-3.4,0L7.4,343.3z M24.6,343.3l3.4,0l0,3.4l-3.4,0L24.6,343.3z M41.7,343.3l3.4,0l0,3.4
					l-3.4,0L41.7,343.3z M58.9,343.3l3.4,0l0,3.4l-3.4,0L58.9,343.3z M76.1,343.3l3.4,0l0,3.4l-3.4,0L76.1,343.3z M93.3,343.3l3.4,0
					l0,3.4l-3.4,0L93.3,343.3z M110.5,343.3l3.4,0l0,3.4l-3.4,0L110.5,343.3z M127.7,343.3l3.4,0l0,3.4l-3.4,0L127.7,343.3z
					 M144.8,343.3l3.4,0l0,3.4l-3.4,0L144.8,343.3z M162,343.3l3.4,0l0,3.4l-3.4,0L162,343.3z M179.2,343.3l3.4,0l0,3.4l-3.4,0
					L179.2,343.3z M196.4,343.3l3.4,0l0,3.4l-3.4,0L196.4,343.3z M213.6,343.3l3.4,0l0,3.4l-3.4,0L213.6,343.3z M-27,326.1l3.4,0
					l0,3.4l-3.4,0L-27,326.1z M-9.8,326.1l3.4,0l0,3.4l-3.4,0L-9.8,326.1z M7.4,326.1l3.4,0l0,3.4l-3.4,0L7.4,326.1z M24.6,326.1
					l3.4,0l0,3.4l-3.4,0L24.6,326.1z M41.7,326.1l3.4,0l0,3.4l-3.4,0L41.7,326.1z M58.9,326.1l3.4,0l0,3.4l-3.4,0L58.9,326.1z
					 M76.1,326.1l3.4,0l0,3.4l-3.4,0L76.1,326.1z M93.3,326.1l3.4,0l0,3.4l-3.4,0L93.3,326.1z M110.5,326.1l3.4,0l0,3.4l-3.4,0
					L110.5,326.1z M127.7,326.1l3.4,0l0,3.4l-3.4,0L127.7,326.1z M144.8,326.1l3.4,0l0,3.4l-3.4,0L144.8,326.1z M162,326.1l3.4,0
					l0,3.4l-3.4,0L162,326.1z M179.2,326.1l3.4,0l0,3.4l-3.4,0L179.2,326.1z M196.4,326.1l3.4,0l0,3.4l-3.4,0L196.4,326.1z
					 M213.6,326.1l3.4,0l0,3.4l-3.4,0L213.6,326.1z M-27,308.9l3.4,0l0,3.4l-3.4,0L-27,308.9z M-9.8,308.9l3.4,0l0,3.4l-3.4,0
					L-9.8,308.9z M7.4,308.9l3.4,0l0,3.4l-3.4,0L7.4,308.9z M24.6,308.9l3.4,0l0,3.4l-3.4,0L24.6,308.9z M41.7,308.9l3.4,0l0,3.4
					l-3.4,0L41.7,308.9z M58.9,308.9l3.4,0l0,3.4l-3.4,0L58.9,308.9z M76.1,308.9l3.4,0l0,3.4l-3.4,0L76.1,308.9z M93.3,308.9l3.4,0
					l0,3.4l-3.4,0L93.3,308.9z M110.5,308.9l3.4,0l0,3.4l-3.4,0L110.5,308.9z M127.7,308.9l3.4,0l0,3.4l-3.4,0L127.7,308.9z
					 M144.8,308.9l3.4,0l0,3.4l-3.4,0L144.8,308.9z M162,308.9l3.4,0l0,3.4l-3.4,0L162,308.9z M179.2,308.9l3.4,0l0,3.4l-3.4,0
					L179.2,308.9z M196.4,308.9l3.4,0l0,3.4l-3.4,0L196.4,308.9z M213.6,308.9l3.4,0l0,3.4l-3.4,0L213.6,308.9z M-27,291.7l3.4,0
					l0,3.4l-3.4,0L-27,291.7z M-9.8,291.7l3.4,0l0,3.4l-3.4,0L-9.8,291.7z M7.4,291.7l3.4,0l0,3.4l-3.4,0L7.4,291.7z M24.6,291.7
					l3.4,0l0,3.4l-3.4,0L24.6,291.7z M41.7,291.7l3.4,0l0,3.4l-3.4,0L41.7,291.7z M58.9,291.7l3.4,0l0,3.4l-3.4,0L58.9,291.7z
					 M76.1,291.7l3.4,0l0,3.4l-3.4,0L76.1,291.7z M93.3,291.7l3.4,0l0,3.4l-3.4,0L93.3,291.7z M110.5,291.7l3.4,0l0,3.4l-3.4,0
					L110.5,291.7z M127.7,291.7l3.4,0l0,3.4l-3.4,0L127.7,291.7z M144.8,291.7l3.4,0l0,3.4l-3.4,0L144.8,291.7z M162,291.7l3.4,0
					l0,3.4l-3.4,0L162,291.7z M179.2,291.7l3.4,0l0,3.4l-3.4,0L179.2,291.7z M196.4,291.8l3.4,0l0,3.4l-3.4,0L196.4,291.8z
					 M213.6,291.8l3.4,0l0,3.4l-3.4,0L213.6,291.8z M-27,274.5l3.4,0l0,3.4l-3.4,0L-27,274.5z M-9.8,274.5l3.4,0l0,3.4l-3.4,0
					L-9.8,274.5z M7.4,274.5l3.4,0l0,3.4l-3.4,0L7.4,274.5z M24.6,274.5l3.4,0l0,3.4l-3.4,0L24.6,274.5z M41.8,274.5l3.4,0l0,3.4
					l-3.4,0L41.8,274.5z M58.9,274.5l3.4,0l0,3.4l-3.4,0L58.9,274.5z M76.1,274.5l3.4,0l0,3.4l-3.4,0L76.1,274.5z M93.3,274.5l3.4,0
					l0,3.4l-3.4,0L93.3,274.5z M110.5,274.6l3.4,0l0,3.4l-3.4,0L110.5,274.6z M127.7,274.6l3.4,0l0,3.4l-3.4,0L127.7,274.6z
					 M144.9,274.6l3.4,0l0,3.4l-3.4,0L144.9,274.6z M162,274.6l3.4,0l0,3.4l-3.4,0L162,274.6z M179.2,274.6l3.4,0l0,3.4l-3.4,0
					L179.2,274.6z M196.4,274.6l3.4,0l0,3.4l-3.4,0L196.4,274.6z M213.6,274.6l3.4,0l0,3.4l-3.4,0L213.6,274.6z M-27,257.3l3.4,0
					l0,3.4l-3.4,0L-27,257.3z M-9.8,257.3l3.4,0l0,3.4l-3.4,0L-9.8,257.3z M7.4,257.3l3.4,0l0,3.4l-3.4,0L7.4,257.3z M24.6,257.4
					l3.4,0l0,3.4l-3.4,0L24.6,257.4z M41.8,257.4l3.4,0l0,3.4l-3.4,0L41.8,257.4z M58.9,257.4l3.4,0l0,3.4l-3.4,0L58.9,257.4z
					 M76.1,257.4l3.4,0l0,3.4l-3.4,0L76.1,257.4z M93.3,257.4l3.4,0l0,3.4l-3.4,0L93.3,257.4z M110.5,257.4l3.4,0l0,3.4l-3.4,0
					L110.5,257.4z M127.7,257.4l3.4,0l0,3.4l-3.4,0L127.7,257.4z M144.9,257.4l3.4,0l0,3.4l-3.4,0L144.9,257.4z M162,257.4l3.4,0
					l0,3.4l-3.4,0L162,257.4z M179.2,257.4l3.4,0l0,3.4l-3.4,0L179.2,257.4z M196.4,257.4l3.4,0l0,3.4l-3.4,0L196.4,257.4z
					 M213.6,257.4l3.4,0l0,3.4l-3.4,0L213.6,257.4z M-27,240.2l3.4,0l0,3.4l-3.4,0L-27,240.2z M-9.8,240.2l3.4,0l0,3.4l-3.4,0
					L-9.8,240.2z M7.4,240.2l3.4,0l0,3.4l-3.4,0L7.4,240.2z M24.6,240.2l3.4,0l0,3.4l-3.4,0L24.6,240.2z M41.8,240.2l3.4,0l0,3.4
					l-3.4,0L41.8,240.2z M58.9,240.2l3.4,0l0,3.4l-3.4,0L58.9,240.2z M76.1,240.2l3.4,0l0,3.4l-3.4,0L76.1,240.2z M93.3,240.2l3.4,0
					l0,3.4l-3.4,0L93.3,240.2z M110.5,240.2l3.4,0l0,3.4l-3.4,0L110.5,240.2z M127.7,240.2l3.4,0l0,3.4l-3.4,0L127.7,240.2z
					 M144.9,240.2l3.4,0l0,3.4l-3.4,0L144.9,240.2z M162,240.2l3.4,0l0,3.4l-3.4,0L162,240.2z M179.2,240.2l3.4,0l0,3.4l-3.4,0
					L179.2,240.2z M196.4,240.2l3.4,0l0,3.4l-3.4,0L196.4,240.2z M213.6,240.2l3.4,0l0,3.4l-3.4,0L213.6,240.2z M-27,223l3.4,0
					l0,3.4l-3.4,0L-27,223z M-9.8,223l3.4,0l0,3.4l-3.4,0L-9.8,223z M7.4,223l3.4,0l0,3.4l-3.4,0L7.4,223z M24.6,223l3.4,0l0,3.4
					l-3.4,0L24.6,223z M41.8,223l3.4,0l0,3.4l-3.4,0L41.8,223z M58.9,223l3.4,0l0,3.4l-3.4,0L58.9,223z M76.1,223l3.4,0l0,3.4
					l-3.4,0L76.1,223z M93.3,223l3.4,0l0,3.4l-3.4,0L93.3,223z M110.5,223l3.4,0l0,3.4l-3.4,0L110.5,223z M127.7,223l3.4,0l0,3.4
					l-3.4,0L127.7,223z M144.9,223l3.4,0l0,3.4l-3.4,0L144.9,223z M162,223l3.4,0l0,3.4l-3.4,0L162,223z M179.2,223l3.4,0l0,3.4
					l-3.4,0L179.2,223z M196.4,223l3.4,0l0,3.4l-3.4,0L196.4,223z M213.6,223l3.4,0l0,3.4l-3.4,0L213.6,223z M-27,206.6l3.4,0l0,3.4
					l-3.4,0L-27,206.6z M-9.8,206.6l3.4,0l0,3.4l-3.4,0L-9.8,206.6z M7.4,206.6l3.4,0l0,3.4l-3.4,0L7.4,206.6z M24.6,206.6l3.4,0
					l0,3.4l-3.4,0L24.6,206.6z M41.8,206.6l3.4,0l0,3.4l-3.4,0L41.8,206.6z M58.9,206.6l3.4,0l0,3.4l-3.4,0L58.9,206.6z M76.1,206.6
					l3.4,0l0,3.4l-3.4,0L76.1,206.6z M93.3,206.6l3.4,0l0,3.4l-3.4,0L93.3,206.6z M110.5,206.7l3.4,0l0,3.4l-3.4,0L110.5,206.7z
					 M127.7,206.7l3.4,0l0,3.4l-3.4,0L127.7,206.7z M144.9,206.7l3.4,0l0,3.4l-3.4,0L144.9,206.7z M162,206.7l3.4,0l0,3.4l-3.4,0
					L162,206.7z M179.2,206.7l3.4,0l0,3.4l-3.4,0L179.2,206.7z M196.4,206.7l3.4,0l0,3.4l-3.4,0L196.4,206.7z M213.6,206.7l3.4,0
					l0,3.4l-3.4,0L213.6,206.7z M-27,189.4l3.4,0l0,3.4l-3.4,0L-27,189.4z M-9.8,189.4l3.4,0l0,3.4l-3.4,0L-9.8,189.4z M7.4,189.4
					l3.4,0l0,3.4l-3.4,0L7.4,189.4z M24.6,189.5l3.4,0l0,3.4l-3.4,0L24.6,189.5z M41.8,189.5l3.4,0l0,3.4l-3.4,0L41.8,189.5z
					 M59,189.5l3.4,0l0,3.4l-3.4,0L59,189.5z M76.1,189.5l3.4,0l0,3.4l-3.4,0L76.1,189.5z M93.3,189.5l3.4,0l0,3.4l-3.4,0
					L93.3,189.5z M110.5,189.5l3.4,0l0,3.4l-3.4,0L110.5,189.5z M127.7,189.5l3.4,0l0,3.4l-3.4,0L127.7,189.5z M144.9,189.5l3.4,0
					l0,3.4l-3.4,0L144.9,189.5z M162.1,189.5l3.4,0l0,3.4l-3.4,0L162.1,189.5z M179.2,189.5l3.4,0l0,3.4l-3.4,0L179.2,189.5z
					 M196.4,189.5l3.4,0l0,3.4l-3.4,0L196.4,189.5z M213.6,189.5l3.4,0l0,3.4l-3.4,0L213.6,189.5z M-27,172.3l3.4,0l0,3.4l-3.4,0
					L-27,172.3z M-9.8,172.3l3.4,0l0,3.4l-3.4,0L-9.8,172.3z M7.4,172.3l3.4,0l0,3.4l-3.4,0L7.4,172.3z M24.6,172.3l3.4,0l0,3.4
					l-3.4,0L24.6,172.3z M41.8,172.3l3.4,0l0,3.4l-3.4,0L41.8,172.3z M59,172.3l3.4,0l0,3.4l-3.4,0L59,172.3z M76.1,172.3l3.4,0
					l0,3.4l-3.4,0L76.1,172.3z M93.3,172.3l3.4,0l0,3.4l-3.4,0L93.3,172.3z M110.5,172.3l3.4,0l0,3.4l-3.4,0L110.5,172.3z
					 M127.7,172.3l3.4,0l0,3.4l-3.4,0L127.7,172.3z M144.9,172.3l3.4,0l0,3.4l-3.4,0L144.9,172.3z M162.1,172.3l3.4,0l0,3.4l-3.4,0
					L162.1,172.3z M179.2,172.3l3.4,0l0,3.4l-3.4,0L179.2,172.3z M196.4,172.3l3.4,0l0,3.4l-3.4,0L196.4,172.3z M213.6,172.3l3.4,0
					l0,3.4l-3.4,0L213.6,172.3z M-27,155.1l3.4,0l0,3.4l-3.4,0L-27,155.1z M-9.8,155.1l3.4,0l0,3.4l-3.4,0L-9.8,155.1z M7.4,155.1
					l3.4,0l0,3.4l-3.4,0L7.4,155.1z M24.6,155.1l3.4,0l0,3.4l-3.4,0L24.6,155.1z M41.8,155.1l3.4,0l0,3.4l-3.4,0L41.8,155.1z
					 M59,155.1l3.4,0l0,3.4l-3.4,0L59,155.1z M76.1,155.1l3.4,0l0,3.4l-3.4,0L76.1,155.1z M93.3,155.1l3.4,0l0,3.4l-3.4,0
					L93.3,155.1z M110.5,155.1l3.4,0l0,3.4l-3.4,0L110.5,155.1z M127.7,155.1l3.4,0l0,3.4l-3.4,0L127.7,155.1z M144.9,155.1l3.4,0
					l0,3.4l-3.4,0L144.9,155.1z M162.1,155.1l3.4,0l0,3.4l-3.4,0L162.1,155.1z M179.2,155.1l3.4,0l0,3.4l-3.4,0L179.2,155.1z
					 M196.4,155.1l3.4,0l0,3.4l-3.4,0L196.4,155.1z M213.6,155.1l3.4,0l0,3.4l-3.4,0L213.6,155.1z M-27,137.9l3.4,0l0,3.4l-3.4,0
					L-27,137.9z M-9.8,137.9l3.4,0l0,3.4l-3.4,0L-9.8,137.9z M7.4,137.9l3.4,0l0,3.4l-3.4,0L7.4,137.9z M24.6,137.9l3.4,0l0,3.4
					l-3.4,0L24.6,137.9z M41.8,137.9l3.4,0l0,3.4l-3.4,0L41.8,137.9z M59,137.9l3.4,0l0,3.4l-3.4,0L59,137.9z M76.1,137.9l3.4,0
					l0,3.4l-3.4,0L76.1,137.9z M93.3,137.9l3.4,0l0,3.4l-3.4,0L93.3,137.9z M110.5,137.9l3.4,0l0,3.4l-3.4,0L110.5,137.9z
					 M127.7,137.9l3.4,0l0,3.4l-3.4,0L127.7,137.9z M144.9,137.9l3.4,0l0,3.4l-3.4,0L144.9,137.9z M162.1,137.9l3.4,0l0,3.4l-3.4,0
					L162.1,137.9z M179.2,137.9l3.4,0l0,3.4l-3.4,0L179.2,137.9z M196.4,137.9l3.4,0l0,3.4l-3.4,0L196.4,137.9z M213.6,137.9l3.4,0
					l0,3.4l-3.4,0L213.6,137.9z M-26.9,120.7l3.4,0l0,3.4l-3.4,0L-26.9,120.7z M-9.8,120.7l3.4,0l0,3.4l-3.4,0L-9.8,120.7z
					 M7.4,120.7l3.4,0l0,3.4l-3.4,0L7.4,120.7z M24.6,120.7l3.4,0l0,3.4l-3.4,0L24.6,120.7z M41.8,120.7l3.4,0l0,3.4l-3.4,0
					L41.8,120.7z M59,120.7l3.4,0l0,3.4l-3.4,0L59,120.7z M76.1,120.7l3.4,0l0,3.4l-3.4,0L76.1,120.7z M93.3,120.7l3.4,0l0,3.4
					l-3.4,0L93.3,120.7z M110.5,120.7l3.4,0l0,3.4l-3.4,0L110.5,120.7z M127.7,120.7l3.4,0l0,3.4l-3.4,0L127.7,120.7z M144.9,120.7
					l3.4,0l0,3.4l-3.4,0L144.9,120.7z M162.1,120.7l3.4,0l0,3.4l-3.4,0L162.1,120.7z M179.2,120.7l3.4,0l0,3.4l-3.4,0L179.2,120.7z
					 M196.4,120.8l3.4,0l0,3.4l-3.4,0L196.4,120.8z M213.6,120.8l3.4,0l0,3.4l-3.4,0L213.6,120.8z M-26.9,103.5l3.4,0l0,3.4l-3.4,0
					L-26.9,103.5z M-9.8,103.5l3.4,0l0,3.4l-3.4,0L-9.8,103.5z M7.4,103.5l3.4,0l0,3.4l-3.4,0L7.4,103.5z M24.6,103.5l3.4,0l0,3.4
					l-3.4,0L24.6,103.5z M41.8,103.5l3.4,0l0,3.4l-3.4,0L41.8,103.5z M59,103.5l3.4,0l0,3.4l-3.4,0L59,103.5z M76.2,103.5l3.4,0
					l0,3.4l-3.4,0L76.2,103.5z M93.3,103.5l3.4,0l0,3.4l-3.4,0L93.3,103.5z M110.5,103.6l3.4,0l0,3.4l-3.4,0L110.5,103.6z
					 M127.7,103.6l3.4,0l0,3.4l-3.4,0L127.7,103.6z M144.9,103.6l3.4,0l0,3.4l-3.4,0L144.9,103.6z M162.1,103.6l3.4,0l0,3.4l-3.4,0
					L162.1,103.6z M179.3,103.6l3.4,0l0,3.4l-3.4,0L179.3,103.6z M196.4,103.6l3.4,0l0,3.4l-3.4,0L196.4,103.6z M213.6,103.6l3.4,0
					l0,3.4l-3.4,0L213.6,103.6z M-26.9,86.3l3.4,0l0,3.4l-3.4,0L-26.9,86.3z M-9.8,86.3l3.4,0l0,3.4l-3.4,0L-9.8,86.3z M7.4,86.3
					l3.4,0l0,3.4l-3.4,0L7.4,86.3z M24.6,86.4l3.4,0l0,3.4l-3.4,0L24.6,86.4z M41.8,86.4l3.4,0l0,3.4l-3.4,0L41.8,86.4z M59,86.4
					l3.4,0l0,3.4l-3.4,0L59,86.4z M76.2,86.4l3.4,0l0,3.4l-3.4,0L76.2,86.4z M93.3,86.4l3.4,0l0,3.4l-3.4,0L93.3,86.4z M110.5,86.4
					l3.4,0l0,3.4l-3.4,0L110.5,86.4z M127.7,86.4l3.4,0l0,3.4l-3.4,0L127.7,86.4z M144.9,86.4l3.4,0l0,3.4l-3.4,0L144.9,86.4z
					 M162.1,86.4l3.4,0l0,3.4l-3.4,0L162.1,86.4z M179.3,86.4l3.4,0l0,3.4l-3.4,0L179.3,86.4z M196.4,86.4l3.4,0l0,3.4l-3.4,0
					L196.4,86.4z M213.6,86.4l3.4,0l0,3.4l-3.4,0L213.6,86.4z M-26.9,69.2l3.4,0l0,3.4l-3.4,0L-26.9,69.2z M-9.8,69.2l3.4,0l0,3.4
					l-3.4,0L-9.8,69.2z M7.4,69.2l3.4,0l0,3.4l-3.4,0L7.4,69.2z M24.6,69.2l3.4,0l0,3.4l-3.4,0L24.6,69.2z M41.8,69.2l3.4,0l0,3.4
					l-3.4,0L41.8,69.2z M59,69.2l3.4,0l0,3.4l-3.4,0L59,69.2z M76.2,69.2l3.4,0l0,3.4l-3.4,0L76.2,69.2z M93.3,69.2l3.4,0l0,3.4
					l-3.4,0L93.3,69.2z M110.5,69.2l3.4,0l0,3.4l-3.4,0L110.5,69.2z M127.7,69.2l3.4,0l0,3.4l-3.4,0L127.7,69.2z M144.9,69.2l3.4,0
					l0,3.4l-3.4,0L144.9,69.2z M162.1,69.2l3.4,0l0,3.4l-3.4,0L162.1,69.2z M179.3,69.2l3.4,0l0,3.4l-3.4,0L179.3,69.2z M196.4,69.2
					l3.4,0l0,3.4l-3.4,0L196.4,69.2z M213.6,69.2l3.4,0l0,3.4l-3.4,0L213.6,69.2z M-26.9,52l3.4,0l0,3.4l-3.4,0L-26.9,52z M-9.8,52
					l3.4,0l0,3.4l-3.4,0L-9.8,52z M7.4,52l3.4,0l0,3.4l-3.4,0L7.4,52z M24.6,52l3.4,0l0,3.4l-3.4,0L24.6,52z M41.8,52l3.4,0l0,3.4
					l-3.4,0L41.8,52z M59,52l3.4,0l0,3.4l-3.4,0L59,52z M76.2,52l3.4,0l0,3.4l-3.4,0L76.2,52z M93.3,52l3.4,0l0,3.4l-3.4,0L93.3,52z
					 M110.5,52l3.4,0l0,3.4l-3.4,0L110.5,52z M127.7,52l3.4,0l0,3.4l-3.4,0L127.7,52z M144.9,52l3.4,0l0,3.4l-3.4,0L144.9,52z
					 M162.1,52l3.4,0l0,3.4l-3.4,0L162.1,52z M179.3,52l3.4,0l0,3.4l-3.4,0L179.3,52z M196.4,52l3.4,0l0,3.4l-3.4,0L196.4,52z
					 M213.6,52l3.4,0l0,3.4l-3.4,0L213.6,52z"/>
			</g>
		</g>
	</g>
</g>
</svg>
