<?xml version="1.0" encoding="utf-8"?>
<!-- Generator: Adobe Illustrator 22.1.0, SVG Export Plug-In . SVG Version: 6.00 Build 0)  -->
<svg version="1.1" id="Layer_1" xmlns="http://www.w3.org/2000/svg" xmlns:xlink="http://www.w3.org/1999/xlink" x="0px" y="0px"
	 viewBox="0 0 1440 472" style="enable-background:new 0 0 1440 472;" xml:space="preserve">
<style type="text/css">
	.st0{clip-path:url(#SVGID_2_);}
	.st1{fill:#28B655;}
	.st2{filter:url(#Adobe_OpacityMaskFilter);}
	.st3{clip-path:url(#SVGID_2_);fill:#FFFFFF;}
	.st4{clip-path:url(#SVGID_2_);mask:url(#mask-2_1_);fill:url(#Path_1_1_);}
	.st5{filter:url(#Adobe_OpacityMaskFilter_1_);}
	.st6{opacity:0.3213;clip-path:url(#SVGID_2_);mask:url(#mask-2_2_);fill:#6FD84F;enable-background:new    ;}
	.st7{filter:url(#Adobe_OpacityMaskFilter_2_);}
	.st8{opacity:0.4533;clip-path:url(#SVGID_2_);mask:url(#mask-2_3_);fill:#A7FF81;enable-background:new    ;}
	.st9{filter:url(#Adobe_OpacityMaskFilter_3_);}
	.st10{opacity:0.4475;clip-path:url(#SVGID_2_);mask:url(#mask-2_4_);}
	.st11{fill:url(#Combined-Shape_1_);}
	.st12{fill:url(#Combined-Shape-Copy_1_);}
	.st13{clip-path:url(#SVGID_2_);fill:none;}
</style>
<g>
	<g>
		<defs>
			<rect id="SVGID_1_" width="1440" height="472"/>
		</defs>
		<clipPath id="SVGID_2_">
			<use xlink:href="#SVGID_1_"  style="overflow:visible;"/>
		</clipPath>
		<g id="Rectangle" transform="translate(720.000000, 236.000000) scale(-1, 1) translate(-720.000000, -236.000000) " class="st0">
			<polygon id="path-1_1_" class="st1" points="-0.3,401.5 1439.6,472.5 1440,0.5 0,-0.5 			"/>
		</g>
		<defs>
			<filter id="Adobe_OpacityMaskFilter" filterUnits="userSpaceOnUse" x="-290" y="271.4" width="676.1" height="549">
				<feColorMatrix  type="matrix" values="1 0 0 0 0  0 1 0 0 0  0 0 1 0 0  0 0 0 1 0"/>
			</filter>
		</defs>
		<mask maskUnits="userSpaceOnUse" x="-290" y="271.4" width="676.1" height="549" id="mask-2_1_">
			<g class="st2">
				<polygon id="path-1_2_" class="st3" points="0,1.4 1440,1.4 1440,473.4 0,403.4 				"/>
			</g>
		</mask>
		
			<linearGradient id="Path_1_1_" gradientUnits="userSpaceOnUse" x1="371.1218" y1="587.0073" x2="371.4514" y2="586.4457" gradientTransform="matrix(-676.1208 0 0 549 250920.8281 -321557)">
			<stop  offset="0" style="stop-color:#75DB4F;stop-opacity:0"/>
			<stop  offset="1" style="stop-color:#75DB4F"/>
		</linearGradient>
		<polygon id="Path_1" class="st4" points="386.1,820.4 170.9,820.4 48.1,612.3 -74.8,820.4 -290,820.4 48.1,271.4 		"/>
		<defs>
			<filter id="Adobe_OpacityMaskFilter_1_" filterUnits="userSpaceOnUse" x="980" y="-76.6" width="391.2" height="226.5">
				<feColorMatrix  type="matrix" values="1 0 0 0 0  0 1 0 0 0  0 0 1 0 0  0 0 0 1 0"/>
			</filter>
		</defs>
		<mask maskUnits="userSpaceOnUse" x="980" y="-76.6" width="391.2" height="226.5" id="mask-2_2_">
			<g class="st5">
				<polygon id="path-1_3_" class="st3" points="0,1.4 1440,1.4 1440,473.4 0,403.4 				"/>
			</g>
		</mask>
		<polyline id="Path" class="st6" points="1371.2,54 1145,-76.6 980,19.4 1206.2,150 1371.2,54 		"/>
		<defs>
			<filter id="Adobe_OpacityMaskFilter_2_" filterUnits="userSpaceOnUse" x="980" y="-103.6" width="391.2" height="226.5">
				<feColorMatrix  type="matrix" values="1 0 0 0 0  0 1 0 0 0  0 0 1 0 0  0 0 0 1 0"/>
			</filter>
		</defs>
		<mask maskUnits="userSpaceOnUse" x="980" y="-103.6" width="391.2" height="226.5" id="mask-2_3_">
			<g class="st7">
				<polygon id="path-1_4_" class="st3" points="0,1.4 1440,1.4 1440,473.4 0,403.4 				"/>
			</g>
		</mask>
		<polyline id="Path_1_" class="st8" points="1371.2,27 1145,-103.6 980,-7.6 1206.2,123 1371.2,27 		"/>
		<defs>
			<filter id="Adobe_OpacityMaskFilter_3_" filterUnits="userSpaceOnUse" x="30.8" y="41.5" width="1347" height="364.1">
				<feColorMatrix  type="matrix" values="1 0 0 0 0  0 1 0 0 0  0 0 1 0 0  0 0 0 1 0"/>
			</filter>
		</defs>
		<mask maskUnits="userSpaceOnUse" x="30.8" y="41.5" width="1347" height="364.1" id="mask-2_4_">
			<g class="st9">
				<polygon id="path-1_5_" class="st3" points="-29.2,24.7 1410.8,24.7 1410.8,422.4 -29.2,363.4 				"/>
			</g>
		</mask>
		<g id="Group-18-Copy" class="st10">
			<g transform="translate(60.000000, 20.000000)">
				
					<linearGradient id="Combined-Shape_1_" gradientUnits="userSpaceOnUse" x1="308.4457" y1="566.5018" x2="309.362" y2="565.775" gradientTransform="matrix(244 0 0 -329.0845 -75270 186477.9062)">
					<stop  offset="0" style="stop-color:#9AFF93"/>
					<stop  offset="1" style="stop-color:#28B655;stop-opacity:0.4929"/>
				</linearGradient>
				<path id="Combined-Shape" class="st11" d="M-29.2,21.5h3.4v2.9h-3.4V21.5z M-12,21.5h3.4v2.9H-12V21.5z M5.2,21.5h3.4v2.9H5.2
					V21.5z M22.4,21.5h3.4v2.9h-3.4V21.5z M39.6,21.5H43v2.9h-3.4V21.5z M56.7,21.5h3.4v2.9h-3.4V21.5z M73.9,21.5h3.4v2.9h-3.4
					V21.5z M91.1,21.5h3.4v2.9h-3.4V21.5z M108.3,21.5h3.4v2.9h-3.4V21.5z M125.5,21.5h3.4v2.9h-3.4V21.5z M142.7,21.5h3.4v2.9h-3.4
					V21.5z M159.8,21.5h3.4v2.9h-3.4V21.5z M177,21.5h3.4v2.9H177V21.5z M194.2,21.5h3.4v2.9h-3.4V21.5z M211.4,21.5h3.4v2.9h-3.4
					V21.5z M-29.2,36h3.4v2.9h-3.4V36z M-12,36h3.4v2.9H-12V36z M5.2,36h3.4v2.9H5.2V36z M22.4,36h3.4v2.9h-3.4V36z M39.6,36H43v2.9
					h-3.4V36z M56.7,36h3.4v2.9h-3.4V36z M73.9,36h3.4v2.9h-3.4V36z M91.1,36h3.4v2.9h-3.4V36z M108.3,36h3.4v2.9h-3.4V36z
					 M125.5,36h3.4v2.9h-3.4V36z M142.7,36h3.4v2.9h-3.4V36z M159.8,36h3.4v2.9h-3.4V36z M177,36h3.4v2.9H177V36z M194.2,36h3.4v2.9
					h-3.4V36z M211.4,36h3.4v2.9h-3.4V36z M-29.2,50.5h3.4v2.9h-3.4V50.5z M-12,50.5h3.4v2.9H-12V50.5z M5.2,50.5h3.4v2.9H5.2V50.5z
					 M22.4,50.5h3.4v2.9h-3.4V50.5z M39.6,50.5H43v2.9h-3.4V50.5z M56.7,50.5h3.4v2.9h-3.4V50.5z M73.9,50.5h3.4v2.9h-3.4V50.5z
					 M91.1,50.5h3.4v2.9h-3.4V50.5z M108.3,50.5h3.4v2.9h-3.4V50.5z M125.5,50.5h3.4v2.9h-3.4V50.5z M142.7,50.5h3.4v2.9h-3.4V50.5z
					 M159.8,50.5h3.4v2.9h-3.4V50.5z M177,50.5h3.4v2.9H177V50.5z M194.2,50.5h3.4v2.9h-3.4V50.5z M211.4,50.5h3.4v2.9h-3.4V50.5z
					 M-29.2,64.9h3.4v2.9h-3.4V64.9z M-12,64.9h3.4v2.9H-12V64.9z M5.2,64.9h3.4v2.9H5.2V64.9z M22.4,64.9h3.4v2.9h-3.4V64.9z
					 M39.6,64.9H43v2.9h-3.4V64.9z M56.7,64.9h3.4v2.9h-3.4V64.9z M73.9,64.9h3.4v2.9h-3.4V64.9z M91.1,64.9h3.4v2.9h-3.4V64.9z
					 M108.3,64.9h3.4v2.9h-3.4V64.9z M125.5,64.9h3.4v2.9h-3.4V64.9z M142.7,64.9h3.4v2.9h-3.4V64.9z M159.8,64.9h3.4v2.9h-3.4V64.9
					z M177,64.9h3.4v2.9H177V64.9z M194.2,64.9h3.4v2.9h-3.4V64.9z M211.4,64.9h3.4v2.9h-3.4V64.9z M-29.2,79.4h3.4v2.9h-3.4V79.4z
					 M-12,79.4h3.4v2.9H-12V79.4z M5.2,79.4h3.4v2.9H5.2V79.4z M22.4,79.4h3.4v2.9h-3.4V79.4z M39.6,79.4H43v2.9h-3.4V79.4z
					 M56.7,79.4h3.4v2.9h-3.4V79.4z M73.9,79.4h3.4v2.9h-3.4V79.4z M91.1,79.4h3.4v2.9h-3.4V79.4z M108.3,79.4h3.4v2.9h-3.4V79.4z
					 M125.5,79.4h3.4v2.9h-3.4V79.4z M142.7,79.4h3.4v2.9h-3.4V79.4z M159.8,79.4h3.4v2.9h-3.4V79.4z M177,79.4h3.4v2.9H177V79.4z
					 M194.2,79.4h3.4v2.9h-3.4V79.4z M211.4,79.4h3.4v2.9h-3.4V79.4z M-29.2,93.9h3.4v2.9h-3.4V93.9z M-12,93.9h3.4v2.9H-12V93.9z
					 M5.2,93.9h3.4v2.9H5.2V93.9z M22.4,93.9h3.4v2.9h-3.4V93.9z M39.6,93.9H43v2.9h-3.4V93.9z M56.7,93.9h3.4v2.9h-3.4V93.9z
					 M73.9,93.9h3.4v2.9h-3.4V93.9z M91.1,93.9h3.4v2.9h-3.4V93.9z M108.3,93.9h3.4v2.9h-3.4V93.9z M125.5,93.9h3.4v2.9h-3.4V93.9z
					 M142.7,93.9h3.4v2.9h-3.4V93.9z M159.8,93.9h3.4v2.9h-3.4V93.9z M177,93.9h3.4v2.9H177V93.9z M194.2,93.9h3.4v2.9h-3.4V93.9z
					 M211.4,93.9h3.4v2.9h-3.4V93.9z M-29.2,108.4h3.4v2.9h-3.4V108.4z M-12,108.4h3.4v2.9H-12V108.4z M5.2,108.4h3.4v2.9H5.2V108.4
					z M22.4,108.4h3.4v2.9h-3.4V108.4z M39.6,108.4H43v2.9h-3.4V108.4z M56.7,108.4h3.4v2.9h-3.4V108.4z M73.9,108.4h3.4v2.9h-3.4
					V108.4z M91.1,108.4h3.4v2.9h-3.4V108.4z M108.3,108.4h3.4v2.9h-3.4V108.4z M125.5,108.4h3.4v2.9h-3.4V108.4z M142.7,108.4h3.4
					v2.9h-3.4V108.4z M159.8,108.4h3.4v2.9h-3.4V108.4z M177,108.4h3.4v2.9H177V108.4z M194.2,108.4h3.4v2.9h-3.4V108.4z
					 M211.4,108.4h3.4v2.9h-3.4V108.4z M-29.2,122.9h3.4v2.9h-3.4V122.9z M-12,122.9h3.4v2.9H-12V122.9z M5.2,122.9h3.4v2.9H5.2
					V122.9z M22.4,122.9h3.4v2.9h-3.4V122.9z M39.6,122.9H43v2.9h-3.4V122.9z M56.7,122.9h3.4v2.9h-3.4V122.9z M73.9,122.9h3.4v2.9
					h-3.4V122.9z M91.1,122.9h3.4v2.9h-3.4V122.9z M108.3,122.9h3.4v2.9h-3.4V122.9z M125.5,122.9h3.4v2.9h-3.4V122.9z M142.7,122.9
					h3.4v2.9h-3.4V122.9z M159.8,122.9h3.4v2.9h-3.4V122.9z M177,122.9h3.4v2.9H177V122.9z M194.2,122.9h3.4v2.9h-3.4V122.9z
					 M211.4,122.9h3.4v2.9h-3.4V122.9z M-29.2,137.3h3.4v2.9h-3.4V137.3z M-12,137.3h3.4v2.9H-12V137.3z M5.2,137.3h3.4v2.9H5.2
					V137.3z M22.4,137.3h3.4v2.9h-3.4V137.3z M39.6,137.3H43v2.9h-3.4V137.3z M56.7,137.3h3.4v2.9h-3.4V137.3z M73.9,137.3h3.4v2.9
					h-3.4V137.3z M91.1,137.3h3.4v2.9h-3.4V137.3z M108.3,137.3h3.4v2.9h-3.4V137.3z M125.5,137.3h3.4v2.9h-3.4V137.3z M142.7,137.3
					h3.4v2.9h-3.4V137.3z M159.8,137.3h3.4v2.9h-3.4V137.3z M177,137.3h3.4v2.9H177V137.3z M194.2,137.3h3.4v2.9h-3.4V137.3z
					 M211.4,137.3h3.4v2.9h-3.4V137.3z M-29.2,151.8h3.4v2.9h-3.4V151.8z M-12,151.8h3.4v2.9H-12V151.8z M5.2,151.8h3.4v2.9H5.2
					V151.8z M22.4,151.8h3.4v2.9h-3.4V151.8z M39.6,151.8H43v2.9h-3.4V151.8z M56.7,151.8h3.4v2.9h-3.4V151.8z M73.9,151.8h3.4v2.9
					h-3.4V151.8z M91.1,151.8h3.4v2.9h-3.4V151.8z M108.3,151.8h3.4v2.9h-3.4V151.8z M125.5,151.8h3.4v2.9h-3.4V151.8z M142.7,151.8
					h3.4v2.9h-3.4V151.8z M159.8,151.8h3.4v2.9h-3.4V151.8z M177,151.8h3.4v2.9H177V151.8z M194.2,151.8h3.4v2.9h-3.4V151.8z
					 M211.4,151.8h3.4v2.9h-3.4V151.8z M-29.2,165.6h3.4v2.9h-3.4V165.6z M-12,165.6h3.4v2.9H-12V165.6z M5.2,165.6h3.4v2.9H5.2
					V165.6z M22.4,165.6h3.4v2.9h-3.4V165.6z M39.6,165.6H43v2.9h-3.4V165.6z M56.7,165.6h3.4v2.9h-3.4V165.6z M73.9,165.6h3.4v2.9
					h-3.4V165.6z M91.1,165.6h3.4v2.9h-3.4V165.6z M108.3,165.6h3.4v2.9h-3.4V165.6z M125.5,165.6h3.4v2.9h-3.4V165.6z M142.7,165.6
					h3.4v2.9h-3.4V165.6z M159.8,165.6h3.4v2.9h-3.4V165.6z M177,165.6h3.4v2.9H177V165.6z M194.2,165.6h3.4v2.9h-3.4V165.6z
					 M211.4,165.6h3.4v2.9h-3.4V165.6z M-29.2,180.1h3.4v2.9h-3.4V180.1z M-12,180.1h3.4v2.9H-12V180.1z M5.2,180.1h3.4v2.9H5.2
					V180.1z M22.4,180.1h3.4v2.9h-3.4V180.1z M39.6,180.1H43v2.9h-3.4V180.1z M56.7,180.1h3.4v2.9h-3.4V180.1z M73.9,180.1h3.4v2.9
					h-3.4V180.1z M91.1,180.1h3.4v2.9h-3.4V180.1z M108.3,180.1h3.4v2.9h-3.4V180.1z M125.5,180.1h3.4v2.9h-3.4V180.1z M142.7,180.1
					h3.4v2.9h-3.4V180.1z M159.8,180.1h3.4v2.9h-3.4V180.1z M177,180.1h3.4v2.9H177V180.1z M194.2,180.1h3.4v2.9h-3.4V180.1z
					 M211.4,180.1h3.4v2.9h-3.4V180.1z M-29.2,194.6h3.4v2.9h-3.4V194.6z M-12,194.6h3.4v2.9H-12V194.6z M5.2,194.6h3.4v2.9H5.2
					V194.6z M22.4,194.6h3.4v2.9h-3.4V194.6z M39.6,194.6H43v2.9h-3.4V194.6z M56.7,194.6h3.4v2.9h-3.4V194.6z M73.9,194.6h3.4v2.9
					h-3.4V194.6z M91.1,194.6h3.4v2.9h-3.4V194.6z M108.3,194.6h3.4v2.9h-3.4V194.6z M125.5,194.6h3.4v2.9h-3.4V194.6z M142.7,194.6
					h3.4v2.9h-3.4V194.6z M159.8,194.6h3.4v2.9h-3.4V194.6z M177,194.6h3.4v2.9H177V194.6z M194.2,194.6h3.4v2.9h-3.4V194.6z
					 M211.4,194.6h3.4v2.9h-3.4V194.6z M-29.2,209h3.4v2.9h-3.4V209z M-12,209h3.4v2.9H-12V209z M5.2,209h3.4v2.9H5.2V209z
					 M22.4,209h3.4v2.9h-3.4V209z M39.6,209H43v2.9h-3.4V209z M56.7,209h3.4v2.9h-3.4V209z M73.9,209h3.4v2.9h-3.4V209z M91.1,209
					h3.4v2.9h-3.4V209z M108.3,209h3.4v2.9h-3.4V209z M125.5,209h3.4v2.9h-3.4V209z M142.7,209h3.4v2.9h-3.4V209z M159.8,209h3.4
					v2.9h-3.4V209z M177,209h3.4v2.9H177V209z M194.2,209h3.4v2.9h-3.4V209z M211.4,209h3.4v2.9h-3.4V209z M-29.2,223.5h3.4v2.9
					h-3.4V223.5z M-12,223.5h3.4v2.9H-12V223.5z M5.2,223.5h3.4v2.9H5.2V223.5z M22.4,223.5h3.4v2.9h-3.4V223.5z M39.6,223.5H43v2.9
					h-3.4V223.5z M56.7,223.5h3.4v2.9h-3.4V223.5z M73.9,223.5h3.4v2.9h-3.4V223.5z M91.1,223.5h3.4v2.9h-3.4V223.5z M108.3,223.5
					h3.4v2.9h-3.4V223.5z M125.5,223.5h3.4v2.9h-3.4V223.5z M142.7,223.5h3.4v2.9h-3.4V223.5z M159.8,223.5h3.4v2.9h-3.4V223.5z
					 M177,223.5h3.4v2.9H177V223.5z M194.2,223.5h3.4v2.9h-3.4V223.5z M211.4,223.5h3.4v2.9h-3.4V223.5z M-29.2,238h3.4v2.9h-3.4
					V238z M-12,238h3.4v2.9H-12V238z M5.2,238h3.4v2.9H5.2V238z M22.4,238h3.4v2.9h-3.4V238z M39.6,238H43v2.9h-3.4V238z M56.7,238
					h3.4v2.9h-3.4V238z M73.9,238h3.4v2.9h-3.4V238z M91.1,238h3.4v2.9h-3.4V238z M108.3,238h3.4v2.9h-3.4V238z M125.5,238h3.4v2.9
					h-3.4V238z M142.7,238h3.4v2.9h-3.4V238z M159.8,238h3.4v2.9h-3.4V238z M177,238h3.4v2.9H177V238z M194.2,238h3.4v2.9h-3.4V238z
					 M211.4,238h3.4v2.9h-3.4V238z M-29.2,252.5h3.4v2.9h-3.4V252.5z M-12,252.5h3.4v2.9H-12V252.5z M5.2,252.5h3.4v2.9H5.2V252.5z
					 M22.4,252.5h3.4v2.9h-3.4V252.5z M39.6,252.5H43v2.9h-3.4V252.5z M56.7,252.5h3.4v2.9h-3.4V252.5z M73.9,252.5h3.4v2.9h-3.4
					V252.5z M91.1,252.5h3.4v2.9h-3.4V252.5z M108.3,252.5h3.4v2.9h-3.4V252.5z M125.5,252.5h3.4v2.9h-3.4V252.5z M142.7,252.5h3.4
					v2.9h-3.4V252.5z M159.8,252.5h3.4v2.9h-3.4V252.5z M177,252.5h3.4v2.9H177V252.5z M194.2,252.5h3.4v2.9h-3.4V252.5z
					 M211.4,252.5h3.4v2.9h-3.4V252.5z M-29.2,267h3.4v2.9h-3.4V267z M-12,267h3.4v2.9H-12V267z M5.2,267h3.4v2.9H5.2V267z
					 M22.4,267h3.4v2.9h-3.4V267z M39.6,267H43v2.9h-3.4V267z M56.7,267h3.4v2.9h-3.4V267z M73.9,267h3.4v2.9h-3.4V267z M91.1,267
					h3.4v2.9h-3.4V267z M108.3,267h3.4v2.9h-3.4V267z M125.5,267h3.4v2.9h-3.4V267z M142.7,267h3.4v2.9h-3.4V267z M159.8,267h3.4
					v2.9h-3.4V267z M177,267h3.4v2.9H177V267z M194.2,267h3.4v2.9h-3.4V267z M211.4,267h3.4v2.9h-3.4V267z M-29.2,281.4h3.4v2.9
					h-3.4V281.4z M-12,281.4h3.4v2.9H-12V281.4z M5.2,281.4h3.4v2.9H5.2V281.4z M22.4,281.4h3.4v2.9h-3.4V281.4z M39.6,281.4H43v2.9
					h-3.4V281.4z M56.7,281.4h3.4v2.9h-3.4V281.4z M73.9,281.4h3.4v2.9h-3.4V281.4z M91.1,281.4h3.4v2.9h-3.4V281.4z M108.3,281.4
					h3.4v2.9h-3.4V281.4z M125.5,281.4h3.4v2.9h-3.4V281.4z M142.7,281.4h3.4v2.9h-3.4V281.4z M159.8,281.4h3.4v2.9h-3.4V281.4z
					 M177,281.4h3.4v2.9H177V281.4z M194.2,281.4h3.4v2.9h-3.4V281.4z M211.4,281.4h3.4v2.9h-3.4V281.4z M-29.2,295.9h3.4v2.9h-3.4
					V295.9z M-12,295.9h3.4v2.9H-12V295.9z M5.2,295.9h3.4v2.9H5.2V295.9z M22.4,295.9h3.4v2.9h-3.4V295.9z M39.6,295.9H43v2.9h-3.4
					V295.9z M56.7,295.9h3.4v2.9h-3.4V295.9z M73.9,295.9h3.4v2.9h-3.4V295.9z M91.1,295.9h3.4v2.9h-3.4V295.9z M108.3,295.9h3.4
					v2.9h-3.4V295.9z M125.5,295.9h3.4v2.9h-3.4V295.9z M142.7,295.9h3.4v2.9h-3.4V295.9z M159.8,295.9h3.4v2.9h-3.4V295.9z
					 M177,295.9h3.4v2.9H177V295.9z M194.2,295.9h3.4v2.9h-3.4V295.9z M211.4,295.9h3.4v2.9h-3.4V295.9z"/>
				
					<linearGradient id="Combined-Shape-Copy_1_" gradientUnits="userSpaceOnUse" x1="311.5925" y1="567.1356" x2="312.566" y2="566.5001" gradientTransform="matrix(-244 0 0 329.0845 77357 -186271.8281)">
					<stop  offset="0" style="stop-color:#9AFF93"/>
					<stop  offset="1" style="stop-color:#28B655;stop-opacity:0.4929"/>
				</linearGradient>
				<path id="Combined-Shape-Copy" class="st12" d="M1317.8,385.6h-3.4v-2.9h3.4V385.6z M1300.6,385.6h-3.4v-2.9h3.4V385.6z
					 M1283.5,385.6h-3.4v-2.9h3.4V385.6z M1266.3,385.6h-3.4v-2.9h3.4V385.6z M1249.1,385.6h-3.4v-2.9h3.4V385.6z M1231.9,385.6
					h-3.4v-2.9h3.4V385.6z M1214.7,385.6h-3.4v-2.9h3.4V385.6z M1197.5,385.6h-3.4v-2.9h3.4V385.6z M1180.4,385.6h-3.4v-2.9h3.4
					V385.6z M1163.2,385.6h-3.4v-2.9h3.4V385.6z M1146,385.6h-3.4v-2.9h3.4V385.6z M1128.8,385.6h-3.4v-2.9h3.4V385.6z
					 M1111.6,385.6h-3.4v-2.9h3.4V385.6z M1094.4,385.6h-3.4v-2.9h3.4V385.6z M1077.3,385.6h-3.4v-2.9h3.4V385.6z M1317.8,371.1
					h-3.4v-2.9h3.4V371.1z M1300.6,371.1h-3.4v-2.9h3.4V371.1z M1283.5,371.1h-3.4v-2.9h3.4V371.1z M1266.3,371.1h-3.4v-2.9h3.4
					V371.1z M1249.1,371.1h-3.4v-2.9h3.4V371.1z M1231.9,371.1h-3.4v-2.9h3.4V371.1z M1214.7,371.1h-3.4v-2.9h3.4V371.1z
					 M1197.5,371.1h-3.4v-2.9h3.4V371.1z M1180.4,371.1h-3.4v-2.9h3.4V371.1z M1163.2,371.1h-3.4v-2.9h3.4V371.1z M1146,371.1h-3.4
					v-2.9h3.4V371.1z M1128.8,371.1h-3.4v-2.9h3.4V371.1z M1111.6,371.1h-3.4v-2.9h3.4V371.1z M1094.4,371.1h-3.4v-2.9h3.4V371.1z
					 M1077.3,371.1h-3.4v-2.9h3.4V371.1z M1317.8,356.6h-3.4v-2.9h3.4V356.6z M1300.6,356.6h-3.4v-2.9h3.4V356.6z M1283.5,356.6
					h-3.4v-2.9h3.4V356.6z M1266.3,356.6h-3.4v-2.9h3.4V356.6z M1249.1,356.6h-3.4v-2.9h3.4V356.6z M1231.9,356.6h-3.4v-2.9h3.4
					V356.6z M1214.7,356.6h-3.4v-2.9h3.4V356.6z M1197.5,356.6h-3.4v-2.9h3.4V356.6z M1180.4,356.6h-3.4v-2.9h3.4V356.6z
					 M1163.2,356.6h-3.4v-2.9h3.4V356.6z M1146,356.6h-3.4v-2.9h3.4V356.6z M1128.8,356.6h-3.4v-2.9h3.4V356.6z M1111.6,356.6h-3.4
					v-2.9h3.4V356.6z M1094.4,356.6h-3.4v-2.9h3.4V356.6z M1077.3,356.6h-3.4v-2.9h3.4V356.6z M1317.8,342.2h-3.4v-2.9h3.4V342.2z
					 M1300.6,342.2h-3.4v-2.9h3.4V342.2z M1283.5,342.2h-3.4v-2.9h3.4V342.2z M1266.3,342.2h-3.4v-2.9h3.4V342.2z M1249.1,342.2
					h-3.4v-2.9h3.4V342.2z M1231.9,342.2h-3.4v-2.9h3.4V342.2z M1214.7,342.2h-3.4v-2.9h3.4V342.2z M1197.5,342.2h-3.4v-2.9h3.4
					V342.2z M1180.4,342.2h-3.4v-2.9h3.4V342.2z M1163.2,342.2h-3.4v-2.9h3.4V342.2z M1146,342.2h-3.4v-2.9h3.4V342.2z
					 M1128.8,342.2h-3.4v-2.9h3.4V342.2z M1111.6,342.2h-3.4v-2.9h3.4V342.2z M1094.4,342.2h-3.4v-2.9h3.4V342.2z M1077.3,342.2
					h-3.4v-2.9h3.4V342.2z M1317.8,327.7h-3.4v-2.9h3.4V327.7z M1300.6,327.7h-3.4v-2.9h3.4V327.7z M1283.5,327.7h-3.4v-2.9h3.4
					V327.7z M1266.3,327.7h-3.4v-2.9h3.4V327.7z M1249.1,327.7h-3.4v-2.9h3.4V327.7z M1231.9,327.7h-3.4v-2.9h3.4V327.7z
					 M1214.7,327.7h-3.4v-2.9h3.4V327.7z M1197.5,327.7h-3.4v-2.9h3.4V327.7z M1180.4,327.7h-3.4v-2.9h3.4V327.7z M1163.2,327.7
					h-3.4v-2.9h3.4V327.7z M1146,327.7h-3.4v-2.9h3.4V327.7z M1128.8,327.7h-3.4v-2.9h3.4V327.7z M1111.6,327.7h-3.4v-2.9h3.4V327.7
					z M1094.4,327.7h-3.4v-2.9h3.4V327.7z M1077.3,327.7h-3.4v-2.9h3.4V327.7z M1317.8,313.2h-3.4v-2.9h3.4V313.2z M1300.6,313.2
					h-3.4v-2.9h3.4V313.2z M1283.5,313.2h-3.4v-2.9h3.4V313.2z M1266.3,313.2h-3.4v-2.9h3.4V313.2z M1249.1,313.2h-3.4v-2.9h3.4
					V313.2z M1231.9,313.2h-3.4v-2.9h3.4V313.2z M1214.7,313.2h-3.4v-2.9h3.4V313.2z M1197.5,313.2h-3.4v-2.9h3.4V313.2z
					 M1180.4,313.2h-3.4v-2.9h3.4V313.2z M1163.2,313.2h-3.4v-2.9h3.4V313.2z M1146,313.2h-3.4v-2.9h3.4V313.2z M1128.8,313.2h-3.4
					v-2.9h3.4V313.2z M1111.6,313.2h-3.4v-2.9h3.4V313.2z M1094.4,313.2h-3.4v-2.9h3.4V313.2z M1077.3,313.2h-3.4v-2.9h3.4V313.2z
					 M1317.8,298.7h-3.4v-2.9h3.4V298.7z M1300.6,298.7h-3.4v-2.9h3.4V298.7z M1283.5,298.7h-3.4v-2.9h3.4V298.7z M1266.3,298.7
					h-3.4v-2.9h3.4V298.7z M1249.1,298.7h-3.4v-2.9h3.4V298.7z M1231.9,298.7h-3.4v-2.9h3.4V298.7z M1214.7,298.7h-3.4v-2.9h3.4
					V298.7z M1197.5,298.7h-3.4v-2.9h3.4V298.7z M1180.4,298.7h-3.4v-2.9h3.4V298.7z M1163.2,298.7h-3.4v-2.9h3.4V298.7z
					 M1146,298.7h-3.4v-2.9h3.4V298.7z M1128.8,298.7h-3.4v-2.9h3.4V298.7z M1111.6,298.7h-3.4v-2.9h3.4V298.7z M1094.4,298.7h-3.4
					v-2.9h3.4V298.7z M1077.3,298.7h-3.4v-2.9h3.4V298.7z M1317.8,284.2h-3.4v-2.9h3.4V284.2z M1300.6,284.2h-3.4v-2.9h3.4V284.2z
					 M1283.5,284.2h-3.4v-2.9h3.4V284.2z M1266.3,284.2h-3.4v-2.9h3.4V284.2z M1249.1,284.2h-3.4v-2.9h3.4V284.2z M1231.9,284.2
					h-3.4v-2.9h3.4V284.2z M1214.7,284.2h-3.4v-2.9h3.4V284.2z M1197.5,284.2h-3.4v-2.9h3.4V284.2z M1180.4,284.2h-3.4v-2.9h3.4
					V284.2z M1163.2,284.2h-3.4v-2.9h3.4V284.2z M1146,284.2h-3.4v-2.9h3.4V284.2z M1128.8,284.2h-3.4v-2.9h3.4V284.2z
					 M1111.6,284.2h-3.4v-2.9h3.4V284.2z M1094.4,284.2h-3.4v-2.9h3.4V284.2z M1077.3,284.2h-3.4v-2.9h3.4V284.2z M1317.8,269.8
					h-3.4v-2.9h3.4V269.8z M1300.6,269.8h-3.4v-2.9h3.4V269.8z M1283.5,269.8h-3.4v-2.9h3.4V269.8z M1266.3,269.8h-3.4v-2.9h3.4
					V269.8z M1249.1,269.8h-3.4v-2.9h3.4V269.8z M1231.9,269.8h-3.4v-2.9h3.4V269.8z M1214.7,269.8h-3.4v-2.9h3.4V269.8z
					 M1197.5,269.8h-3.4v-2.9h3.4V269.8z M1180.4,269.8h-3.4v-2.9h3.4V269.8z M1163.2,269.8h-3.4v-2.9h3.4V269.8z M1146,269.8h-3.4
					v-2.9h3.4V269.8z M1128.8,269.8h-3.4v-2.9h3.4V269.8z M1111.6,269.8h-3.4v-2.9h3.4V269.8z M1094.4,269.8h-3.4v-2.9h3.4V269.8z
					 M1077.3,269.8h-3.4v-2.9h3.4V269.8z M1317.8,255.3h-3.4v-2.9h3.4V255.3z M1300.6,255.3h-3.4v-2.9h3.4V255.3z M1283.5,255.3
					h-3.4v-2.9h3.4V255.3z M1266.3,255.3h-3.4v-2.9h3.4V255.3z M1249.1,255.3h-3.4v-2.9h3.4V255.3z M1231.9,255.3h-3.4v-2.9h3.4
					V255.3z M1214.7,255.3h-3.4v-2.9h3.4V255.3z M1197.5,255.3h-3.4v-2.9h3.4V255.3z M1180.4,255.3h-3.4v-2.9h3.4V255.3z
					 M1163.2,255.3h-3.4v-2.9h3.4V255.3z M1146,255.3h-3.4v-2.9h3.4V255.3z M1128.8,255.3h-3.4v-2.9h3.4V255.3z M1111.6,255.3h-3.4
					v-2.9h3.4V255.3z M1094.4,255.3h-3.4v-2.9h3.4V255.3z M1077.3,255.3h-3.4v-2.9h3.4V255.3z M1317.8,241.5h-3.4v-2.9h3.4V241.5z
					 M1300.6,241.5h-3.4v-2.9h3.4V241.5z M1283.5,241.5h-3.4v-2.9h3.4V241.5z M1266.3,241.5h-3.4v-2.9h3.4V241.5z M1249.1,241.5
					h-3.4v-2.9h3.4V241.5z M1231.9,241.5h-3.4v-2.9h3.4V241.5z M1214.7,241.5h-3.4v-2.9h3.4V241.5z M1197.5,241.5h-3.4v-2.9h3.4
					V241.5z M1180.4,241.5h-3.4v-2.9h3.4V241.5z M1163.2,241.5h-3.4v-2.9h3.4V241.5z M1146,241.5h-3.4v-2.9h3.4V241.5z
					 M1128.8,241.5h-3.4v-2.9h3.4V241.5z M1111.6,241.5h-3.4v-2.9h3.4V241.5z M1094.4,241.5h-3.4v-2.9h3.4V241.5z M1077.3,241.5
					h-3.4v-2.9h3.4V241.5z M1317.8,227h-3.4v-2.9h3.4V227z M1300.6,227h-3.4v-2.9h3.4V227z M1283.5,227h-3.4v-2.9h3.4V227z
					 M1266.3,227h-3.4v-2.9h3.4V227z M1249.1,227h-3.4v-2.9h3.4V227z M1231.9,227h-3.4v-2.9h3.4V227z M1214.7,227h-3.4v-2.9h3.4V227
					z M1197.5,227h-3.4v-2.9h3.4V227z M1180.4,227h-3.4v-2.9h3.4V227z M1163.2,227h-3.4v-2.9h3.4V227z M1146,227h-3.4v-2.9h3.4V227z
					 M1128.8,227h-3.4v-2.9h3.4V227z M1111.6,227h-3.4v-2.9h3.4V227z M1094.4,227h-3.4v-2.9h3.4V227z M1077.3,227h-3.4v-2.9h3.4V227
					z M1317.8,212.5h-3.4v-2.9h3.4V212.5z M1300.6,212.5h-3.4v-2.9h3.4V212.5z M1283.5,212.5h-3.4v-2.9h3.4V212.5z M1266.3,212.5
					h-3.4v-2.9h3.4V212.5z M1249.1,212.5h-3.4v-2.9h3.4V212.5z M1231.9,212.5h-3.4v-2.9h3.4V212.5z M1214.7,212.5h-3.4v-2.9h3.4
					V212.5z M1197.5,212.5h-3.4v-2.9h3.4V212.5z M1180.4,212.5h-3.4v-2.9h3.4V212.5z M1163.2,212.5h-3.4v-2.9h3.4V212.5z
					 M1146,212.5h-3.4v-2.9h3.4V212.5z M1128.8,212.5h-3.4v-2.9h3.4V212.5z M1111.6,212.5h-3.4v-2.9h3.4V212.5z M1094.4,212.5h-3.4
					v-2.9h3.4V212.5z M1077.3,212.5h-3.4v-2.9h3.4V212.5z M1317.8,198.1h-3.4v-2.9h3.4V198.1z M1300.6,198.1h-3.4v-2.9h3.4V198.1z
					 M1283.5,198.1h-3.4v-2.9h3.4V198.1z M1266.3,198.1h-3.4v-2.9h3.4V198.1z M1249.1,198.1h-3.4v-2.9h3.4V198.1z M1231.9,198.1
					h-3.4v-2.9h3.4V198.1z M1214.7,198.1h-3.4v-2.9h3.4V198.1z M1197.5,198.1h-3.4v-2.9h3.4V198.1z M1180.4,198.1h-3.4v-2.9h3.4
					V198.1z M1163.2,198.1h-3.4v-2.9h3.4V198.1z M1146,198.1h-3.4v-2.9h3.4V198.1z M1128.8,198.1h-3.4v-2.9h3.4V198.1z
					 M1111.6,198.1h-3.4v-2.9h3.4V198.1z M1094.4,198.1h-3.4v-2.9h3.4V198.1z M1077.3,198.1h-3.4v-2.9h3.4V198.1z M1317.8,183.6
					h-3.4v-2.9h3.4V183.6z M1300.6,183.6h-3.4v-2.9h3.4V183.6z M1283.5,183.6h-3.4v-2.9h3.4V183.6z M1266.3,183.6h-3.4v-2.9h3.4
					V183.6z M1249.1,183.6h-3.4v-2.9h3.4V183.6z M1231.9,183.6h-3.4v-2.9h3.4V183.6z M1214.7,183.6h-3.4v-2.9h3.4V183.6z
					 M1197.5,183.6h-3.4v-2.9h3.4V183.6z M1180.4,183.6h-3.4v-2.9h3.4V183.6z M1163.2,183.6h-3.4v-2.9h3.4V183.6z M1146,183.6h-3.4
					v-2.9h3.4V183.6z M1128.8,183.6h-3.4v-2.9h3.4V183.6z M1111.6,183.6h-3.4v-2.9h3.4V183.6z M1094.4,183.6h-3.4v-2.9h3.4V183.6z
					 M1077.3,183.6h-3.4v-2.9h3.4V183.6z M1317.8,169.1h-3.4v-2.9h3.4V169.1z M1300.6,169.1h-3.4v-2.9h3.4V169.1z M1283.5,169.1
					h-3.4v-2.9h3.4V169.1z M1266.3,169.1h-3.4v-2.9h3.4V169.1z M1249.1,169.1h-3.4v-2.9h3.4V169.1z M1231.9,169.1h-3.4v-2.9h3.4
					V169.1z M1214.7,169.1h-3.4v-2.9h3.4V169.1z M1197.5,169.1h-3.4v-2.9h3.4V169.1z M1180.4,169.1h-3.4v-2.9h3.4V169.1z
					 M1163.2,169.1h-3.4v-2.9h3.4V169.1z M1146,169.1h-3.4v-2.9h3.4V169.1z M1128.8,169.1h-3.4v-2.9h3.4V169.1z M1111.6,169.1h-3.4
					v-2.9h3.4V169.1z M1094.4,169.1h-3.4v-2.9h3.4V169.1z M1077.3,169.1h-3.4v-2.9h3.4V169.1z M1317.8,154.6h-3.4v-2.9h3.4V154.6z
					 M1300.6,154.6h-3.4v-2.9h3.4V154.6z M1283.5,154.6h-3.4v-2.9h3.4V154.6z M1266.3,154.6h-3.4v-2.9h3.4V154.6z M1249.1,154.6
					h-3.4v-2.9h3.4V154.6z M1231.9,154.6h-3.4v-2.9h3.4V154.6z M1214.7,154.6h-3.4v-2.9h3.4V154.6z M1197.5,154.6h-3.4v-2.9h3.4
					V154.6z M1180.4,154.6h-3.4v-2.9h3.4V154.6z M1163.2,154.6h-3.4v-2.9h3.4V154.6z M1146,154.6h-3.4v-2.9h3.4V154.6z
					 M1128.8,154.6h-3.4v-2.9h3.4V154.6z M1111.6,154.6h-3.4v-2.9h3.4V154.6z M1094.4,154.6h-3.4v-2.9h3.4V154.6z M1077.3,154.6
					h-3.4v-2.9h3.4V154.6z M1317.8,140.2h-3.4v-2.9h3.4V140.2z M1300.6,140.2h-3.4v-2.9h3.4V140.2z M1283.5,140.2h-3.4v-2.9h3.4
					V140.2z M1266.3,140.2h-3.4v-2.9h3.4V140.2z M1249.1,140.2h-3.4v-2.9h3.4V140.2z M1231.9,140.2h-3.4v-2.9h3.4V140.2z
					 M1214.7,140.2h-3.4v-2.9h3.4V140.2z M1197.5,140.2h-3.4v-2.9h3.4V140.2z M1180.4,140.2h-3.4v-2.9h3.4V140.2z M1163.2,140.2
					h-3.4v-2.9h3.4V140.2z M1146,140.2h-3.4v-2.9h3.4V140.2z M1128.8,140.2h-3.4v-2.9h3.4V140.2z M1111.6,140.2h-3.4v-2.9h3.4V140.2
					z M1094.4,140.2h-3.4v-2.9h3.4V140.2z M1077.3,140.2h-3.4v-2.9h3.4V140.2z M1317.8,125.7h-3.4v-2.9h3.4V125.7z M1300.6,125.7
					h-3.4v-2.9h3.4V125.7z M1283.5,125.7h-3.4v-2.9h3.4V125.7z M1266.3,125.7h-3.4v-2.9h3.4V125.7z M1249.1,125.7h-3.4v-2.9h3.4
					V125.7z M1231.9,125.7h-3.4v-2.9h3.4V125.7z M1214.7,125.7h-3.4v-2.9h3.4V125.7z M1197.5,125.7h-3.4v-2.9h3.4V125.7z
					 M1180.4,125.7h-3.4v-2.9h3.4V125.7z M1163.2,125.7h-3.4v-2.9h3.4V125.7z M1146,125.7h-3.4v-2.9h3.4V125.7z M1128.8,125.7h-3.4
					v-2.9h3.4V125.7z M1111.6,125.7h-3.4v-2.9h3.4V125.7z M1094.4,125.7h-3.4v-2.9h3.4V125.7z M1077.3,125.7h-3.4v-2.9h3.4V125.7z
					 M1317.8,111.2h-3.4v-2.9h3.4V111.2z M1300.6,111.2h-3.4v-2.9h3.4V111.2z M1283.5,111.2h-3.4v-2.9h3.4V111.2z M1266.3,111.2
					h-3.4v-2.9h3.4V111.2z M1249.1,111.2h-3.4v-2.9h3.4V111.2z M1231.9,111.2h-3.4v-2.9h3.4V111.2z M1214.7,111.2h-3.4v-2.9h3.4
					V111.2z M1197.5,111.2h-3.4v-2.9h3.4V111.2z M1180.4,111.2h-3.4v-2.9h3.4V111.2z M1163.2,111.2h-3.4v-2.9h3.4V111.2z
					 M1146,111.2h-3.4v-2.9h3.4V111.2z M1128.8,111.2h-3.4v-2.9h3.4V111.2z M1111.6,111.2h-3.4v-2.9h3.4V111.2z M1094.4,111.2h-3.4
					v-2.9h3.4V111.2z M1077.3,111.2h-3.4v-2.9h3.4V111.2z"/>
			</g>
		</g>
		<polygon class="st13" points="1440,472 0,472 0,0 1440,0 1440,402 		"/>
		<rect x="1.8" y="0.8" class="st13" width="1438.2" height="471.2"/>
		<rect x="1.8" y="2.3" class="st13" width="1438.2" height="469.7"/>
		<rect x="1.6" y="-0.9" class="st13" width="1438.4" height="472.9"/>
	</g>
</g>
</svg>
