<?xml version="1.0" encoding="UTF-8"?>
<svg width="1440px" height="472px" viewBox="0 0 1440 472" version="1.1" xmlns="http://www.w3.org/2000/svg" xmlns:xlink="http://www.w3.org/1999/xlink">
    <!-- Generator: Sketch 52.5 (67469) - http://www.bohemiancoding.com/sketch -->
    <title>background</title>
    <desc>Created with Sketch.</desc>
    <defs>
        <linearGradient x1="100%" y1="50%" x2="0%" y2="50%" id="linearGradient-1">
            <stop stop-color="#0069DE" offset="0%"></stop>
            <stop stop-color="#008AFF" offset="100%"></stop>
        </linearGradient>
        <polygon id="path-2" points="0 0 1440 0 1440 472 0 402"></polygon>
        <polyline id="path-4" points="1311.2 157.616851 1085.02395 27 920 122.920621 1146.17605 253.537472 1311.2 157.616851"></polyline>
        <filter x="-2.9%" y="-5.1%" width="105.9%" height="119.2%" filterUnits="objectBoundingBox" id="filter-5">
            <feMorphology radius="8" operator="erode" in="SourceAlpha" result="shadowSpreadOuter1"></feMorphology>
            <feOffset dx="0" dy="15" in="shadowSpreadOuter1" result="shadowOffsetOuter1"></feOffset>
            <feGaussianBlur stdDeviation="12" in="shadowOffsetOuter1" result="shadowBlurOuter1"></feGaussianBlur>
            <feColorMatrix values="0 0 0 0 0   0 0 0 0 0.411764706   0 0 0 0 0.870588235  0 0 0 0.5 0" type="matrix" in="shadowBlurOuter1"></feColorMatrix>
        </filter>
        <polyline id="path-6" points="1311.2 130.616851 1085.02395 0 920 95.9206208 1146.17605 226.537472 1311.2 130.616851"></polyline>
        <filter x="-2.9%" y="-5.1%" width="105.9%" height="119.2%" filterUnits="objectBoundingBox" id="filter-7">
            <feMorphology radius="8" operator="erode" in="SourceAlpha" result="shadowSpreadOuter1"></feMorphology>
            <feOffset dx="0" dy="15" in="shadowSpreadOuter1" result="shadowOffsetOuter1"></feOffset>
            <feGaussianBlur stdDeviation="12" in="shadowOffsetOuter1" result="shadowBlurOuter1"></feGaussianBlur>
            <feColorMatrix values="0 0 0 0 0   0 0 0 0 0.411764706   0 0 0 0 0.870588235  0 0 0 0.5 0" type="matrix" in="shadowBlurOuter1"></feColorMatrix>
        </filter>
        <linearGradient x1="0%" y1="20.6859385%" x2="98.4894328%" y2="98.8019078%" id="linearGradient-8">
            <stop stop-color="#2E86E9" offset="0%"></stop>
            <stop stop-color="#008AFF" stop-opacity="0.7" offset="100%"></stop>
        </linearGradient>
        <linearGradient x1="0%" y1="20.6859385%" x2="98.4894328%" y2="98.8019078%" id="linearGradient-9">
            <stop stop-color="#0069DE" offset="0%"></stop>
            <stop stop-color="#0069E1" stop-opacity="0.4" offset="100%"></stop>
        </linearGradient>
    </defs>
    <g id="Desktop" stroke="none" stroke-width="1" fill="none" fill-rule="evenodd">
        <g id="Google-Cloud-Partner" transform="translate(0.000000, -110.000000)">
            <g id="Group-2" transform="translate(0.000000, 5.000000)">
                <g id="Header-BG">
                    <g id="background" transform="translate(0.000000, 105.000000)">
                        <mask id="mask-3" fill="white">
                            <use xlink:href="#path-2"></use>
                        </mask>
                        <use id="Rectangle" fill="url(#linearGradient-1)" fill-rule="nonzero" transform="translate(720.000000, 236.000000) scale(-1, 1) translate(-720.000000, -236.000000) " xlink:href="#path-2"></use>
                        <g id="Group-25" mask="url(#mask-3)" fill-rule="nonzero">
                            <g transform="translate(60.000000, -105.000000)">
                                <g id="Path" fill="none" opacity="0.3">
                                    <use fill="black" fill-opacity="1" filter="url(#filter-5)" xlink:href="#path-4"></use>
                                    <use fill="url(#linearGradient-1)" xlink:href="#path-4"></use>
                                </g>
                                <g id="Path" fill="none">
                                    <use fill="black" fill-opacity="1" filter="url(#filter-7)" xlink:href="#path-6"></use>
                                    <use fill="url(#linearGradient-1)" xlink:href="#path-6"></use>
                                </g>
                                <path d="M0,119.830508 L3.43661972,119.830508 L3.43661972,122.378849 L0,122.378849 L0,119.830508 Z M17.1830986,119.830508 L20.6197183,119.830508 L20.6197183,122.378849 L17.1830986,122.378849 L17.1830986,119.830508 Z M34.3661972,119.830508 L37.8028169,119.830508 L37.8028169,122.378849 L34.3661972,122.378849 L34.3661972,119.830508 Z M51.5492958,119.830508 L54.9859155,119.830508 L54.9859155,122.378849 L51.5492958,122.378849 L51.5492958,119.830508 Z M68.7323944,119.830508 L72.1690141,119.830508 L72.1690141,122.378849 L68.7323944,122.378849 L68.7323944,119.830508 Z M85.915493,119.830508 L89.3521127,119.830508 L89.3521127,122.378849 L85.915493,122.378849 L85.915493,119.830508 Z M103.098592,119.830508 L106.535211,119.830508 L106.535211,122.378849 L103.098592,122.378849 L103.098592,119.830508 Z M120.28169,119.830508 L123.71831,119.830508 L123.71831,122.378849 L120.28169,122.378849 L120.28169,119.830508 Z M137.464789,119.830508 L140.901408,119.830508 L140.901408,122.378849 L137.464789,122.378849 L137.464789,119.830508 Z M154.647887,119.830508 L158.084507,119.830508 L158.084507,122.378849 L154.647887,122.378849 L154.647887,119.830508 Z M171.830986,119.830508 L175.267606,119.830508 L175.267606,122.378849 L171.830986,122.378849 L171.830986,119.830508 Z M189.014085,119.830508 L192.450704,119.830508 L192.450704,122.378849 L189.014085,122.378849 L189.014085,119.830508 Z M206.197183,119.830508 L209.633803,119.830508 L209.633803,122.378849 L206.197183,122.378849 L206.197183,119.830508 Z M223.380282,119.830508 L226.816901,119.830508 L226.816901,122.378849 L223.380282,122.378849 L223.380282,119.830508 Z M240.56338,119.830508 L244,119.830508 L244,122.378849 L240.56338,122.378849 L240.56338,119.830508 Z M0,132.572213 L3.43661972,132.572213 L3.43661972,135.120554 L0,135.120554 L0,132.572213 Z M17.1830986,132.572213 L20.6197183,132.572213 L20.6197183,135.120554 L17.1830986,135.120554 L17.1830986,132.572213 Z M34.3661972,132.572213 L37.8028169,132.572213 L37.8028169,135.120554 L34.3661972,135.120554 L34.3661972,132.572213 Z M51.5492958,132.572213 L54.9859155,132.572213 L54.9859155,135.120554 L51.5492958,135.120554 L51.5492958,132.572213 Z M68.7323944,132.572213 L72.1690141,132.572213 L72.1690141,135.120554 L68.7323944,135.120554 L68.7323944,132.572213 Z M85.915493,132.572213 L89.3521127,132.572213 L89.3521127,135.120554 L85.915493,135.120554 L85.915493,132.572213 Z M103.098592,132.572213 L106.535211,132.572213 L106.535211,135.120554 L103.098592,135.120554 L103.098592,132.572213 Z M120.28169,132.572213 L123.71831,132.572213 L123.71831,135.120554 L120.28169,135.120554 L120.28169,132.572213 Z M137.464789,132.572213 L140.901408,132.572213 L140.901408,135.120554 L137.464789,135.120554 L137.464789,132.572213 Z M154.647887,132.572213 L158.084507,132.572213 L158.084507,135.120554 L154.647887,135.120554 L154.647887,132.572213 Z M171.830986,132.572213 L175.267606,132.572213 L175.267606,135.120554 L171.830986,135.120554 L171.830986,132.572213 Z M189.014085,132.572213 L192.450704,132.572213 L192.450704,135.120554 L189.014085,135.120554 L189.014085,132.572213 Z M206.197183,132.572213 L209.633803,132.572213 L209.633803,135.120554 L206.197183,135.120554 L206.197183,132.572213 Z M223.380282,132.572213 L226.816901,132.572213 L226.816901,135.120554 L223.380282,135.120554 L223.380282,132.572213 Z M240.56338,132.572213 L244,132.572213 L244,135.120554 L240.56338,135.120554 L240.56338,132.572213 Z M0,145.313917 L3.43661972,145.313917 L3.43661972,147.862258 L0,147.862258 L0,145.313917 Z M17.1830986,145.313917 L20.6197183,145.313917 L20.6197183,147.862258 L17.1830986,147.862258 L17.1830986,145.313917 Z M34.3661972,145.313917 L37.8028169,145.313917 L37.8028169,147.862258 L34.3661972,147.862258 L34.3661972,145.313917 Z M51.5492958,145.313917 L54.9859155,145.313917 L54.9859155,147.862258 L51.5492958,147.862258 L51.5492958,145.313917 Z M68.7323944,145.313917 L72.1690141,145.313917 L72.1690141,147.862258 L68.7323944,147.862258 L68.7323944,145.313917 Z M85.915493,145.313917 L89.3521127,145.313917 L89.3521127,147.862258 L85.915493,147.862258 L85.915493,145.313917 Z M103.098592,145.313917 L106.535211,145.313917 L106.535211,147.862258 L103.098592,147.862258 L103.098592,145.313917 Z M120.28169,145.313917 L123.71831,145.313917 L123.71831,147.862258 L120.28169,147.862258 L120.28169,145.313917 Z M137.464789,145.313917 L140.901408,145.313917 L140.901408,147.862258 L137.464789,147.862258 L137.464789,145.313917 Z M154.647887,145.313917 L158.084507,145.313917 L158.084507,147.862258 L154.647887,147.862258 L154.647887,145.313917 Z M171.830986,145.313917 L175.267606,145.313917 L175.267606,147.862258 L171.830986,147.862258 L171.830986,145.313917 Z M189.014085,145.313917 L192.450704,145.313917 L192.450704,147.862258 L189.014085,147.862258 L189.014085,145.313917 Z M206.197183,145.313917 L209.633803,145.313917 L209.633803,147.862258 L206.197183,147.862258 L206.197183,145.313917 Z M223.380282,145.313917 L226.816901,145.313917 L226.816901,147.862258 L223.380282,147.862258 L223.380282,145.313917 Z M240.56338,145.313917 L244,145.313917 L244,147.862258 L240.56338,147.862258 L240.56338,145.313917 Z M0,158.055622 L3.43661972,158.055622 L3.43661972,160.603963 L0,160.603963 L0,158.055622 Z M17.1830986,158.055622 L20.6197183,158.055622 L20.6197183,160.603963 L17.1830986,160.603963 L17.1830986,158.055622 Z M34.3661972,158.055622 L37.8028169,158.055622 L37.8028169,160.603963 L34.3661972,160.603963 L34.3661972,158.055622 Z M51.5492958,158.055622 L54.9859155,158.055622 L54.9859155,160.603963 L51.5492958,160.603963 L51.5492958,158.055622 Z M68.7323944,158.055622 L72.1690141,158.055622 L72.1690141,160.603963 L68.7323944,160.603963 L68.7323944,158.055622 Z M85.915493,158.055622 L89.3521127,158.055622 L89.3521127,160.603963 L85.915493,160.603963 L85.915493,158.055622 Z M103.098592,158.055622 L106.535211,158.055622 L106.535211,160.603963 L103.098592,160.603963 L103.098592,158.055622 Z M120.28169,158.055622 L123.71831,158.055622 L123.71831,160.603963 L120.28169,160.603963 L120.28169,158.055622 Z M137.464789,158.055622 L140.901408,158.055622 L140.901408,160.603963 L137.464789,160.603963 L137.464789,158.055622 Z M154.647887,158.055622 L158.084507,158.055622 L158.084507,160.603963 L154.647887,160.603963 L154.647887,158.055622 Z M171.830986,158.055622 L175.267606,158.055622 L175.267606,160.603963 L171.830986,160.603963 L171.830986,158.055622 Z M189.014085,158.055622 L192.450704,158.055622 L192.450704,160.603963 L189.014085,160.603963 L189.014085,158.055622 Z M206.197183,158.055622 L209.633803,158.055622 L209.633803,160.603963 L206.197183,160.603963 L206.197183,158.055622 Z M223.380282,158.055622 L226.816901,158.055622 L226.816901,160.603963 L223.380282,160.603963 L223.380282,158.055622 Z M240.56338,158.055622 L244,158.055622 L244,160.603963 L240.56338,160.603963 L240.56338,158.055622 Z M0,170.797326 L3.43661972,170.797326 L3.43661972,173.345667 L0,173.345667 L0,170.797326 Z M17.1830986,170.797326 L20.6197183,170.797326 L20.6197183,173.345667 L17.1830986,173.345667 L17.1830986,170.797326 Z M34.3661972,170.797326 L37.8028169,170.797326 L37.8028169,173.345667 L34.3661972,173.345667 L34.3661972,170.797326 Z M51.5492958,170.797326 L54.9859155,170.797326 L54.9859155,173.345667 L51.5492958,173.345667 L51.5492958,170.797326 Z M68.7323944,170.797326 L72.1690141,170.797326 L72.1690141,173.345667 L68.7323944,173.345667 L68.7323944,170.797326 Z M85.915493,170.797326 L89.3521127,170.797326 L89.3521127,173.345667 L85.915493,173.345667 L85.915493,170.797326 Z M103.098592,170.797326 L106.535211,170.797326 L106.535211,173.345667 L103.098592,173.345667 L103.098592,170.797326 Z M120.28169,170.797326 L123.71831,170.797326 L123.71831,173.345667 L120.28169,173.345667 L120.28169,170.797326 Z M137.464789,170.797326 L140.901408,170.797326 L140.901408,173.345667 L137.464789,173.345667 L137.464789,170.797326 Z M154.647887,170.797326 L158.084507,170.797326 L158.084507,173.345667 L154.647887,173.345667 L154.647887,170.797326 Z M171.830986,170.797326 L175.267606,170.797326 L175.267606,173.345667 L171.830986,173.345667 L171.830986,170.797326 Z M189.014085,170.797326 L192.450704,170.797326 L192.450704,173.345667 L189.014085,173.345667 L189.014085,170.797326 Z M206.197183,170.797326 L209.633803,170.797326 L209.633803,173.345667 L206.197183,173.345667 L206.197183,170.797326 Z M223.380282,170.797326 L226.816901,170.797326 L226.816901,173.345667 L223.380282,173.345667 L223.380282,170.797326 Z M240.56338,170.797326 L244,170.797326 L244,173.345667 L240.56338,173.345667 L240.56338,170.797326 Z M0,183.539031 L3.43661972,183.539031 L3.43661972,186.087372 L0,186.087372 L0,183.539031 Z M17.1830986,183.539031 L20.6197183,183.539031 L20.6197183,186.087372 L17.1830986,186.087372 L17.1830986,183.539031 Z M34.3661972,183.539031 L37.8028169,183.539031 L37.8028169,186.087372 L34.3661972,186.087372 L34.3661972,183.539031 Z M51.5492958,183.539031 L54.9859155,183.539031 L54.9859155,186.087372 L51.5492958,186.087372 L51.5492958,183.539031 Z M68.7323944,183.539031 L72.1690141,183.539031 L72.1690141,186.087372 L68.7323944,186.087372 L68.7323944,183.539031 Z M85.915493,183.539031 L89.3521127,183.539031 L89.3521127,186.087372 L85.915493,186.087372 L85.915493,183.539031 Z M103.098592,183.539031 L106.535211,183.539031 L106.535211,186.087372 L103.098592,186.087372 L103.098592,183.539031 Z M120.28169,183.539031 L123.71831,183.539031 L123.71831,186.087372 L120.28169,186.087372 L120.28169,183.539031 Z M137.464789,183.539031 L140.901408,183.539031 L140.901408,186.087372 L137.464789,186.087372 L137.464789,183.539031 Z M154.647887,183.539031 L158.084507,183.539031 L158.084507,186.087372 L154.647887,186.087372 L154.647887,183.539031 Z M171.830986,183.539031 L175.267606,183.539031 L175.267606,186.087372 L171.830986,186.087372 L171.830986,183.539031 Z M189.014085,183.539031 L192.450704,183.539031 L192.450704,186.087372 L189.014085,186.087372 L189.014085,183.539031 Z M206.197183,183.539031 L209.633803,183.539031 L209.633803,186.087372 L206.197183,186.087372 L206.197183,183.539031 Z M223.380282,183.539031 L226.816901,183.539031 L226.816901,186.087372 L223.380282,186.087372 L223.380282,183.539031 Z M240.56338,183.539031 L244,183.539031 L244,186.087372 L240.56338,186.087372 L240.56338,183.539031 Z M0,196.280735 L3.43661972,196.280735 L3.43661972,198.829076 L0,198.829076 L0,196.280735 Z M17.1830986,196.280735 L20.6197183,196.280735 L20.6197183,198.829076 L17.1830986,198.829076 L17.1830986,196.280735 Z M34.3661972,196.280735 L37.8028169,196.280735 L37.8028169,198.829076 L34.3661972,198.829076 L34.3661972,196.280735 Z M51.5492958,196.280735 L54.9859155,196.280735 L54.9859155,198.829076 L51.5492958,198.829076 L51.5492958,196.280735 Z M68.7323944,196.280735 L72.1690141,196.280735 L72.1690141,198.829076 L68.7323944,198.829076 L68.7323944,196.280735 Z M85.915493,196.280735 L89.3521127,196.280735 L89.3521127,198.829076 L85.915493,198.829076 L85.915493,196.280735 Z M103.098592,196.280735 L106.535211,196.280735 L106.535211,198.829076 L103.098592,198.829076 L103.098592,196.280735 Z M120.28169,196.280735 L123.71831,196.280735 L123.71831,198.829076 L120.28169,198.829076 L120.28169,196.280735 Z M137.464789,196.280735 L140.901408,196.280735 L140.901408,198.829076 L137.464789,198.829076 L137.464789,196.280735 Z M154.647887,196.280735 L158.084507,196.280735 L158.084507,198.829076 L154.647887,198.829076 L154.647887,196.280735 Z M171.830986,196.280735 L175.267606,196.280735 L175.267606,198.829076 L171.830986,198.829076 L171.830986,196.280735 Z M189.014085,196.280735 L192.450704,196.280735 L192.450704,198.829076 L189.014085,198.829076 L189.014085,196.280735 Z M206.197183,196.280735 L209.633803,196.280735 L209.633803,198.829076 L206.197183,198.829076 L206.197183,196.280735 Z M223.380282,196.280735 L226.816901,196.280735 L226.816901,198.829076 L223.380282,198.829076 L223.380282,196.280735 Z M240.56338,196.280735 L244,196.280735 L244,198.829076 L240.56338,198.829076 L240.56338,196.280735 Z M0,209.02244 L3.43661972,209.02244 L3.43661972,211.570781 L0,211.570781 L0,209.02244 Z M17.1830986,209.02244 L20.6197183,209.02244 L20.6197183,211.570781 L17.1830986,211.570781 L17.1830986,209.02244 Z M34.3661972,209.02244 L37.8028169,209.02244 L37.8028169,211.570781 L34.3661972,211.570781 L34.3661972,209.02244 Z M51.5492958,209.02244 L54.9859155,209.02244 L54.9859155,211.570781 L51.5492958,211.570781 L51.5492958,209.02244 Z M68.7323944,209.02244 L72.1690141,209.02244 L72.1690141,211.570781 L68.7323944,211.570781 L68.7323944,209.02244 Z M85.915493,209.02244 L89.3521127,209.02244 L89.3521127,211.570781 L85.915493,211.570781 L85.915493,209.02244 Z M103.098592,209.02244 L106.535211,209.02244 L106.535211,211.570781 L103.098592,211.570781 L103.098592,209.02244 Z M120.28169,209.02244 L123.71831,209.02244 L123.71831,211.570781 L120.28169,211.570781 L120.28169,209.02244 Z M137.464789,209.02244 L140.901408,209.02244 L140.901408,211.570781 L137.464789,211.570781 L137.464789,209.02244 Z M154.647887,209.02244 L158.084507,209.02244 L158.084507,211.570781 L154.647887,211.570781 L154.647887,209.02244 Z M171.830986,209.02244 L175.267606,209.02244 L175.267606,211.570781 L171.830986,211.570781 L171.830986,209.02244 Z M189.014085,209.02244 L192.450704,209.02244 L192.450704,211.570781 L189.014085,211.570781 L189.014085,209.02244 Z M206.197183,209.02244 L209.633803,209.02244 L209.633803,211.570781 L206.197183,211.570781 L206.197183,209.02244 Z M223.380282,209.02244 L226.816901,209.02244 L226.816901,211.570781 L223.380282,211.570781 L223.380282,209.02244 Z M240.56338,209.02244 L244,209.02244 L244,211.570781 L240.56338,211.570781 L240.56338,209.02244 Z M0,221.764144 L3.43661972,221.764144 L3.43661972,224.312485 L0,224.312485 L0,221.764144 Z M17.1830986,221.764144 L20.6197183,221.764144 L20.6197183,224.312485 L17.1830986,224.312485 L17.1830986,221.764144 Z M34.3661972,221.764144 L37.8028169,221.764144 L37.8028169,224.312485 L34.3661972,224.312485 L34.3661972,221.764144 Z M51.5492958,221.764144 L54.9859155,221.764144 L54.9859155,224.312485 L51.5492958,224.312485 L51.5492958,221.764144 Z M68.7323944,221.764144 L72.1690141,221.764144 L72.1690141,224.312485 L68.7323944,224.312485 L68.7323944,221.764144 Z M85.915493,221.764144 L89.3521127,221.764144 L89.3521127,224.312485 L85.915493,224.312485 L85.915493,221.764144 Z M103.098592,221.764144 L106.535211,221.764144 L106.535211,224.312485 L103.098592,224.312485 L103.098592,221.764144 Z M120.28169,221.764144 L123.71831,221.764144 L123.71831,224.312485 L120.28169,224.312485 L120.28169,221.764144 Z M137.464789,221.764144 L140.901408,221.764144 L140.901408,224.312485 L137.464789,224.312485 L137.464789,221.764144 Z M154.647887,221.764144 L158.084507,221.764144 L158.084507,224.312485 L154.647887,224.312485 L154.647887,221.764144 Z M171.830986,221.764144 L175.267606,221.764144 L175.267606,224.312485 L171.830986,224.312485 L171.830986,221.764144 Z M189.014085,221.764144 L192.450704,221.764144 L192.450704,224.312485 L189.014085,224.312485 L189.014085,221.764144 Z M206.197183,221.764144 L209.633803,221.764144 L209.633803,224.312485 L206.197183,224.312485 L206.197183,221.764144 Z M223.380282,221.764144 L226.816901,221.764144 L226.816901,224.312485 L223.380282,224.312485 L223.380282,221.764144 Z M240.56338,221.764144 L244,221.764144 L244,224.312485 L240.56338,224.312485 L240.56338,221.764144 Z M0,234.505849 L3.43661972,234.505849 L3.43661972,237.05419 L0,237.05419 L0,234.505849 Z M17.1830986,234.505849 L20.6197183,234.505849 L20.6197183,237.05419 L17.1830986,237.05419 L17.1830986,234.505849 Z M34.3661972,234.505849 L37.8028169,234.505849 L37.8028169,237.05419 L34.3661972,237.05419 L34.3661972,234.505849 Z M51.5492958,234.505849 L54.9859155,234.505849 L54.9859155,237.05419 L51.5492958,237.05419 L51.5492958,234.505849 Z M68.7323944,234.505849 L72.1690141,234.505849 L72.1690141,237.05419 L68.7323944,237.05419 L68.7323944,234.505849 Z M85.915493,234.505849 L89.3521127,234.505849 L89.3521127,237.05419 L85.915493,237.05419 L85.915493,234.505849 Z M103.098592,234.505849 L106.535211,234.505849 L106.535211,237.05419 L103.098592,237.05419 L103.098592,234.505849 Z M120.28169,234.505849 L123.71831,234.505849 L123.71831,237.05419 L120.28169,237.05419 L120.28169,234.505849 Z M137.464789,234.505849 L140.901408,234.505849 L140.901408,237.05419 L137.464789,237.05419 L137.464789,234.505849 Z M154.647887,234.505849 L158.084507,234.505849 L158.084507,237.05419 L154.647887,237.05419 L154.647887,234.505849 Z M171.830986,234.505849 L175.267606,234.505849 L175.267606,237.05419 L171.830986,237.05419 L171.830986,234.505849 Z M189.014085,234.505849 L192.450704,234.505849 L192.450704,237.05419 L189.014085,237.05419 L189.014085,234.505849 Z M206.197183,234.505849 L209.633803,234.505849 L209.633803,237.05419 L206.197183,237.05419 L206.197183,234.505849 Z M223.380282,234.505849 L226.816901,234.505849 L226.816901,237.05419 L223.380282,237.05419 L223.380282,234.505849 Z M240.56338,234.505849 L244,234.505849 L244,237.05419 L240.56338,237.05419 L240.56338,234.505849 Z M0,246.631356 L3.43661972,246.631356 L3.43661972,249.179697 L0,249.179697 L0,246.631356 Z M17.1830986,246.631356 L20.6197183,246.631356 L20.6197183,249.179697 L17.1830986,249.179697 L17.1830986,246.631356 Z M34.3661972,246.631356 L37.8028169,246.631356 L37.8028169,249.179697 L34.3661972,249.179697 L34.3661972,246.631356 Z M51.5492958,246.631356 L54.9859155,246.631356 L54.9859155,249.179697 L51.5492958,249.179697 L51.5492958,246.631356 Z M68.7323944,246.631356 L72.1690141,246.631356 L72.1690141,249.179697 L68.7323944,249.179697 L68.7323944,246.631356 Z M85.915493,246.631356 L89.3521127,246.631356 L89.3521127,249.179697 L85.915493,249.179697 L85.915493,246.631356 Z M103.098592,246.631356 L106.535211,246.631356 L106.535211,249.179697 L103.098592,249.179697 L103.098592,246.631356 Z M120.28169,246.631356 L123.71831,246.631356 L123.71831,249.179697 L120.28169,249.179697 L120.28169,246.631356 Z M137.464789,246.631356 L140.901408,246.631356 L140.901408,249.179697 L137.464789,249.179697 L137.464789,246.631356 Z M154.647887,246.631356 L158.084507,246.631356 L158.084507,249.179697 L154.647887,249.179697 L154.647887,246.631356 Z M171.830986,246.631356 L175.267606,246.631356 L175.267606,249.179697 L171.830986,249.179697 L171.830986,246.631356 Z M189.014085,246.631356 L192.450704,246.631356 L192.450704,249.179697 L189.014085,249.179697 L189.014085,246.631356 Z M206.197183,246.631356 L209.633803,246.631356 L209.633803,249.179697 L206.197183,249.179697 L206.197183,246.631356 Z M223.380282,246.631356 L226.816901,246.631356 L226.816901,249.179697 L223.380282,249.179697 L223.380282,246.631356 Z M240.56338,246.631356 L244,246.631356 L244,249.179697 L240.56338,249.179697 L240.56338,246.631356 Z M0,259.37306 L3.43661972,259.37306 L3.43661972,261.921401 L0,261.921401 L0,259.37306 Z M17.1830986,259.37306 L20.6197183,259.37306 L20.6197183,261.921401 L17.1830986,261.921401 L17.1830986,259.37306 Z M34.3661972,259.37306 L37.8028169,259.37306 L37.8028169,261.921401 L34.3661972,261.921401 L34.3661972,259.37306 Z M51.5492958,259.37306 L54.9859155,259.37306 L54.9859155,261.921401 L51.5492958,261.921401 L51.5492958,259.37306 Z M68.7323944,259.37306 L72.1690141,259.37306 L72.1690141,261.921401 L68.7323944,261.921401 L68.7323944,259.37306 Z M85.915493,259.37306 L89.3521127,259.37306 L89.3521127,261.921401 L85.915493,261.921401 L85.915493,259.37306 Z M103.098592,259.37306 L106.535211,259.37306 L106.535211,261.921401 L103.098592,261.921401 L103.098592,259.37306 Z M120.28169,259.37306 L123.71831,259.37306 L123.71831,261.921401 L120.28169,261.921401 L120.28169,259.37306 Z M137.464789,259.37306 L140.901408,259.37306 L140.901408,261.921401 L137.464789,261.921401 L137.464789,259.37306 Z M154.647887,259.37306 L158.084507,259.37306 L158.084507,261.921401 L154.647887,261.921401 L154.647887,259.37306 Z M171.830986,259.37306 L175.267606,259.37306 L175.267606,261.921401 L171.830986,261.921401 L171.830986,259.37306 Z M189.014085,259.37306 L192.450704,259.37306 L192.450704,261.921401 L189.014085,261.921401 L189.014085,259.37306 Z M206.197183,259.37306 L209.633803,259.37306 L209.633803,261.921401 L206.197183,261.921401 L206.197183,259.37306 Z M223.380282,259.37306 L226.816901,259.37306 L226.816901,261.921401 L223.380282,261.921401 L223.380282,259.37306 Z M240.56338,259.37306 L244,259.37306 L244,261.921401 L240.56338,261.921401 L240.56338,259.37306 Z M0,272.114765 L3.43661972,272.114765 L3.43661972,274.663106 L0,274.663106 L0,272.114765 Z M17.1830986,272.114765 L20.6197183,272.114765 L20.6197183,274.663106 L17.1830986,274.663106 L17.1830986,272.114765 Z M34.3661972,272.114765 L37.8028169,272.114765 L37.8028169,274.663106 L34.3661972,274.663106 L34.3661972,272.114765 Z M51.5492958,272.114765 L54.9859155,272.114765 L54.9859155,274.663106 L51.5492958,274.663106 L51.5492958,272.114765 Z M68.7323944,272.114765 L72.1690141,272.114765 L72.1690141,274.663106 L68.7323944,274.663106 L68.7323944,272.114765 Z M85.915493,272.114765 L89.3521127,272.114765 L89.3521127,274.663106 L85.915493,274.663106 L85.915493,272.114765 Z M103.098592,272.114765 L106.535211,272.114765 L106.535211,274.663106 L103.098592,274.663106 L103.098592,272.114765 Z M120.28169,272.114765 L123.71831,272.114765 L123.71831,274.663106 L120.28169,274.663106 L120.28169,272.114765 Z M137.464789,272.114765 L140.901408,272.114765 L140.901408,274.663106 L137.464789,274.663106 L137.464789,272.114765 Z M154.647887,272.114765 L158.084507,272.114765 L158.084507,274.663106 L154.647887,274.663106 L154.647887,272.114765 Z M171.830986,272.114765 L175.267606,272.114765 L175.267606,274.663106 L171.830986,274.663106 L171.830986,272.114765 Z M189.014085,272.114765 L192.450704,272.114765 L192.450704,274.663106 L189.014085,274.663106 L189.014085,272.114765 Z M206.197183,272.114765 L209.633803,272.114765 L209.633803,274.663106 L206.197183,274.663106 L206.197183,272.114765 Z M223.380282,272.114765 L226.816901,272.114765 L226.816901,274.663106 L223.380282,274.663106 L223.380282,272.114765 Z M240.56338,272.114765 L244,272.114765 L244,274.663106 L240.56338,274.663106 L240.56338,272.114765 Z M0,284.856469 L3.43661972,284.856469 L3.43661972,287.40481 L0,287.40481 L0,284.856469 Z M17.1830986,284.856469 L20.6197183,284.856469 L20.6197183,287.40481 L17.1830986,287.40481 L17.1830986,284.856469 Z M34.3661972,284.856469 L37.8028169,284.856469 L37.8028169,287.40481 L34.3661972,287.40481 L34.3661972,284.856469 Z M51.5492958,284.856469 L54.9859155,284.856469 L54.9859155,287.40481 L51.5492958,287.40481 L51.5492958,284.856469 Z M68.7323944,284.856469 L72.1690141,284.856469 L72.1690141,287.40481 L68.7323944,287.40481 L68.7323944,284.856469 Z M85.915493,284.856469 L89.3521127,284.856469 L89.3521127,287.40481 L85.915493,287.40481 L85.915493,284.856469 Z M103.098592,284.856469 L106.535211,284.856469 L106.535211,287.40481 L103.098592,287.40481 L103.098592,284.856469 Z M120.28169,284.856469 L123.71831,284.856469 L123.71831,287.40481 L120.28169,287.40481 L120.28169,284.856469 Z M137.464789,284.856469 L140.901408,284.856469 L140.901408,287.40481 L137.464789,287.40481 L137.464789,284.856469 Z M154.647887,284.856469 L158.084507,284.856469 L158.084507,287.40481 L154.647887,287.40481 L154.647887,284.856469 Z M171.830986,284.856469 L175.267606,284.856469 L175.267606,287.40481 L171.830986,287.40481 L171.830986,284.856469 Z M189.014085,284.856469 L192.450704,284.856469 L192.450704,287.40481 L189.014085,287.40481 L189.014085,284.856469 Z M206.197183,284.856469 L209.633803,284.856469 L209.633803,287.40481 L206.197183,287.40481 L206.197183,284.856469 Z M223.380282,284.856469 L226.816901,284.856469 L226.816901,287.40481 L223.380282,287.40481 L223.380282,284.856469 Z M240.56338,284.856469 L244,284.856469 L244,287.40481 L240.56338,287.40481 L240.56338,284.856469 Z M0,297.598174 L3.43661972,297.598174 L3.43661972,300.146515 L0,300.146515 L0,297.598174 Z M17.1830986,297.598174 L20.6197183,297.598174 L20.6197183,300.146515 L17.1830986,300.146515 L17.1830986,297.598174 Z M34.3661972,297.598174 L37.8028169,297.598174 L37.8028169,300.146515 L34.3661972,300.146515 L34.3661972,297.598174 Z M51.5492958,297.598174 L54.9859155,297.598174 L54.9859155,300.146515 L51.5492958,300.146515 L51.5492958,297.598174 Z M68.7323944,297.598174 L72.1690141,297.598174 L72.1690141,300.146515 L68.7323944,300.146515 L68.7323944,297.598174 Z M85.915493,297.598174 L89.3521127,297.598174 L89.3521127,300.146515 L85.915493,300.146515 L85.915493,297.598174 Z M103.098592,297.598174 L106.535211,297.598174 L106.535211,300.146515 L103.098592,300.146515 L103.098592,297.598174 Z M120.28169,297.598174 L123.71831,297.598174 L123.71831,300.146515 L120.28169,300.146515 L120.28169,297.598174 Z M137.464789,297.598174 L140.901408,297.598174 L140.901408,300.146515 L137.464789,300.146515 L137.464789,297.598174 Z M154.647887,297.598174 L158.084507,297.598174 L158.084507,300.146515 L154.647887,300.146515 L154.647887,297.598174 Z M171.830986,297.598174 L175.267606,297.598174 L175.267606,300.146515 L171.830986,300.146515 L171.830986,297.598174 Z M189.014085,297.598174 L192.450704,297.598174 L192.450704,300.146515 L189.014085,300.146515 L189.014085,297.598174 Z M206.197183,297.598174 L209.633803,297.598174 L209.633803,300.146515 L206.197183,300.146515 L206.197183,297.598174 Z M223.380282,297.598174 L226.816901,297.598174 L226.816901,300.146515 L223.380282,300.146515 L223.380282,297.598174 Z M240.56338,297.598174 L244,297.598174 L244,300.146515 L240.56338,300.146515 L240.56338,297.598174 Z M0,310.339878 L3.43661972,310.339878 L3.43661972,312.888219 L0,312.888219 L0,310.339878 Z M17.1830986,310.339878 L20.6197183,310.339878 L20.6197183,312.888219 L17.1830986,312.888219 L17.1830986,310.339878 Z M34.3661972,310.339878 L37.8028169,310.339878 L37.8028169,312.888219 L34.3661972,312.888219 L34.3661972,310.339878 Z M51.5492958,310.339878 L54.9859155,310.339878 L54.9859155,312.888219 L51.5492958,312.888219 L51.5492958,310.339878 Z M68.7323944,310.339878 L72.1690141,310.339878 L72.1690141,312.888219 L68.7323944,312.888219 L68.7323944,310.339878 Z M85.915493,310.339878 L89.3521127,310.339878 L89.3521127,312.888219 L85.915493,312.888219 L85.915493,310.339878 Z M103.098592,310.339878 L106.535211,310.339878 L106.535211,312.888219 L103.098592,312.888219 L103.098592,310.339878 Z M120.28169,310.339878 L123.71831,310.339878 L123.71831,312.888219 L120.28169,312.888219 L120.28169,310.339878 Z M137.464789,310.339878 L140.901408,310.339878 L140.901408,312.888219 L137.464789,312.888219 L137.464789,310.339878 Z M154.647887,310.339878 L158.084507,310.339878 L158.084507,312.888219 L154.647887,312.888219 L154.647887,310.339878 Z M171.830986,310.339878 L175.267606,310.339878 L175.267606,312.888219 L171.830986,312.888219 L171.830986,310.339878 Z M189.014085,310.339878 L192.450704,310.339878 L192.450704,312.888219 L189.014085,312.888219 L189.014085,310.339878 Z M206.197183,310.339878 L209.633803,310.339878 L209.633803,312.888219 L206.197183,312.888219 L206.197183,310.339878 Z M223.380282,310.339878 L226.816901,310.339878 L226.816901,312.888219 L223.380282,312.888219 L223.380282,310.339878 Z M240.56338,310.339878 L244,310.339878 L244,312.888219 L240.56338,312.888219 L240.56338,310.339878 Z M0,323.081583 L3.43661972,323.081583 L3.43661972,325.629924 L0,325.629924 L0,323.081583 Z M17.1830986,323.081583 L20.6197183,323.081583 L20.6197183,325.629924 L17.1830986,325.629924 L17.1830986,323.081583 Z M34.3661972,323.081583 L37.8028169,323.081583 L37.8028169,325.629924 L34.3661972,325.629924 L34.3661972,323.081583 Z M51.5492958,323.081583 L54.9859155,323.081583 L54.9859155,325.629924 L51.5492958,325.629924 L51.5492958,323.081583 Z M68.7323944,323.081583 L72.1690141,323.081583 L72.1690141,325.629924 L68.7323944,325.629924 L68.7323944,323.081583 Z M85.915493,323.081583 L89.3521127,323.081583 L89.3521127,325.629924 L85.915493,325.629924 L85.915493,323.081583 Z M103.098592,323.081583 L106.535211,323.081583 L106.535211,325.629924 L103.098592,325.629924 L103.098592,323.081583 Z M120.28169,323.081583 L123.71831,323.081583 L123.71831,325.629924 L120.28169,325.629924 L120.28169,323.081583 Z M137.464789,323.081583 L140.901408,323.081583 L140.901408,325.629924 L137.464789,325.629924 L137.464789,323.081583 Z M154.647887,323.081583 L158.084507,323.081583 L158.084507,325.629924 L154.647887,325.629924 L154.647887,323.081583 Z M171.830986,323.081583 L175.267606,323.081583 L175.267606,325.629924 L171.830986,325.629924 L171.830986,323.081583 Z M189.014085,323.081583 L192.450704,323.081583 L192.450704,325.629924 L189.014085,325.629924 L189.014085,323.081583 Z M206.197183,323.081583 L209.633803,323.081583 L209.633803,325.629924 L206.197183,325.629924 L206.197183,323.081583 Z M223.380282,323.081583 L226.816901,323.081583 L226.816901,325.629924 L223.380282,325.629924 L223.380282,323.081583 Z M240.56338,323.081583 L244,323.081583 L244,325.629924 L240.56338,325.629924 L240.56338,323.081583 Z M0,335.823287 L3.43661972,335.823287 L3.43661972,338.371628 L0,338.371628 L0,335.823287 Z M17.1830986,335.823287 L20.6197183,335.823287 L20.6197183,338.371628 L17.1830986,338.371628 L17.1830986,335.823287 Z M34.3661972,335.823287 L37.8028169,335.823287 L37.8028169,338.371628 L34.3661972,338.371628 L34.3661972,335.823287 Z M51.5492958,335.823287 L54.9859155,335.823287 L54.9859155,338.371628 L51.5492958,338.371628 L51.5492958,335.823287 Z M68.7323944,335.823287 L72.1690141,335.823287 L72.1690141,338.371628 L68.7323944,338.371628 L68.7323944,335.823287 Z M85.915493,335.823287 L89.3521127,335.823287 L89.3521127,338.371628 L85.915493,338.371628 L85.915493,335.823287 Z M103.098592,335.823287 L106.535211,335.823287 L106.535211,338.371628 L103.098592,338.371628 L103.098592,335.823287 Z M120.28169,335.823287 L123.71831,335.823287 L123.71831,338.371628 L120.28169,338.371628 L120.28169,335.823287 Z M137.464789,335.823287 L140.901408,335.823287 L140.901408,338.371628 L137.464789,338.371628 L137.464789,335.823287 Z M154.647887,335.823287 L158.084507,335.823287 L158.084507,338.371628 L154.647887,338.371628 L154.647887,335.823287 Z M171.830986,335.823287 L175.267606,335.823287 L175.267606,338.371628 L171.830986,338.371628 L171.830986,335.823287 Z M189.014085,335.823287 L192.450704,335.823287 L192.450704,338.371628 L189.014085,338.371628 L189.014085,335.823287 Z M206.197183,335.823287 L209.633803,335.823287 L209.633803,338.371628 L206.197183,338.371628 L206.197183,335.823287 Z M223.380282,335.823287 L226.816901,335.823287 L226.816901,338.371628 L223.380282,338.371628 L223.380282,335.823287 Z M240.56338,335.823287 L244,335.823287 L244,338.371628 L240.56338,338.371628 L240.56338,335.823287 Z M0,348.564992 L3.43661972,348.564992 L3.43661972,351.113333 L0,351.113333 L0,348.564992 Z M17.1830986,348.564992 L20.6197183,348.564992 L20.6197183,351.113333 L17.1830986,351.113333 L17.1830986,348.564992 Z M34.3661972,348.564992 L37.8028169,348.564992 L37.8028169,351.113333 L34.3661972,351.113333 L34.3661972,348.564992 Z M51.5492958,348.564992 L54.9859155,348.564992 L54.9859155,351.113333 L51.5492958,351.113333 L51.5492958,348.564992 Z M68.7323944,348.564992 L72.1690141,348.564992 L72.1690141,351.113333 L68.7323944,351.113333 L68.7323944,348.564992 Z M85.915493,348.564992 L89.3521127,348.564992 L89.3521127,351.113333 L85.915493,351.113333 L85.915493,348.564992 Z M103.098592,348.564992 L106.535211,348.564992 L106.535211,351.113333 L103.098592,351.113333 L103.098592,348.564992 Z M120.28169,348.564992 L123.71831,348.564992 L123.71831,351.113333 L120.28169,351.113333 L120.28169,348.564992 Z M137.464789,348.564992 L140.901408,348.564992 L140.901408,351.113333 L137.464789,351.113333 L137.464789,348.564992 Z M154.647887,348.564992 L158.084507,348.564992 L158.084507,351.113333 L154.647887,351.113333 L154.647887,348.564992 Z M171.830986,348.564992 L175.267606,348.564992 L175.267606,351.113333 L171.830986,351.113333 L171.830986,348.564992 Z M189.014085,348.564992 L192.450704,348.564992 L192.450704,351.113333 L189.014085,351.113333 L189.014085,348.564992 Z M206.197183,348.564992 L209.633803,348.564992 L209.633803,351.113333 L206.197183,351.113333 L206.197183,348.564992 Z M223.380282,348.564992 L226.816901,348.564992 L226.816901,351.113333 L223.380282,351.113333 L223.380282,348.564992 Z M240.56338,348.564992 L244,348.564992 L244,351.113333 L240.56338,351.113333 L240.56338,348.564992 Z M0,361.306696 L3.43661972,361.306696 L3.43661972,363.855037 L0,363.855037 L0,361.306696 Z M17.1830986,361.306696 L20.6197183,361.306696 L20.6197183,363.855037 L17.1830986,363.855037 L17.1830986,361.306696 Z M34.3661972,361.306696 L37.8028169,361.306696 L37.8028169,363.855037 L34.3661972,363.855037 L34.3661972,361.306696 Z M51.5492958,361.306696 L54.9859155,361.306696 L54.9859155,363.855037 L51.5492958,363.855037 L51.5492958,361.306696 Z M68.7323944,361.306696 L72.1690141,361.306696 L72.1690141,363.855037 L68.7323944,363.855037 L68.7323944,361.306696 Z M85.915493,361.306696 L89.3521127,361.306696 L89.3521127,363.855037 L85.915493,363.855037 L85.915493,361.306696 Z M103.098592,361.306696 L106.535211,361.306696 L106.535211,363.855037 L103.098592,363.855037 L103.098592,361.306696 Z M120.28169,361.306696 L123.71831,361.306696 L123.71831,363.855037 L120.28169,363.855037 L120.28169,361.306696 Z M137.464789,361.306696 L140.901408,361.306696 L140.901408,363.855037 L137.464789,363.855037 L137.464789,361.306696 Z M154.647887,361.306696 L158.084507,361.306696 L158.084507,363.855037 L154.647887,363.855037 L154.647887,361.306696 Z M171.830986,361.306696 L175.267606,361.306696 L175.267606,363.855037 L171.830986,363.855037 L171.830986,361.306696 Z M189.014085,361.306696 L192.450704,361.306696 L192.450704,363.855037 L189.014085,363.855037 L189.014085,361.306696 Z M206.197183,361.306696 L209.633803,361.306696 L209.633803,363.855037 L206.197183,363.855037 L206.197183,361.306696 Z M223.380282,361.306696 L226.816901,361.306696 L226.816901,363.855037 L223.380282,363.855037 L223.380282,361.306696 Z M240.56338,361.306696 L244,361.306696 L244,363.855037 L240.56338,363.855037 L240.56338,361.306696 Z" id="Combined-Shape" fill="url(#linearGradient-8)" opacity="0.447521391"></path>
                                <path d="M1103,196.207627 L1106.43662,196.207627 L1106.43662,198.755968 L1103,198.755968 L1103,196.207627 Z M1120.1831,196.207627 L1123.61972,196.207627 L1123.61972,198.755968 L1120.1831,198.755968 L1120.1831,196.207627 Z M1137.3662,196.207627 L1140.80282,196.207627 L1140.80282,198.755968 L1137.3662,198.755968 L1137.3662,196.207627 Z M1154.5493,196.207627 L1157.98592,196.207627 L1157.98592,198.755968 L1154.5493,198.755968 L1154.5493,196.207627 Z M1171.73239,196.207627 L1175.16901,196.207627 L1175.16901,198.755968 L1171.73239,198.755968 L1171.73239,196.207627 Z M1188.91549,196.207627 L1192.35211,196.207627 L1192.35211,198.755968 L1188.91549,198.755968 L1188.91549,196.207627 Z M1206.09859,196.207627 L1209.53521,196.207627 L1209.53521,198.755968 L1206.09859,198.755968 L1206.09859,196.207627 Z M1223.28169,196.207627 L1226.71831,196.207627 L1226.71831,198.755968 L1223.28169,198.755968 L1223.28169,196.207627 Z M1240.46479,196.207627 L1243.90141,196.207627 L1243.90141,198.755968 L1240.46479,198.755968 L1240.46479,196.207627 Z M1257.64789,196.207627 L1261.08451,196.207627 L1261.08451,198.755968 L1257.64789,198.755968 L1257.64789,196.207627 Z M1274.83099,196.207627 L1278.26761,196.207627 L1278.26761,198.755968 L1274.83099,198.755968 L1274.83099,196.207627 Z M1292.01408,196.207627 L1295.4507,196.207627 L1295.4507,198.755968 L1292.01408,198.755968 L1292.01408,196.207627 Z M1309.19718,196.207627 L1312.6338,196.207627 L1312.6338,198.755968 L1309.19718,198.755968 L1309.19718,196.207627 Z M1326.38028,196.207627 L1329.8169,196.207627 L1329.8169,198.755968 L1326.38028,198.755968 L1326.38028,196.207627 Z M1343.56338,196.207627 L1347,196.207627 L1347,198.755968 L1343.56338,198.755968 L1343.56338,196.207627 Z M1103,208.949332 L1106.43662,208.949332 L1106.43662,211.497672 L1103,211.497672 L1103,208.949332 Z M1120.1831,208.949332 L1123.61972,208.949332 L1123.61972,211.497672 L1120.1831,211.497672 L1120.1831,208.949332 Z M1137.3662,208.949332 L1140.80282,208.949332 L1140.80282,211.497672 L1137.3662,211.497672 L1137.3662,208.949332 Z M1154.5493,208.949332 L1157.98592,208.949332 L1157.98592,211.497672 L1154.5493,211.497672 L1154.5493,208.949332 Z M1171.73239,208.949332 L1175.16901,208.949332 L1175.16901,211.497672 L1171.73239,211.497672 L1171.73239,208.949332 Z M1188.91549,208.949332 L1192.35211,208.949332 L1192.35211,211.497672 L1188.91549,211.497672 L1188.91549,208.949332 Z M1206.09859,208.949332 L1209.53521,208.949332 L1209.53521,211.497672 L1206.09859,211.497672 L1206.09859,208.949332 Z M1223.28169,208.949332 L1226.71831,208.949332 L1226.71831,211.497672 L1223.28169,211.497672 L1223.28169,208.949332 Z M1240.46479,208.949332 L1243.90141,208.949332 L1243.90141,211.497672 L1240.46479,211.497672 L1240.46479,208.949332 Z M1257.64789,208.949332 L1261.08451,208.949332 L1261.08451,211.497672 L1257.64789,211.497672 L1257.64789,208.949332 Z M1274.83099,208.949332 L1278.26761,208.949332 L1278.26761,211.497672 L1274.83099,211.497672 L1274.83099,208.949332 Z M1292.01408,208.949332 L1295.4507,208.949332 L1295.4507,211.497672 L1292.01408,211.497672 L1292.01408,208.949332 Z M1309.19718,208.949332 L1312.6338,208.949332 L1312.6338,211.497672 L1309.19718,211.497672 L1309.19718,208.949332 Z M1326.38028,208.949332 L1329.8169,208.949332 L1329.8169,211.497672 L1326.38028,211.497672 L1326.38028,208.949332 Z M1343.56338,208.949332 L1347,208.949332 L1347,211.497672 L1343.56338,211.497672 L1343.56338,208.949332 Z M1103,221.691036 L1106.43662,221.691036 L1106.43662,224.239377 L1103,224.239377 L1103,221.691036 Z M1120.1831,221.691036 L1123.61972,221.691036 L1123.61972,224.239377 L1120.1831,224.239377 L1120.1831,221.691036 Z M1137.3662,221.691036 L1140.80282,221.691036 L1140.80282,224.239377 L1137.3662,224.239377 L1137.3662,221.691036 Z M1154.5493,221.691036 L1157.98592,221.691036 L1157.98592,224.239377 L1154.5493,224.239377 L1154.5493,221.691036 Z M1171.73239,221.691036 L1175.16901,221.691036 L1175.16901,224.239377 L1171.73239,224.239377 L1171.73239,221.691036 Z M1188.91549,221.691036 L1192.35211,221.691036 L1192.35211,224.239377 L1188.91549,224.239377 L1188.91549,221.691036 Z M1206.09859,221.691036 L1209.53521,221.691036 L1209.53521,224.239377 L1206.09859,224.239377 L1206.09859,221.691036 Z M1223.28169,221.691036 L1226.71831,221.691036 L1226.71831,224.239377 L1223.28169,224.239377 L1223.28169,221.691036 Z M1240.46479,221.691036 L1243.90141,221.691036 L1243.90141,224.239377 L1240.46479,224.239377 L1240.46479,221.691036 Z M1257.64789,221.691036 L1261.08451,221.691036 L1261.08451,224.239377 L1257.64789,224.239377 L1257.64789,221.691036 Z M1274.83099,221.691036 L1278.26761,221.691036 L1278.26761,224.239377 L1274.83099,224.239377 L1274.83099,221.691036 Z M1292.01408,221.691036 L1295.4507,221.691036 L1295.4507,224.239377 L1292.01408,224.239377 L1292.01408,221.691036 Z M1309.19718,221.691036 L1312.6338,221.691036 L1312.6338,224.239377 L1309.19718,224.239377 L1309.19718,221.691036 Z M1326.38028,221.691036 L1329.8169,221.691036 L1329.8169,224.239377 L1326.38028,224.239377 L1326.38028,221.691036 Z M1343.56338,221.691036 L1347,221.691036 L1347,224.239377 L1343.56338,224.239377 L1343.56338,221.691036 Z M1103,234.432741 L1106.43662,234.432741 L1106.43662,236.981081 L1103,236.981081 L1103,234.432741 Z M1120.1831,234.432741 L1123.61972,234.432741 L1123.61972,236.981081 L1120.1831,236.981081 L1120.1831,234.432741 Z M1137.3662,234.432741 L1140.80282,234.432741 L1140.80282,236.981081 L1137.3662,236.981081 L1137.3662,234.432741 Z M1154.5493,234.432741 L1157.98592,234.432741 L1157.98592,236.981081 L1154.5493,236.981081 L1154.5493,234.432741 Z M1171.73239,234.432741 L1175.16901,234.432741 L1175.16901,236.981081 L1171.73239,236.981081 L1171.73239,234.432741 Z M1188.91549,234.432741 L1192.35211,234.432741 L1192.35211,236.981081 L1188.91549,236.981081 L1188.91549,234.432741 Z M1206.09859,234.432741 L1209.53521,234.432741 L1209.53521,236.981081 L1206.09859,236.981081 L1206.09859,234.432741 Z M1223.28169,234.432741 L1226.71831,234.432741 L1226.71831,236.981081 L1223.28169,236.981081 L1223.28169,234.432741 Z M1240.46479,234.432741 L1243.90141,234.432741 L1243.90141,236.981081 L1240.46479,236.981081 L1240.46479,234.432741 Z M1257.64789,234.432741 L1261.08451,234.432741 L1261.08451,236.981081 L1257.64789,236.981081 L1257.64789,234.432741 Z M1274.83099,234.432741 L1278.26761,234.432741 L1278.26761,236.981081 L1274.83099,236.981081 L1274.83099,234.432741 Z M1292.01408,234.432741 L1295.4507,234.432741 L1295.4507,236.981081 L1292.01408,236.981081 L1292.01408,234.432741 Z M1309.19718,234.432741 L1312.6338,234.432741 L1312.6338,236.981081 L1309.19718,236.981081 L1309.19718,234.432741 Z M1326.38028,234.432741 L1329.8169,234.432741 L1329.8169,236.981081 L1326.38028,236.981081 L1326.38028,234.432741 Z M1343.56338,234.432741 L1347,234.432741 L1347,236.981081 L1343.56338,236.981081 L1343.56338,234.432741 Z M1103,247.174445 L1106.43662,247.174445 L1106.43662,249.722786 L1103,249.722786 L1103,247.174445 Z M1120.1831,247.174445 L1123.61972,247.174445 L1123.61972,249.722786 L1120.1831,249.722786 L1120.1831,247.174445 Z M1137.3662,247.174445 L1140.80282,247.174445 L1140.80282,249.722786 L1137.3662,249.722786 L1137.3662,247.174445 Z M1154.5493,247.174445 L1157.98592,247.174445 L1157.98592,249.722786 L1154.5493,249.722786 L1154.5493,247.174445 Z M1171.73239,247.174445 L1175.16901,247.174445 L1175.16901,249.722786 L1171.73239,249.722786 L1171.73239,247.174445 Z M1188.91549,247.174445 L1192.35211,247.174445 L1192.35211,249.722786 L1188.91549,249.722786 L1188.91549,247.174445 Z M1206.09859,247.174445 L1209.53521,247.174445 L1209.53521,249.722786 L1206.09859,249.722786 L1206.09859,247.174445 Z M1223.28169,247.174445 L1226.71831,247.174445 L1226.71831,249.722786 L1223.28169,249.722786 L1223.28169,247.174445 Z M1240.46479,247.174445 L1243.90141,247.174445 L1243.90141,249.722786 L1240.46479,249.722786 L1240.46479,247.174445 Z M1257.64789,247.174445 L1261.08451,247.174445 L1261.08451,249.722786 L1257.64789,249.722786 L1257.64789,247.174445 Z M1274.83099,247.174445 L1278.26761,247.174445 L1278.26761,249.722786 L1274.83099,249.722786 L1274.83099,247.174445 Z M1292.01408,247.174445 L1295.4507,247.174445 L1295.4507,249.722786 L1292.01408,249.722786 L1292.01408,247.174445 Z M1309.19718,247.174445 L1312.6338,247.174445 L1312.6338,249.722786 L1309.19718,249.722786 L1309.19718,247.174445 Z M1326.38028,247.174445 L1329.8169,247.174445 L1329.8169,249.722786 L1326.38028,249.722786 L1326.38028,247.174445 Z M1343.56338,247.174445 L1347,247.174445 L1347,249.722786 L1343.56338,249.722786 L1343.56338,247.174445 Z M1103,259.916149 L1106.43662,259.916149 L1106.43662,262.46449 L1103,262.46449 L1103,259.916149 Z M1120.1831,259.916149 L1123.61972,259.916149 L1123.61972,262.46449 L1120.1831,262.46449 L1120.1831,259.916149 Z M1137.3662,259.916149 L1140.80282,259.916149 L1140.80282,262.46449 L1137.3662,262.46449 L1137.3662,259.916149 Z M1154.5493,259.916149 L1157.98592,259.916149 L1157.98592,262.46449 L1154.5493,262.46449 L1154.5493,259.916149 Z M1171.73239,259.916149 L1175.16901,259.916149 L1175.16901,262.46449 L1171.73239,262.46449 L1171.73239,259.916149 Z M1188.91549,259.916149 L1192.35211,259.916149 L1192.35211,262.46449 L1188.91549,262.46449 L1188.91549,259.916149 Z M1206.09859,259.916149 L1209.53521,259.916149 L1209.53521,262.46449 L1206.09859,262.46449 L1206.09859,259.916149 Z M1223.28169,259.916149 L1226.71831,259.916149 L1226.71831,262.46449 L1223.28169,262.46449 L1223.28169,259.916149 Z M1240.46479,259.916149 L1243.90141,259.916149 L1243.90141,262.46449 L1240.46479,262.46449 L1240.46479,259.916149 Z M1257.64789,259.916149 L1261.08451,259.916149 L1261.08451,262.46449 L1257.64789,262.46449 L1257.64789,259.916149 Z M1274.83099,259.916149 L1278.26761,259.916149 L1278.26761,262.46449 L1274.83099,262.46449 L1274.83099,259.916149 Z M1292.01408,259.916149 L1295.4507,259.916149 L1295.4507,262.46449 L1292.01408,262.46449 L1292.01408,259.916149 Z M1309.19718,259.916149 L1312.6338,259.916149 L1312.6338,262.46449 L1309.19718,262.46449 L1309.19718,259.916149 Z M1326.38028,259.916149 L1329.8169,259.916149 L1329.8169,262.46449 L1326.38028,262.46449 L1326.38028,259.916149 Z M1343.56338,259.916149 L1347,259.916149 L1347,262.46449 L1343.56338,262.46449 L1343.56338,259.916149 Z M1103,272.657854 L1106.43662,272.657854 L1106.43662,275.206195 L1103,275.206195 L1103,272.657854 Z M1120.1831,272.657854 L1123.61972,272.657854 L1123.61972,275.206195 L1120.1831,275.206195 L1120.1831,272.657854 Z M1137.3662,272.657854 L1140.80282,272.657854 L1140.80282,275.206195 L1137.3662,275.206195 L1137.3662,272.657854 Z M1154.5493,272.657854 L1157.98592,272.657854 L1157.98592,275.206195 L1154.5493,275.206195 L1154.5493,272.657854 Z M1171.73239,272.657854 L1175.16901,272.657854 L1175.16901,275.206195 L1171.73239,275.206195 L1171.73239,272.657854 Z M1188.91549,272.657854 L1192.35211,272.657854 L1192.35211,275.206195 L1188.91549,275.206195 L1188.91549,272.657854 Z M1206.09859,272.657854 L1209.53521,272.657854 L1209.53521,275.206195 L1206.09859,275.206195 L1206.09859,272.657854 Z M1223.28169,272.657854 L1226.71831,272.657854 L1226.71831,275.206195 L1223.28169,275.206195 L1223.28169,272.657854 Z M1240.46479,272.657854 L1243.90141,272.657854 L1243.90141,275.206195 L1240.46479,275.206195 L1240.46479,272.657854 Z M1257.64789,272.657854 L1261.08451,272.657854 L1261.08451,275.206195 L1257.64789,275.206195 L1257.64789,272.657854 Z M1274.83099,272.657854 L1278.26761,272.657854 L1278.26761,275.206195 L1274.83099,275.206195 L1274.83099,272.657854 Z M1292.01408,272.657854 L1295.4507,272.657854 L1295.4507,275.206195 L1292.01408,275.206195 L1292.01408,272.657854 Z M1309.19718,272.657854 L1312.6338,272.657854 L1312.6338,275.206195 L1309.19718,275.206195 L1309.19718,272.657854 Z M1326.38028,272.657854 L1329.8169,272.657854 L1329.8169,275.206195 L1326.38028,275.206195 L1326.38028,272.657854 Z M1343.56338,272.657854 L1347,272.657854 L1347,275.206195 L1343.56338,275.206195 L1343.56338,272.657854 Z M1103,285.399558 L1106.43662,285.399558 L1106.43662,287.947899 L1103,287.947899 L1103,285.399558 Z M1120.1831,285.399558 L1123.61972,285.399558 L1123.61972,287.947899 L1120.1831,287.947899 L1120.1831,285.399558 Z M1137.3662,285.399558 L1140.80282,285.399558 L1140.80282,287.947899 L1137.3662,287.947899 L1137.3662,285.399558 Z M1154.5493,285.399558 L1157.98592,285.399558 L1157.98592,287.947899 L1154.5493,287.947899 L1154.5493,285.399558 Z M1171.73239,285.399558 L1175.16901,285.399558 L1175.16901,287.947899 L1171.73239,287.947899 L1171.73239,285.399558 Z M1188.91549,285.399558 L1192.35211,285.399558 L1192.35211,287.947899 L1188.91549,287.947899 L1188.91549,285.399558 Z M1206.09859,285.399558 L1209.53521,285.399558 L1209.53521,287.947899 L1206.09859,287.947899 L1206.09859,285.399558 Z M1223.28169,285.399558 L1226.71831,285.399558 L1226.71831,287.947899 L1223.28169,287.947899 L1223.28169,285.399558 Z M1240.46479,285.399558 L1243.90141,285.399558 L1243.90141,287.947899 L1240.46479,287.947899 L1240.46479,285.399558 Z M1257.64789,285.399558 L1261.08451,285.399558 L1261.08451,287.947899 L1257.64789,287.947899 L1257.64789,285.399558 Z M1274.83099,285.399558 L1278.26761,285.399558 L1278.26761,287.947899 L1274.83099,287.947899 L1274.83099,285.399558 Z M1292.01408,285.399558 L1295.4507,285.399558 L1295.4507,287.947899 L1292.01408,287.947899 L1292.01408,285.399558 Z M1309.19718,285.399558 L1312.6338,285.399558 L1312.6338,287.947899 L1309.19718,287.947899 L1309.19718,285.399558 Z M1326.38028,285.399558 L1329.8169,285.399558 L1329.8169,287.947899 L1326.38028,287.947899 L1326.38028,285.399558 Z M1343.56338,285.399558 L1347,285.399558 L1347,287.947899 L1343.56338,287.947899 L1343.56338,285.399558 Z M1103,298.141263 L1106.43662,298.141263 L1106.43662,300.689604 L1103,300.689604 L1103,298.141263 Z M1120.1831,298.141263 L1123.61972,298.141263 L1123.61972,300.689604 L1120.1831,300.689604 L1120.1831,298.141263 Z M1137.3662,298.141263 L1140.80282,298.141263 L1140.80282,300.689604 L1137.3662,300.689604 L1137.3662,298.141263 Z M1154.5493,298.141263 L1157.98592,298.141263 L1157.98592,300.689604 L1154.5493,300.689604 L1154.5493,298.141263 Z M1171.73239,298.141263 L1175.16901,298.141263 L1175.16901,300.689604 L1171.73239,300.689604 L1171.73239,298.141263 Z M1188.91549,298.141263 L1192.35211,298.141263 L1192.35211,300.689604 L1188.91549,300.689604 L1188.91549,298.141263 Z M1206.09859,298.141263 L1209.53521,298.141263 L1209.53521,300.689604 L1206.09859,300.689604 L1206.09859,298.141263 Z M1223.28169,298.141263 L1226.71831,298.141263 L1226.71831,300.689604 L1223.28169,300.689604 L1223.28169,298.141263 Z M1240.46479,298.141263 L1243.90141,298.141263 L1243.90141,300.689604 L1240.46479,300.689604 L1240.46479,298.141263 Z M1257.64789,298.141263 L1261.08451,298.141263 L1261.08451,300.689604 L1257.64789,300.689604 L1257.64789,298.141263 Z M1274.83099,298.141263 L1278.26761,298.141263 L1278.26761,300.689604 L1274.83099,300.689604 L1274.83099,298.141263 Z M1292.01408,298.141263 L1295.4507,298.141263 L1295.4507,300.689604 L1292.01408,300.689604 L1292.01408,298.141263 Z M1309.19718,298.141263 L1312.6338,298.141263 L1312.6338,300.689604 L1309.19718,300.689604 L1309.19718,298.141263 Z M1326.38028,298.141263 L1329.8169,298.141263 L1329.8169,300.689604 L1326.38028,300.689604 L1326.38028,298.141263 Z M1343.56338,298.141263 L1347,298.141263 L1347,300.689604 L1343.56338,300.689604 L1343.56338,298.141263 Z M1103,310.882967 L1106.43662,310.882967 L1106.43662,313.431308 L1103,313.431308 L1103,310.882967 Z M1120.1831,310.882967 L1123.61972,310.882967 L1123.61972,313.431308 L1120.1831,313.431308 L1120.1831,310.882967 Z M1137.3662,310.882967 L1140.80282,310.882967 L1140.80282,313.431308 L1137.3662,313.431308 L1137.3662,310.882967 Z M1154.5493,310.882967 L1157.98592,310.882967 L1157.98592,313.431308 L1154.5493,313.431308 L1154.5493,310.882967 Z M1171.73239,310.882967 L1175.16901,310.882967 L1175.16901,313.431308 L1171.73239,313.431308 L1171.73239,310.882967 Z M1188.91549,310.882967 L1192.35211,310.882967 L1192.35211,313.431308 L1188.91549,313.431308 L1188.91549,310.882967 Z M1206.09859,310.882967 L1209.53521,310.882967 L1209.53521,313.431308 L1206.09859,313.431308 L1206.09859,310.882967 Z M1223.28169,310.882967 L1226.71831,310.882967 L1226.71831,313.431308 L1223.28169,313.431308 L1223.28169,310.882967 Z M1240.46479,310.882967 L1243.90141,310.882967 L1243.90141,313.431308 L1240.46479,313.431308 L1240.46479,310.882967 Z M1257.64789,310.882967 L1261.08451,310.882967 L1261.08451,313.431308 L1257.64789,313.431308 L1257.64789,310.882967 Z M1274.83099,310.882967 L1278.26761,310.882967 L1278.26761,313.431308 L1274.83099,313.431308 L1274.83099,310.882967 Z M1292.01408,310.882967 L1295.4507,310.882967 L1295.4507,313.431308 L1292.01408,313.431308 L1292.01408,310.882967 Z M1309.19718,310.882967 L1312.6338,310.882967 L1312.6338,313.431308 L1309.19718,313.431308 L1309.19718,310.882967 Z M1326.38028,310.882967 L1329.8169,310.882967 L1329.8169,313.431308 L1326.38028,313.431308 L1326.38028,310.882967 Z M1343.56338,310.882967 L1347,310.882967 L1347,313.431308 L1343.56338,313.431308 L1343.56338,310.882967 Z M1103,323.008475 L1106.43662,323.008475 L1106.43662,325.556815 L1103,325.556815 L1103,323.008475 Z M1120.1831,323.008475 L1123.61972,323.008475 L1123.61972,325.556815 L1120.1831,325.556815 L1120.1831,323.008475 Z M1137.3662,323.008475 L1140.80282,323.008475 L1140.80282,325.556815 L1137.3662,325.556815 L1137.3662,323.008475 Z M1154.5493,323.008475 L1157.98592,323.008475 L1157.98592,325.556815 L1154.5493,325.556815 L1154.5493,323.008475 Z M1171.73239,323.008475 L1175.16901,323.008475 L1175.16901,325.556815 L1171.73239,325.556815 L1171.73239,323.008475 Z M1188.91549,323.008475 L1192.35211,323.008475 L1192.35211,325.556815 L1188.91549,325.556815 L1188.91549,323.008475 Z M1206.09859,323.008475 L1209.53521,323.008475 L1209.53521,325.556815 L1206.09859,325.556815 L1206.09859,323.008475 Z M1223.28169,323.008475 L1226.71831,323.008475 L1226.71831,325.556815 L1223.28169,325.556815 L1223.28169,323.008475 Z M1240.46479,323.008475 L1243.90141,323.008475 L1243.90141,325.556815 L1240.46479,325.556815 L1240.46479,323.008475 Z M1257.64789,323.008475 L1261.08451,323.008475 L1261.08451,325.556815 L1257.64789,325.556815 L1257.64789,323.008475 Z M1274.83099,323.008475 L1278.26761,323.008475 L1278.26761,325.556815 L1274.83099,325.556815 L1274.83099,323.008475 Z M1292.01408,323.008475 L1295.4507,323.008475 L1295.4507,325.556815 L1292.01408,325.556815 L1292.01408,323.008475 Z M1309.19718,323.008475 L1312.6338,323.008475 L1312.6338,325.556815 L1309.19718,325.556815 L1309.19718,323.008475 Z M1326.38028,323.008475 L1329.8169,323.008475 L1329.8169,325.556815 L1326.38028,325.556815 L1326.38028,323.008475 Z M1343.56338,323.008475 L1347,323.008475 L1347,325.556815 L1343.56338,325.556815 L1343.56338,323.008475 Z M1103,335.750179 L1106.43662,335.750179 L1106.43662,338.29852 L1103,338.29852 L1103,335.750179 Z M1120.1831,335.750179 L1123.61972,335.750179 L1123.61972,338.29852 L1120.1831,338.29852 L1120.1831,335.750179 Z M1137.3662,335.750179 L1140.80282,335.750179 L1140.80282,338.29852 L1137.3662,338.29852 L1137.3662,335.750179 Z M1154.5493,335.750179 L1157.98592,335.750179 L1157.98592,338.29852 L1154.5493,338.29852 L1154.5493,335.750179 Z M1171.73239,335.750179 L1175.16901,335.750179 L1175.16901,338.29852 L1171.73239,338.29852 L1171.73239,335.750179 Z M1188.91549,335.750179 L1192.35211,335.750179 L1192.35211,338.29852 L1188.91549,338.29852 L1188.91549,335.750179 Z M1206.09859,335.750179 L1209.53521,335.750179 L1209.53521,338.29852 L1206.09859,338.29852 L1206.09859,335.750179 Z M1223.28169,335.750179 L1226.71831,335.750179 L1226.71831,338.29852 L1223.28169,338.29852 L1223.28169,335.750179 Z M1240.46479,335.750179 L1243.90141,335.750179 L1243.90141,338.29852 L1240.46479,338.29852 L1240.46479,335.750179 Z M1257.64789,335.750179 L1261.08451,335.750179 L1261.08451,338.29852 L1257.64789,338.29852 L1257.64789,335.750179 Z M1274.83099,335.750179 L1278.26761,335.750179 L1278.26761,338.29852 L1274.83099,338.29852 L1274.83099,335.750179 Z M1292.01408,335.750179 L1295.4507,335.750179 L1295.4507,338.29852 L1292.01408,338.29852 L1292.01408,335.750179 Z M1309.19718,335.750179 L1312.6338,335.750179 L1312.6338,338.29852 L1309.19718,338.29852 L1309.19718,335.750179 Z M1326.38028,335.750179 L1329.8169,335.750179 L1329.8169,338.29852 L1326.38028,338.29852 L1326.38028,335.750179 Z M1343.56338,335.750179 L1347,335.750179 L1347,338.29852 L1343.56338,338.29852 L1343.56338,335.750179 Z M1103,348.491884 L1106.43662,348.491884 L1106.43662,351.040224 L1103,351.040224 L1103,348.491884 Z M1120.1831,348.491884 L1123.61972,348.491884 L1123.61972,351.040224 L1120.1831,351.040224 L1120.1831,348.491884 Z M1137.3662,348.491884 L1140.80282,348.491884 L1140.80282,351.040224 L1137.3662,351.040224 L1137.3662,348.491884 Z M1154.5493,348.491884 L1157.98592,348.491884 L1157.98592,351.040224 L1154.5493,351.040224 L1154.5493,348.491884 Z M1171.73239,348.491884 L1175.16901,348.491884 L1175.16901,351.040224 L1171.73239,351.040224 L1171.73239,348.491884 Z M1188.91549,348.491884 L1192.35211,348.491884 L1192.35211,351.040224 L1188.91549,351.040224 L1188.91549,348.491884 Z M1206.09859,348.491884 L1209.53521,348.491884 L1209.53521,351.040224 L1206.09859,351.040224 L1206.09859,348.491884 Z M1223.28169,348.491884 L1226.71831,348.491884 L1226.71831,351.040224 L1223.28169,351.040224 L1223.28169,348.491884 Z M1240.46479,348.491884 L1243.90141,348.491884 L1243.90141,351.040224 L1240.46479,351.040224 L1240.46479,348.491884 Z M1257.64789,348.491884 L1261.08451,348.491884 L1261.08451,351.040224 L1257.64789,351.040224 L1257.64789,348.491884 Z M1274.83099,348.491884 L1278.26761,348.491884 L1278.26761,351.040224 L1274.83099,351.040224 L1274.83099,348.491884 Z M1292.01408,348.491884 L1295.4507,348.491884 L1295.4507,351.040224 L1292.01408,351.040224 L1292.01408,348.491884 Z M1309.19718,348.491884 L1312.6338,348.491884 L1312.6338,351.040224 L1309.19718,351.040224 L1309.19718,348.491884 Z M1326.38028,348.491884 L1329.8169,348.491884 L1329.8169,351.040224 L1326.38028,351.040224 L1326.38028,348.491884 Z M1343.56338,348.491884 L1347,348.491884 L1347,351.040224 L1343.56338,351.040224 L1343.56338,348.491884 Z M1103,361.233588 L1106.43662,361.233588 L1106.43662,363.781929 L1103,363.781929 L1103,361.233588 Z M1120.1831,361.233588 L1123.61972,361.233588 L1123.61972,363.781929 L1120.1831,363.781929 L1120.1831,361.233588 Z M1137.3662,361.233588 L1140.80282,361.233588 L1140.80282,363.781929 L1137.3662,363.781929 L1137.3662,361.233588 Z M1154.5493,361.233588 L1157.98592,361.233588 L1157.98592,363.781929 L1154.5493,363.781929 L1154.5493,361.233588 Z M1171.73239,361.233588 L1175.16901,361.233588 L1175.16901,363.781929 L1171.73239,363.781929 L1171.73239,361.233588 Z M1188.91549,361.233588 L1192.35211,361.233588 L1192.35211,363.781929 L1188.91549,363.781929 L1188.91549,361.233588 Z M1206.09859,361.233588 L1209.53521,361.233588 L1209.53521,363.781929 L1206.09859,363.781929 L1206.09859,361.233588 Z M1223.28169,361.233588 L1226.71831,361.233588 L1226.71831,363.781929 L1223.28169,363.781929 L1223.28169,361.233588 Z M1240.46479,361.233588 L1243.90141,361.233588 L1243.90141,363.781929 L1240.46479,363.781929 L1240.46479,361.233588 Z M1257.64789,361.233588 L1261.08451,361.233588 L1261.08451,363.781929 L1257.64789,363.781929 L1257.64789,361.233588 Z M1274.83099,361.233588 L1278.26761,361.233588 L1278.26761,363.781929 L1274.83099,363.781929 L1274.83099,361.233588 Z M1292.01408,361.233588 L1295.4507,361.233588 L1295.4507,363.781929 L1292.01408,363.781929 L1292.01408,361.233588 Z M1309.19718,361.233588 L1312.6338,361.233588 L1312.6338,363.781929 L1309.19718,363.781929 L1309.19718,361.233588 Z M1326.38028,361.233588 L1329.8169,361.233588 L1329.8169,363.781929 L1326.38028,363.781929 L1326.38028,361.233588 Z M1343.56338,361.233588 L1347,361.233588 L1347,363.781929 L1343.56338,363.781929 L1343.56338,361.233588 Z M1103,373.975292 L1106.43662,373.975292 L1106.43662,376.523633 L1103,376.523633 L1103,373.975292 Z M1120.1831,373.975292 L1123.61972,373.975292 L1123.61972,376.523633 L1120.1831,376.523633 L1120.1831,373.975292 Z M1137.3662,373.975292 L1140.80282,373.975292 L1140.80282,376.523633 L1137.3662,376.523633 L1137.3662,373.975292 Z M1154.5493,373.975292 L1157.98592,373.975292 L1157.98592,376.523633 L1154.5493,376.523633 L1154.5493,373.975292 Z M1171.73239,373.975292 L1175.16901,373.975292 L1175.16901,376.523633 L1171.73239,376.523633 L1171.73239,373.975292 Z M1188.91549,373.975292 L1192.35211,373.975292 L1192.35211,376.523633 L1188.91549,376.523633 L1188.91549,373.975292 Z M1206.09859,373.975292 L1209.53521,373.975292 L1209.53521,376.523633 L1206.09859,376.523633 L1206.09859,373.975292 Z M1223.28169,373.975292 L1226.71831,373.975292 L1226.71831,376.523633 L1223.28169,376.523633 L1223.28169,373.975292 Z M1240.46479,373.975292 L1243.90141,373.975292 L1243.90141,376.523633 L1240.46479,376.523633 L1240.46479,373.975292 Z M1257.64789,373.975292 L1261.08451,373.975292 L1261.08451,376.523633 L1257.64789,376.523633 L1257.64789,373.975292 Z M1274.83099,373.975292 L1278.26761,373.975292 L1278.26761,376.523633 L1274.83099,376.523633 L1274.83099,373.975292 Z M1292.01408,373.975292 L1295.4507,373.975292 L1295.4507,376.523633 L1292.01408,376.523633 L1292.01408,373.975292 Z M1309.19718,373.975292 L1312.6338,373.975292 L1312.6338,376.523633 L1309.19718,376.523633 L1309.19718,373.975292 Z M1326.38028,373.975292 L1329.8169,373.975292 L1329.8169,376.523633 L1326.38028,376.523633 L1326.38028,373.975292 Z M1343.56338,373.975292 L1347,373.975292 L1347,376.523633 L1343.56338,376.523633 L1343.56338,373.975292 Z M1103,386.716997 L1106.43662,386.716997 L1106.43662,389.265338 L1103,389.265338 L1103,386.716997 Z M1120.1831,386.716997 L1123.61972,386.716997 L1123.61972,389.265338 L1120.1831,389.265338 L1120.1831,386.716997 Z M1137.3662,386.716997 L1140.80282,386.716997 L1140.80282,389.265338 L1137.3662,389.265338 L1137.3662,386.716997 Z M1154.5493,386.716997 L1157.98592,386.716997 L1157.98592,389.265338 L1154.5493,389.265338 L1154.5493,386.716997 Z M1171.73239,386.716997 L1175.16901,386.716997 L1175.16901,389.265338 L1171.73239,389.265338 L1171.73239,386.716997 Z M1188.91549,386.716997 L1192.35211,386.716997 L1192.35211,389.265338 L1188.91549,389.265338 L1188.91549,386.716997 Z M1206.09859,386.716997 L1209.53521,386.716997 L1209.53521,389.265338 L1206.09859,389.265338 L1206.09859,386.716997 Z M1223.28169,386.716997 L1226.71831,386.716997 L1226.71831,389.265338 L1223.28169,389.265338 L1223.28169,386.716997 Z M1240.46479,386.716997 L1243.90141,386.716997 L1243.90141,389.265338 L1240.46479,389.265338 L1240.46479,386.716997 Z M1257.64789,386.716997 L1261.08451,386.716997 L1261.08451,389.265338 L1257.64789,389.265338 L1257.64789,386.716997 Z M1274.83099,386.716997 L1278.26761,386.716997 L1278.26761,389.265338 L1274.83099,389.265338 L1274.83099,386.716997 Z M1292.01408,386.716997 L1295.4507,386.716997 L1295.4507,389.265338 L1292.01408,389.265338 L1292.01408,386.716997 Z M1309.19718,386.716997 L1312.6338,386.716997 L1312.6338,389.265338 L1309.19718,389.265338 L1309.19718,386.716997 Z M1326.38028,386.716997 L1329.8169,386.716997 L1329.8169,389.265338 L1326.38028,389.265338 L1326.38028,386.716997 Z M1343.56338,386.716997 L1347,386.716997 L1347,389.265338 L1343.56338,389.265338 L1343.56338,386.716997 Z M1103,399.458701 L1106.43662,399.458701 L1106.43662,402.007042 L1103,402.007042 L1103,399.458701 Z M1120.1831,399.458701 L1123.61972,399.458701 L1123.61972,402.007042 L1120.1831,402.007042 L1120.1831,399.458701 Z M1137.3662,399.458701 L1140.80282,399.458701 L1140.80282,402.007042 L1137.3662,402.007042 L1137.3662,399.458701 Z M1154.5493,399.458701 L1157.98592,399.458701 L1157.98592,402.007042 L1154.5493,402.007042 L1154.5493,399.458701 Z M1171.73239,399.458701 L1175.16901,399.458701 L1175.16901,402.007042 L1171.73239,402.007042 L1171.73239,399.458701 Z M1188.91549,399.458701 L1192.35211,399.458701 L1192.35211,402.007042 L1188.91549,402.007042 L1188.91549,399.458701 Z M1206.09859,399.458701 L1209.53521,399.458701 L1209.53521,402.007042 L1206.09859,402.007042 L1206.09859,399.458701 Z M1223.28169,399.458701 L1226.71831,399.458701 L1226.71831,402.007042 L1223.28169,402.007042 L1223.28169,399.458701 Z M1240.46479,399.458701 L1243.90141,399.458701 L1243.90141,402.007042 L1240.46479,402.007042 L1240.46479,399.458701 Z M1257.64789,399.458701 L1261.08451,399.458701 L1261.08451,402.007042 L1257.64789,402.007042 L1257.64789,399.458701 Z M1274.83099,399.458701 L1278.26761,399.458701 L1278.26761,402.007042 L1274.83099,402.007042 L1274.83099,399.458701 Z M1292.01408,399.458701 L1295.4507,399.458701 L1295.4507,402.007042 L1292.01408,402.007042 L1292.01408,399.458701 Z M1309.19718,399.458701 L1312.6338,399.458701 L1312.6338,402.007042 L1309.19718,402.007042 L1309.19718,399.458701 Z M1326.38028,399.458701 L1329.8169,399.458701 L1329.8169,402.007042 L1326.38028,402.007042 L1326.38028,399.458701 Z M1343.56338,399.458701 L1347,399.458701 L1347,402.007042 L1343.56338,402.007042 L1343.56338,399.458701 Z M1103,412.200406 L1106.43662,412.200406 L1106.43662,414.748747 L1103,414.748747 L1103,412.200406 Z M1120.1831,412.200406 L1123.61972,412.200406 L1123.61972,414.748747 L1120.1831,414.748747 L1120.1831,412.200406 Z M1137.3662,412.200406 L1140.80282,412.200406 L1140.80282,414.748747 L1137.3662,414.748747 L1137.3662,412.200406 Z M1154.5493,412.200406 L1157.98592,412.200406 L1157.98592,414.748747 L1154.5493,414.748747 L1154.5493,412.200406 Z M1171.73239,412.200406 L1175.16901,412.200406 L1175.16901,414.748747 L1171.73239,414.748747 L1171.73239,412.200406 Z M1188.91549,412.200406 L1192.35211,412.200406 L1192.35211,414.748747 L1188.91549,414.748747 L1188.91549,412.200406 Z M1206.09859,412.200406 L1209.53521,412.200406 L1209.53521,414.748747 L1206.09859,414.748747 L1206.09859,412.200406 Z M1223.28169,412.200406 L1226.71831,412.200406 L1226.71831,414.748747 L1223.28169,414.748747 L1223.28169,412.200406 Z M1240.46479,412.200406 L1243.90141,412.200406 L1243.90141,414.748747 L1240.46479,414.748747 L1240.46479,412.200406 Z M1257.64789,412.200406 L1261.08451,412.200406 L1261.08451,414.748747 L1257.64789,414.748747 L1257.64789,412.200406 Z M1274.83099,412.200406 L1278.26761,412.200406 L1278.26761,414.748747 L1274.83099,414.748747 L1274.83099,412.200406 Z M1292.01408,412.200406 L1295.4507,412.200406 L1295.4507,414.748747 L1292.01408,414.748747 L1292.01408,412.200406 Z M1309.19718,412.200406 L1312.6338,412.200406 L1312.6338,414.748747 L1309.19718,414.748747 L1309.19718,412.200406 Z M1326.38028,412.200406 L1329.8169,412.200406 L1329.8169,414.748747 L1326.38028,414.748747 L1326.38028,412.200406 Z M1343.56338,412.200406 L1347,412.200406 L1347,414.748747 L1343.56338,414.748747 L1343.56338,412.200406 Z M1103,424.94211 L1106.43662,424.94211 L1106.43662,427.490451 L1103,427.490451 L1103,424.94211 Z M1120.1831,424.94211 L1123.61972,424.94211 L1123.61972,427.490451 L1120.1831,427.490451 L1120.1831,424.94211 Z M1137.3662,424.94211 L1140.80282,424.94211 L1140.80282,427.490451 L1137.3662,427.490451 L1137.3662,424.94211 Z M1154.5493,424.94211 L1157.98592,424.94211 L1157.98592,427.490451 L1154.5493,427.490451 L1154.5493,424.94211 Z M1171.73239,424.94211 L1175.16901,424.94211 L1175.16901,427.490451 L1171.73239,427.490451 L1171.73239,424.94211 Z M1188.91549,424.94211 L1192.35211,424.94211 L1192.35211,427.490451 L1188.91549,427.490451 L1188.91549,424.94211 Z M1206.09859,424.94211 L1209.53521,424.94211 L1209.53521,427.490451 L1206.09859,427.490451 L1206.09859,424.94211 Z M1223.28169,424.94211 L1226.71831,424.94211 L1226.71831,427.490451 L1223.28169,427.490451 L1223.28169,424.94211 Z M1240.46479,424.94211 L1243.90141,424.94211 L1243.90141,427.490451 L1240.46479,427.490451 L1240.46479,424.94211 Z M1257.64789,424.94211 L1261.08451,424.94211 L1261.08451,427.490451 L1257.64789,427.490451 L1257.64789,424.94211 Z M1274.83099,424.94211 L1278.26761,424.94211 L1278.26761,427.490451 L1274.83099,427.490451 L1274.83099,424.94211 Z M1292.01408,424.94211 L1295.4507,424.94211 L1295.4507,427.490451 L1292.01408,427.490451 L1292.01408,424.94211 Z M1309.19718,424.94211 L1312.6338,424.94211 L1312.6338,427.490451 L1309.19718,427.490451 L1309.19718,424.94211 Z M1326.38028,424.94211 L1329.8169,424.94211 L1329.8169,427.490451 L1326.38028,427.490451 L1326.38028,424.94211 Z M1343.56338,424.94211 L1347,424.94211 L1347,427.490451 L1343.56338,427.490451 L1343.56338,424.94211 Z M1103,437.683815 L1106.43662,437.683815 L1106.43662,440.232156 L1103,440.232156 L1103,437.683815 Z M1120.1831,437.683815 L1123.61972,437.683815 L1123.61972,440.232156 L1120.1831,440.232156 L1120.1831,437.683815 Z M1137.3662,437.683815 L1140.80282,437.683815 L1140.80282,440.232156 L1137.3662,440.232156 L1137.3662,437.683815 Z M1154.5493,437.683815 L1157.98592,437.683815 L1157.98592,440.232156 L1154.5493,440.232156 L1154.5493,437.683815 Z M1171.73239,437.683815 L1175.16901,437.683815 L1175.16901,440.232156 L1171.73239,440.232156 L1171.73239,437.683815 Z M1188.91549,437.683815 L1192.35211,437.683815 L1192.35211,440.232156 L1188.91549,440.232156 L1188.91549,437.683815 Z M1206.09859,437.683815 L1209.53521,437.683815 L1209.53521,440.232156 L1206.09859,440.232156 L1206.09859,437.683815 Z M1223.28169,437.683815 L1226.71831,437.683815 L1226.71831,440.232156 L1223.28169,440.232156 L1223.28169,437.683815 Z M1240.46479,437.683815 L1243.90141,437.683815 L1243.90141,440.232156 L1240.46479,440.232156 L1240.46479,437.683815 Z M1257.64789,437.683815 L1261.08451,437.683815 L1261.08451,440.232156 L1257.64789,440.232156 L1257.64789,437.683815 Z M1274.83099,437.683815 L1278.26761,437.683815 L1278.26761,440.232156 L1274.83099,440.232156 L1274.83099,437.683815 Z M1292.01408,437.683815 L1295.4507,437.683815 L1295.4507,440.232156 L1292.01408,440.232156 L1292.01408,437.683815 Z M1309.19718,437.683815 L1312.6338,437.683815 L1312.6338,440.232156 L1309.19718,440.232156 L1309.19718,437.683815 Z M1326.38028,437.683815 L1329.8169,437.683815 L1329.8169,440.232156 L1326.38028,440.232156 L1326.38028,437.683815 Z M1343.56338,437.683815 L1347,437.683815 L1347,440.232156 L1343.56338,440.232156 L1343.56338,437.683815 Z" id="Combined-Shape-Copy" fill="url(#linearGradient-9)" opacity="0.447521391" transform="translate(1225.000000, 318.219891) scale(-1, -1) translate(-1225.000000, -318.219891) "></path>
                            </g>
                        </g>
                    </g>
                </g>
            </g>
        </g>
    </g>
</svg>