<?xml version="1.0" encoding="UTF-8"?>
<svg width="1440px" height="423px" viewBox="0 0 1440 423" version="1.1" xmlns="http://www.w3.org/2000/svg" xmlns:xlink="http://www.w3.org/1999/xlink">
    <!-- Generator: Sketch 52.5 (67469) - http://www.bohemiancoding.com/sketch -->
    <title>Orange - Bottom</title>
    <desc>Created with Sketch.</desc>
    <defs>
        <rect id="path-1" x="0" y="0" width="1440" height="423"></rect>
        <linearGradient x1="0%" y1="0%" x2="103.797387%" y2="67.7661232%" id="linearGradient-3">
            <stop stop-color="#FFB84C" offset="0%"></stop>
            <stop stop-color="#FFBD59" stop-opacity="0.488507699" offset="100%"></stop>
        </linearGradient>
    </defs>
    <g id="Desktop" stroke="none" stroke-width="1" fill="none" fill-rule="evenodd">
        <g id="AWS" transform="translate(0.000000, -3529.000000)">
            <g id="Group-3" transform="translate(0.000000, 3529.000000)">
                <g id="Group-13-Copy">
                    <g id="Group-14">
                        <g id="Start-a-project_BG">
                            <g id="Orange---Bottom">
                                <mask id="mask-2" fill="white">
                                    <use xlink:href="#path-1"></use>
                                </mask>
                                <use id="Rectangle" fill="#FF9900" fill-rule="nonzero" xlink:href="#path-1"></use>
                                <g id="Group-22" mask="url(#mask-2)">
                                    <g transform="translate(-133.000000, -173.000000)">
                                        <g id="Group-18-Copy" stroke-width="1" fill="none" fill-rule="evenodd" transform="translate(449.000000, 113.000000)" opacity="0.447521391">
                                            <path d="M0,1.27897692e-13 L3.43661972,1.27897692e-13 L3.43661972,3.43661972 L0,3.43661972 L0,1.27897692e-13 Z M17.1830986,1.27897692e-13 L20.6197183,1.27897692e-13 L20.6197183,3.43661972 L17.1830986,3.43661972 L17.1830986,1.27897692e-13 Z M34.3661972,1.27897692e-13 L37.8028169,1.27897692e-13 L37.8028169,3.43661972 L34.3661972,3.43661972 L34.3661972,1.27897692e-13 Z M51.5492958,1.27897692e-13 L54.9859155,1.27897692e-13 L54.9859155,3.43661972 L51.5492958,3.43661972 L51.5492958,1.27897692e-13 Z M68.7323944,1.27897692e-13 L72.1690141,1.27897692e-13 L72.1690141,3.43661972 L68.7323944,3.43661972 L68.7323944,1.27897692e-13 Z M85.915493,1.27897692e-13 L89.3521127,1.27897692e-13 L89.3521127,3.43661972 L85.915493,3.43661972 L85.915493,1.27897692e-13 Z M103.098592,1.27897692e-13 L106.535211,1.27897692e-13 L106.535211,3.43661972 L103.098592,3.43661972 L103.098592,1.27897692e-13 Z M120.28169,1.27897692e-13 L123.71831,1.27897692e-13 L123.71831,3.43661972 L120.28169,3.43661972 L120.28169,1.27897692e-13 Z M137.464789,1.27897692e-13 L140.901408,1.27897692e-13 L140.901408,3.43661972 L137.464789,3.43661972 L137.464789,1.27897692e-13 Z M154.647887,1.27897692e-13 L158.084507,1.27897692e-13 L158.084507,3.43661972 L154.647887,3.43661972 L154.647887,1.27897692e-13 Z M171.830986,1.27897692e-13 L175.267606,1.27897692e-13 L175.267606,3.43661972 L171.830986,3.43661972 L171.830986,1.27897692e-13 Z M189.014085,1.27897692e-13 L192.450704,1.27897692e-13 L192.450704,3.43661972 L189.014085,3.43661972 L189.014085,1.27897692e-13 Z M206.197183,1.27897692e-13 L209.633803,1.27897692e-13 L209.633803,3.43661972 L206.197183,3.43661972 L206.197183,1.27897692e-13 Z M223.380282,1.27897692e-13 L226.816901,1.27897692e-13 L226.816901,3.43661972 L223.380282,3.43661972 L223.380282,1.27897692e-13 Z M240.56338,1.27897692e-13 L244,1.27897692e-13 L244,3.43661972 L240.56338,3.43661972 L240.56338,1.27897692e-13 Z M0,17.1830986 L3.43661972,17.1830986 L3.43661972,20.6197183 L0,20.6197183 L0,17.1830986 Z M17.1830986,17.1830986 L20.6197183,17.1830986 L20.6197183,20.6197183 L17.1830986,20.6197183 L17.1830986,17.1830986 Z M34.3661972,17.1830986 L37.8028169,17.1830986 L37.8028169,20.6197183 L34.3661972,20.6197183 L34.3661972,17.1830986 Z M51.5492958,17.1830986 L54.9859155,17.1830986 L54.9859155,20.6197183 L51.5492958,20.6197183 L51.5492958,17.1830986 Z M68.7323944,17.1830986 L72.1690141,17.1830986 L72.1690141,20.6197183 L68.7323944,20.6197183 L68.7323944,17.1830986 Z M85.915493,17.1830986 L89.3521127,17.1830986 L89.3521127,20.6197183 L85.915493,20.6197183 L85.915493,17.1830986 Z M103.098592,17.1830986 L106.535211,17.1830986 L106.535211,20.6197183 L103.098592,20.6197183 L103.098592,17.1830986 Z M120.28169,17.1830986 L123.71831,17.1830986 L123.71831,20.6197183 L120.28169,20.6197183 L120.28169,17.1830986 Z M137.464789,17.1830986 L140.901408,17.1830986 L140.901408,20.6197183 L137.464789,20.6197183 L137.464789,17.1830986 Z M154.647887,17.1830986 L158.084507,17.1830986 L158.084507,20.6197183 L154.647887,20.6197183 L154.647887,17.1830986 Z M171.830986,17.1830986 L175.267606,17.1830986 L175.267606,20.6197183 L171.830986,20.6197183 L171.830986,17.1830986 Z M189.014085,17.1830986 L192.450704,17.1830986 L192.450704,20.6197183 L189.014085,20.6197183 L189.014085,17.1830986 Z M206.197183,17.1830986 L209.633803,17.1830986 L209.633803,20.6197183 L206.197183,20.6197183 L206.197183,17.1830986 Z M223.380282,17.1830986 L226.816901,17.1830986 L226.816901,20.6197183 L223.380282,20.6197183 L223.380282,17.1830986 Z M240.56338,17.1830986 L244,17.1830986 L244,20.6197183 L240.56338,20.6197183 L240.56338,17.1830986 Z M0,34.3661972 L3.43661972,34.3661972 L3.43661972,37.8028169 L0,37.8028169 L0,34.3661972 Z M17.1830986,34.3661972 L20.6197183,34.3661972 L20.6197183,37.8028169 L17.1830986,37.8028169 L17.1830986,34.3661972 Z M34.3661972,34.3661972 L37.8028169,34.3661972 L37.8028169,37.8028169 L34.3661972,37.8028169 L34.3661972,34.3661972 Z M51.5492958,34.3661972 L54.9859155,34.3661972 L54.9859155,37.8028169 L51.5492958,37.8028169 L51.5492958,34.3661972 Z M68.7323944,34.3661972 L72.1690141,34.3661972 L72.1690141,37.8028169 L68.7323944,37.8028169 L68.7323944,34.3661972 Z M85.915493,34.3661972 L89.3521127,34.3661972 L89.3521127,37.8028169 L85.915493,37.8028169 L85.915493,34.3661972 Z M103.098592,34.3661972 L106.535211,34.3661972 L106.535211,37.8028169 L103.098592,37.8028169 L103.098592,34.3661972 Z M120.28169,34.3661972 L123.71831,34.3661972 L123.71831,37.8028169 L120.28169,37.8028169 L120.28169,34.3661972 Z M137.464789,34.3661972 L140.901408,34.3661972 L140.901408,37.8028169 L137.464789,37.8028169 L137.464789,34.3661972 Z M154.647887,34.3661972 L158.084507,34.3661972 L158.084507,37.8028169 L154.647887,37.8028169 L154.647887,34.3661972 Z M171.830986,34.3661972 L175.267606,34.3661972 L175.267606,37.8028169 L171.830986,37.8028169 L171.830986,34.3661972 Z M189.014085,34.3661972 L192.450704,34.3661972 L192.450704,37.8028169 L189.014085,37.8028169 L189.014085,34.3661972 Z M206.197183,34.3661972 L209.633803,34.3661972 L209.633803,37.8028169 L206.197183,37.8028169 L206.197183,34.3661972 Z M223.380282,34.3661972 L226.816901,34.3661972 L226.816901,37.8028169 L223.380282,37.8028169 L223.380282,34.3661972 Z M240.56338,34.3661972 L244,34.3661972 L244,37.8028169 L240.56338,37.8028169 L240.56338,34.3661972 Z M0,51.5492958 L3.43661972,51.5492958 L3.43661972,54.9859155 L0,54.9859155 L0,51.5492958 Z M17.1830986,51.5492958 L20.6197183,51.5492958 L20.6197183,54.9859155 L17.1830986,54.9859155 L17.1830986,51.5492958 Z M34.3661972,51.5492958 L37.8028169,51.5492958 L37.8028169,54.9859155 L34.3661972,54.9859155 L34.3661972,51.5492958 Z M51.5492958,51.5492958 L54.9859155,51.5492958 L54.9859155,54.9859155 L51.5492958,54.9859155 L51.5492958,51.5492958 Z M68.7323944,51.5492958 L72.1690141,51.5492958 L72.1690141,54.9859155 L68.7323944,54.9859155 L68.7323944,51.5492958 Z M85.915493,51.5492958 L89.3521127,51.5492958 L89.3521127,54.9859155 L85.915493,54.9859155 L85.915493,51.5492958 Z M103.098592,51.5492958 L106.535211,51.5492958 L106.535211,54.9859155 L103.098592,54.9859155 L103.098592,51.5492958 Z M120.28169,51.5492958 L123.71831,51.5492958 L123.71831,54.9859155 L120.28169,54.9859155 L120.28169,51.5492958 Z M137.464789,51.5492958 L140.901408,51.5492958 L140.901408,54.9859155 L137.464789,54.9859155 L137.464789,51.5492958 Z M154.647887,51.5492958 L158.084507,51.5492958 L158.084507,54.9859155 L154.647887,54.9859155 L154.647887,51.5492958 Z M171.830986,51.5492958 L175.267606,51.5492958 L175.267606,54.9859155 L171.830986,54.9859155 L171.830986,51.5492958 Z M189.014085,51.5492958 L192.450704,51.5492958 L192.450704,54.9859155 L189.014085,54.9859155 L189.014085,51.5492958 Z M206.197183,51.5492958 L209.633803,51.5492958 L209.633803,54.9859155 L206.197183,54.9859155 L206.197183,51.5492958 Z M223.380282,51.5492958 L226.816901,51.5492958 L226.816901,54.9859155 L223.380282,54.9859155 L223.380282,51.5492958 Z M240.56338,51.5492958 L244,51.5492958 L244,54.9859155 L240.56338,54.9859155 L240.56338,51.5492958 Z M0,68.7323944 L3.43661972,68.7323944 L3.43661972,72.1690141 L0,72.1690141 L0,68.7323944 Z M17.1830986,68.7323944 L20.6197183,68.7323944 L20.6197183,72.1690141 L17.1830986,72.1690141 L17.1830986,68.7323944 Z M34.3661972,68.7323944 L37.8028169,68.7323944 L37.8028169,72.1690141 L34.3661972,72.1690141 L34.3661972,68.7323944 Z M51.5492958,68.7323944 L54.9859155,68.7323944 L54.9859155,72.1690141 L51.5492958,72.1690141 L51.5492958,68.7323944 Z M68.7323944,68.7323944 L72.1690141,68.7323944 L72.1690141,72.1690141 L68.7323944,72.1690141 L68.7323944,68.7323944 Z M85.915493,68.7323944 L89.3521127,68.7323944 L89.3521127,72.1690141 L85.915493,72.1690141 L85.915493,68.7323944 Z M103.098592,68.7323944 L106.535211,68.7323944 L106.535211,72.1690141 L103.098592,72.1690141 L103.098592,68.7323944 Z M120.28169,68.7323944 L123.71831,68.7323944 L123.71831,72.1690141 L120.28169,72.1690141 L120.28169,68.7323944 Z M137.464789,68.7323944 L140.901408,68.7323944 L140.901408,72.1690141 L137.464789,72.1690141 L137.464789,68.7323944 Z M154.647887,68.7323944 L158.084507,68.7323944 L158.084507,72.1690141 L154.647887,72.1690141 L154.647887,68.7323944 Z M171.830986,68.7323944 L175.267606,68.7323944 L175.267606,72.1690141 L171.830986,72.1690141 L171.830986,68.7323944 Z M189.014085,68.7323944 L192.450704,68.7323944 L192.450704,72.1690141 L189.014085,72.1690141 L189.014085,68.7323944 Z M206.197183,68.7323944 L209.633803,68.7323944 L209.633803,72.1690141 L206.197183,72.1690141 L206.197183,68.7323944 Z M223.380282,68.7323944 L226.816901,68.7323944 L226.816901,72.1690141 L223.380282,72.1690141 L223.380282,68.7323944 Z M240.56338,68.7323944 L244,68.7323944 L244,72.1690141 L240.56338,72.1690141 L240.56338,68.7323944 Z M0,85.915493 L3.43661972,85.915493 L3.43661972,89.3521127 L0,89.3521127 L0,85.915493 Z M17.1830986,85.915493 L20.6197183,85.915493 L20.6197183,89.3521127 L17.1830986,89.3521127 L17.1830986,85.915493 Z M34.3661972,85.915493 L37.8028169,85.915493 L37.8028169,89.3521127 L34.3661972,89.3521127 L34.3661972,85.915493 Z M51.5492958,85.915493 L54.9859155,85.915493 L54.9859155,89.3521127 L51.5492958,89.3521127 L51.5492958,85.915493 Z M68.7323944,85.915493 L72.1690141,85.915493 L72.1690141,89.3521127 L68.7323944,89.3521127 L68.7323944,85.915493 Z M85.915493,85.915493 L89.3521127,85.915493 L89.3521127,89.3521127 L85.915493,89.3521127 L85.915493,85.915493 Z M103.098592,85.915493 L106.535211,85.915493 L106.535211,89.3521127 L103.098592,89.3521127 L103.098592,85.915493 Z M120.28169,85.915493 L123.71831,85.915493 L123.71831,89.3521127 L120.28169,89.3521127 L120.28169,85.915493 Z M137.464789,85.915493 L140.901408,85.915493 L140.901408,89.3521127 L137.464789,89.3521127 L137.464789,85.915493 Z M154.647887,85.915493 L158.084507,85.915493 L158.084507,89.3521127 L154.647887,89.3521127 L154.647887,85.915493 Z M171.830986,85.915493 L175.267606,85.915493 L175.267606,89.3521127 L171.830986,89.3521127 L171.830986,85.915493 Z M189.014085,85.915493 L192.450704,85.915493 L192.450704,89.3521127 L189.014085,89.3521127 L189.014085,85.915493 Z M206.197183,85.915493 L209.633803,85.915493 L209.633803,89.3521127 L206.197183,89.3521127 L206.197183,85.915493 Z M223.380282,85.915493 L226.816901,85.915493 L226.816901,89.3521127 L223.380282,89.3521127 L223.380282,85.915493 Z M240.56338,85.915493 L244,85.915493 L244,89.3521127 L240.56338,89.3521127 L240.56338,85.915493 Z M0,103.098592 L3.43661972,103.098592 L3.43661972,106.535211 L0,106.535211 L0,103.098592 Z M17.1830986,103.098592 L20.6197183,103.098592 L20.6197183,106.535211 L17.1830986,106.535211 L17.1830986,103.098592 Z M34.3661972,103.098592 L37.8028169,103.098592 L37.8028169,106.535211 L34.3661972,106.535211 L34.3661972,103.098592 Z M51.5492958,103.098592 L54.9859155,103.098592 L54.9859155,106.535211 L51.5492958,106.535211 L51.5492958,103.098592 Z M68.7323944,103.098592 L72.1690141,103.098592 L72.1690141,106.535211 L68.7323944,106.535211 L68.7323944,103.098592 Z M85.915493,103.098592 L89.3521127,103.098592 L89.3521127,106.535211 L85.915493,106.535211 L85.915493,103.098592 Z M103.098592,103.098592 L106.535211,103.098592 L106.535211,106.535211 L103.098592,106.535211 L103.098592,103.098592 Z M120.28169,103.098592 L123.71831,103.098592 L123.71831,106.535211 L120.28169,106.535211 L120.28169,103.098592 Z M137.464789,103.098592 L140.901408,103.098592 L140.901408,106.535211 L137.464789,106.535211 L137.464789,103.098592 Z M154.647887,103.098592 L158.084507,103.098592 L158.084507,106.535211 L154.647887,106.535211 L154.647887,103.098592 Z M171.830986,103.098592 L175.267606,103.098592 L175.267606,106.535211 L171.830986,106.535211 L171.830986,103.098592 Z M189.014085,103.098592 L192.450704,103.098592 L192.450704,106.535211 L189.014085,106.535211 L189.014085,103.098592 Z M206.197183,103.098592 L209.633803,103.098592 L209.633803,106.535211 L206.197183,106.535211 L206.197183,103.098592 Z M223.380282,103.098592 L226.816901,103.098592 L226.816901,106.535211 L223.380282,106.535211 L223.380282,103.098592 Z M240.56338,103.098592 L244,103.098592 L244,106.535211 L240.56338,106.535211 L240.56338,103.098592 Z M0,120.28169 L3.43661972,120.28169 L3.43661972,123.71831 L0,123.71831 L0,120.28169 Z M17.1830986,120.28169 L20.6197183,120.28169 L20.6197183,123.71831 L17.1830986,123.71831 L17.1830986,120.28169 Z M34.3661972,120.28169 L37.8028169,120.28169 L37.8028169,123.71831 L34.3661972,123.71831 L34.3661972,120.28169 Z M51.5492958,120.28169 L54.9859155,120.28169 L54.9859155,123.71831 L51.5492958,123.71831 L51.5492958,120.28169 Z M68.7323944,120.28169 L72.1690141,120.28169 L72.1690141,123.71831 L68.7323944,123.71831 L68.7323944,120.28169 Z M85.915493,120.28169 L89.3521127,120.28169 L89.3521127,123.71831 L85.915493,123.71831 L85.915493,120.28169 Z M103.098592,120.28169 L106.535211,120.28169 L106.535211,123.71831 L103.098592,123.71831 L103.098592,120.28169 Z M120.28169,120.28169 L123.71831,120.28169 L123.71831,123.71831 L120.28169,123.71831 L120.28169,120.28169 Z M137.464789,120.28169 L140.901408,120.28169 L140.901408,123.71831 L137.464789,123.71831 L137.464789,120.28169 Z M154.647887,120.28169 L158.084507,120.28169 L158.084507,123.71831 L154.647887,123.71831 L154.647887,120.28169 Z M171.830986,120.28169 L175.267606,120.28169 L175.267606,123.71831 L171.830986,123.71831 L171.830986,120.28169 Z M189.014085,120.28169 L192.450704,120.28169 L192.450704,123.71831 L189.014085,123.71831 L189.014085,120.28169 Z M206.197183,120.28169 L209.633803,120.28169 L209.633803,123.71831 L206.197183,123.71831 L206.197183,120.28169 Z M223.380282,120.28169 L226.816901,120.28169 L226.816901,123.71831 L223.380282,123.71831 L223.380282,120.28169 Z M240.56338,120.28169 L244,120.28169 L244,123.71831 L240.56338,123.71831 L240.56338,120.28169 Z M0,137.464789 L3.43661972,137.464789 L3.43661972,140.901408 L0,140.901408 L0,137.464789 Z M17.1830986,137.464789 L20.6197183,137.464789 L20.6197183,140.901408 L17.1830986,140.901408 L17.1830986,137.464789 Z M34.3661972,137.464789 L37.8028169,137.464789 L37.8028169,140.901408 L34.3661972,140.901408 L34.3661972,137.464789 Z M51.5492958,137.464789 L54.9859155,137.464789 L54.9859155,140.901408 L51.5492958,140.901408 L51.5492958,137.464789 Z M68.7323944,137.464789 L72.1690141,137.464789 L72.1690141,140.901408 L68.7323944,140.901408 L68.7323944,137.464789 Z M85.915493,137.464789 L89.3521127,137.464789 L89.3521127,140.901408 L85.915493,140.901408 L85.915493,137.464789 Z M103.098592,137.464789 L106.535211,137.464789 L106.535211,140.901408 L103.098592,140.901408 L103.098592,137.464789 Z M120.28169,137.464789 L123.71831,137.464789 L123.71831,140.901408 L120.28169,140.901408 L120.28169,137.464789 Z M137.464789,137.464789 L140.901408,137.464789 L140.901408,140.901408 L137.464789,140.901408 L137.464789,137.464789 Z M154.647887,137.464789 L158.084507,137.464789 L158.084507,140.901408 L154.647887,140.901408 L154.647887,137.464789 Z M171.830986,137.464789 L175.267606,137.464789 L175.267606,140.901408 L171.830986,140.901408 L171.830986,137.464789 Z M189.014085,137.464789 L192.450704,137.464789 L192.450704,140.901408 L189.014085,140.901408 L189.014085,137.464789 Z M206.197183,137.464789 L209.633803,137.464789 L209.633803,140.901408 L206.197183,140.901408 L206.197183,137.464789 Z M223.380282,137.464789 L226.816901,137.464789 L226.816901,140.901408 L223.380282,140.901408 L223.380282,137.464789 Z M240.56338,137.464789 L244,137.464789 L244,140.901408 L240.56338,140.901408 L240.56338,137.464789 Z M0,154.647887 L3.43661972,154.647887 L3.43661972,158.084507 L0,158.084507 L0,154.647887 Z M17.1830986,154.647887 L20.6197183,154.647887 L20.6197183,158.084507 L17.1830986,158.084507 L17.1830986,154.647887 Z M34.3661972,154.647887 L37.8028169,154.647887 L37.8028169,158.084507 L34.3661972,158.084507 L34.3661972,154.647887 Z M51.5492958,154.647887 L54.9859155,154.647887 L54.9859155,158.084507 L51.5492958,158.084507 L51.5492958,154.647887 Z M68.7323944,154.647887 L72.1690141,154.647887 L72.1690141,158.084507 L68.7323944,158.084507 L68.7323944,154.647887 Z M85.915493,154.647887 L89.3521127,154.647887 L89.3521127,158.084507 L85.915493,158.084507 L85.915493,154.647887 Z M103.098592,154.647887 L106.535211,154.647887 L106.535211,158.084507 L103.098592,158.084507 L103.098592,154.647887 Z M120.28169,154.647887 L123.71831,154.647887 L123.71831,158.084507 L120.28169,158.084507 L120.28169,154.647887 Z M137.464789,154.647887 L140.901408,154.647887 L140.901408,158.084507 L137.464789,158.084507 L137.464789,154.647887 Z M154.647887,154.647887 L158.084507,154.647887 L158.084507,158.084507 L154.647887,158.084507 L154.647887,154.647887 Z M171.830986,154.647887 L175.267606,154.647887 L175.267606,158.084507 L171.830986,158.084507 L171.830986,154.647887 Z M189.014085,154.647887 L192.450704,154.647887 L192.450704,158.084507 L189.014085,158.084507 L189.014085,154.647887 Z M206.197183,154.647887 L209.633803,154.647887 L209.633803,158.084507 L206.197183,158.084507 L206.197183,154.647887 Z M223.380282,154.647887 L226.816901,154.647887 L226.816901,158.084507 L223.380282,158.084507 L223.380282,154.647887 Z M240.56338,154.647887 L244,154.647887 L244,158.084507 L240.56338,158.084507 L240.56338,154.647887 Z M0,171 L3.43661972,171 L3.43661972,174.43662 L0,174.43662 L0,171 Z M17.1830986,171 L20.6197183,171 L20.6197183,174.43662 L17.1830986,174.43662 L17.1830986,171 Z M34.3661972,171 L37.8028169,171 L37.8028169,174.43662 L34.3661972,174.43662 L34.3661972,171 Z M51.5492958,171 L54.9859155,171 L54.9859155,174.43662 L51.5492958,174.43662 L51.5492958,171 Z M68.7323944,171 L72.1690141,171 L72.1690141,174.43662 L68.7323944,174.43662 L68.7323944,171 Z M85.915493,171 L89.3521127,171 L89.3521127,174.43662 L85.915493,174.43662 L85.915493,171 Z M103.098592,171 L106.535211,171 L106.535211,174.43662 L103.098592,174.43662 L103.098592,171 Z M120.28169,171 L123.71831,171 L123.71831,174.43662 L120.28169,174.43662 L120.28169,171 Z M137.464789,171 L140.901408,171 L140.901408,174.43662 L137.464789,174.43662 L137.464789,171 Z M154.647887,171 L158.084507,171 L158.084507,174.43662 L154.647887,174.43662 L154.647887,171 Z M171.830986,171 L175.267606,171 L175.267606,174.43662 L171.830986,174.43662 L171.830986,171 Z M189.014085,171 L192.450704,171 L192.450704,174.43662 L189.014085,174.43662 L189.014085,171 Z M206.197183,171 L209.633803,171 L209.633803,174.43662 L206.197183,174.43662 L206.197183,171 Z M223.380282,171 L226.816901,171 L226.816901,174.43662 L223.380282,174.43662 L223.380282,171 Z M240.56338,171 L244,171 L244,174.43662 L240.56338,174.43662 L240.56338,171 Z M0,188.183099 L3.43661972,188.183099 L3.43661972,191.619718 L0,191.619718 L0,188.183099 Z M17.1830986,188.183099 L20.6197183,188.183099 L20.6197183,191.619718 L17.1830986,191.619718 L17.1830986,188.183099 Z M34.3661972,188.183099 L37.8028169,188.183099 L37.8028169,191.619718 L34.3661972,191.619718 L34.3661972,188.183099 Z M51.5492958,188.183099 L54.9859155,188.183099 L54.9859155,191.619718 L51.5492958,191.619718 L51.5492958,188.183099 Z M68.7323944,188.183099 L72.1690141,188.183099 L72.1690141,191.619718 L68.7323944,191.619718 L68.7323944,188.183099 Z M85.915493,188.183099 L89.3521127,188.183099 L89.3521127,191.619718 L85.915493,191.619718 L85.915493,188.183099 Z M103.098592,188.183099 L106.535211,188.183099 L106.535211,191.619718 L103.098592,191.619718 L103.098592,188.183099 Z M120.28169,188.183099 L123.71831,188.183099 L123.71831,191.619718 L120.28169,191.619718 L120.28169,188.183099 Z M137.464789,188.183099 L140.901408,188.183099 L140.901408,191.619718 L137.464789,191.619718 L137.464789,188.183099 Z M154.647887,188.183099 L158.084507,188.183099 L158.084507,191.619718 L154.647887,191.619718 L154.647887,188.183099 Z M171.830986,188.183099 L175.267606,188.183099 L175.267606,191.619718 L171.830986,191.619718 L171.830986,188.183099 Z M189.014085,188.183099 L192.450704,188.183099 L192.450704,191.619718 L189.014085,191.619718 L189.014085,188.183099 Z M206.197183,188.183099 L209.633803,188.183099 L209.633803,191.619718 L206.197183,191.619718 L206.197183,188.183099 Z M223.380282,188.183099 L226.816901,188.183099 L226.816901,191.619718 L223.380282,191.619718 L223.380282,188.183099 Z M240.56338,188.183099 L244,188.183099 L244,191.619718 L240.56338,191.619718 L240.56338,188.183099 Z M0,205.366197 L3.43661972,205.366197 L3.43661972,208.802817 L0,208.802817 L0,205.366197 Z M17.1830986,205.366197 L20.6197183,205.366197 L20.6197183,208.802817 L17.1830986,208.802817 L17.1830986,205.366197 Z M34.3661972,205.366197 L37.8028169,205.366197 L37.8028169,208.802817 L34.3661972,208.802817 L34.3661972,205.366197 Z M51.5492958,205.366197 L54.9859155,205.366197 L54.9859155,208.802817 L51.5492958,208.802817 L51.5492958,205.366197 Z M68.7323944,205.366197 L72.1690141,205.366197 L72.1690141,208.802817 L68.7323944,208.802817 L68.7323944,205.366197 Z M85.915493,205.366197 L89.3521127,205.366197 L89.3521127,208.802817 L85.915493,208.802817 L85.915493,205.366197 Z M103.098592,205.366197 L106.535211,205.366197 L106.535211,208.802817 L103.098592,208.802817 L103.098592,205.366197 Z M120.28169,205.366197 L123.71831,205.366197 L123.71831,208.802817 L120.28169,208.802817 L120.28169,205.366197 Z M137.464789,205.366197 L140.901408,205.366197 L140.901408,208.802817 L137.464789,208.802817 L137.464789,205.366197 Z M154.647887,205.366197 L158.084507,205.366197 L158.084507,208.802817 L154.647887,208.802817 L154.647887,205.366197 Z M171.830986,205.366197 L175.267606,205.366197 L175.267606,208.802817 L171.830986,208.802817 L171.830986,205.366197 Z M189.014085,205.366197 L192.450704,205.366197 L192.450704,208.802817 L189.014085,208.802817 L189.014085,205.366197 Z M206.197183,205.366197 L209.633803,205.366197 L209.633803,208.802817 L206.197183,208.802817 L206.197183,205.366197 Z M223.380282,205.366197 L226.816901,205.366197 L226.816901,208.802817 L223.380282,208.802817 L223.380282,205.366197 Z M240.56338,205.366197 L244,205.366197 L244,208.802817 L240.56338,208.802817 L240.56338,205.366197 Z M0,222.549296 L3.43661972,222.549296 L3.43661972,225.985915 L0,225.985915 L0,222.549296 Z M17.1830986,222.549296 L20.6197183,222.549296 L20.6197183,225.985915 L17.1830986,225.985915 L17.1830986,222.549296 Z M34.3661972,222.549296 L37.8028169,222.549296 L37.8028169,225.985915 L34.3661972,225.985915 L34.3661972,222.549296 Z M51.5492958,222.549296 L54.9859155,222.549296 L54.9859155,225.985915 L51.5492958,225.985915 L51.5492958,222.549296 Z M68.7323944,222.549296 L72.1690141,222.549296 L72.1690141,225.985915 L68.7323944,225.985915 L68.7323944,222.549296 Z M85.915493,222.549296 L89.3521127,222.549296 L89.3521127,225.985915 L85.915493,225.985915 L85.915493,222.549296 Z M103.098592,222.549296 L106.535211,222.549296 L106.535211,225.985915 L103.098592,225.985915 L103.098592,222.549296 Z M120.28169,222.549296 L123.71831,222.549296 L123.71831,225.985915 L120.28169,225.985915 L120.28169,222.549296 Z M137.464789,222.549296 L140.901408,222.549296 L140.901408,225.985915 L137.464789,225.985915 L137.464789,222.549296 Z M154.647887,222.549296 L158.084507,222.549296 L158.084507,225.985915 L154.647887,225.985915 L154.647887,222.549296 Z M171.830986,222.549296 L175.267606,222.549296 L175.267606,225.985915 L171.830986,225.985915 L171.830986,222.549296 Z M189.014085,222.549296 L192.450704,222.549296 L192.450704,225.985915 L189.014085,225.985915 L189.014085,222.549296 Z M206.197183,222.549296 L209.633803,222.549296 L209.633803,225.985915 L206.197183,225.985915 L206.197183,222.549296 Z M223.380282,222.549296 L226.816901,222.549296 L226.816901,225.985915 L223.380282,225.985915 L223.380282,222.549296 Z M240.56338,222.549296 L244,222.549296 L244,225.985915 L240.56338,225.985915 L240.56338,222.549296 Z M0,239.732394 L3.43661972,239.732394 L3.43661972,243.169014 L0,243.169014 L0,239.732394 Z M17.1830986,239.732394 L20.6197183,239.732394 L20.6197183,243.169014 L17.1830986,243.169014 L17.1830986,239.732394 Z M34.3661972,239.732394 L37.8028169,239.732394 L37.8028169,243.169014 L34.3661972,243.169014 L34.3661972,239.732394 Z M51.5492958,239.732394 L54.9859155,239.732394 L54.9859155,243.169014 L51.5492958,243.169014 L51.5492958,239.732394 Z M68.7323944,239.732394 L72.1690141,239.732394 L72.1690141,243.169014 L68.7323944,243.169014 L68.7323944,239.732394 Z M85.915493,239.732394 L89.3521127,239.732394 L89.3521127,243.169014 L85.915493,243.169014 L85.915493,239.732394 Z M103.098592,239.732394 L106.535211,239.732394 L106.535211,243.169014 L103.098592,243.169014 L103.098592,239.732394 Z M120.28169,239.732394 L123.71831,239.732394 L123.71831,243.169014 L120.28169,243.169014 L120.28169,239.732394 Z M137.464789,239.732394 L140.901408,239.732394 L140.901408,243.169014 L137.464789,243.169014 L137.464789,239.732394 Z M154.647887,239.732394 L158.084507,239.732394 L158.084507,243.169014 L154.647887,243.169014 L154.647887,239.732394 Z M171.830986,239.732394 L175.267606,239.732394 L175.267606,243.169014 L171.830986,243.169014 L171.830986,239.732394 Z M189.014085,239.732394 L192.450704,239.732394 L192.450704,243.169014 L189.014085,243.169014 L189.014085,239.732394 Z M206.197183,239.732394 L209.633803,239.732394 L209.633803,243.169014 L206.197183,243.169014 L206.197183,239.732394 Z M223.380282,239.732394 L226.816901,239.732394 L226.816901,243.169014 L223.380282,243.169014 L223.380282,239.732394 Z M240.56338,239.732394 L244,239.732394 L244,243.169014 L240.56338,243.169014 L240.56338,239.732394 Z M0,256.915493 L3.43661972,256.915493 L3.43661972,260.352113 L0,260.352113 L0,256.915493 Z M17.1830986,256.915493 L20.6197183,256.915493 L20.6197183,260.352113 L17.1830986,260.352113 L17.1830986,256.915493 Z M34.3661972,256.915493 L37.8028169,256.915493 L37.8028169,260.352113 L34.3661972,260.352113 L34.3661972,256.915493 Z M51.5492958,256.915493 L54.9859155,256.915493 L54.9859155,260.352113 L51.5492958,260.352113 L51.5492958,256.915493 Z M68.7323944,256.915493 L72.1690141,256.915493 L72.1690141,260.352113 L68.7323944,260.352113 L68.7323944,256.915493 Z M85.915493,256.915493 L89.3521127,256.915493 L89.3521127,260.352113 L85.915493,260.352113 L85.915493,256.915493 Z M103.098592,256.915493 L106.535211,256.915493 L106.535211,260.352113 L103.098592,260.352113 L103.098592,256.915493 Z M120.28169,256.915493 L123.71831,256.915493 L123.71831,260.352113 L120.28169,260.352113 L120.28169,256.915493 Z M137.464789,256.915493 L140.901408,256.915493 L140.901408,260.352113 L137.464789,260.352113 L137.464789,256.915493 Z M154.647887,256.915493 L158.084507,256.915493 L158.084507,260.352113 L154.647887,260.352113 L154.647887,256.915493 Z M171.830986,256.915493 L175.267606,256.915493 L175.267606,260.352113 L171.830986,260.352113 L171.830986,256.915493 Z M189.014085,256.915493 L192.450704,256.915493 L192.450704,260.352113 L189.014085,260.352113 L189.014085,256.915493 Z M206.197183,256.915493 L209.633803,256.915493 L209.633803,260.352113 L206.197183,260.352113 L206.197183,256.915493 Z M223.380282,256.915493 L226.816901,256.915493 L226.816901,260.352113 L223.380282,260.352113 L223.380282,256.915493 Z M240.56338,256.915493 L244,256.915493 L244,260.352113 L240.56338,260.352113 L240.56338,256.915493 Z M0,274.098592 L3.43661972,274.098592 L3.43661972,277.535211 L0,277.535211 L0,274.098592 Z M17.1830986,274.098592 L20.6197183,274.098592 L20.6197183,277.535211 L17.1830986,277.535211 L17.1830986,274.098592 Z M34.3661972,274.098592 L37.8028169,274.098592 L37.8028169,277.535211 L34.3661972,277.535211 L34.3661972,274.098592 Z M51.5492958,274.098592 L54.9859155,274.098592 L54.9859155,277.535211 L51.5492958,277.535211 L51.5492958,274.098592 Z M68.7323944,274.098592 L72.1690141,274.098592 L72.1690141,277.535211 L68.7323944,277.535211 L68.7323944,274.098592 Z M85.915493,274.098592 L89.3521127,274.098592 L89.3521127,277.535211 L85.915493,277.535211 L85.915493,274.098592 Z M103.098592,274.098592 L106.535211,274.098592 L106.535211,277.535211 L103.098592,277.535211 L103.098592,274.098592 Z M120.28169,274.098592 L123.71831,274.098592 L123.71831,277.535211 L120.28169,277.535211 L120.28169,274.098592 Z M137.464789,274.098592 L140.901408,274.098592 L140.901408,277.535211 L137.464789,277.535211 L137.464789,274.098592 Z M154.647887,274.098592 L158.084507,274.098592 L158.084507,277.535211 L154.647887,277.535211 L154.647887,274.098592 Z M171.830986,274.098592 L175.267606,274.098592 L175.267606,277.535211 L171.830986,277.535211 L171.830986,274.098592 Z M189.014085,274.098592 L192.450704,274.098592 L192.450704,277.535211 L189.014085,277.535211 L189.014085,274.098592 Z M206.197183,274.098592 L209.633803,274.098592 L209.633803,277.535211 L206.197183,277.535211 L206.197183,274.098592 Z M223.380282,274.098592 L226.816901,274.098592 L226.816901,277.535211 L223.380282,277.535211 L223.380282,274.098592 Z M240.56338,274.098592 L244,274.098592 L244,277.535211 L240.56338,277.535211 L240.56338,274.098592 Z M0,291.28169 L3.43661972,291.28169 L3.43661972,294.71831 L0,294.71831 L0,291.28169 Z M17.1830986,291.28169 L20.6197183,291.28169 L20.6197183,294.71831 L17.1830986,294.71831 L17.1830986,291.28169 Z M34.3661972,291.28169 L37.8028169,291.28169 L37.8028169,294.71831 L34.3661972,294.71831 L34.3661972,291.28169 Z M51.5492958,291.28169 L54.9859155,291.28169 L54.9859155,294.71831 L51.5492958,294.71831 L51.5492958,291.28169 Z M68.7323944,291.28169 L72.1690141,291.28169 L72.1690141,294.71831 L68.7323944,294.71831 L68.7323944,291.28169 Z M85.915493,291.28169 L89.3521127,291.28169 L89.3521127,294.71831 L85.915493,294.71831 L85.915493,291.28169 Z M103.098592,291.28169 L106.535211,291.28169 L106.535211,294.71831 L103.098592,294.71831 L103.098592,291.28169 Z M120.28169,291.28169 L123.71831,291.28169 L123.71831,294.71831 L120.28169,294.71831 L120.28169,291.28169 Z M137.464789,291.28169 L140.901408,291.28169 L140.901408,294.71831 L137.464789,294.71831 L137.464789,291.28169 Z M154.647887,291.28169 L158.084507,291.28169 L158.084507,294.71831 L154.647887,294.71831 L154.647887,291.28169 Z M171.830986,291.28169 L175.267606,291.28169 L175.267606,294.71831 L171.830986,294.71831 L171.830986,291.28169 Z M189.014085,291.28169 L192.450704,291.28169 L192.450704,294.71831 L189.014085,294.71831 L189.014085,291.28169 Z M206.197183,291.28169 L209.633803,291.28169 L209.633803,294.71831 L206.197183,294.71831 L206.197183,291.28169 Z M223.380282,291.28169 L226.816901,291.28169 L226.816901,294.71831 L223.380282,294.71831 L223.380282,291.28169 Z M240.56338,291.28169 L244,291.28169 L244,294.71831 L240.56338,294.71831 L240.56338,291.28169 Z M0,308.464789 L3.43661972,308.464789 L3.43661972,311.901408 L0,311.901408 L0,308.464789 Z M17.1830986,308.464789 L20.6197183,308.464789 L20.6197183,311.901408 L17.1830986,311.901408 L17.1830986,308.464789 Z M34.3661972,308.464789 L37.8028169,308.464789 L37.8028169,311.901408 L34.3661972,311.901408 L34.3661972,308.464789 Z M51.5492958,308.464789 L54.9859155,308.464789 L54.9859155,311.901408 L51.5492958,311.901408 L51.5492958,308.464789 Z M68.7323944,308.464789 L72.1690141,308.464789 L72.1690141,311.901408 L68.7323944,311.901408 L68.7323944,308.464789 Z M85.915493,308.464789 L89.3521127,308.464789 L89.3521127,311.901408 L85.915493,311.901408 L85.915493,308.464789 Z M103.098592,308.464789 L106.535211,308.464789 L106.535211,311.901408 L103.098592,311.901408 L103.098592,308.464789 Z M120.28169,308.464789 L123.71831,308.464789 L123.71831,311.901408 L120.28169,311.901408 L120.28169,308.464789 Z M137.464789,308.464789 L140.901408,308.464789 L140.901408,311.901408 L137.464789,311.901408 L137.464789,308.464789 Z M154.647887,308.464789 L158.084507,308.464789 L158.084507,311.901408 L154.647887,311.901408 L154.647887,308.464789 Z M171.830986,308.464789 L175.267606,308.464789 L175.267606,311.901408 L171.830986,311.901408 L171.830986,308.464789 Z M189.014085,308.464789 L192.450704,308.464789 L192.450704,311.901408 L189.014085,311.901408 L189.014085,308.464789 Z M206.197183,308.464789 L209.633803,308.464789 L209.633803,311.901408 L206.197183,311.901408 L206.197183,308.464789 Z M223.380282,308.464789 L226.816901,308.464789 L226.816901,311.901408 L223.380282,311.901408 L223.380282,308.464789 Z M240.56338,308.464789 L244,308.464789 L244,311.901408 L240.56338,311.901408 L240.56338,308.464789 Z M0,325.647887 L3.43661972,325.647887 L3.43661972,329.084507 L0,329.084507 L0,325.647887 Z M17.1830986,325.647887 L20.6197183,325.647887 L20.6197183,329.084507 L17.1830986,329.084507 L17.1830986,325.647887 Z M34.3661972,325.647887 L37.8028169,325.647887 L37.8028169,329.084507 L34.3661972,329.084507 L34.3661972,325.647887 Z M51.5492958,325.647887 L54.9859155,325.647887 L54.9859155,329.084507 L51.5492958,329.084507 L51.5492958,325.647887 Z M68.7323944,325.647887 L72.1690141,325.647887 L72.1690141,329.084507 L68.7323944,329.084507 L68.7323944,325.647887 Z M85.915493,325.647887 L89.3521127,325.647887 L89.3521127,329.084507 L85.915493,329.084507 L85.915493,325.647887 Z M103.098592,325.647887 L106.535211,325.647887 L106.535211,329.084507 L103.098592,329.084507 L103.098592,325.647887 Z M120.28169,325.647887 L123.71831,325.647887 L123.71831,329.084507 L120.28169,329.084507 L120.28169,325.647887 Z M137.464789,325.647887 L140.901408,325.647887 L140.901408,329.084507 L137.464789,329.084507 L137.464789,325.647887 Z M154.647887,325.647887 L158.084507,325.647887 L158.084507,329.084507 L154.647887,329.084507 L154.647887,325.647887 Z M171.830986,325.647887 L175.267606,325.647887 L175.267606,329.084507 L171.830986,329.084507 L171.830986,325.647887 Z M189.014085,325.647887 L192.450704,325.647887 L192.450704,329.084507 L189.014085,329.084507 L189.014085,325.647887 Z M206.197183,325.647887 L209.633803,325.647887 L209.633803,329.084507 L206.197183,329.084507 L206.197183,325.647887 Z M223.380282,325.647887 L226.816901,325.647887 L226.816901,329.084507 L223.380282,329.084507 L223.380282,325.647887 Z M240.56338,325.647887 L244,325.647887 L244,329.084507 L240.56338,329.084507 L240.56338,325.647887 Z" id="Combined-Shape" fill="url(#linearGradient-3)" fill-rule="nonzero"></path>
                                            <path d="M783,313 L786.43662,313 L786.43662,316.43662 L783,316.43662 L783,313 Z M800.183099,313 L803.619718,313 L803.619718,316.43662 L800.183099,316.43662 L800.183099,313 Z M817.366197,313 L820.802817,313 L820.802817,316.43662 L817.366197,316.43662 L817.366197,313 Z M834.549296,313 L837.985915,313 L837.985915,316.43662 L834.549296,316.43662 L834.549296,313 Z M851.732394,313 L855.169014,313 L855.169014,316.43662 L851.732394,316.43662 L851.732394,313 Z M868.915493,313 L872.352113,313 L872.352113,316.43662 L868.915493,316.43662 L868.915493,313 Z M886.098592,313 L889.535211,313 L889.535211,316.43662 L886.098592,316.43662 L886.098592,313 Z M903.28169,313 L906.71831,313 L906.71831,316.43662 L903.28169,316.43662 L903.28169,313 Z M920.464789,313 L923.901408,313 L923.901408,316.43662 L920.464789,316.43662 L920.464789,313 Z M937.647887,313 L941.084507,313 L941.084507,316.43662 L937.647887,316.43662 L937.647887,313 Z M954.830986,313 L958.267606,313 L958.267606,316.43662 L954.830986,316.43662 L954.830986,313 Z M972.014085,313 L975.450704,313 L975.450704,316.43662 L972.014085,316.43662 L972.014085,313 Z M989.197183,313 L992.633803,313 L992.633803,316.43662 L989.197183,316.43662 L989.197183,313 Z M1006.38028,313 L1009.8169,313 L1009.8169,316.43662 L1006.38028,316.43662 L1006.38028,313 Z M1023.56338,313 L1027,313 L1027,316.43662 L1023.56338,316.43662 L1023.56338,313 Z M783,330.183099 L786.43662,330.183099 L786.43662,333.619718 L783,333.619718 L783,330.183099 Z M800.183099,330.183099 L803.619718,330.183099 L803.619718,333.619718 L800.183099,333.619718 L800.183099,330.183099 Z M817.366197,330.183099 L820.802817,330.183099 L820.802817,333.619718 L817.366197,333.619718 L817.366197,330.183099 Z M834.549296,330.183099 L837.985915,330.183099 L837.985915,333.619718 L834.549296,333.619718 L834.549296,330.183099 Z M851.732394,330.183099 L855.169014,330.183099 L855.169014,333.619718 L851.732394,333.619718 L851.732394,330.183099 Z M868.915493,330.183099 L872.352113,330.183099 L872.352113,333.619718 L868.915493,333.619718 L868.915493,330.183099 Z M886.098592,330.183099 L889.535211,330.183099 L889.535211,333.619718 L886.098592,333.619718 L886.098592,330.183099 Z M903.28169,330.183099 L906.71831,330.183099 L906.71831,333.619718 L903.28169,333.619718 L903.28169,330.183099 Z M920.464789,330.183099 L923.901408,330.183099 L923.901408,333.619718 L920.464789,333.619718 L920.464789,330.183099 Z M937.647887,330.183099 L941.084507,330.183099 L941.084507,333.619718 L937.647887,333.619718 L937.647887,330.183099 Z M954.830986,330.183099 L958.267606,330.183099 L958.267606,333.619718 L954.830986,333.619718 L954.830986,330.183099 Z M972.014085,330.183099 L975.450704,330.183099 L975.450704,333.619718 L972.014085,333.619718 L972.014085,330.183099 Z M989.197183,330.183099 L992.633803,330.183099 L992.633803,333.619718 L989.197183,333.619718 L989.197183,330.183099 Z M1006.38028,330.183099 L1009.8169,330.183099 L1009.8169,333.619718 L1006.38028,333.619718 L1006.38028,330.183099 Z M1023.56338,330.183099 L1027,330.183099 L1027,333.619718 L1023.56338,333.619718 L1023.56338,330.183099 Z M783,347.366197 L786.43662,347.366197 L786.43662,350.802817 L783,350.802817 L783,347.366197 Z M800.183099,347.366197 L803.619718,347.366197 L803.619718,350.802817 L800.183099,350.802817 L800.183099,347.366197 Z M817.366197,347.366197 L820.802817,347.366197 L820.802817,350.802817 L817.366197,350.802817 L817.366197,347.366197 Z M834.549296,347.366197 L837.985915,347.366197 L837.985915,350.802817 L834.549296,350.802817 L834.549296,347.366197 Z M851.732394,347.366197 L855.169014,347.366197 L855.169014,350.802817 L851.732394,350.802817 L851.732394,347.366197 Z M868.915493,347.366197 L872.352113,347.366197 L872.352113,350.802817 L868.915493,350.802817 L868.915493,347.366197 Z M886.098592,347.366197 L889.535211,347.366197 L889.535211,350.802817 L886.098592,350.802817 L886.098592,347.366197 Z M903.28169,347.366197 L906.71831,347.366197 L906.71831,350.802817 L903.28169,350.802817 L903.28169,347.366197 Z M920.464789,347.366197 L923.901408,347.366197 L923.901408,350.802817 L920.464789,350.802817 L920.464789,347.366197 Z M937.647887,347.366197 L941.084507,347.366197 L941.084507,350.802817 L937.647887,350.802817 L937.647887,347.366197 Z M954.830986,347.366197 L958.267606,347.366197 L958.267606,350.802817 L954.830986,350.802817 L954.830986,347.366197 Z M972.014085,347.366197 L975.450704,347.366197 L975.450704,350.802817 L972.014085,350.802817 L972.014085,347.366197 Z M989.197183,347.366197 L992.633803,347.366197 L992.633803,350.802817 L989.197183,350.802817 L989.197183,347.366197 Z M1006.38028,347.366197 L1009.8169,347.366197 L1009.8169,350.802817 L1006.38028,350.802817 L1006.38028,347.366197 Z M1023.56338,347.366197 L1027,347.366197 L1027,350.802817 L1023.56338,350.802817 L1023.56338,347.366197 Z M783,364.549296 L786.43662,364.549296 L786.43662,367.985915 L783,367.985915 L783,364.549296 Z M800.183099,364.549296 L803.619718,364.549296 L803.619718,367.985915 L800.183099,367.985915 L800.183099,364.549296 Z M817.366197,364.549296 L820.802817,364.549296 L820.802817,367.985915 L817.366197,367.985915 L817.366197,364.549296 Z M834.549296,364.549296 L837.985915,364.549296 L837.985915,367.985915 L834.549296,367.985915 L834.549296,364.549296 Z M851.732394,364.549296 L855.169014,364.549296 L855.169014,367.985915 L851.732394,367.985915 L851.732394,364.549296 Z M868.915493,364.549296 L872.352113,364.549296 L872.352113,367.985915 L868.915493,367.985915 L868.915493,364.549296 Z M886.098592,364.549296 L889.535211,364.549296 L889.535211,367.985915 L886.098592,367.985915 L886.098592,364.549296 Z M903.28169,364.549296 L906.71831,364.549296 L906.71831,367.985915 L903.28169,367.985915 L903.28169,364.549296 Z M920.464789,364.549296 L923.901408,364.549296 L923.901408,367.985915 L920.464789,367.985915 L920.464789,364.549296 Z M937.647887,364.549296 L941.084507,364.549296 L941.084507,367.985915 L937.647887,367.985915 L937.647887,364.549296 Z M954.830986,364.549296 L958.267606,364.549296 L958.267606,367.985915 L954.830986,367.985915 L954.830986,364.549296 Z M972.014085,364.549296 L975.450704,364.549296 L975.450704,367.985915 L972.014085,367.985915 L972.014085,364.549296 Z M989.197183,364.549296 L992.633803,364.549296 L992.633803,367.985915 L989.197183,367.985915 L989.197183,364.549296 Z M1006.38028,364.549296 L1009.8169,364.549296 L1009.8169,367.985915 L1006.38028,367.985915 L1006.38028,364.549296 Z M1023.56338,364.549296 L1027,364.549296 L1027,367.985915 L1023.56338,367.985915 L1023.56338,364.549296 Z M783,381.732394 L786.43662,381.732394 L786.43662,385.169014 L783,385.169014 L783,381.732394 Z M800.183099,381.732394 L803.619718,381.732394 L803.619718,385.169014 L800.183099,385.169014 L800.183099,381.732394 Z M817.366197,381.732394 L820.802817,381.732394 L820.802817,385.169014 L817.366197,385.169014 L817.366197,381.732394 Z M834.549296,381.732394 L837.985915,381.732394 L837.985915,385.169014 L834.549296,385.169014 L834.549296,381.732394 Z M851.732394,381.732394 L855.169014,381.732394 L855.169014,385.169014 L851.732394,385.169014 L851.732394,381.732394 Z M868.915493,381.732394 L872.352113,381.732394 L872.352113,385.169014 L868.915493,385.169014 L868.915493,381.732394 Z M886.098592,381.732394 L889.535211,381.732394 L889.535211,385.169014 L886.098592,385.169014 L886.098592,381.732394 Z M903.28169,381.732394 L906.71831,381.732394 L906.71831,385.169014 L903.28169,385.169014 L903.28169,381.732394 Z M920.464789,381.732394 L923.901408,381.732394 L923.901408,385.169014 L920.464789,385.169014 L920.464789,381.732394 Z M937.647887,381.732394 L941.084507,381.732394 L941.084507,385.169014 L937.647887,385.169014 L937.647887,381.732394 Z M954.830986,381.732394 L958.267606,381.732394 L958.267606,385.169014 L954.830986,385.169014 L954.830986,381.732394 Z M972.014085,381.732394 L975.450704,381.732394 L975.450704,385.169014 L972.014085,385.169014 L972.014085,381.732394 Z M989.197183,381.732394 L992.633803,381.732394 L992.633803,385.169014 L989.197183,385.169014 L989.197183,381.732394 Z M1006.38028,381.732394 L1009.8169,381.732394 L1009.8169,385.169014 L1006.38028,385.169014 L1006.38028,381.732394 Z M1023.56338,381.732394 L1027,381.732394 L1027,385.169014 L1023.56338,385.169014 L1023.56338,381.732394 Z M783,398.915493 L786.43662,398.915493 L786.43662,402.352113 L783,402.352113 L783,398.915493 Z M800.183099,398.915493 L803.619718,398.915493 L803.619718,402.352113 L800.183099,402.352113 L800.183099,398.915493 Z M817.366197,398.915493 L820.802817,398.915493 L820.802817,402.352113 L817.366197,402.352113 L817.366197,398.915493 Z M834.549296,398.915493 L837.985915,398.915493 L837.985915,402.352113 L834.549296,402.352113 L834.549296,398.915493 Z M851.732394,398.915493 L855.169014,398.915493 L855.169014,402.352113 L851.732394,402.352113 L851.732394,398.915493 Z M868.915493,398.915493 L872.352113,398.915493 L872.352113,402.352113 L868.915493,402.352113 L868.915493,398.915493 Z M886.098592,398.915493 L889.535211,398.915493 L889.535211,402.352113 L886.098592,402.352113 L886.098592,398.915493 Z M903.28169,398.915493 L906.71831,398.915493 L906.71831,402.352113 L903.28169,402.352113 L903.28169,398.915493 Z M920.464789,398.915493 L923.901408,398.915493 L923.901408,402.352113 L920.464789,402.352113 L920.464789,398.915493 Z M937.647887,398.915493 L941.084507,398.915493 L941.084507,402.352113 L937.647887,402.352113 L937.647887,398.915493 Z M954.830986,398.915493 L958.267606,398.915493 L958.267606,402.352113 L954.830986,402.352113 L954.830986,398.915493 Z M972.014085,398.915493 L975.450704,398.915493 L975.450704,402.352113 L972.014085,402.352113 L972.014085,398.915493 Z M989.197183,398.915493 L992.633803,398.915493 L992.633803,402.352113 L989.197183,402.352113 L989.197183,398.915493 Z M1006.38028,398.915493 L1009.8169,398.915493 L1009.8169,402.352113 L1006.38028,402.352113 L1006.38028,398.915493 Z M1023.56338,398.915493 L1027,398.915493 L1027,402.352113 L1023.56338,402.352113 L1023.56338,398.915493 Z M783,416.098592 L786.43662,416.098592 L786.43662,419.535211 L783,419.535211 L783,416.098592 Z M800.183099,416.098592 L803.619718,416.098592 L803.619718,419.535211 L800.183099,419.535211 L800.183099,416.098592 Z M817.366197,416.098592 L820.802817,416.098592 L820.802817,419.535211 L817.366197,419.535211 L817.366197,416.098592 Z M834.549296,416.098592 L837.985915,416.098592 L837.985915,419.535211 L834.549296,419.535211 L834.549296,416.098592 Z M851.732394,416.098592 L855.169014,416.098592 L855.169014,419.535211 L851.732394,419.535211 L851.732394,416.098592 Z M868.915493,416.098592 L872.352113,416.098592 L872.352113,419.535211 L868.915493,419.535211 L868.915493,416.098592 Z M886.098592,416.098592 L889.535211,416.098592 L889.535211,419.535211 L886.098592,419.535211 L886.098592,416.098592 Z M903.28169,416.098592 L906.71831,416.098592 L906.71831,419.535211 L903.28169,419.535211 L903.28169,416.098592 Z M920.464789,416.098592 L923.901408,416.098592 L923.901408,419.535211 L920.464789,419.535211 L920.464789,416.098592 Z M937.647887,416.098592 L941.084507,416.098592 L941.084507,419.535211 L937.647887,419.535211 L937.647887,416.098592 Z M954.830986,416.098592 L958.267606,416.098592 L958.267606,419.535211 L954.830986,419.535211 L954.830986,416.098592 Z M972.014085,416.098592 L975.450704,416.098592 L975.450704,419.535211 L972.014085,419.535211 L972.014085,416.098592 Z M989.197183,416.098592 L992.633803,416.098592 L992.633803,419.535211 L989.197183,419.535211 L989.197183,416.098592 Z M1006.38028,416.098592 L1009.8169,416.098592 L1009.8169,419.535211 L1006.38028,419.535211 L1006.38028,416.098592 Z M1023.56338,416.098592 L1027,416.098592 L1027,419.535211 L1023.56338,419.535211 L1023.56338,416.098592 Z M783,433.28169 L786.43662,433.28169 L786.43662,436.71831 L783,436.71831 L783,433.28169 Z M800.183099,433.28169 L803.619718,433.28169 L803.619718,436.71831 L800.183099,436.71831 L800.183099,433.28169 Z M817.366197,433.28169 L820.802817,433.28169 L820.802817,436.71831 L817.366197,436.71831 L817.366197,433.28169 Z M834.549296,433.28169 L837.985915,433.28169 L837.985915,436.71831 L834.549296,436.71831 L834.549296,433.28169 Z M851.732394,433.28169 L855.169014,433.28169 L855.169014,436.71831 L851.732394,436.71831 L851.732394,433.28169 Z M868.915493,433.28169 L872.352113,433.28169 L872.352113,436.71831 L868.915493,436.71831 L868.915493,433.28169 Z M886.098592,433.28169 L889.535211,433.28169 L889.535211,436.71831 L886.098592,436.71831 L886.098592,433.28169 Z M903.28169,433.28169 L906.71831,433.28169 L906.71831,436.71831 L903.28169,436.71831 L903.28169,433.28169 Z M920.464789,433.28169 L923.901408,433.28169 L923.901408,436.71831 L920.464789,436.71831 L920.464789,433.28169 Z M937.647887,433.28169 L941.084507,433.28169 L941.084507,436.71831 L937.647887,436.71831 L937.647887,433.28169 Z M954.830986,433.28169 L958.267606,433.28169 L958.267606,436.71831 L954.830986,436.71831 L954.830986,433.28169 Z M972.014085,433.28169 L975.450704,433.28169 L975.450704,436.71831 L972.014085,436.71831 L972.014085,433.28169 Z M989.197183,433.28169 L992.633803,433.28169 L992.633803,436.71831 L989.197183,436.71831 L989.197183,433.28169 Z M1006.38028,433.28169 L1009.8169,433.28169 L1009.8169,436.71831 L1006.38028,436.71831 L1006.38028,433.28169 Z M1023.56338,433.28169 L1027,433.28169 L1027,436.71831 L1023.56338,436.71831 L1023.56338,433.28169 Z M783,450.464789 L786.43662,450.464789 L786.43662,453.901408 L783,453.901408 L783,450.464789 Z M800.183099,450.464789 L803.619718,450.464789 L803.619718,453.901408 L800.183099,453.901408 L800.183099,450.464789 Z M817.366197,450.464789 L820.802817,450.464789 L820.802817,453.901408 L817.366197,453.901408 L817.366197,450.464789 Z M834.549296,450.464789 L837.985915,450.464789 L837.985915,453.901408 L834.549296,453.901408 L834.549296,450.464789 Z M851.732394,450.464789 L855.169014,450.464789 L855.169014,453.901408 L851.732394,453.901408 L851.732394,450.464789 Z M868.915493,450.464789 L872.352113,450.464789 L872.352113,453.901408 L868.915493,453.901408 L868.915493,450.464789 Z M886.098592,450.464789 L889.535211,450.464789 L889.535211,453.901408 L886.098592,453.901408 L886.098592,450.464789 Z M903.28169,450.464789 L906.71831,450.464789 L906.71831,453.901408 L903.28169,453.901408 L903.28169,450.464789 Z M920.464789,450.464789 L923.901408,450.464789 L923.901408,453.901408 L920.464789,453.901408 L920.464789,450.464789 Z M937.647887,450.464789 L941.084507,450.464789 L941.084507,453.901408 L937.647887,453.901408 L937.647887,450.464789 Z M954.830986,450.464789 L958.267606,450.464789 L958.267606,453.901408 L954.830986,453.901408 L954.830986,450.464789 Z M972.014085,450.464789 L975.450704,450.464789 L975.450704,453.901408 L972.014085,453.901408 L972.014085,450.464789 Z M989.197183,450.464789 L992.633803,450.464789 L992.633803,453.901408 L989.197183,453.901408 L989.197183,450.464789 Z M1006.38028,450.464789 L1009.8169,450.464789 L1009.8169,453.901408 L1006.38028,453.901408 L1006.38028,450.464789 Z M1023.56338,450.464789 L1027,450.464789 L1027,453.901408 L1023.56338,453.901408 L1023.56338,450.464789 Z M783,467.647887 L786.43662,467.647887 L786.43662,471.084507 L783,471.084507 L783,467.647887 Z M800.183099,467.647887 L803.619718,467.647887 L803.619718,471.084507 L800.183099,471.084507 L800.183099,467.647887 Z M817.366197,467.647887 L820.802817,467.647887 L820.802817,471.084507 L817.366197,471.084507 L817.366197,467.647887 Z M834.549296,467.647887 L837.985915,467.647887 L837.985915,471.084507 L834.549296,471.084507 L834.549296,467.647887 Z M851.732394,467.647887 L855.169014,467.647887 L855.169014,471.084507 L851.732394,471.084507 L851.732394,467.647887 Z M868.915493,467.647887 L872.352113,467.647887 L872.352113,471.084507 L868.915493,471.084507 L868.915493,467.647887 Z M886.098592,467.647887 L889.535211,467.647887 L889.535211,471.084507 L886.098592,471.084507 L886.098592,467.647887 Z M903.28169,467.647887 L906.71831,467.647887 L906.71831,471.084507 L903.28169,471.084507 L903.28169,467.647887 Z M920.464789,467.647887 L923.901408,467.647887 L923.901408,471.084507 L920.464789,471.084507 L920.464789,467.647887 Z M937.647887,467.647887 L941.084507,467.647887 L941.084507,471.084507 L937.647887,471.084507 L937.647887,467.647887 Z M954.830986,467.647887 L958.267606,467.647887 L958.267606,471.084507 L954.830986,471.084507 L954.830986,467.647887 Z M972.014085,467.647887 L975.450704,467.647887 L975.450704,471.084507 L972.014085,471.084507 L972.014085,467.647887 Z M989.197183,467.647887 L992.633803,467.647887 L992.633803,471.084507 L989.197183,471.084507 L989.197183,467.647887 Z M1006.38028,467.647887 L1009.8169,467.647887 L1009.8169,471.084507 L1006.38028,471.084507 L1006.38028,467.647887 Z M1023.56338,467.647887 L1027,467.647887 L1027,471.084507 L1023.56338,471.084507 L1023.56338,467.647887 Z M783,484 L786.43662,484 L786.43662,487.43662 L783,487.43662 L783,484 Z M800.183099,484 L803.619718,484 L803.619718,487.43662 L800.183099,487.43662 L800.183099,484 Z M817.366197,484 L820.802817,484 L820.802817,487.43662 L817.366197,487.43662 L817.366197,484 Z M834.549296,484 L837.985915,484 L837.985915,487.43662 L834.549296,487.43662 L834.549296,484 Z M851.732394,484 L855.169014,484 L855.169014,487.43662 L851.732394,487.43662 L851.732394,484 Z M868.915493,484 L872.352113,484 L872.352113,487.43662 L868.915493,487.43662 L868.915493,484 Z M886.098592,484 L889.535211,484 L889.535211,487.43662 L886.098592,487.43662 L886.098592,484 Z M903.28169,484 L906.71831,484 L906.71831,487.43662 L903.28169,487.43662 L903.28169,484 Z M920.464789,484 L923.901408,484 L923.901408,487.43662 L920.464789,487.43662 L920.464789,484 Z M937.647887,484 L941.084507,484 L941.084507,487.43662 L937.647887,487.43662 L937.647887,484 Z M954.830986,484 L958.267606,484 L958.267606,487.43662 L954.830986,487.43662 L954.830986,484 Z M972.014085,484 L975.450704,484 L975.450704,487.43662 L972.014085,487.43662 L972.014085,484 Z M989.197183,484 L992.633803,484 L992.633803,487.43662 L989.197183,487.43662 L989.197183,484 Z M1006.38028,484 L1009.8169,484 L1009.8169,487.43662 L1006.38028,487.43662 L1006.38028,484 Z M1023.56338,484 L1027,484 L1027,487.43662 L1023.56338,487.43662 L1023.56338,484 Z M783,501.183099 L786.43662,501.183099 L786.43662,504.619718 L783,504.619718 L783,501.183099 Z M800.183099,501.183099 L803.619718,501.183099 L803.619718,504.619718 L800.183099,504.619718 L800.183099,501.183099 Z M817.366197,501.183099 L820.802817,501.183099 L820.802817,504.619718 L817.366197,504.619718 L817.366197,501.183099 Z M834.549296,501.183099 L837.985915,501.183099 L837.985915,504.619718 L834.549296,504.619718 L834.549296,501.183099 Z M851.732394,501.183099 L855.169014,501.183099 L855.169014,504.619718 L851.732394,504.619718 L851.732394,501.183099 Z M868.915493,501.183099 L872.352113,501.183099 L872.352113,504.619718 L868.915493,504.619718 L868.915493,501.183099 Z M886.098592,501.183099 L889.535211,501.183099 L889.535211,504.619718 L886.098592,504.619718 L886.098592,501.183099 Z M903.28169,501.183099 L906.71831,501.183099 L906.71831,504.619718 L903.28169,504.619718 L903.28169,501.183099 Z M920.464789,501.183099 L923.901408,501.183099 L923.901408,504.619718 L920.464789,504.619718 L920.464789,501.183099 Z M937.647887,501.183099 L941.084507,501.183099 L941.084507,504.619718 L937.647887,504.619718 L937.647887,501.183099 Z M954.830986,501.183099 L958.267606,501.183099 L958.267606,504.619718 L954.830986,504.619718 L954.830986,501.183099 Z M972.014085,501.183099 L975.450704,501.183099 L975.450704,504.619718 L972.014085,504.619718 L972.014085,501.183099 Z M989.197183,501.183099 L992.633803,501.183099 L992.633803,504.619718 L989.197183,504.619718 L989.197183,501.183099 Z M1006.38028,501.183099 L1009.8169,501.183099 L1009.8169,504.619718 L1006.38028,504.619718 L1006.38028,501.183099 Z M1023.56338,501.183099 L1027,501.183099 L1027,504.619718 L1023.56338,504.619718 L1023.56338,501.183099 Z M783,518.366197 L786.43662,518.366197 L786.43662,521.802817 L783,521.802817 L783,518.366197 Z M800.183099,518.366197 L803.619718,518.366197 L803.619718,521.802817 L800.183099,521.802817 L800.183099,518.366197 Z M817.366197,518.366197 L820.802817,518.366197 L820.802817,521.802817 L817.366197,521.802817 L817.366197,518.366197 Z M834.549296,518.366197 L837.985915,518.366197 L837.985915,521.802817 L834.549296,521.802817 L834.549296,518.366197 Z M851.732394,518.366197 L855.169014,518.366197 L855.169014,521.802817 L851.732394,521.802817 L851.732394,518.366197 Z M868.915493,518.366197 L872.352113,518.366197 L872.352113,521.802817 L868.915493,521.802817 L868.915493,518.366197 Z M886.098592,518.366197 L889.535211,518.366197 L889.535211,521.802817 L886.098592,521.802817 L886.098592,518.366197 Z M903.28169,518.366197 L906.71831,518.366197 L906.71831,521.802817 L903.28169,521.802817 L903.28169,518.366197 Z M920.464789,518.366197 L923.901408,518.366197 L923.901408,521.802817 L920.464789,521.802817 L920.464789,518.366197 Z M937.647887,518.366197 L941.084507,518.366197 L941.084507,521.802817 L937.647887,521.802817 L937.647887,518.366197 Z M954.830986,518.366197 L958.267606,518.366197 L958.267606,521.802817 L954.830986,521.802817 L954.830986,518.366197 Z M972.014085,518.366197 L975.450704,518.366197 L975.450704,521.802817 L972.014085,521.802817 L972.014085,518.366197 Z M989.197183,518.366197 L992.633803,518.366197 L992.633803,521.802817 L989.197183,521.802817 L989.197183,518.366197 Z M1006.38028,518.366197 L1009.8169,518.366197 L1009.8169,521.802817 L1006.38028,521.802817 L1006.38028,518.366197 Z M1023.56338,518.366197 L1027,518.366197 L1027,521.802817 L1023.56338,521.802817 L1023.56338,518.366197 Z M783,535.549296 L786.43662,535.549296 L786.43662,538.985915 L783,538.985915 L783,535.549296 Z M800.183099,535.549296 L803.619718,535.549296 L803.619718,538.985915 L800.183099,538.985915 L800.183099,535.549296 Z M817.366197,535.549296 L820.802817,535.549296 L820.802817,538.985915 L817.366197,538.985915 L817.366197,535.549296 Z M834.549296,535.549296 L837.985915,535.549296 L837.985915,538.985915 L834.549296,538.985915 L834.549296,535.549296 Z M851.732394,535.549296 L855.169014,535.549296 L855.169014,538.985915 L851.732394,538.985915 L851.732394,535.549296 Z M868.915493,535.549296 L872.352113,535.549296 L872.352113,538.985915 L868.915493,538.985915 L868.915493,535.549296 Z M886.098592,535.549296 L889.535211,535.549296 L889.535211,538.985915 L886.098592,538.985915 L886.098592,535.549296 Z M903.28169,535.549296 L906.71831,535.549296 L906.71831,538.985915 L903.28169,538.985915 L903.28169,535.549296 Z M920.464789,535.549296 L923.901408,535.549296 L923.901408,538.985915 L920.464789,538.985915 L920.464789,535.549296 Z M937.647887,535.549296 L941.084507,535.549296 L941.084507,538.985915 L937.647887,538.985915 L937.647887,535.549296 Z M954.830986,535.549296 L958.267606,535.549296 L958.267606,538.985915 L954.830986,538.985915 L954.830986,535.549296 Z M972.014085,535.549296 L975.450704,535.549296 L975.450704,538.985915 L972.014085,538.985915 L972.014085,535.549296 Z M989.197183,535.549296 L992.633803,535.549296 L992.633803,538.985915 L989.197183,538.985915 L989.197183,535.549296 Z M1006.38028,535.549296 L1009.8169,535.549296 L1009.8169,538.985915 L1006.38028,538.985915 L1006.38028,535.549296 Z M1023.56338,535.549296 L1027,535.549296 L1027,538.985915 L1023.56338,538.985915 L1023.56338,535.549296 Z M783,552.732394 L786.43662,552.732394 L786.43662,556.169014 L783,556.169014 L783,552.732394 Z M800.183099,552.732394 L803.619718,552.732394 L803.619718,556.169014 L800.183099,556.169014 L800.183099,552.732394 Z M817.366197,552.732394 L820.802817,552.732394 L820.802817,556.169014 L817.366197,556.169014 L817.366197,552.732394 Z M834.549296,552.732394 L837.985915,552.732394 L837.985915,556.169014 L834.549296,556.169014 L834.549296,552.732394 Z M851.732394,552.732394 L855.169014,552.732394 L855.169014,556.169014 L851.732394,556.169014 L851.732394,552.732394 Z M868.915493,552.732394 L872.352113,552.732394 L872.352113,556.169014 L868.915493,556.169014 L868.915493,552.732394 Z M886.098592,552.732394 L889.535211,552.732394 L889.535211,556.169014 L886.098592,556.169014 L886.098592,552.732394 Z M903.28169,552.732394 L906.71831,552.732394 L906.71831,556.169014 L903.28169,556.169014 L903.28169,552.732394 Z M920.464789,552.732394 L923.901408,552.732394 L923.901408,556.169014 L920.464789,556.169014 L920.464789,552.732394 Z M937.647887,552.732394 L941.084507,552.732394 L941.084507,556.169014 L937.647887,556.169014 L937.647887,552.732394 Z M954.830986,552.732394 L958.267606,552.732394 L958.267606,556.169014 L954.830986,556.169014 L954.830986,552.732394 Z M972.014085,552.732394 L975.450704,552.732394 L975.450704,556.169014 L972.014085,556.169014 L972.014085,552.732394 Z M989.197183,552.732394 L992.633803,552.732394 L992.633803,556.169014 L989.197183,556.169014 L989.197183,552.732394 Z M1006.38028,552.732394 L1009.8169,552.732394 L1009.8169,556.169014 L1006.38028,556.169014 L1006.38028,552.732394 Z M1023.56338,552.732394 L1027,552.732394 L1027,556.169014 L1023.56338,556.169014 L1023.56338,552.732394 Z M783,569.915493 L786.43662,569.915493 L786.43662,573.352113 L783,573.352113 L783,569.915493 Z M800.183099,569.915493 L803.619718,569.915493 L803.619718,573.352113 L800.183099,573.352113 L800.183099,569.915493 Z M817.366197,569.915493 L820.802817,569.915493 L820.802817,573.352113 L817.366197,573.352113 L817.366197,569.915493 Z M834.549296,569.915493 L837.985915,569.915493 L837.985915,573.352113 L834.549296,573.352113 L834.549296,569.915493 Z M851.732394,569.915493 L855.169014,569.915493 L855.169014,573.352113 L851.732394,573.352113 L851.732394,569.915493 Z M868.915493,569.915493 L872.352113,569.915493 L872.352113,573.352113 L868.915493,573.352113 L868.915493,569.915493 Z M886.098592,569.915493 L889.535211,569.915493 L889.535211,573.352113 L886.098592,573.352113 L886.098592,569.915493 Z M903.28169,569.915493 L906.71831,569.915493 L906.71831,573.352113 L903.28169,573.352113 L903.28169,569.915493 Z M920.464789,569.915493 L923.901408,569.915493 L923.901408,573.352113 L920.464789,573.352113 L920.464789,569.915493 Z M937.647887,569.915493 L941.084507,569.915493 L941.084507,573.352113 L937.647887,573.352113 L937.647887,569.915493 Z M954.830986,569.915493 L958.267606,569.915493 L958.267606,573.352113 L954.830986,573.352113 L954.830986,569.915493 Z M972.014085,569.915493 L975.450704,569.915493 L975.450704,573.352113 L972.014085,573.352113 L972.014085,569.915493 Z M989.197183,569.915493 L992.633803,569.915493 L992.633803,573.352113 L989.197183,573.352113 L989.197183,569.915493 Z M1006.38028,569.915493 L1009.8169,569.915493 L1009.8169,573.352113 L1006.38028,573.352113 L1006.38028,569.915493 Z M1023.56338,569.915493 L1027,569.915493 L1027,573.352113 L1023.56338,573.352113 L1023.56338,569.915493 Z M783,587.098592 L786.43662,587.098592 L786.43662,590.535211 L783,590.535211 L783,587.098592 Z M800.183099,587.098592 L803.619718,587.098592 L803.619718,590.535211 L800.183099,590.535211 L800.183099,587.098592 Z M817.366197,587.098592 L820.802817,587.098592 L820.802817,590.535211 L817.366197,590.535211 L817.366197,587.098592 Z M834.549296,587.098592 L837.985915,587.098592 L837.985915,590.535211 L834.549296,590.535211 L834.549296,587.098592 Z M851.732394,587.098592 L855.169014,587.098592 L855.169014,590.535211 L851.732394,590.535211 L851.732394,587.098592 Z M868.915493,587.098592 L872.352113,587.098592 L872.352113,590.535211 L868.915493,590.535211 L868.915493,587.098592 Z M886.098592,587.098592 L889.535211,587.098592 L889.535211,590.535211 L886.098592,590.535211 L886.098592,587.098592 Z M903.28169,587.098592 L906.71831,587.098592 L906.71831,590.535211 L903.28169,590.535211 L903.28169,587.098592 Z M920.464789,587.098592 L923.901408,587.098592 L923.901408,590.535211 L920.464789,590.535211 L920.464789,587.098592 Z M937.647887,587.098592 L941.084507,587.098592 L941.084507,590.535211 L937.647887,590.535211 L937.647887,587.098592 Z M954.830986,587.098592 L958.267606,587.098592 L958.267606,590.535211 L954.830986,590.535211 L954.830986,587.098592 Z M972.014085,587.098592 L975.450704,587.098592 L975.450704,590.535211 L972.014085,590.535211 L972.014085,587.098592 Z M989.197183,587.098592 L992.633803,587.098592 L992.633803,590.535211 L989.197183,590.535211 L989.197183,587.098592 Z M1006.38028,587.098592 L1009.8169,587.098592 L1009.8169,590.535211 L1006.38028,590.535211 L1006.38028,587.098592 Z M1023.56338,587.098592 L1027,587.098592 L1027,590.535211 L1023.56338,590.535211 L1023.56338,587.098592 Z M783,604.28169 L786.43662,604.28169 L786.43662,607.71831 L783,607.71831 L783,604.28169 Z M800.183099,604.28169 L803.619718,604.28169 L803.619718,607.71831 L800.183099,607.71831 L800.183099,604.28169 Z M817.366197,604.28169 L820.802817,604.28169 L820.802817,607.71831 L817.366197,607.71831 L817.366197,604.28169 Z M834.549296,604.28169 L837.985915,604.28169 L837.985915,607.71831 L834.549296,607.71831 L834.549296,604.28169 Z M851.732394,604.28169 L855.169014,604.28169 L855.169014,607.71831 L851.732394,607.71831 L851.732394,604.28169 Z M868.915493,604.28169 L872.352113,604.28169 L872.352113,607.71831 L868.915493,607.71831 L868.915493,604.28169 Z M886.098592,604.28169 L889.535211,604.28169 L889.535211,607.71831 L886.098592,607.71831 L886.098592,604.28169 Z M903.28169,604.28169 L906.71831,604.28169 L906.71831,607.71831 L903.28169,607.71831 L903.28169,604.28169 Z M920.464789,604.28169 L923.901408,604.28169 L923.901408,607.71831 L920.464789,607.71831 L920.464789,604.28169 Z M937.647887,604.28169 L941.084507,604.28169 L941.084507,607.71831 L937.647887,607.71831 L937.647887,604.28169 Z M954.830986,604.28169 L958.267606,604.28169 L958.267606,607.71831 L954.830986,607.71831 L954.830986,604.28169 Z M972.014085,604.28169 L975.450704,604.28169 L975.450704,607.71831 L972.014085,607.71831 L972.014085,604.28169 Z M989.197183,604.28169 L992.633803,604.28169 L992.633803,607.71831 L989.197183,607.71831 L989.197183,604.28169 Z M1006.38028,604.28169 L1009.8169,604.28169 L1009.8169,607.71831 L1006.38028,607.71831 L1006.38028,604.28169 Z M1023.56338,604.28169 L1027,604.28169 L1027,607.71831 L1023.56338,607.71831 L1023.56338,604.28169 Z M783,621.464789 L786.43662,621.464789 L786.43662,624.901408 L783,624.901408 L783,621.464789 Z M800.183099,621.464789 L803.619718,621.464789 L803.619718,624.901408 L800.183099,624.901408 L800.183099,621.464789 Z M817.366197,621.464789 L820.802817,621.464789 L820.802817,624.901408 L817.366197,624.901408 L817.366197,621.464789 Z M834.549296,621.464789 L837.985915,621.464789 L837.985915,624.901408 L834.549296,624.901408 L834.549296,621.464789 Z M851.732394,621.464789 L855.169014,621.464789 L855.169014,624.901408 L851.732394,624.901408 L851.732394,621.464789 Z M868.915493,621.464789 L872.352113,621.464789 L872.352113,624.901408 L868.915493,624.901408 L868.915493,621.464789 Z M886.098592,621.464789 L889.535211,621.464789 L889.535211,624.901408 L886.098592,624.901408 L886.098592,621.464789 Z M903.28169,621.464789 L906.71831,621.464789 L906.71831,624.901408 L903.28169,624.901408 L903.28169,621.464789 Z M920.464789,621.464789 L923.901408,621.464789 L923.901408,624.901408 L920.464789,624.901408 L920.464789,621.464789 Z M937.647887,621.464789 L941.084507,621.464789 L941.084507,624.901408 L937.647887,624.901408 L937.647887,621.464789 Z M954.830986,621.464789 L958.267606,621.464789 L958.267606,624.901408 L954.830986,624.901408 L954.830986,621.464789 Z M972.014085,621.464789 L975.450704,621.464789 L975.450704,624.901408 L972.014085,624.901408 L972.014085,621.464789 Z M989.197183,621.464789 L992.633803,621.464789 L992.633803,624.901408 L989.197183,624.901408 L989.197183,621.464789 Z M1006.38028,621.464789 L1009.8169,621.464789 L1009.8169,624.901408 L1006.38028,624.901408 L1006.38028,621.464789 Z M1023.56338,621.464789 L1027,621.464789 L1027,624.901408 L1023.56338,624.901408 L1023.56338,621.464789 Z M783,638.647887 L786.43662,638.647887 L786.43662,642.084507 L783,642.084507 L783,638.647887 Z M800.183099,638.647887 L803.619718,638.647887 L803.619718,642.084507 L800.183099,642.084507 L800.183099,638.647887 Z M817.366197,638.647887 L820.802817,638.647887 L820.802817,642.084507 L817.366197,642.084507 L817.366197,638.647887 Z M834.549296,638.647887 L837.985915,638.647887 L837.985915,642.084507 L834.549296,642.084507 L834.549296,638.647887 Z M851.732394,638.647887 L855.169014,638.647887 L855.169014,642.084507 L851.732394,642.084507 L851.732394,638.647887 Z M868.915493,638.647887 L872.352113,638.647887 L872.352113,642.084507 L868.915493,642.084507 L868.915493,638.647887 Z M886.098592,638.647887 L889.535211,638.647887 L889.535211,642.084507 L886.098592,642.084507 L886.098592,638.647887 Z M903.28169,638.647887 L906.71831,638.647887 L906.71831,642.084507 L903.28169,642.084507 L903.28169,638.647887 Z M920.464789,638.647887 L923.901408,638.647887 L923.901408,642.084507 L920.464789,642.084507 L920.464789,638.647887 Z M937.647887,638.647887 L941.084507,638.647887 L941.084507,642.084507 L937.647887,642.084507 L937.647887,638.647887 Z M954.830986,638.647887 L958.267606,638.647887 L958.267606,642.084507 L954.830986,642.084507 L954.830986,638.647887 Z M972.014085,638.647887 L975.450704,638.647887 L975.450704,642.084507 L972.014085,642.084507 L972.014085,638.647887 Z M989.197183,638.647887 L992.633803,638.647887 L992.633803,642.084507 L989.197183,642.084507 L989.197183,638.647887 Z M1006.38028,638.647887 L1009.8169,638.647887 L1009.8169,642.084507 L1006.38028,642.084507 L1006.38028,638.647887 Z M1023.56338,638.647887 L1027,638.647887 L1027,642.084507 L1023.56338,642.084507 L1023.56338,638.647887 Z" id="Combined-Shape-Copy" fill="url(#linearGradient-3)" fill-rule="nonzero"></path>
                                        </g>
                                        <polyline id="Path" fill="#FFB03A" fill-rule="evenodd" opacity="0.321265811" points="1428.2 222.7 1115.3 42 887 174.7 1199.9 355.4 1428.2 222.7"></polyline>
                                        <polyline id="Path" fill="#FFB74A" fill-rule="evenodd" opacity="0.453334263" points="1428.2 180.7 1115.3 -1.70530257e-13 887 132.7 1199.9 313.4 1428.2 180.7"></polyline>
                                        <polygon id="Path_1" fill="url(#linearGradient-3)" fill-rule="nonzero" opacity="0.447521391" transform="translate(338.668480, 401.517055) rotate(-180.000000) translate(-338.668480, -401.517055) " points="0.608042724 127.017055 215.842804 127.017055 338.67534 335.115505 461.507876 127.017055 676.728918 127.017055 338.67534 676.017055"></polygon>
                                    </g>
                                </g>
                            </g>
                        </g>
                    </g>
                </g>
            </g>
        </g>
    </g>
</svg>