<?xml version="1.0" encoding="utf-8"?>
<!-- Generator: Adobe Illustrator 22.1.0, SVG Export Plug-In . SVG Version: 6.00 Build 0)  -->
<svg version="1.1" id="Layer_1" xmlns="http://www.w3.org/2000/svg" xmlns:xlink="http://www.w3.org/1999/xlink" x="0px" y="0px"
	 viewBox="0 0 1440 499" style="enable-background:new 0 0 1440 499;" xml:space="preserve">
<style type="text/css">
	.st0{clip-path:url(#SVGID_2_);}
	.st1{fill:#FF9900;}
	.st2{filter:url(#Adobe_OpacityMaskFilter);}
	.st3{fill:#FFFFFF;}
	.st4{mask:url(#mask-2_1_);}
	.st5{opacity:0.4475;fill:url(#Path_1_1_);enable-background:new    ;}
	.st6{opacity:0.3213;fill:#FFB03A;enable-background:new    ;}
	.st7{opacity:0.4533;fill:#FFB74A;enable-background:new    ;}
	.st8{opacity:0.4475;}
	.st9{fill:url(#Combined-Shape_1_);}
	.st10{fill:url(#Combined-Shape-Copy_1_);}
</style>
<title>Orange - Mid</title>
<desc>Created with Sketch.</desc>
<g>
	<defs>
		<rect id="SVGID_1_" width="1440" height="497.7"/>
	</defs>
	<clipPath id="SVGID_2_">
		<use xlink:href="#SVGID_1_"  style="overflow:visible;"/>
	</clipPath>
	<g id="Desktop" class="st0">
		<g id="AWS" transform="translate(0.000000, -1484.000000)">
			<g id="Group-6" transform="translate(0.000000, 1484.000000)">
				<g id="Orange---Mid">
					<g id="Rectangle-Copy-8">
						<polygon id="path-1_1_" class="st1" points="0,0 1440,0 1440,499 0,499 						"/>
					</g>
					<defs>
						<filter id="Adobe_OpacityMaskFilter" filterUnits="userSpaceOnUse" x="60" y="-140" width="1566.1" height="729">
							<feColorMatrix  type="matrix" values="1 0 0 0 0  0 1 0 0 0  0 0 1 0 0  0 0 0 1 0"/>
						</filter>
					</defs>
					<mask maskUnits="userSpaceOnUse" x="60" y="-140" width="1566.1" height="729" id="mask-2_1_">
						<g class="st2">
							<polygon id="path-1_2_" class="st3" points="0,0 1440,0 1440,499 0,499 							"/>
						</g>
					</mask>
					<g id="Group-20" class="st4">
						<g transform="translate(60.000000, -140.000000)">
							
								<linearGradient id="Path_1_1_" gradientUnits="userSpaceOnUse" x1="310.5425" y1="740.1749" x2="311.5805" y2="739.4973" gradientTransform="matrix(-676.1208 0 0 549 211533.5781 -405631)">
								<stop  offset="0" style="stop-color:#FFB84C"/>
								<stop  offset="1" style="stop-color:#FFBD59;stop-opacity:0.4885"/>
							</linearGradient>
							<polygon id="Path_1" class="st5" points="1566.1,729 1350.9,729 1228.1,520.9 1105.2,729 890,729 1228.1,180 							"/>
							<polyline id="Path" class="st6" points="541.2,222.7 228.3,42 0,174.7 312.9,355.4 541.2,222.7 							"/>
							<polyline id="Path_1_" class="st7" points="541.2,180.7 228.3,0 0,132.7 312.9,313.4 541.2,180.7 							"/>
							<g id="Group-18-Copy" transform="translate(10.000000, 190.000000)" class="st8">
								
									<linearGradient id="Combined-Shape_1_" gradientUnits="userSpaceOnUse" x1="298.4041" y1="549.5744" x2="299.4421" y2="548.8968" gradientTransform="matrix(244 0 0 -329.0845 -72830 180896.4844)">
									<stop  offset="0" style="stop-color:#FFB84C"/>
									<stop  offset="1" style="stop-color:#FFBD59;stop-opacity:0.4885"/>
								</linearGradient>
								<path id="Combined-Shape" class="st9" d="M0,0h3.4v3.4H0V0z M17.2,0h3.4v3.4h-3.4V0z M34.4,0h3.4v3.4h-3.4V0z M51.5,0H55
									v3.4h-3.4V0z M68.7,0h3.4v3.4h-3.4V0z M85.9,0h3.4v3.4h-3.4V0z M103.1,0h3.4v3.4h-3.4V0z M120.3,0h3.4v3.4h-3.4V0z M137.5,0
									h3.4v3.4h-3.4V0z M154.6,0h3.4v3.4h-3.4V0z M171.8,0h3.4v3.4h-3.4V0z M189,0h3.4v3.4H189V0z M206.2,0h3.4v3.4h-3.4V0z
									 M223.4,0h3.4v3.4h-3.4V0z M240.6,0h3.4v3.4h-3.4V0z M0,17.2h3.4v3.4H0V17.2z M17.2,17.2h3.4v3.4h-3.4V17.2z M34.4,17.2h3.4
									v3.4h-3.4V17.2z M51.5,17.2H55v3.4h-3.4V17.2z M68.7,17.2h3.4v3.4h-3.4V17.2z M85.9,17.2h3.4v3.4h-3.4V17.2z M103.1,17.2
									h3.4v3.4h-3.4V17.2z M120.3,17.2h3.4v3.4h-3.4V17.2z M137.5,17.2h3.4v3.4h-3.4V17.2z M154.6,17.2h3.4v3.4h-3.4V17.2z
									 M171.8,17.2h3.4v3.4h-3.4V17.2z M189,17.2h3.4v3.4H189V17.2z M206.2,17.2h3.4v3.4h-3.4V17.2z M223.4,17.2h3.4v3.4h-3.4
									V17.2z M240.6,17.2h3.4v3.4h-3.4V17.2z M0,34.4h3.4v3.4H0V34.4z M17.2,34.4h3.4v3.4h-3.4V34.4z M34.4,34.4h3.4v3.4h-3.4
									V34.4z M51.5,34.4H55v3.4h-3.4V34.4z M68.7,34.4h3.4v3.4h-3.4V34.4z M85.9,34.4h3.4v3.4h-3.4V34.4z M103.1,34.4h3.4v3.4
									h-3.4V34.4z M120.3,34.4h3.4v3.4h-3.4V34.4z M137.5,34.4h3.4v3.4h-3.4V34.4z M154.6,34.4h3.4v3.4h-3.4V34.4z M171.8,34.4
									h3.4v3.4h-3.4V34.4z M189,34.4h3.4v3.4H189V34.4z M206.2,34.4h3.4v3.4h-3.4V34.4z M223.4,34.4h3.4v3.4h-3.4V34.4z
									 M240.6,34.4h3.4v3.4h-3.4V34.4z M0,51.5h3.4V55H0V51.5z M17.2,51.5h3.4V55h-3.4V51.5z M34.4,51.5h3.4V55h-3.4V51.5z
									 M51.5,51.5H55V55h-3.4V51.5z M68.7,51.5h3.4V55h-3.4V51.5z M85.9,51.5h3.4V55h-3.4V51.5z M103.1,51.5h3.4V55h-3.4V51.5z
									 M120.3,51.5h3.4V55h-3.4V51.5z M137.5,51.5h3.4V55h-3.4V51.5z M154.6,51.5h3.4V55h-3.4V51.5z M171.8,51.5h3.4V55h-3.4V51.5
									z M189,51.5h3.4V55H189V51.5z M206.2,51.5h3.4V55h-3.4V51.5z M223.4,51.5h3.4V55h-3.4V51.5z M240.6,51.5h3.4V55h-3.4V51.5z
									 M0,68.7h3.4v3.4H0V68.7z M17.2,68.7h3.4v3.4h-3.4V68.7z M34.4,68.7h3.4v3.4h-3.4V68.7z M51.5,68.7H55v3.4h-3.4V68.7z
									 M68.7,68.7h3.4v3.4h-3.4V68.7z M85.9,68.7h3.4v3.4h-3.4V68.7z M103.1,68.7h3.4v3.4h-3.4V68.7z M120.3,68.7h3.4v3.4h-3.4
									V68.7z M137.5,68.7h3.4v3.4h-3.4V68.7z M154.6,68.7h3.4v3.4h-3.4V68.7z M171.8,68.7h3.4v3.4h-3.4V68.7z M189,68.7h3.4v3.4
									H189V68.7z M206.2,68.7h3.4v3.4h-3.4V68.7z M223.4,68.7h3.4v3.4h-3.4V68.7z M240.6,68.7h3.4v3.4h-3.4V68.7z M0,85.9h3.4v3.4
									H0V85.9z M17.2,85.9h3.4v3.4h-3.4V85.9z M34.4,85.9h3.4v3.4h-3.4V85.9z M51.5,85.9H55v3.4h-3.4V85.9z M68.7,85.9h3.4v3.4
									h-3.4V85.9z M85.9,85.9h3.4v3.4h-3.4V85.9z M103.1,85.9h3.4v3.4h-3.4V85.9z M120.3,85.9h3.4v3.4h-3.4V85.9z M137.5,85.9h3.4
									v3.4h-3.4V85.9z M154.6,85.9h3.4v3.4h-3.4V85.9z M171.8,85.9h3.4v3.4h-3.4V85.9z M189,85.9h3.4v3.4H189V85.9z M206.2,85.9
									h3.4v3.4h-3.4V85.9z M223.4,85.9h3.4v3.4h-3.4V85.9z M240.6,85.9h3.4v3.4h-3.4V85.9z M0,103.1h3.4v3.4H0V103.1z M17.2,103.1
									h3.4v3.4h-3.4V103.1z M34.4,103.1h3.4v3.4h-3.4V103.1z M51.5,103.1H55v3.4h-3.4V103.1z M68.7,103.1h3.4v3.4h-3.4V103.1z
									 M85.9,103.1h3.4v3.4h-3.4V103.1z M103.1,103.1h3.4v3.4h-3.4V103.1z M120.3,103.1h3.4v3.4h-3.4V103.1z M137.5,103.1h3.4v3.4
									h-3.4V103.1z M154.6,103.1h3.4v3.4h-3.4V103.1z M171.8,103.1h3.4v3.4h-3.4V103.1z M189,103.1h3.4v3.4H189V103.1z
									 M206.2,103.1h3.4v3.4h-3.4V103.1z M223.4,103.1h3.4v3.4h-3.4V103.1z M240.6,103.1h3.4v3.4h-3.4V103.1z M0,120.3h3.4v3.4H0
									V120.3z M17.2,120.3h3.4v3.4h-3.4V120.3z M34.4,120.3h3.4v3.4h-3.4V120.3z M51.5,120.3H55v3.4h-3.4V120.3z M68.7,120.3h3.4
									v3.4h-3.4V120.3z M85.9,120.3h3.4v3.4h-3.4V120.3z M103.1,120.3h3.4v3.4h-3.4V120.3z M120.3,120.3h3.4v3.4h-3.4V120.3z
									 M137.5,120.3h3.4v3.4h-3.4V120.3z M154.6,120.3h3.4v3.4h-3.4V120.3z M171.8,120.3h3.4v3.4h-3.4V120.3z M189,120.3h3.4v3.4
									H189V120.3z M206.2,120.3h3.4v3.4h-3.4V120.3z M223.4,120.3h3.4v3.4h-3.4V120.3z M240.6,120.3h3.4v3.4h-3.4V120.3z M0,137.5
									h3.4v3.4H0V137.5z M17.2,137.5h3.4v3.4h-3.4V137.5z M34.4,137.5h3.4v3.4h-3.4V137.5z M51.5,137.5H55v3.4h-3.4V137.5z
									 M68.7,137.5h3.4v3.4h-3.4V137.5z M85.9,137.5h3.4v3.4h-3.4V137.5z M103.1,137.5h3.4v3.4h-3.4V137.5z M120.3,137.5h3.4v3.4
									h-3.4V137.5z M137.5,137.5h3.4v3.4h-3.4V137.5z M154.6,137.5h3.4v3.4h-3.4V137.5z M171.8,137.5h3.4v3.4h-3.4V137.5z
									 M189,137.5h3.4v3.4H189V137.5z M206.2,137.5h3.4v3.4h-3.4V137.5z M223.4,137.5h3.4v3.4h-3.4V137.5z M240.6,137.5h3.4v3.4
									h-3.4V137.5z M0,154.6h3.4v3.4H0V154.6z M17.2,154.6h3.4v3.4h-3.4V154.6z M34.4,154.6h3.4v3.4h-3.4V154.6z M51.5,154.6H55
									v3.4h-3.4V154.6z M68.7,154.6h3.4v3.4h-3.4V154.6z M85.9,154.6h3.4v3.4h-3.4V154.6z M103.1,154.6h3.4v3.4h-3.4V154.6z
									 M120.3,154.6h3.4v3.4h-3.4V154.6z M137.5,154.6h3.4v3.4h-3.4V154.6z M154.6,154.6h3.4v3.4h-3.4V154.6z M171.8,154.6h3.4
									v3.4h-3.4V154.6z M189,154.6h3.4v3.4H189V154.6z M206.2,154.6h3.4v3.4h-3.4V154.6z M223.4,154.6h3.4v3.4h-3.4V154.6z
									 M240.6,154.6h3.4v3.4h-3.4V154.6z M0,171h3.4v3.4H0V171z M17.2,171h3.4v3.4h-3.4V171z M34.4,171h3.4v3.4h-3.4V171z
									 M51.5,171H55v3.4h-3.4V171z M68.7,171h3.4v3.4h-3.4V171z M85.9,171h3.4v3.4h-3.4V171z M103.1,171h3.4v3.4h-3.4V171z
									 M120.3,171h3.4v3.4h-3.4V171z M137.5,171h3.4v3.4h-3.4V171z M154.6,171h3.4v3.4h-3.4V171z M171.8,171h3.4v3.4h-3.4V171z
									 M189,171h3.4v3.4H189V171z M206.2,171h3.4v3.4h-3.4V171z M223.4,171h3.4v3.4h-3.4V171z M240.6,171h3.4v3.4h-3.4V171z
									 M0,188.2h3.4v3.4H0V188.2z M17.2,188.2h3.4v3.4h-3.4V188.2z M34.4,188.2h3.4v3.4h-3.4V188.2z M51.5,188.2H55v3.4h-3.4
									V188.2z M68.7,188.2h3.4v3.4h-3.4V188.2z M85.9,188.2h3.4v3.4h-3.4V188.2z M103.1,188.2h3.4v3.4h-3.4V188.2z M120.3,188.2
									h3.4v3.4h-3.4V188.2z M137.5,188.2h3.4v3.4h-3.4V188.2z M154.6,188.2h3.4v3.4h-3.4V188.2z M171.8,188.2h3.4v3.4h-3.4V188.2z
									 M189,188.2h3.4v3.4H189V188.2z M206.2,188.2h3.4v3.4h-3.4V188.2z M223.4,188.2h3.4v3.4h-3.4V188.2z M240.6,188.2h3.4v3.4
									h-3.4V188.2z M0,205.4h3.4v3.4H0V205.4z M17.2,205.4h3.4v3.4h-3.4V205.4z M34.4,205.4h3.4v3.4h-3.4V205.4z M51.5,205.4H55
									v3.4h-3.4V205.4z M68.7,205.4h3.4v3.4h-3.4V205.4z M85.9,205.4h3.4v3.4h-3.4V205.4z M103.1,205.4h3.4v3.4h-3.4V205.4z
									 M120.3,205.4h3.4v3.4h-3.4V205.4z M137.5,205.4h3.4v3.4h-3.4V205.4z M154.6,205.4h3.4v3.4h-3.4V205.4z M171.8,205.4h3.4
									v3.4h-3.4V205.4z M189,205.4h3.4v3.4H189V205.4z M206.2,205.4h3.4v3.4h-3.4V205.4z M223.4,205.4h3.4v3.4h-3.4V205.4z
									 M240.6,205.4h3.4v3.4h-3.4V205.4z M0,222.5h3.4v3.4H0V222.5z M17.2,222.5h3.4v3.4h-3.4V222.5z M34.4,222.5h3.4v3.4h-3.4
									V222.5z M51.5,222.5H55v3.4h-3.4V222.5z M68.7,222.5h3.4v3.4h-3.4V222.5z M85.9,222.5h3.4v3.4h-3.4V222.5z M103.1,222.5h3.4
									v3.4h-3.4V222.5z M120.3,222.5h3.4v3.4h-3.4V222.5z M137.5,222.5h3.4v3.4h-3.4V222.5z M154.6,222.5h3.4v3.4h-3.4V222.5z
									 M171.8,222.5h3.4v3.4h-3.4V222.5z M189,222.5h3.4v3.4H189V222.5z M206.2,222.5h3.4v3.4h-3.4V222.5z M223.4,222.5h3.4v3.4
									h-3.4V222.5z M240.6,222.5h3.4v3.4h-3.4V222.5z M0,239.7h3.4v3.4H0V239.7z M17.2,239.7h3.4v3.4h-3.4V239.7z M34.4,239.7h3.4
									v3.4h-3.4V239.7z M51.5,239.7H55v3.4h-3.4V239.7z M68.7,239.7h3.4v3.4h-3.4V239.7z M85.9,239.7h3.4v3.4h-3.4V239.7z
									 M103.1,239.7h3.4v3.4h-3.4V239.7z M120.3,239.7h3.4v3.4h-3.4V239.7z M137.5,239.7h3.4v3.4h-3.4V239.7z M154.6,239.7h3.4
									v3.4h-3.4V239.7z M171.8,239.7h3.4v3.4h-3.4V239.7z M189,239.7h3.4v3.4H189V239.7z M206.2,239.7h3.4v3.4h-3.4V239.7z
									 M223.4,239.7h3.4v3.4h-3.4V239.7z M240.6,239.7h3.4v3.4h-3.4V239.7z M0,256.9h3.4v3.4H0V256.9z M17.2,256.9h3.4v3.4h-3.4
									V256.9z M34.4,256.9h3.4v3.4h-3.4V256.9z M51.5,256.9H55v3.4h-3.4V256.9z M68.7,256.9h3.4v3.4h-3.4V256.9z M85.9,256.9h3.4
									v3.4h-3.4V256.9z M103.1,256.9h3.4v3.4h-3.4V256.9z M120.3,256.9h3.4v3.4h-3.4V256.9z M137.5,256.9h3.4v3.4h-3.4V256.9z
									 M154.6,256.9h3.4v3.4h-3.4V256.9z M171.8,256.9h3.4v3.4h-3.4V256.9z M189,256.9h3.4v3.4H189V256.9z M206.2,256.9h3.4v3.4
									h-3.4V256.9z M223.4,256.9h3.4v3.4h-3.4V256.9z M240.6,256.9h3.4v3.4h-3.4V256.9z M0,274.1h3.4v3.4H0V274.1z M17.2,274.1
									h3.4v3.4h-3.4V274.1z M34.4,274.1h3.4v3.4h-3.4V274.1z M51.5,274.1H55v3.4h-3.4V274.1z M68.7,274.1h3.4v3.4h-3.4V274.1z
									 M85.9,274.1h3.4v3.4h-3.4V274.1z M103.1,274.1h3.4v3.4h-3.4V274.1z M120.3,274.1h3.4v3.4h-3.4V274.1z M137.5,274.1h3.4v3.4
									h-3.4V274.1z M154.6,274.1h3.4v3.4h-3.4V274.1z M171.8,274.1h3.4v3.4h-3.4V274.1z M189,274.1h3.4v3.4H189V274.1z
									 M206.2,274.1h3.4v3.4h-3.4V274.1z M223.4,274.1h3.4v3.4h-3.4V274.1z M240.6,274.1h3.4v3.4h-3.4V274.1z M0,291.3h3.4v3.4H0
									V291.3z M17.2,291.3h3.4v3.4h-3.4V291.3z M34.4,291.3h3.4v3.4h-3.4V291.3z M51.5,291.3H55v3.4h-3.4V291.3z M68.7,291.3h3.4
									v3.4h-3.4V291.3z M85.9,291.3h3.4v3.4h-3.4V291.3z M103.1,291.3h3.4v3.4h-3.4V291.3z M120.3,291.3h3.4v3.4h-3.4V291.3z
									 M137.5,291.3h3.4v3.4h-3.4V291.3z M154.6,291.3h3.4v3.4h-3.4V291.3z M171.8,291.3h3.4v3.4h-3.4V291.3z M189,291.3h3.4v3.4
									H189V291.3z M206.2,291.3h3.4v3.4h-3.4V291.3z M223.4,291.3h3.4v3.4h-3.4V291.3z M240.6,291.3h3.4v3.4h-3.4V291.3z M0,308.5
									h3.4v3.4H0V308.5z M17.2,308.5h3.4v3.4h-3.4V308.5z M34.4,308.5h3.4v3.4h-3.4V308.5z M51.5,308.5H55v3.4h-3.4V308.5z
									 M68.7,308.5h3.4v3.4h-3.4V308.5z M85.9,308.5h3.4v3.4h-3.4V308.5z M103.1,308.5h3.4v3.4h-3.4V308.5z M120.3,308.5h3.4v3.4
									h-3.4V308.5z M137.5,308.5h3.4v3.4h-3.4V308.5z M154.6,308.5h3.4v3.4h-3.4V308.5z M171.8,308.5h3.4v3.4h-3.4V308.5z
									 M189,308.5h3.4v3.4H189V308.5z M206.2,308.5h3.4v3.4h-3.4V308.5z M223.4,308.5h3.4v3.4h-3.4V308.5z M240.6,308.5h3.4v3.4
									h-3.4V308.5z M0,325.6h3.4v3.4H0V325.6z M17.2,325.6h3.4v3.4h-3.4V325.6z M34.4,325.6h3.4v3.4h-3.4V325.6z M51.5,325.6H55
									v3.4h-3.4V325.6z M68.7,325.6h3.4v3.4h-3.4V325.6z M85.9,325.6h3.4v3.4h-3.4V325.6z M103.1,325.6h3.4v3.4h-3.4V325.6z
									 M120.3,325.6h3.4v3.4h-3.4V325.6z M137.5,325.6h3.4v3.4h-3.4V325.6z M154.6,325.6h3.4v3.4h-3.4V325.6z M171.8,325.6h3.4
									v3.4h-3.4V325.6z M189,325.6h3.4v3.4H189V325.6z M206.2,325.6h3.4v3.4h-3.4V325.6z M223.4,325.6h3.4v3.4h-3.4V325.6z
									 M240.6,325.6h3.4v3.4h-3.4V325.6z"/>
								
									<linearGradient id="Combined-Shape-Copy_1_" gradientUnits="userSpaceOnUse" x1="301.437" y1="550.1822" x2="302.4749" y2="549.5045" gradientTransform="matrix(-244 0 0 329.0845 74937 -180614.3906)">
									<stop  offset="0" style="stop-color:#FFB84C"/>
									<stop  offset="1" style="stop-color:#FFBD59;stop-opacity:0.4885"/>
								</linearGradient>
								<path id="Combined-Shape-Copy" class="st10" d="M1367,482.1h-3.4v-3.4h3.4V482.1z M1349.8,482.1h-3.4v-3.4h3.4V482.1z
									 M1332.6,482.1h-3.4v-3.4h3.4V482.1z M1315.5,482.1h-3.4v-3.4h3.4V482.1z M1298.3,482.1h-3.4v-3.4h3.4V482.1z M1281.1,482.1
									h-3.4v-3.4h3.4V482.1z M1263.9,482.1h-3.4v-3.4h3.4V482.1z M1246.7,482.1h-3.4v-3.4h3.4V482.1z M1229.5,482.1h-3.4v-3.4h3.4
									V482.1z M1212.4,482.1h-3.4v-3.4h3.4V482.1z M1195.2,482.1h-3.4v-3.4h3.4V482.1z M1178,482.1h-3.4v-3.4h3.4V482.1z
									 M1160.8,482.1h-3.4v-3.4h3.4V482.1z M1143.6,482.1h-3.4v-3.4h3.4V482.1z M1126.4,482.1h-3.4v-3.4h3.4V482.1z M1367,464.9
									h-3.4v-3.4h3.4V464.9z M1349.8,464.9h-3.4v-3.4h3.4V464.9z M1332.6,464.9h-3.4v-3.4h3.4V464.9z M1315.5,464.9h-3.4v-3.4h3.4
									V464.9z M1298.3,464.9h-3.4v-3.4h3.4V464.9z M1281.1,464.9h-3.4v-3.4h3.4V464.9z M1263.9,464.9h-3.4v-3.4h3.4V464.9z
									 M1246.7,464.9h-3.4v-3.4h3.4V464.9z M1229.5,464.9h-3.4v-3.4h3.4V464.9z M1212.4,464.9h-3.4v-3.4h3.4V464.9z M1195.2,464.9
									h-3.4v-3.4h3.4V464.9z M1178,464.9h-3.4v-3.4h3.4V464.9z M1160.8,464.9h-3.4v-3.4h3.4V464.9z M1143.6,464.9h-3.4v-3.4h3.4
									V464.9z M1126.4,464.9h-3.4v-3.4h3.4V464.9z M1367,447.7h-3.4v-3.4h3.4V447.7z M1349.8,447.7h-3.4v-3.4h3.4V447.7z
									 M1332.6,447.7h-3.4v-3.4h3.4V447.7z M1315.5,447.7h-3.4v-3.4h3.4V447.7z M1298.3,447.7h-3.4v-3.4h3.4V447.7z M1281.1,447.7
									h-3.4v-3.4h3.4V447.7z M1263.9,447.7h-3.4v-3.4h3.4V447.7z M1246.7,447.7h-3.4v-3.4h3.4V447.7z M1229.5,447.7h-3.4v-3.4h3.4
									V447.7z M1212.4,447.7h-3.4v-3.4h3.4V447.7z M1195.2,447.7h-3.4v-3.4h3.4V447.7z M1178,447.7h-3.4v-3.4h3.4V447.7z
									 M1160.8,447.7h-3.4v-3.4h3.4V447.7z M1143.6,447.7h-3.4v-3.4h3.4V447.7z M1126.4,447.7h-3.4v-3.4h3.4V447.7z M1367,430.5
									h-3.4v-3.4h3.4V430.5z M1349.8,430.5h-3.4v-3.4h3.4V430.5z M1332.6,430.5h-3.4v-3.4h3.4V430.5z M1315.5,430.5h-3.4v-3.4h3.4
									V430.5z M1298.3,430.5h-3.4v-3.4h3.4V430.5z M1281.1,430.5h-3.4v-3.4h3.4V430.5z M1263.9,430.5h-3.4v-3.4h3.4V430.5z
									 M1246.7,430.5h-3.4v-3.4h3.4V430.5z M1229.5,430.5h-3.4v-3.4h3.4V430.5z M1212.4,430.5h-3.4v-3.4h3.4V430.5z M1195.2,430.5
									h-3.4v-3.4h3.4V430.5z M1178,430.5h-3.4v-3.4h3.4V430.5z M1160.8,430.5h-3.4v-3.4h3.4V430.5z M1143.6,430.5h-3.4v-3.4h3.4
									V430.5z M1126.4,430.5h-3.4v-3.4h3.4V430.5z M1367,413.4h-3.4v-3.4h3.4V413.4z M1349.8,413.4h-3.4v-3.4h3.4V413.4z
									 M1332.6,413.4h-3.4v-3.4h3.4V413.4z M1315.5,413.4h-3.4v-3.4h3.4V413.4z M1298.3,413.4h-3.4v-3.4h3.4V413.4z M1281.1,413.4
									h-3.4v-3.4h3.4V413.4z M1263.9,413.4h-3.4v-3.4h3.4V413.4z M1246.7,413.4h-3.4v-3.4h3.4V413.4z M1229.5,413.4h-3.4v-3.4h3.4
									V413.4z M1212.4,413.4h-3.4v-3.4h3.4V413.4z M1195.2,413.4h-3.4v-3.4h3.4V413.4z M1178,413.4h-3.4v-3.4h3.4V413.4z
									 M1160.8,413.4h-3.4v-3.4h3.4V413.4z M1143.6,413.4h-3.4v-3.4h3.4V413.4z M1126.4,413.4h-3.4v-3.4h3.4V413.4z M1367,396.2
									h-3.4v-3.4h3.4V396.2z M1349.8,396.2h-3.4v-3.4h3.4V396.2z M1332.6,396.2h-3.4v-3.4h3.4V396.2z M1315.5,396.2h-3.4v-3.4h3.4
									V396.2z M1298.3,396.2h-3.4v-3.4h3.4V396.2z M1281.1,396.2h-3.4v-3.4h3.4V396.2z M1263.9,396.2h-3.4v-3.4h3.4V396.2z
									 M1246.7,396.2h-3.4v-3.4h3.4V396.2z M1229.5,396.2h-3.4v-3.4h3.4V396.2z M1212.4,396.2h-3.4v-3.4h3.4V396.2z M1195.2,396.2
									h-3.4v-3.4h3.4V396.2z M1178,396.2h-3.4v-3.4h3.4V396.2z M1160.8,396.2h-3.4v-3.4h3.4V396.2z M1143.6,396.2h-3.4v-3.4h3.4
									V396.2z M1126.4,396.2h-3.4v-3.4h3.4V396.2z M1367,379h-3.4v-3.4h3.4V379z M1349.8,379h-3.4v-3.4h3.4V379z M1332.6,379h-3.4
									v-3.4h3.4V379z M1315.5,379h-3.4v-3.4h3.4V379z M1298.3,379h-3.4v-3.4h3.4V379z M1281.1,379h-3.4v-3.4h3.4V379z M1263.9,379
									h-3.4v-3.4h3.4V379z M1246.7,379h-3.4v-3.4h3.4V379z M1229.5,379h-3.4v-3.4h3.4V379z M1212.4,379h-3.4v-3.4h3.4V379z
									 M1195.2,379h-3.4v-3.4h3.4V379z M1178,379h-3.4v-3.4h3.4V379z M1160.8,379h-3.4v-3.4h3.4V379z M1143.6,379h-3.4v-3.4h3.4
									V379z M1126.4,379h-3.4v-3.4h3.4V379z M1367,361.8h-3.4v-3.4h3.4V361.8z M1349.8,361.8h-3.4v-3.4h3.4V361.8z M1332.6,361.8
									h-3.4v-3.4h3.4V361.8z M1315.5,361.8h-3.4v-3.4h3.4V361.8z M1298.3,361.8h-3.4v-3.4h3.4V361.8z M1281.1,361.8h-3.4v-3.4h3.4
									V361.8z M1263.9,361.8h-3.4v-3.4h3.4V361.8z M1246.7,361.8h-3.4v-3.4h3.4V361.8z M1229.5,361.8h-3.4v-3.4h3.4V361.8z
									 M1212.4,361.8h-3.4v-3.4h3.4V361.8z M1195.2,361.8h-3.4v-3.4h3.4V361.8z M1178,361.8h-3.4v-3.4h3.4V361.8z M1160.8,361.8
									h-3.4v-3.4h3.4V361.8z M1143.6,361.8h-3.4v-3.4h3.4V361.8z M1126.4,361.8h-3.4v-3.4h3.4V361.8z M1367,344.6h-3.4v-3.4h3.4
									V344.6z M1349.8,344.6h-3.4v-3.4h3.4V344.6z M1332.6,344.6h-3.4v-3.4h3.4V344.6z M1315.5,344.6h-3.4v-3.4h3.4V344.6z
									 M1298.3,344.6h-3.4v-3.4h3.4V344.6z M1281.1,344.6h-3.4v-3.4h3.4V344.6z M1263.9,344.6h-3.4v-3.4h3.4V344.6z M1246.7,344.6
									h-3.4v-3.4h3.4V344.6z M1229.5,344.6h-3.4v-3.4h3.4V344.6z M1212.4,344.6h-3.4v-3.4h3.4V344.6z M1195.2,344.6h-3.4v-3.4h3.4
									V344.6z M1178,344.6h-3.4v-3.4h3.4V344.6z M1160.8,344.6h-3.4v-3.4h3.4V344.6z M1143.6,344.6h-3.4v-3.4h3.4V344.6z
									 M1126.4,344.6h-3.4v-3.4h3.4V344.6z M1367,327.4h-3.4V324h3.4V327.4z M1349.8,327.4h-3.4V324h3.4V327.4z M1332.6,327.4
									h-3.4V324h3.4V327.4z M1315.5,327.4h-3.4V324h3.4V327.4z M1298.3,327.4h-3.4V324h3.4V327.4z M1281.1,327.4h-3.4V324h3.4
									V327.4z M1263.9,327.4h-3.4V324h3.4V327.4z M1246.7,327.4h-3.4V324h3.4V327.4z M1229.5,327.4h-3.4V324h3.4V327.4z
									 M1212.4,327.4h-3.4V324h3.4V327.4z M1195.2,327.4h-3.4V324h3.4V327.4z M1178,327.4h-3.4V324h3.4V327.4z M1160.8,327.4h-3.4
									V324h3.4V327.4z M1143.6,327.4h-3.4V324h3.4V327.4z M1126.4,327.4h-3.4V324h3.4V327.4z M1367,311.1h-3.4v-3.4h3.4V311.1z
									 M1349.8,311.1h-3.4v-3.4h3.4V311.1z M1332.6,311.1h-3.4v-3.4h3.4V311.1z M1315.5,311.1h-3.4v-3.4h3.4V311.1z M1298.3,311.1
									h-3.4v-3.4h3.4V311.1z M1281.1,311.1h-3.4v-3.4h3.4V311.1z M1263.9,311.1h-3.4v-3.4h3.4V311.1z M1246.7,311.1h-3.4v-3.4h3.4
									V311.1z M1229.5,311.1h-3.4v-3.4h3.4V311.1z M1212.4,311.1h-3.4v-3.4h3.4V311.1z M1195.2,311.1h-3.4v-3.4h3.4V311.1z
									 M1178,311.1h-3.4v-3.4h3.4V311.1z M1160.8,311.1h-3.4v-3.4h3.4V311.1z M1143.6,311.1h-3.4v-3.4h3.4V311.1z M1126.4,311.1
									h-3.4v-3.4h3.4V311.1z M1367,293.9h-3.4v-3.4h3.4V293.9z M1349.8,293.9h-3.4v-3.4h3.4V293.9z M1332.6,293.9h-3.4v-3.4h3.4
									V293.9z M1315.5,293.9h-3.4v-3.4h3.4V293.9z M1298.3,293.9h-3.4v-3.4h3.4V293.9z M1281.1,293.9h-3.4v-3.4h3.4V293.9z
									 M1263.9,293.9h-3.4v-3.4h3.4V293.9z M1246.7,293.9h-3.4v-3.4h3.4V293.9z M1229.5,293.9h-3.4v-3.4h3.4V293.9z M1212.4,293.9
									h-3.4v-3.4h3.4V293.9z M1195.2,293.9h-3.4v-3.4h3.4V293.9z M1178,293.9h-3.4v-3.4h3.4V293.9z M1160.8,293.9h-3.4v-3.4h3.4
									V293.9z M1143.6,293.9h-3.4v-3.4h3.4V293.9z M1126.4,293.9h-3.4v-3.4h3.4V293.9z M1367,276.7h-3.4v-3.4h3.4V276.7z
									 M1349.8,276.7h-3.4v-3.4h3.4V276.7z M1332.6,276.7h-3.4v-3.4h3.4V276.7z M1315.5,276.7h-3.4v-3.4h3.4V276.7z M1298.3,276.7
									h-3.4v-3.4h3.4V276.7z M1281.1,276.7h-3.4v-3.4h3.4V276.7z M1263.9,276.7h-3.4v-3.4h3.4V276.7z M1246.7,276.7h-3.4v-3.4h3.4
									V276.7z M1229.5,276.7h-3.4v-3.4h3.4V276.7z M1212.4,276.7h-3.4v-3.4h3.4V276.7z M1195.2,276.7h-3.4v-3.4h3.4V276.7z
									 M1178,276.7h-3.4v-3.4h3.4V276.7z M1160.8,276.7h-3.4v-3.4h3.4V276.7z M1143.6,276.7h-3.4v-3.4h3.4V276.7z M1126.4,276.7
									h-3.4v-3.4h3.4V276.7z M1367,259.5h-3.4v-3.4h3.4V259.5z M1349.8,259.5h-3.4v-3.4h3.4V259.5z M1332.6,259.5h-3.4v-3.4h3.4
									V259.5z M1315.5,259.5h-3.4v-3.4h3.4V259.5z M1298.3,259.5h-3.4v-3.4h3.4V259.5z M1281.1,259.5h-3.4v-3.4h3.4V259.5z
									 M1263.9,259.5h-3.4v-3.4h3.4V259.5z M1246.7,259.5h-3.4v-3.4h3.4V259.5z M1229.5,259.5h-3.4v-3.4h3.4V259.5z M1212.4,259.5
									h-3.4v-3.4h3.4V259.5z M1195.2,259.5h-3.4v-3.4h3.4V259.5z M1178,259.5h-3.4v-3.4h3.4V259.5z M1160.8,259.5h-3.4v-3.4h3.4
									V259.5z M1143.6,259.5h-3.4v-3.4h3.4V259.5z M1126.4,259.5h-3.4v-3.4h3.4V259.5z M1367,242.4h-3.4v-3.4h3.4V242.4z
									 M1349.8,242.4h-3.4v-3.4h3.4V242.4z M1332.6,242.4h-3.4v-3.4h3.4V242.4z M1315.5,242.4h-3.4v-3.4h3.4V242.4z M1298.3,242.4
									h-3.4v-3.4h3.4V242.4z M1281.1,242.4h-3.4v-3.4h3.4V242.4z M1263.9,242.4h-3.4v-3.4h3.4V242.4z M1246.7,242.4h-3.4v-3.4h3.4
									V242.4z M1229.5,242.4h-3.4v-3.4h3.4V242.4z M1212.4,242.4h-3.4v-3.4h3.4V242.4z M1195.2,242.4h-3.4v-3.4h3.4V242.4z
									 M1178,242.4h-3.4v-3.4h3.4V242.4z M1160.8,242.4h-3.4v-3.4h3.4V242.4z M1143.6,242.4h-3.4v-3.4h3.4V242.4z M1126.4,242.4
									h-3.4v-3.4h3.4V242.4z M1367,225.2h-3.4v-3.4h3.4V225.2z M1349.8,225.2h-3.4v-3.4h3.4V225.2z M1332.6,225.2h-3.4v-3.4h3.4
									V225.2z M1315.5,225.2h-3.4v-3.4h3.4V225.2z M1298.3,225.2h-3.4v-3.4h3.4V225.2z M1281.1,225.2h-3.4v-3.4h3.4V225.2z
									 M1263.9,225.2h-3.4v-3.4h3.4V225.2z M1246.7,225.2h-3.4v-3.4h3.4V225.2z M1229.5,225.2h-3.4v-3.4h3.4V225.2z M1212.4,225.2
									h-3.4v-3.4h3.4V225.2z M1195.2,225.2h-3.4v-3.4h3.4V225.2z M1178,225.2h-3.4v-3.4h3.4V225.2z M1160.8,225.2h-3.4v-3.4h3.4
									V225.2z M1143.6,225.2h-3.4v-3.4h3.4V225.2z M1126.4,225.2h-3.4v-3.4h3.4V225.2z M1367,208h-3.4v-3.4h3.4V208z M1349.8,208
									h-3.4v-3.4h3.4V208z M1332.6,208h-3.4v-3.4h3.4V208z M1315.5,208h-3.4v-3.4h3.4V208z M1298.3,208h-3.4v-3.4h3.4V208z
									 M1281.1,208h-3.4v-3.4h3.4V208z M1263.9,208h-3.4v-3.4h3.4V208z M1246.7,208h-3.4v-3.4h3.4V208z M1229.5,208h-3.4v-3.4h3.4
									V208z M1212.4,208h-3.4v-3.4h3.4V208z M1195.2,208h-3.4v-3.4h3.4V208z M1178,208h-3.4v-3.4h3.4V208z M1160.8,208h-3.4v-3.4
									h3.4V208z M1143.6,208h-3.4v-3.4h3.4V208z M1126.4,208h-3.4v-3.4h3.4V208z M1367,190.8h-3.4v-3.4h3.4V190.8z M1349.8,190.8
									h-3.4v-3.4h3.4V190.8z M1332.6,190.8h-3.4v-3.4h3.4V190.8z M1315.5,190.8h-3.4v-3.4h3.4V190.8z M1298.3,190.8h-3.4v-3.4h3.4
									V190.8z M1281.1,190.8h-3.4v-3.4h3.4V190.8z M1263.9,190.8h-3.4v-3.4h3.4V190.8z M1246.7,190.8h-3.4v-3.4h3.4V190.8z
									 M1229.5,190.8h-3.4v-3.4h3.4V190.8z M1212.4,190.8h-3.4v-3.4h3.4V190.8z M1195.2,190.8h-3.4v-3.4h3.4V190.8z M1178,190.8
									h-3.4v-3.4h3.4V190.8z M1160.8,190.8h-3.4v-3.4h3.4V190.8z M1143.6,190.8h-3.4v-3.4h3.4V190.8z M1126.4,190.8h-3.4v-3.4h3.4
									V190.8z M1367,173.6h-3.4v-3.4h3.4V173.6z M1349.8,173.6h-3.4v-3.4h3.4V173.6z M1332.6,173.6h-3.4v-3.4h3.4V173.6z
									 M1315.5,173.6h-3.4v-3.4h3.4V173.6z M1298.3,173.6h-3.4v-3.4h3.4V173.6z M1281.1,173.6h-3.4v-3.4h3.4V173.6z M1263.9,173.6
									h-3.4v-3.4h3.4V173.6z M1246.7,173.6h-3.4v-3.4h3.4V173.6z M1229.5,173.6h-3.4v-3.4h3.4V173.6z M1212.4,173.6h-3.4v-3.4h3.4
									V173.6z M1195.2,173.6h-3.4v-3.4h3.4V173.6z M1178,173.6h-3.4v-3.4h3.4V173.6z M1160.8,173.6h-3.4v-3.4h3.4V173.6z
									 M1143.6,173.6h-3.4v-3.4h3.4V173.6z M1126.4,173.6h-3.4v-3.4h3.4V173.6z M1367,156.4h-3.4V153h3.4V156.4z M1349.8,156.4
									h-3.4V153h3.4V156.4z M1332.6,156.4h-3.4V153h3.4V156.4z M1315.5,156.4h-3.4V153h3.4V156.4z M1298.3,156.4h-3.4V153h3.4
									V156.4z M1281.1,156.4h-3.4V153h3.4V156.4z M1263.9,156.4h-3.4V153h3.4V156.4z M1246.7,156.4h-3.4V153h3.4V156.4z
									 M1229.5,156.4h-3.4V153h3.4V156.4z M1212.4,156.4h-3.4V153h3.4V156.4z M1195.2,156.4h-3.4V153h3.4V156.4z M1178,156.4h-3.4
									V153h3.4V156.4z M1160.8,156.4h-3.4V153h3.4V156.4z M1143.6,156.4h-3.4V153h3.4V156.4z M1126.4,156.4h-3.4V153h3.4V156.4z"
									/>
							</g>
						</g>
					</g>
				</g>
			</g>
		</g>
	</g>
</g>
</svg>
