<?xml version="1.0" encoding="utf-8"?>
<!-- Generator: Adobe Illustrator 22.1.0, SVG Export Plug-In . SVG Version: 6.00 Build 0)  -->
<svg version="1.1" id="Layer_1" xmlns="http://www.w3.org/2000/svg" xmlns:xlink="http://www.w3.org/1999/xlink" x="0px" y="0px"
	 viewBox="0 0 1440 1104" style="enable-background:new 0 0 1440 1104;" xml:space="preserve">
<style type="text/css">
	.st0{clip-path:url(#SVGID_2_);}
	.st1{opacity:0.3213;fill:#6FD84F;enable-background:new    ;}
	.st2{opacity:0.4533;fill:#A7FF81;enable-background:new    ;}
	.st3{clip-path:url(#SVGID_2_);fill:url(#Path_1_1_);}
	.st4{clip-path:url(#SVGID_2_);fill:url(#Combined-Shape_1_);}
	.st5{clip-path:url(#SVGID_2_);fill:url(#Combined-Shape-Copy_1_);}
</style>
<g>
	<g>
		<defs>
			<rect id="SVGID_1_" y="0.9" width="1440" height="1102.3"/>
		</defs>
		<clipPath id="SVGID_2_">
			<use xlink:href="#SVGID_1_"  style="overflow:visible;"/>
		</clipPath>
		<g class="st0">
			<polygon id="Path" class="st1" points="1038.7,280.4 802.4,110.5 1123.3,-30.6 1359.6,139.3 			"/>
			<polygon id="Path_1_" class="st2" points="1036.3,310.1 800,140.2 1120.9,-0.9 1357.2,169 			"/>
		</g>
		
			<linearGradient id="Path_1_1_" gradientUnits="userSpaceOnUse" x1="370.8849" y1="901.1732" x2="371.2145" y2="900.6116" gradientTransform="matrix(-676.1208 0 0 549 250950.8281 -493817)">
			<stop  offset="0" style="stop-color:#75DB4F;stop-opacity:0"/>
			<stop  offset="1" style="stop-color:#75DB4F"/>
		</linearGradient>
		<polygon id="Path_1" class="st3" points="576.3,1037.5 361.1,1037.5 238.3,829.4 115.4,1037.5 -99.8,1037.5 238.3,488.5 		"/>
		
			<linearGradient id="Combined-Shape_1_" gradientUnits="userSpaceOnUse" x1="625.0951" y1="492.2573" x2="902.4753" y2="272.2557" gradientTransform="matrix(1 6.354295e-03 6.354295e-03 -1 -309.3923 778.3668)">
			<stop  offset="0" style="stop-color:#9AFF93"/>
			<stop  offset="1" style="stop-color:#28B655;stop-opacity:0.4929"/>
		</linearGradient>
		<path id="Combined-Shape" class="st4" d="M321.8,551.7l3.4,0l0,3.4l-3.4,0L321.8,551.7z M339,551.8l3.4,0l0,3.4l-3.4,0L339,551.8z
			 M356.2,551.9l3.4,0l0,3.4l-3.4,0L356.2,551.9z M373.3,552l3.4,0l0,3.4l-3.4,0L373.3,552z M390.5,552.1l3.4,0l0,3.4l-3.4,0
			L390.5,552.1z M407.7,552.2l3.4,0l0,3.4l-3.4,0L407.7,552.2z M424.9,552.3l3.4,0l0,3.4l-3.4,0L424.9,552.3z M442.1,552.4l3.4,0
			l0,3.4l-3.4,0L442.1,552.4z M459.3,552.5l3.4,0l0,3.4l-3.4,0L459.3,552.5z M476.4,552.6l3.4,0l0,3.4l-3.4,0L476.4,552.6z
			 M493.6,552.8l3.4,0l0,3.4l-3.4,0L493.6,552.8z M510.8,552.9l3.4,0l0,3.4l-3.4,0L510.8,552.9z M528,553l3.4,0l0,3.4l-3.4,0
			L528,553z M545.2,553.1l3.4,0l0,3.4l-3.4,0L545.2,553.1z M562.3,553.2l3.4,0l0,3.4l-3.4,0L562.3,553.2z M321.9,534.5l3.4,0l0,3.4
			l-3.4,0L321.9,534.5z M339.1,534.6l3.4,0l0,3.4l-3.4,0L339.1,534.6z M356.3,534.7l3.4,0l0,3.4l-3.4,0L356.3,534.7z M373.4,534.8
			l3.4,0l0,3.4l-3.4,0L373.4,534.8z M390.6,534.9l3.4,0l0,3.4l-3.4,0L390.6,534.9z M407.8,535l3.4,0l0,3.4l-3.4,0L407.8,535z
			 M425,535.1l3.4,0l0,3.4l-3.4,0L425,535.1z M442.2,535.2l3.4,0l0,3.4l-3.4,0L442.2,535.2z M459.4,535.4l3.4,0l0,3.4l-3.4,0
			L459.4,535.4z M476.5,535.5l3.4,0l0,3.4l-3.4,0L476.5,535.5z M493.7,535.6l3.4,0l0,3.4l-3.4,0L493.7,535.6z M510.9,535.7l3.4,0
			l0,3.4l-3.4,0L510.9,535.7z M528.1,535.8l3.4,0l0,3.4l-3.4,0L528.1,535.8z M545.3,535.9l3.4,0l0,3.4l-3.4,0L545.3,535.9z
			 M562.5,536l3.4,0l0,3.4l-3.4,0L562.5,536z M322,517.3l3.4,0l0,3.4l-3.4,0L322,517.3z M339.2,517.4l3.4,0l0,3.4l-3.4,0
			L339.2,517.4z M356.4,517.5l3.4,0l0,3.4l-3.4,0L356.4,517.5z M373.6,517.6l3.4,0l0,3.4l-3.4,0L373.6,517.6z M390.7,517.7l3.4,0
			l0,3.4l-3.4,0L390.7,517.7z M407.9,517.8l3.4,0l0,3.4l-3.4,0L407.9,517.8z M425.1,518l3.4,0l0,3.4l-3.4,0L425.1,518z M442.3,518.1
			l3.4,0l0,3.4l-3.4,0L442.3,518.1z M459.5,518.2l3.4,0l0,3.4l-3.4,0L459.5,518.2z M476.7,518.3l3.4,0l0,3.4l-3.4,0L476.7,518.3z
			 M493.8,518.4l3.4,0l0,3.4l-3.4,0L493.8,518.4z M511,518.5l3.4,0l0,3.4l-3.4,0L511,518.5z M528.2,518.6l3.4,0l0,3.4l-3.4,0
			L528.2,518.6z M545.4,518.7l3.4,0l0,3.4l-3.4,0L545.4,518.7z M562.6,518.8l3.4,0l0,3.4l-3.4,0L562.6,518.8z M322.1,500.1l3.4,0
			l0,3.4l-3.4,0L322.1,500.1z M339.3,500.2l3.4,0l0,3.4l-3.4,0L339.3,500.2z M356.5,500.3l3.4,0l0,3.4l-3.4,0L356.5,500.3z
			 M373.7,500.4l3.4,0l0,3.4l-3.4,0L373.7,500.4z M390.8,500.5l3.4,0l0,3.4l-3.4,0L390.8,500.5z M408,500.7l3.4,0l0,3.4l-3.4,0
			L408,500.7z M425.2,500.8l3.4,0l0,3.4l-3.4,0L425.2,500.8z M442.4,500.9l3.4,0l0,3.4l-3.4,0L442.4,500.9z M459.6,501l3.4,0l0,3.4
			l-3.4,0L459.6,501z M476.8,501.1l3.4,0l0,3.4l-3.4,0L476.8,501.1z M493.9,501.2l3.4,0l0,3.4l-3.4,0L493.9,501.2z M511.1,501.3
			l3.4,0l0,3.4l-3.4,0L511.1,501.3z M528.3,501.4l3.4,0l0,3.4l-3.4,0L528.3,501.4z M545.5,501.5l3.4,0l0,3.4l-3.4,0L545.5,501.5z
			 M562.7,501.6l3.4,0l0,3.4l-3.4,0L562.7,501.6z M322.2,482.9l3.4,0l0,3.4l-3.4,0L322.2,482.9z M339.4,483l3.4,0l0,3.4l-3.4,0
			L339.4,483z M356.6,483.1l3.4,0l0,3.4l-3.4,0L356.6,483.1z M373.8,483.3l3.4,0l0,3.4l-3.4,0L373.8,483.3z M391,483.4l3.4,0l0,3.4
			l-3.4,0L391,483.4z M408.1,483.5l3.4,0l0,3.4l-3.4,0L408.1,483.5z M425.3,483.6l3.4,0l0,3.4l-3.4,0L425.3,483.6z M442.5,483.7
			l3.4,0l0,3.4l-3.4,0L442.5,483.7z M459.7,483.8l3.4,0l0,3.4l-3.4,0L459.7,483.8z M476.9,483.9l3.4,0l0,3.4l-3.4,0L476.9,483.9z
			 M494.1,484l3.4,0l0,3.4l-3.4,0L494.1,484z M511.2,484.1l3.4,0l0,3.4l-3.4,0L511.2,484.1z M528.4,484.2l3.4,0l0,3.4l-3.4,0
			L528.4,484.2z M545.6,484.3l3.4,0l0,3.4l-3.4,0L545.6,484.3z M562.8,484.5l3.4,0l0,3.4l-3.4,0L562.8,484.5z M322.3,465.7l3.4,0
			l0,3.4l-3.4,0L322.3,465.7z M339.5,465.9l3.4,0l0,3.4l-3.4,0L339.5,465.9z M356.7,466l3.4,0l0,3.4l-3.4,0L356.7,466z M373.9,466.1
			l3.4,0l0,3.4l-3.4,0L373.9,466.1z M391.1,466.2l3.4,0l0,3.4l-3.4,0L391.1,466.2z M408.3,466.3l3.4,0l0,3.4l-3.4,0L408.3,466.3z
			 M425.4,466.4l3.4,0l0,3.4l-3.4,0L425.4,466.4z M442.6,466.5l3.4,0l0,3.4l-3.4,0L442.6,466.5z M459.8,466.6l3.4,0l0,3.4l-3.4,0
			L459.8,466.6z M477,466.7l3.4,0l0,3.4l-3.4,0L477,466.7z M494.2,466.8l3.4,0l0,3.4l-3.4,0L494.2,466.8z M511.3,466.9l3.4,0l0,3.4
			l-3.4,0L511.3,466.9z M528.5,467.1l3.4,0l0,3.4l-3.4,0L528.5,467.1z M545.7,467.2l3.4,0l0,3.4l-3.4,0L545.7,467.2z M562.9,467.3
			l3.4,0l0,3.4l-3.4,0L562.9,467.3z M322.4,448.6l3.4,0l0,3.4l-3.4,0L322.4,448.6z M339.6,448.7l3.4,0l0,3.4l-3.4,0L339.6,448.7z
			 M356.8,448.8l3.4,0l0,3.4l-3.4,0L356.8,448.8z M374,448.9l3.4,0l0,3.4l-3.4,0L374,448.9z M391.2,449l3.4,0l0,3.4l-3.4,0
			L391.2,449z M408.4,449.1l3.4,0l0,3.4l-3.4,0L408.4,449.1z M425.5,449.2l3.4,0l0,3.4l-3.4,0L425.5,449.2z M442.7,449.3l3.4,0
			l0,3.4l-3.4,0L442.7,449.3z M459.9,449.4l3.4,0l0,3.4l-3.4,0L459.9,449.4z M477.1,449.5l3.4,0l0,3.4l-3.4,0L477.1,449.5z
			 M494.3,449.7l3.4,0l0,3.4l-3.4,0L494.3,449.7z M511.5,449.8l3.4,0l0,3.4l-3.4,0L511.5,449.8z M528.6,449.9l3.4,0l0,3.4l-3.4,0
			L528.6,449.9z M545.8,450l3.4,0l0,3.4l-3.4,0L545.8,450z M563,450.1l3.4,0l0,3.4l-3.4,0L563,450.1z M322.6,431.4l3.4,0l0,3.4
			l-3.4,0L322.6,431.4z M339.7,431.5l3.4,0l0,3.4l-3.4,0L339.7,431.5z M356.9,431.6l3.4,0l0,3.4l-3.4,0L356.9,431.6z M374.1,431.7
			l3.4,0l0,3.4l-3.4,0L374.1,431.7z M391.3,431.8l3.4,0l0,3.4l-3.4,0L391.3,431.8z M408.5,431.9l3.4,0l0,3.4l-3.4,0L408.5,431.9z
			 M425.7,432l3.4,0l0,3.4l-3.4,0L425.7,432z M442.8,432.1l3.4,0l0,3.4l-3.4,0L442.8,432.1z M460,432.3l3.4,0l0,3.4l-3.4,0
			L460,432.3z M477.2,432.4l3.4,0l0,3.4l-3.4,0L477.2,432.4z M494.4,432.5l3.4,0l0,3.4l-3.4,0L494.4,432.5z M511.6,432.6l3.4,0
			l0,3.4l-3.4,0L511.6,432.6z M528.7,432.7l3.4,0l0,3.4l-3.4,0L528.7,432.7z M545.9,432.8l3.4,0l0,3.4l-3.4,0L545.9,432.8z
			 M563.1,432.9l3.4,0l0,3.4l-3.4,0L563.1,432.9z M322.7,414.2l3.4,0l0,3.4l-3.4,0L322.7,414.2z M339.8,414.3l3.4,0l0,3.4l-3.4,0
			L339.8,414.3z M357,414.4l3.4,0l0,3.4l-3.4,0L357,414.4z M374.2,414.5l3.4,0l0,3.4l-3.4,0L374.2,414.5z M391.4,414.6l3.4,0l0,3.4
			l-3.4,0L391.4,414.6z M408.6,414.7l3.4,0l0,3.4l-3.4,0L408.6,414.7z M425.8,414.9l3.4,0l0,3.4l-3.4,0L425.8,414.9z M442.9,415
			l3.4,0l0,3.4l-3.4,0L442.9,415z M460.1,415.1l3.4,0l0,3.4l-3.4,0L460.1,415.1z M477.3,415.2l3.4,0l0,3.4l-3.4,0L477.3,415.2z
			 M494.5,415.3l3.4,0l0,3.4l-3.4,0L494.5,415.3z M511.7,415.4l3.4,0l0,3.4l-3.4,0L511.7,415.4z M528.9,415.5l3.4,0l0,3.4l-3.4,0
			L528.9,415.5z M546,415.6l3.4,0l0,3.4l-3.4,0L546,415.6z M563.2,415.7l3.4,0l0,3.4l-3.4,0L563.2,415.7z M322.8,397l3.4,0l0,3.4
			l-3.4,0L322.8,397z M340,397.1l3.4,0l0,3.4l-3.4,0L340,397.1z M357.1,397.2l3.4,0l0,3.4l-3.4,0L357.1,397.2z M374.3,397.3l3.4,0
			l0,3.4l-3.4,0L374.3,397.3z M391.5,397.5l3.4,0l0,3.4l-3.4,0L391.5,397.5z M408.7,397.6l3.4,0l0,3.4l-3.4,0L408.7,397.6z
			 M425.9,397.7l3.4,0l0,3.4l-3.4,0L425.9,397.7z M443.1,397.8l3.4,0l0,3.4l-3.4,0L443.1,397.8z M460.2,397.9l3.4,0l0,3.4l-3.4,0
			L460.2,397.9z M477.4,398l3.4,0l0,3.4l-3.4,0L477.4,398z M494.6,398.1l3.4,0l0,3.4l-3.4,0L494.6,398.1z M511.8,398.2l3.4,0l0,3.4
			l-3.4,0L511.8,398.2z M529,398.3l3.4,0l0,3.4l-3.4,0L529,398.3z M546.1,398.4l3.4,0l0,3.4l-3.4,0L546.1,398.4z M563.3,398.5l3.4,0
			l0,3.4l-3.4,0L563.3,398.5z M322.9,380.7l3.4,0l0,3.4l-3.4,0L322.9,380.7z M340.1,380.8l3.4,0l0,3.4l-3.4,0L340.1,380.8z
			 M357.2,380.9l3.4,0l0,3.4l-3.4,0L357.2,380.9z M374.4,381l3.4,0l0,3.4l-3.4,0L374.4,381z M391.6,381.1l3.4,0l0,3.4l-3.4,0
			L391.6,381.1z M408.8,381.2l3.4,0l0,3.4l-3.4,0L408.8,381.2z M426,381.3l3.4,0l0,3.4l-3.4,0L426,381.3z M443.2,381.4l3.4,0l0,3.4
			l-3.4,0L443.2,381.4z M460.3,381.5l3.4,0l0,3.4l-3.4,0L460.3,381.5z M477.5,381.6l3.4,0l0,3.4l-3.4,0L477.5,381.6z M494.7,381.8
			l3.4,0l0,3.4l-3.4,0L494.7,381.8z M511.9,381.9l3.4,0l0,3.4l-3.4,0L511.9,381.9z M529.1,382l3.4,0l0,3.4l-3.4,0L529.1,382z
			 M546.3,382.1l3.4,0l0,3.4l-3.4,0L546.3,382.1z M563.4,382.2l3.4,0l0,3.4l-3.4,0L563.4,382.2z M323,363.5l3.4,0l0,3.4l-3.4,0
			L323,363.5z M340.2,363.6l3.4,0l0,3.4l-3.4,0L340.2,363.6z M357.4,363.7l3.4,0l0,3.4l-3.4,0L357.4,363.7z M374.5,363.8l3.4,0
			l0,3.4l-3.4,0L374.5,363.8z M391.7,363.9l3.4,0l0,3.4l-3.4,0L391.7,363.9z M408.9,364l3.4,0l0,3.4l-3.4,0L408.9,364z M426.1,364.1
			l3.4,0l0,3.4l-3.4,0L426.1,364.1z M443.3,364.2l3.4,0l0,3.4l-3.4,0L443.3,364.2z M460.4,364.4l3.4,0l0,3.4l-3.4,0L460.4,364.4z
			 M477.6,364.5l3.4,0l0,3.4l-3.4,0L477.6,364.5z M494.8,364.6l3.4,0l0,3.4l-3.4,0L494.8,364.6z M512,364.7l3.4,0l0,3.4l-3.4,0
			L512,364.7z M529.2,364.8l3.4,0l0,3.4l-3.4,0L529.2,364.8z M546.4,364.9l3.4,0l0,3.4l-3.4,0L546.4,364.9z M563.5,365l3.4,0l0,3.4
			l-3.4,0L563.5,365z M323.1,346.3l3.4,0l0,3.4l-3.4,0L323.1,346.3z M340.3,346.4l3.4,0l0,3.4l-3.4,0L340.3,346.4z M357.5,346.5
			l3.4,0l0,3.4l-3.4,0L357.5,346.5z M374.6,346.6l3.4,0l0,3.4l-3.4,0L374.6,346.6z M391.8,346.7l3.4,0l0,3.4l-3.4,0L391.8,346.7z
			 M409,346.8l3.4,0l0,3.4l-3.4,0L409,346.8z M426.2,347l3.4,0l0,3.4l-3.4,0L426.2,347z M443.4,347.1l3.4,0l0,3.4l-3.4,0
			L443.4,347.1z M460.6,347.2l3.4,0l0,3.4l-3.4,0L460.6,347.2z M477.7,347.3l3.4,0l0,3.4l-3.4,0L477.7,347.3z M494.9,347.4l3.4,0
			l0,3.4l-3.4,0L494.9,347.4z M512.1,347.5l3.4,0l0,3.4l-3.4,0L512.1,347.5z M529.3,347.6l3.4,0l0,3.4l-3.4,0L529.3,347.6z
			 M546.5,347.7l3.4,0l0,3.4l-3.4,0L546.5,347.7z M563.7,347.8l3.4,0l0,3.4l-3.4,0L563.7,347.8z M323.2,329.1l3.4,0l0,3.4l-3.4,0
			L323.2,329.1z M340.4,329.2l3.4,0l0,3.4l-3.4,0L340.4,329.2z M357.6,329.3l3.4,0l0,3.4l-3.4,0L357.6,329.3z M374.8,329.4l3.4,0
			l0,3.4l-3.4,0L374.8,329.4z M391.9,329.6l3.4,0l0,3.4l-3.4,0L391.9,329.6z M409.1,329.7l3.4,0l0,3.4l-3.4,0L409.1,329.7z
			 M426.3,329.8l3.4,0l0,3.4l-3.4,0L426.3,329.8z M443.5,329.9l3.4,0l0,3.4l-3.4,0L443.5,329.9z M460.7,330l3.4,0l0,3.4l-3.4,0
			L460.7,330z M477.9,330.1l3.4,0l0,3.4l-3.4,0L477.9,330.1z M495,330.2l3.4,0l0,3.4l-3.4,0L495,330.2z M512.2,330.3l3.4,0l0,3.4
			l-3.4,0L512.2,330.3z M529.4,330.4l3.4,0l0,3.4l-3.4,0L529.4,330.4z M546.6,330.5l3.4,0l0,3.4l-3.4,0L546.6,330.5z M563.8,330.6
			l3.4,0l0,3.4l-3.4,0L563.8,330.6z M323.3,311.9l3.4,0l0,3.4l-3.4,0L323.3,311.9z M340.5,312l3.4,0l0,3.4l-3.4,0L340.5,312z
			 M357.7,312.2l3.4,0l0,3.4l-3.4,0L357.7,312.2z M374.9,312.3l3.4,0l0,3.4l-3.4,0L374.9,312.3z M392,312.4l3.4,0l0,3.4l-3.4,0
			L392,312.4z M409.2,312.5l3.4,0l0,3.4l-3.4,0L409.2,312.5z M426.4,312.6l3.4,0l0,3.4l-3.4,0L426.4,312.6z M443.6,312.7l3.4,0
			l0,3.4l-3.4,0L443.6,312.7z M460.8,312.8l3.4,0l0,3.4l-3.4,0L460.8,312.8z M478,312.9l3.4,0l0,3.4l-3.4,0L478,312.9z M495.1,313
			l3.4,0l0,3.4l-3.4,0L495.1,313z M512.3,313.1l3.4,0l0,3.4l-3.4,0L512.3,313.1z M529.5,313.2l3.4,0l0,3.4l-3.4,0L529.5,313.2z
			 M546.7,313.4l3.4,0l0,3.4l-3.4,0L546.7,313.4z M563.9,313.5l3.4,0l0,3.4l-3.4,0L563.9,313.5z M323.4,294.8l3.4,0l0,3.4l-3.4,0
			L323.4,294.8z M340.6,294.9l3.4,0l0,3.4l-3.4,0L340.6,294.9z M357.8,295l3.4,0l0,3.4l-3.4,0L357.8,295z M375,295.1l3.4,0l0,3.4
			l-3.4,0L375,295.1z M392.2,295.2l3.4,0l0,3.4l-3.4,0L392.2,295.2z M409.3,295.3l3.4,0l0,3.4l-3.4,0L409.3,295.3z M426.5,295.4
			l3.4,0l0,3.4l-3.4,0L426.5,295.4z M443.7,295.5l3.4,0l0,3.4l-3.4,0L443.7,295.5z M460.9,295.6l3.4,0l0,3.4l-3.4,0L460.9,295.6z
			 M478.1,295.7l3.4,0l0,3.4l-3.4,0L478.1,295.7z M495.3,295.8l3.4,0l0,3.4l-3.4,0L495.3,295.8z M512.4,296l3.4,0l0,3.4l-3.4,0
			L512.4,296z M529.6,296.1l3.4,0l0,3.4l-3.4,0L529.6,296.1z M546.8,296.2l3.4,0l0,3.4l-3.4,0L546.8,296.2z M564,296.3l3.4,0l0,3.4
			l-3.4,0L564,296.3z M323.5,277.6l3.4,0l0,3.4l-3.4,0L323.5,277.6z M340.7,277.7l3.4,0l0,3.4l-3.4,0L340.7,277.7z M357.9,277.8
			l3.4,0l0,3.4l-3.4,0L357.9,277.8z M375.1,277.9l3.4,0l0,3.4l-3.4,0L375.1,277.9z M392.3,278l3.4,0l0,3.4l-3.4,0L392.3,278z
			 M409.4,278.1l3.4,0l0,3.4l-3.4,0L409.4,278.1z M426.6,278.2l3.4,0l0,3.4l-3.4,0L426.6,278.2z M443.8,278.3l3.4,0l0,3.4l-3.4,0
			L443.8,278.3z M461,278.4l3.4,0l0,3.4l-3.4,0L461,278.4z M478.2,278.6l3.4,0l0,3.4l-3.4,0L478.2,278.6z M495.4,278.7l3.4,0l0,3.4
			l-3.4,0L495.4,278.7z M512.5,278.8l3.4,0l0,3.4l-3.4,0L512.5,278.8z M529.7,278.9l3.4,0l0,3.4l-3.4,0L529.7,278.9z M546.9,279
			l3.4,0l0,3.4l-3.4,0L546.9,279z M564.1,279.1l3.4,0l0,3.4l-3.4,0L564.1,279.1z M323.6,260.4l3.4,0l0,3.4l-3.4,0L323.6,260.4z
			 M340.8,260.5l3.4,0l0,3.4l-3.4,0L340.8,260.5z M358,260.6l3.4,0l0,3.4l-3.4,0L358,260.6z M375.2,260.7l3.4,0l0,3.4l-3.4,0
			L375.2,260.7z M392.4,260.8l3.4,0l0,3.4l-3.4,0L392.4,260.8z M409.6,260.9l3.4,0l0,3.4l-3.4,0L409.6,260.9z M426.7,261l3.4,0
			l0,3.4l-3.4,0L426.7,261z M443.9,261.1l3.4,0l0,3.4l-3.4,0L443.9,261.1z M461.1,261.3l3.4,0l0,3.4l-3.4,0L461.1,261.3z
			 M478.3,261.4l3.4,0l0,3.4l-3.4,0L478.3,261.4z M495.5,261.5l3.4,0l0,3.4l-3.4,0L495.5,261.5z M512.7,261.6l3.4,0l0,3.4l-3.4,0
			L512.7,261.6z M529.8,261.7l3.4,0l0,3.4l-3.4,0L529.8,261.7z M547,261.8l3.4,0l0,3.4l-3.4,0L547,261.8z M564.2,261.9l3.4,0l0,3.4
			l-3.4,0L564.2,261.9z M323.8,243.2l3.4,0l0,3.4l-3.4,0L323.8,243.2z M340.9,243.3l3.4,0l0,3.4l-3.4,0L340.9,243.3z M358.1,243.4
			l3.4,0l0,3.4l-3.4,0L358.1,243.4z M375.3,243.5l3.4,0l0,3.4l-3.4,0L375.3,243.5z M392.5,243.6l3.4,0l0,3.4l-3.4,0L392.5,243.6z
			 M409.7,243.7l3.4,0l0,3.4l-3.4,0L409.7,243.7z M426.8,243.9l3.4,0l0,3.4l-3.4,0L426.8,243.9z M444,244l3.4,0l0,3.4l-3.4,0
			L444,244z M461.2,244.1l3.4,0l0,3.4l-3.4,0L461.2,244.1z M478.4,244.2l3.4,0l0,3.4l-3.4,0L478.4,244.2z M495.6,244.3l3.4,0l0,3.4
			l-3.4,0L495.6,244.3z M512.8,244.4l3.4,0l0,3.4l-3.4,0L512.8,244.4z M529.9,244.5l3.4,0l0,3.4l-3.4,0L529.9,244.5z M547.1,244.6
			l3.4,0l0,3.4l-3.4,0L547.1,244.6z M564.3,244.7l3.4,0l0,3.4l-3.4,0L564.3,244.7z M323.9,226l3.4,0l0,3.4l-3.4,0L323.9,226z
			 M341,226.1l3.4,0l0,3.4l-3.4,0L341,226.1z M358.2,226.2l3.4,0l0,3.4l-3.4,0L358.2,226.2z M375.4,226.3l3.4,0l0,3.4l-3.4,0
			L375.4,226.3z M392.6,226.5l3.4,0l0,3.4l-3.4,0L392.6,226.5z M409.8,226.6l3.4,0l0,3.4l-3.4,0L409.8,226.6z M427,226.7l3.4,0
			l0,3.4l-3.4,0L427,226.7z M444.1,226.8l3.4,0l0,3.4l-3.4,0L444.1,226.8z M461.3,226.9l3.4,0l0,3.4l-3.4,0L461.3,226.9z M478.5,227
			l3.4,0l0,3.4l-3.4,0L478.5,227z M495.7,227.1l3.4,0l0,3.4l-3.4,0L495.7,227.1z M512.9,227.2l3.4,0l0,3.4l-3.4,0L512.9,227.2z
			 M530.1,227.3l3.4,0l0,3.4l-3.4,0L530.1,227.3z M547.2,227.4l3.4,0l0,3.4l-3.4,0L547.2,227.4z M564.4,227.5l3.4,0l0,3.4l-3.4,0
			L564.4,227.5z"/>
		
			<linearGradient id="Combined-Shape-Copy_1_" gradientUnits="userSpaceOnUse" x1="1024.4917" y1="1191.884" x2="1312.6411" y2="1003.7601" gradientTransform="matrix(1 -7.117787e-03 -7.117787e-03 -1 -2.7621 1835.8989)">
			<stop  offset="0" style="stop-color:#9AFF93"/>
			<stop  offset="1" style="stop-color:#28B655;stop-opacity:0.4929"/>
		</linearGradient>
		<path id="Combined-Shape-Copy" class="st5" d="M1295.7,578.7l-3.4,0l0-3.4l3.4,0L1295.7,578.7z M1278.5,578.8l-3.4,0l0-3.4l3.4,0
			L1278.5,578.8z M1261.3,578.9l-3.4,0l0-3.4l3.4,0L1261.3,578.9z M1244.1,579l-3.4,0l0-3.4l3.4,0L1244.1,579z M1226.9,579.1l-3.4,0
			l0-3.4l3.4,0L1226.9,579.1z M1209.8,579.3l-3.4,0l0-3.4l3.4,0L1209.8,579.3z M1192.6,579.4l-3.4,0l0-3.4l3.4,0L1192.6,579.4z
			 M1175.4,579.5l-3.4,0l0-3.4l3.4,0L1175.4,579.5z M1158.2,579.6l-3.4,0l0-3.4l3.4,0L1158.2,579.6z M1141,579.8l-3.4,0l0-3.4l3.4,0
			L1141,579.8z M1123.8,579.9l-3.4,0l0-3.4l3.4,0L1123.8,579.9z M1106.7,580l-3.4,0l0-3.4l3.4,0L1106.7,580z M1089.5,580.1l-3.4,0
			l0-3.4l3.4,0L1089.5,580.1z M1072.3,580.2l-3.4,0l0-3.4l3.4,0L1072.3,580.2z M1055.1,580.4l-3.4,0l0-3.4l3.4,0L1055.1,580.4z
			 M1295.8,595.8l-3.4,0l0-3.4l3.4,0L1295.8,595.8z M1278.6,596l-3.4,0l0-3.4l3.4,0L1278.6,596z M1261.4,596.1l-3.4,0l0-3.4l3.4,0
			L1261.4,596.1z M1244.2,596.2l-3.4,0l0-3.4l3.4,0L1244.2,596.2z M1227.1,596.3l-3.4,0l0-3.4l3.4,0L1227.1,596.3z M1209.9,596.5
			l-3.4,0l0-3.4l3.4,0L1209.9,596.5z M1192.7,596.6l-3.4,0l0-3.4l3.4,0L1192.7,596.6z M1175.5,596.7l-3.4,0l0-3.4l3.4,0
			L1175.5,596.7z M1158.3,596.8l-3.4,0l0-3.4l3.4,0L1158.3,596.8z M1141.2,596.9l-3.4,0l0-3.4l3.4,0L1141.2,596.9z M1124,597.1
			l-3.4,0l0-3.4l3.4,0L1124,597.1z M1106.8,597.2l-3.4,0l0-3.4l3.4,0L1106.8,597.2z M1089.6,597.3l-3.4,0l0-3.4l3.4,0L1089.6,597.3z
			 M1072.4,597.4l-3.4,0l0-3.4l3.4,0L1072.4,597.4z M1055.2,597.6l-3.4,0l0-3.4l3.4,0L1055.2,597.6z M1295.9,613l-3.4,0l0-3.4l3.4,0
			L1295.9,613z M1278.7,613.1l-3.4,0l0-3.4l3.4,0L1278.7,613.1z M1261.6,613.3l-3.4,0l0-3.4l3.4,0L1261.6,613.3z M1244.4,613.4
			l-3.4,0l0-3.4l3.4,0L1244.4,613.4z M1227.2,613.5l-3.4,0l0-3.4l3.4,0L1227.2,613.5z M1210,613.6l-3.4,0l0-3.4l3.4,0L1210,613.6z
			 M1192.8,613.8l-3.4,0l0-3.4l3.4,0L1192.8,613.8z M1175.6,613.9l-3.4,0l0-3.4l3.4,0L1175.6,613.9z M1158.5,614l-3.4,0l0-3.4l3.4,0
			L1158.5,614z M1141.3,614.1l-3.4,0l0-3.4l3.4,0L1141.3,614.1z M1124.1,614.2l-3.4,0l0-3.4l3.4,0L1124.1,614.2z M1106.9,614.4
			l-3.4,0l0-3.4l3.4,0L1106.9,614.4z M1089.7,614.5l-3.4,0l0-3.4l3.4,0L1089.7,614.5z M1072.5,614.6l-3.4,0l0-3.4l3.4,0
			L1072.5,614.6z M1055.4,614.7l-3.4,0l0-3.4l3.4,0L1055.4,614.7z M1296,630.2l-3.4,0l0-3.4l3.4,0L1296,630.2z M1278.9,630.3l-3.4,0
			l0-3.4l3.4,0L1278.9,630.3z M1261.7,630.4l-3.4,0l0-3.4l3.4,0L1261.7,630.4z M1244.5,630.6l-3.4,0l0-3.4l3.4,0L1244.5,630.6z
			 M1227.3,630.7l-3.4,0l0-3.4l3.4,0L1227.3,630.7z M1210.1,630.8l-3.4,0l0-3.4l3.4,0L1210.1,630.8z M1192.9,630.9l-3.4,0l0-3.4
			l3.4,0L1192.9,630.9z M1175.8,631.1l-3.4,0l0-3.4l3.4,0L1175.8,631.1z M1158.6,631.2l-3.4,0l0-3.4l3.4,0L1158.6,631.2z
			 M1141.4,631.3l-3.4,0l0-3.4l3.4,0L1141.4,631.3z M1124.2,631.4l-3.4,0l0-3.4l3.4,0L1124.2,631.4z M1107,631.5l-3.4,0l0-3.4l3.4,0
			L1107,631.5z M1089.8,631.7l-3.4,0l0-3.4l3.4,0L1089.8,631.7z M1072.7,631.8l-3.4,0l0-3.4l3.4,0L1072.7,631.8z M1055.5,631.9
			l-3.4,0l0-3.4l3.4,0L1055.5,631.9z M1296.2,647.4l-3.4,0l0-3.4l3.4,0L1296.2,647.4z M1279,647.5l-3.4,0l0-3.4l3.4,0L1279,647.5z
			 M1261.8,647.6l-3.4,0l0-3.4l3.4,0L1261.8,647.6z M1244.6,647.8l-3.4,0l0-3.4l3.4,0L1244.6,647.8z M1227.4,647.9l-3.4,0l0-3.4
			l3.4,0L1227.4,647.9z M1210.2,648l-3.4,0l0-3.4l3.4,0L1210.2,648z M1193.1,648.1l-3.4,0l0-3.4l3.4,0L1193.1,648.1z M1175.9,648.2
			l-3.4,0l0-3.4l3.4,0L1175.9,648.2z M1158.7,648.4l-3.4,0l0-3.4l3.4,0L1158.7,648.4z M1141.5,648.5l-3.4,0l0-3.4l3.4,0
			L1141.5,648.5z M1124.3,648.6l-3.4,0l0-3.4l3.4,0L1124.3,648.6z M1107.2,648.7l-3.4,0l0-3.4l3.4,0L1107.2,648.7z M1090,648.9
			l-3.4,0l0-3.4l3.4,0L1090,648.9z M1072.8,649l-3.4,0l0-3.4l3.4,0L1072.8,649z M1055.6,649.1l-3.4,0l0-3.4l3.4,0L1055.6,649.1z
			 M1296.3,664.6l-3.4,0l0-3.4l3.4,0L1296.3,664.6z M1279.1,664.7l-3.4,0l0-3.4l3.4,0L1279.1,664.7z M1261.9,664.8l-3.4,0l0-3.4
			l3.4,0L1261.9,664.8z M1244.7,664.9l-3.4,0l0-3.4l3.4,0L1244.7,664.9z M1227.6,665.1l-3.4,0l0-3.4l3.4,0L1227.6,665.1z
			 M1210.4,665.2l-3.4,0l0-3.4l3.4,0L1210.4,665.2z M1193.2,665.3l-3.4,0l0-3.4l3.4,0L1193.2,665.3z M1176,665.4l-3.4,0l0-3.4l3.4,0
			L1176,665.4z M1158.8,665.5l-3.4,0l0-3.4l3.4,0L1158.8,665.5z M1141.6,665.7l-3.4,0l0-3.4l3.4,0L1141.6,665.7z M1124.5,665.8
			l-3.4,0l0-3.4l3.4,0L1124.5,665.8z M1107.3,665.9l-3.4,0l0-3.4l3.4,0L1107.3,665.9z M1090.1,666l-3.4,0l0-3.4l3.4,0L1090.1,666z
			 M1072.9,666.2l-3.4,0l0-3.4l3.4,0L1072.9,666.2z M1055.7,666.3l-3.4,0l0-3.4l3.4,0L1055.7,666.3z M1296.4,681.8l-3.4,0l0-3.4
			l3.4,0L1296.4,681.8z M1279.2,681.9l-3.4,0l0-3.4l3.4,0L1279.2,681.9z M1262,682l-3.4,0l0-3.4l3.4,0L1262,682z M1244.9,682.1
			l-3.4,0l0-3.4l3.4,0L1244.9,682.1z M1227.7,682.2l-3.4,0l0-3.4l3.4,0L1227.7,682.2z M1210.5,682.4l-3.4,0l0-3.4l3.4,0
			L1210.5,682.4z M1193.3,682.5l-3.4,0l0-3.4l3.4,0L1193.3,682.5z M1176.1,682.6l-3.4,0l0-3.4l3.4,0L1176.1,682.6z M1158.9,682.7
			l-3.4,0l0-3.4l3.4,0L1158.9,682.7z M1141.8,682.9l-3.4,0l0-3.4l3.4,0L1141.8,682.9z M1124.6,683l-3.4,0l0-3.4l3.4,0L1124.6,683z
			 M1107.4,683.1l-3.4,0l0-3.4l3.4,0L1107.4,683.1z M1090.2,683.2l-3.4,0l0-3.4l3.4,0L1090.2,683.2z M1073,683.3l-3.4,0l0-3.4l3.4,0
			L1073,683.3z M1055.9,683.5l-3.4,0l0-3.4l3.4,0L1055.9,683.5z M1296.5,698.9l-3.4,0l0-3.4l3.4,0L1296.5,698.9z M1279.3,699.1
			l-3.4,0l0-3.4l3.4,0L1279.3,699.1z M1262.2,699.2l-3.4,0l0-3.4l3.4,0L1262.2,699.2z M1245,699.3l-3.4,0l0-3.4l3.4,0L1245,699.3z
			 M1227.8,699.4l-3.4,0l0-3.4l3.4,0L1227.8,699.4z M1210.6,699.5l-3.4,0l0-3.4l3.4,0L1210.6,699.5z M1193.4,699.7l-3.4,0l0-3.4
			l3.4,0L1193.4,699.7z M1176.3,699.8l-3.4,0l0-3.4l3.4,0L1176.3,699.8z M1159.1,699.9l-3.4,0l0-3.4l3.4,0L1159.1,699.9z
			 M1141.9,700l-3.4,0l0-3.4l3.4,0L1141.9,700z M1124.7,700.2l-3.4,0l0-3.4l3.4,0L1124.7,700.2z M1107.5,700.3l-3.4,0l0-3.4l3.4,0
			L1107.5,700.3z M1090.3,700.4l-3.4,0l0-3.4l3.4,0L1090.3,700.4z M1073.2,700.5l-3.4,0l0-3.4l3.4,0L1073.2,700.5z M1056,700.6
			l-3.4,0l0-3.4l3.4,0L1056,700.6z M1296.7,716.1l-3.4,0l0-3.4l3.4,0L1296.7,716.1z M1279.5,716.2l-3.4,0l0-3.4l3.4,0L1279.5,716.2z
			 M1262.3,716.4l-3.4,0l0-3.4l3.4,0L1262.3,716.4z M1245.1,716.5l-3.4,0l0-3.4l3.4,0L1245.1,716.5z M1227.9,716.6l-3.4,0l0-3.4
			l3.4,0L1227.9,716.6z M1210.7,716.7l-3.4,0l0-3.4l3.4,0L1210.7,716.7z M1193.6,716.9l-3.4,0l0-3.4l3.4,0L1193.6,716.9z
			 M1176.4,717l-3.4,0l0-3.4l3.4,0L1176.4,717z M1159.2,717.1l-3.4,0l0-3.4l3.4,0L1159.2,717.1z M1142,717.2l-3.4,0l0-3.4l3.4,0
			L1142,717.2z M1124.8,717.3l-3.4,0l0-3.4l3.4,0L1124.8,717.3z M1107.6,717.5l-3.4,0l0-3.4l3.4,0L1107.6,717.5z M1090.5,717.6
			l-3.4,0l0-3.4l3.4,0L1090.5,717.6z M1073.3,717.7l-3.4,0l0-3.4l3.4,0L1073.3,717.7z M1056.1,717.8l-3.4,0l0-3.4l3.4,0
			L1056.1,717.8z M1296.8,733.3l-3.4,0l0-3.4l3.4,0L1296.8,733.3z M1279.6,733.4l-3.4,0l0-3.4l3.4,0L1279.6,733.4z M1262.4,733.5
			l-3.4,0l0-3.4l3.4,0L1262.4,733.5z M1245.2,733.7l-3.4,0l0-3.4l3.4,0L1245.2,733.7z M1228,733.8l-3.4,0l0-3.4l3.4,0L1228,733.8z
			 M1210.9,733.9l-3.4,0l0-3.4l3.4,0L1210.9,733.9z M1193.7,734l-3.4,0l0-3.4l3.4,0L1193.7,734z M1176.5,734.2l-3.4,0l0-3.4l3.4,0
			L1176.5,734.2z M1159.3,734.3l-3.4,0l0-3.4l3.4,0L1159.3,734.3z M1142.1,734.4l-3.4,0l0-3.4l3.4,0L1142.1,734.4z M1124.9,734.5
			l-3.4,0l0-3.4l3.4,0L1124.9,734.5z M1107.8,734.6l-3.4,0l0-3.4l3.4,0L1107.8,734.6z M1090.6,734.8l-3.4,0l0-3.4l3.4,0
			L1090.6,734.8z M1073.4,734.9l-3.4,0l0-3.4l3.4,0L1073.4,734.9z M1056.2,735l-3.4,0l0-3.4l3.4,0L1056.2,735z M1296.9,749.7l-3.4,0
			l0-3.4l3.4,0L1296.9,749.7z M1279.7,749.8l-3.4,0l0-3.4l3.4,0L1279.7,749.8z M1262.5,749.9l-3.4,0l0-3.4l3.4,0L1262.5,749.9z
			 M1245.3,750l-3.4,0l0-3.4l3.4,0L1245.3,750z M1228.2,750.1l-3.4,0l0-3.4l3.4,0L1228.2,750.1z M1211,750.3l-3.4,0l0-3.4l3.4,0
			L1211,750.3z M1193.8,750.4l-3.4,0l0-3.4l3.4,0L1193.8,750.4z M1176.6,750.5l-3.4,0l0-3.4l3.4,0L1176.6,750.5z M1159.4,750.6
			l-3.4,0l0-3.4l3.4,0L1159.4,750.6z M1142.2,750.8l-3.4,0l0-3.4l3.4,0L1142.2,750.8z M1125.1,750.9l-3.4,0l0-3.4l3.4,0
			L1125.1,750.9z M1107.9,751l-3.4,0l0-3.4l3.4,0L1107.9,751z M1090.7,751.1l-3.4,0l0-3.4l3.4,0L1090.7,751.1z M1073.5,751.2l-3.4,0
			l0-3.4l3.4,0L1073.5,751.2z M1056.3,751.4l-3.4,0l0-3.4l3.4,0L1056.3,751.4z M1297,766.8l-3.4,0l0-3.4l3.4,0L1297,766.8z
			 M1279.8,767l-3.4,0l0-3.4l3.4,0L1279.8,767z M1262.6,767.1l-3.4,0l0-3.4l3.4,0L1262.6,767.1z M1245.5,767.2l-3.4,0l0-3.4l3.4,0
			L1245.5,767.2z M1228.3,767.3l-3.4,0l0-3.4l3.4,0L1228.3,767.3z M1211.1,767.4l-3.4,0l0-3.4l3.4,0L1211.1,767.4z M1193.9,767.6
			l-3.4,0l0-3.4l3.4,0L1193.9,767.6z M1176.7,767.7l-3.4,0l0-3.4l3.4,0L1176.7,767.7z M1159.6,767.8l-3.4,0l0-3.4l3.4,0
			L1159.6,767.8z M1142.4,767.9l-3.4,0l0-3.4l3.4,0L1142.4,767.9z M1125.2,768.1l-3.4,0l0-3.4l3.4,0L1125.2,768.1z M1108,768.2
			l-3.4,0l0-3.4l3.4,0L1108,768.2z M1090.8,768.3l-3.4,0l0-3.4l3.4,0L1090.8,768.3z M1073.6,768.4l-3.4,0l0-3.4l3.4,0L1073.6,768.4z
			 M1056.5,768.5l-3.4,0l0-3.4l3.4,0L1056.5,768.5z M1297.1,784l-3.4,0l0-3.4l3.4,0L1297.1,784z M1280,784.1l-3.4,0l0-3.4l3.4,0
			L1280,784.1z M1262.8,784.3l-3.4,0l0-3.4l3.4,0L1262.8,784.3z M1245.6,784.4l-3.4,0l0-3.4l3.4,0L1245.6,784.4z M1228.4,784.5
			l-3.4,0l0-3.4l3.4,0L1228.4,784.5z M1211.2,784.6l-3.4,0l0-3.4l3.4,0L1211.2,784.6z M1194,784.8l-3.4,0l0-3.4l3.4,0L1194,784.8z
			 M1176.9,784.9l-3.4,0l0-3.4l3.4,0L1176.9,784.9z M1159.7,785l-3.4,0l0-3.4l3.4,0L1159.7,785z M1142.5,785.1l-3.4,0l0-3.4l3.4,0
			L1142.5,785.1z M1125.3,785.2l-3.4,0l0-3.4l3.4,0L1125.3,785.2z M1108.1,785.4l-3.4,0l0-3.4l3.4,0L1108.1,785.4z M1090.9,785.5
			l-3.4,0l0-3.4l3.4,0L1090.9,785.5z M1073.8,785.6l-3.4,0l0-3.4l3.4,0L1073.8,785.6z M1056.6,785.7l-3.4,0l0-3.4l3.4,0
			L1056.6,785.7z M1297.3,801.2l-3.4,0l0-3.4l3.4,0L1297.3,801.2z M1280.1,801.3l-3.4,0l0-3.4l3.4,0L1280.1,801.3z M1262.9,801.4
			l-3.4,0l0-3.4l3.4,0L1262.9,801.4z M1245.7,801.6l-3.4,0l0-3.4l3.4,0L1245.7,801.6z M1228.5,801.7l-3.4,0l0-3.4l3.4,0
			L1228.5,801.7z M1211.3,801.8l-3.4,0l0-3.4l3.4,0L1211.3,801.8z M1194.2,801.9l-3.4,0l0-3.4l3.4,0L1194.2,801.9z M1177,802.1
			l-3.4,0l0-3.4l3.4,0L1177,802.1z M1159.8,802.2l-3.4,0l0-3.4l3.4,0L1159.8,802.2z M1142.6,802.3l-3.4,0l0-3.4l3.4,0L1142.6,802.3z
			 M1125.4,802.4l-3.4,0l0-3.4l3.4,0L1125.4,802.4z M1108.2,802.5l-3.4,0l0-3.4l3.4,0L1108.2,802.5z M1091.1,802.7l-3.4,0l0-3.4
			l3.4,0L1091.1,802.7z M1073.9,802.8l-3.4,0l0-3.4l3.4,0L1073.9,802.8z M1056.7,802.9l-3.4,0l0-3.4l3.4,0L1056.7,802.9z
			 M1297.4,818.4l-3.4,0l0-3.4l3.4,0L1297.4,818.4z M1280.2,818.5l-3.4,0l0-3.4l3.4,0L1280.2,818.5z M1263,818.6l-3.4,0l0-3.4l3.4,0
			L1263,818.6z M1245.8,818.7l-3.4,0l0-3.4l3.4,0L1245.8,818.7z M1228.6,818.9l-3.4,0l0-3.4l3.4,0L1228.6,818.9z M1211.5,819l-3.4,0
			l0-3.4l3.4,0L1211.5,819z M1194.3,819.1l-3.4,0l0-3.4l3.4,0L1194.3,819.1z M1177.1,819.2l-3.4,0l0-3.4l3.4,0L1177.1,819.2z
			 M1159.9,819.4l-3.4,0l0-3.4l3.4,0L1159.9,819.4z M1142.7,819.5l-3.4,0l0-3.4l3.4,0L1142.7,819.5z M1125.6,819.6l-3.4,0l0-3.4
			l3.4,0L1125.6,819.6z M1108.4,819.7l-3.4,0l0-3.4l3.4,0L1108.4,819.7z M1091.2,819.8l-3.4,0l0-3.4l3.4,0L1091.2,819.8z M1074,820
			l-3.4,0l0-3.4l3.4,0L1074,820z M1056.8,820.1l-3.4,0l0-3.4l3.4,0L1056.8,820.1z M1297.5,835.6l-3.4,0l0-3.4l3.4,0L1297.5,835.6z
			 M1280.3,835.7l-3.4,0l0-3.4l3.4,0L1280.3,835.7z M1263.1,835.8l-3.4,0l0-3.4l3.4,0L1263.1,835.8z M1246,835.9l-3.4,0l0-3.4l3.4,0
			L1246,835.9z M1228.8,836.1l-3.4,0l0-3.4l3.4,0L1228.8,836.1z M1211.6,836.2l-3.4,0l0-3.4l3.4,0L1211.6,836.2z M1194.4,836.3
			l-3.4,0l0-3.4l3.4,0L1194.4,836.3z M1177.2,836.4l-3.4,0l0-3.4l3.4,0L1177.2,836.4z M1160,836.5l-3.4,0l0-3.4l3.4,0L1160,836.5z
			 M1142.9,836.7l-3.4,0l0-3.4l3.4,0L1142.9,836.7z M1125.7,836.8l-3.4,0l0-3.4l3.4,0L1125.7,836.8z M1108.5,836.9l-3.4,0l0-3.4
			l3.4,0L1108.5,836.9z M1091.3,837l-3.4,0l0-3.4l3.4,0L1091.3,837z M1074.1,837.2l-3.4,0l0-3.4l3.4,0L1074.1,837.2z M1056.9,837.3
			l-3.4,0l0-3.4l3.4,0L1056.9,837.3z M1297.6,852.7l-3.4,0l0-3.4l3.4,0L1297.6,852.7z M1280.4,852.9l-3.4,0l0-3.4l3.4,0
			L1280.4,852.9z M1263.3,853l-3.4,0l0-3.4l3.4,0L1263.3,853z M1246.1,853.1l-3.4,0l0-3.4l3.4,0L1246.1,853.1z M1228.9,853.2l-3.4,0
			l0-3.4l3.4,0L1228.9,853.2z M1211.7,853.4l-3.4,0l0-3.4l3.4,0L1211.7,853.4z M1194.5,853.5l-3.4,0l0-3.4l3.4,0L1194.5,853.5z
			 M1177.3,853.6l-3.4,0l0-3.4l3.4,0L1177.3,853.6z M1160.2,853.7l-3.4,0l0-3.4l3.4,0L1160.2,853.7z M1143,853.8l-3.4,0l0-3.4l3.4,0
			L1143,853.8z M1125.8,854l-3.4,0l0-3.4l3.4,0L1125.8,854z M1108.6,854.1l-3.4,0l0-3.4l3.4,0L1108.6,854.1z M1091.4,854.2l-3.4,0
			l0-3.4l3.4,0L1091.4,854.2z M1074.2,854.3l-3.4,0l0-3.4l3.4,0L1074.2,854.3z M1057.1,854.5l-3.4,0l0-3.4l3.4,0L1057.1,854.5z
			 M1297.7,869.9l-3.4,0l0-3.4l3.4,0L1297.7,869.9z M1280.6,870.1l-3.4,0l0-3.4l3.4,0L1280.6,870.1z M1263.4,870.2l-3.4,0l0-3.4
			l3.4,0L1263.4,870.2z M1246.2,870.3l-3.4,0l0-3.4l3.4,0L1246.2,870.3z M1229,870.4l-3.4,0l0-3.4l3.4,0L1229,870.4z M1211.8,870.5
			l-3.4,0l0-3.4l3.4,0L1211.8,870.5z M1194.7,870.7l-3.4,0l0-3.4l3.4,0L1194.7,870.7z M1177.5,870.8l-3.4,0l0-3.4l3.4,0
			L1177.5,870.8z M1160.3,870.9l-3.4,0l0-3.4l3.4,0L1160.3,870.9z M1143.1,871l-3.4,0l0-3.4l3.4,0L1143.1,871z M1125.9,871.2l-3.4,0
			l0-3.4l3.4,0L1125.9,871.2z M1108.7,871.3l-3.4,0l0-3.4l3.4,0L1108.7,871.3z M1091.6,871.4l-3.4,0l0-3.4l3.4,0L1091.6,871.4z
			 M1074.4,871.5l-3.4,0l0-3.4l3.4,0L1074.4,871.5z M1057.2,871.6l-3.4,0l0-3.4l3.4,0L1057.2,871.6z M1297.9,887.1l-3.4,0l0-3.4
			l3.4,0L1297.9,887.1z M1280.7,887.2l-3.4,0l0-3.4l3.4,0L1280.7,887.2z M1263.5,887.4l-3.4,0l0-3.4l3.4,0L1263.5,887.4z
			 M1246.3,887.5l-3.4,0l0-3.4l3.4,0L1246.3,887.5z M1229.1,887.6l-3.4,0l0-3.4l3.4,0L1229.1,887.6z M1212,887.7l-3.4,0l0-3.4l3.4,0
			L1212,887.7z M1194.8,887.8l-3.4,0l0-3.4l3.4,0L1194.8,887.8z M1177.6,888l-3.4,0l0-3.4l3.4,0L1177.6,888z M1160.4,888.1l-3.4,0
			l0-3.4l3.4,0L1160.4,888.1z M1143.2,888.2l-3.4,0l0-3.4l3.4,0L1143.2,888.2z M1126,888.3l-3.4,0l0-3.4l3.4,0L1126,888.3z
			 M1108.9,888.5l-3.4,0l0-3.4l3.4,0L1108.9,888.5z M1091.7,888.6l-3.4,0l0-3.4l3.4,0L1091.7,888.6z M1074.5,888.7l-3.4,0l0-3.4
			l3.4,0L1074.5,888.7z M1057.3,888.8l-3.4,0l0-3.4l3.4,0L1057.3,888.8z M1298,904.3l-3.4,0l0-3.4l3.4,0L1298,904.3z M1280.8,904.4
			l-3.4,0l0-3.4l3.4,0L1280.8,904.4z M1263.6,904.5l-3.4,0l0-3.4l3.4,0L1263.6,904.5z M1246.4,904.7l-3.4,0l0-3.4l3.4,0
			L1246.4,904.7z M1229.3,904.8l-3.4,0l0-3.4l3.4,0L1229.3,904.8z M1212.1,904.9l-3.4,0l0-3.4l3.4,0L1212.1,904.9z M1194.9,905
			l-3.4,0l0-3.4l3.4,0L1194.9,905z M1177.7,905.2l-3.4,0l0-3.4l3.4,0L1177.7,905.2z M1160.5,905.3l-3.4,0l0-3.4l3.4,0L1160.5,905.3z
			 M1143.3,905.4l-3.4,0l0-3.4l3.4,0L1143.3,905.4z M1126.2,905.5l-3.4,0l0-3.4l3.4,0L1126.2,905.5z M1109,905.6l-3.4,0l0-3.4l3.4,0
			L1109,905.6z M1091.8,905.8l-3.4,0l0-3.4l3.4,0L1091.8,905.8z M1074.6,905.9l-3.4,0l0-3.4l3.4,0L1074.6,905.9z M1057.4,906l-3.4,0
			l0-3.4l3.4,0L1057.4,906z"/>
	</g>
</g>
</svg>
