<?xml version="1.0" encoding="utf-8"?>
<!-- Generator: Adobe Illustrator 22.1.0, SVG Export Plug-In . SVG Version: 6.00 Build 0)  -->
<svg version="1.1" id="Layer_1" xmlns="http://www.w3.org/2000/svg" xmlns:xlink="http://www.w3.org/1999/xlink" x="0px" y="0px"
	 viewBox="0 0 1440 472" style="enable-background:new 0 0 1440 472;" xml:space="preserve">
<style type="text/css">
	.st0{display:none;}
	.st1{display:inline;fill:url(#path-2_6_);}
	.st2{filter:url(#Adobe_OpacityMaskFilter);}
	.st3{fill:#FFFFFF;}
	.st4{mask:url(#mask-3_1_);fill:url(#Path_1_1_);}
	.st5{filter:url(#Adobe_OpacityMaskFilter_1_);}
	.st6{opacity:0.3;mask:url(#mask-3_2_);}
	.st7{filter:url(#filter-6);}
	.st8{fill:url(#path-5_2_);}
	.st9{filter:url(#Adobe_OpacityMaskFilter_2_);}
	.st10{mask:url(#mask-3_3_);}
	.st11{filter:url(#filter-8);}
	.st12{fill:url(#path-7_2_);}
	.st13{filter:url(#Adobe_OpacityMaskFilter_3_);}
	.st14{opacity:0.4475;mask:url(#mask-3_4_);}
	.st15{fill:url(#Combined-Shape_1_);}
	.st16{fill:url(#Combined-Shape-Copy_1_);}
</style>
<filter  filterUnits="objectBoundingBox" height="126.5%" id="filter-8" width="105.9%" x="-2.9%" y="-6.8%">
	<feMorphology  in="SourceAlpha" operator="erode" radius="8" result="shadowSpreadOuter1"></feMorphology>
	<feOffset  dx="0" dy="15" in="shadowSpreadOuter1" result="shadowOffsetOuter1"></feOffset>
	<feGaussianBlur  in="shadowOffsetOuter1" result="shadowBlurOuter1" stdDeviation="12"></feGaussianBlur>
	
		<feColorMatrix  in="shadowBlurOuter1" type="matrix" values="0 0 0 0 0   0 0 0 0 0.411764706   0 0 0 0 0.870588235  0 0 0 0.5 0">
		</feColorMatrix>
</filter>
<filter  filterUnits="objectBoundingBox" height="126.5%" id="filter-6" width="105.9%" x="-2.9%" y="-6.8%">
	<feMorphology  in="SourceAlpha" operator="erode" radius="8" result="shadowSpreadOuter1"></feMorphology>
	<feOffset  dx="0" dy="15" in="shadowSpreadOuter1" result="shadowOffsetOuter1"></feOffset>
	<feGaussianBlur  in="shadowOffsetOuter1" result="shadowBlurOuter1" stdDeviation="12"></feGaussianBlur>
	
		<feColorMatrix  in="shadowBlurOuter1" type="matrix" values="0 0 0 0 0   0 0 0 0 0.411764706   0 0 0 0 0.870588235  0 0 0 0.5 0">
		</feColorMatrix>
</filter>
<g>
	<title>Group 2</title>
	<desc>Created with Sketch.</desc>
	<g id="Google-Cloud-Partner" transform="translate(0.000000, -110.000000)">
		<g id="Group-2" transform="translate(0.000000, 110.000000)">
			<g id="Header-BG">
				
					<g id="Rectangle" transform="translate(720.000000, 236.000000) scale(-1, 1) translate(-720.000000, -236.000000) " class="st0">
					
						<linearGradient id="path-2_6_" gradientUnits="userSpaceOnUse" x1="571.3958" y1="385.6822" x2="570.3958" y2="385.6822" gradientTransform="matrix(-1440 0 0 -472 822810 182278)">
						<stop  offset="0" style="stop-color:#0069DE"/>
						<stop  offset="1" style="stop-color:#008AFF"/>
					</linearGradient>
					<polygon id="path-2_1_" class="st1" points="1440,0 0,0 0,472 1440,402 					"/>
				</g>
				<defs>
					<filter id="Adobe_OpacityMaskFilter" filterUnits="userSpaceOnUse" x="-290" y="200.2" width="676.1" height="407.1">
						<feColorMatrix  type="matrix" values="1 0 0 0 0  0 1 0 0 0  0 0 1 0 0  0 0 0 1 0"/>
					</filter>
				</defs>
				<mask maskUnits="userSpaceOnUse" x="-290" y="200.2" width="676.1" height="407.1" id="mask-3_1_">
					<g class="st2">
						<polygon id="path-2_2_" class="st3" points="0,0 1440,0 1440,472 0,402 						"/>
					</g>
				</mask>
				
					<linearGradient id="Path_1_1_" gradientUnits="userSpaceOnUse" x1="571.4176" y1="385.5876" x2="571.7473" y2="385.026" gradientTransform="matrix(-676.1208 0 0 407.0975 386345 -156446.3125)">
					<stop  offset="0" style="stop-color:#0069DE;stop-opacity:0.6689"/>
					<stop  offset="1" style="stop-color:#008AFF;stop-opacity:0.1812"/>
				</linearGradient>
				<polygon id="Path_1" class="st4" points="386.1,607.3 170.9,607.3 48.1,453 -74.8,607.3 -290,607.3 48.1,200.2 				"/>
				<defs>
					<filter id="Adobe_OpacityMaskFilter_1_" filterUnits="userSpaceOnUse" x="1228.7" y="-24.8" width="414" height="212">
						<feColorMatrix  type="matrix" values="1 0 0 0 0  0 1 0 0 0  0 0 1 0 0  0 0 0 1 0"/>
					</filter>
				</defs>
				<mask maskUnits="userSpaceOnUse" x="1228.7" y="-24.8" width="414" height="212" id="mask-3_2_">
					<g class="st5">
						<polygon id="path-2_3_" class="st3" points="0,0 1440,0 1440,472 0,402 						"/>
					</g>
				</mask>
				<g id="Path" transform="translate(1435.600000, 70.644190) scale(-1, 1) translate(-1435.600000, -70.644190) " class="st6">
					<g class="st7">
						<polyline id="path-5_2_" points="1631.2,83.5 1405,-13.3 1240,57.8 1466.2,154.6 1631.2,83.5 						"/>
					</g>
					<g>
						
							<linearGradient id="path-5_2_" gradientUnits="userSpaceOnUse" x1="2298.7429" y1="386.012" x2="2297.7429" y2="386.012" gradientTransform="matrix(-391.2 0 0 -167.9833 900899.3125 64914.2031)">
							<stop  offset="0" style="stop-color:#0069DE"/>
							<stop  offset="1" style="stop-color:#008AFF"/>
						</linearGradient>
						<polyline id="path-5_1_" class="st8" points="1631.2,83.5 1405,-13.3 1240,57.8 1466.2,154.6 1631.2,83.5 						"/>
					</g>
				</g>
				<defs>
					<filter id="Adobe_OpacityMaskFilter_2_" filterUnits="userSpaceOnUse" x="1228.7" y="-44.8" width="414" height="212">
						<feColorMatrix  type="matrix" values="1 0 0 0 0  0 1 0 0 0  0 0 1 0 0  0 0 0 1 0"/>
					</filter>
				</defs>
				<mask maskUnits="userSpaceOnUse" x="1228.7" y="-44.8" width="414" height="212" id="mask-3_3_">
					<g class="st9">
						<polygon id="path-2_4_" class="st3" points="0,0 1440,0 1440,472 0,402 						"/>
					</g>
				</mask>
				
					<g id="Path_1_" transform="translate(1435.600000, 50.623003) scale(-1, 1) translate(-1435.600000, -50.623003) " class="st10">
					<g class="st11">
						<polyline id="path-7_2_" points="1631.2,63.5 1405,-33.4 1240,37.8 1466.2,134.6 1631.2,63.5 						"/>
					</g>
					<g>
						
							<linearGradient id="path-7_2_" gradientUnits="userSpaceOnUse" x1="2298.7429" y1="386.012" x2="2297.7429" y2="386.012" gradientTransform="matrix(-391.2 0 0 -167.9833 900899.3125 64894.1875)">
							<stop  offset="0" style="stop-color:#0069DE"/>
							<stop  offset="1" style="stop-color:#008AFF"/>
						</linearGradient>
						<polyline id="path-7_1_" class="st12" points="1631.2,63.5 1405,-33.4 1240,37.8 1466.2,134.6 1631.2,63.5 						"/>
					</g>
				</g>
				<defs>
					<filter id="Adobe_OpacityMaskFilter_3_" filterUnits="userSpaceOnUse" x="60" y="14.8" width="1347" height="320.4">
						<feColorMatrix  type="matrix" values="1 0 0 0 0  0 1 0 0 0  0 0 1 0 0  0 0 0 1 0"/>
					</filter>
				</defs>
				<mask maskUnits="userSpaceOnUse" x="60" y="14.8" width="1347" height="320.4" id="mask-3_4_">
					<g class="st13">
						<polygon id="path-2_5_" class="st3" points="0,0 1440,0 1440,472 0,402 						"/>
					</g>
				</mask>
				<g id="Group-18-Copy" class="st14">
					<g transform="translate(60.000000, 14.830508)">
						
							<linearGradient id="Combined-Shape_1_" gradientUnits="userSpaceOnUse" x1="507.7143" y1="371.3785" x2="508.6992" y2="370.5974" gradientTransform="matrix(244 0 0 -244.0245 -123870 90660.4609)">
							<stop  offset="0" style="stop-color:#2E86E9"/>
							<stop  offset="1" style="stop-color:#008AFF;stop-opacity:0.7"/>
						</linearGradient>
						<path id="Combined-Shape" class="st15" d="M0,0h3.4v2.5H0V0z M17.2,0h3.4v2.5h-3.4V0z M34.4,0h3.4v2.5h-3.4V0z M51.5,0H55v2.5
							h-3.4V0z M68.7,0h3.4v2.5h-3.4V0z M85.9,0h3.4v2.5h-3.4V0z M103.1,0h3.4v2.5h-3.4V0z M120.3,0h3.4v2.5h-3.4V0z M137.5,0h3.4
							v2.5h-3.4V0z M154.6,0h3.4v2.5h-3.4V0z M171.8,0h3.4v2.5h-3.4V0z M189,0h3.4v2.5H189V0z M206.2,0h3.4v2.5h-3.4V0z M223.4,0
							h3.4v2.5h-3.4V0z M240.6,0h3.4v2.5h-3.4V0z M0,12.7h3.4v2.5H0V12.7z M17.2,12.7h3.4v2.5h-3.4V12.7z M34.4,12.7h3.4v2.5h-3.4
							V12.7z M51.5,12.7H55v2.5h-3.4V12.7z M68.7,12.7h3.4v2.5h-3.4V12.7z M85.9,12.7h3.4v2.5h-3.4V12.7z M103.1,12.7h3.4v2.5h-3.4
							V12.7z M120.3,12.7h3.4v2.5h-3.4V12.7z M137.5,12.7h3.4v2.5h-3.4V12.7z M154.6,12.7h3.4v2.5h-3.4V12.7z M171.8,12.7h3.4v2.5
							h-3.4V12.7z M189,12.7h3.4v2.5H189V12.7z M206.2,12.7h3.4v2.5h-3.4V12.7z M223.4,12.7h3.4v2.5h-3.4V12.7z M240.6,12.7h3.4v2.5
							h-3.4V12.7z M0,25.5h3.4V28H0V25.5z M17.2,25.5h3.4V28h-3.4V25.5z M34.4,25.5h3.4V28h-3.4V25.5z M51.5,25.5H55V28h-3.4V25.5z
							 M68.7,25.5h3.4V28h-3.4V25.5z M85.9,25.5h3.4V28h-3.4V25.5z M103.1,25.5h3.4V28h-3.4V25.5z M120.3,25.5h3.4V28h-3.4V25.5z
							 M137.5,25.5h3.4V28h-3.4V25.5z M154.6,25.5h3.4V28h-3.4V25.5z M171.8,25.5h3.4V28h-3.4V25.5z M189,25.5h3.4V28H189V25.5z
							 M206.2,25.5h3.4V28h-3.4V25.5z M223.4,25.5h3.4V28h-3.4V25.5z M240.6,25.5h3.4V28h-3.4V25.5z M0,38.2h3.4v2.5H0V38.2z
							 M17.2,38.2h3.4v2.5h-3.4V38.2z M34.4,38.2h3.4v2.5h-3.4V38.2z M51.5,38.2H55v2.5h-3.4V38.2z M68.7,38.2h3.4v2.5h-3.4V38.2z
							 M85.9,38.2h3.4v2.5h-3.4V38.2z M103.1,38.2h3.4v2.5h-3.4V38.2z M120.3,38.2h3.4v2.5h-3.4V38.2z M137.5,38.2h3.4v2.5h-3.4
							V38.2z M154.6,38.2h3.4v2.5h-3.4V38.2z M171.8,38.2h3.4v2.5h-3.4V38.2z M189,38.2h3.4v2.5H189V38.2z M206.2,38.2h3.4v2.5h-3.4
							V38.2z M223.4,38.2h3.4v2.5h-3.4V38.2z M240.6,38.2h3.4v2.5h-3.4V38.2z M0,51h3.4v2.5H0V51z M17.2,51h3.4v2.5h-3.4V51z
							 M34.4,51h3.4v2.5h-3.4V51z M51.5,51H55v2.5h-3.4V51z M68.7,51h3.4v2.5h-3.4V51z M85.9,51h3.4v2.5h-3.4V51z M103.1,51h3.4v2.5
							h-3.4V51z M120.3,51h3.4v2.5h-3.4V51z M137.5,51h3.4v2.5h-3.4V51z M154.6,51h3.4v2.5h-3.4V51z M171.8,51h3.4v2.5h-3.4V51z
							 M189,51h3.4v2.5H189V51z M206.2,51h3.4v2.5h-3.4V51z M223.4,51h3.4v2.5h-3.4V51z M240.6,51h3.4v2.5h-3.4V51z M0,63.7h3.4v2.5
							H0V63.7z M17.2,63.7h3.4v2.5h-3.4V63.7z M34.4,63.7h3.4v2.5h-3.4V63.7z M51.5,63.7H55v2.5h-3.4V63.7z M68.7,63.7h3.4v2.5h-3.4
							V63.7z M85.9,63.7h3.4v2.5h-3.4V63.7z M103.1,63.7h3.4v2.5h-3.4V63.7z M120.3,63.7h3.4v2.5h-3.4V63.7z M137.5,63.7h3.4v2.5
							h-3.4V63.7z M154.6,63.7h3.4v2.5h-3.4V63.7z M171.8,63.7h3.4v2.5h-3.4V63.7z M189,63.7h3.4v2.5H189V63.7z M206.2,63.7h3.4v2.5
							h-3.4V63.7z M223.4,63.7h3.4v2.5h-3.4V63.7z M240.6,63.7h3.4v2.5h-3.4V63.7z M0,76.5h3.4V79H0V76.5z M17.2,76.5h3.4V79h-3.4
							V76.5z M34.4,76.5h3.4V79h-3.4V76.5z M51.5,76.5H55V79h-3.4V76.5z M68.7,76.5h3.4V79h-3.4V76.5z M85.9,76.5h3.4V79h-3.4V76.5z
							 M103.1,76.5h3.4V79h-3.4V76.5z M120.3,76.5h3.4V79h-3.4V76.5z M137.5,76.5h3.4V79h-3.4V76.5z M154.6,76.5h3.4V79h-3.4V76.5z
							 M171.8,76.5h3.4V79h-3.4V76.5z M189,76.5h3.4V79H189V76.5z M206.2,76.5h3.4V79h-3.4V76.5z M223.4,76.5h3.4V79h-3.4V76.5z
							 M240.6,76.5h3.4V79h-3.4V76.5z M0,89.2h3.4v2.5H0V89.2z M17.2,89.2h3.4v2.5h-3.4V89.2z M34.4,89.2h3.4v2.5h-3.4V89.2z
							 M51.5,89.2H55v2.5h-3.4V89.2z M68.7,89.2h3.4v2.5h-3.4V89.2z M85.9,89.2h3.4v2.5h-3.4V89.2z M103.1,89.2h3.4v2.5h-3.4V89.2z
							 M120.3,89.2h3.4v2.5h-3.4V89.2z M137.5,89.2h3.4v2.5h-3.4V89.2z M154.6,89.2h3.4v2.5h-3.4V89.2z M171.8,89.2h3.4v2.5h-3.4
							V89.2z M189,89.2h3.4v2.5H189V89.2z M206.2,89.2h3.4v2.5h-3.4V89.2z M223.4,89.2h3.4v2.5h-3.4V89.2z M240.6,89.2h3.4v2.5h-3.4
							V89.2z M0,101.9h3.4v2.5H0V101.9z M17.2,101.9h3.4v2.5h-3.4V101.9z M34.4,101.9h3.4v2.5h-3.4V101.9z M51.5,101.9H55v2.5h-3.4
							V101.9z M68.7,101.9h3.4v2.5h-3.4V101.9z M85.9,101.9h3.4v2.5h-3.4V101.9z M103.1,101.9h3.4v2.5h-3.4V101.9z M120.3,101.9h3.4
							v2.5h-3.4V101.9z M137.5,101.9h3.4v2.5h-3.4V101.9z M154.6,101.9h3.4v2.5h-3.4V101.9z M171.8,101.9h3.4v2.5h-3.4V101.9z
							 M189,101.9h3.4v2.5H189V101.9z M206.2,101.9h3.4v2.5h-3.4V101.9z M223.4,101.9h3.4v2.5h-3.4V101.9z M240.6,101.9h3.4v2.5
							h-3.4V101.9z M0,114.7h3.4v2.5H0V114.7z M17.2,114.7h3.4v2.5h-3.4V114.7z M34.4,114.7h3.4v2.5h-3.4V114.7z M51.5,114.7H55v2.5
							h-3.4V114.7z M68.7,114.7h3.4v2.5h-3.4V114.7z M85.9,114.7h3.4v2.5h-3.4V114.7z M103.1,114.7h3.4v2.5h-3.4V114.7z
							 M120.3,114.7h3.4v2.5h-3.4V114.7z M137.5,114.7h3.4v2.5h-3.4V114.7z M154.6,114.7h3.4v2.5h-3.4V114.7z M171.8,114.7h3.4v2.5
							h-3.4V114.7z M189,114.7h3.4v2.5H189V114.7z M206.2,114.7h3.4v2.5h-3.4V114.7z M223.4,114.7h3.4v2.5h-3.4V114.7z M240.6,114.7
							h3.4v2.5h-3.4V114.7z M0,126.8h3.4v2.5H0V126.8z M17.2,126.8h3.4v2.5h-3.4V126.8z M34.4,126.8h3.4v2.5h-3.4V126.8z
							 M51.5,126.8H55v2.5h-3.4V126.8z M68.7,126.8h3.4v2.5h-3.4V126.8z M85.9,126.8h3.4v2.5h-3.4V126.8z M103.1,126.8h3.4v2.5h-3.4
							V126.8z M120.3,126.8h3.4v2.5h-3.4V126.8z M137.5,126.8h3.4v2.5h-3.4V126.8z M154.6,126.8h3.4v2.5h-3.4V126.8z M171.8,126.8
							h3.4v2.5h-3.4V126.8z M189,126.8h3.4v2.5H189V126.8z M206.2,126.8h3.4v2.5h-3.4V126.8z M223.4,126.8h3.4v2.5h-3.4V126.8z
							 M240.6,126.8h3.4v2.5h-3.4V126.8z M0,139.5h3.4v2.5H0V139.5z M17.2,139.5h3.4v2.5h-3.4V139.5z M34.4,139.5h3.4v2.5h-3.4
							V139.5z M51.5,139.5H55v2.5h-3.4V139.5z M68.7,139.5h3.4v2.5h-3.4V139.5z M85.9,139.5h3.4v2.5h-3.4V139.5z M103.1,139.5h3.4
							v2.5h-3.4V139.5z M120.3,139.5h3.4v2.5h-3.4V139.5z M137.5,139.5h3.4v2.5h-3.4V139.5z M154.6,139.5h3.4v2.5h-3.4V139.5z
							 M171.8,139.5h3.4v2.5h-3.4V139.5z M189,139.5h3.4v2.5H189V139.5z M206.2,139.5h3.4v2.5h-3.4V139.5z M223.4,139.5h3.4v2.5
							h-3.4V139.5z M240.6,139.5h3.4v2.5h-3.4V139.5z M0,152.3h3.4v2.5H0V152.3z M17.2,152.3h3.4v2.5h-3.4V152.3z M34.4,152.3h3.4
							v2.5h-3.4V152.3z M51.5,152.3H55v2.5h-3.4V152.3z M68.7,152.3h3.4v2.5h-3.4V152.3z M85.9,152.3h3.4v2.5h-3.4V152.3z
							 M103.1,152.3h3.4v2.5h-3.4V152.3z M120.3,152.3h3.4v2.5h-3.4V152.3z M137.5,152.3h3.4v2.5h-3.4V152.3z M154.6,152.3h3.4v2.5
							h-3.4V152.3z M171.8,152.3h3.4v2.5h-3.4V152.3z M189,152.3h3.4v2.5H189V152.3z M206.2,152.3h3.4v2.5h-3.4V152.3z M223.4,152.3
							h3.4v2.5h-3.4V152.3z M240.6,152.3h3.4v2.5h-3.4V152.3z M0,165h3.4v2.5H0V165z M17.2,165h3.4v2.5h-3.4V165z M34.4,165h3.4v2.5
							h-3.4V165z M51.5,165H55v2.5h-3.4V165z M68.7,165h3.4v2.5h-3.4V165z M85.9,165h3.4v2.5h-3.4V165z M103.1,165h3.4v2.5h-3.4V165
							z M120.3,165h3.4v2.5h-3.4V165z M137.5,165h3.4v2.5h-3.4V165z M154.6,165h3.4v2.5h-3.4V165z M171.8,165h3.4v2.5h-3.4V165z
							 M189,165h3.4v2.5H189V165z M206.2,165h3.4v2.5h-3.4V165z M223.4,165h3.4v2.5h-3.4V165z M240.6,165h3.4v2.5h-3.4V165z
							 M0,177.8h3.4v2.5H0V177.8z M17.2,177.8h3.4v2.5h-3.4V177.8z M34.4,177.8h3.4v2.5h-3.4V177.8z M51.5,177.8H55v2.5h-3.4V177.8z
							 M68.7,177.8h3.4v2.5h-3.4V177.8z M85.9,177.8h3.4v2.5h-3.4V177.8z M103.1,177.8h3.4v2.5h-3.4V177.8z M120.3,177.8h3.4v2.5
							h-3.4V177.8z M137.5,177.8h3.4v2.5h-3.4V177.8z M154.6,177.8h3.4v2.5h-3.4V177.8z M171.8,177.8h3.4v2.5h-3.4V177.8z
							 M189,177.8h3.4v2.5H189V177.8z M206.2,177.8h3.4v2.5h-3.4V177.8z M223.4,177.8h3.4v2.5h-3.4V177.8z M240.6,177.8h3.4v2.5
							h-3.4V177.8z M0,190.5h3.4v2.5H0V190.5z M17.2,190.5h3.4v2.5h-3.4V190.5z M34.4,190.5h3.4v2.5h-3.4V190.5z M51.5,190.5H55v2.5
							h-3.4V190.5z M68.7,190.5h3.4v2.5h-3.4V190.5z M85.9,190.5h3.4v2.5h-3.4V190.5z M103.1,190.5h3.4v2.5h-3.4V190.5z
							 M120.3,190.5h3.4v2.5h-3.4V190.5z M137.5,190.5h3.4v2.5h-3.4V190.5z M154.6,190.5h3.4v2.5h-3.4V190.5z M171.8,190.5h3.4v2.5
							h-3.4V190.5z M189,190.5h3.4v2.5H189V190.5z M206.2,190.5h3.4v2.5h-3.4V190.5z M223.4,190.5h3.4v2.5h-3.4V190.5z M240.6,190.5
							h3.4v2.5h-3.4V190.5z M0,203.3h3.4v2.5H0V203.3z M17.2,203.3h3.4v2.5h-3.4V203.3z M34.4,203.3h3.4v2.5h-3.4V203.3z
							 M51.5,203.3H55v2.5h-3.4V203.3z M68.7,203.3h3.4v2.5h-3.4V203.3z M85.9,203.3h3.4v2.5h-3.4V203.3z M103.1,203.3h3.4v2.5h-3.4
							V203.3z M120.3,203.3h3.4v2.5h-3.4V203.3z M137.5,203.3h3.4v2.5h-3.4V203.3z M154.6,203.3h3.4v2.5h-3.4V203.3z M171.8,203.3
							h3.4v2.5h-3.4V203.3z M189,203.3h3.4v2.5H189V203.3z M206.2,203.3h3.4v2.5h-3.4V203.3z M223.4,203.3h3.4v2.5h-3.4V203.3z
							 M240.6,203.3h3.4v2.5h-3.4V203.3z M0,216h3.4v2.5H0V216z M17.2,216h3.4v2.5h-3.4V216z M34.4,216h3.4v2.5h-3.4V216z M51.5,216
							H55v2.5h-3.4V216z M68.7,216h3.4v2.5h-3.4V216z M85.9,216h3.4v2.5h-3.4V216z M103.1,216h3.4v2.5h-3.4V216z M120.3,216h3.4v2.5
							h-3.4V216z M137.5,216h3.4v2.5h-3.4V216z M154.6,216h3.4v2.5h-3.4V216z M171.8,216h3.4v2.5h-3.4V216z M189,216h3.4v2.5H189
							V216z M206.2,216h3.4v2.5h-3.4V216z M223.4,216h3.4v2.5h-3.4V216z M240.6,216h3.4v2.5h-3.4V216z M0,228.7h3.4v2.5H0V228.7z
							 M17.2,228.7h3.4v2.5h-3.4V228.7z M34.4,228.7h3.4v2.5h-3.4V228.7z M51.5,228.7H55v2.5h-3.4V228.7z M68.7,228.7h3.4v2.5h-3.4
							V228.7z M85.9,228.7h3.4v2.5h-3.4V228.7z M103.1,228.7h3.4v2.5h-3.4V228.7z M120.3,228.7h3.4v2.5h-3.4V228.7z M137.5,228.7
							h3.4v2.5h-3.4V228.7z M154.6,228.7h3.4v2.5h-3.4V228.7z M171.8,228.7h3.4v2.5h-3.4V228.7z M189,228.7h3.4v2.5H189V228.7z
							 M206.2,228.7h3.4v2.5h-3.4V228.7z M223.4,228.7h3.4v2.5h-3.4V228.7z M240.6,228.7h3.4v2.5h-3.4V228.7z M0,241.5h3.4v2.5H0
							V241.5z M17.2,241.5h3.4v2.5h-3.4V241.5z M34.4,241.5h3.4v2.5h-3.4V241.5z M51.5,241.5H55v2.5h-3.4V241.5z M68.7,241.5h3.4
							v2.5h-3.4V241.5z M85.9,241.5h3.4v2.5h-3.4V241.5z M103.1,241.5h3.4v2.5h-3.4V241.5z M120.3,241.5h3.4v2.5h-3.4V241.5z
							 M137.5,241.5h3.4v2.5h-3.4V241.5z M154.6,241.5h3.4v2.5h-3.4V241.5z M171.8,241.5h3.4v2.5h-3.4V241.5z M189,241.5h3.4v2.5
							H189V241.5z M206.2,241.5h3.4v2.5h-3.4V241.5z M223.4,241.5h3.4v2.5h-3.4V241.5z M240.6,241.5h3.4v2.5h-3.4V241.5z"/>
						
							<linearGradient id="Combined-Shape-Copy_1_" gradientUnits="userSpaceOnUse" x1="512.3864" y1="370.6737" x2="513.3713" y2="369.8925" gradientTransform="matrix(-244 0 0 244.0245 126357 -90168.0547)">
							<stop  offset="0" style="stop-color:#0069DE"/>
							<stop  offset="1" style="stop-color:#0069E1;stop-opacity:0.4"/>
						</linearGradient>
						<path id="Combined-Shape-Copy" class="st16" d="M1347,320.4h-3.4v-2.5h3.4V320.4z M1329.8,320.4h-3.4v-2.5h3.4V320.4z
							 M1312.6,320.4h-3.4v-2.5h3.4V320.4z M1295.5,320.4h-3.4v-2.5h3.4V320.4z M1278.3,320.4h-3.4v-2.5h3.4V320.4z M1261.1,320.4
							h-3.4v-2.5h3.4V320.4z M1243.9,320.4h-3.4v-2.5h3.4V320.4z M1226.7,320.4h-3.4v-2.5h3.4V320.4z M1209.5,320.4h-3.4v-2.5h3.4
							V320.4z M1192.4,320.4h-3.4v-2.5h3.4V320.4z M1175.2,320.4h-3.4v-2.5h3.4V320.4z M1158,320.4h-3.4v-2.5h3.4V320.4z
							 M1140.8,320.4h-3.4v-2.5h3.4V320.4z M1123.6,320.4h-3.4v-2.5h3.4V320.4z M1106.4,320.4h-3.4v-2.5h3.4V320.4z M1347,307.7
							h-3.4v-2.5h3.4V307.7z M1329.8,307.7h-3.4v-2.5h3.4V307.7z M1312.6,307.7h-3.4v-2.5h3.4V307.7z M1295.5,307.7h-3.4v-2.5h3.4
							V307.7z M1278.3,307.7h-3.4v-2.5h3.4V307.7z M1261.1,307.7h-3.4v-2.5h3.4V307.7z M1243.9,307.7h-3.4v-2.5h3.4V307.7z
							 M1226.7,307.7h-3.4v-2.5h3.4V307.7z M1209.5,307.7h-3.4v-2.5h3.4V307.7z M1192.4,307.7h-3.4v-2.5h3.4V307.7z M1175.2,307.7
							h-3.4v-2.5h3.4V307.7z M1158,307.7h-3.4v-2.5h3.4V307.7z M1140.8,307.7h-3.4v-2.5h3.4V307.7z M1123.6,307.7h-3.4v-2.5h3.4
							V307.7z M1106.4,307.7h-3.4v-2.5h3.4V307.7z M1347,294.9h-3.4v-2.5h3.4V294.9z M1329.8,294.9h-3.4v-2.5h3.4V294.9z
							 M1312.6,294.9h-3.4v-2.5h3.4V294.9z M1295.5,294.9h-3.4v-2.5h3.4V294.9z M1278.3,294.9h-3.4v-2.5h3.4V294.9z M1261.1,294.9
							h-3.4v-2.5h3.4V294.9z M1243.9,294.9h-3.4v-2.5h3.4V294.9z M1226.7,294.9h-3.4v-2.5h3.4V294.9z M1209.5,294.9h-3.4v-2.5h3.4
							V294.9z M1192.4,294.9h-3.4v-2.5h3.4V294.9z M1175.2,294.9h-3.4v-2.5h3.4V294.9z M1158,294.9h-3.4v-2.5h3.4V294.9z
							 M1140.8,294.9h-3.4v-2.5h3.4V294.9z M1123.6,294.9h-3.4v-2.5h3.4V294.9z M1106.4,294.9h-3.4v-2.5h3.4V294.9z M1347,282.2
							h-3.4v-2.5h3.4V282.2z M1329.8,282.2h-3.4v-2.5h3.4V282.2z M1312.6,282.2h-3.4v-2.5h3.4V282.2z M1295.5,282.2h-3.4v-2.5h3.4
							V282.2z M1278.3,282.2h-3.4v-2.5h3.4V282.2z M1261.1,282.2h-3.4v-2.5h3.4V282.2z M1243.9,282.2h-3.4v-2.5h3.4V282.2z
							 M1226.7,282.2h-3.4v-2.5h3.4V282.2z M1209.5,282.2h-3.4v-2.5h3.4V282.2z M1192.4,282.2h-3.4v-2.5h3.4V282.2z M1175.2,282.2
							h-3.4v-2.5h3.4V282.2z M1158,282.2h-3.4v-2.5h3.4V282.2z M1140.8,282.2h-3.4v-2.5h3.4V282.2z M1123.6,282.2h-3.4v-2.5h3.4
							V282.2z M1106.4,282.2h-3.4v-2.5h3.4V282.2z M1347,269.4h-3.4v-2.5h3.4V269.4z M1329.8,269.4h-3.4v-2.5h3.4V269.4z
							 M1312.6,269.4h-3.4v-2.5h3.4V269.4z M1295.5,269.4h-3.4v-2.5h3.4V269.4z M1278.3,269.4h-3.4v-2.5h3.4V269.4z M1261.1,269.4
							h-3.4v-2.5h3.4V269.4z M1243.9,269.4h-3.4v-2.5h3.4V269.4z M1226.7,269.4h-3.4v-2.5h3.4V269.4z M1209.5,269.4h-3.4v-2.5h3.4
							V269.4z M1192.4,269.4h-3.4v-2.5h3.4V269.4z M1175.2,269.4h-3.4v-2.5h3.4V269.4z M1158,269.4h-3.4v-2.5h3.4V269.4z
							 M1140.8,269.4h-3.4v-2.5h3.4V269.4z M1123.6,269.4h-3.4v-2.5h3.4V269.4z M1106.4,269.4h-3.4v-2.5h3.4V269.4z M1347,256.7
							h-3.4v-2.5h3.4V256.7z M1329.8,256.7h-3.4v-2.5h3.4V256.7z M1312.6,256.7h-3.4v-2.5h3.4V256.7z M1295.5,256.7h-3.4v-2.5h3.4
							V256.7z M1278.3,256.7h-3.4v-2.5h3.4V256.7z M1261.1,256.7h-3.4v-2.5h3.4V256.7z M1243.9,256.7h-3.4v-2.5h3.4V256.7z
							 M1226.7,256.7h-3.4v-2.5h3.4V256.7z M1209.5,256.7h-3.4v-2.5h3.4V256.7z M1192.4,256.7h-3.4v-2.5h3.4V256.7z M1175.2,256.7
							h-3.4v-2.5h3.4V256.7z M1158,256.7h-3.4v-2.5h3.4V256.7z M1140.8,256.7h-3.4v-2.5h3.4V256.7z M1123.6,256.7h-3.4v-2.5h3.4
							V256.7z M1106.4,256.7h-3.4v-2.5h3.4V256.7z M1347,244h-3.4v-2.5h3.4V244z M1329.8,244h-3.4v-2.5h3.4V244z M1312.6,244h-3.4
							v-2.5h3.4V244z M1295.5,244h-3.4v-2.5h3.4V244z M1278.3,244h-3.4v-2.5h3.4V244z M1261.1,244h-3.4v-2.5h3.4V244z M1243.9,244
							h-3.4v-2.5h3.4V244z M1226.7,244h-3.4v-2.5h3.4V244z M1209.5,244h-3.4v-2.5h3.4V244z M1192.4,244h-3.4v-2.5h3.4V244z
							 M1175.2,244h-3.4v-2.5h3.4V244z M1158,244h-3.4v-2.5h3.4V244z M1140.8,244h-3.4v-2.5h3.4V244z M1123.6,244h-3.4v-2.5h3.4V244
							z M1106.4,244h-3.4v-2.5h3.4V244z M1347,231.2h-3.4v-2.5h3.4V231.2z M1329.8,231.2h-3.4v-2.5h3.4V231.2z M1312.6,231.2h-3.4
							v-2.5h3.4V231.2z M1295.5,231.2h-3.4v-2.5h3.4V231.2z M1278.3,231.2h-3.4v-2.5h3.4V231.2z M1261.1,231.2h-3.4v-2.5h3.4V231.2z
							 M1243.9,231.2h-3.4v-2.5h3.4V231.2z M1226.7,231.2h-3.4v-2.5h3.4V231.2z M1209.5,231.2h-3.4v-2.5h3.4V231.2z M1192.4,231.2
							h-3.4v-2.5h3.4V231.2z M1175.2,231.2h-3.4v-2.5h3.4V231.2z M1158,231.2h-3.4v-2.5h3.4V231.2z M1140.8,231.2h-3.4v-2.5h3.4
							V231.2z M1123.6,231.2h-3.4v-2.5h3.4V231.2z M1106.4,231.2h-3.4v-2.5h3.4V231.2z M1347,218.5h-3.4v-2.5h3.4V218.5z
							 M1329.8,218.5h-3.4v-2.5h3.4V218.5z M1312.6,218.5h-3.4v-2.5h3.4V218.5z M1295.5,218.5h-3.4v-2.5h3.4V218.5z M1278.3,218.5
							h-3.4v-2.5h3.4V218.5z M1261.1,218.5h-3.4v-2.5h3.4V218.5z M1243.9,218.5h-3.4v-2.5h3.4V218.5z M1226.7,218.5h-3.4v-2.5h3.4
							V218.5z M1209.5,218.5h-3.4v-2.5h3.4V218.5z M1192.4,218.5h-3.4v-2.5h3.4V218.5z M1175.2,218.5h-3.4v-2.5h3.4V218.5z
							 M1158,218.5h-3.4v-2.5h3.4V218.5z M1140.8,218.5h-3.4v-2.5h3.4V218.5z M1123.6,218.5h-3.4v-2.5h3.4V218.5z M1106.4,218.5
							h-3.4v-2.5h3.4V218.5z M1347,205.7h-3.4v-2.5h3.4V205.7z M1329.8,205.7h-3.4v-2.5h3.4V205.7z M1312.6,205.7h-3.4v-2.5h3.4
							V205.7z M1295.5,205.7h-3.4v-2.5h3.4V205.7z M1278.3,205.7h-3.4v-2.5h3.4V205.7z M1261.1,205.7h-3.4v-2.5h3.4V205.7z
							 M1243.9,205.7h-3.4v-2.5h3.4V205.7z M1226.7,205.7h-3.4v-2.5h3.4V205.7z M1209.5,205.7h-3.4v-2.5h3.4V205.7z M1192.4,205.7
							h-3.4v-2.5h3.4V205.7z M1175.2,205.7h-3.4v-2.5h3.4V205.7z M1158,205.7h-3.4v-2.5h3.4V205.7z M1140.8,205.7h-3.4v-2.5h3.4
							V205.7z M1123.6,205.7h-3.4v-2.5h3.4V205.7z M1106.4,205.7h-3.4v-2.5h3.4V205.7z M1347,193.6h-3.4v-2.5h3.4V193.6z
							 M1329.8,193.6h-3.4v-2.5h3.4V193.6z M1312.6,193.6h-3.4v-2.5h3.4V193.6z M1295.5,193.6h-3.4v-2.5h3.4V193.6z M1278.3,193.6
							h-3.4v-2.5h3.4V193.6z M1261.1,193.6h-3.4v-2.5h3.4V193.6z M1243.9,193.6h-3.4v-2.5h3.4V193.6z M1226.7,193.6h-3.4v-2.5h3.4
							V193.6z M1209.5,193.6h-3.4v-2.5h3.4V193.6z M1192.4,193.6h-3.4v-2.5h3.4V193.6z M1175.2,193.6h-3.4v-2.5h3.4V193.6z
							 M1158,193.6h-3.4v-2.5h3.4V193.6z M1140.8,193.6h-3.4v-2.5h3.4V193.6z M1123.6,193.6h-3.4v-2.5h3.4V193.6z M1106.4,193.6
							h-3.4v-2.5h3.4V193.6z M1347,180.9h-3.4v-2.5h3.4V180.9z M1329.8,180.9h-3.4v-2.5h3.4V180.9z M1312.6,180.9h-3.4v-2.5h3.4
							V180.9z M1295.5,180.9h-3.4v-2.5h3.4V180.9z M1278.3,180.9h-3.4v-2.5h3.4V180.9z M1261.1,180.9h-3.4v-2.5h3.4V180.9z
							 M1243.9,180.9h-3.4v-2.5h3.4V180.9z M1226.7,180.9h-3.4v-2.5h3.4V180.9z M1209.5,180.9h-3.4v-2.5h3.4V180.9z M1192.4,180.9
							h-3.4v-2.5h3.4V180.9z M1175.2,180.9h-3.4v-2.5h3.4V180.9z M1158,180.9h-3.4v-2.5h3.4V180.9z M1140.8,180.9h-3.4v-2.5h3.4
							V180.9z M1123.6,180.9h-3.4v-2.5h3.4V180.9z M1106.4,180.9h-3.4v-2.5h3.4V180.9z M1347,168.1h-3.4v-2.5h3.4V168.1z
							 M1329.8,168.1h-3.4v-2.5h3.4V168.1z M1312.6,168.1h-3.4v-2.5h3.4V168.1z M1295.5,168.1h-3.4v-2.5h3.4V168.1z M1278.3,168.1
							h-3.4v-2.5h3.4V168.1z M1261.1,168.1h-3.4v-2.5h3.4V168.1z M1243.9,168.1h-3.4v-2.5h3.4V168.1z M1226.7,168.1h-3.4v-2.5h3.4
							V168.1z M1209.5,168.1h-3.4v-2.5h3.4V168.1z M1192.4,168.1h-3.4v-2.5h3.4V168.1z M1175.2,168.1h-3.4v-2.5h3.4V168.1z
							 M1158,168.1h-3.4v-2.5h3.4V168.1z M1140.8,168.1h-3.4v-2.5h3.4V168.1z M1123.6,168.1h-3.4v-2.5h3.4V168.1z M1106.4,168.1
							h-3.4v-2.5h3.4V168.1z M1347,155.4h-3.4v-2.5h3.4V155.4z M1329.8,155.4h-3.4v-2.5h3.4V155.4z M1312.6,155.4h-3.4v-2.5h3.4
							V155.4z M1295.5,155.4h-3.4v-2.5h3.4V155.4z M1278.3,155.4h-3.4v-2.5h3.4V155.4z M1261.1,155.4h-3.4v-2.5h3.4V155.4z
							 M1243.9,155.4h-3.4v-2.5h3.4V155.4z M1226.7,155.4h-3.4v-2.5h3.4V155.4z M1209.5,155.4h-3.4v-2.5h3.4V155.4z M1192.4,155.4
							h-3.4v-2.5h3.4V155.4z M1175.2,155.4h-3.4v-2.5h3.4V155.4z M1158,155.4h-3.4v-2.5h3.4V155.4z M1140.8,155.4h-3.4v-2.5h3.4
							V155.4z M1123.6,155.4h-3.4v-2.5h3.4V155.4z M1106.4,155.4h-3.4v-2.5h3.4V155.4z M1347,142.6h-3.4v-2.5h3.4V142.6z
							 M1329.8,142.6h-3.4v-2.5h3.4V142.6z M1312.6,142.6h-3.4v-2.5h3.4V142.6z M1295.5,142.6h-3.4v-2.5h3.4V142.6z M1278.3,142.6
							h-3.4v-2.5h3.4V142.6z M1261.1,142.6h-3.4v-2.5h3.4V142.6z M1243.9,142.6h-3.4v-2.5h3.4V142.6z M1226.7,142.6h-3.4v-2.5h3.4
							V142.6z M1209.5,142.6h-3.4v-2.5h3.4V142.6z M1192.4,142.6h-3.4v-2.5h3.4V142.6z M1175.2,142.6h-3.4v-2.5h3.4V142.6z
							 M1158,142.6h-3.4v-2.5h3.4V142.6z M1140.8,142.6h-3.4v-2.5h3.4V142.6z M1123.6,142.6h-3.4v-2.5h3.4V142.6z M1106.4,142.6
							h-3.4v-2.5h3.4V142.6z M1347,129.9h-3.4v-2.5h3.4V129.9z M1329.8,129.9h-3.4v-2.5h3.4V129.9z M1312.6,129.9h-3.4v-2.5h3.4
							V129.9z M1295.5,129.9h-3.4v-2.5h3.4V129.9z M1278.3,129.9h-3.4v-2.5h3.4V129.9z M1261.1,129.9h-3.4v-2.5h3.4V129.9z
							 M1243.9,129.9h-3.4v-2.5h3.4V129.9z M1226.7,129.9h-3.4v-2.5h3.4V129.9z M1209.5,129.9h-3.4v-2.5h3.4V129.9z M1192.4,129.9
							h-3.4v-2.5h3.4V129.9z M1175.2,129.9h-3.4v-2.5h3.4V129.9z M1158,129.9h-3.4v-2.5h3.4V129.9z M1140.8,129.9h-3.4v-2.5h3.4
							V129.9z M1123.6,129.9h-3.4v-2.5h3.4V129.9z M1106.4,129.9h-3.4v-2.5h3.4V129.9z M1347,117.2h-3.4v-2.5h3.4V117.2z
							 M1329.8,117.2h-3.4v-2.5h3.4V117.2z M1312.6,117.2h-3.4v-2.5h3.4V117.2z M1295.5,117.2h-3.4v-2.5h3.4V117.2z M1278.3,117.2
							h-3.4v-2.5h3.4V117.2z M1261.1,117.2h-3.4v-2.5h3.4V117.2z M1243.9,117.2h-3.4v-2.5h3.4V117.2z M1226.7,117.2h-3.4v-2.5h3.4
							V117.2z M1209.5,117.2h-3.4v-2.5h3.4V117.2z M1192.4,117.2h-3.4v-2.5h3.4V117.2z M1175.2,117.2h-3.4v-2.5h3.4V117.2z
							 M1158,117.2h-3.4v-2.5h3.4V117.2z M1140.8,117.2h-3.4v-2.5h3.4V117.2z M1123.6,117.2h-3.4v-2.5h3.4V117.2z M1106.4,117.2
							h-3.4v-2.5h3.4V117.2z M1347,104.4h-3.4v-2.5h3.4V104.4z M1329.8,104.4h-3.4v-2.5h3.4V104.4z M1312.6,104.4h-3.4v-2.5h3.4
							V104.4z M1295.5,104.4h-3.4v-2.5h3.4V104.4z M1278.3,104.4h-3.4v-2.5h3.4V104.4z M1261.1,104.4h-3.4v-2.5h3.4V104.4z
							 M1243.9,104.4h-3.4v-2.5h3.4V104.4z M1226.7,104.4h-3.4v-2.5h3.4V104.4z M1209.5,104.4h-3.4v-2.5h3.4V104.4z M1192.4,104.4
							h-3.4v-2.5h3.4V104.4z M1175.2,104.4h-3.4v-2.5h3.4V104.4z M1158,104.4h-3.4v-2.5h3.4V104.4z M1140.8,104.4h-3.4v-2.5h3.4
							V104.4z M1123.6,104.4h-3.4v-2.5h3.4V104.4z M1106.4,104.4h-3.4v-2.5h3.4V104.4z M1347,91.7h-3.4v-2.5h3.4V91.7z M1329.8,91.7
							h-3.4v-2.5h3.4V91.7z M1312.6,91.7h-3.4v-2.5h3.4V91.7z M1295.5,91.7h-3.4v-2.5h3.4V91.7z M1278.3,91.7h-3.4v-2.5h3.4V91.7z
							 M1261.1,91.7h-3.4v-2.5h3.4V91.7z M1243.9,91.7h-3.4v-2.5h3.4V91.7z M1226.7,91.7h-3.4v-2.5h3.4V91.7z M1209.5,91.7h-3.4
							v-2.5h3.4V91.7z M1192.4,91.7h-3.4v-2.5h3.4V91.7z M1175.2,91.7h-3.4v-2.5h3.4V91.7z M1158,91.7h-3.4v-2.5h3.4V91.7z
							 M1140.8,91.7h-3.4v-2.5h3.4V91.7z M1123.6,91.7h-3.4v-2.5h3.4V91.7z M1106.4,91.7h-3.4v-2.5h3.4V91.7z M1347,78.9h-3.4v-2.5
							h3.4V78.9z M1329.8,78.9h-3.4v-2.5h3.4V78.9z M1312.6,78.9h-3.4v-2.5h3.4V78.9z M1295.5,78.9h-3.4v-2.5h3.4V78.9z
							 M1278.3,78.9h-3.4v-2.5h3.4V78.9z M1261.1,78.9h-3.4v-2.5h3.4V78.9z M1243.9,78.9h-3.4v-2.5h3.4V78.9z M1226.7,78.9h-3.4
							v-2.5h3.4V78.9z M1209.5,78.9h-3.4v-2.5h3.4V78.9z M1192.4,78.9h-3.4v-2.5h3.4V78.9z M1175.2,78.9h-3.4v-2.5h3.4V78.9z
							 M1158,78.9h-3.4v-2.5h3.4V78.9z M1140.8,78.9h-3.4v-2.5h3.4V78.9z M1123.6,78.9h-3.4v-2.5h3.4V78.9z M1106.4,78.9h-3.4v-2.5
							h3.4V78.9z"/>
					</g>
				</g>
			</g>
		</g>
	</g>
</g>
</svg>
