<?xml version="1.0" encoding="utf-8"?>
<!-- Generator: Adobe Illustrator 22.1.0, SVG Export Plug-In . SVG Version: 6.00 Build 0)  -->
<svg version="1.1" id="Layer_1" xmlns="http://www.w3.org/2000/svg" xmlns:xlink="http://www.w3.org/1999/xlink" x="0px" y="0px"
	 viewBox="0 0 1440 472" style="enable-background:new 0 0 1440 472;" xml:space="preserve">
<style type="text/css">
	.st0{display:none;fill:#FF9900;}
	.st1{filter:url(#Adobe_OpacityMaskFilter);}
	.st2{fill:#FFFFFF;}
	.st3{opacity:0.4475;mask:url(#mask-2_1_);fill:url(#Path_1_1_);enable-background:new    ;}
	.st4{filter:url(#Adobe_OpacityMaskFilter_1_);}
	.st5{opacity:0.3213;mask:url(#mask-2_2_);fill:#FFB03A;enable-background:new    ;}
	.st6{filter:url(#Adobe_OpacityMaskFilter_2_);}
	.st7{opacity:0.4533;mask:url(#mask-2_3_);fill:#FFB74A;enable-background:new    ;}
	.st8{filter:url(#Adobe_OpacityMaskFilter_3_);}
	.st9{opacity:0.4475;mask:url(#mask-2_4_);}
	.st10{fill:url(#Combined-Shape_1_);}
	.st11{fill:url(#Combined-Shape-Copy_1_);}
</style>
<title>Header BG</title>
<desc>Created with Sketch.</desc>
<g id="AWS" transform="translate(0.000000, -110.000000)">
	<g id="Header-BG" transform="translate(0.000000, 110.000000)">
		<g id="Rectangle" transform="translate(720.000000, 236.000000) scale(-1, 1) translate(-720.000000, -236.000000) ">
			<polygon id="path-1_1_" class="st0" points="1440,0 0,0 0,472 1440,402 			"/>
		</g>
		<defs>
			<filter id="Adobe_OpacityMaskFilter" filterUnits="userSpaceOnUse" x="-290" y="270" width="676.1" height="549">
				<feColorMatrix  type="matrix" values="1 0 0 0 0  0 1 0 0 0  0 0 1 0 0  0 0 0 1 0"/>
			</filter>
		</defs>
		<mask maskUnits="userSpaceOnUse" x="-290" y="270" width="676.1" height="549" id="mask-2_1_">
			<g class="st1">
				<polygon id="path-1_2_" class="st2" points="0,0 1440,0 1440,472 0,402 				"/>
			</g>
		</mask>
		
			<linearGradient id="Path_1_1_" gradientUnits="userSpaceOnUse" x1="570.8383" y1="385.8361" x2="571.8763" y2="385.1584" gradientTransform="matrix(-676.1208 0 0 549 386345 -211009)">
			<stop  offset="0" style="stop-color:#FFB84C"/>
			<stop  offset="1" style="stop-color:#FFBD59;stop-opacity:0.4885"/>
		</linearGradient>
		<polygon id="Path_1" class="st3" points="386.1,819 170.9,819 48.1,610.9 -74.8,819 -290,819 48.1,270 		"/>
		<defs>
			<filter id="Adobe_OpacityMaskFilter_1_" filterUnits="userSpaceOnUse" x="980" y="-78" width="391.2" height="226.5">
				<feColorMatrix  type="matrix" values="1 0 0 0 0  0 1 0 0 0  0 0 1 0 0  0 0 0 1 0"/>
			</filter>
		</defs>
		<mask maskUnits="userSpaceOnUse" x="980" y="-78" width="391.2" height="226.5" id="mask-2_2_">
			<g class="st4">
				<polygon id="path-1_3_" class="st2" points="0,0 1440,0 1440,472 0,402 				"/>
			</g>
		</mask>
		<polyline id="Path" class="st5" points="1371.2,52.6 1145,-78 980,17.9 1206.2,148.5 1371.2,52.6 		"/>
		<defs>
			<filter id="Adobe_OpacityMaskFilter_2_" filterUnits="userSpaceOnUse" x="980" y="-105" width="391.2" height="226.5">
				<feColorMatrix  type="matrix" values="1 0 0 0 0  0 1 0 0 0  0 0 1 0 0  0 0 0 1 0"/>
			</filter>
		</defs>
		<mask maskUnits="userSpaceOnUse" x="980" y="-105" width="391.2" height="226.5" id="mask-2_3_">
			<g class="st6">
				<polygon id="path-1_4_" class="st2" points="0,0 1440,0 1440,472 0,402 				"/>
			</g>
		</mask>
		<polyline id="Path_1_" class="st7" points="1371.2,25.6 1145,-105 980,-9.1 1206.2,121.5 1371.2,25.6 		"/>
		<defs>
			<filter id="Adobe_OpacityMaskFilter_3_" filterUnits="userSpaceOnUse" x="60" y="20" width="1347" height="432.1">
				<feColorMatrix  type="matrix" values="1 0 0 0 0  0 1 0 0 0  0 0 1 0 0  0 0 0 1 0"/>
			</filter>
		</defs>
		<mask maskUnits="userSpaceOnUse" x="60" y="20" width="1347" height="432.1" id="mask-2_4_">
			<g class="st8">
				<polygon id="path-1_5_" class="st2" points="0,0 1440,0 1440,472 0,402 				"/>
			</g>
		</mask>
		<g id="Group-18-Copy" class="st9">
			<g transform="translate(60.000000, 20.000000)">
				
					<linearGradient id="Combined-Shape_1_" gradientUnits="userSpaceOnUse" x1="507.5845" y1="366.1396" x2="508.6225" y2="365.462" gradientTransform="matrix(244 0 0 -329.0845 -123870 120530.9297)">
					<stop  offset="0" style="stop-color:#FFB84C"/>
					<stop  offset="1" style="stop-color:#FFBD59;stop-opacity:0.4885"/>
				</linearGradient>
				<path id="Combined-Shape" class="st10" d="M0,0h3.4v3.4H0V0z M17.2,0h3.4v3.4h-3.4V0z M34.4,0h3.4v3.4h-3.4V0z M51.5,0H55v3.4
					h-3.4V0z M68.7,0h3.4v3.4h-3.4V0z M85.9,0h3.4v3.4h-3.4V0z M103.1,0h3.4v3.4h-3.4V0z M120.3,0h3.4v3.4h-3.4V0z M137.5,0h3.4v3.4
					h-3.4V0z M154.6,0h3.4v3.4h-3.4V0z M171.8,0h3.4v3.4h-3.4V0z M189,0h3.4v3.4H189V0z M206.2,0h3.4v3.4h-3.4V0z M223.4,0h3.4v3.4
					h-3.4V0z M240.6,0h3.4v3.4h-3.4V0z M0,17.2h3.4v3.4H0V17.2z M17.2,17.2h3.4v3.4h-3.4V17.2z M34.4,17.2h3.4v3.4h-3.4V17.2z
					 M51.5,17.2H55v3.4h-3.4V17.2z M68.7,17.2h3.4v3.4h-3.4V17.2z M85.9,17.2h3.4v3.4h-3.4V17.2z M103.1,17.2h3.4v3.4h-3.4V17.2z
					 M120.3,17.2h3.4v3.4h-3.4V17.2z M137.5,17.2h3.4v3.4h-3.4V17.2z M154.6,17.2h3.4v3.4h-3.4V17.2z M171.8,17.2h3.4v3.4h-3.4V17.2
					z M189,17.2h3.4v3.4H189V17.2z M206.2,17.2h3.4v3.4h-3.4V17.2z M223.4,17.2h3.4v3.4h-3.4V17.2z M240.6,17.2h3.4v3.4h-3.4V17.2z
					 M0,34.4h3.4v3.4H0V34.4z M17.2,34.4h3.4v3.4h-3.4V34.4z M34.4,34.4h3.4v3.4h-3.4V34.4z M51.5,34.4H55v3.4h-3.4V34.4z
					 M68.7,34.4h3.4v3.4h-3.4V34.4z M85.9,34.4h3.4v3.4h-3.4V34.4z M103.1,34.4h3.4v3.4h-3.4V34.4z M120.3,34.4h3.4v3.4h-3.4V34.4z
					 M137.5,34.4h3.4v3.4h-3.4V34.4z M154.6,34.4h3.4v3.4h-3.4V34.4z M171.8,34.4h3.4v3.4h-3.4V34.4z M189,34.4h3.4v3.4H189V34.4z
					 M206.2,34.4h3.4v3.4h-3.4V34.4z M223.4,34.4h3.4v3.4h-3.4V34.4z M240.6,34.4h3.4v3.4h-3.4V34.4z M0,51.5h3.4V55H0V51.5z
					 M17.2,51.5h3.4V55h-3.4V51.5z M34.4,51.5h3.4V55h-3.4V51.5z M51.5,51.5H55V55h-3.4V51.5z M68.7,51.5h3.4V55h-3.4V51.5z
					 M85.9,51.5h3.4V55h-3.4V51.5z M103.1,51.5h3.4V55h-3.4V51.5z M120.3,51.5h3.4V55h-3.4V51.5z M137.5,51.5h3.4V55h-3.4V51.5z
					 M154.6,51.5h3.4V55h-3.4V51.5z M171.8,51.5h3.4V55h-3.4V51.5z M189,51.5h3.4V55H189V51.5z M206.2,51.5h3.4V55h-3.4V51.5z
					 M223.4,51.5h3.4V55h-3.4V51.5z M240.6,51.5h3.4V55h-3.4V51.5z M0,68.7h3.4v3.4H0V68.7z M17.2,68.7h3.4v3.4h-3.4V68.7z
					 M34.4,68.7h3.4v3.4h-3.4V68.7z M51.5,68.7H55v3.4h-3.4V68.7z M68.7,68.7h3.4v3.4h-3.4V68.7z M85.9,68.7h3.4v3.4h-3.4V68.7z
					 M103.1,68.7h3.4v3.4h-3.4V68.7z M120.3,68.7h3.4v3.4h-3.4V68.7z M137.5,68.7h3.4v3.4h-3.4V68.7z M154.6,68.7h3.4v3.4h-3.4V68.7
					z M171.8,68.7h3.4v3.4h-3.4V68.7z M189,68.7h3.4v3.4H189V68.7z M206.2,68.7h3.4v3.4h-3.4V68.7z M223.4,68.7h3.4v3.4h-3.4V68.7z
					 M240.6,68.7h3.4v3.4h-3.4V68.7z M0,85.9h3.4v3.4H0V85.9z M17.2,85.9h3.4v3.4h-3.4V85.9z M34.4,85.9h3.4v3.4h-3.4V85.9z
					 M51.5,85.9H55v3.4h-3.4V85.9z M68.7,85.9h3.4v3.4h-3.4V85.9z M85.9,85.9h3.4v3.4h-3.4V85.9z M103.1,85.9h3.4v3.4h-3.4V85.9z
					 M120.3,85.9h3.4v3.4h-3.4V85.9z M137.5,85.9h3.4v3.4h-3.4V85.9z M154.6,85.9h3.4v3.4h-3.4V85.9z M171.8,85.9h3.4v3.4h-3.4V85.9
					z M189,85.9h3.4v3.4H189V85.9z M206.2,85.9h3.4v3.4h-3.4V85.9z M223.4,85.9h3.4v3.4h-3.4V85.9z M240.6,85.9h3.4v3.4h-3.4V85.9z
					 M0,103.1h3.4v3.4H0V103.1z M17.2,103.1h3.4v3.4h-3.4V103.1z M34.4,103.1h3.4v3.4h-3.4V103.1z M51.5,103.1H55v3.4h-3.4V103.1z
					 M68.7,103.1h3.4v3.4h-3.4V103.1z M85.9,103.1h3.4v3.4h-3.4V103.1z M103.1,103.1h3.4v3.4h-3.4V103.1z M120.3,103.1h3.4v3.4h-3.4
					V103.1z M137.5,103.1h3.4v3.4h-3.4V103.1z M154.6,103.1h3.4v3.4h-3.4V103.1z M171.8,103.1h3.4v3.4h-3.4V103.1z M189,103.1h3.4
					v3.4H189V103.1z M206.2,103.1h3.4v3.4h-3.4V103.1z M223.4,103.1h3.4v3.4h-3.4V103.1z M240.6,103.1h3.4v3.4h-3.4V103.1z M0,120.3
					h3.4v3.4H0V120.3z M17.2,120.3h3.4v3.4h-3.4V120.3z M34.4,120.3h3.4v3.4h-3.4V120.3z M51.5,120.3H55v3.4h-3.4V120.3z
					 M68.7,120.3h3.4v3.4h-3.4V120.3z M85.9,120.3h3.4v3.4h-3.4V120.3z M103.1,120.3h3.4v3.4h-3.4V120.3z M120.3,120.3h3.4v3.4h-3.4
					V120.3z M137.5,120.3h3.4v3.4h-3.4V120.3z M154.6,120.3h3.4v3.4h-3.4V120.3z M171.8,120.3h3.4v3.4h-3.4V120.3z M189,120.3h3.4
					v3.4H189V120.3z M206.2,120.3h3.4v3.4h-3.4V120.3z M223.4,120.3h3.4v3.4h-3.4V120.3z M240.6,120.3h3.4v3.4h-3.4V120.3z M0,137.5
					h3.4v3.4H0V137.5z M17.2,137.5h3.4v3.4h-3.4V137.5z M34.4,137.5h3.4v3.4h-3.4V137.5z M51.5,137.5H55v3.4h-3.4V137.5z
					 M68.7,137.5h3.4v3.4h-3.4V137.5z M85.9,137.5h3.4v3.4h-3.4V137.5z M103.1,137.5h3.4v3.4h-3.4V137.5z M120.3,137.5h3.4v3.4h-3.4
					V137.5z M137.5,137.5h3.4v3.4h-3.4V137.5z M154.6,137.5h3.4v3.4h-3.4V137.5z M171.8,137.5h3.4v3.4h-3.4V137.5z M189,137.5h3.4
					v3.4H189V137.5z M206.2,137.5h3.4v3.4h-3.4V137.5z M223.4,137.5h3.4v3.4h-3.4V137.5z M240.6,137.5h3.4v3.4h-3.4V137.5z M0,154.6
					h3.4v3.4H0V154.6z M17.2,154.6h3.4v3.4h-3.4V154.6z M34.4,154.6h3.4v3.4h-3.4V154.6z M51.5,154.6H55v3.4h-3.4V154.6z
					 M68.7,154.6h3.4v3.4h-3.4V154.6z M85.9,154.6h3.4v3.4h-3.4V154.6z M103.1,154.6h3.4v3.4h-3.4V154.6z M120.3,154.6h3.4v3.4h-3.4
					V154.6z M137.5,154.6h3.4v3.4h-3.4V154.6z M154.6,154.6h3.4v3.4h-3.4V154.6z M171.8,154.6h3.4v3.4h-3.4V154.6z M189,154.6h3.4
					v3.4H189V154.6z M206.2,154.6h3.4v3.4h-3.4V154.6z M223.4,154.6h3.4v3.4h-3.4V154.6z M240.6,154.6h3.4v3.4h-3.4V154.6z M0,171
					h3.4v3.4H0V171z M17.2,171h3.4v3.4h-3.4V171z M34.4,171h3.4v3.4h-3.4V171z M51.5,171H55v3.4h-3.4V171z M68.7,171h3.4v3.4h-3.4
					V171z M85.9,171h3.4v3.4h-3.4V171z M103.1,171h3.4v3.4h-3.4V171z M120.3,171h3.4v3.4h-3.4V171z M137.5,171h3.4v3.4h-3.4V171z
					 M154.6,171h3.4v3.4h-3.4V171z M171.8,171h3.4v3.4h-3.4V171z M189,171h3.4v3.4H189V171z M206.2,171h3.4v3.4h-3.4V171z
					 M223.4,171h3.4v3.4h-3.4V171z M240.6,171h3.4v3.4h-3.4V171z M0,188.2h3.4v3.4H0V188.2z M17.2,188.2h3.4v3.4h-3.4V188.2z
					 M34.4,188.2h3.4v3.4h-3.4V188.2z M51.5,188.2H55v3.4h-3.4V188.2z M68.7,188.2h3.4v3.4h-3.4V188.2z M85.9,188.2h3.4v3.4h-3.4
					V188.2z M103.1,188.2h3.4v3.4h-3.4V188.2z M120.3,188.2h3.4v3.4h-3.4V188.2z M137.5,188.2h3.4v3.4h-3.4V188.2z M154.6,188.2h3.4
					v3.4h-3.4V188.2z M171.8,188.2h3.4v3.4h-3.4V188.2z M189,188.2h3.4v3.4H189V188.2z M206.2,188.2h3.4v3.4h-3.4V188.2z
					 M223.4,188.2h3.4v3.4h-3.4V188.2z M240.6,188.2h3.4v3.4h-3.4V188.2z M0,205.4h3.4v3.4H0V205.4z M17.2,205.4h3.4v3.4h-3.4V205.4
					z M34.4,205.4h3.4v3.4h-3.4V205.4z M51.5,205.4H55v3.4h-3.4V205.4z M68.7,205.4h3.4v3.4h-3.4V205.4z M85.9,205.4h3.4v3.4h-3.4
					V205.4z M103.1,205.4h3.4v3.4h-3.4V205.4z M120.3,205.4h3.4v3.4h-3.4V205.4z M137.5,205.4h3.4v3.4h-3.4V205.4z M154.6,205.4h3.4
					v3.4h-3.4V205.4z M171.8,205.4h3.4v3.4h-3.4V205.4z M189,205.4h3.4v3.4H189V205.4z M206.2,205.4h3.4v3.4h-3.4V205.4z
					 M223.4,205.4h3.4v3.4h-3.4V205.4z M240.6,205.4h3.4v3.4h-3.4V205.4z M0,222.5h3.4v3.4H0V222.5z M17.2,222.5h3.4v3.4h-3.4V222.5
					z M34.4,222.5h3.4v3.4h-3.4V222.5z M51.5,222.5H55v3.4h-3.4V222.5z M68.7,222.5h3.4v3.4h-3.4V222.5z M85.9,222.5h3.4v3.4h-3.4
					V222.5z M103.1,222.5h3.4v3.4h-3.4V222.5z M120.3,222.5h3.4v3.4h-3.4V222.5z M137.5,222.5h3.4v3.4h-3.4V222.5z M154.6,222.5h3.4
					v3.4h-3.4V222.5z M171.8,222.5h3.4v3.4h-3.4V222.5z M189,222.5h3.4v3.4H189V222.5z M206.2,222.5h3.4v3.4h-3.4V222.5z
					 M223.4,222.5h3.4v3.4h-3.4V222.5z M240.6,222.5h3.4v3.4h-3.4V222.5z M0,239.7h3.4v3.4H0V239.7z M17.2,239.7h3.4v3.4h-3.4V239.7
					z M34.4,239.7h3.4v3.4h-3.4V239.7z M51.5,239.7H55v3.4h-3.4V239.7z M68.7,239.7h3.4v3.4h-3.4V239.7z M85.9,239.7h3.4v3.4h-3.4
					V239.7z M103.1,239.7h3.4v3.4h-3.4V239.7z M120.3,239.7h3.4v3.4h-3.4V239.7z M137.5,239.7h3.4v3.4h-3.4V239.7z M154.6,239.7h3.4
					v3.4h-3.4V239.7z M171.8,239.7h3.4v3.4h-3.4V239.7z M189,239.7h3.4v3.4H189V239.7z M206.2,239.7h3.4v3.4h-3.4V239.7z
					 M223.4,239.7h3.4v3.4h-3.4V239.7z M240.6,239.7h3.4v3.4h-3.4V239.7z M0,256.9h3.4v3.4H0V256.9z M17.2,256.9h3.4v3.4h-3.4V256.9
					z M34.4,256.9h3.4v3.4h-3.4V256.9z M51.5,256.9H55v3.4h-3.4V256.9z M68.7,256.9h3.4v3.4h-3.4V256.9z M85.9,256.9h3.4v3.4h-3.4
					V256.9z M103.1,256.9h3.4v3.4h-3.4V256.9z M120.3,256.9h3.4v3.4h-3.4V256.9z M137.5,256.9h3.4v3.4h-3.4V256.9z M154.6,256.9h3.4
					v3.4h-3.4V256.9z M171.8,256.9h3.4v3.4h-3.4V256.9z M189,256.9h3.4v3.4H189V256.9z M206.2,256.9h3.4v3.4h-3.4V256.9z
					 M223.4,256.9h3.4v3.4h-3.4V256.9z M240.6,256.9h3.4v3.4h-3.4V256.9z M0,274.1h3.4v3.4H0V274.1z M17.2,274.1h3.4v3.4h-3.4V274.1
					z M34.4,274.1h3.4v3.4h-3.4V274.1z M51.5,274.1H55v3.4h-3.4V274.1z M68.7,274.1h3.4v3.4h-3.4V274.1z M85.9,274.1h3.4v3.4h-3.4
					V274.1z M103.1,274.1h3.4v3.4h-3.4V274.1z M120.3,274.1h3.4v3.4h-3.4V274.1z M137.5,274.1h3.4v3.4h-3.4V274.1z M154.6,274.1h3.4
					v3.4h-3.4V274.1z M171.8,274.1h3.4v3.4h-3.4V274.1z M189,274.1h3.4v3.4H189V274.1z M206.2,274.1h3.4v3.4h-3.4V274.1z
					 M223.4,274.1h3.4v3.4h-3.4V274.1z M240.6,274.1h3.4v3.4h-3.4V274.1z M0,291.3h3.4v3.4H0V291.3z M17.2,291.3h3.4v3.4h-3.4V291.3
					z M34.4,291.3h3.4v3.4h-3.4V291.3z M51.5,291.3H55v3.4h-3.4V291.3z M68.7,291.3h3.4v3.4h-3.4V291.3z M85.9,291.3h3.4v3.4h-3.4
					V291.3z M103.1,291.3h3.4v3.4h-3.4V291.3z M120.3,291.3h3.4v3.4h-3.4V291.3z M137.5,291.3h3.4v3.4h-3.4V291.3z M154.6,291.3h3.4
					v3.4h-3.4V291.3z M171.8,291.3h3.4v3.4h-3.4V291.3z M189,291.3h3.4v3.4H189V291.3z M206.2,291.3h3.4v3.4h-3.4V291.3z
					 M223.4,291.3h3.4v3.4h-3.4V291.3z M240.6,291.3h3.4v3.4h-3.4V291.3z M0,308.5h3.4v3.4H0V308.5z M17.2,308.5h3.4v3.4h-3.4V308.5
					z M34.4,308.5h3.4v3.4h-3.4V308.5z M51.5,308.5H55v3.4h-3.4V308.5z M68.7,308.5h3.4v3.4h-3.4V308.5z M85.9,308.5h3.4v3.4h-3.4
					V308.5z M103.1,308.5h3.4v3.4h-3.4V308.5z M120.3,308.5h3.4v3.4h-3.4V308.5z M137.5,308.5h3.4v3.4h-3.4V308.5z M154.6,308.5h3.4
					v3.4h-3.4V308.5z M171.8,308.5h3.4v3.4h-3.4V308.5z M189,308.5h3.4v3.4H189V308.5z M206.2,308.5h3.4v3.4h-3.4V308.5z
					 M223.4,308.5h3.4v3.4h-3.4V308.5z M240.6,308.5h3.4v3.4h-3.4V308.5z M0,325.6h3.4v3.4H0V325.6z M17.2,325.6h3.4v3.4h-3.4V325.6
					z M34.4,325.6h3.4v3.4h-3.4V325.6z M51.5,325.6H55v3.4h-3.4V325.6z M68.7,325.6h3.4v3.4h-3.4V325.6z M85.9,325.6h3.4v3.4h-3.4
					V325.6z M103.1,325.6h3.4v3.4h-3.4V325.6z M120.3,325.6h3.4v3.4h-3.4V325.6z M137.5,325.6h3.4v3.4h-3.4V325.6z M154.6,325.6h3.4
					v3.4h-3.4V325.6z M171.8,325.6h3.4v3.4h-3.4V325.6z M189,325.6h3.4v3.4H189V325.6z M206.2,325.6h3.4v3.4h-3.4V325.6z
					 M223.4,325.6h3.4v3.4h-3.4V325.6z M240.6,325.6h3.4v3.4h-3.4V325.6z"/>
				
					<linearGradient id="Combined-Shape-Copy_1_" gradientUnits="userSpaceOnUse" x1="512.2566" y1="365.617" x2="513.2946" y2="364.9393" gradientTransform="matrix(-244 0 0 329.0845 126357 -119926.8438)">
					<stop  offset="0" style="stop-color:#FFB84C"/>
					<stop  offset="1" style="stop-color:#FFBD59;stop-opacity:0.4885"/>
				</linearGradient>
				<path id="Combined-Shape-Copy" class="st11" d="M1347,432.1h-3.4v-3.4h3.4V432.1z M1329.8,432.1h-3.4v-3.4h3.4V432.1z
					 M1312.6,432.1h-3.4v-3.4h3.4V432.1z M1295.5,432.1h-3.4v-3.4h3.4V432.1z M1278.3,432.1h-3.4v-3.4h3.4V432.1z M1261.1,432.1
					h-3.4v-3.4h3.4V432.1z M1243.9,432.1h-3.4v-3.4h3.4V432.1z M1226.7,432.1h-3.4v-3.4h3.4V432.1z M1209.5,432.1h-3.4v-3.4h3.4
					V432.1z M1192.4,432.1h-3.4v-3.4h3.4V432.1z M1175.2,432.1h-3.4v-3.4h3.4V432.1z M1158,432.1h-3.4v-3.4h3.4V432.1z
					 M1140.8,432.1h-3.4v-3.4h3.4V432.1z M1123.6,432.1h-3.4v-3.4h3.4V432.1z M1106.4,432.1h-3.4v-3.4h3.4V432.1z M1347,414.9h-3.4
					v-3.4h3.4V414.9z M1329.8,414.9h-3.4v-3.4h3.4V414.9z M1312.6,414.9h-3.4v-3.4h3.4V414.9z M1295.5,414.9h-3.4v-3.4h3.4V414.9z
					 M1278.3,414.9h-3.4v-3.4h3.4V414.9z M1261.1,414.9h-3.4v-3.4h3.4V414.9z M1243.9,414.9h-3.4v-3.4h3.4V414.9z M1226.7,414.9
					h-3.4v-3.4h3.4V414.9z M1209.5,414.9h-3.4v-3.4h3.4V414.9z M1192.4,414.9h-3.4v-3.4h3.4V414.9z M1175.2,414.9h-3.4v-3.4h3.4
					V414.9z M1158,414.9h-3.4v-3.4h3.4V414.9z M1140.8,414.9h-3.4v-3.4h3.4V414.9z M1123.6,414.9h-3.4v-3.4h3.4V414.9z
					 M1106.4,414.9h-3.4v-3.4h3.4V414.9z M1347,397.7h-3.4v-3.4h3.4V397.7z M1329.8,397.7h-3.4v-3.4h3.4V397.7z M1312.6,397.7h-3.4
					v-3.4h3.4V397.7z M1295.5,397.7h-3.4v-3.4h3.4V397.7z M1278.3,397.7h-3.4v-3.4h3.4V397.7z M1261.1,397.7h-3.4v-3.4h3.4V397.7z
					 M1243.9,397.7h-3.4v-3.4h3.4V397.7z M1226.7,397.7h-3.4v-3.4h3.4V397.7z M1209.5,397.7h-3.4v-3.4h3.4V397.7z M1192.4,397.7
					h-3.4v-3.4h3.4V397.7z M1175.2,397.7h-3.4v-3.4h3.4V397.7z M1158,397.7h-3.4v-3.4h3.4V397.7z M1140.8,397.7h-3.4v-3.4h3.4V397.7
					z M1123.6,397.7h-3.4v-3.4h3.4V397.7z M1106.4,397.7h-3.4v-3.4h3.4V397.7z M1347,380.5h-3.4v-3.4h3.4V380.5z M1329.8,380.5h-3.4
					v-3.4h3.4V380.5z M1312.6,380.5h-3.4v-3.4h3.4V380.5z M1295.5,380.5h-3.4v-3.4h3.4V380.5z M1278.3,380.5h-3.4v-3.4h3.4V380.5z
					 M1261.1,380.5h-3.4v-3.4h3.4V380.5z M1243.9,380.5h-3.4v-3.4h3.4V380.5z M1226.7,380.5h-3.4v-3.4h3.4V380.5z M1209.5,380.5
					h-3.4v-3.4h3.4V380.5z M1192.4,380.5h-3.4v-3.4h3.4V380.5z M1175.2,380.5h-3.4v-3.4h3.4V380.5z M1158,380.5h-3.4v-3.4h3.4V380.5
					z M1140.8,380.5h-3.4v-3.4h3.4V380.5z M1123.6,380.5h-3.4v-3.4h3.4V380.5z M1106.4,380.5h-3.4v-3.4h3.4V380.5z M1347,363.4h-3.4
					v-3.4h3.4V363.4z M1329.8,363.4h-3.4v-3.4h3.4V363.4z M1312.6,363.4h-3.4v-3.4h3.4V363.4z M1295.5,363.4h-3.4v-3.4h3.4V363.4z
					 M1278.3,363.4h-3.4v-3.4h3.4V363.4z M1261.1,363.4h-3.4v-3.4h3.4V363.4z M1243.9,363.4h-3.4v-3.4h3.4V363.4z M1226.7,363.4
					h-3.4v-3.4h3.4V363.4z M1209.5,363.4h-3.4v-3.4h3.4V363.4z M1192.4,363.4h-3.4v-3.4h3.4V363.4z M1175.2,363.4h-3.4v-3.4h3.4
					V363.4z M1158,363.4h-3.4v-3.4h3.4V363.4z M1140.8,363.4h-3.4v-3.4h3.4V363.4z M1123.6,363.4h-3.4v-3.4h3.4V363.4z
					 M1106.4,363.4h-3.4v-3.4h3.4V363.4z M1347,346.2h-3.4v-3.4h3.4V346.2z M1329.8,346.2h-3.4v-3.4h3.4V346.2z M1312.6,346.2h-3.4
					v-3.4h3.4V346.2z M1295.5,346.2h-3.4v-3.4h3.4V346.2z M1278.3,346.2h-3.4v-3.4h3.4V346.2z M1261.1,346.2h-3.4v-3.4h3.4V346.2z
					 M1243.9,346.2h-3.4v-3.4h3.4V346.2z M1226.7,346.2h-3.4v-3.4h3.4V346.2z M1209.5,346.2h-3.4v-3.4h3.4V346.2z M1192.4,346.2
					h-3.4v-3.4h3.4V346.2z M1175.2,346.2h-3.4v-3.4h3.4V346.2z M1158,346.2h-3.4v-3.4h3.4V346.2z M1140.8,346.2h-3.4v-3.4h3.4V346.2
					z M1123.6,346.2h-3.4v-3.4h3.4V346.2z M1106.4,346.2h-3.4v-3.4h3.4V346.2z M1347,329h-3.4v-3.4h3.4V329z M1329.8,329h-3.4v-3.4
					h3.4V329z M1312.6,329h-3.4v-3.4h3.4V329z M1295.5,329h-3.4v-3.4h3.4V329z M1278.3,329h-3.4v-3.4h3.4V329z M1261.1,329h-3.4
					v-3.4h3.4V329z M1243.9,329h-3.4v-3.4h3.4V329z M1226.7,329h-3.4v-3.4h3.4V329z M1209.5,329h-3.4v-3.4h3.4V329z M1192.4,329
					h-3.4v-3.4h3.4V329z M1175.2,329h-3.4v-3.4h3.4V329z M1158,329h-3.4v-3.4h3.4V329z M1140.8,329h-3.4v-3.4h3.4V329z M1123.6,329
					h-3.4v-3.4h3.4V329z M1106.4,329h-3.4v-3.4h3.4V329z M1347,311.8h-3.4v-3.4h3.4V311.8z M1329.8,311.8h-3.4v-3.4h3.4V311.8z
					 M1312.6,311.8h-3.4v-3.4h3.4V311.8z M1295.5,311.8h-3.4v-3.4h3.4V311.8z M1278.3,311.8h-3.4v-3.4h3.4V311.8z M1261.1,311.8
					h-3.4v-3.4h3.4V311.8z M1243.9,311.8h-3.4v-3.4h3.4V311.8z M1226.7,311.8h-3.4v-3.4h3.4V311.8z M1209.5,311.8h-3.4v-3.4h3.4
					V311.8z M1192.4,311.8h-3.4v-3.4h3.4V311.8z M1175.2,311.8h-3.4v-3.4h3.4V311.8z M1158,311.8h-3.4v-3.4h3.4V311.8z
					 M1140.8,311.8h-3.4v-3.4h3.4V311.8z M1123.6,311.8h-3.4v-3.4h3.4V311.8z M1106.4,311.8h-3.4v-3.4h3.4V311.8z M1347,294.6h-3.4
					v-3.4h3.4V294.6z M1329.8,294.6h-3.4v-3.4h3.4V294.6z M1312.6,294.6h-3.4v-3.4h3.4V294.6z M1295.5,294.6h-3.4v-3.4h3.4V294.6z
					 M1278.3,294.6h-3.4v-3.4h3.4V294.6z M1261.1,294.6h-3.4v-3.4h3.4V294.6z M1243.9,294.6h-3.4v-3.4h3.4V294.6z M1226.7,294.6
					h-3.4v-3.4h3.4V294.6z M1209.5,294.6h-3.4v-3.4h3.4V294.6z M1192.4,294.6h-3.4v-3.4h3.4V294.6z M1175.2,294.6h-3.4v-3.4h3.4
					V294.6z M1158,294.6h-3.4v-3.4h3.4V294.6z M1140.8,294.6h-3.4v-3.4h3.4V294.6z M1123.6,294.6h-3.4v-3.4h3.4V294.6z
					 M1106.4,294.6h-3.4v-3.4h3.4V294.6z M1347,277.4h-3.4V274h3.4V277.4z M1329.8,277.4h-3.4V274h3.4V277.4z M1312.6,277.4h-3.4
					V274h3.4V277.4z M1295.5,277.4h-3.4V274h3.4V277.4z M1278.3,277.4h-3.4V274h3.4V277.4z M1261.1,277.4h-3.4V274h3.4V277.4z
					 M1243.9,277.4h-3.4V274h3.4V277.4z M1226.7,277.4h-3.4V274h3.4V277.4z M1209.5,277.4h-3.4V274h3.4V277.4z M1192.4,277.4h-3.4
					V274h3.4V277.4z M1175.2,277.4h-3.4V274h3.4V277.4z M1158,277.4h-3.4V274h3.4V277.4z M1140.8,277.4h-3.4V274h3.4V277.4z
					 M1123.6,277.4h-3.4V274h3.4V277.4z M1106.4,277.4h-3.4V274h3.4V277.4z M1347,261.1h-3.4v-3.4h3.4V261.1z M1329.8,261.1h-3.4
					v-3.4h3.4V261.1z M1312.6,261.1h-3.4v-3.4h3.4V261.1z M1295.5,261.1h-3.4v-3.4h3.4V261.1z M1278.3,261.1h-3.4v-3.4h3.4V261.1z
					 M1261.1,261.1h-3.4v-3.4h3.4V261.1z M1243.9,261.1h-3.4v-3.4h3.4V261.1z M1226.7,261.1h-3.4v-3.4h3.4V261.1z M1209.5,261.1
					h-3.4v-3.4h3.4V261.1z M1192.4,261.1h-3.4v-3.4h3.4V261.1z M1175.2,261.1h-3.4v-3.4h3.4V261.1z M1158,261.1h-3.4v-3.4h3.4V261.1
					z M1140.8,261.1h-3.4v-3.4h3.4V261.1z M1123.6,261.1h-3.4v-3.4h3.4V261.1z M1106.4,261.1h-3.4v-3.4h3.4V261.1z M1347,243.9h-3.4
					v-3.4h3.4V243.9z M1329.8,243.9h-3.4v-3.4h3.4V243.9z M1312.6,243.9h-3.4v-3.4h3.4V243.9z M1295.5,243.9h-3.4v-3.4h3.4V243.9z
					 M1278.3,243.9h-3.4v-3.4h3.4V243.9z M1261.1,243.9h-3.4v-3.4h3.4V243.9z M1243.9,243.9h-3.4v-3.4h3.4V243.9z M1226.7,243.9
					h-3.4v-3.4h3.4V243.9z M1209.5,243.9h-3.4v-3.4h3.4V243.9z M1192.4,243.9h-3.4v-3.4h3.4V243.9z M1175.2,243.9h-3.4v-3.4h3.4
					V243.9z M1158,243.9h-3.4v-3.4h3.4V243.9z M1140.8,243.9h-3.4v-3.4h3.4V243.9z M1123.6,243.9h-3.4v-3.4h3.4V243.9z
					 M1106.4,243.9h-3.4v-3.4h3.4V243.9z M1347,226.7h-3.4v-3.4h3.4V226.7z M1329.8,226.7h-3.4v-3.4h3.4V226.7z M1312.6,226.7h-3.4
					v-3.4h3.4V226.7z M1295.5,226.7h-3.4v-3.4h3.4V226.7z M1278.3,226.7h-3.4v-3.4h3.4V226.7z M1261.1,226.7h-3.4v-3.4h3.4V226.7z
					 M1243.9,226.7h-3.4v-3.4h3.4V226.7z M1226.7,226.7h-3.4v-3.4h3.4V226.7z M1209.5,226.7h-3.4v-3.4h3.4V226.7z M1192.4,226.7
					h-3.4v-3.4h3.4V226.7z M1175.2,226.7h-3.4v-3.4h3.4V226.7z M1158,226.7h-3.4v-3.4h3.4V226.7z M1140.8,226.7h-3.4v-3.4h3.4V226.7
					z M1123.6,226.7h-3.4v-3.4h3.4V226.7z M1106.4,226.7h-3.4v-3.4h3.4V226.7z M1347,209.5h-3.4v-3.4h3.4V209.5z M1329.8,209.5h-3.4
					v-3.4h3.4V209.5z M1312.6,209.5h-3.4v-3.4h3.4V209.5z M1295.5,209.5h-3.4v-3.4h3.4V209.5z M1278.3,209.5h-3.4v-3.4h3.4V209.5z
					 M1261.1,209.5h-3.4v-3.4h3.4V209.5z M1243.9,209.5h-3.4v-3.4h3.4V209.5z M1226.7,209.5h-3.4v-3.4h3.4V209.5z M1209.5,209.5
					h-3.4v-3.4h3.4V209.5z M1192.4,209.5h-3.4v-3.4h3.4V209.5z M1175.2,209.5h-3.4v-3.4h3.4V209.5z M1158,209.5h-3.4v-3.4h3.4V209.5
					z M1140.8,209.5h-3.4v-3.4h3.4V209.5z M1123.6,209.5h-3.4v-3.4h3.4V209.5z M1106.4,209.5h-3.4v-3.4h3.4V209.5z M1347,192.4h-3.4
					v-3.4h3.4V192.4z M1329.8,192.4h-3.4v-3.4h3.4V192.4z M1312.6,192.4h-3.4v-3.4h3.4V192.4z M1295.5,192.4h-3.4v-3.4h3.4V192.4z
					 M1278.3,192.4h-3.4v-3.4h3.4V192.4z M1261.1,192.4h-3.4v-3.4h3.4V192.4z M1243.9,192.4h-3.4v-3.4h3.4V192.4z M1226.7,192.4
					h-3.4v-3.4h3.4V192.4z M1209.5,192.4h-3.4v-3.4h3.4V192.4z M1192.4,192.4h-3.4v-3.4h3.4V192.4z M1175.2,192.4h-3.4v-3.4h3.4
					V192.4z M1158,192.4h-3.4v-3.4h3.4V192.4z M1140.8,192.4h-3.4v-3.4h3.4V192.4z M1123.6,192.4h-3.4v-3.4h3.4V192.4z
					 M1106.4,192.4h-3.4v-3.4h3.4V192.4z M1347,175.2h-3.4v-3.4h3.4V175.2z M1329.8,175.2h-3.4v-3.4h3.4V175.2z M1312.6,175.2h-3.4
					v-3.4h3.4V175.2z M1295.5,175.2h-3.4v-3.4h3.4V175.2z M1278.3,175.2h-3.4v-3.4h3.4V175.2z M1261.1,175.2h-3.4v-3.4h3.4V175.2z
					 M1243.9,175.2h-3.4v-3.4h3.4V175.2z M1226.7,175.2h-3.4v-3.4h3.4V175.2z M1209.5,175.2h-3.4v-3.4h3.4V175.2z M1192.4,175.2
					h-3.4v-3.4h3.4V175.2z M1175.2,175.2h-3.4v-3.4h3.4V175.2z M1158,175.2h-3.4v-3.4h3.4V175.2z M1140.8,175.2h-3.4v-3.4h3.4V175.2
					z M1123.6,175.2h-3.4v-3.4h3.4V175.2z M1106.4,175.2h-3.4v-3.4h3.4V175.2z M1347,158h-3.4v-3.4h3.4V158z M1329.8,158h-3.4v-3.4
					h3.4V158z M1312.6,158h-3.4v-3.4h3.4V158z M1295.5,158h-3.4v-3.4h3.4V158z M1278.3,158h-3.4v-3.4h3.4V158z M1261.1,158h-3.4
					v-3.4h3.4V158z M1243.9,158h-3.4v-3.4h3.4V158z M1226.7,158h-3.4v-3.4h3.4V158z M1209.5,158h-3.4v-3.4h3.4V158z M1192.4,158
					h-3.4v-3.4h3.4V158z M1175.2,158h-3.4v-3.4h3.4V158z M1158,158h-3.4v-3.4h3.4V158z M1140.8,158h-3.4v-3.4h3.4V158z M1123.6,158
					h-3.4v-3.4h3.4V158z M1106.4,158h-3.4v-3.4h3.4V158z M1347,140.8h-3.4v-3.4h3.4V140.8z M1329.8,140.8h-3.4v-3.4h3.4V140.8z
					 M1312.6,140.8h-3.4v-3.4h3.4V140.8z M1295.5,140.8h-3.4v-3.4h3.4V140.8z M1278.3,140.8h-3.4v-3.4h3.4V140.8z M1261.1,140.8
					h-3.4v-3.4h3.4V140.8z M1243.9,140.8h-3.4v-3.4h3.4V140.8z M1226.7,140.8h-3.4v-3.4h3.4V140.8z M1209.5,140.8h-3.4v-3.4h3.4
					V140.8z M1192.4,140.8h-3.4v-3.4h3.4V140.8z M1175.2,140.8h-3.4v-3.4h3.4V140.8z M1158,140.8h-3.4v-3.4h3.4V140.8z
					 M1140.8,140.8h-3.4v-3.4h3.4V140.8z M1123.6,140.8h-3.4v-3.4h3.4V140.8z M1106.4,140.8h-3.4v-3.4h3.4V140.8z M1347,123.6h-3.4
					v-3.4h3.4V123.6z M1329.8,123.6h-3.4v-3.4h3.4V123.6z M1312.6,123.6h-3.4v-3.4h3.4V123.6z M1295.5,123.6h-3.4v-3.4h3.4V123.6z
					 M1278.3,123.6h-3.4v-3.4h3.4V123.6z M1261.1,123.6h-3.4v-3.4h3.4V123.6z M1243.9,123.6h-3.4v-3.4h3.4V123.6z M1226.7,123.6
					h-3.4v-3.4h3.4V123.6z M1209.5,123.6h-3.4v-3.4h3.4V123.6z M1192.4,123.6h-3.4v-3.4h3.4V123.6z M1175.2,123.6h-3.4v-3.4h3.4
					V123.6z M1158,123.6h-3.4v-3.4h3.4V123.6z M1140.8,123.6h-3.4v-3.4h3.4V123.6z M1123.6,123.6h-3.4v-3.4h3.4V123.6z
					 M1106.4,123.6h-3.4v-3.4h3.4V123.6z M1347,106.4h-3.4V103h3.4V106.4z M1329.8,106.4h-3.4V103h3.4V106.4z M1312.6,106.4h-3.4
					V103h3.4V106.4z M1295.5,106.4h-3.4V103h3.4V106.4z M1278.3,106.4h-3.4V103h3.4V106.4z M1261.1,106.4h-3.4V103h3.4V106.4z
					 M1243.9,106.4h-3.4V103h3.4V106.4z M1226.7,106.4h-3.4V103h3.4V106.4z M1209.5,106.4h-3.4V103h3.4V106.4z M1192.4,106.4h-3.4
					V103h3.4V106.4z M1175.2,106.4h-3.4V103h3.4V106.4z M1158,106.4h-3.4V103h3.4V106.4z M1140.8,106.4h-3.4V103h3.4V106.4z
					 M1123.6,106.4h-3.4V103h3.4V106.4z M1106.4,106.4h-3.4V103h3.4V106.4z"/>
			</g>
		</g>
	</g>
</g>
</svg>
