<svg xmlns="http://www.w3.org/2000/svg" viewBox="0 0 502.5 263.22652"><defs><style>.cls-1,.cls-2,.cls-3,.cls-4,.cls-7{fill:none;stroke-width:3px;}.cls-1,.cls-3,.cls-7{stroke:#242424;}.cls-1,.cls-2,.cls-7{stroke-miterlimit:10;}.cls-2{stroke:#7ed257;}.cls-3,.cls-4{stroke-linejoin:bevel;}.cls-4{stroke:#28b655;}.cls-5{fill:#efefef;}.cls-6{fill:#28b655;}.cls-7{stroke-linecap:round;}</style></defs><title>start</title><g id="Layer_2" data-name="Layer 2"><g id="Layer_1-2" data-name="Layer 1"><line class="cls-1" y1="261.72652" x2="502.5" y2="261.72652"/><path class="cls-2" d="M156.16667,117.05986C141.26776,142.66778,138.5,173.94169,141.84048,201.128"/><path class="cls-3" d="M87.044,191.32648a12.49281,12.49281,0,0,1,17.25671-3.83482"/><path class="cls-3" d="M78.52787,237.96255a7.06612,7.06612,0,0,1,7.9088,6.11768"/><path class="cls-3" d="M109.39014,228.09349a16.29432,16.29432,0,0,1,22.50786-5.00175"/><path class="cls-3" d="M142.05548,214.70863a24.742,24.742,0,0,0-17.50529-30.3201"/><path class="cls-3" d="M124.55019,184.38853a24.742,24.742,0,0,0-30.3201,17.50529"/><path class="cls-2" d="M231.5,237.9047c15,6.09108,39.25,10.91623,56.48077,10.91623"/><path class="cls-4" d="M283.25,218.165c6.5,0,18.4976-1.78577,25.21309-4.42214"/><path class="cls-2" d="M173,165.76929c4.83333,26.94618,18.11265,46.1847,25.16527,50.03037"/><path class="cls-2" d="M325.23922,186.97652c-9.73489,5.21134-12.74461,7-25.48922,9.77625"/><path class="cls-3" d="M75.14821,243.99579a9.9842,9.9842,0,0,0,1.47051-14.05118"/><path class="cls-3" d="M76.61872,229.9446a9.9842,9.9842,0,0,0-14.05118-1.47051"/><path class="cls-3" d="M181.51667,235.48177A29.09329,29.09329,0,0,0,160.9328,199.8294"/><path class="cls-3" d="M160.9328,199.8294a29.09329,29.09329,0,0,0-35.65237,20.58388"/><path class="cls-3" d="M175.11209,222.08521a12.49281,12.49281,0,0,1,17.62672-1.34114"/><path class="cls-3" d="M220.39948,237.01707a16.84107,16.84107,0,0,0-11.91527-20.63789"/><path class="cls-3" d="M208.48421,216.37918a16.84107,16.84107,0,0,0-20.63789,11.91527"/><path class="cls-3" d="M235.44451,245.45533a10.2938,10.2938,0,0,0-11.052-9.488"/><path class="cls-3" d="M224.39249,235.96738a10.2938,10.2938,0,0,0-9.488,11.052"/><path class="cls-3" d="M208.48421,251.18653a10.20276,10.20276,0,0,1,14.09339-3.13187"/><path class="cls-3" d="M287.98077,244.80676a11.38127,11.38127,0,0,1,13.76684-8.357"/><path class="cls-3" d="M295.31545,236.89a14.90609,14.90609,0,0,1,18.03048-10.94515"/><path class="cls-3" d="M355.75012,203.794a24.85782,24.85782,0,0,0-33.20455-11.60615"/><path class="cls-3" d="M322.54556,192.18786a24.85782,24.85782,0,0,0-11.60615,33.20455"/><path class="cls-3" d="M367.77756,246.83392a10.2938,10.2938,0,0,0-12.77207-7.003"/><path class="cls-3" d="M355.00549,239.83088a10.2938,10.2938,0,0,0-7.003,12.77207"/><path class="cls-3" d="M367.294,245.34511a6.88312,6.88312,0,0,1,7.751-5.89789"/><path class="cls-3" d="M353.26774,201.128a10.10328,10.10328,0,0,1,11.37725-8.65713"/><path class="cls-3" d="M325.33768,191.71068A15.04433,15.04433,0,0,1,338.589,175.04975"/><path class="cls-3" d="M337.89177,182.11409a15.04433,15.04433,0,0,1,13.63936-16.3448"/><path class="cls-3" d="M351.46686,173.94169a41.419,41.419,0,0,1,37.55091-44.99932"/><path class="cls-3" d="M358.66338,146.59a10.10329,10.10329,0,0,1-2.58789-14.06025"/><path class="cls-3" d="M402.26867,191.96518a12.52277,12.52277,0,0,0-17.32848,3.70462"/><path class="cls-3" d="M384.94019,195.66979a12.52277,12.52277,0,0,0,3.70462,17.32848"/><path class="cls-3" d="M422.58046,182.77472a12.52277,12.52277,0,0,0-15.69722-8.22178"/><path class="cls-3" d="M406.88324,174.55293a12.52277,12.52277,0,0,0-8.22178,15.69722"/><path class="cls-3" d="M376.95558,217.46326a9.08268,9.08268,0,0,1,11.93432-4.76992"/><path class="cls-3" d="M425.14645,214.74281a17.47208,17.47208,0,0,1,15.90382,18.9293"/><path class="cls-3" d="M441.117,226.68823a8.33232,8.33232,0,0,1,7.58443,9.02726"/><path class="cls-2" d="M193.73882,113.05986C180.5,184.38853,238.16667,184.38853,260.5,161.39319"/><path class="cls-2" d="M233.83333,49.72652c-18.9591,21.33333-33,31.66667-40.09452,63.33333"/><path class="cls-2" d="M233.83333,49.72652c-14.2,19-22,30-25.34912,47.66667"/><path class="cls-2" d="M279.5,128.94237c-3.63028,15.1041-7,19.11748-14,27.45082"/><path class="cls-2" d="M206.5,134.72652c1.98421,25.33333,46.66667,31.04277,60.66667-14.33333"/><path class="cls-2" d="M218.16667,83.72652c23-17,49,3,49,26"/><path class="cls-2" d="M228.3448,67.16426c16.52271-3,23.32187,1.83951,32.1552,6.3956"/><path class="cls-2" d="M210.5,69.89776c-16.76118,4.82876-30.66667,16.49542-38.7747,27.49542"/><path class="cls-2" d="M167.59916,102.414a55.23,55.23,0,0,0-3.66667,5.66667"/><path class="cls-4" d="M177.83333,108.08069c-12.0675,17.97916-16.90054,34.58709-16.90054,51.01323"/><path class="cls-4" d="M160.9328,162.39319v12.65657"/><path class="cls-4" d="M171.7253,139.55986c-2.34223,9.767,0,21.16667,0,21.16667"/><path class="cls-2" d="M231.5,193.97652c15.25,5.85288,41,8.9173,62,4.77625"/><path class="cls-4" d="M204.5,196.75277c13,12.39042,38.16667,22.41218,69.75,22.15226"/><path class="cls-2" d="M202,194.72652c-1.37394-1.53971-4.2514-4.11751-5.91667-6.25"/><line class="cls-3" x1="77.47462" y1="231.20186" x2="87.04402" y2="231.20186"/><line class="cls-3" x1="100.5" y1="248.82093" x2="104.30073" y2="248.82093"/><line class="cls-3" x1="109.39014" y1="248.82093" x2="120.64407" y2="248.82093"/><line class="cls-3" x1="153" y1="211.954" x2="146.5" y2="211.954"/><line class="cls-3" x1="140.57372" y1="211.954" x2="129.07274" y2="211.954"/><line class="cls-3" x1="217.24781" y1="222.08521" x2="226.14396" y2="222.08521"/><line class="cls-3" x1="201" y1="247.0194" x2="213.78607" y2="247.0194"/><line class="cls-3" x1="279.5" y1="240.46366" x2="290.10648" y2="240.46366"/><line class="cls-3" x1="338.58902" y1="245.45533" x2="348.52011" y2="245.45533"/><line class="cls-3" x1="308.46309" y1="205.47652" x2="320.25" y2="205.47652"/><line class="cls-3" x1="325.23922" y1="205.47652" x2="329.5" y2="205.47652"/><line class="cls-3" x1="355.75012" y1="150.14319" x2="367.77756" y2="150.14319"/><line class="cls-3" x1="401" y1="142.66778" x2="409.5" y2="142.66778"/><line class="cls-3" x1="426.75" y1="146.49773" x2="434.25" y2="146.49773"/><line class="cls-3" x1="430.5" y1="142.76003" x2="430.5" y2="150.23544"/><line class="cls-3" x1="424" y1="246.45533" x2="437.75" y2="246.45533"/><line class="cls-3" x1="441.11704" y1="246.45533" x2="446.75" y2="246.45533"/><line class="cls-3" x1="294.75" y1="162.39319" x2="302.25" y2="162.39319"/><line class="cls-3" x1="298.5" y1="158.65548" x2="298.5" y2="166.13089"/><line class="cls-3" x1="342.25" y1="87.38318" x2="349.75" y2="87.38318"/><line class="cls-3" x1="346" y1="83.64548" x2="346" y2="91.12088"/><path class="cls-5" d="M240.79153,35.69811l7.04943,6.52251A50.6115,50.6115,0,0,0,265.75,31.47652a50.60608,50.60608,0,0,0,11.92171-16.81784L265.14346,3.588a61.42777,61.42777,0,0,0-24.35192,32.11011Z"/><line class="cls-3" x1="249" y1="100.13089" x2="256.5" y2="100.13089"/><line class="cls-3" x1="252.75" y1="96.39319" x2="252.75" y2="103.8686"/><polygon class="cls-6" points="267.325 3.716 278.075 2.216 277.672 13.477 267.325 3.716"/><line class="cls-3" x1="269.5" y1="55.63089" x2="277" y2="55.63089"/><line class="cls-3" x1="273.25" y1="51.89319" x2="273.25" y2="59.3686"/><line class="cls-3" x1="144.6202" y1="77.88089" x2="152.1202" y2="77.88089"/><line class="cls-3" x1="148.3702" y1="74.14319" x2="148.3702" y2="81.6186"/><line class="cls-3" x1="111" y1="160.72652" x2="118.5" y2="160.72652"/><line class="cls-3" x1="114.75" y1="156.98882" x2="114.75" y2="164.46423"/><line class="cls-3" x1="92.92238" y1="112.05986" x2="100.42238" y2="112.05986"/><line class="cls-3" x1="96.67238" y1="108.32215" x2="96.67238" y2="115.79756"/><line class="cls-7" x1="250.47402" y1="21.34312" x2="242.37854" y2="19.91436"/><line class="cls-7" x1="231.27304" y1="35.92351" x2="242.37854" y2="19.91436"/><line class="cls-7" x1="236.6853" y1="34.29239" x2="231.27304" y2="35.92351"/><line class="cls-7" x1="261.43952" y1="31.5136" x2="263.47239" y2="39.47888"/><line class="cls-7" x1="248.34275" y1="51.75564" x2="263.47239" y2="39.47888"/><line class="cls-7" x1="249.56268" y1="46.23614" x2="248.34275" y2="51.75564"/><line class="cls-7" x1="244.81655" y1="26.78465" x2="240.79154" y2="35.69811"/><line class="cls-7" x1="247.84097" y1="42.22062" x2="240.79154" y2="35.69811"/><line class="cls-7" x1="256.43711" y1="37.56522" x2="247.8512" y2="42.24845"/><line class="cls-7" x1="246.72078" y1="41.18957" x2="245.11588" y2="46.54815"/><line class="cls-7" x1="241.9311" y1="36.74714" x2="236.70822" y2="38.75006"/><line class="cls-7" x1="236.70822" y1="38.75006" x2="245.11588" y2="46.54815"/><path class="cls-7" d="M266.323,30.35092C276.366,20.945,279.03717,15.62754,279.07779,1.5"/><path class="cls-7" d="M279.07779,1.5c-14.08456,1.1018-19.1863,4.16484-27.81122,14.88612"/><line class="cls-7" x1="266.06192" y1="3.89062" x2="277.67171" y2="14.65868"/><circle class="cls-7" cx="264.91692" cy="16.7678" r="5.375" transform="translate(72.47192 199.59848) rotate(-47.15412)"/><path class="cls-4" d="M262.456,5.71589"/></g></g></svg>