<?xml version="1.0" encoding="utf-8"?>
<!-- Generator: Adobe Illustrator 21.1.0, SVG Export Plug-In . SVG Version: 6.00 Build 0)  -->
<svg version="1.1" id="Layer_1" xmlns="http://www.w3.org/2000/svg" xmlns:xlink="http://www.w3.org/1999/xlink" x="0px" y="0px"
	 viewBox="0 0 336.9 166" style="enable-background:new 0 0 336.9 166;" xml:space="preserve">
<style type="text/css">
	.st0{fill:#FFFFFF;}
	.st1{fill:#7ED257;}
	.st2{fill:none;stroke:#000000;stroke-miterlimit:10;}
	.st3{fill:#28B655;}
	.st4{fill:none;}
	.st5{fill:#242424;}
</style>
<title>about-team</title>
<ellipse class="st0" cx="158.6" cy="40.8" rx="41" ry="40.3"/>
<g id="Layer_2">
	<g id="Layer_1-2">
		<rect x="216.9" y="68" class="st1" width="8" height="35"/>
		<path d="M225.9,104h-10V67h10V104z M217.9,102h6V69h-6V102z"/>
		<ellipse class="st0" cx="254.4" cy="73.5" rx="33.5" ry="44.5"/>
		<path d="M254.4,31c17.4,0,31.5,19.1,31.5,42.5S271.8,116,254.4,116s-31.5-19.1-31.5-42.5S237,31,254.4,31 M254.4,29
			c-18.5,0-33.5,19.9-33.5,44.5s15,44.5,33.5,44.5s33.5-19.9,33.5-44.5S272.9,29,254.4,29L254.4,29z"/>
		<path d="M252.9,75h-2c0-2.8,2.2-5,5-5v2C254.2,72,252.9,73.3,252.9,75z"/>
		<path d="M236.3,88v-2c7,0,14.6-4.8,14.6-12h2C252.9,82.4,244.3,88,236.3,88z"/>
		<path d="M236.3,88c-6.7,0.1-12.3-5.3-12.4-12h2c0.1,5.6,4.8,10.1,10.4,10V88z"/>
		<path d="M252.9,74h-2c0-2.8-2.2-5-5-5v-2C249.8,67,252.9,70.1,252.9,74z"/>
		<path d="M225.9,74h-2c0-3.9,3.1-7,7-7v2C228.1,69,225.9,71.2,225.9,74z"/>
		<rect x="230.9" y="67" width="15" height="2"/>
		<rect x="223.9" y="74" width="2" height="2"/>
		<path d="M260.9,75h-2c0-1.7-1.3-3-3-3v-2C258.7,70,260.9,72.2,260.9,75z"/>
		<path d="M275.5,88c-8,0-16.6-5.6-16.6-14h2c0,7.2,7.5,12,14.6,12V88z"/>
		<path d="M275.5,88v-2c5.6,0.1,10.3-4.4,10.4-10h2C287.7,82.7,282.2,88.1,275.5,88z"/>
		<path d="M260.9,74h-2c0-3.9,3.1-7,7-7v2C263.1,69,260.9,71.2,260.9,74z"/>
		<path d="M287.9,74h-2c0-2.8-2.2-5-5-5v-2C284.8,67,287.9,70.1,287.9,74z"/>
		<rect x="265.9" y="67" width="15" height="2"/>
		<rect x="285.9" y="74" width="2" height="2"/>
		<path class="st1" d="M289.9,32c-8-11-20-14-31-14h0c-8.2,1.5-15.9,5.3-22,11c-3.5,0.2-6.9,1.2-10,3c-8,4-13,39-10,41
			c4,2.7,23-26.6,23-39c0-1,6,25.4,45,40c8,3-6,25-3,44h13V43L289.9,32z"/>
		<path d="M290.6,77c-16.9-5.3-39.5-19.5-52.6-43.5l1.8-1c12.8,23.4,34.9,37.3,51.4,42.5L290.6,77z"/>
		<path d="M217.5,73.8l-1.1-1.6c15-10.4,20.8-29.6,22.6-37.4l1.9,0.5C239,43.2,233,63,217.5,73.8z"/>
		<path d="M293.9,43.2c-1.8-10.5-10.4-19.1-22.6-22.5c-10.2-2.8-24.4-1.9-33.7,9l-1.5-1.3c8.3-9.7,22-13.4,35.7-9.6
			c12.9,3.6,22.1,12.8,24,24.1L293.9,43.2z"/>
		<rect x="293.9" y="43" width="2" height="75"/>
		<rect x="280.9" y="117" width="15" height="2"/>
		<path d="M217.9,74h-2v-1c0-0.8,0-1.6,0-2.6c-0.1-10-0.3-28.5,8.5-37.5c3.3-3.3,7.8-5.1,12.5-5h1v2h-1c-4.1-0.1-8.1,1.4-11.1,4.4
			c-8.3,8.3-8.1,26.4-7.9,36c0,1,0,1.8,0,2.6L217.9,74z"/>
		<path class="st2" d="M238.4,77.5"/>
		<path class="st2" d="M241.4,80.5"/>
		<path d="M236.9,79c-2.2,0-4-1.8-4-4h2c0,1.1,0.9,2,2,2V79z"/>
		<path d="M236.9,79v-2c1.1,0,2-0.9,2-2h2C240.9,77.2,239.1,79,236.9,79z"/>
		<rect x="236.4" y="78.5" width="1" height="2.5"/>
		<rect x="232.5" y="78.1" transform="matrix(0.4805 -0.877 0.877 0.4805 52.5248 245.8761)" width="2.5" height="1"/>
		<rect x="239.3" y="77.3" transform="matrix(0.8774 -0.4798 0.4798 0.8774 -8.3077 124.7027)" width="1" height="2.5"/>
		<path d="M272.9,79c-2.2,0-4-1.8-4-4h2c0,1.1,0.9,2,2,2V79z"/>
		<path d="M272.9,79v-2c1.1,0,2-0.9,2-2h2C276.9,77.2,275.1,79,272.9,79z"/>
		<rect x="272.4" y="78.5" width="1" height="2.5"/>
		<rect x="268.5" y="78.1" transform="matrix(0.4805 -0.877 0.877 0.4805 71.227 277.4481)" width="2.5" height="1"/>
		<rect x="275.3" y="77.3" transform="matrix(0.8774 -0.4798 0.4798 0.8774 -3.8927 141.9767)" width="1" height="2.5"/>
		<path class="st0" d="M199.9,92h83c1.7,0,3,1.3,3,3v52c0,1.7-1.3,3-3,3h-83c-1.7,0-3-1.3-3-3V95C196.9,93.3,198.2,92,199.9,92z"/>
		<path d="M282.9,151h-83c-2.2,0-4-1.8-4-4V95c0-2.2,1.8-4,4-4h83c2.2,0,4,1.8,4,4v52C286.9,149.2,285.1,151,282.9,151z M199.9,93
			c-1.1,0-2,0.9-2,2v52c0,1.1,0.9,2,2,2h83c1.1,0,2-0.9,2-2V95c0-1.1-0.9-2-2-2H199.9z"/>
		<path class="st3" d="M27.9,150l2-21l7-6c-0.2-4.3,2.8-8.1,7-9h12c3.5,2.1,6.3,5.2,8,9c1.2,2.9,5.8,4,6,6c1,9,2.6,18.4,2,21H27.9z"
			/>
		<path class="st0" d="M54.9,125c-3.2,1.3-6.8,1.3-10,0v-14h10V125z"/>
		<path d="M49.9,127c-1.8,0-3.7-0.4-5.4-1.1l-0.6-0.3V110h12v15.7l-0.6,0.3C53.6,126.6,51.8,127,49.9,127z M45.9,124.3
			c2.6,0.9,5.4,0.9,8,0V112h-8V124.3z"/>
		<ellipse class="st0" cx="49.9" cy="69" rx="38" ry="45"/>
		<path d="M49.9,115c-21.5,0-39-20.6-39-46s17.5-46,39-46s39,20.6,39,46S71.4,115,49.9,115z M49.9,25c-20.4,0-37,19.7-37,44
			s16.6,44,37,44s37-19.7,37-44S70.3,25,49.9,25z"/>
		<path class="st3" d="M11.9,76l-4-31c-1-9,0.4-15.7,7-21c6-4.8,7.2-4.2,9-4c3.4-2.5,16-10.6,29-10c23.3,1.1,35.3,22.7,36,24
			c2.7,7.7,3.8,15.9,3,24c-0.5,5.5-1.9,10.9-4,16c-1.5-13.5-6.7-26.3-15-37c-5.5,1.8-11.3,2.4-17,2c-8.9-0.7-22.6-2-26-4
			c-8,7-9,10-15,16C11.2,54.7,14.6,71.4,11.9,76z"/>
		<path d="M11.3,79L6.9,45.1C5.8,34.8,8,28.3,14.3,23.2c5.5-4.4,7.3-4.5,9.4-4.3c3.2-2.2,16.1-10.6,29.3-10
			c24,1.1,36.3,23.6,36.8,24.5l0.1,0.1c4.7,13.2,4.4,27.7-1,40.7L87.3,78l-0.4-3.8c-1.5-13.1-6.4-25.5-14.4-35.9
			c-5.4,1.7-11.1,2.3-16.7,1.8c-14.2-1.1-22.5-2.3-25.8-3.8c-3.2,2.8-6.1,5.9-8.8,9.2c-1.8,2.2-3.7,4.3-5.7,6.4
			c-1.7,1.7-1.7,7.6-1.6,12.8c0.1,5,0.1,9.7-1.2,12L11.3,79z M73.3,35.8l0.4,0.6c7.6,9.8,12.6,21.3,14.7,33.6
			c3.9-11.6,3.7-24.1-0.4-35.5C87.1,32.8,75.4,12,52.9,11c-13.1-0.6-25.9,8.1-28.4,9.8L24.2,21l-0.8-0.1c-1.3-0.2-2.6-0.4-7.9,3.8
			c-5.8,4.6-7.7,10.5-6.6,20.1L12,69.1c0-1.5,0-3,0-4.6c-0.1-6.1-0.1-11.9,2.2-14.2c2-2,3.8-4.1,5.6-6.2c2.9-3.6,6-6.8,9.5-9.8
			l0.5-0.5l0.6,0.4c2.4,1.4,11,2.7,25.6,3.9c5.6,0.4,11.3-0.2,16.6-2L73.3,35.8z"/>
		<rect x="72.7" y="34.5" transform="matrix(0.9486 -0.3164 0.3164 0.9486 -7.2558 26.3108)" width="9.5" height="2"/>
		<path d="M29.4,35.9c-5.5-3.3-6.5-7.6-6.5-15.9h2c0,8.5,1.2,11.5,5.5,14.1L29.4,35.9z"/>
		<path d="M49.9,80c-0.6,0-1-0.4-1-1l0,0V69c0-0.6,0.4-1,1-1s1,0.4,1,1v10C50.9,79.6,50.5,80,49.9,80L49.9,80L49.9,80z"/>
		<path d="M28.9,71h-2c0-2.2,1.8-4,4-4v2C29.8,69,28.9,69.9,28.9,71z"/>
		<path d="M34.9,71h-2c0-1.1-0.9-2-2-2v-2C33.1,67,34.9,68.8,34.9,71z"/>
		<path d="M49.9,87c-3.4,0-6-1.8-6-4h2c0,0.9,1.7,2,4,2V87z"/>
		<path d="M49.9,87v-2c2.3,0,4-1.1,4-2h2C55.9,85.2,53.3,87,49.9,87z"/>
		<rect x="42.9" y="93" width="14" height="2"/>
		<path d="M49.9,100c-1.9,0-5-0.3-5-2h2c0-0.2-0.1-0.4-0.2-0.5c1,0.4,2.1,0.6,3.2,0.5V100z"/>
		<path d="M49.9,100v-2c1.1,0.1,2.2-0.1,3.2-0.5c-0.1,0.1-0.2,0.3-0.2,0.5h2C54.9,99.7,51.8,100,49.9,100z"/>
		<path d="M25.9,61h-2c0-2.3,3-4,7-4v2C27.9,59,25.9,60.2,25.9,61z"/>
		<path d="M36.9,124c-0.6,0-1-0.4-1-1l0,0v0c0-5.8,2.7-7.9,7.6-9.9c0.5-0.2,1.1,0,1.3,0.6c0.2,0.5,0,1.1-0.6,1.3
			c-4.9,2-6.4,3.8-6.4,8.1C37.9,123.6,37.5,124,36.9,124L36.9,124L36.9,124z"/>
		<path d="M49.8,133c-5.5,0-9.8-2.6-9.8-6c0-0.6,0.4-1,1-1s1,0.4,1,1c0,1.9,3.1,4,7.8,4c0.6,0,1,0.4,1,1S50.4,133,49.8,133z"/>
		<path d="M29.9,130c-0.6,0-1-0.4-1-1c0-0.2,0.1-0.4,0.2-0.6c2.3-3.4,4.6-5.4,11.6-7.4c0.5-0.2,1.1,0.2,1.2,0.7
			c0.1,0.5-0.2,1.1-0.7,1.2c-7,2-8.6,3.9-10.4,6.6C30.5,129.8,30.2,130,29.9,130z"/>
		<path d="M40.9,128c-0.6,0-1-0.4-1-1l0,0v-7c0-0.6,0.4-1,1-1s1,0.4,1,1v7C41.9,127.6,41.5,128,40.9,128L40.9,128L40.9,128z"/>
		<path d="M27.9,150c0,0-0.1,0-0.1,0c-0.5-0.1-1-0.5-0.9-1.1l2-20c0.1-0.5,0.5-1,1.1-0.9c0.5,0.1,1,0.5,0.9,1.1c0,0,0,0,0,0l-2,20
			C28.8,149.6,28.4,150,27.9,150z"/>
		<path d="M34.9,150c-0.6,0-1-0.4-1-1l0,0v-19c0-0.6,0.4-1,1-1s1,0.4,1,1v19C35.9,149.6,35.5,150,34.9,150L34.9,150L34.9,150z"/>
		<path d="M62.9,124c-0.6,0-1-0.4-1-1l0,0v0c0-4.3-1.4-6.1-6.4-8.1c-0.5-0.2-0.8-0.8-0.6-1.3c0.2-0.5,0.8-0.8,1.3-0.6
			c4.9,2,7.6,4.1,7.6,9.9C63.9,123.6,63.5,124,62.9,124C62.9,124,62.9,124,62.9,124L62.9,124z"/>
		<path d="M50,133c-0.6,0-1-0.4-1-1s0.4-1,1-1c4.7,0,7.8-2.1,7.8-4c0-0.6,0.4-1,1-1s1,0.4,1,1C59.8,130.4,55.5,133,50,133z"/>
		<path d="M69.9,130c-0.3,0-0.6-0.2-0.8-0.4c-1.8-2.7-3.5-4.6-10.4-6.6c-0.5-0.2-0.8-0.7-0.7-1.2c0.2-0.5,0.7-0.8,1.2-0.7
			c7,2,9.3,4,11.6,7.4c0.3,0.5,0.2,1.1-0.3,1.4C70.3,129.9,70.1,130,69.9,130z"/>
		<path d="M58.9,128c-0.6,0-1-0.4-1-1l0,0v-7c0-0.6,0.4-1,1-1s1,0.4,1,1v7C59.9,127.6,59.5,128,58.9,128C58.9,128,58.9,128,58.9,128
			L58.9,128z"/>
		<path d="M71.9,150c-0.5,0-0.9-0.4-1-0.9l-2-20c-0.1-0.5,0.3-1,0.9-1.1c0.5-0.1,1,0.3,1.1,0.9c0,0,0,0,0,0l2,20
			c0.1,0.5-0.3,1-0.9,1.1C72,150,71.9,150,71.9,150z"/>
		<path d="M64.9,150c-0.6,0-1-0.4-1-1l0,0v-19c0-0.6,0.4-1,1-1s1,0.4,1,1v19C65.9,149.6,65.5,150,64.9,150
			C64.9,150,64.9,150,64.9,150L64.9,150z"/>
		<path d="M49.9,150c-0.6,0-1-0.4-1-1l0,0v-17c0-0.6,0.4-1,1-1s1,0.4,1,1v17C50.9,149.6,50.5,150,49.9,150L49.9,150L49.9,150z"/>
		<path class="st0" d="M45.9,141c-0.6,0-1-0.4-1-1l0,0v-11c0-0.6,0.4-1,1-1s1,0.4,1,1v11C46.9,140.6,46.5,141,45.9,141L45.9,141
			L45.9,141z"/>
		<path class="st0" d="M53.9,138c-0.6,0-1-0.4-1-1l0,0v-8c0-0.6,0.4-1,1-1s1,0.4,1,1v8C54.9,137.6,54.5,138,53.9,138
			C53.9,138,53.9,138,53.9,138L53.9,138z"/>
		<line class="st4" x1="158.9" y1="25" x2="158.9" y2="7"/>
		<rect x="158.4" y="7" class="st3" width="1" height="18"/>
		<line class="st4" x1="158.9" y1="4.5" x2="158.9" y2="0.5"/>
		<rect x="158.4" y="0.5" class="st3" width="1" height="4"/>
		<line class="st4" x1="161.9" y1="21" x2="161.9" y2="25"/>
		<rect x="161.4" y="21" class="st3" width="1" height="4"/>
		<line class="st4" x1="161.9" y1="18" x2="161.9" y2="1"/>
		<rect x="161.4" y="1" class="st3" width="1" height="17"/>
		<line class="st4" x1="155.9" y1="24.5" x2="155.9" y2="19.5"/>
		<rect x="155.4" y="19.5" class="st3" width="1" height="5"/>
		<line class="st4" x1="155.9" y1="17.5" x2="155.9" y2="1.5"/>
		<rect x="155.4" y="1.5" class="st3" width="1" height="16"/>
		<line class="st4" x1="164.9" y1="1.5" x2="164.9" y2="4.5"/>
		<rect x="164.4" y="1.5" class="st3" width="1" height="3"/>
		<line class="st4" x1="164.9" y1="6.5" x2="164.9" y2="20.5"/>
		<rect x="164.4" y="6.5" class="st3" width="1" height="14"/>
		<line class="st4" x1="167.9" y1="18.5" x2="167.9" y2="2.5"/>
		<rect x="167.4" y="2.5" class="st3" width="1" height="16"/>
		<line class="st4" x1="170.9" y1="3.5" x2="170.9" y2="14.5"/>
		<rect x="170.4" y="3.5" class="st3" width="1" height="11"/>
		<line class="st4" x1="173.9" y1="8.5" x2="173.9" y2="4.5"/>
		<rect x="173.4" y="4.5" class="st3" width="1" height="4"/>
		<line class="st4" x1="173.9" y1="9.5" x2="173.9" y2="13.5"/>
		<rect x="173.4" y="9.5" class="st3" width="1" height="4"/>
		<line class="st4" x1="176.9" y1="11.5" x2="176.9" y2="5.5"/>
		<rect x="176.4" y="5.5" class="st3" width="1" height="6"/>
		<line class="st4" x1="179.9" y1="13.5" x2="179.9" y2="6.5"/>
		<rect x="179.4" y="6.5" class="st3" width="1" height="7"/>
		<line class="st4" x1="182.9" y1="15" x2="182.9" y2="8"/>
		<rect x="182.4" y="8" class="st3" width="1" height="7"/>
		<line class="st4" x1="185.9" y1="17" x2="185.9" y2="10"/>
		<rect x="185.4" y="10" class="st3" width="1" height="7"/>
		<line class="st4" x1="188.9" y1="20" x2="188.9" y2="13"/>
		<rect x="188.4" y="13" class="st3" width="1" height="7"/>
		<line class="st4" x1="191.9" y1="23" x2="191.9" y2="16"/>
		<rect x="191.4" y="17" class="st3" width="1" height="7"/>
		<line class="st4" x1="194.9" y1="31.5" x2="194.9" y2="21"/>
		<rect x="194.4" y="21" class="st3" width="1" height="10.5"/>
		<line class="st4" x1="152.9" y1="5.5" x2="152.9" y2="1.5"/>
		<rect x="152.4" y="1.5" class="st3" width="1" height="4"/>
		<line class="st4" x1="152.9" y1="6.5" x2="152.9" y2="21.5"/>
		<rect x="152.4" y="6.5" class="st3" width="1" height="15"/>
		<line class="st4" x1="149.9" y1="18.5" x2="149.9" y2="2.5"/>
		<rect x="149.4" y="2.5" class="st3" width="1" height="16"/>
		<line class="st4" x1="146.9" y1="2.5" x2="146.9" y2="7.5"/>
		<rect x="146.4" y="2.5" class="st3" width="1" height="5"/>
		<line class="st4" x1="146.9" y1="8.5" x2="146.9" y2="14.5"/>
		<rect x="146.4" y="8.5" class="st3" width="1" height="6"/>
		<line class="st4" x1="143.9" y1="12.5" x2="143.9" y2="4.5"/>
		<rect x="143.4" y="4.5" class="st3" width="1" height="8"/>
		<line class="st4" x1="140.9" y1="13.5" x2="140.9" y2="5.5"/>
		<rect x="140.4" y="5.5" class="st3" width="1" height="8"/>
		<line class="st4" x1="137.9" y1="15.5" x2="137.9" y2="7.5"/>
		<rect x="137.4" y="7.5" class="st3" width="1" height="8"/>
		<line class="st4" x1="134.9" y1="17.5" x2="134.9" y2="9.5"/>
		<rect x="134.4" y="9.5" class="st3" width="1" height="8"/>
		<line class="st4" x1="131.9" y1="19.5" x2="131.9" y2="11.5"/>
		<rect x="131.4" y="11.5" class="st3" width="1" height="8"/>
		<line class="st4" x1="128.9" y1="23.5" x2="128.9" y2="13.5"/>
		<rect x="128.4" y="13.5" class="st3" width="1" height="10"/>
		<line class="st4" x1="125.9" y1="30.5" x2="125.9" y2="17.5"/>
		<rect x="125.4" y="17.5" class="st3" width="1" height="13"/>
		<line class="st4" x1="122.9" y1="35.5" x2="122.9" y2="22.5"/>
		<rect x="122.4" y="22.5" class="st3" width="1" height="13"/>
		<path d="M158.9,83c-23.2,0-42-18.6-42-41.5c0-22.9,18.8-41.5,42-41.5c23.2,0,42,18.6,42,41.5C200.9,64.4,182.1,83,158.9,83z
			 M158.9,2c-22.1,0-40,17.7-40,39.5s17.9,39.5,40,39.5c22.1,0,40-17.7,40-39.5S181,2,158.9,2z"/>
		<polygon class="st3" points="152.9,131 179.9,131 182.9,150 152.9,150 		"/>
		<rect x="180.4" y="131.4" transform="matrix(0.9939 -0.1104 0.1104 0.9939 -14.4061 20.8919)" width="2" height="18.1"/>
		<rect x="173.4" y="131.5" width="2" height="18"/>
		<rect x="158.4" y="131.5" width="2" height="18"/>
		<rect x="163.9" y="131" class="st0" width="2" height="6"/>
		<rect y="148.6" width="336.9" height="2.8"/>
		<path class="st0" d="M66.9,44h139c3.9,0,7,3.1,7,7v79c0,3.9-3.1,7-7,7h-139c-3.9,0-7-3.1-7-7V51C59.9,47.1,63,44,66.9,44z"/>
		<path d="M205.9,46c2.8,0,5,2.2,5,5v79c0,2.8-2.2,5-5,5h-139c-2.8,0-5-2.2-5-5V51c0-2.8,2.2-5,5-5H205.9 M205.9,44h-139
			c-3.9,0-7,3.1-7,7v79c0,3.9,3.1,7,7,7h139c3.9,0,7-3.1,7-7V51C212.9,47.1,209.8,44,205.9,44z"/>
		<rect x="150.1" y="89.8" transform="matrix(0.9939 -0.1104 0.1104 0.9939 -12.4935 17.4259)" width="2" height="63.4"/>
		<rect x="90.4" y="120.5" transform="matrix(0.1104 -0.9939 0.9939 0.1104 -12.1625 229.4119)" width="63.4" height="2"/>
		<rect x="122.1" y="89" width="29" height="2"/>
		<rect x="116.1" y="152" width="41" height="2"/>
		<polygon class="st0" points="125.6,90 147.6,90 154.6,153 118.6,153 		"/>
		<path d="M155.7,154h-38.2l7.2-65h23.8L155.7,154z M119.7,152h33.8l-6.8-61h-20.2L119.7,152z"/>
		<path class="st1" d="M143.6,74.7c-4.3,4.1-11.1,4.2-15.4,0.1c-2.3-2.3-2.6-9.6,1.7-13.9s11.8-3.7,13.9-1.7
			C147.8,63.7,147.7,70.4,143.6,74.7z"/>
		<path class="st5" d="M135.9,57c5.5,0,10,4.5,10,10c0,5.5-4.5,10-10,10s-10-4.5-10-10l0,0C125.9,61.5,130.4,57,135.9,57 M135.9,56
			c-6.1,0-11,4.9-11,11c0,6.1,4.9,11,11,11s11-4.9,11-11C146.9,60.9,142,56,135.9,56L135.9,56z"/>
		<path class="st0" d="M132.9,69.5c-1.1-0.6-2.2-1.2-3.2-1.9c-0.2-0.1-0.3-0.2-0.5-0.3v-0.2c0-0.1,0.1-0.1,0.1-0.1
			c1-0.7,2.2-1.4,3.5-2.2c-0.1,0.1-0.2,0.2-0.2,0.2c-0.1,0-0.4,0.2-0.9,0.6c-0.6,0.4-1,0.7-1.3,0.8c-0.6,0.3-0.7,0.4-0.7,0.7
			s0,0.3,1,0.9c0.6,0.3,0.9,0.6,1.2,0.8c0.2,0.1,0.4,0.2,0.6,0.4C132.8,69.3,132.9,69.4,132.9,69.5z"/>
		<path class="st5" d="M133.2,64.1c-0.2,0-0.3,0.1-0.5,0.2c-1.2,0.7-2.4,1.4-3.6,2.2c-0.2,0.1-0.4,0.3-0.4,0.6v0.1
			c0,0.1,0,0.3,0.1,0.4c0.2,0.2,0.4,0.3,0.6,0.4c2.2,1.4,3.4,2.1,3.7,2.1c0.2,0,0.3-0.2,0.3-0.6c-0.1-0.4-0.3-0.7-0.6-0.9
			c-0.2-0.1-0.4-0.3-0.7-0.4c-0.3-0.2-0.7-0.4-1.2-0.8s-0.8-0.5-0.8-0.5c0.1-0.1,0.3-0.2,0.4-0.3c0.3-0.2,0.7-0.4,1.3-0.8
			c0.6-0.4,0.9-0.6,0.9-0.6c0.3-0.2,0.5-0.5,0.5-0.8C133.4,64.3,133.4,64.1,133.2,64.1L133.2,64.1z"/>
		<path class="st0" d="M134.5,70.9c0.2-0.6,1-2.5,3.3-8c0-0.1,0.1-0.1,0.1-0.2l0,0c-0.1,0.2-0.2,0.4-0.2,0.5c0,0,0,0.1,0,0.1
			l-0.2,0.5c-0.1,0.3-0.2,0.6-0.3,0.7c0,0.1,0,0.1-0.1,0.2v0c0,0-0.1,0.2-1.1,2.7c-0.9,2.2-1.1,2.8-1.2,3
			C134.7,70.6,134.6,70.7,134.5,70.9z"/>
		<path class="st5" d="M138,62.2c-0.3,0-0.5,0.2-0.6,0.5c-1.3,2.8-2.4,5.6-3.4,8.5v0.1c0,0.1,0.2,0.2,0.5,0.2h0.2
			c0.2,0,0.4-0.3,0.7-0.8c0.1-0.2,0.5-1.2,1.2-3s1.1-2.7,1.1-2.7c0-0.1,0.1-0.1,0.1-0.2c0.1-0.2,0.2-0.5,0.3-0.7l0.2-0.5
			c0-0.1,0-0.1,0.1-0.2c0.1-0.1,0.1-0.3,0.2-0.4c0.1-0.1,0.1-0.3,0.1-0.5v-0.1C138.5,62.2,138.3,62.2,138,62.2L138,62.2z"/>
		<path class="st0" d="M139.5,69.5c0.1-0.1,0.2-0.2,0.3-0.2c0,0,0.2-0.2,1.3-0.8c1.5-0.9,1.5-0.9,1.5-1.2s0-0.3-1.5-1.3
			c-1.1-0.7-1.3-0.9-1.4-0.9l-0.2-0.2l0,0c1.2,0.6,2.3,1.4,3.4,2.1c0.1,0,0.1,0.1,0.1,0.2c0,0.1,0,0.1-0.1,0.2
			C141.8,68.1,140.6,68.9,139.5,69.5z"/>
		<path class="st5" d="M139.3,64c-0.2,0-0.3,0.2-0.3,0.5c0,0.3,0.2,0.7,0.5,0.9c0.1,0.1,0.6,0.4,1.4,0.9c0.5,0.3,0.9,0.5,1.3,0.9
			c0,0-0.4,0.3-1.3,0.8c-0.9,0.5-1.3,0.8-1.4,0.9c-0.3,0.3-0.6,0.6-0.6,0.8v0.1c0,0.3,0.1,0.5,0.3,0.5c0.1,0,0.3-0.1,0.4-0.1
			c1.2-0.7,2.4-1.4,3.7-2.2c0.4-0.2,0.5-0.7,0.3-1c-0.1-0.1-0.1-0.2-0.2-0.2c-1.1-0.8-2.3-1.5-3.5-2.2
			C139.7,64.2,139.5,64.1,139.3,64z"/>
		<path class="st1" d="M249.6,127.7c-4.3,4.1-11.1,4.2-15.4,0.1c-2.3-2.3-2.6-9.6,1.7-13.9s11.8-3.7,13.9-1.7
			C253.8,116.7,253.7,123.4,249.6,127.7z"/>
		<path class="st5" d="M241.9,110c5.5,0,10,4.5,10,10s-4.5,10-10,10s-10-4.5-10-10l0,0C231.9,114.5,236.4,110,241.9,110 M241.9,109
			c-6.1,0-11,4.9-11,11c0,6.1,4.9,11,11,11c6.1,0,11-4.9,11-11C252.9,113.9,248,109,241.9,109C241.9,109,241.9,109,241.9,109z"/>
		<path class="st0" d="M238.9,122.5c-1.1-0.6-2.2-1.2-3.2-1.9c-0.2-0.1-0.3-0.2-0.5-0.3v-0.2c0-0.1,0.1-0.1,0.1-0.1
			c1-0.7,2.2-1.4,3.5-2.2c-0.1,0.1-0.2,0.2-0.2,0.2c-0.1,0-0.4,0.2-0.9,0.6c-0.6,0.4-1,0.7-1.3,0.8c-0.6,0.3-0.7,0.4-0.7,0.7
			s0,0.3,1,0.9c0.6,0.3,0.9,0.6,1.2,0.8c0.2,0.1,0.4,0.2,0.6,0.4C238.8,122.3,238.9,122.4,238.9,122.5z"/>
		<path class="st5" d="M239.2,117.1c-0.2,0-0.3,0.1-0.5,0.2c-1.2,0.7-2.4,1.4-3.6,2.2c-0.2,0.1-0.4,0.3-0.4,0.6v0.1
			c0,0.1,0,0.3,0.1,0.4c0.2,0.2,0.4,0.3,0.6,0.4c2.2,1.4,3.4,2.1,3.7,2.1c0.2,0,0.3-0.2,0.3-0.6c-0.1-0.4-0.3-0.7-0.6-0.9
			c-0.2-0.1-0.4-0.3-0.7-0.4c-0.3-0.2-0.7-0.4-1.2-0.8s-0.8-0.5-0.8-0.5c0.1-0.1,0.3-0.2,0.4-0.3c0.3-0.2,0.7-0.4,1.3-0.8
			c0.6-0.4,0.9-0.6,0.9-0.6c0.3-0.2,0.5-0.5,0.5-0.8C239.4,117.3,239.4,117.1,239.2,117.1L239.2,117.1z"/>
		<path class="st0" d="M240.5,123.9c0.2-0.6,1-2.5,3.3-8c0-0.1,0.1-0.1,0.1-0.2l0,0c-0.1,0.2-0.2,0.4-0.2,0.5c0,0,0,0.1,0,0.1
			l-0.2,0.5c-0.1,0.3-0.2,0.6-0.3,0.7c0,0.1,0,0.1-0.1,0.2v0c0,0-0.1,0.2-1.1,2.7c-0.9,2.2-1.1,2.8-1.2,3
			C240.7,123.6,240.6,123.7,240.5,123.9z"/>
		<path class="st5" d="M244,115.2c-0.3,0-0.5,0.2-0.6,0.5c-1.3,2.8-2.4,5.6-3.4,8.5v0.1c0,0.1,0.2,0.2,0.5,0.2h0.2
			c0.2,0,0.4-0.3,0.7-0.8c0.1-0.2,0.5-1.2,1.2-3s1.1-2.7,1.1-2.7c0-0.1,0.1-0.1,0.1-0.2c0.1-0.2,0.2-0.5,0.3-0.7l0.2-0.5
			c0-0.1,0-0.1,0.1-0.2c0.1-0.1,0.1-0.3,0.2-0.4c0.1-0.1,0.1-0.3,0.1-0.5v-0.1C244.5,115.2,244.3,115.2,244,115.2L244,115.2z"/>
		<path class="st0" d="M245.5,122.5c0.1-0.1,0.2-0.2,0.3-0.2c0,0,0.2-0.2,1.3-0.8c1.5-0.9,1.5-0.9,1.5-1.2s0-0.3-1.5-1.3
			c-1.1-0.7-1.3-0.9-1.4-0.9l-0.2-0.2l0,0c1.2,0.6,2.3,1.4,3.4,2.1c0.1,0,0.1,0.1,0.1,0.2c0,0.1,0,0.1-0.1,0.2
			C247.8,121.1,246.6,121.9,245.5,122.5z"/>
		<path class="st5" d="M245.3,117c-0.2,0-0.3,0.2-0.3,0.5c0,0.3,0.2,0.7,0.5,0.9c0.1,0.1,0.6,0.4,1.4,0.9c0.5,0.3,0.9,0.5,1.3,0.9
			c0,0-0.4,0.3-1.3,0.8c-0.9,0.5-1.3,0.8-1.4,0.9c-0.3,0.3-0.6,0.6-0.6,0.8v0.1c0,0.3,0.1,0.5,0.3,0.5c0.1,0,0.3-0.1,0.4-0.1
			c1.2-0.7,2.4-1.4,3.7-2.2c0.4-0.2,0.5-0.7,0.3-1c-0.1-0.1-0.1-0.2-0.2-0.2c-1.1-0.8-2.3-1.5-3.5-2.2
			C245.7,117.2,245.5,117.1,245.3,117z"/>
		<line class="st4" x1="115.9" y1="157" x2="220.9" y2="157"/>
		<rect x="115.9" y="156" width="105" height="2"/>
		<line class="st4" x1="242.9" y1="157" x2="309.9" y2="157"/>
		<rect x="242.9" y="156" width="67" height="2"/>
		<rect x="64.9" y="156" width="41" height="2"/>
		<rect x="84.9" y="164" width="92" height="2"/>
		<rect x="194.9" y="164" width="63" height="2"/>
		<rect x="273.9" y="164" width="44" height="2"/>
		<line class="st4" x1="12.9" y1="109" x2="19.9" y2="137"/>
		<rect x="10.9" y="164" width="67" height="2"/>
		<rect x="8.9" y="156" width="44" height="2"/>
	</g>
</g>
</svg>
