<?xml version="1.0" encoding="utf-8"?>
<!-- Generator: Adobe Illustrator 22.1.0, SVG Export Plug-In . SVG Version: 6.00 Build 0)  -->
<svg version="1.1" id="Layer_1" xmlns="http://www.w3.org/2000/svg" xmlns:xlink="http://www.w3.org/1999/xlink" x="0px" y="0px"
	 viewBox="0 0 166.3 179.2" style="enable-background:new 0 0 166.3 179.2;" xml:space="preserve">
<style type="text/css">
	.st0{fill:url(#Path_1_);}
	.st1{fill:#032336;}
	.st2{fill:#FFFFFF;}
	.st3{fill:#FFC3A5;}
	.st4{fill:url(#Path_2_);}
	.st5{fill:url(#Path_3_);}
	.st6{fill:#FCDDAC;}
	.st7{fill:#B1B1B1;}
	.st8{fill:url(#Path_4_);}
	.st9{fill:#DC4138;}
</style>
<title>Our-team</title>
<desc>Created with Sketch.</desc>
<g>

		<linearGradient id="Path_1_" gradientUnits="userSpaceOnUse" x1="88.6082" y1="233.3506" x2="88.6082" y2="234.3135" gradientTransform="matrix(148.7993 0 0 -115.4221 -13099.6182 27096.1152)">
		<stop  offset="4.807692e-04" style="stop-color:#EBA200"/>
		<stop  offset="1" style="stop-color:#F3DA00"/>
	</linearGradient>
	<path id="Path_20_" class="st0" d="M79.1,113.8c0,0-16.9,33.5-44,19.2S10.9,62.1,10.9,62.1l8.9-5c0,0,12.9,36.9,22.2,41.3
		c7.1,3.4,16.7-16.6,20.9-26.3c1.6-3.7,4-6.9,7-9.4c6.9-5.8,19.5-15.3,26.2-14c9.6,2,17.3,1.9,33.4,11.3c0,0,20.6,10.1,23.3,15.4
		c2.7,5.3,6.3,27,6.8,40.6c0.3,8.8-6.8,24.5-11.9,34.4c-4,7.8-11.8,13-20.5,13.5c-0.5,0-1,0-1.5,0.1
		C115,164.3,79.1,113.8,79.1,113.8z"/>
	<path id="Path_21_" class="st1" d="M114.5,43.9c-0.7-1.5,0-6.8,0-6.8l-3.6-1.3l-11.8,4l-11.8-4l-3.6,1.3c0,0,0.7,5.3,0,6.8
		c-0.7,1.5-4.3,1.2-1.4,5.1c2.9,3.9,11.8,2.2,11.8,2.2l5-9.9l5,9.9c0,0,8.9,1.7,11.8-2.2C118.9,45.1,115.2,45.3,114.5,43.9z"/>
	<polygon id="Path_22_" class="st2" points="94.1,51.3 94.1,127.5 112.4,139.3 104.1,51.3 	"/>
	<path id="Path_23_" class="st3" d="M112.6,29.6l0.6-11.2l-14.1,0.2L85,18.4l0.6,11.2c0,0-6.8-1.2-3.2,5.3c3.6,6.5,4.7,2.5,4.7,2.5
		s0.6,4.7,2.9,7.9c2.4,3.1,6.2,13.1,8.2,13.9c0.3,0.1,0.6,0.2,0.9,0.2s0.6-0.1,0.9-0.2c2.1-0.8,5.9-10.7,8.2-13.9
		c2.4-3.1,2.9-7.9,2.9-7.9s1.2,3.9,4.7-2.5S112.6,29.6,112.6,29.6z"/>
	<path id="Shape" class="st1" d="M109.9,8.1c-2.4-1.4-5.5-2.1-9.2-0.1l-4.1,4.4c0,0-5.7-1-11.8,0c-6,1-1.6,17.2-1.6,17.2h2.3
		c0,0,2.6,4.9,2.4,3.5c-0.3-1.3,1.2-10.4,2.4-11.9s6.9-2.6,6.9-2.6s2.1,10.1,7.6,12.3c5.6,2.2,7.8-1.3,7.8-1.3l2.7,0.1V17.9
		C115.3,14,113.3,10.2,109.9,8.1z M105.1,25.3c-0.7-2.5,4,3,4,3S105.7,27.9,105.1,25.3z"/>

		<linearGradient id="Path_2_" gradientUnits="userSpaceOnUse" x1="65.2333" y1="228.0753" x2="65.3789" y2="227.1649" gradientTransform="matrix(8.2 0 0 -3.9725 -435.796 956.9425)">
		<stop  offset="0" style="stop-color:#FA8C5C"/>
		<stop  offset="1" style="stop-color:#FA8C5C;stop-opacity:0"/>
	</linearGradient>
	<path id="Path_32_" class="st4" d="M95,50.9c0,0,3.7,4.6,4.7,3.9c0.4-0.3,2-1,2.3-1.8c0.4-1.2,1.2-2.1,1.2-2.1l-1.8,0.8
		c-1.5,0.7-3.2,0.7-4.7,0L95,50.9z"/>

		<linearGradient id="Path_3_" gradientUnits="userSpaceOnUse" x1="51.0514" y1="224.731" x2="51.1969" y2="223.8542" gradientTransform="matrix(5.2117 0 0 -2.6313 -166.5472 629.6512)">
		<stop  offset="0" style="stop-color:#FA8C5C"/>
		<stop  offset="1" style="stop-color:#FA8C5C;stop-opacity:0"/>
	</linearGradient>
	<path id="Path_33_" class="st5" d="M96.9,38.3c0,0,2.3,3,3,2.5c0.2-0.2,1.2-0.7,1.4-1.2c0.3-0.8,0.8-1.3,0.8-1.3l-1.1,0.6
		c-0.9,0.4-2,0.4-3,0L96.9,38.3z"/>
	<path id="Path_42_" class="st3" d="M20.8,37.5c0.2-1.6-1.8,1-3.2,1.7l-1.2-4.5c0.1-0.6,0.1-1.2,0.2-1.6c0.2-1.1,0.2-3.1,0-4.4
		c0-0.4-0.6-0.5-0.7-0.1c-0.9,2.1-1.8,7-2.4,6.6c-0.6-0.4-1.1-4.3-1.4-6.5c-0.1-0.4-0.6-0.4-0.7,0c-0.3,2.3-0.3,5.9-0.8,5.9
		c-0.8,0-1.2-2.3-2.1-3.6c-0.3-0.4-0.9-0.2-0.9,0.3c0.1,1.3,0.8,3.6,0.5,4.9C7.8,37.5,7.4,37.6,7,37c-1-1.7-2.6-2.9-2.5-1.9
		c0,0.8,5.1,13.5,5.1,13.5l1.1,13.5l9-3.6c0,0-1.4-13.9-1-15.5C19.4,41.4,20.6,39.1,20.8,37.5z"/>
	<path id="Path_44_" class="st6" d="M62.2,107c0,0-3.1-10.6-1.4-11.6c1.7-0.9,4.3,5.4,5.2,8.2c0.9,2.9,3.3-1.1,4.3-1.4
		c1-0.3,3.1,2.8,1.7,4.7c-1.4,1.9,3.7,4.3,3.7,4.3s-5.9,2.1-7.6,1.2s-4.8,3.5-5.7,3.8c-0.9,0.3-5.7-1.7-4.5-2.6
		c1.2-0.9,3.3-2.6,3.3-2.6l-3.5-5.2L62.2,107z"/>
	<path id="Path_45_" class="st6" d="M139.8,83.9l1.2-8.1c0,0,2.8,6.3,2.4,8.1c-0.5,1.9,4.5,4,5.4,4c0.9,0,2.6,4.7-1.5,3.3
		c-4.2-1.4-3.5,0.2-2.4,2.4c1.1,2.1-2,5-3.4,2.4c-1.4-2.6-4.7-2.1-6.8-2.1c-2.1,0-3.1-4.7,0-4.3c3.1,0.5,2.8-2.6,0.9-4.5
		c-1.9-1.9-5.2-7.3-0.5-4.3S139.8,83.9,139.8,83.9z"/>
	<path id="Path_46_" class="st6" d="M124.2,116l1.2-8.1c0,0,2.8,6.3,2.4,8.1c-0.5,1.9,4.5,4,5.4,4c0.9,0,2.6,4.7-1.5,3.3
		c-4.2-1.4-3.5,0.2-2.4,2.4c1.1,2.1-2,5-3.4,2.4c-1.4-2.6-4.7-2.1-6.8-2.1s-3.1-4.7,0-4.3c3.1,0.5,2.8-2.6,0.9-4.5
		c-1.9-1.9-5.2-7.3-0.5-4.3C124.2,116,124.2,116,124.2,116z"/>
	<path id="Path_47_" class="st6" d="M150,145.5c-0.7-0.6-1.1-1.2-0.9-1.8c0.5-1.9-2.4-8.1-2.4-8.1l-1.2,8.1c0,0,0,0-4.7-3.1
		c-4.7-3.1-1.4,2.4,0.5,4.3c1.9,1.9,2.1,5-0.9,4.5c-3.1-0.5-2.1,4.3,0,4.3c1.5,0,3.6-0.2,5.2,0.6C147.3,151.4,149,148.6,150,145.5z"
		/>
	<path id="Path_48_" class="st6" d="M68.6,72.8c-1.7,2.6,2.9,3.7,3.8,1.8c0.9-1.9,1.9-5.1,4.9-5.3s1.7-4.2-0.7-4.1s-4.2,0-1.1-3.2
		c2.1-2.1,0.5-3-0.9-3.1c-1.7,1.3-3.3,2.6-4.7,3.8c-2.5,2.1-4.6,4.7-6.2,7.7c0.4-0.1,0.8-0.2,1.2-0.3C67.5,69.1,70.3,70.2,68.6,72.8
		z"/>
	<path id="Path_49_" class="st6" d="M109.8,84.8c0,0,0,0-1.8,1.1l0.3,3.5c0.3-0.1,0.5-0.1,0.7-0.2c2.5-0.9,5.4,0.2,3.6,2.8
		c-1.8,2.6,2.9,3.7,3.8,1.8c0.9-1.9,1.9-5.1,4.9-5.3c3-0.2,1.7-4.2-0.7-4.1s-4.2,0-1.1-3.2c3.1-3.1-1.9-3.6-2.3-2.8
		c-0.4,0.9-4.5,4.4-6,3.2c-0.6-0.5-2.2-0.8-3.9-1l0.3,2.9L109.8,84.8z"/>
	<path id="Path_50_" class="st6" d="M21.9,77.2c-1.5-1.2-8.4-1.4-8.4-1.4l6.9,4.6c0,0,0,0-4.8,2.9s1.5,2.3,4,1.4s5.4,0.2,3.6,2.8
		c-1.7,2.6,2.9,3.7,3.8,1.8c0.8-1.8,1.8-4.6,4.2-5.2c-0.7-1.4-1.4-2.9-2.1-4.3c-0.5-0.2-0.8-0.5-0.5-1.1c-0.6-1.3-1.2-2.5-1.7-3.7
		C25.6,76.3,23,78.1,21.9,77.2z"/>
	<path id="Path_51_" class="st7" d="M128.3,170.2H55.7c-2.6,0-4.9-1.8-5.6-4.3l-0.8-3h85l-0.3,2.3
		C133.7,168,131.2,170.2,128.3,170.2z"/>

		<linearGradient id="Path_4_" gradientUnits="userSpaceOnUse" x1="87.4297" y1="233.0541" x2="87.4297" y2="234.0095" gradientTransform="matrix(79.8076 0 0 -47.1 -6888.9429 11142.7881)">
		<stop  offset="0" style="stop-color:#E2E2E2"/>
		<stop  offset="1" style="stop-color:#FFFFFF"/>
	</linearGradient>
	<path id="Path_52_" class="st8" d="M126.6,167.9H54c-1,0-1.8-0.8-1.9-1.7l-3.4-43.4c-0.1-1.1,0.8-2,1.9-2h72.6c1,0,1.8,0.8,1.9,1.7
		l3.4,43.4C128.5,167,127.7,167.9,126.6,167.9z"/>
	<circle id="Oval_2_" class="st7" cx="88.6" cy="144.3" r="5"/>
	<ellipse id="Oval_5_" class="st1" cx="94.3" cy="31.1" rx="1" ry="1.4"/>
	<ellipse id="Oval_6_" class="st1" cx="104.3" cy="31.1" rx="1" ry="1.4"/>
	<path id="Path_57_" class="st9" d="M93.1,41.7c0,0,2.1,1,3,1c0.9,0.1,2.1,0,2.1,0s-1.7,0.7-2.8,0.4C94.2,43,93.1,41.7,93.1,41.7z"
		/>
	<path id="Path_58_" class="st1" d="M91.1,26.8c0.1-0.3,0.3-0.6,0.7-0.6c1.3,0,4.9,0.1,5.2,0.3c0.3,0.2-3.5,0.7-5.2,0.9
		C91.3,27.6,91,27.2,91.1,26.8z"/>
</g>
</svg>
