<svg width="91" height="136" xmlns="http://www.w3.org/2000/svg"><defs><linearGradient x1="50.065%" y1="95.091%" x2="50.065%" y2="8.544%" id="a"><stop stop-color="#B1B9BE" offset="0%"/><stop stop-color="#8E9398" offset="100%"/></linearGradient></defs><g fill="none" fill-rule="evenodd"><path d="M50.4 38.8l2.1 11.8c.1.5 0 1.1-.3 1.6-.8 1.3-2.5 3.8-4.5 4.4-2 .6-3.6 1.3-4.5 2.1-.9.8-3.8 3.3-3.8 3.3s-.9-2.5-.2-3.8c.7-1.3 3.2-2.6 3.2-2.6s3.2-1.8 2.9-4.4c-.3-2.6-3.3-9.9-3.3-9.9l8.4-2.5zM37.4 107.5s-.4 1.7-.1 2.1c.3.4 2.8.5 2.8.5v-2.6h-2.7zM28.5 101.9s-.1 2.3.3 2.7c.4.4 1.7.3 1.7.3v-2.6l-2-.4z" fill="#FFC4A8"/><path d="M25.6 47.4s-1.8 18.7-.9 27.1c.9 8.5 3.2 26.9 3.2 26.9s1.4 1.8 3.1 1.3c1.7-.5.3-40.7.3-40.7l5.5 45.5s2.8 1.4 3.6 0c.5-.9.4-27-.1-42.7-.2-7.2-.9-13.3-.9-13.3l-13.8-4.1z" fill="#0C353E"/><path d="M39.5 49.6v1.9c-7-.2-13.8-4.1-13.8-4.1V45" fill="#7499CA"/><path d="M28 16.1s-6-3.2-7.5-.9c-1.6 2.3-4 2.2-3.6 8.2.3 6.1 4 7.3 4 7.3s3.5 11.4 3.3 12.8c-.2 1.4.3.4 1.6 1.6 1.2 1.2 13.3 5 14.4 4.9l1-.2 1-8.6 8.4-2.4s0-10.2-3.5-13.3c-3.5-3.1-11.4-6.9-11.4-6.9L28 16.1z" fill="#0243A0"/><path d="M30.3 13.6s-.8-.7-1.1-.7c-.4 0-1.1.7-.6 1.4.5.7 1.1.9 1.1.9s-.8 2.6-.7 2.9c0 .3.1 4.8 2.2 4.6 2.1-.1 2.1-3.2 2.6-3.4.5-.2 1.8-.3 2.4-.7.6-.4 2-4.4 2-5.6 0-1.2-.1-3.8-.3-4.2-.2-.4-6.2 2.9-6.2 2.9l-1.4 1.9z" fill="#FFC4A8"/><path d="M32.4 12.6s-.1 1.6-.8 2.1c-.8.5-1.4-1.1-1.8-1.5-.4-.4-1.6-2.4-.9-3.5.3-.5.2-1.8 1.1-2.6 1.2-1.1 3.4-1.6 5-1.2 2.7.6 5.4.4 4.4 2s-3.4 3.5-4.7 3.7c-1.4 0-2.3 1-2.3 1z" fill="#3A0D72"/><path d="M16.8 23.4s-3 3.9-3.9 3.9c-.9 0-3.4-4.2-4.4-6.9-.8-2.3-1.8-9.4-1.8-9.4l1.4-6.3s-1.2-.2-1.7 1.7-3.1-4.1-3-4.9C3.5.6 1.8-.1 1.7.8c-.1 1-1.6 3.9-.3 6.5s2.5 6 2.5 6-2.3 13.7 3.9 19c6.2 5.3 13.1-1.5 13.1-1.5l-4.1-7.4z" fill="#FFC4A8"/><path fill="#072D5A" d="M20.8 30.7l.8-6.7-3.2 2.4z"/><path d="M37.9 9.5l2.4-.7s-1.1 2.3-4.1 2c-3-.3-1.4-1.4-1.4-1.4l3.1.1z" fill="#3A0D72"/><path fill="#0243A0" d="M35.5 48.7V51l.9.2v-2.5z"/><path d="M28.4 46.3s-.4 2.2-.1 2.4c.3.1 2.4.9 2.4.9l.6-2.3-2.9-1z" fill="#FFF"/><path d="M26.9 103.3s2.2-.2 2.4.2c.2.3-.2 1.4.3 1.5.5.1.6-.8 1-.8s.6 1.4.6 1.7v1c0 .4-.2.7-.6.9l-1.6.8s-1.2.6-1.8 1.7c-.6 1-3.9 2.2-4.7 1.7-.8-.5-.6-3.6 1.5-5 2.2-1.4 2.9-3.7 2.9-3.7zM40 110.2c-.6-.1-.9-.7-1.4-1-.5-.4-2-.8-2-.8-.9-.2-.7 1.8-.6 2.3.1.5-1.1 2.4-2 3.8-.9 1.4-.1 3.3.4 3.9.6.5 2.2-.5 3.4-1.3 1.2-.8 2.5-5.5 2.4-6.2 0-.8.5-.6-.2-.7z" fill="#0B2C33"/><g><path d="M66.3 119.6s-1 2.6 0 3.2c1 .6 2 .5 2 .5l.6-2.8-2.6-.9zM77 123.9s-1 2.6 0 3.2c1 .6 2 .5 2 .5l.6-2.8-2.6-.9z" fill="#0B2C33"/><path d="M62.7 76.6l2.5 42s4.2 4.1 4.6 2.2c.6-2.2 1.2-39 2.1-38.4.9.6 3.5 40.7 3.5 40.7s4.5 3.5 5.6 2.4c1.1-1 .2-43.4.2-43.4l-5.5-10.7-9.7-2.2-3.3 7.4z" fill="#888F92"/><path d="M7.2 9.7S3.7 7.8 2 13.5C.3 19.2.4 35.7.8 37.4c.3 1.7 1.2 5.7 2.9 5.7s.9 13.5.9 13.5 7.2 3.4 7.6 2.5c.4-.9.7-6.2.7-6.2l1.2 6.6s6.4 2.6 9.2 2.6c2.8 0 2.9-1 2.9-1V50.6s3.8.3 5.2-1.8c1.4-2.1.7-17.1 0-19.9-.7-2.8 2-5.8-6.9-10.2-6.7-3.3-17.3-9-17.3-9z" fill="url(#a)" transform="translate(58 20)"/><path d="M70.7 22.4s-3.2 6.1-1.9 7.7c1.3 1.6 2.4 6.7 4.5 6.9 2.1.3 2.9-4.7 2.9-4.7s-.1-2 1.5-1.5 3.3-3.9.9-3.6c-2.4.3-4.1-4.8-4.1-4.8h-3.8z" fill="#846256"/><path d="M70.7 22.4s-.8-1.6 1.1-1.6c1.9 0 4.8-.6 5.8 1.1 1.1 1.7 4 3.7 2 5.5-2 1.8-3 2.4-3 2.4l-.4-1s.4-1 .4-1.4c0-.6-1.3-4.5-5.9-5z" fill="#0B2C33"/><path fill="#DBDFE1" d="M69.1 39.3l2 7.2 1.2-8.5zM75.5 42.3l-2.2-3.9v8z"/><path fill="#0B2C33" d="M73.3 38.4l-1-.4-1.2 8.5.9 3.3 1.3-3.4z"/><path fill="#888F92" d="M84.2 70.6V50.8l3.1 3.5-1.5 4.8v11.5zM62.5 64.4L64 42.2s-2.8 9.2-2.6 11.1c.1 2 1.1 11.1 1.1 11.1zM77.6 36.1l1.8 1s-.8 6.3-1.8 7.3-3.7 7.3-3.7 7.3L71.7 55l.3-5.2 5.6-13.7zM70 32.5s-2.7 4.8-2.7 5.5c0 .8 4.3 17 4.3 17l.3-5.2-2.9-9.4v-1.1l1.4-5.8-.4-1z"/><path fill="#FFF" d="M70.5 33.5l-2.1 6.1 3.9-1.6zM75.8 34.9l2.1 1.1-2.2 6.9-2.8-4.9zM76.4 53.4l4.1 1.6-1.1-4.2z"/><path d="M60.2 127s.6-.9 1.7-1.7c.7-.5 3-3.1 3.4-3.3.4-.3 1.8 0 1.9.4.1.4.9 1.1.9 1.1.4 1.4-.9 1.3-.9 1.3s-2.4 1.6-2.7 2.2c-.4.6-3.5 1.8-4.5 1.6-.9-.1.2-1.6.2-1.6zM76.8 126.5s-.8 4.3-.7 4.7c.1.4.6 1 1 2.5.4 1.4 1.2 2 2 1.9.7-.1 1.2-2.2 1.3-3.2.1-1-1.2-4-1.2-4s-.4-2.7-2.4-1.9z" fill="#846256"/></g></g></svg>
