<?xml version="1.0" encoding="utf-8"?>
<!-- Generator: Adobe Illustrator 22.1.0, SVG Export Plug-In . SVG Version: 6.00 Build 0)  -->
<svg version="1.1" id="Layer_1" xmlns="http://www.w3.org/2000/svg" xmlns:xlink="http://www.w3.org/1999/xlink" x="0px" y="0px"
	 viewBox="0 0 60.9 60.9" style="enable-background:new 0 0 60.9 60.9;" xml:space="preserve">
<style type="text/css">
	.st0{display:none;filter:url(#filter-3);}
	.st1{display:inline;}
	.st2{fill:url(#SVGID_1_);stroke:#FFFFFF;stroke-opacity:0.4004;}
	.st3{fill:url(#Combined-Shape_1_);}
	.st4{fill:url(#Oval_2_);}
	.st5{fill:url(#Oval-Copy_1_);}
</style>
<filter  filterUnits="objectBoundingBox" height="176.7%" id="filter-3" width="165.0%" x="-32.5%" y="-19.2%">
	<feMorphology  in="SourceAlpha" operator="erode" radius="8" result="shadowSpreadOuter1"></feMorphology>
	<feOffset  dx="0" dy="15" in="shadowSpreadOuter1" result="shadowOffsetOuter1"></feOffset>
	<feGaussianBlur  in="shadowOffsetOuter1" result="shadowBlurOuter1" stdDeviation="12"></feGaussianBlur>
	<feComposite  in="shadowBlurOuter1" in2="SourceAlpha" operator="out" result="shadowBlurOuter1"></feComposite>
	
		<feColorMatrix  in="shadowBlurOuter1" type="matrix" values="0 0 0 0 0   0 0 0 0 0.411764706   0 0 0 0 0.870588235  0 0 0 0.5 0">
		</feColorMatrix>
</filter>
<title>Oval</title>
<desc>Created with Sketch.</desc>
<g id="Page-1">
</g>
<g id="Page-1_1_">
	<g id="Google-Cloud-Partner_1_" transform="translate(-812.000000, -1457.000000)">
	</g>
</g>
<g>
	<g id="Google-Cloud-Partner" transform="translate(-378.000000, -1438.000000)">
		<g id="Group-27" transform="translate(385.000000, 1438.000000)">
			<g id="Group-15">
				<g id="Oval">
					<g class="st0">
						<circle id="path-2_1_" class="st1" cx="23.5" cy="30.1" r="30"/>
					</g>
					
						<linearGradient id="SVGID_1_" gradientUnits="userSpaceOnUse" x1="-322.7921" y1="382.598" x2="-321.7921" y2="382.584" gradientTransform="matrix(59 0 0 -59 19038.75 22603)">
						<stop  offset="0" style="stop-color:#0069DE"/>
						<stop  offset="1" style="stop-color:#008AFF"/>
					</linearGradient>
					<circle class="st2" cx="23.5" cy="30.1" r="29.5"/>
				</g>
			</g>
		</g>
	</g>
	<g id="Page-1_2_">
		<g id="Google-Cloud-Partner_2_" transform="translate(-1011.000000, -1462.000000)">
			<g id="Group-27_1_" transform="translate(385.000000, 1438.000000)">
				<g id="Group-15-Copy-6" transform="translate(580.000000, 0.000000)">
					<g id="Cable-Icon" transform="translate(46.000000, 24.000000)">
						
							<linearGradient id="Combined-Shape_1_" gradientUnits="userSpaceOnUse" x1="-304.6692" y1="351.6477" x2="-305.6692" y2="351.6477" gradientTransform="matrix(21.7778 0 0 -9.2483 6676.3477 3282.1997)">
							<stop  offset="0" style="stop-color:#FFFFFF"/>
							<stop  offset="1" style="stop-color:#FFFFFF;stop-opacity:0.5"/>
						</linearGradient>
						<path id="Combined-Shape" class="st3" d="M19.5,25.4h10.1c1.5,0,2.7,1.2,2.7,2.7c0,1.5-1.2,2.7-2.7,2.7H29
							c-0.6,0-1.1,0.5-1.1,1.1S28.4,33,29,33h12.3c-0.1,0.3-0.2,0.6-0.2,0.9c0,0.3,0.1,0.6,0.2,0.8H29c-1.5,0-2.8-1.2-2.8-2.8
							s1.2-2.8,2.8-2.8h0.7c0.6,0,1-0.5,1-1s-0.5-1-1-1H19.6c0.1-0.2,0.2-0.5,0.2-0.8C19.8,26,19.7,25.7,19.5,25.4z"/>
						
							<linearGradient id="Oval_2_" gradientUnits="userSpaceOnUse" x1="-235.9764" y1="304.1144" x2="-236.9764" y2="304.1144" gradientTransform="matrix(4 0 0 -4 963.657 1242.7638)">
							<stop  offset="0" style="stop-color:#FFFFFF"/>
							<stop  offset="1" style="stop-color:#FFFFFF;stop-opacity:0.5"/>
						</linearGradient>
						<path id="Oval_1_" class="st4" d="M17.8,28.3c1.1,0,2-0.9,2-2c0-1.1-0.9-2-2-2c-1.1,0-2,0.9-2,2
							C15.8,27.4,16.6,28.3,17.8,28.3z"/>
						
							<linearGradient id="Oval-Copy_1_" gradientUnits="userSpaceOnUse" x1="-235.9764" y1="304.1144" x2="-236.9764" y2="304.1144" gradientTransform="matrix(4 0 0 -4 989.0294 1250.3224)">
							<stop  offset="0" style="stop-color:#FFFFFF"/>
							<stop  offset="1" style="stop-color:#FFFFFF;stop-opacity:0.5"/>
						</linearGradient>
						<path id="Oval-Copy" class="st5" d="M43.1,35.9c1.1,0,2-0.9,2-2c0-1.1-0.9-2-2-2s-2,0.9-2,2C41.1,35,42,35.9,43.1,35.9z"/>
					</g>
				</g>
			</g>
		</g>
	</g>
</g>
</svg>
