<?xml version="1.0" encoding="utf-8"?>
<!-- Generator: Adobe Illustrator 22.1.0, SVG Export Plug-In . SVG Version: 6.00 Build 0)  -->
<svg version="1.1" id="Layer_1" xmlns="http://www.w3.org/2000/svg" xmlns:xlink="http://www.w3.org/1999/xlink" x="0px" y="0px"
	 viewBox="0 0 262.9 280.3" style="enable-background:new 0 0 262.9 280.3;" xml:space="preserve">
<style type="text/css">
	.st0{fill:url(#Path_1_);}
	.st1{fill:#F9E558;}
	.st2{fill:#0048AA;}
	.st3{fill:#FFC3A5;}
	.st4{fill:#3A2F23;}
	.st5{fill:#F9EE87;}
	.st6{fill:url(#Path_27_);}
	.st7{fill:url(#Path_28_);}
	.st8{fill:#CBCBCB;}
	.st9{fill:#6F6F6D;}
	.st10{fill:#008435;}
	.st11{fill:url(#Path_29_);}
	.st12{fill:#4D0096;}
	.st13{fill:url(#Path_30_);}
	.st14{fill:#C73800;}
	.st15{fill:url(#Path_42_);}
	.st16{opacity:0.6;fill:#00ECFF;enable-background:new    ;}
	.st17{fill:#0080B0;}
	.st18{fill:#FFFFFF;}
	.st19{fill:url(#Path_43_);}
	.st20{fill:url(#Path_44_);}
	.st21{fill:url(#Path_45_);}
	.st22{fill:url(#Path_46_);}
	.st23{fill:url(#Path_47_);}
	.st24{fill:url(#Path_48_);}
</style>
<title>Our-mission</title>
<desc>Created with Sketch.</desc>
<g id="HOW-WE-WORK_x3F_" transform="translate(248.000000, 2323.000000)">
	<g id="Our-mission" transform="translate(69.000000, 284.000000)">
		
			<linearGradient id="Path_1_" gradientUnits="userSpaceOnUse" x1="-352.3154" y1="-2333.4902" x2="-352.3154" y2="-2332.3682" gradientTransform="matrix(245.7659 0 0 -210.6436 86393.0156 -493900.0938)">
			<stop  offset="0" style="stop-color:#0048AA"/>
			<stop  offset="1" style="stop-color:#FFFFFF"/>
		</linearGradient>
		<path id="Path_2_" class="st0" d="M-87.1-2464.1c0,0-19.6,37.1-33.6,30.1s-43-84-57-97.3s-62.4-2-62.4-2s-72.6,26.4-76.6,56.3
			s37.9,138,73.4,149s56.5-86.5,56.5-86.5l-4.2-9.2c0,0-10.8,31.3-38.8,28.3c11.4-13.3,28.7-33.3,50.6-36.7
			c19.4-3,51.2,28.1,62.6,31.2c33.1,9,45.4-64.2,45.4-64.2L-87.1-2464.1z"/>
		<path id="Path_3_" class="st1" d="M-215.9-2523.8l-24.2-9.5c0,0-10.1,22.7,5.9,39.7S-202.6-2490-215.9-2523.8z"/>
		<path id="Shape" class="st2" d="M-213.6-2524.7l-0.4-1l-26.2-7.5l-3.1,1.2c-0.4,1-9.7,22.3,7.2,40.3c5,5.3,10.3,8.1,15,8.1
			c2.1,0,4.1-0.6,5.9-1.7C-206.8-2490.6-206.3-2506-213.6-2524.7z M-217.8-2489.5c-3.6,2.3-9.2,0.1-14.6-5.6
			c-12-12.8-8.3-28.9-6.3-34.8l20.9,8.1C-211.1-2503.9-213-2492.6-217.8-2489.5z"/>
		<path id="Path_4_" class="st3" d="M-203.6-2580c-8-7.1-20-7.8-28.9-1.5c-8.2,5.8-10.6,15.2-8.8,24c-1.7-0.8-3.4-1.3-5.4-1.8
			c-0.4-0.1-0.9,0-1.2,0.2c-0.8,0.1-1.6,0.4-2.5,1c-0.4,0.3-0.6,1-0.4,1.5c1.3,3.3,3.3,6.1,6.6,8.1c3,1.9,4.9,3.2,5.7,6.6
			c0.3,1.1,0.6,2.2,1,3.2c0.1,1.3,0.4,2.5,1.5,3.8c0.3,0.4,0.7,0.9,1.1,1.3c3.7,5.7,6,16,12.8,18.6c0.9,0.3,1.8-0.4,2-1
			c1.3-3.6,6.8-12.7,9.9-15.2s6.4-3.2,10.1-4.8c4.6-2.1,6.1-6.2,6.5-10.5C-192.5-2558-194.2-2571.6-203.6-2580z"/>
		<path id="Path_5_" class="st4" d="M-194.3-2588.9c-6.5-0.2-12.7-3.9-12.7-3.9c-5.4-3.9-12-5.2-22.5-2.5c-5.1,1.3-8.9,4.1-11.5,7.7
			c-2.5-3-6.8-7.9-6.9-7c-0.2,1.2,3.2,8.5,3.2,8.5s-8.7-2.8-8.5-1c0.2,1.8,8.5,7,8.5,7c-3,9.2-1.6,19.4,1.2,22.4
			c1.8,1.9,3.3,3.9,4.2,5.3c-0.3,0.4-0.5,0.8-0.8,1.2c-1,1.6,1.5,3.1,2.6,1.5c4.8-7.4,10.6-19.2,10-29.3c2.1,1.3,7.9,4.4,12.9,5.5
			c6.3,1.3,14.2,0.9,14.2,0.9s-7.6-3-14.4-6.4l1.6,0.1c3.7,0.9,9.7,2.4,11.6,2.5c1.2,0.1,0.4-0.9-1-2.1l8.3,0.3
			c-1.7-2.4-3.3-4.6-4.9-6.6C-194.3-2586.2-189.4-2588.8-194.3-2588.9z"/>
		<polygon id="Path_6_" class="st5" points="-237.5,-2538.7 -238.7,-2530 -231.1,-2502.3 -222.1,-2515 		"/>
		<polygon id="Path_7_" class="st5" points="-215.9,-2523.8 -208.8,-2507.6 -222.1,-2515 		"/>
		
			<linearGradient id="Path_27_" gradientUnits="userSpaceOnUse" x1="-352.039" y1="-2332.8535" x2="-352.7787" y2="-2333.0923" gradientTransform="matrix(72.1 0 0 -40.5 25280.1895 -96923.3516)">
			<stop  offset="0" style="stop-color:#3A0374"/>
			<stop  offset="1" style="stop-color:#51109A;stop-opacity:0"/>
		</linearGradient>
		<polygon id="Path_8_" class="st6" points="-99.8,-2433.2 -136.1,-2414.5 -171.9,-2432.3 -156.1,-2455 		"/>
		
			<linearGradient id="Path_28_" gradientUnits="userSpaceOnUse" x1="-352.5684" y1="-2333.5737" x2="-352.1927" y2="-2332.5923" gradientTransform="matrix(125.1 0 0 -75.4 43967.8008 -178387.1719)">
			<stop  offset="0" style="stop-color:#FFFFFF"/>
			<stop  offset="1" style="stop-color:#E7E7E7"/>
		</linearGradient>
		<polygon id="Path_9_" class="st7" points="-99.8,-2433.2 -179.2,-2432.2 -133.1,-2507.6 -54.1,-2506.2 		"/>
		<path id="Path_10_" class="st2" d="M-176.3-2436.3c0,0,3.1-45.5,7.1-47.3C-166.1-2485-160.9-2477-176.3-2436.3z"/>
		<path id="Path_11_" class="st3" d="M-191.1-2423.7c0,0,12.2-18,13-18.8c0.8-0.8,0.2-3.5,1.8-3.2c1.6,0.3,1.2,7.5,0,9.4
			c-1.2,1.9,12.8-3.4,14.8-3.4s7-1.5,8.5-0.5s-2.2,2-3.5,2.5s-7.5,6.8-8.8,8.5c-1.3,1.7-11.5,7.3-15.8,10.5
			c-3.5,2.7-5.8,4.2-5.8,4.2L-191.1-2423.7z"/>
		<g id="Group" transform="translate(292.000000, 145.000000)">
			<path id="Path_12_" class="st3" d="M-364.3-2629.1C-364.2-2629.5-364.3-2629.5-364.3-2629.1z"/>
			<path id="Path_13_" class="st3" d="M-354.5-2638.7c-0.5-1-4.6,3.4-7.2,6.5l-0.2-0.1l-0.7,1c0,0,0,0.1,0.1,0.2
				c-0.9,1.1-1.6,1.9-1.6,1.9l-0.2,0.3l-7.8,19.5c-0.4,1.9,4.4,3.1,5.9,1.8l3-2.5l4.4-10.7c0-0.1,0-0.1,0-0.2l0.3-6.5
				C-356.7-2631.4-353.9-2637.7-354.5-2638.7z"/>
		</g>
		<path id="Path_14_" class="st3" d="M-75-2474.1l-5.4-13.3c-0.4-1.1,0.4-2.3,1.5-2.3h13.2L-75-2474.1z"/>
		<path id="Path_15_" class="st3" d="M-68.6-2489.6c0,0-9.1-5.2-9-3.7s2.8,2.7,5.2,4.4C-69.9-2487.4-68.6-2489.6-68.6-2489.6z"/>
		<g id="Group_1_" transform="translate(260.000000, 142.000000)">
			<path id="Path_16_" class="st8" d="M-370.2-2621.7c-1.8-0.8-2.5-2.7-1.6-4.3l6.8-11.5c1.2-2,3.8-2.7,5.9-1.5
				c2,1.2,2.5,3.7,1.2,5.5l-7.3,10.7C-366.2-2621.3-368.4-2620.8-370.2-2621.7z"/>
			<path id="Path_17_" class="st9" d="M-361-2633.1c0,1-0.9,1.8-2,1.8s-1.9-0.8-1.9-1.8s0.9-1.9,2-1.9
				C-361.8-2635-360.9-2634.1-361-2633.1z"/>
		</g>
		<circle id="Oval_2_" class="st10" cx="-221" cy="-2507.1" r="1.2"/>
		<path id="Path_18_" class="st2" d="M-229.9-2395.4c0,0-22.8-28-18.8-40S-230.1-2421.9-229.9-2395.4z"/>
		<polygon id="Path_19_" class="st2" points="-191.1,-2423.7 -186.8,-2414.5 -188,-2409.5 -194.7,-2416 		"/>
		<polygon id="Path_20_" class="st2" points="-80.2,-2464.6 -71.3,-2465.2 -72.5,-2459 -83.1,-2459.9 		"/>
		
			<linearGradient id="Path_29_" gradientUnits="userSpaceOnUse" x1="-352.8194" y1="-2332.2893" x2="-353.6682" y2="-2332.9377" gradientTransform="matrix(18.6389 0 0 -12.8 6369.3022 -32385.8496)">
			<stop  offset="0" style="stop-color:#FA8C5C"/>
			<stop  offset="1" style="stop-color:#FA8C5C;stop-opacity:0"/>
		</linearGradient>
		<path id="Path_21_" class="st11" d="M-218.2-2520.5c0,0-5.9-3.8-7-7.7c-0.5-1.8,3.9-1.8,8.7-2.4c5.6-0.7,9.9-2.7,9.9-2.7
			s-3.6,2-5.1,3.9C-213.3-2527.6-218.2-2520.5-218.2-2520.5z"/>
		
			<ellipse id="Oval_3_" transform="matrix(0.9768 -0.214 0.214 0.9768 543.5214 -105.1846)" class="st12" cx="-214" cy="-2562.9" rx="1.4" ry="2.2"/>
		
			<ellipse id="Oval_4_" transform="matrix(0.9768 -0.214 0.214 0.9768 544.3229 -102.1962)" class="st12" cx="-199.8" cy="-2565.1" rx="1.4" ry="2.2"/>
		<path id="Path_22_" class="st4" d="M-220.4-2565.8c-0.2-0.4,0-0.9,0.4-1.1c1.7-1,6-3.7,6.6-3.7c0.6,0-3.8,3.6-5.7,5.2
			C-219.5-2565.1-220.2-2565.2-220.4-2565.8z"/>
		<path id="Path_23_" class="st4" d="M-197.3-2570.9c0,0.4-0.3,0.8-0.8,0.9c-1.9,0.4-6.9,1.3-7.5,1.1c-0.5-0.2,4.8-2,7.2-2.7
			C-197.9-2571.9-197.3-2571.5-197.3-2570.9z"/>
		
			<linearGradient id="Path_30_" gradientUnits="userSpaceOnUse" x1="-355.0451" y1="-2331.3069" x2="-355.9415" y2="-2332.1794" gradientTransform="matrix(6.6 0 0 -3.3821 2142.4075 -10438.4854)">
			<stop  offset="0" style="stop-color:#FA8C5C"/>
			<stop  offset="1" style="stop-color:#FA8C5C;stop-opacity:0"/>
		</linearGradient>
		<path id="Path_24_" class="st13" d="M-205.6-2552.7c0,0,6.6-3.4,6.6-1.9s-3.3,3-3.3,3L-205.6-2552.7z"/>
		<path id="Path_25_" class="st14" d="M-219.7-2548.4c0,0,4.1,1.9,5.8,2c1.7,0.1,4.1,0,4.1,0s-3.2,1.3-5.4,1
			C-217.4-2545.7-219.7-2548.4-219.7-2548.4z"/>
		
			<linearGradient id="Path_42_" gradientUnits="userSpaceOnUse" x1="-357.8399" y1="-2332.3789" x2="-356.8398" y2="-2332.3789" gradientTransform="matrix(3.9171 0 0 -7.3073 1333.0656 -19529.457)">
			<stop  offset="0" style="stop-color:#FA8C5C"/>
			<stop  offset="1" style="stop-color:#FA8C5C;stop-opacity:0"/>
		</linearGradient>
		<path id="Path_26_" class="st15" d="M-68.6-2489.6c0,0,2.1,6.5,2.1,7.1c0,0.5,1.9-3.3,1.8-4C-64.7-2487.4-64.2-2490.5-68.6-2489.6
			z"/>
		<path id="Path_31_" class="st16" d="M-61.4-2543c-0.4,0.1-0.8,0.2-1.3,0.3c1.3-1.8,2.3-3.8,2.9-5.9c1.9-6.5-0.5-11.5-5.6-10.9
			c-1.4,0.2-2.9,0.8-4.3,1.7c-0.9-4.7-4.1-7.6-8.8-7.2c-7.1,0.8-14.5,9.1-16.3,18.2c-0.1,0.4-0.1,0.8-0.2,1.2l0,0
			c-5.1,0.6-10.1,6.3-11.2,12.5c-1,6,2,10.2,6.8,9.6l33.5-4.3c3.2-0.4,6.9-4,8.1-8.2C-56.4-2540.2-58.1-2543.4-61.4-2543z"/>
		<path id="Path_32_" class="st17" d="M-148.8-2551.1c-0.2,0-0.4,0.1-0.7,0.2c0.5-0.9,0.8-1.8,0.9-2.9c0.2-3.1-1.7-5.5-4.3-5.2
			c-0.7,0.1-1.4,0.4-2.1,0.8c-1-2.2-3-3.5-5.4-3.2c-3.6,0.4-6.7,4.3-6.7,8.7c0,0.2,0,0.4,0,0.6l0,0c-2.6,0.3-4.8,3.1-4.8,6.1
			s2.1,5.1,4.6,4.8l17.9-2.3c1.7-0.2,3.3-2.1,3.5-4.1C-145.7-2549.8-147-2551.3-148.8-2551.1z"/>
		<g id="Group_4_" transform="translate(283.000000, 91.000000)">
			<polygon id="Path_33_" class="st18" points="-366.9,-2635.8 -372.1,-2630.3 -369.2,-2625.9 -368.2,-2627 -370.5,-2630.5 
				-366.4,-2634.9 			"/>
			<polygon id="Path_34_" class="st18" points="-356.8,-2637 -357.8,-2635.9 -355.7,-2632.3 -359.9,-2628 -359.4,-2627.1 
				-354.2,-2632.5 			"/>
			<polygon id="Path_35_" class="st18" points="-367,-2623.9 -366,-2623.7 -359,-2639.1 -360,-2639.4 			"/>
		</g>
		<g id="Group_5_" transform="translate(303.000000, 39.000000)">
			
				<linearGradient id="Path_43_" gradientUnits="userSpaceOnUse" x1="-661.0666" y1="-2369.5654" x2="-658.3639" y2="-2369.5654" gradientTransform="matrix(19.4 0 0 -3.1 12369.1064 -9985.8701)">
				<stop  offset="0" style="stop-color:#00D0FF;stop-opacity:0"/>
				<stop  offset="1" style="stop-color:#00F6FF;stop-opacity:0.4"/>
			</linearGradient>
			<path id="Path_36_" class="st19" d="M-406.9-2638.4h-45c-2.2,0-3.8-0.7-3.8-1.6v-0.3c0-0.9,1.6-1.6,3.8-1.6h45
				c2.2,0,3.8,0.7,3.8,1.6v0.3C-403.1-2639.1-404.7-2638.4-406.9-2638.4z"/>
			
				<linearGradient id="Path_44_" gradientUnits="userSpaceOnUse" x1="-660.5604" y1="-2369.5654" x2="-657.8569" y2="-2369.5654" gradientTransform="matrix(13.8 0 0 -3.1 8718.5957 -9985.8701)">
				<stop  offset="0" style="stop-color:#00D0FF;stop-opacity:0"/>
				<stop  offset="1" style="stop-color:#00F6FF;stop-opacity:0.4"/>
			</linearGradient>
			<path id="Path_37_" class="st20" d="M-363.5-2638.4h-29.8c-2.2,0-3.8-0.7-3.8-1.6v-0.3c0-0.9,1.6-1.6,3.8-1.6h29.8
				c2.2,0,3.8,0.7,3.8,1.6v0.3C-359.7-2639.1-361.4-2638.4-363.5-2638.4z"/>
			
				<linearGradient id="Path_45_" gradientUnits="userSpaceOnUse" x1="-659.8721" y1="-2369.8799" x2="-657.1698" y2="-2369.8799" gradientTransform="matrix(25 0 0 -3.1 16041.2178 -9979.3701)">
				<stop  offset="0" style="stop-color:#00D0FF;stop-opacity:0"/>
				<stop  offset="1" style="stop-color:#00F6FF;stop-opacity:0.4"/>
			</linearGradient>
			<path id="Path_38_" class="st21" d="M-391.7-2631h-60.2c-2.2,0-3.8-0.7-3.8-1.6v-0.3c0-0.9,1.6-1.6,3.8-1.6h60.2
				c2.2,0,3.8,0.7,3.8,1.6v0.3C-387.9-2631.8-389.8-2631-391.7-2631z"/>
			
				<linearGradient id="Path_46_" gradientUnits="userSpaceOnUse" x1="-659.7563" y1="-2370.1895" x2="-657.0493" y2="-2370.1895" gradientTransform="matrix(18.6 0 0 -3.1 11861.3193 -9972.9707)">
				<stop  offset="0" style="stop-color:#00D0FF;stop-opacity:0"/>
				<stop  offset="1" style="stop-color:#00F6FF;stop-opacity:0.4"/>
			</linearGradient>
			<path id="Path_39_" class="st22" d="M-363.5-2623.6h-42.8c-2.2,0-3.8-0.7-3.8-1.6v-0.3c0-0.9,1.6-1.6,3.8-1.6h42.8
				c2.2,0,3.8,0.7,3.8,1.6v0.3C-359.7-2624.3-361.4-2623.6-363.5-2623.6z"/>
			
				<linearGradient id="Path_47_" gradientUnits="userSpaceOnUse" x1="-662.6884" y1="-2369.8799" x2="-659.9832" y2="-2369.8799" gradientTransform="matrix(8.2 0 0 -3.1 5052.0859 -9979.3701)">
				<stop  offset="0" style="stop-color:#00D0FF;stop-opacity:0"/>
				<stop  offset="1" style="stop-color:#00F6FF;stop-opacity:0.4"/>
			</linearGradient>
			<path id="Path_40_" class="st23" d="M-363.5-2631h-14.6c-2.2,0-3.8-0.7-3.8-1.6v-0.3c0-0.9,1.6-1.6,3.8-1.6h14.6
				c2.2,0,3.8,0.7,3.8,1.6v0.3C-359.7-2631.8-361.4-2631-363.5-2631z"/>
			
				<linearGradient id="Path_48_" gradientUnits="userSpaceOnUse" x1="-662.8198" y1="-2370.1895" x2="-660.1219" y2="-2370.1895" gradientTransform="matrix(14.6 0 0 -3.1 9221.583 -9972.9707)">
				<stop  offset="0" style="stop-color:#00D0FF;stop-opacity:0"/>
				<stop  offset="1" style="stop-color:#00F6FF;stop-opacity:0.4"/>
			</linearGradient>
			<path id="Path_41_" class="st24" d="M-419.9-2623.6h-32c-2.2,0-3.8-0.7-3.8-1.6v-0.3c0-0.9,1.6-1.6,3.8-1.6h32
				c2.2,0,3.8,0.7,3.8,1.6v0.3C-416.1-2624.3-417.7-2623.6-419.9-2623.6z"/>
		</g>
		<circle id="Oval_13_" class="st17" cx="-183.7" cy="-2599" r="4"/>
		<circle id="Oval_1_" class="st17" cx="-289.7" cy="-2543" r="6"/>
	</g>
</g>
</svg>
