<svg width="299" height="342" xmlns="http://www.w3.org/2000/svg"><desc>Created with Sketch.</desc><defs><linearGradient x1="45.396%" y1="50.194%" x2="-54.622%" y2="53.269%" id="a"><stop stop-color="#134753" offset="0%"/><stop stop-color="#0B2C33" offset="100%"/></linearGradient><linearGradient x1="53.057%" y1="50.065%" x2="-46.922%" y2="49.956%" id="b"><stop stop-color="#134753" offset="0%"/><stop stop-color="#0B2C33" offset="100%"/></linearGradient><linearGradient x1="48.418%" y1="50.078%" x2="-51.524%" y2="51.106%" id="c"><stop stop-color="#134753" offset="0%"/><stop stop-color="#0B2C33" offset="100%"/></linearGradient><linearGradient x1="42.549%" y1="73.971%" x2="57.218%" y2="26.719%" id="d"><stop stop-color="#134753" offset="0%"/><stop stop-color="#0B2C33" offset="100%"/></linearGradient><linearGradient x1="50%" y1="0%" x2="10.195%" y2="78.747%" id="e"><stop stop-color="#F5515F" offset="0%"/><stop stop-color="#9F041B" offset="100%"/></linearGradient><linearGradient x1="111.082%" y1="50%" x2="10.083%" y2="50%" id="f"><stop stop-color="#B8212E" offset="0%"/><stop stop-color="#7A0315" offset="100%"/></linearGradient><linearGradient x1="50%" y1="0%" x2="10.195%" y2="78.747%" id="g"><stop stop-color="#B8212E" offset="0%"/><stop stop-color="#7A0315" offset="100%"/></linearGradient><linearGradient x1="20.068%" y1="72.359%" x2="52.757%" y2="6.951%" id="h"><stop stop-color="#56D0FF" offset="0%"/><stop stop-color="#55E5FF" offset="100%"/></linearGradient><linearGradient x1="42.334%" y1="72.409%" x2="52.284%" y2="5.615%" id="i"><stop stop-color="#56D0FF" offset="0%"/><stop stop-color="#55E5FF" offset="100%"/></linearGradient></defs><g fill="none" fill-rule="evenodd"><path fill="#0B2C33" d="M133 341.221L0 263.846v-17.625l133 77.25z"/><path fill="url(#a)" d="M133 323.471L0 246.221l14.625-8.5 133 77.375z"/><path fill="#0B2C33" d="M147.625 315.096l-133-77.375-.125-17.625 133.125 77.25z"/><path fill="url(#b)" d="M147.625 297.346L14.5 220.096l14.75-8.5 133 77.375z"/><path fill="url(#c)" d="M162.125 271.221l-133-77.25 14.625-8.5 133.125 77.375z"/><path fill="#0B2C33" d="M162.25 288.971l-133-77.375-.125-17.625 133 77.25z"/><path fill="url(#d)" d="M176.75 245.221l-133-77.375 63-36.375 133 77.375z"/><path fill="#0B2C33" d="M176.875 262.846L43.75 185.471v-17.625l133 77.375z"/><path fill="#10404A" d="M239.75 208.846v17.625l.125 17.625v17.75l.125 17.625-107 61.75v-17.75l14.625-8.375v-17.75l14.625-8.375-.125-17.75 14.75-8.375-.125-17.625z"/><path d="M115.125 26.221l-8.75 5.125c6-3.5 14.375-3 23.5 2.25l8.75-5.125c-9.125-5.25-17.5-5.75-23.5-2.25z" fill="#FFD699"/><path d="M89.5 12.846c23.25 13.375 43.125 41.125 51.625 69.25 3.75-.5 8.125.375 12.875 3.125 13.375 7.75 24.25 26.5 24.125 41.875 0 1.125-.125 2.25-.25 3.375 9.375 10.875 15.875 25.75 15.875 38.75 0 18.125-12.875 25.5-28.75 16.375l-131.5-76C15.25 99.096.5 73.471.5 52.471s14.875-29.5 33.125-18.875C39 6.596 62-3.029 89.5 12.846z" fill="url(#e)" transform="translate(96.125)"/><path d="M282.875 125.346c.125-1.125.25-2.125.25-3.375 0-15.375-10.75-34.125-24.125-41.875-4.75-2.75-9.125-3.75-12.875-3.125l-4.375 2.5 4.375-2.5C237.75 48.846 217.75 21.096 194.5 7.721c-15.625-9-29.875-9.875-40.125-3.875l-8.75 5.125c10.25-6 24.5-5.25 40.125 3.875 23.25 13.375 43.125 41.125 51.625 69.25 3.75-.5 8.125.375 12.875 3.125 13.375 7.75 24.25 26.5 24.125 41.875 0 1.125-.125 2.25-.25 3.375C283.5 141.346 290 156.221 290 169.221c0 9-3.25 15.375-8.375 18.375l8.75-5.125c5.125-3 8.375-9.375 8.375-18.375 0-13-6.5-27.875-15.875-38.75z" fill="#FFD699"/><path fill="#043365" d="M205 101.596l-44.375-25.75-.125 41.125 44.375 25.625.125-41"/><path fill="url(#f)" d="M205.75 142.971l-4.5 8-4.625-2.75zM158.75 103.346l-17.5 13L165 129.971v-10.25z"/><path d="M158.75 116.721v-19.75l36.375 21v19.75l-36.375-21zm5.875-5.375c-.875-.5-1.625-.125-1.625.875s.75 2.25 1.625 2.75 1.625.125 1.625-.875c-.125-1.125-.75-2.25-1.625-2.75zm0-6.125c-.875-.5-1.625-.125-1.625.875s.75 2.25 1.625 2.75 1.625.125 1.625-.875-.75-2.25-1.625-2.75z" fill="#155360" fill-rule="nonzero"/><path d="M164.625 111.346c.875.5 1.625 1.75 1.625 2.75s-.75 1.375-1.625.875-1.625-1.75-1.625-2.75.75-1.375 1.625-.875z" fill="#FA6286"/><path d="M164.625 105.221c.875.5 1.625 1.75 1.625 2.75s-.75 1.375-1.625.875-1.625-1.75-1.625-2.75.75-1.375 1.625-.875z" fill="#5DFFFB"/><path fill="#FA6286" d="M195.125 117.096l-36.375-21v.875l36.375 21 8-4.625v-1z"/><path fill="#155360" d="M195.125 117.971l8-4.625-.125 19.75-8 4.625z"/><path fill="#FA6286" d="M158.75 96.096l8-4.625 36.375 20.875-8 4.75z"/><path fill="#155360" d="M158.75 89.596l36.375 20.875v6.625l-36.375-21z"/><path fill="#038089" d="M158.75 89.596l13.25-7.25 31.125 18-2.875 7.375-5.125 2.75z"/><path fill="#155360" d="M195.125 110.471l8-4.625v6.5l-8 4.75z"/><path fill="url(#e)" d="M40.75 3.75l.125 41.625L4.625 66.25 4.5 24.625z" transform="translate(164.875 97.596)"/><path fill="url(#g)" d="M4.625 66.25L.25 63.75.125 22.125l4.375 2.5z" transform="translate(164.875 97.596)"/><path fill="#FFD699" d="M169.375 122.221l-4.375-2.5 36.25-21 4.375 2.625z"/><path d="M178.625 137.471c-1.375.875-2.625 2.875-2.625 4.5s1.125 2.375 2.625 1.5c1.375-.875 2.625-2.875 2.625-4.5s-1.25-2.375-2.625-1.5" fill="url(#d)"/><path d="M114.125 83.096l-.75 3.375S118 89.721 119 88.846s.625-5.125.625-5.125 2 1 3 .125.5-7.25.5-7.25l-2.625-1.25-4.125 1.375-2.25 6.375z" fill="#FFC4A8"/><path d="M102.5 181.221s-.75 4-.625 5.125-.125 2 1 2.5 3.875-.375 4.625-.625l6.5-3.25s1.25-1.5-1-1.375-6.125.5-6.125.5v-2l-4.375-.875z" fill="#FFF"/><path d="M102.375 151.346l-.625 26.875c0 1.5.625 2.875 1.875 3.625l.5.375c1.5-.75 2 .125 2.375-2.125l3.375-25.875-7.5-2.875z" fill="url(#h)"/><path d="M116 189.596s-.375 4.125-.125 5.125.125 2 1.25 2.375 3.75-.75 4.5-1.125 6.125-3.875 6.125-3.875 1.125-1.625-1.125-1.25-6.125 1-6.125 1l-.125-2-4.375-.25z" fill="#FFF"/><path d="M113.75 154.346l1.625 33c.125 1.375.75 2.75 1.75 3.625 2.5 2.125 3.875-.125 4-3.375l.5-32.125-7.875-1.125z" fill="url(#i)"/><path d="M144.25 101.596l6.875-15.5-13.625-3.875-7.375 17.5 12.5 4.375s-.875-6 .25-6.125 1.375 3.625 1.375 3.625z" fill="#FFF"/><path d="M130.625 90.471s.875-.125 1.5 0 .125-.5 0 0 .25-.375 1.375-.375 2 .75 1.125 1.25c-.75.5-1.875 1.375-2.125 2s-3 2.5-3.375 1.625c-.5-.875-1-3.25-.25-3.5.625-.375 1.75-1 1.75-1z" fill="#FFC4A8"/><path d="M141.25 106.096s-2.25 12-5.875 7.875-.375-16.125-2.25-18.875c-2-2.75-11.25-5.625-11.25-5.625l-.875-.375 2-2.625-5.375-1-1.375 1.5-6.375-3s-2.75-1.125-5-.125-6.625 13.625-6.75 18.5l.75 41.875c-.75.125.125 3.25.125 4.25 0 4.125.5 6.5.625 11.125.125 3 5.5 4.875 7.625 5.25 2 .375 4 1.25 5.875 1.875 2.5.875 6.25 1.125 8.75 1.375 3.375.75 5.25-.5 6.5-.375l.5-50.375s4.75 7.25 9.125 6.375c4.5-.875 8.875-14.875 8.875-14.875l-5.625-2.75z" fill="#FFF"/><g fill="#6B09C9"><path d="M104.75 83.346s-.125 0 0 0c-.125 0 0 .25 0 0z"/><path d="M126.75 71.471c-.5-.375-1.375-.625-2.125-.625-.25-.625-.75-1.125-1.5-1.375-.625-.25-1.125-.25-1.625-.125v-.125a3.456 3.456 0 0 0-1.625-1.375c-.5-.125-1-.125-1.375 0-.375-.25-.625-.5-1-.625-.125-.125-.25-.375-.5-.5-1.125-.625-2.25-1.125-3.5-.875-1 .125-1.75.75-2.25 1.5-1.875-.125-2.25 4.375-2.5 5.125l-.5.375c-.75.125-1.125.375-1.75 1.125-.625.875-.875 1.875-.625 2.75-.375.25-.75.5-1 .75-.75.875-1.25 1.625-.25 2.25 0 0 .25.5.625 1-.625.25-1.25.625-1.375 1.125-.125.625.375.75.75 1.125l.125.125s-1.125-.375-.5.5c-.75.5-.5 0-.375.875 0 .375 0 .375-.125.375-.375.625-.5 1.5-.25 2.25 0 .125.125.125.125.25-.125.125-.25.125-.375.25-.625.625-.75 1.5-.625 2.25.375 1.5 2.25 2.125 3.625 2 .5 1.375 1.5 2.5 3.125 2.5.625 0 1.25-.25 1.75-.75 1.125.625 2.625.75 3.75-.25.375-.375.625-.75.75-1.125 1 0 1.625-.75 1.75-1.625.125-1 0-1.875-.375-2.75v-.125l.125-.125c.625-1.125.625-2.75-.25-3.75l-.25-2.25s-2.375-3.125-.625-3c1.75.25.875.5 2.125.625s1.75-3.25 2.75-3.75c.875-.5 2.75 1.875 3.625 1.375.875-.375.75-1.875 2.125-2.625 1.375-.5.875-2.125.125-2.75z"/></g><path d="M142.125 106.471l.5-3.625s-.375-4.125.125-4.875.875-.25 1 1 .125 2.5.5 2.75c.5.125 1.75-4.875 1.75-4.875s1.125.375 1.125 1.125.125 3.25-.125 4.625-1.125 5.875-1.125 5.875l-3.75-2z" fill="#FFC4A8"/><path d="M128.75 117.346s-4.75-5.75-5.375-4.625-2.125 11.25-.375 11.75c1.875.5 5.75-7.125 5.75-7.125z" fill="#D5E3E4"/><g><path fill="#70DC44" d="M210 176.721l-20.25 11.875-26.75-15.5 20.25-11.75z"/><path fill="#A7FF81" d="M210 176.721l-.125 34.75-20.25 11.875.125-34.75z"/><path fill="#1CB850" d="M189.932 188.34l-.307 35.006-26.75-15.5.125-34.75z"/></g><path fill="#19A042" d="M155.375 187.221l10-6 21.875 12.5-10 6z"/><path fill="#1CB850" d="M177.25 199.721l-.125 10.375-21.75-12.625v-10.25z"/><path fill="#70DC44" d="M155.5 187.221l10-6-.125 10.375-1.125.625z"/><path d="M175 169.846l10.125-4.125s9.625 6 11.5 6.25 3.25 0 3.25 0l-10.625 7-14.25-9.125z" fill="#FFF"/></g></svg>
