<?xml version="1.0" encoding="utf-8"?>
<!-- Generator: Adobe Illustrator 22.1.0, SVG Export Plug-In . SVG Version: 6.00 Build 0)  -->
<svg version="1.1" id="Layer_1" xmlns="http://www.w3.org/2000/svg" xmlns:xlink="http://www.w3.org/1999/xlink" x="0px" y="0px"
	 viewBox="0 0 60.9 60.9" style="enable-background:new 0 0 60.9 60.9;" xml:space="preserve">
<style type="text/css">
	.st0{display:none;filter:url(#filter-3);}
	.st1{display:inline;}
	.st2{fill:url(#SVGID_1_);stroke:#FFFFFF;stroke-opacity:0.4004;}
	.st3{fill:url(#Combined-Shape_1_);}
	.st4{fill:url(#Path-16_1_);}
</style>
<filter  filterUnits="objectBoundingBox" height="176.7%" id="filter-3" width="165.0%" x="-32.5%" y="-19.2%">
	<feMorphology  in="SourceAlpha" operator="erode" radius="8" result="shadowSpreadOuter1"></feMorphology>
	<feOffset  dx="0" dy="15" in="shadowSpreadOuter1" result="shadowOffsetOuter1"></feOffset>
	<feGaussianBlur  in="shadowOffsetOuter1" result="shadowBlurOuter1" stdDeviation="12"></feGaussianBlur>
	<feComposite  in="shadowBlurOuter1" in2="SourceAlpha" operator="out" result="shadowBlurOuter1"></feComposite>
	
		<feColorMatrix  in="shadowBlurOuter1" type="matrix" values="0 0 0 0 0   0 0 0 0 0.411764706   0 0 0 0 0.870588235  0 0 0 0.5 0">
		</feColorMatrix>
</filter>
<title>Oval</title>
<desc>Created with Sketch.</desc>
<g>
	<g id="Google-Cloud-Partner" transform="translate(-378.000000, -1438.000000)">
		<g id="Group-27" transform="translate(385.000000, 1438.000000)">
			<g id="Group-15">
				<g id="Oval">
					<g class="st0">
						<circle id="path-2_1_" class="st1" cx="23.5" cy="30.1" r="30"/>
					</g>
					
						<linearGradient id="SVGID_1_" gradientUnits="userSpaceOnUse" x1="-322.7921" y1="382.598" x2="-321.7921" y2="382.584" gradientTransform="matrix(59 0 0 -59 19038.75 22603)">
						<stop  offset="0" style="stop-color:#0069DE"/>
						<stop  offset="1" style="stop-color:#008AFF"/>
					</linearGradient>
					<circle class="st2" cx="23.5" cy="30.1" r="29.5"/>
				</g>
			</g>
		</g>
	</g>
	<g id="Page-1">
		<g id="Google-Cloud-Partner_1_" transform="translate(-608.000000, -1457.000000)">
			<g id="Group-27_1_" transform="translate(385.000000, 1438.000000)">
				<g id="Group-15-Copy-4" transform="translate(204.000000, 0.000000)">
					<g id="Zones-Icon" transform="translate(19.000000, 19.000000)">
						<g id="Group-3">
							
								<linearGradient id="Combined-Shape_1_" gradientUnits="userSpaceOnUse" x1="-188.0437" y1="372.7984" x2="-188.8071" y2="372.7984" gradientTransform="matrix(2.5882 0 0 -22 510.6277 8232.625)">
								<stop  offset="0" style="stop-color:#FFFFFF"/>
								<stop  offset="1" style="stop-color:#FFFFFF;stop-opacity:0.5"/>
							</linearGradient>
							<path id="Combined-Shape" class="st3" d="M23.3,22.5v19c0,0.4-0.3,0.6-0.6,0.6S22,41.8,22,41.4V22.5
								c-0.4-0.2-0.7-0.6-0.7-1.1c0-0.7,0.6-1.3,1.3-1.3s1.3,0.6,1.3,1.3C23.9,21.8,23.7,22.2,23.3,22.5z"/>
							
								<linearGradient id="Path-16_1_" gradientUnits="userSpaceOnUse" x1="-301.5023" y1="362.2448" x2="-302.5023" y2="362.2448" gradientTransform="matrix(18.3571 0 0 -12.9412 5576.3726 4715.0278)">
								<stop  offset="0" style="stop-color:#FFFFFF"/>
								<stop  offset="1" style="stop-color:#FFFFFF;stop-opacity:0.5"/>
							</linearGradient>
							<path id="Path-16" class="st4" d="M23.3,22.3l5.5-1.4c2.1-0.5,4.2-0.2,6.1,0.8l0,0c1.8,1,4,1,5.8,0l0.9-0.5v11.1l-1,0.5
								c-1.8,1-4,1-5.8,0l0,0c-1.9-1-4-1.3-6.1-0.8l-5.5,1.3V22.3z"/>
						</g>
					</g>
				</g>
			</g>
		</g>
	</g>
</g>
</svg>
