<svg xmlns="http://www.w3.org/2000/svg" width="243" height="217" viewBox="0 0 243 217"><style>.a{fill:#FFF;}.b{fill-opacity:0.1;fill:#0083F8;}</style><title>  google-cloud</title><desc>  Created with Sketch.</desc><g fill="none"><path d="M124.4 144.4C106 144.4 91 129.6 91 111.3 91 93.1 106 78.2 124.4 78.2 142.8 78.2 157.7 93.1 157.7 111.3 157.7 129.6 142.8 144.4 124.4 144.4" class="a"/><path d="M190.7 8.4L212.3 45.9C209.6 44.3 206.5 43.2 203.6 43.2L84.9 43.2 47.3 108.3 26.2 72.2C24.7 69.6 24.1 65.9 24.3 62.4L55.4 8.4C58.1 3.8 64.6 0 69.9 0L176.3 0C181.6 0 188.1 3.8 190.7 8.4ZM73 30.1C76.5 30.1 79.3 27.4 79.3 24.1 79.3 20.8 76.5 18.1 73 18.1 69.5 18.1 66.7 20.8 66.7 24.1 66.7 27.4 69.5 30.1 73 30.1ZM175.9 24.1C175.9 21 173.3 18.6 170.1 18.6 166.9 18.6 164.3 21 164.3 24.1 164.3 26.1 165.4 27.9 167.2 29 169 30 171.2 30 173 29 174.9 27.9 176 26.1 175.9 24.1Z" class="a"/><path d="M25.8 60.2L24.3 62.2C24.1 65.3 24.7 68.5 26.4 70.8L48.8 102.3 60.7 85.4 25.8 60.2" class="b"/><path d="M240.6 100C243.2 104.5 243.2 111.9 240.6 116.5L186.5 208C183.8 212.5 177.2 216.2 171.8 216.2L128 216.2C130.6 214.7 132.8 212.7 134.1 210.5L193.7 107.7 156.1 42.9 199.6 42.9C202.5 42.9 205.7 44 208.4 45.6L240.6 100ZM168.5 200.4C172.1 200.4 175.1 197.5 175.1 194 175.1 190.4 172.1 187.5 168.5 187.5 164.8 187.5 161.9 190.4 161.9 194 161.9 197.5 164.8 200.4 168.5 200.4ZM219.8 114.5C223.5 114.5 226.4 111.6 226.4 108.1 226.4 104.5 223.5 101.6 219.8 101.6 216.2 101.6 213.2 104.5 213.2 108.1 213.2 111.6 216.2 114.5 219.8 114.5Z" style="fill:#FFF;opacity:0.8"/><path d="M209.9 48.1L208.5 45.6C205.7 44 202.5 42.9 199.6 42.9L156.1 42.9 167.4 62.4 209.9 48.1" class="b"/><path d="M83.7 172.2L83.7 172.2 157.2 172.2 136 210.5C134.8 212.7 132.6 214.7 130.1 216.2L68.3 216.2C63.1 216.2 56.7 212.5 54.2 207.9L2.2 115.8C-0.4 111.3-0.4 103.8 2.2 99.2L23.8 60.9C23.5 64.4 24.2 68 25.7 70.7L83.7 172.2ZM70.9 200.3C74.4 200.3 77.3 197.4 77.3 193.8 77.3 190.3 74.4 187.4 70.9 187.4 67.4 187.4 64.6 190.3 64.6 193.8 64.6 197.4 67.4 200.3 70.9 200.3ZM21.5 113.9C25 113.9 27.8 110.9 27.8 107.4 27.8 103.8 25 100.9 21.5 100.9 18 100.9 15.1 103.8 15.1 107.4 15.1 110.9 18 113.9 21.5 113.9Z" style="fill:#FFF;opacity:0.6"/><path d="M126.6 216.2L130.2 216.2C132.7 214.7 134.8 212.7 136.1 210.5L157.3 172.2 134.7 172.2 126.6 216.2" class="b"/></g></svg>
