<svg width="70" height="74" xmlns="http://www.w3.org/2000/svg"><desc>Created with Sketch.</desc><defs><linearGradient x1="24.426%" y1="79.08%" x2="79.579%" y2="24.849%" id="a"><stop stop-color="#0069DE" offset="0%"/><stop stop-color="#008AFF" stop-opacity=".478" offset="100%"/></linearGradient><linearGradient x1="100%" y1="50%" x2="14.425%" y2="50%" id="b"><stop stop-color="#009DEE" offset="0%"/><stop stop-color="#0064D8" offset="100%"/></linearGradient><linearGradient x1="24.489%" y1="76.188%" x2="87.921%" y2="26.454%" id="c"><stop stop-color="#0069DE" offset="0%"/><stop stop-color="#008AFF" offset="100%"/></linearGradient><linearGradient x1="31.401%" y1="100%" x2="31.401%" y2="0%" id="d"><stop stop-color="#2C8DFF" offset="0%"/><stop stop-color="#0071DD" offset="100%"/></linearGradient><linearGradient x1="50%" y1="0%" x2="50%" y2="100%" id="e"><stop stop-color="#FFE52C" offset="0%"/><stop stop-color="#FFB901" offset="100%"/></linearGradient><radialGradient cy="90.801%" fx="50%" fy="90.801%" r="84.802%" gradientTransform="matrix(0 -1 .64887 0 -.09 1.408)" id="f"><stop stop-color="#FFDF26" offset="0%"/><stop stop-color="#FFF" stop-opacity="0" offset="100%"/></radialGradient></defs><g transform="translate(-6 -5)" fill="none" fill-rule="evenodd"><g transform="translate(6 5)" fill-rule="nonzero"><path d="M22.465 54.833a9.689 9.689 0 0 1-7.218-2.844 9.745 9.745 0 0 1-2.372-9.904l-.018.017a6.94 6.94 0 0 1-9.822.002 6.962 6.962 0 0 1 0-9.838L33.208 2.037a6.94 6.94 0 0 1 9.822-.001 6.957 6.957 0 0 1 1.857 6.49l1.65-1.653c3.791-3.797 9.943-3.802 13.74-.012l.01.011c3.8 3.805 3.8 9.967.001 13.772L50.287 30.663a6.91 6.91 0 0 1 4.144 1.994 6.96 6.96 0 0 1 0 9.836L25 71.963a6.939 6.939 0 0 1-9.82 0 6.96 6.96 0 0 1 0-9.836l7.284-7.294zm22.059 6.312a4.873 4.873 0 0 1 0 6.886l-4.436 4.445a4.858 4.858 0 0 1-6.876 0 4.873 4.873 0 0 1 0-6.886l4.436-4.444a4.858 4.858 0 0 1 6.876-.001zm24.05-39.714a4.875 4.875 0 0 1 .003 6.888l-1.999 2.003a4.858 4.858 0 0 1-6.876.002 4.875 4.875 0 0 1-.002-6.889l1.998-2.002a4.858 4.858 0 0 1 6.877-.002z" fill="url(#a)" opacity=".3"/><circle fill="url(#a)" opacity=".4" cx="50.5" cy="55.5" r="3.5"/><circle fill="url(#a)" opacity=".4" cx="57.5" cy="47.5" r="1.5"/><circle fill-opacity=".4" fill="url(#b)" cx="8.5" cy="20.5" r="2.5"/><circle fill="url(#a)" opacity=".4" cx="5" cy="9" r="5"/></g><path d="M39.306 58c4.06 0 4.452-14.56 7.51-17.199C51.045 37.155 54 32.185 54 26.229 54 16.161 45.941 8 36 8s-18 8.161-18 18.23c0 5.965 2.967 10.937 7.204 14.587C28.244 43.435 28.581 58 32.804 58h6.502z" fill="url(#c)" fill-rule="nonzero"/><path d="M38 57c-1.128.772-3.2 1.395-6.492 1.26-5.042-.205.958-1.26 3.789-1.26 2.83 0 9.686 1.476 6.258 2.811s-13.681 1.684-12.276 0c1.406-1.683 13.64.097 13.64 2.141 0 2.045-12.721 2.559-13.64 1.301-.918-1.257 3.22-1.567 8.327-1.3 5.107.265 6.678 3.358 3.95 3.995-2.729.637-10.167 2.434-12.277.492-2.109-1.942 8.28-2.01 12.638.58 4.358 2.589-6.97 2.549-11.719 1.6-4.75-.948 7.577 2.307 11.719 3.216 2.761.606 5.456-.466 8.083-3.216" stroke="url(#d)" stroke-linecap="round" stroke-linejoin="round" fill-rule="nonzero"/><path d="M33.984 57l-3.787-21.249c-.285-1.601-.476-4.49-2.039-6.058-1.562-1.568-3.128 2.123-1.408 4.11 1.72 1.987 5.87 1.023 7.919-.424 2.05-1.448 3.898-4.898 4.192-6.651.294-1.753-2.327-4.19-3.653-1.595-1.326 2.594 3.428 10.886 6.353 10.595 2.925-.29 4.459-3.616 2.68-5.02-1.778-1.405-2.459 3.803-2.68 5.02-.148.811-1.403 7.902-3.767 21.272" stroke="url(#e)" stroke-linecap="round" stroke-linejoin="round" fill-rule="nonzero"/><circle fill-opacity=".8" fill="url(#f)" cx="36" cy="24" r="13"/></g></svg>
