<svg width="65" height="53" xmlns="http://www.w3.org/2000/svg"><desc>Created with Sketch.</desc><defs><linearGradient x1="24.426%" y1="79.08%" x2="79.579%" y2="24.849%" id="a"><stop stop-color="#0069DE" offset="0%"/><stop stop-color="#008AFF" stop-opacity=".478" offset="100%"/></linearGradient><linearGradient x1="24.489%" y1="76.188%" x2="87.921%" y2="26.454%" id="b"><stop stop-color="#0069DE" offset="0%"/><stop stop-color="#008AFF" offset="100%"/></linearGradient><linearGradient x1="100%" y1="50%" x2="0%" y2="50%" id="c"><stop stop-color="#FFE62D" offset="0%"/><stop stop-color="#FFB800" offset="100%"/></linearGradient></defs><g fill-rule="nonzero" fill="none"><circle fill="url(#a)" opacity=".4" cx="10.5" cy="46.5" r="6.5"/><circle fill="url(#a)" opacity=".4" cx="55.5" cy="2.5" r="2.5"/><g transform="translate(10 2)"><circle fill="url(#b)" cx="21.5" cy="21.5" r="21.5"/><path d="M40.172 10.833C36.466 4.361 29.492 0 21.5 0v21.5l18.672-10.667z" fill-opacity=".2" fill="#FFF" opacity=".81"/><path d="M20.946 19.847V10.75c0-.33.267-2.986.597-2.986.33 0 .598 2.656.598 2.986v9.146c.181.073.348.175.495.3l12.031-6.968c.286-.165 3.08-1.401 3.245-1.116.166.286-2.36 1.984-2.646 2.15l-12.031 6.967a1.792 1.792 0 1 1-2.289-1.382z" fill="#80BDF0"/></g><g transform="translate(40 27)"><circle fill="#9FFF72" cx="12.5" cy="12.5" r="12.5"/><circle fill="url(#c)" cx="12.5" cy="12.5" r="12.5"/><path d="M15.476 9.615c0-2.442-.97-3.663-2.913-3.663-2.913 0-3.125 1.607-3.019 3.663.106 2.057 5.932 4.313 5.932 5.818 0 1.504 0 3.615-2.913 3.615-1.942 0-2.948-1.205-3.019-3.615M12.5 4.167v16.666" stroke="#E5A500" stroke-width="2" stroke-linecap="round"/></g><circle fill="url(#a)" opacity=".4" cx="2.5" cy="18.5" r="2.5"/></g></svg>
