<svg width="70" height="59" xmlns="http://www.w3.org/2000/svg"><desc>Created with Sketch.</desc><defs><linearGradient x1="24.489%" y1="76.188%" x2="87.921%" y2="26.454%" id="a"><stop stop-color="#0069DE" offset="0%"/><stop stop-color="#008AFF" offset="100%"/></linearGradient><linearGradient x1="24.426%" y1="79.08%" x2="79.579%" y2="24.849%" id="b"><stop stop-color="#0069DE" offset="0%"/><stop stop-color="#008AFF" stop-opacity=".478" offset="100%"/></linearGradient></defs><g transform="translate(0 -11)" fill="none" fill-rule="evenodd"><circle fill="url(#a)" fill-rule="nonzero" cx="35.5" cy="40.5" r="28.5"/><g fill="#0254B4"><path d="M64.148 40.815c.092-5.267-1.315-10.114-3.875-14.266 0 0-1.528 2.116-1.29 3.55.238 1.432 1.903 1.55 1.71 2.53-.192.978-1.31-.291-2.848 2.36-1.538 2.653-.814 6.416 1.286 6.72 2.1.305 5.017-.894 5.017-.894zM44.012 13.227c2.968.856 5.751 2.244 8.088 4.07 0 0-2.973-.587-4.131.464-1.158.962-2.868 3.433-4.123-.072-1.168-3.414.166-4.462.166-4.462zM15.81 20.504c4.832-5.363 11.734-8.725 19.452-8.59 0 0-1.773 1.04 1.529 2.884 3.301 1.843 1.707 2.709 1.084 3.233-.711.524-1.822-1.192-2.593-2.277-.769-1.175-4.072-2.929-6.633-1.991-2.559.848-4.764 1.524-4.428 2.423.335.899 4.75-.721 6.415-.603 1.664.119 1.12 1.18-.48 2.314-1.6 1.222-1.8 2.647-.151 3.658 1.65.922 3.666 1.047 4.114.519.448-.528-.716-4.21 2.326-2.55 3.041 1.661 5.657 2.6 3.073 4.876-2.584 2.277-5.611 4.814-5.725 6.33-.115 1.516.83 2.693.302 2.774-.528.08-1.041-.644-1.383-1.185-.341-.542-2.005-.75-2.888-.408-.795.343-2.396 1.565-1.54 2.741.856 1.265 2.007.66 3.224 1.307 1.219.557 2.234 2.718 2.05 3.161-.27.442-1.226-.11-2.073-1.822-.762-1.62-2.359-.577-3.494-.865-1.048-.286-1.922-.48-2.94-2.462-1.106-1.984-3.29-2.558-4.234-3.735-2.575-3.26-2.356-5.757-2.864-6.837-.683-1.084-2.142-2.895-2.142-2.895zM37.255 38.47s2.714.315 4.095 1.59c1.382 1.274 1.55 1.723 3.647 2.207 2.097.483 2.952 1.748 1.596 4.046-1.444 2.296-3.965 6.003-5.124 7.054-1.248 1.14-2.667 2.008-3.314 3.872-.559 1.865-.753 2.933.373 3.757 0 0-.642 1.596-2.097-.483-1.455-2.08-.185-4.468.103-5.892.288-1.424 1.063-5.608.642-6.597-.422-.99-2.514-1.74-3.09-3.894-.402-2.15.636-6.33 3.169-5.66z"/></g><circle fill="url(#b)" fill-rule="nonzero" opacity=".4" cx="6" cy="62" r="6"/><path d="M38.986 12.51c.116-.942-.516-.391-.978.153-1.426 1.679-4.098 4.335-10.833 7.904-6.937 3.676-11.649 5.335-14.524 5.43-2.104.068-1.87-.865-1.088-.39" stroke="#A4CEF2" stroke-width=".5" fill-rule="nonzero"/><path d="M49.028 15.746c.495-.96.98-.127.421.732-3.042 4.677-29.705 15.396-36.133 7.68-1.027-1.232-.21-2.667.576-2.027" stroke="#A4CEF2" stroke-width=".5" fill-rule="nonzero"/><path d="M62.523 30.299c.787 1.034.997 2.015.63 2.943-.972 3.182-42.74-5.598-44.263-15.138-.204-.864.126-1.607.99-2.23" stroke="#A4CEF2" stroke-width=".5" stroke-linecap="round" fill-rule="nonzero"/><path d="M55.338 60.732c-3.454.89-6.77-.683-9.946-4.719-5.595-7.108-6.01-32.145.528-40.07.577-.7 1.158-1.322 1.743-1.867" stroke="#A4CEF2" stroke-width=".5" stroke-linecap="round" fill-rule="nonzero"/><path d="M42.62 12.533c.334-1.32 1.063.19 1.16.467.67 1.912 2.736 21.76 1.552 27.225-4.167 19.248-15.99 20.055-27.578 20.6-1.534.072-3.938.307-2.83-.725" stroke="#A4CEF2" stroke-width=".5" fill-rule="nonzero"/><path d="M32.535 69.637C29.732 58.21 30.1 49.543 33.64 43.63c4.58-7.65 16.648-10.551 27.058-9.235.919.116 1.967.411 3.146.885" stroke="#A4CEF2" stroke-width=".5" stroke-linecap="round" fill-rule="nonzero"/><path d="M6.586 44.859c8.265 8.999 18.07 12.194 29.417 9.586 4.1-.942 10.488-1.719 19.774 1.203.916.289 1.795.786 2.637 1.493M64.306 43.042c-12.663 2.894-21.975 2.593-27.935-.903-7.712-4.523-15.87-15.093-14.548-25.364a19.52 19.52 0 0 1 .486-2.527" stroke="#A4CEF2" stroke-width=".5" stroke-linecap="round" fill-rule="nonzero"/><path d="M63.862 33.2c-.757 1.108-1.534 1.892-2.33 2.354-1.59.903-18.551 10.559-26.757 5.828-4.378-2.66-5.476-8.962-5.468-12.295.016-6.61 1.206-14.722 3.663-16.78.64-.622 1.266-.957 1.878-1.008" stroke="#A4CEF2" stroke-width=".5" stroke-linecap="round" fill-rule="nonzero"/><path d="M64.1 37.358c-1.81 1.4-3.09 2.318-3.84 2.753-1.541.893-17.056 8.875-24.264 2.828-3.82-3.36-5.192-8.145-5.16-12.28.052-6.806 3.655-13.608 8.55-17.497.695-.552 1.406-.843 2.133-.872" stroke="#A4CEF2" stroke-width=".5" stroke-linecap="round" fill-rule="nonzero"/><circle fill="#FF5C5C" cx="40" cy="54" r="1"/><circle fill="#FF5C5C" cx="60" cy="34" r="1"/><circle fill="#FF5C5C" cx="45" cy="19" r="1"/><circle fill="#FF5C5C" cx="42" cy="43" r="1"/><circle fill="#FF5C5C" cx="22" cy="22" r="1"/><circle fill="url(#b)" fill-rule="nonzero" opacity=".4" cx="10.5" cy="15.5" r="2.5"/><circle fill="url(#b)" fill-rule="nonzero" opacity=".4" cx="66" cy="56" r="4"/><circle fill="#FF5C5C" cx="30" cy="27" r="1"/><circle fill="#FF5C5C" cx="35" cy="42" r="1"/><circle fill="#FF5C5C" cx="44" cy="45" r="1"/><circle fill="#FF5C5C" cx="63" cy="35" r="1"/><circle fill="#FF5C5C" cx="32" cy="25" r="1"/></g></svg>
