<svg width="66" height="59" xmlns="http://www.w3.org/2000/svg"><desc>Created with Sketch.</desc><defs><linearGradient x1="0%" y1="50%" y2="50%" id="a"><stop stop-color="#006ADB" offset="0%"/><stop stop-color="#04AFFF" offset="100%"/></linearGradient><linearGradient x1="24.489%" y1="76.188%" x2="87.921%" y2="26.454%" id="b"><stop stop-color="#0069DE" offset="0%"/><stop stop-color="#008AFF" offset="100%"/></linearGradient></defs><g fill="none" fill-rule="evenodd"><path fill="#55C7FF" d="M44 40.088L22.22 51.704.44 40.088 22.11 28.47z"/><path fill="#0AB0FF" d="M44 40.088v6.768L22.22 58.472v-6.768z"/><path fill="#005CC8" d="M22.22 51.704v6.768L.33 46.856l.11-6.768z"/><path fill="#55C7FF" d="M43.89 30.813L22.22 42.33.33 30.813 22 19.197z"/><path fill="#0AB0FF" d="M43.89 30.813v6.768L22.22 49.198v-6.87z"/><path fill="#005CC8" d="M22.22 42.329v6.869L.33 37.58v-6.768z"/><path fill="#55C7FF" d="M43.89 21.336L22.22 32.953.33 21.336 22 9.821z"/><path fill="#0AB0FF" d="M43.89 21.336v6.768L22.22 39.721v-6.768z"/><path fill="#005CC8" d="M22.22 32.953v6.768L.33 28.205v-6.869z"/><path fill="url(#a)" fill-rule="nonzero" d="M43.89 11.96L22.22 23.578.33 11.961 22 .344z"/><path fill="#0AB0FF" d="M43.89 11.96v6.769L22.22 30.345v-6.768z"/><path fill="#005CC8" d="M22.22 23.577v6.768L.33 18.73V11.96z"/><path d="M4.18 16.935c-.33-.218-.66 0-.66.328 0 .437.33.874.66 1.093.33.218.66 0 .66-.328-.11-.328-.33-.874-.66-1.093M6.71 18.465c-.33-.219-.66 0-.66.328 0 .437.33.874.66 1.092.33.219.66 0 .66-.328 0-.437-.33-.874-.66-1.092" fill="#FF5C5C"/><path fill-opacity=".5" fill="#FFF" d="M36.74 39.5l-6.6 3.536v1.818l6.6-3.535V39.5M36.74 30.125l-6.6 3.535v1.818l6.6-3.535v-1.818M36.74 20.648l-6.6 3.535v1.92l6.6-3.536v-1.92"/><ellipse fill="url(#b)" fill-rule="nonzero" cx="49.5" cy="43" rx="16.5" ry="16"/><path d="M49.454 37.751c-2.338-.052-4.113 1.213-4.709 3.086a2.824 2.824 0 0 0-1.345-.385c-1.365-.044-2.266.983-2.105 2.211l.035.267c-.847.452-1.375 1.354-1.242 2.368.196 1.496 1.654 2.735 3.212 2.77l13.12.336c1.82.058 3.134-1.275 2.903-3.037-.225-1.709-1.903-3.153-3.724-3.21-.901-2.43-3.415-4.318-6.145-4.406z" fill="#8DFFFF"/></g></svg>
