<svg width="58" height="79" xmlns="http://www.w3.org/2000/svg"><desc>Created with Sketch.</desc><defs><linearGradient x1="24.426%" y1="79.08%" x2="79.579%" y2="24.849%" id="a"><stop stop-color="#0069DE" offset="0%"/><stop stop-color="#008AFF" stop-opacity=".478" offset="100%"/></linearGradient><linearGradient x1="24.489%" y1="76.188%" x2="87.921%" y2="26.454%" id="b"><stop stop-color="#0069DE" offset="0%"/><stop stop-color="#008AFF" offset="100%"/></linearGradient><radialGradient cy="90.801%" fx="50%" fy="90.801%" r="84.802%" gradientTransform="matrix(0 -1 .64086 0 -.082 1.408)" id="c"><stop stop-color="#FFF" stop-opacity=".501" offset="0%"/><stop stop-color="#FFF" stop-opacity="0" offset="100%"/></radialGradient><linearGradient x1="127.915%" y1="50%" x2="-50.061%" y2="50%" id="d"><stop stop-color="#FFE62D" offset="0%"/><stop stop-color="#FFB800" offset="100%"/></linearGradient></defs><g fill="none" fill-rule="evenodd"><circle fill="url(#a)" fill-rule="nonzero" opacity=".4" cx="36" cy="4" r="4"/><circle fill="url(#a)" fill-rule="nonzero" opacity=".4" cx="11.5" cy="17.5" r="5.5"/><circle fill="url(#a)" fill-rule="nonzero" opacity=".4" cx="48.5" cy="59.5" r="8.5"/><path d="M29 13l29 15a72.142 72.142 0 0 1-26.455 48.944L29 79l-2.545-2.056A72.142 72.142 0 0 1 0 28l29-15z" fill="url(#b)" fill-rule="nonzero"/><path d="M29 79l2.545-2.056A72.142 72.142 0 0 0 58 28L29 13v66z" fill-opacity=".2" fill="#FFF" fill-rule="nonzero" opacity=".41"/><path fill-opacity=".8" fill="url(#c)" transform="rotate(-180 24.75 44)" d="M40.5 9.9l-20-.9L0 9.9 11.5 46l3 3h12l3-3z"/><path d="M16 9h8V5.721C24 3.62 22.324 2 20.08 2 17.813 2 16 3.711 16 5.793V9zm10 0a3 3 0 0 1 3 3v12a3 3 0 0 1-3 3H14a3 3 0 0 1-3-3V12a3 3 0 0 1 3-3V5.793C14 2.58 16.734 0 20.08 0 23.412 0 26 2.499 26 5.721V9z" fill="url(#d)" fill-rule="nonzero" transform="translate(9 30)"/><path d="M28 48.83a3.001 3.001 0 1 1 2 0V52a1 1 0 0 1-2 0v-3.17z" fill="#E5A500" fill-rule="nonzero"/><circle fill="#FFDF26" cx="18.4" cy="63.4" r="1"/><circle fill="#FFDF26" cx="35.4" cy="67.4" r="1"/><circle fill="#FFDF26" cx="27.4" cy="72.4" r="1"/><circle fill="#FFDF26" cx="31.4" cy="59.4" r="1"/></g></svg>
