<svg width="832" height="800" xmlns="http://www.w3.org/2000/svg" xmlns:xlink="http://www.w3.org/1999/xlink"><desc>Created with Sketch.</desc><defs><path id="a" d="M159.028 687.38l316.187-.346-.278 547.517z"/><path id="b" d="M65.608 250.637L344.227 733.22 637.74 248.21l350.357.225 66.226 114.708-59.693 120.08-184.287 296.604L480.938 970.01z"/><linearGradient x1="100%" y1="100%" x2="30.882%" y2="67.331%" id="d"><stop stop-color="#75DB4F" offset="0%"/><stop stop-color="#FFF" offset="100%"/></linearGradient><linearGradient x1="74.354%" y1="43.995%" x2="29.006%" y2="65.301%" id="e"><stop stop-color="#57FFFA" offset="0%"/><stop stop-color="#7EFFFB" offset="100%"/></linearGradient><linearGradient x1="27.977%" y1="75.451%" x2="72.002%" y2="24.494%" id="f"><stop stop-color="#A7FF81" offset="0%"/><stop stop-color="#19B650" offset="100%"/></linearGradient><linearGradient x1="99.228%" y1="50.008%" x2="1.663%" y2="50.008%" id="g"><stop stop-color="#7A54CE" offset="0%"/><stop stop-color="#5418B4" offset="100%"/></linearGradient><linearGradient x1="101.191%" y1="50.101%" x2="-.36%" y2="50.101%" id="h"><stop stop-color="#7A54CE" offset="0%"/><stop stop-color="#5418B4" offset="100%"/></linearGradient><linearGradient x1="100.116%" y1="50.11%" x2="-.001%" y2="50.11%" id="i"><stop stop-color="#7A54CE" offset="0%"/><stop stop-color="#5418B4" offset="100%"/></linearGradient><linearGradient x1="45.396%" y1="50.194%" x2="-54.622%" y2="53.269%" id="j"><stop stop-color="#134753" offset="0%"/><stop stop-color="#0B2C33" offset="100%"/></linearGradient><linearGradient x1="53.057%" y1="50.065%" x2="-46.922%" y2="49.956%" id="k"><stop stop-color="#134753" offset="0%"/><stop stop-color="#0B2C33" offset="100%"/></linearGradient><linearGradient x1="48.418%" y1="50.078%" x2="-51.524%" y2="51.106%" id="l"><stop stop-color="#134753" offset="0%"/><stop stop-color="#0B2C33" offset="100%"/></linearGradient><linearGradient x1="42.549%" y1="73.971%" x2="57.218%" y2="26.719%" id="m"><stop stop-color="#134753" offset="0%"/><stop stop-color="#0B2C33" offset="100%"/></linearGradient><linearGradient x1="50.02%" y1="96.619%" x2="50.02%" y2="1.009%" id="n"><stop stop-color="#1CB850" offset="0%"/><stop stop-color="#A7FF81" offset="100%"/></linearGradient><linearGradient x1="49.982%" y1="98.4%" x2="49.982%" y2="-.183%" id="o"><stop stop-color="#D2FFC7" offset="0%"/><stop stop-color="#5EDD63" offset="100%"/></linearGradient><linearGradient x1="49.978%" y1="96.62%" x2="49.978%" y2="1.009%" id="p"><stop stop-color="#1CB850" offset="0%"/><stop stop-color="#A7FF81" offset="100%"/></linearGradient><linearGradient x1="101.165%" y1="87.52%" x2=".72%" y2="13.973%" id="q"><stop stop-color="#1CB850" offset="0%"/><stop stop-color="#3BCC57" offset="100%"/></linearGradient><linearGradient x1=".125%" y1="50.107%" x2="100.013%" y2="50.107%" id="r"><stop stop-color="#1CB850" offset="0%"/><stop stop-color="#3BCC57" offset="100%"/></linearGradient><linearGradient x1="49.984%" y1="96.522%" x2="49.984%" y2=".912%" id="s"><stop stop-color="#1CB850" offset="0%"/><stop stop-color="#A7FF81" offset="100%"/></linearGradient><linearGradient x1="50.023%" y1="98.577%" x2="50.023%" y2="-.005%" id="t"><stop stop-color="#D2FFC7" offset="0%"/><stop stop-color="#5EDD63" offset="100%"/></linearGradient><linearGradient x1="50.009%" y1="96.523%" x2="50.009%" y2=".912%" id="u"><stop stop-color="#1CB850" offset="0%"/><stop stop-color="#A7FF81" offset="100%"/></linearGradient><linearGradient x1="101.231%" y1="87.371%" x2=".518%" y2="13.825%" id="v"><stop stop-color="#1CB850" offset="0%"/><stop stop-color="#3BCC57" offset="100%"/></linearGradient><linearGradient x1="-.079%" y1="49.958%" x2="100.076%" y2="49.958%" id="w"><stop stop-color="#1CB850" offset="0%"/><stop stop-color="#3BCC57" offset="100%"/></linearGradient><linearGradient x1="50.031%" y1="72.515%" x2="50.031%" y2="5.385%" id="x"><stop stop-color="#56D0FF" offset="0%"/><stop stop-color="#55E5FF" offset="100%"/></linearGradient><linearGradient x1="50.061%" y1="97.837%" x2="50.061%" y2="2.069%" id="y"><stop stop-color="#FFF" stop-opacity="0" offset="0%"/><stop stop-color="#6EFF3F" stop-opacity=".3" offset="49.96%"/><stop stop-color="#FFF" stop-opacity="0" offset="100%"/></linearGradient><linearGradient x1="49.961%" y1="97.876%" x2="49.961%" y2="2.069%" id="z"><stop stop-color="#6EFF3F" stop-opacity=".3" offset="0%"/><stop stop-color="#FFF" stop-opacity="0" offset="100%"/></linearGradient><linearGradient x1="49.881%" y1="97.83%" x2="49.881%" y2="2.106%" id="A"><stop stop-color="#6EFF3F" stop-opacity=".3" offset="0%"/><stop stop-color="#FFF" stop-opacity="0" offset="100%"/></linearGradient><linearGradient x1="20.579%" y1="84.024%" x2="79.403%" y2="15.997%" id="B"><stop stop-color="#A7FF81" offset="0%"/><stop stop-color="#19B650" offset="100%"/></linearGradient><linearGradient x1="25.119%" y1="67.269%" x2="73.476%" y2="33.175%" id="C"><stop stop-color="#B948BE" offset="0%"/><stop stop-color="#7D2D7B" offset="100%"/></linearGradient><linearGradient x1="34.728%" y1="75.179%" x2="64.631%" y2="24.401%" id="D"><stop stop-color="#B948BE" offset="0%"/><stop stop-color="#FF7576" offset="100%"/></linearGradient><linearGradient x1="-.047%" y1="49.858%" x2="100.156%" y2="49.858%" id="E"><stop stop-color="#0667CD" offset="0%"/><stop stop-color="#1954C1" offset="100%"/></linearGradient><linearGradient x1="0%" y1="49.996%" x2="100.035%" y2="49.996%" id="F"><stop stop-color="#0667CD" offset="0%"/><stop stop-color="#1954C1" offset="100%"/></linearGradient><linearGradient x1="82.634%" y1="18.047%" x2="27.098%" y2="85.606%" id="G"><stop stop-color="#842C84" offset="0%"/><stop stop-color="#FF7576" stop-opacity="0" offset="100%"/></linearGradient><linearGradient x1="50.012%" y1="8.355%" x2="50.012%" y2="96.256%" id="H"><stop stop-color="#731FDB" offset="0%"/><stop stop-color="#481D7B" offset="100%"/></linearGradient><linearGradient x1="48.86%" y1="53.66%" x2="48.86%" y2="54.04%" id="I"><stop stop-color="#731FDB" offset="0%"/><stop stop-color="#481D7B" offset="100%"/></linearGradient><linearGradient x1="20.068%" y1="72.359%" x2="52.757%" y2="6.951%" id="J"><stop stop-color="#56D0FF" offset="0%"/><stop stop-color="#55E5FF" offset="100%"/></linearGradient><linearGradient x1="42.334%" y1="72.409%" x2="52.284%" y2="5.615%" id="K"><stop stop-color="#56D0FF" offset="0%"/><stop stop-color="#55E5FF" offset="100%"/></linearGradient><linearGradient x1="50.4%" y1="5.052%" x2="50.4%" y2="94.672%" id="L"><stop stop-color="#151953" offset="0%"/><stop stop-color="#134753" offset="68.34%"/></linearGradient><linearGradient x1="49.998%" y1="96.473%" x2="49.998%" y2="1.084%" id="M"><stop stop-color="#1CB850" offset="0%"/><stop stop-color="#A7FF81" offset="100%"/></linearGradient><linearGradient x1="49.953%" y1="98.502%" x2="49.953%" y2="-.081%" id="N"><stop stop-color="#D2FFC7" offset="0%"/><stop stop-color="#5EDD63" offset="100%"/></linearGradient><linearGradient x1="50.023%" y1="96.474%" x2="50.023%" y2="1.084%" id="O"><stop stop-color="#1CB850" offset="0%"/><stop stop-color="#A7FF81" offset="100%"/></linearGradient><linearGradient x1="101.257%" y1="87.328%" x2=".545%" y2="14.042%" id="P"><stop stop-color="#1CB850" offset="0%"/><stop stop-color="#3BCC57" offset="100%"/></linearGradient><linearGradient x1="-.052%" y1="50.048%" x2="100.103%" y2="50.048%" id="Q"><stop stop-color="#11A03E" offset="0%"/><stop stop-color="#188040" offset="100%"/></linearGradient><linearGradient x1="49.995%" y1="97.844%" x2="49.995%" y2="2.037%" id="R"><stop stop-color="#6EFF3F" stop-opacity=".3" offset="0%"/><stop stop-color="#FFF" stop-opacity="0" offset="100%"/></linearGradient><linearGradient x1="50.121%" y1="94.323%" x2="50.121%" y2="1.689%" id="S"><stop stop-color="#707578" offset="0%"/><stop stop-color="#B1B9BE" offset="100%"/></linearGradient><linearGradient x1="50.011%" y1="100.099%" x2="50.011%" y2="3.453%" id="T"><stop stop-color="#FFF" stop-opacity=".7" offset="0%"/><stop stop-color="#A7FF81" stop-opacity=".6" offset="100%"/></linearGradient><linearGradient x1="50.065%" y1="95.091%" x2="50.065%" y2="8.544%" id="U"><stop stop-color="#B1B9BE" offset="0%"/><stop stop-color="#8E9398" offset="100%"/></linearGradient></defs><g transform="translate(-1 -161)" fill="none" fill-rule="evenodd"><use fill="#28B655" transform="rotate(-60 317.121 960.793)" xlink:href="#a"/><g transform="translate(0 103)"><mask id="c" fill="#fff"><use xlink:href="#b"/></mask><use fill="#75DB4F" transform="rotate(-60 559.966 609.11)" xlink:href="#b"/><path fill="#19B650" mask="url(#c)" d="M754.9 553.5L442 372.8 213.7 505.5l312.9 180.7 228.3-132.7"/><path d="M370.6 343.7l-1.4-.8-46.1 26.8c-4.3 2.5-4.2 6.5.1 9l201 116.1 1.4-.8-201-116.1c-3.5-2-3.5-5.3 0-7.4l46-26.8" fill="#FFF" mask="url(#c)"/><path d="M764.1 444.4l-117.4-67.8-1.4.8 117.4 67.8c3.5 2 3.5 5.3 0 7.4L563 568.7l1.4.8 199.7-116.1c4.3-2.5 4.3-6.5 0-9" fill="#155360" mask="url(#c)"/><path fill="#A7FF81" mask="url(#c)" d="M754.9 526.5L442 345.8 213.7 478.5l312.9 180.7 228.3-132.7"/><path d="M373.7 489.2V523" stroke="#FFF" stroke-width="2" mask="url(#c)"/><path fill="#D0D8DF" mask="url(#c)" d="M382.1 486.1l-37.2 21.6-78.7-46.7 37.2-21.6 71.7 42.5 7 .4z"/><path fill="#FFF" mask="url(#c)" d="M382.1 482.3l-37.2 21.6-78.7-46.7 37.2-21.6z"/></g><path fill="#28B655" d="M434.648 208.498l27.823-48.024L833 161v277.922z"/><g transform="translate(236 291)"><path d="M148 138.9L3.7 55.6l-1.4.8 144.3 83.3c3.5 2 3.5 5.3 0 7.4l-25 14.5 1.4.8 25-14.5c4.3-2.5 4.3-6.6 0-9M428.2 473.9l-1.4-.8-116.6 67.8c-3.5 2-9.2 2-12.7 0l-201-116.1-1.4.8 201 116.1c4.3 2.5 11.3 2.5 15.6 0l116.5-67.8" fill="#FFF"/><path d="M585.9 435.1l-39.4-22.7c-4.3-2.5-11.3-2.5-15.6 0l-26.3 15.3 1.4.8 26.3-15.3c3.5-2 9.2-2 12.7 0l39.4 22.7 1.5-.8" fill="url(#d)"/><path d="M356.4 142.2l-1.4-.8v8.7c0 4.9 3.5 11 7.8 13.5l58.7 33.9v-1.6L362.8 162c-3.5-2-6.4-7-6.4-11v-8.8M357.1 90l-1.4-.9-.1 21.3 1.4.8.1-21.2M337.1 75.9l-1.4-.8-.1 21.3 1.4.8.1-21.3M377.1 99l-1.4-.9-.1 21.3 1.4.8.1-21.2" fill="#155360"/><path d="M307.7 17.6l-7 4.1c4-2.3 9.5-2 15.6 1.5l7-4.1c-6.1-3.4-11.6-3.8-15.6-1.5z" fill="#FFF"/><path d="M59.2 9.5c15.4 8.9 28.6 27.3 34.1 45.9 2.5-.4 5.4.3 8.5 2.1 8.9 5.1 16 17.5 16 27.7 0 .8-.1 1.5-.1 2.2 6.2 7.2 10.5 17.1 10.5 25.6 0 12-8.6 16.9-19 10.9L22.1 73.6C10 66.6.2 49.7.3 35.8c0-13.9 9.9-19.5 22-12.5C25.8 5.4 41-1 59.2 9.5z" fill="url(#e)" transform="translate(294)"/><path d="M418.8 83.3c.1-.7.1-1.4.1-2.2 0-10.2-7.1-22.6-16-27.7-3.1-1.8-6.1-2.4-8.5-2.1l-3.5 2 3.5-2c-5.6-18.6-18.8-37-34.1-45.9-10.4-6-19.8-6.5-26.6-2.6l-7 4.1c6.8-4 16.2-3.4 26.6 2.6 15.4 8.9 28.6 27.3 34.1 45.9 2.5-.4 5.4.3 8.5 2.1 8.9 5.1 16 17.5 16 27.7 0 .8-.1 1.5-.1 2.2 6.2 7.2 10.5 17.1 10.5 25.6 0 6-2.1 10.2-5.5 12.2l7-4.1c3.4-2 5.5-6.2 5.5-12.2 0-8.5-4.3-18.4-10.5-25.6z" fill="#FFF"/><path d="M325.4 109.7L183.1 27.5l-.3 103.6 142.3 82.1.3-103.5" opacity=".5" fill="#A7FF81"/><path d="M339.4 101.7L197.1 19.5l-.3 103.6 142.3 82.1.3-103.5" opacity=".5" fill="#A7FF81"/><path fill="#155360" d="M308.4 116.7L166.1 34.5l-.3 103.6 142.3 82.1.3-103.5"/><path fill="url(#f)" opacity=".2" d="M202.1 372.1l-41.7 23.5 106.4 61.8 41.7-23.6z"/><path d="M35.88 57.589L33.032 42 48.1 36.309 72.083 34.5 106 39.93l-53.344 6.114V52.6h16.46l5.884 2 5.358-2L92 46.044h6.4L112 42V57.589L105.5 63 81.613 76.8c-3.218 21.6-5.99 32.4-8.313 32.4-2.324 0-6.47-10.8-12.438-32.4L35.88 57.589z" fill="#6B3BC4" fill-rule="nonzero"/><path fill="url(#g)" d="M82.3 24.7L41.4 48.4.3 24.7 41.2.9z" transform="translate(32 17)"/><path fill="#7546CD" d="M114.3 41.7l-.1 43.7-40.9 23.8.1-43.8z"/><path fill="#5418B4" d="M73.4 65.4l-.1 43.8-41.1-23.8.1-43.7z"/><path d="M4.51 85.462l-1.478-8.076 7.817-2.949 12.442-.937 17.596 2.813-27.674 3.168v3.396h8.54l3.052 1.036 2.78-1.036 6.04-3.396h3.32L44 77.386V85.46l-3.372 2.804-12.392 7.15c-1.67 11.19-3.108 16.785-4.313 16.785-1.206 0-3.357-5.595-6.453-16.786L4.51 85.462z" fill="#6B3BC4" fill-rule="nonzero"/><path fill="url(#h)" d="M48.1 13.8L24.4 27.6.5 13.8 24.2 0z" transform="translate(0 63)"/><path fill="#7546CD" d="M48.1 76.8l-.1 25.4L24.3 116l.1-25.4z"/><path fill="#5418B4" d="M24.4 90.6l-.1 25.4L.4 102.2l.1-25.4z"/><g fill="#00F8FF"><path d="M95.5 52.6l-16-9.2c-1-.6-2.6-.6-3.5 0-1 .6-1 1.5 0 2l16 9.2 3.5-2"/><path d="M95.4 52.6l-3.5 2 .1 18.3c0 1.1.8 1.6 1.8 1 1-.6 1.8-1.9 1.8-3.1l-.2-18.2"/></g><path fill="#7546CD" fill-rule="nonzero" d="M69.903 142.9L67 127.275l16.925-5.375 9.475 3.9 11.6 1.475L87 159z"/><path fill="url(#i)" d="M.9 11.2l19.3 11.2 19.3-11.2L20.3 0z" transform="translate(66 116)"/><path fill="#5418B4" d="M66.9 127.2l.1 20.6L86.2 159v-20.6z"/><path fill="#7546CD" d="M86.2 138.4V159l19.4-11.2-.1-20.6z"/><g fill="#00F8FF"><path d="M75.5 132.4l8.4-4.9c.5-.3 1.4-.3 1.9 0s.5.8 0 1.1l-8.4 4.9-1.9-1.1"/><path d="M75.6 132.4l1.9 1.1v9.7c0 .6-.4.8-.9.5-.5-.3-.9-1-.9-1.6l-.1-9.7"/></g><path fill="#10404A" fill-rule="nonzero" d="M204.962 369.788l3.038-12.06 27.96-12.243 5.96-24.113-2.445-13.701 2.446-11.512h14.741l58.498 16.02 73.494 16.137 1.469 3.345v8.921l-2.498 29.206-72.465 55.72-15.27-2.69-57.97-33.092z"/><path fill="#0B2C33" d="M308.5 433.9L202.1 372v-14.1l106.4 61.8z"/><path fill="url(#j)" d="M308.5 419.7l-106.4-61.8 11.7-6.8L320.2 413z"/><path fill="#0B2C33" d="M320.2 413l-106.4-61.9-.1-14.1 106.5 61.8z"/><path fill="url(#k)" d="M320.2 398.8L213.7 337l11.8-6.8 106.4 61.9z"/><path fill="url(#l)" d="M331.8 377.9l-106.4-61.8 11.7-6.8 106.5 61.9z"/><path fill="#0B2C33" d="M331.9 392.1l-106.4-61.9-.1-14.1 106.4 61.8z"/><path fill="url(#m)" d="M343.5 357.1l-106.4-61.9 50.4-29.1L393.9 328z"/><path fill="#0B2C33" d="M343.6 371.2l-106.5-61.9v-14.1l106.4 61.9z"/><path fill="#10404A" d="M393.9 328v14.1l.1 14.1v14.2l.1 14.1-85.6 49.4v-14.2l11.7-6.7v-14.2l11.7-6.7-.1-14.2 11.8-6.7-.1-14.1z"/><path fill="url(#n)" d="M75.6 89.4L38.4 111 .9 89.4l37.2-21.6z" transform="translate(380 148)"/><path fill="url(#o)" d="M57.1 16.4L28.9 32.8.5 16.4 28.7 0z" transform="translate(390 192)"/><path d="M447.1 208.4l-.1 24.4-28.2 16.4.1-24.4z" opacity=".42" fill="#A7FF81"/><path d="M418.9 224.8l-.1 24.4-28.4-16.4.1-24.4z" opacity=".42" fill="#CBFFB2"/><path fill="url(#p)" d="M75.6 22.4L38.4 44 1 22.4 38.2.8z" transform="translate(380 148)"/><path fill="#11A03E" d="M455.6 170.4v6.5l-37.2 21.6V192z"/><path fill="url(#q)" d="M38.4 44v6.5L.9 28.9l.1-6.5z" transform="translate(380 148)"/><path fill="#11A03E" d="M455.6 237.4v6.5l-37.2 21.6V259z"/><path fill="url(#r)" d="M38.4 111v6.5L.9 95.9l.1-6.5z" transform="translate(380 148)"/><path fill="#54FFFB" opacity=".42" d="M418.4 198.5V259L381 237.4l-.1-60.5z"/><path fill="#00DDD2" opacity=".42" d="M418.3 198.5V259l37.4-21.6v-60.5z"/><path fill="url(#s)" d="M75 89.5l-37.2 21.6L.4 89.5l37.2-21.6z" transform="translate(428 176)"/><path fill="url(#t)" d="M57.5 16.4L29.3 32.8.9 16.4 29.1 0z" transform="translate(437 220)"/><path d="M494.5 236.4v24.5l-28.3 16.4.1-24.5z" opacity=".42" fill="#A7FF81"/><path d="M466.3 252.8l-.1 24.5-28.4-16.4.1-24.5z" opacity=".42" fill="#CBFFB2"/><path fill="url(#u)" d="M75 22.5L37.8 44.1.4 22.5 37.6.9z" transform="translate(428 176)"/><path fill="#11A03E" d="M503 198.5v6.5l-37.2 21.6v-6.5z"/><path fill="url(#v)" d="M37.8 44.1v6.5L.4 29v-6.5z" transform="translate(428 176)"/><path fill="#11A03E" d="M503 265.5v6.5l-37.2 21.6v-6.5z"/><path fill="url(#w)" d="M37.8 111.1v6.5L.4 96v-6.5z" transform="translate(428 176)"/><path fill="#54FFFB" opacity=".42" d="M465.8 226.6v60.5l-37.4-21.6V205z"/><path fill="#54FFFB" opacity=".42" d="M465.7 226.6v60.5l37.4-21.6V205z"/><path fill="#11A03E" d="M480.5 198.5l-14.8 8.6-14.9-8.6 14.8-8.6zM433.1 170.4l-14.8 8.6-14.9-8.6 14.8-8.6z"/><path d="M294.2 181.9l-7 4.1c4.8-2.8 11.5-2.4 18.8 1.8l7-4.1c-7.3-4.2-14-4.6-18.8-1.8z" fill="#FFF"/><path d="M71.6 11.2c18.6 10.7 34.5 32.9 41.3 55.4 3-.4 6.5.3 10.3 2.5 10.7 6.2 19.4 21.2 19.3 33.5 0 .9-.1 1.8-.2 2.7 7.5 8.7 12.7 20.6 12.7 31 0 14.5-10.3 20.4-23 13.1L26.8 88.6C12.2 80.2.4 59.7.4 42.9c0-16.8 11.9-23.6 26.5-15.1C31.2 6.2 49.6-1.5 71.6 11.2z" fill="url(#x)" transform="translate(279 160)"/><path d="M428.4 261.2c.1-.9.2-1.7.2-2.7 0-12.3-8.6-27.3-19.3-33.5-3.8-2.2-7.3-3-10.3-2.5l-3.5 2 3.5-2c-6.7-22.5-22.7-44.7-41.3-55.4-12.5-7.2-23.9-7.9-32.1-3.1l-7 4.1c8.2-4.8 19.6-4.2 32.1 3.1 18.6 10.7 34.5 32.9 41.3 55.4 3-.4 6.5.3 10.3 2.5 10.7 6.2 19.4 21.2 19.3 33.5 0 .9-.1 1.8-.2 2.7 7.5 8.7 12.7 20.6 12.7 31 0 7.2-2.6 12.3-6.7 14.7l7-4.1c4.1-2.4 6.7-7.5 6.7-14.7 0-10.4-5.2-22.3-12.7-31z" fill="#FFF"/><g fill="#FFF" fill-rule="nonzero"><path d="M420.7 479.9c-22.4-12.9-22.5-34-.3-47 22.3-12.9 58.7-13 81.1 0 22.4 12.9 22.6 34 .3 47s-58.7 13-81.1 0m81.8-47.5c-23-13.3-60.3-13.3-83.1 0-22.8 13.3-22.7 34.9.3 48.1 23 13.3 60.3 13.3 83.1 0 22.8-13.3 22.7-34.8-.3-48.1" opacity=".5"/><path d="M420.7 489.9c-22.4-12.9-22.5-34-.3-47 22.3-12.9 58.7-13 81.1 0 22.4 12.9 22.6 34 .3 47s-58.7 13-81.1 0m81.8-47.5c-23-13.3-60.3-13.3-83.1 0-22.8 13.3-22.7 34.9.3 48.1 23 13.3 60.3 13.3 83.1 0 22.8-13.3 22.7-34.8-.3-48.1" opacity=".3"/><path d="M420.7 499.9c-22.4-12.9-22.5-34-.3-47 22.3-12.9 58.7-13 81.1 0 22.4 12.9 22.6 34 .3 47s-58.7 13-81.1 0m81.8-47.5c-23-13.3-60.3-13.3-83.1 0-22.8 13.3-22.7 34.9.3 48.1 23 13.3 60.3 13.3 83.1 0 22.8-13.3 22.7-34.8-.3-48.1" opacity=".2"/><path d="M420.7 469.9c-22.4-12.9-22.5-34-.3-47 22.3-12.9 58.7-13 81.1 0 22.4 12.9 22.6 34 .3 47s-58.7 13-81.1 0m81.8-47.5c-23-13.3-60.3-13.3-83.1 0-22.8 13.3-22.7 34.9.3 48.1 23 13.3 60.3 13.3 83.1 0 22.8-13.3 22.7-34.8-.3-48.1" opacity=".5"/><path d="M420.7 459.9c-22.4-12.9-22.5-34-.3-47 22.3-12.9 58.7-13 81.1 0 22.4 12.9 22.6 34 .3 47s-58.7 13-81.1 0m81.8-47.5c-23-13.3-60.3-13.3-83.1 0-22.8 13.3-22.7 34.9.3 48.1 23 13.3 60.3 13.3 83.1 0 22.8-13.3 22.7-34.8-.3-48.1" opacity=".5"/><path d="M420.7 449.9c-22.4-12.9-22.5-34-.3-47 22.3-12.9 58.7-13 81.1 0 22.4 12.9 22.6 34 .3 47s-58.7 13-81.1 0m81.8-47.5c-23-13.3-60.3-13.3-83.1 0-22.8 13.3-22.7 34.9.3 48.1 23 13.3 60.3 13.3 83.1 0 22.8-13.3 22.7-34.8-.3-48.1"/></g><path fill="url(#y)" d="M442.5 344.8h41.2v137.5h-41.2z"/><path fill="url(#z)" d="M486.7 128.4h-41.4l6 70.4 14.4 8.3 15-8.3z"/><path fill="url(#A)" d="M439 100.2h-41.4l6 70.4 14.7 8.4 14.7-8.4z"/><path d="M477.7 417.8c-8.1-4.7-21.2-4.7-29.2 0s-8 12.2.1 16.9c8.1 4.7 21.2 4.7 29.2 0 8-4.6 7.9-12.2-.1-16.9" fill="#1CB850"/><path d="M477.7 425.8c-8.1-4.7-21.2-4.7-29.2 0s-8 12.2.1 16.9c8.1 4.7 21.2 4.7 29.2 0 8-4.6 7.9-12.2-.1-16.9" opacity=".4" fill="#1CB850"/><path d="M477.7 432.8c-8.1-4.7-21.2-4.7-29.2 0s-8 12.2.1 16.9c8.1 4.7 21.2 4.7 29.2 0 8-4.6 7.9-12.2-.1-16.9" opacity=".3" fill="#1CB850"/><path d="M477.7 439.8c-8.1-4.7-21.2-4.7-29.2 0s-8 12.2.1 16.9c8.1 4.7 21.2 4.7 29.2 0 8-4.6 7.9-12.2-.1-16.9" opacity=".2" fill="#1CB850"/><path d="M236.2 191.7v-15" stroke="#155360" stroke-width="2"/><path fill="url(#B)" opacity=".2" d="M81.6 63.5l-81 47L47.1 137l81-47z" transform="translate(132 176)"/><path fill="url(#C)" d="M81.7 2.3l-.1 61.5 46.1 26.4.8-.5.2-60.4z" transform="translate(132 176)"/><path d="M255.6 207.6s5.1-7 5.1-2.2v8l-5.1-5.8z" fill="#7F2A7D"/><path d="M79.4 1.4L54.5 30.2l46.9 27.1L128 26.6 83.3.8c-1.3-.8-2.9-.5-3.9.6z" fill="url(#D)" transform="translate(132 176)"/><path d="M256.8 206.3s3.1-3.3 4-1.1v-1c0-.8-.4-1.5-1-1.8-.5-.3-1.2-.7-1.6-.9-1.2-.7-4.7-2.7-4.7-2.7l-2.3 3.6 5.6 3.9z" fill="#FF7473"/><path fill="#A639A9" d="M260.8 265.7l-.9.5v-61.7h.9z"/><path fill="#043365" d="M366.1 242.2l-35.5-20.6-.1 32.9L366 275l.1-32.8"/><path fill="url(#E)" opacity=".3" d="M366.7 275.3l-3.6 6.4-3.7-2.2z"/><path fill="url(#F)" opacity=".3" d="M329.1 243.6l-14 10.4 19 10.9v-8.2z"/><path d="M329.1 254.3v-15.8l29.1 16.8v15.8l-29.1-16.8zm4.7-4.3c-.7-.4-1.3-.1-1.3.7 0 .8.6 1.8 1.3 2.2.7.4 1.3.1 1.3-.7-.1-.9-.6-1.8-1.3-2.2zm0-4.9c-.7-.4-1.3-.1-1.3.7 0 .8.6 1.8 1.3 2.2.7.4 1.3.1 1.3-.7 0-.8-.6-1.8-1.3-2.2z" fill="#155360" fill-rule="nonzero"/><path d="M333.8 250c.7.4 1.3 1.4 1.3 2.2 0 .8-.6 1.1-1.3.7-.7-.4-1.3-1.4-1.3-2.2 0-.8.6-1.1 1.3-.7z" fill="#FA6286"/><path d="M333.8 245.1c.7.4 1.3 1.4 1.3 2.2 0 .8-.6 1.1-1.3.7-.7-.4-1.3-1.4-1.3-2.2 0-.8.6-1.1 1.3-.7z" fill="#5DFFFB"/><path fill="#FA6286" d="M358.2 254.6l-29.1-16.8v.7l29.1 16.8 6.4-3.7v-.8z"/><path fill="#155360" d="M358.2 255.3l6.4-3.7-.1 15.8-6.4 3.7z"/><path fill="#FA6286" d="M329.1 237.8l6.4-3.7 29.1 16.7-6.4 3.8z"/><path fill="#155360" d="M329.1 232.6l29.1 16.7v5.3l-29.1-16.8z"/><path fill="#038089" d="M329.1 232.6l10.6-5.8 24.9 14.4-2.3 5.9-4.1 2.2z"/><path fill="#155360" d="M358.2 249.3l6.4-3.7v5.2l-6.4 3.8z"/><path fill="#6BE3FF" d="M366.6 242l.1 33.3-29 16.7-.1-33.3z"/><path fill="#29CDE3" d="M337.7 292l-3.5-2-.1-33.3 3.5 2z"/><path fill="#D7FFFB" d="M337.6 258.7l-3.5-2 29-16.8 3.5 2.1z"/><path d="M345 270.9c-1.1.7-2.1 2.3-2.1 3.6 0 1.3.9 1.9 2.1 1.2 1.1-.7 2.1-2.3 2.1-3.6 0-1.3-1-1.9-2.1-1.2" fill="#155360"/><path d="M200 75.4l-39.3-22.7c-1.9-1.1-3.5-.2-3.5 2s1.6 4.9 3.5 6L200 83.4c1.9 1.1 3.5.2 3.5-2s-1.6-4.9-3.5-6" fill="#F9E100"/><path d="M233.8 94.9l-20.3-11.7c-1.9-1.1-3.5-.2-3.5 2s1.6 4.9 3.5 6l20.3 11.7c1.9 1.1 3.5.2 3.5-2s-1.6-4.9-3.5-6" fill="#FA6286"/><path d="M261 110.6l-13.9-8.1c-1.9-1.1-3.5-.2-3.5 2s1.6 4.9 3.5 6l13.9 8.1c1.9 1.1 3.5.2 3.5-2 0-2.1-1.6-4.8-3.5-6" fill="#FDAB00"/><path d="M187.3 83.4L160.7 68c-1.9-1.1-3.5-.2-3.5 2s1.6 4.9 3.5 6l26.6 15.4c1.9 1.1 3.5.2 3.5-2s-1.6-4.9-3.5-6" fill="#59FFFB"/><path d="M214.7 99.2l-13.9-8c-1.9-1.1-3.5-.2-3.5 2s1.6 4.9 3.5 6l13.9 8c1.9 1.1 3.5.2 3.5-2s-1.6-4.9-3.5-6M261 125.9l-33-19c-1.9-1.1-3.5-.2-3.5 2s1.5 4.9 3.5 6l33 19c1.9 1.1 3.5.2 3.5-2s-1.6-4.9-3.5-6M167 87l-6.3-3.7c-1.9-1.1-3.5-.2-3.5 2s1.6 4.9 3.5 6L167 95c1.9 1.1 3.5.2 3.5-2s-1.6-4.9-3.5-6M194.4 102.8l-13.9-8.1c-1.9-1.1-3.5-.2-3.5 2s1.6 4.9 3.5 6l13.9 8.1c1.9 1.1 3.5.2 3.5-2s-1.6-4.9-3.5-6" fill="#FDAB00"/><path d="M260.9 141.2l-53.2-30.7c-1.9-1.1-3.5-.2-3.5 2s1.6 4.9 3.5 6l53.2 30.7c1.9 1.1 3.5.2 3.5-2s-1.5-4.9-3.5-6" fill="#59FFFB"/><path d="M207.7 125.8l-47.1-27.2c-1.9-1.1-3.5-.2-3.5 2s1.6 4.9 3.5 6l47.1 27.2c1.9 1.1 3.5.2 3.5-2-.1-2.2-1.6-4.9-3.5-6" fill="#FA6286"/><path d="M260.9 156.5l-39.9-23c-1.9-1.1-3.5-.2-3.5 2s1.6 4.9 3.5 6l39.9 23.1c1.9 1.1 3.5.2 3.5-2 0-2.3-1.6-5-3.5-6.1" fill="#F9E100"/><path fill="url(#G)" opacity=".2" d="M220.6 191.6l-26 19.2 27.7 16.5 12.7-26.8z"/><path fill="#FFF" d="M220.6 191.6l.2 2.2-9.5 2.3.2 7.8-2.7.5-.4-9.9zM231.2 194.1l1.4 1.6-20.5 14-1.5-1.6zM234.5 199.3l.3 9.9-12.1 2.9-.3-2.2 9.6-2.2-.3-7.8z"/><g fill="#BB42C0"><path d="M211.8 197.2l9.5-2.2-.2-2.2-.5-1.2.2 2.2-9.5 2.3.2 7.8-2.7.5.5 1.2 2.8-.6zM232.6 195.7l-20.5 14-1.5-1.6.5 1.1 1.5 1.6 20.6-14zM235 200.5l-.5-1.2.3 9.9-12.1 2.9.5 1.2 12.1-2.9z"/></g><g><path d="M162.8 183.1l-.6 3.3s4.6 3 5.5 2.1c.9-.9.4-5.1.4-5.1s2 .9 2.9 0c.9-.9.3-7.1.3-7.1l-2.6-1.1-4 1.5-1.9 6.4zM197.5 206.1s1.7-2.8 2.2-3.3c.5-.5.3 1.4.5 1.7.2.3 2.2-1.9 3.4-2 .6-.1 3.5-.6 3.9 0 .4.6-1.6 2.2-2.5 3.4-1.7 2.5-5.2 4.5-5.2 4.5l-2.3-4.3z" fill="#FFC4A8"/><path d="M172.5 171.7l-.4 1.4c0-1.3-.3-2.5-.8-3-1.2-.9-6.1-2.3-5.6.1.5 2.3.9 1.4.1 2.6-.8 1.3-2.5 2.1-3.7 2.5-1 .4-.7.7-1.3 1.6-.6.9-.2 1.9-.1 3 .1.5.1 1.2.4 1.6 1.5 2.4 3.5 1.8 3.5 1.8l2.5-1.8s-1.7-1.2-1.3-2.2c.4-1 1.7-.4 1.9.1.2.5 1.9 1.2 1.9 1.2s.7-1.2.5-1.8c-.2-.6.3-2.5 1.3-2.5.1 0 .2-.1.3-.2.3-.2.6-.4.9-.7.5-.6.8-2.8-.1-3.7z" fill="#0B2C33"/><path fill="#FFF" d="M162.6 184.1h-.4l-.2.8 5.4 2.8h1.8l-.5-1.8zM162.2 264.4c.3-.3.6-.4.6-.4l-6.1-5.7s-2.7.4-2.4.8c.3.4 2.4 6 4.1 6.6.1.7.7 1.4 3.5.9.6-.1 1-.8.8-1.4l-.5-.8zM176.5 267.4l-5.2.3-3.6.5-.1 2.3h-.1c-.7.5-.7 1.4-.8 1.8-.1.4.8.5.8.5s3.5 0 6.6-.7c1.7-.4 2.8-1.8 3.5-3 .4-.9-.2-1.8-1.1-1.7z"/><path d="M155.8 212.7l.2 7.1 1 3.7 2.2 38.9s2.8 2 3.3 1.3 3.3-39 3.3-39 1.3 47.1 2.2 46.5c1-.6 2.7.1 2.8-1.7.1-1.8 4.6-54.8 4.6-54.8l-19.6-2z" fill="#0243A0"/><path d="M159.2 261.8s-.6.7-.5 1.2c.2.4 1 1.6 2.3 1.5 1.3-.1 2.1.1 2-.5-.1-.6 0-1.5 0-1.5s-2.9 1.1-3.8-.7zM167.6 268s-.3 2.6-.1 3c.2.4.4 0 1.7 0 1.3-.1 2.1.1 2-.5-.1-.6-.3-1.9-.3-1.9s-2.4 1.2-3.3-.6z" fill="#1D69C3"/><path d="M58.1 37.7s-12.1-.7-15-3.8c-2.9-3.1-4-8.1-5.5-10.1-1.6-2.1-8.9-4.1-8.9-4.1l-9.5-4s-2.2-.8-3.9 0c-1.7.8-6 3.7-7.1 5.5-2.7 4.3-4.1 5.4-5.6 8.6C.7 34 .1 35.7 2.4 39.9c2.3 4.2 13 5 13 5L14 42.3c-.4.5-.6.5-.2 1.3.1.2.2.3.3.5 0 .1.1.1.1.2.3.3.8.5 1.2.7 3.7 2 7.7 3.1 11.9 3.6 2.3.3 6 1 8.4-.2.3 0-.6.3-.6.3.3-.3.6-1 .8-1.4.1-.2.2-.3.3-.5l.1-.1c.4-.6.2-1.3-.2-1.8-.2-.3.5-.2.2-.3-.3-4.5-.8-8-.8-8s6.2 4.7 9.6 5.5c3.4.8 15.3.2 15.3.2l-2.3-4.6zM7.8 36.1c.2-.9.4-4.9 2.4-5.5 2-.6 3.9 10.7 3.9 10.7S7.5 37 7.8 36.1z" fill="url(#H)" fill-rule="nonzero" transform="translate(140 168)"/><path d="M175.5 204.4s-5.4-3.4-5.6-2.8c-.2.5-2.1 7 .8 7 2.8 0 4.8-4.2 4.8-4.2z" fill="#3A0D72"/><path fill="#043A7C" d="M165.7 224.8h-4.9l4.1 3.8z"/><path d="M150.9 198.6s.1-2.9 0-3.5c-.1-.6-2.8 4.5-1.9 4.5.9-.2 1.9-1 1.9-1z" fill="#3A0D72"/><path d="M197.1 205.8l.9 4.5s1.9.1 2.5-.2c.5-.3-2.3-4.5-2.3-4.5l-1.1.2z" fill="#FFF"/></g><path d="M293.4 227.4l-.6 2.7s3.7 2.6 4.5 1.9c.8-.7.5-4.1.5-4.1s1.6.8 2.4.1c.8-.7.4-5.8.4-5.8l-2.1-1-3.3 1.1-1.8 5.1z" fill="#FFC4A8"/><path fill="#FFF" d="M286.9 233h-.4l-.2.7 5.2 2.8h1.7l-.4-1.8z"/><path d="M304.2 264.6s-.1 0 0 0c-.1 0-.1 0 0 0z" fill="url(#I)"/><path d="M284.1 305.9s-.6 3.2-.5 4.1c.1.9-.1 1.6.8 2 .9.4 3.1-.3 3.7-.5l5.2-2.6s1-1.2-.8-1.1c-1.8.1-4.9.4-4.9.4v-1.6l-3.5-.7z" fill="#FFF"/><path d="M284 282l-.5 21.5c0 1.2.5 2.3 1.5 2.9l.4.3c1.2-.6 1.6.1 1.9-1.7l2.7-20.7-6-2.3z" fill="url(#J)"/><path d="M294.9 312.6s-.3 3.3-.1 4.1c.2.8.1 1.6 1 1.9.9.3 3-.6 3.6-.9.6-.3 4.9-3.1 4.9-3.1s.9-1.3-.9-1c-1.8.3-4.9.8-4.9.8l-.1-1.6-3.5-.2z" fill="#FFF"/><path d="M293.1 284.4l1.3 26.4c.1 1.1.6 2.2 1.4 2.9 2 1.7 3.1-.1 3.2-2.7l.4-25.7-6.3-.9z" fill="url(#K)"/><g fill="#155360"><path d="M336.3 117.7l-2.2-3.7 2.2-1.2 2.2 3.7-2.2 1.2m.7-6.1v.3l-1.4-.8v-.3l-3.5 2 4.2 7.2 3.5-2-.3-.2v-1.6l.3.2-2.8-4.8M349.7 110l-2.2-3.7 2.2-1.2 2.2 3.7-2.2 1.2m0-7.2l-3.5 2 .3.2v1.6l-.3-.2 2.6 4.6v-.3l1.4.8v.6l2.8-1.6-.2-.1v-.1l-.2-.1v-1.6l.6.3-3.5-6.1M349.5 125.3l-2.2-3.7 2.2-1.2 2.2 3.7-2.2 1.2m.7-6.1v.3l-1.4-.8v-.3L346 120l.5.3v1.6l-.5-.3 2.7 4.7v-.9l1.4.8v1l2.9-1.7-.5-.3v-1.6l.3.2-2.6-4.6M336.3 102.5l-2.2-3.7 2.2-1.2 2.2 3.7-2.2 1.2m.1-7.3l-4.2 2.4 3.4 6v-.6l1.4.8v.6l2.9-1.6-.5-.3v-1.6l.3.2-3.3-5.9" fill-rule="nonzero"/><path d="M337 103.8l-1.4-.8v8.1l1.4.9V103.8M346.6 120.3l-.5-.3-6.3-3.6-.3-.2v1.6l.3.2 6.2 3.6.6.3v-1.6M359.4 112.4l-6.3-3.7-.5-.3v1.7l.2.1v-1.5l6.5 3.7h.1M350.3 111.4l-1.5-.8v8.2l1.4.8v-.4l.1-7.2v-.6M350.2 126.3l-1.4-.9v.9l-.1 7 .9-.5.6 1v-7.5M363.4 134.8l-.7.4-.7-1.2v6.9l.6-.4.8 1.3v-7M346.5 104.9l-.3-.1-6.5-3.8-.3-.2v1.7l.5.3 6.3 3.6.3.2v-1.7"/><path d="M362.7 132.9l-2.2-3.7 2.2-1.2 2.2 3.7-2.2 1.2m.7-6v.3l-1.4-.8v-.3l-2.6 1.5.3.2v1.6l-.5-.3 2.9 4.9.7 1.2.7-.4 2.8-1.6-.3-.2v-1.6l.3.2-2.9-4.7M376.1 125.3l-2.2-3.7 2.2-1.2 2.2 3.7-2.2 1.2m0-7.3l-3.5 2 .3.2v1.6l-.3-.2 2.6 4.5v-.3l1.4.8v.6l3.6-2-4.1-7.2M375.9 140.5l-2.2-3.7 2.2-1.2 2.2 3.7-2.2 1.2m.7-6v.3l-1.4-.8v-.3l-2.8 1.6.5.3v1.6l-.5-.3 3.4 6 4.2-2.4-3.4-6M362.7 117.7l-2.2-3.7 2.2-1.2 2.2 3.7-2.2 1.2m.1-7.2l-3.4 1.9-.1.1.6.3v1.6l-.6-.3 2.7 4.8v-.6l1.4.8v.6l2.9-1.6-.5-.3v-1.6l.3.2-3.3-5.9" fill-rule="nonzero"/><path d="M363.5 119l-1.5-.8v8.2l1.4.8v-.3l.1-7.3v-.6M373 135.5l-.5-.3-6.3-3.6-.3-.2v1.7l.3.1 6.3 3.7.5.3v-1.7M359.7 127.7l-.3-.1-6.5-3.8-.3-.2v1.6l.5.4 6 3.4.6.4v-1.7"/><path d="M349.5 140.1l-2.2-3.7 2.2-1.2 2.2 3.7-2.2 1.2m.1-7.3l-.8.5-3.4 1.9 4.2 7.2 3.4-1.9-.2-.1v-1.6l.4.2-3-5.2-.6-1" fill-rule="nonzero"/><path d="M359.9 112.8l-.6-.4-6.5-3.7v1.6l.2.1 6.3 3.7.6.3v-1.6"/><path d="M362.6 147.8l-2.2-3.7 2.2-1.2 2.2 3.7-2.2 1.2m0-7.3l-.7.4-2.8 1.6.3.2v1.6l-.3-.2 3.4 6 4.2-2.4-3.4-5.9-.7-1.3" fill-rule="nonzero"/><path d="M376.7 126.7l-1.5-.9V134l1.4.8v-.3l.1-7.2v-.6M372.9 120.2l-.3-.2-6.5-3.8-.3-.1v1.6l.5.3 6.3 3.6.3.2v-1.6M359.5 142.6l-.3-.1-6.1-3.5-.4-.3v1.7l.2.1 6.3 3.6.3.2v-1.7"/></g><path d="M317.5 242.2l5.5-12.4-10.9-3.1-5.9 14 10 3.5s-.7-4.8.2-4.9c.9-.1 1.1 2.9 1.1 2.9z" fill="#FFF"/><path d="M306.6 233.3s.7-.1 1.2 0 .1-.4 0 0 .2-.3 1.1-.3c.9 0 1.6.6.9 1-.6.4-1.5 1.1-1.7 1.6-.2.5-2.4 2-2.7 1.3-.4-.7-.8-2.6-.2-2.8.5-.3 1.4-.8 1.4-.8z" fill="#FFC4A8"/><path d="M315.1 245.8s-1.8 9.6-4.7 6.3c-2.9-3.3-.3-12.9-1.8-15.1-1.6-2.2-9-4.5-9-4.5l-.7-.3 1.6-2.1-4.3-.8-1.1 1.2-5.1-2.4s-2.2-.9-4-.1c-1.8.8-5.3 10.9-5.4 14.8l.6 33.5c-.6.1.1 2.6.1 3.4 0 3.3.4 5.2.5 8.9.1 2.4 4.4 3.9 6.1 4.2 1.6.3 3.2 1 4.7 1.5 2 .7 5 .9 7 1.1 2.7.6 4.2-.4 5.2-.3l.4-40.3s3.8 5.8 7.3 5.1c3.6-.7 7.1-11.9 7.1-11.9l-4.5-2.2z" fill="#FFF"/><g fill="#6B09C9"><path d="M285.9 227.6s-.1 0 0 0c-.1 0 0 .2 0 0z"/><path d="M303.5 218.1c-.4-.3-1.1-.5-1.7-.5-.2-.5-.6-.9-1.2-1.1-.5-.2-.9-.2-1.3-.1v-.1c-.3-.5-.8-.9-1.3-1.1-.4-.1-.8-.1-1.1 0-.3-.2-.5-.4-.8-.5-.1-.1-.2-.3-.4-.4-.9-.5-1.8-.9-2.8-.7-.8.1-1.4.6-1.8 1.2-1.5-.1-1.8 3.5-2 4.1l-.4.3c-.6.1-.9.3-1.4.9-.5.7-.7 1.5-.5 2.2-.3.2-.6.4-.8.6-.6.7-1 1.3-.2 1.8 0 0 .2.4.5.8-.5.2-1 .5-1.1.9-.1.5.3.6.6.9l.1.1s-.9-.3-.4.4c-.6.4-.4 0-.3.7 0 .3 0 .3-.1.3-.3.5-.4 1.2-.2 1.8 0 .1.1.1.1.2-.1.1-.2.1-.3.2-.5.5-.6 1.2-.5 1.8.3 1.2 1.8 1.7 2.9 1.6.4 1.1 1.2 2 2.5 2 .5 0 1-.2 1.4-.6.9.5 2.1.6 3-.2.3-.3.5-.6.6-.9.8 0 1.3-.6 1.4-1.3.1-.8 0-1.5-.3-2.2v-.1l.1-.1c.5-.9.5-2.2-.2-3l-.2-1.8s-1.9-2.5-.5-2.4c1.4.2.7.4 1.7.5 1 .1 1.4-2.6 2.2-3 .7-.4 2.2 1.5 2.9 1.1.7-.3.6-1.5 1.7-2.1 1.1-.4.7-1.7.1-2.2z"/></g><path d="M315.8 246.1l.4-2.9s-.3-3.3.1-3.9c.4-.6.7-.2.8.8.1 1 .1 2 .4 2.2.4.1 1.4-3.9 1.4-3.9s.9.3.9.9c0 .6.1 2.6-.1 3.7s-.9 4.7-.9 4.7l-3-1.6z" fill="#FFC4A8"/><path d="M305.1 254.8s-3.8-4.6-4.3-3.7c-.5.9-1.7 9-.3 9.4 1.5.4 4.6-5.7 4.6-5.7z" fill="#D5E3E4"/><g><path d="M458.2 419.1l.9 3.1s.7.2 1.2 0c.6-.2.8-3.9.8-3.9l-2.9.8zM467.6 422.4l.9 3.1s.7.2 1.2 0 .8-3.9.8-3.9l-2.9.8z" fill="#FFC4A8"/><path d="M16.8 47.8c.9-1.6-1.6-3-2.4-1.4-5.1 9.4-4.4 21.2-4.8 31.5-.1 3.1 0 6 .5 8.8-.1.2-.2.5-.2.7 0 8.2 2.1 15.9 6.2 22.9.2.7.4 1.3.5 2 .2.9 1.1 1.1 1.8.9.7.2 1.5-.1 1.6-.9.9-6.1.5-12.3.3-18.5.6 5 1.3 10 2.4 14.8.6 2.4 1.6 7.2 4.2 8.3 2 .8 3.3-.4 4-2.1 1.6-3.7 1.6-9.4 2-13.4.5-5.5.7-11 .6-16.6-.3-11.2-2.6-22.3-2.4-33.5 0-1.8-2.8-1.8-2.8 0" fill="url(#L)" transform="translate(441 306)"/><path d="M469 318.2l-1.6 2.3s.3 2.2 5.6.6l2.8-1s-2.8-5.7-3.1-7.5c-.3-1.8-2.8-6.2-5.9-6 0 0-7.9.3-7.2 7.5.1 1 .1 1.9.1 2.7-.2 2.9 2.2 5.3 5.1 4.9h.3c5.7-.8 3.9-3.5 3.9-3.5z" fill="#0B2C33"/><path d="M470.3 314.4c-.3 0-.6.1-.9.2 0-.1.1-.3.1-.4 0-.6-.1-1.2-.3-1.7-.1-.1-.1-.3-.2-.4 0-.2-.1-.4-.3-.6-1-.9-3.1-1.6-4.4-.8-.4-.2-.9-.1-1.1.4-.9 1.8-1.3 3.7-1 5.7.2 1.4.6 3.3 2.1 3.9.2.1.3.1.5.1l-1.2 2.1 2.1 6.5 3.5-7.9-1.1-2.5c.3-.4.5-.9.8-1.2.4-.5.6-.4 1.2-.7.6-.4.6-.8.8-1.5.2-.7.1-1.3-.6-1.2z" fill="#FFC4A8"/><path d="M486.5 332.5c-1.8-6.2-9.8-8.4-14.9-10.9-.6-.3-2-.4-2.4 0-.5.1.3-.6 0 0-1.7 3-2.1 5.2-3.5 7.6-.2-.6 0-.2-.2-.7-.4-1.2-.3-1.9-.7-3.1-.1-.4-.5-2-.8-2.1-.4-.7-.8.2-.8.2-1.2 1.5-5.2 2.5-6.6 3.7-.6.4-.9 1-1.2 1.6-.2.5-.3.9-.8 1.3-.9.7-1.8-.1-2.1-1.1-.1-.3-.2-.5-.4-.7-.1-1-1.4-1.8-2.4-.9-4.8 4.2-9.3 10.7-7.7 17.4 1.3 5.5 6 5.7 10.2 3.8 2.9 4.7 9.4 7.3 14.3 8.7 6.4 1.7 11.5 1.1 14.8-5 2.8-5.4 7-13.5 5.2-19.8z" fill="#F06887"/><path d="M464.3 310.8s1.6 2.6 5.2 3.4c0 0-3.8-2.6-4-3.8-.1-1.1-1.2.4-1.2.4z" fill="#0B2C33"/><path fill="#FFF" d="M465.6 329.3l-6.3 3.2 4.6-9.2zM471.6 321.7v10.8l-6-3.2 3.5-7.6z"/><g fill="#0B2C33"><path d="M468.1 319.2s-1 4 5 2c6.1-2-5-2-5-2zM469.5 313.2c1.6.6.7-1.9.7-1.9l-3.7-1.5s1.4 2.8 3 3.4z"/></g><path d="M478.5 338.1l-2.3 5.8c-.9 2.2-3 3.6-5.3 3.6H468c-3 0 10.5-9.4 10.5-9.4z" fill="#CD4669"/><path d="M450 327.5l5.9-6.9s3.3-2.3 2.9-1.3c-.4 1-2.2 3-2.2 3s1.4 1.2 1.1 2c-.3.9-2.5 2.9-3.4 3.3-.9.3-2.9 1.4-2.9 1.4l-1.4-1.5zM452 348.5l2.8-2.6s-2.4-1.2-2.8 0c-.4 1.2 0 2.6 0 2.6z" fill="#FFC4A8"/><path d="M450 326.8s2-.5 2.3 2.2c.3 2.6-3.4-1.1-3.4-1.1l1.1-1.1zM452 348.5s2.2-2.8 2.8-2.6c.7.2.5.8 0 1.5s-2.4 2.8-2.4 2.8l-.6-1.2.2-.5zM453.3 425.5s-.4.7.1.8c.6.1 1.8.8 3.3 0 1.5-.8 1.8-1.7 2.2-1.9.4-.2 1.2-.4 1.6-.6.4-.2 1.4-.4 1.3-1.1 0-.3-.7-.9-1-.9-.3 0-1.4.7-1.4.7l-3.6 1.7-2.5 1.3z" fill="#FFF"/><path d="M457.2 420.5s2 .1 2 .7-.2.8-.2.8l1.4-.2.4-.5s.4 1 .3 1.2c-.1.2-1 1.2-1.9 1.5-1 .3-2.4 1.7-3.4 2-.9.3-2.2.3-2.5-.4-.2-.5 3.2-3.2 3.5-3.5.2-.4.4-1.6.4-1.6z" fill="#0B2C33"/><path d="M470.3 425.5s1.4 0 1.2.6c-.2.6-2.2 4.8-2.9 5.4-.7.6-2 .6-2.2.2-.2-.4.4-1.1.4-1.1l3.5-5.1z" fill="#FFF"/><path d="M466.7 424.4s2.2-.3 2.4 0c.2.3.6 1.1.6 1.1s.5-.7.4-.6c0 .1.4 1 .4 1.3 0 .3-1.4 4.5-2.6 4.9-1.2.4-1.7-.2-1.4-1 .3-.8.3-2.4.4-3.3.1-.9-.2-2.4-.2-2.4z" fill="#0B2C33"/><path d="M457.6 367l3.5 1.7V385s-5.3-12.3-3.5-18z" fill="#0A1F2E"/></g><path fill="#91F874" d="M418.2 161.8l-14.8 8.6 5.6 3.2 9.1-5.3 9.3 5.4 5.7-3.3zM465.7 189.9l-14.7 8.6 5.6 3.3 9.1-5.3 9.3 5.3 5.7-3.3z"/><g><path d="M127.1 424.4l-1.4-.8L25.2 482c-4.3 2.5-4.3 6.5.1 9l117.4 67.8 1.4-.8-117.4-67.8c-3.5-2-3.5-5.3 0-7.4l100.4-58.4" fill="#FFF"/><path fill="url(#M)" d="M75 88.9l-37.2 21.7L.4 88.9l37.2-21.6z" transform="translate(93 452)"/><path fill="url(#N)" d="M57.6 16.9L29.3 33.3.9 16.9 29.1.5z" transform="translate(102 495)"/><path d="M159.6 511.9l-.1 24.5-28.3 16.4.1-24.5z" opacity=".42" fill="#A7FF81"/><path d="M131.3 528.3l-.1 24.5-28.4-16.4.1-24.5z" opacity=".42" fill="#CBFFB2"/><path fill="url(#O)" d="M75 21.9L37.8 43.6.4 21.9 37.6.3z" transform="translate(93 452)"/><path fill="#11A03E" d="M168 473.9v6.6l-37.2 21.6v-6.5z"/><path fill="url(#P)" d="M37.8 43.6v6.5L.4 28.5v-6.6z" transform="translate(93 452)"/><path fill="#11A03E" d="M168 540.9v6.6l-37.2 21.6v-6.5z"/><path fill="url(#Q)" d="M37.8 110.6v6.5L.4 95.5v-6.6z" transform="translate(93 452)"/><path fill="#54FFFB" opacity=".42" d="M130.8 502.1v60.5l-37.4-21.7v-60.4z"/><path fill="#54FFFB" opacity=".42" d="M130.7 502.1v60.5l37.4-21.7.1-60.4z"/><path fill="url(#R)" d="M130.7.9H89.3l6 70.3 14.4 8.4 15-8.4z" transform="translate(21 403)"/><path fill="#91F874" d="M130.7 465.4L116 474l5.6 3.2 9.1-5.3 9.3 5.4 5.7-3.3z"/></g><path fill="#FFF" opacity=".5" d="M461.7 323l-59.2-34.1-.1 53 59.2 34.2.1-53.1"/><g><path d="M200.4 311.8l2.1 11.8c.1.5 0 1.1-.3 1.6-.8 1.3-2.5 3.8-4.5 4.4-2 .6-3.6 1.3-4.5 2.1-.9.8-3.8 3.3-3.8 3.3s-.9-2.5-.2-3.8c.7-1.3 3.2-2.6 3.2-2.6s3.2-1.8 2.9-4.4c-.3-2.6-3.3-9.9-3.3-9.9l8.4-2.5zM187.4 380.5s-.4 1.7-.1 2.1c.3.4 2.8.5 2.8.5v-2.6h-2.7zM178.5 374.9s-.1 2.3.3 2.7c.4.4 1.7.3 1.7.3v-2.6l-2-.4z" fill="#FFC4A8"/><path d="M175.6 320.4s-1.8 18.7-.9 27.1c.9 8.5 3.2 26.9 3.2 26.9s1.4 1.8 3.1 1.3c1.7-.5.3-40.7.3-40.7l5.5 45.5s2.8 1.4 3.6 0c.5-.9.4-27-.1-42.7-.2-7.2-.9-13.3-.9-13.3l-13.8-4.1z" fill="#0C353E"/><path d="M189.5 322.6v1.9c-7-.2-13.8-4.1-13.8-4.1V318" fill="#7499CA"/><path d="M178 289.1s-6-3.2-7.5-.9c-1.6 2.3-4 2.2-3.6 8.2.3 6.1 4 7.3 4 7.3s3.5 11.4 3.3 12.8c-.2 1.4.3.4 1.6 1.6 1.2 1.2 13.3 5 14.4 4.9l1-.2 1-8.6 8.4-2.4s0-10.2-3.5-13.3c-3.5-3.1-11.4-6.9-11.4-6.9l-7.7-2.5z" fill="#0243A0"/><path d="M180.3 286.6s-.8-.7-1.1-.7c-.4 0-1.1.7-.6 1.4.5.7 1.1.9 1.1.9s-.8 2.6-.7 2.9c0 .3.1 4.8 2.2 4.6 2.1-.1 2.1-3.2 2.6-3.4.5-.2 1.8-.3 2.4-.7.6-.4 2-4.4 2-5.6 0-1.2-.1-3.8-.3-4.2-.2-.4-6.2 2.9-6.2 2.9l-1.4 1.9z" fill="#FFC4A8"/><path d="M182.4 285.6s-.1 1.6-.8 2.1c-.8.5-1.4-1.1-1.8-1.5-.4-.4-1.6-2.4-.9-3.5.3-.5.2-1.8 1.1-2.6 1.2-1.1 3.4-1.6 5-1.2 2.7.6 5.4.4 4.4 2s-3.4 3.5-4.7 3.7c-1.4 0-2.3 1-2.3 1z" fill="#3A0D72"/><path d="M166.8 296.4s-3 3.9-3.9 3.9c-.9 0-3.4-4.2-4.4-6.9-.8-2.3-1.8-9.4-1.8-9.4l1.4-6.3s-1.2-.2-1.7 1.7-3.1-4.1-3-4.9c.1-.9-1.6-1.6-1.7-.7-.1 1-1.6 3.9-.3 6.5s2.5 6 2.5 6-2.3 13.7 3.9 19c6.2 5.3 13.1-1.5 13.1-1.5l-4.1-7.4z" fill="#FFC4A8"/><path fill="#072D5A" d="M170.8 303.7l.8-6.7-3.2 2.4z"/><path d="M187.9 282.5l2.4-.7s-1.1 2.3-4.1 2c-3-.3-1.4-1.4-1.4-1.4l3.1.1z" fill="#3A0D72"/><path fill="#0243A0" d="M185.5 321.7v2.3l.9.2v-2.5z"/><path d="M178.4 319.3s-.4 2.2-.1 2.4c.3.1 2.4.9 2.4.9l.6-2.3-2.9-1z" fill="#FFF"/><path d="M176.9 376.3s2.2-.2 2.4.2c.2.3-.2 1.4.3 1.5.5.1.6-.8 1-.8s.6 1.4.6 1.7v1c0 .4-.2.7-.6.9l-1.6.8s-1.2.6-1.8 1.7c-.6 1-3.9 2.2-4.7 1.7-.8-.5-.6-3.6 1.5-5 2.2-1.4 2.9-3.7 2.9-3.7zM190 383.2c-.6-.1-.9-.7-1.4-1-.5-.4-2-.8-2-.8-.9-.2-.7 1.8-.6 2.3.1.5-1.1 2.4-2 3.8-.9 1.4-.1 3.3.4 3.9.6.5 2.2-.5 3.4-1.3 1.2-.8 2.5-5.5 2.4-6.2 0-.8.5-.6-.2-.7z" fill="#0B2C33"/></g><path d="M192 314.4l-1.7-5.5s-3 .7-2.2 2.2c.8 1.5 3.9 3.3 3.9 3.3z" fill="#072D5A"/><g><path d="M129.3 285v7.3c0 .7-.5 1.5-1.4 2-1.9 1.1-5 1.1-7 0-1-.6-1.5-1.3-1.5-2V285c0 .7.5 1.5 1.5 2 1.9 1.1 5 1.1 7 0 1-.6 1.4-1.3 1.4-2z" fill="#B1B9BE"/><path d="M8.9 1c1.9 1.1 1.9 2.9 0 4s-5 1.1-7 0C0 3.9 0 2.1 1.9 1 3.8-.2 7-.2 8.9 1z" fill="url(#S)" transform="translate(119 282)"/></g><path d="M128.7 288.2s1.7.2 1.9.8c.2.6.3 3.2-.3 3.4-.6.2-2 .1-2.5 0s-.4-.8 0-.8 1.5.2 1.9-.1c.4-.3.2-1.4.1-1.8-.2-.4-1.4-.8-1.4-.8l.3-.7z" fill="#74797C"/><path d="M124.4 287.8c-.3 0-.6-.3-.7-.8-.7-2.4-2.7-9.6-2.8-11.5-.2-4 .7-6 .2-9.5-.9-5.5-3.3-1-3.7-6.1-.5-5.1-1.8-14.4 1.2-17.4 3-3 2.5-5.7 3.1-8.4.8-3.7 6.4-3 7.9 1.3s3.4 9 2.1 13.9c-1.2 4.9-1.7 6.9-1 10.6.7 3.7 1.7 6.5.5 9.6-1.2 3.1-2.5 4.3-3.2 6-.6 1.3-2.3 8.8-2.9 11.4-.1.5-.4.9-.7.9z" fill="url(#T)"/><g><path d="M216.3 392.6s-1 2.6 0 3.2c1 .6 2 .5 2 .5l.6-2.8-2.6-.9zM227 396.9s-1 2.6 0 3.2c1 .6 2 .5 2 .5l.6-2.8-2.6-.9z" fill="#0B2C33"/><path d="M212.7 349.6l2.5 42s4.2 4.1 4.6 2.2c.6-2.2 1.2-39 2.1-38.4.9.6 3.5 40.7 3.5 40.7s4.5 3.5 5.6 2.4c1.1-1 .2-43.4.2-43.4l-5.5-10.7-9.7-2.2-3.3 7.4z" fill="#888F92"/><path d="M7.2 9.7S3.7 7.8 2 13.5C.3 19.2.4 35.7.8 37.4c.3 1.7 1.2 5.7 2.9 5.7s.9 13.5.9 13.5 7.2 3.4 7.6 2.5c.4-.9.7-6.2.7-6.2l1.2 6.6s6.4 2.6 9.2 2.6c2.8 0 2.9-1 2.9-1V50.6s3.8.3 5.2-1.8c1.4-2.1.7-17.1 0-19.9-.7-2.8 2-5.8-6.9-10.2-6.7-3.3-17.3-9-17.3-9z" fill="url(#U)" transform="translate(208 293)"/><path d="M220.7 295.4s-3.2 6.1-1.9 7.7c1.3 1.6 2.4 6.7 4.5 6.9 2.1.3 2.9-4.7 2.9-4.7s-.1-2 1.5-1.5 3.3-3.9.9-3.6c-2.4.3-4.1-4.8-4.1-4.8h-3.8z" fill="#846256"/><path d="M220.7 295.4s-.8-1.6 1.1-1.6c1.9 0 4.8-.6 5.8 1.1 1.1 1.7 4 3.7 2 5.5-2 1.8-3 2.4-3 2.4l-.4-1s.4-1 .4-1.4c0-.6-1.3-4.5-5.9-5z" fill="#0B2C33"/><path fill="#DBDFE1" d="M219.1 312.3l2 7.2 1.2-8.5zM225.5 315.3l-2.2-3.9v8z"/><path fill="#0B2C33" d="M223.3 311.4l-1-.4-1.2 8.5.9 3.3 1.3-3.4z"/><path fill="#888F92" d="M234.2 343.6v-19.8l3.1 3.5-1.5 4.8v11.5zM212.5 337.4l1.5-22.2s-2.8 9.2-2.6 11.1c.1 2 1.1 11.1 1.1 11.1zM227.6 309.1l1.8 1s-.8 6.3-1.8 7.3-3.7 7.3-3.7 7.3l-2.2 3.3.3-5.2 5.6-13.7zM220 305.5s-2.7 4.8-2.7 5.5c0 .8 4.3 17 4.3 17l.3-5.2-2.9-9.4v-1.1l1.4-5.8-.4-1z"/><path fill="#FFF" d="M220.5 306.5l-2.1 6.1 3.9-1.6zM225.8 307.9l2.1 1.1-2.2 6.9-2.8-4.9zM226.4 326.4l4.1 1.6-1.1-4.2z"/><path d="M210.2 400s.6-.9 1.7-1.7c.7-.5 3-3.1 3.4-3.3.4-.3 1.8 0 1.9.4.1.4.9 1.1.9 1.1.4 1.4-.9 1.3-.9 1.3s-2.4 1.6-2.7 2.2c-.4.6-3.5 1.8-4.5 1.6-.9-.1.2-1.6.2-1.6zM226.8 399.5s-.8 4.3-.7 4.7c.1.4.6 1 1 2.5.4 1.4 1.2 2 2 1.9.7-.1 1.2-2.2 1.3-3.2.1-1-1.2-4-1.2-4s-.4-2.7-2.4-1.9z" fill="#846256"/></g><path d="M156.8 284s-1.3 1.9-3 2.2l-.2 1.6s3.8.4 3.7-.4c-.1-.9-.5-3.4-.5-3.4z" fill="#072D5A"/><g><path fill="#70DC44" d="M370.1 302.3l-16.2 9.5-21.4-12.4 16.2-9.4z"/><path fill="#A7FF81" d="M370.1 302.3l-.1 27.8-16.2 9.5.1-27.8z"/><path fill="#1CB850" d="M354.046 311.595L353.8 339.6l-21.4-12.4.1-27.8z"/></g><path fill="#70DC44" d="M343.9 320.7l8-4.8-.1 8.3-8 4.8z"/><path fill="#19A042" d="M326.4 310.7l8-4.8 17.5 10-8 4.8z"/><path fill="#1CB850" d="M343.9 320.7l-.1 8.3-17.4-10.1v-8.2z"/><path fill="#70DC44" d="M326.5 310.7l8-4.8-.1 8.3-.9.5z"/><path d="M342.1 296.8l8.1-3.3s7.7 4.8 9.2 5c1.5.2 2.6 0 2.6 0l-8.5 5.6-11.4-7.3z" fill="#FFF"/><circle fill="#F5FFF1" cx="411.9" cy="156.2" r="1"/><circle fill="#CDFFB4" cx="413.9" cy="146.2" r="1"/><circle fill="#F5FFF1" cx="415.9" cy="174.2" r="1"/><circle fill="#F5FFF1" cx="425.9" cy="163.2" r="1"/><circle fill="#CDFFB4" cx="420.9" cy="153.2" r="1"/><circle fill="#CDFFB4" cx="424.9" cy="140.2" r="1"/><g transform="translate(459 165)"><circle fill="#F1FFEB" cx=".9" cy="17.2" r="1"/><circle fill="#CDFFB4" cx="2.9" cy="7.2" r="1"/><circle fill="#F1FFEB" cx="4.9" cy="35.2" r="1"/><circle fill="#CDFFB4" cx="14.9" cy="24.2" r="1"/><circle fill="#CDFFB4" cx="9.9" cy="14.2" r="1"/><circle fill="#F1FFEB" cx="6.9" cy="22.2" r="1"/><circle fill="#CDFFB4" cx="13.9" cy="1.2" r="1"/></g><g transform="translate(446 387)" fill="#CDFFB4"><circle cx="5.1" cy="25.4" r="1"/><circle cx="1.9" cy="12.1" r="1"/><circle cx=".9" cy="20" r="1"/><circle cx="34" cy="23.6" r="1"/><circle cx="29" cy="13.6" r="1"/><circle cx="29.6" cy="25.4" r="1"/><circle cx="33" cy=".6" r="1"/></g><circle fill="#CDFFB4" cx="125.8" cy="454.6" r="1"/><circle fill="#CDFFB4" cx="127.8" cy="444.6" r="1"/><circle fill="#CDFFB4" cx="130.7" cy="474.5" r="1"/><circle fill="#CDFFB4" cx="139.8" cy="461.6" r="1"/><circle fill="#CDFFB4" cx="123.7" cy="465.4" r="1"/><circle fill="#CDFFB4" cx="134.8" cy="451.6" r="1"/><circle fill="#CDFFB4" cx="131.8" cy="459.6" r="1"/><circle fill="#CDFFB4" cx="138.8" cy="438.6" r="1"/></g></g></svg>
