<svg width="437" height="266" xmlns="http://www.w3.org/2000/svg"><desc>Created with Sketch.</desc><defs><linearGradient x1="52.166%" y1="107.586%" x2="43.673%" y2="9.187%" id="a"><stop stop-color="#0C2039" offset="0%"/><stop stop-color="#193153" offset="76.28%"/></linearGradient><linearGradient x1="57.311%" y1="4.692%" x2="31.032%" y2="94.745%" id="b"><stop stop-color="#2E284F" offset="57.37%"/><stop stop-color="#76274E" offset="99.94%"/></linearGradient><linearGradient x1="56.349%" y1="8.863%" x2="44.647%" y2="89.486%" id="c"><stop stop-color="#4B273B" offset="0%"/><stop stop-color="#723D5A" offset="100%"/></linearGradient><linearGradient x1="61.18%" y1="96.095%" x2="46.491%" y2=".374%" id="d"><stop stop-color="#D43A37" offset="0%"/><stop stop-color="#FF726D" offset="100%"/></linearGradient><linearGradient x1="-.027%" y1="50.028%" x2="99.915%" y2="50.028%" id="e"><stop stop-color="#4B273B" offset="0%"/><stop stop-color="#723D5A" offset="100%"/></linearGradient><linearGradient x1="34.312%" y1="108.523%" x2="71.228%" y2="12.292%" id="f"><stop stop-color="#D43A37" offset="0%"/><stop stop-color="#FF726D" offset="100%"/></linearGradient><linearGradient x1=".091%" y1="50.107%" x2="99.94%" y2="50.107%" id="g"><stop stop-color="#2E284F" offset="0%"/><stop stop-color="#2F284F" offset="49.67%"/><stop stop-color="#5E284F" offset="99.94%"/></linearGradient><linearGradient x1="83.414%" y1="-28.604%" x2="25.976%" y2="82.799%" id="h"><stop stop-color="#D63831" offset="0%"/><stop stop-color="#E74F47" offset="100%"/></linearGradient><linearGradient x1="99.204%" y1="13.928%" x2="8.735%" y2="55.784%" id="i"><stop stop-color="#FA8C5C" offset="0%"/><stop stop-color="#FA8C5C" stop-opacity="0" offset="100%"/></linearGradient><linearGradient x1="5.956%" y1="36.679%" x2="94.106%" y2="51.468%" id="j"><stop stop-color="#BE5259" offset="0%"/><stop stop-color="#FF9F77" stop-opacity="0" offset="99.82%"/></linearGradient><linearGradient x1="52.622%" y1="10.455%" x2="45.682%" y2="96.778%" id="k"><stop stop-color="#0C2039" offset="0%"/><stop stop-color="#193153" stop-opacity="0" offset="100%"/></linearGradient><linearGradient x1="72.031%" y1="36.824%" x2="-16.94%" y2="122.904%" id="l"><stop stop-color="#FA8C5C" offset="0%"/><stop stop-color="#FA8C5C" stop-opacity="0" offset="100%"/></linearGradient><linearGradient x1="27.631%" y1="40.326%" x2="116.662%" y2="126.314%" id="m"><stop stop-color="#DC7464" offset="0%"/><stop stop-color="#FA8C5C" stop-opacity="0" offset="100%"/></linearGradient></defs><g fill="none" fill-rule="evenodd"><path fill="#00B94A" d="M43.4 150.3l-36 65.4 67.1.3-7.8-64.1z"/><path fill="#9FFF72" d="M182 248.7l39.9-171.9L37.9 46 0 171.2z"/><path d="M166.9 66.9c-.5-3.2-.7-6.5-2.1-9.2-.5-1-1.1-1.9-2-2.7-5-4.6-12.5-5.1-18.1-1.2-5.2 3.6-6.8 9.5-5.8 15-1-.5-2.1-.9-3.4-1.2-.3-.1-.5 0-.8.1-.5 0-1 .2-1.6.6-.3.2-.4.6-.3.9.8 2.1 2 3.9 4.1 5.2 1.8 1.2 3 2.1 3.5 4.2.3 1.3.1 1.7.1 3.2 0 .5-.9 2.5-.9 3 .6 12.5 12.9 33.3 12.9 33.3l-.4-20.5c-.2-1.9.2-3.8 1.1-5.4 1.5-2.5 3.6-5.6 5-6.7 2-1.5 4.1-1.9 6.4-2.9 2.9-1.3 2.5-3.8 2.7-6.5.4-2.9.1-6-.4-9.2z" fill="#FFC3A5"/><path d="M401.4 240.1l-4.7-21.5c-5.4-35-23.9-108.5-23.9-108.5l-35.5-26.4-13.7 3.1s-30.7 13-33.9 33.7c-3.1 20.7-.7 46.3-6.1 55-5.3 8.7-10.1 3-10.1 3l-2.8 13.4s11.4 2.6 21.4 2.1c4.7-.2 9.6-1.2 12.9-1.8-3.9 20.7-12.9 50.2-12.9 50.2l29.3.5 10.5-22.3 14.1 22.7s10.2.6 21.6.3c4.7 0 9.4-.3 14.1-.9l19.7-2.6z" fill="url(#a)"/><path d="M302.6 63.2c-.1-3.3.4-12.7 1.3-15.7.3-1.1-.4-.1.3-1.1 4.2-5.5 11.9-3.4 18.3-.6 5.9 2.6 8.6 8.3 8.6 14.1 1-.7 2-1.3 3.2-1.8.2-.1.5-.1.8-.1.5-.1 1.1 0 1.7.3.3.1.5.6.5.9-.4 2.3-1.3 4.3-3.1 6-1.6 1.6-2.7 2.7-2.8 4.9-.1 1.4.2 1.8.5 3.2.1.5 1.4 2.3 1.5 2.9 1.7 12.7-6.8 36-6.8 36l-3.4-20.7c-.2-1.9-.9-3.8-2.2-5.2-1.9-2.3-4.7-5-6.3-5.8-2.3-1.2-2.6-.8-5.1-1.4-3.2-.7-4.7-3.4-5.5-6.1-.8-3-1.5-6.5-1.5-9.8z" fill="#FF9F77"/><path d="M133.6 44.8S118 25.9 106.8 34c-11.2 8.1-12 17.5-7.2 34.9 4.7 17.4 1.8 14.7.8 15.7s16.2-.1 22.7-7.6c6.5-7.6 10.5-32.2 10.5-32.2z" fill="url(#b)"/><path d="M130 46.3s-4.4-.5-5.1 2.5c-.7 3 1.4 4 2.5 4.1 1.1-.1 2.6-6.6 2.6-6.6z" fill="#FF726D"/><path d="M149.1 212.8l-8.6 16.3c-18.4 19.7-43.6 32.3-70.9 35.6l-9.5 1.1 45.9-96.7 59-2.3-10.7 74.6-5.2-28.6z" fill="url(#c)"/><path d="M223 132c.4.6-.7 1.7-18.9 12.5-20.3 12.1-31.3-6.4-31.3-6.4l-.1.3c-.7-18-1.1-31.8-1.1-31.8-2-10.6-12.7-20.8-12.7-20.8l-10.2 8.5s9 56.3 12.2 89c.9 8.8-1.7 23.9-1.3 26.2 1.6 10.7 20.8 17.7 18.1 13-1.3-2.3-2.7-29.4-3.9-56.9 4.5 2.8 11.1 4.4 20.7 1.9 23.5-6.3 35.2-27.8 35.2-27.8L223 132z" fill="url(#d)"/><path d="M169.8 88.7l-14.7-.2-6.1 5.2-9.3-8.8c3.2 25.8 10.8 30 10.8 30l4 8.9 2.4-16.1 3.2-3.6-4.2-4 13.9-11.4z" fill="url(#e)"/><path d="M229 174.9l-.2 10s-17.2 5.3-54.2 1.4c-11.8-1.2-17.3-6.7-33.3-8.6 0 0-11.3 45.8-68.2 71.6-28.6 12.9-32.9-9.6-30.2-35.2 2.1-20.1 28.9-36 38.6-53.6 9.6-17.6 2-36.7 18-49.7 11.1-9 24.5-18.1 40.1-25.9 0 0 .3 2 1.3 5.5 9.6 36.4 38.2 66.5 75.4 77.4l12.7 7.1z" fill="url(#f)"/><path d="M158 46.4s-9-6.5-17.8-5.2c-7.9 1.2-15.4 8.1-15.5 16.6-.1 8.8.8 14.8 15.8 20.8-.5-2.2-1.7-3-3.5-4.2-2-1.3-3.3-3.1-4.1-5.2-.1-.3 0-.7.3-.9.5-.4 1-.6 1.6-.6.2-.1.5-.1.8-.1.1 0 .2 0 .2.1 1.2.3 2.3 1.2 2.8 2.3 1.8 3.9 4.7 5.5 3.8 3.9-1.1-2.2 3.1-12.4 3.1-12.4s.4 0 1.1.1c22.6 1.4 27.7 0 26.6-2.7-.4-1-1.8-1.7-3.3-2.3 1.4-.6 2.8-1.3 4.3-2.1 9.3-5.1 2.9-12.3-16.2-8.1zm11.6 13.9c-1.4.6-10.9.9-17.6 1.1 4.1-.4 9.8-1.5 16.3-4.2 1.6 1.1 2.7 2.5 1.3 3.1z" fill="url(#g)" fill-rule="nonzero"/><path d="M141.3 177.7s-33.7-5.2-38.5 5.2c-4.9 10.5 31.5 21.9 38.5-5.2z" fill="url(#h)"/><path d="M219 177.4c.9-1.6 2.6-2.6 4.5-2.4 4.8.4 14 1.1 16.9 0 3.5-1.3 9.1-4.1 10.4-4.8.2-.1.4-.1.6 0l3.8 1.3c.3.1.5.4.5.8l-.1 3.2c0 .3.1.5.3.7l7 5c.3.2.4.6.3 1l-.5 1c-.1.2-.3.4-.6.4l-7.3 1.3h-.1l-6.2 1.8h-.4c-1.5-.4-10.8-3-13-3-1.3 0-6.9.2-11.9.4-3.5.2-5.8-3.6-4.2-6.7z" fill="#FFC3A5"/><path d="M258.7 171.2s-2-.5-3 0c-.9.5-5.4 4.7-5.4 4.7s-2.8.9-1.1 1.4c1.7.5 6.9-1.6 6.9-1.6l4.3 3.2 3.2 3.1-.5 1s.8 1.6 2.4 1.1c1.6-.4 5-.5 5-.5l.1-5.1s-7.1-3.6-8.8-4.9c-1.7-1.3-3.1-2.4-3.1-2.4zM248.2 186.7s3.7-4.6 4.7-4.8c1-.2-1.3 5.5-2.4 6.3-1.1.8-2.3-1.5-2.3-1.5z" fill="#FF9F77"/><path d="M252.1 184.9l3.2-2s2.2-.5 2.8.6c.6 1.1-.6 3.4-.6 3.4l-7.6 1.6 2.2-3.6z" fill="#FF9F77"/><path fill="#FF9F77" d="M258 185.7l7.1-1.5-2.3-1.1-4.5 1.1z"/><path d="M251.7 113.6l-4.7 1.2c-1.6.1-3.2.3-4.5.3-2.8.2-5.5 1.5-5.1.9.4-.6 3-5.1 2.2-6.1-.8-1-3.2 3.1-3.8 3.9-.6.8-3.5 3.3-3.5 3.3l-11 18.2c-.5 1-.4 2.3.2 3.2 1.3 1.8 4 1.8 5.3 0 2.2-3.3 5.3-7.5 6.8-9 4.5-4.5 13.3-9.9 15.1-10.9.4-.2.9-.6 1.2-1 .8-.6 1.7-2.1 2.4-3.2.3-.4-.1-.9-.6-.8z" fill="#FFC3A5"/><path d="M151.6 91.4s-3.4-3.5-3.6-6.4c-.1-1.3 3-.6 6.4-.3 4 .4 6.9-.7 6.9-.7s-3.2 2.4-4.9 3.6c-1.5 1.3-4.8 3.8-4.8 3.8z" fill="url(#i)"/><path d="M324.5 85.5s4.1-9.4 2.5-6.9c-.4.6-2.3.9-5.7 1.4-3.9.6-7.5-.3-7.5-.3s3 2.1 4.6 3.6c1.4 1.4 6.1 2.2 6.1 2.2z" fill="url(#j)"/><path d="M327.9 57.6l-1.8 8.5 2.9 1.2 2.2-7.4 2-1.2s3.8-.9 3.8 1.8-2.8 4.7-2.8 4.7-3.3 1.7-2.8 4.9 5.8-4.6 5.8-4.6 6.8-10.9 2.2-20-24.8-16.4-33.6-10c-8.8 6.4-4.3 12.2.7 12.8 4.8.6 13.9-8.4 21 5.6.5 1.1.6 2.5.4 3.7z" fill="#032336"/><path fill="#75BAFF" d="M333.4 76.3l-8 13.9 12.4 11.6-.8-23.2z"/><path d="M335 167.1l-11.6-74-7.5-2.4-1.4 11.5 4.6 11.3s.2 4-.1 6c-.3 2 16 47.6 16 47.6z" fill="#1F3F64"/><path fill="#75BAFF" d="M321.1 86.3L319 84l-1.1 20.3 7.5-14.1z"/><path fill="#75BAFF" d="M325.4 90.2l6.4 4.1-.8 48.1-7.4-43.3-.2-6.1z"/><path fill="#DD413B" d="M325.4 90.2l4.6 2.9-2.2 6.1-3.5-3.2z"/><path fill="#DD413B" d="M326 113.2l.5-15.6 2.4-.7 3 16-.9 29.5z"/><path d="M302.3 48.4s5.9.3 9.9-1.6c0 0-5.7 2.8-8.9 3.5-3.2.7-3.9-2.1-3.9-2.1l2.9.2z" fill="#032336"/><path fill="#FFF" d="M343.2 132.8l19-2.3-.6-2.5-18.3 2.4z"/><path d="M337 78.6s52.6 13.5 61.8 37.2c3.8 9.7 34.5 31.7 37.6 54.7 4.5 33.4-46.3 46-43.1 53.6l-4.7-19s8.1-15.9 12.4-30l.6-2.4c1.6-8.4-.3-8.1-8.5-15.3l-28.9-21 9.5-16.2-36.2-33.7-.5-7.9z" fill="#193153"/><path d="M337 78.6l4.7 1.5 2.1 17s-6.6 14.8-6.1 15.3 3.3 8.1 2.2 9.8c-1.1 1.8-3.5 34.8-4.8 42.3-1.3 7.5-4-22.1-4-22.1l.8-48.1 6 7.5-.9-23.2z" fill="#1F3F64"/><path fill="#FFF" d="M273.6 178.5l-5.2-1.2-2.9 9.7 6 1.2z"/><path d="M299.3 129.8s6.4 20.3 6.2 24.6c-.2 4.3-6.3-19.2-6.3-19.2s-1.4-9.4.1-5.4z" fill="#0C2039"/><path d="M382.5 150.3s-14.4-11.4-15.3-10c-.9 1.4-8 20.8 1 29s14.3-19 14.3-19z" fill="url(#k)"/><path fill="#FFF" d="M389.4 207.6l3.2 9.6-4.1 1.9-3.1-8.3z"/><path d="M385.4 210.8l-5.4-.8s-2.8-1.8-4.6-1.8c-1.8 0-3.9-.4-4.4-1.2-.5-.9-1.1 1.8.3 2.4 1.4.6 3.8 1.9 3.8 1.9s-6.8 3.4-7.7 4c-.8.5-2.4 1.4-3.3 2-1 .6-.5.9 1.9.6 2.4-.3 7.1-2.4 7.1-2.4l-8.3 4.8c-.5.2-.3 1.2.2 1.1l8.8-2.6-6.2 3.1c-.7.5-.5 1.5.3 1.4l6.2-1.9-2.5 2.5c-.4.2-.2.8.2.8l7-1.7c2.9-.6 5.4-2.7 5.4-2.7l4.3-1.3-3.1-8.2z" fill="#FF9F77"/><path d="M156.9 107.7s3.9 1 4 6.5c.1 5.5-4.8 9.5-4.8 9.5l-1.9-2.2 2.7-13.8z" fill="#FF8685"/><path fill="#00ECFF" opacity=".4" d="M222.047 18.177l54.094.863-.863 54.094-54.094-.863z"/><path fill="#00ECFF" opacity=".4" d="M232.146 8.375l54.094.863-.863 54.094-54.094-.863z"/><path d="M256.1 91.3l-49.1-.8c-1.6 0-2.8-1.3-2.8-2.9l1-60.5c0-1.6 1.3-2.8 2.9-2.8l49.1.8c1.6 0 2.8 1.3 2.8 2.9l-1 60.5c-.1 1.6-1.4 2.8-2.9 2.8z" fill="#E8E8E8"/><path fill="#FFF" d="M207.896 29.815l49.095.784-.764 47.895-49.095-.784z"/><path d="M235.2 46.3l-17.7-.3c-.8 0-1.5-.7-1.5-1.6 0-.8.7-1.5 1.6-1.5l17.7.3c.8 0 1.5.7 1.5 1.6 0 .8-.7 1.5-1.6 1.5z" fill="#00B94A"/><path d="M246.9 46.5l-6.4-.1c-.8 0-1.5-.7-1.5-1.6 0-.8.7-1.5 1.6-1.5l6.4.1c.8 0 1.5.7 1.5 1.6-.1.8-.8 1.5-1.6 1.5z" fill="#7133CC"/><path d="M236.4 52.7l-18.9-.3c-.8 0-1.5-.7-1.5-1.6 0-.8.7-1.5 1.6-1.5l18.9.3c.8 0 1.5.7 1.5 1.6-.1.9-.8 1.6-1.6 1.5z" fill="#00ECFF"/><path d="M246.7 59.3l-13.3-.2c-.8 0-1.5-.7-1.5-1.6 0-.8.7-1.5 1.6-1.5l13.3.2c.8 0 1.5.7 1.5 1.6-.1.9-.8 1.5-1.6 1.5z" fill="#7133CC"/><path d="M246.8 52.9l-5.1-.1c-.8 0-1.5-.7-1.5-1.6 0-.8.7-1.5 1.6-1.5l5.1.1c.8 0 1.5.7 1.5 1.6-.1.8-.8 1.5-1.6 1.5z" fill="#00ECFF"/><path d="M228.1 59l-10.7-.2c-.8 0-1.5-.7-1.5-1.6 0-.8.7-1.5 1.6-1.5l10.7.2c.8 0 1.5.7 1.5 1.6-.1.9-.8 1.5-1.6 1.5z" fill="#FB685F"/><path d="M246.6 65.4l-29.4-.5c-.8 0-1.5-.7-1.5-1.6 0-.8.7-1.5 1.6-1.5l29.4.5c.8 0 1.5.7 1.5 1.6-.1.9-.8 1.6-1.6 1.5z" fill="#00ECFF"/><g fill="#00D7DD" fill-rule="nonzero"><path d="M182.5 5.7l-2.7-2.8-2.8 1.8c-.9-.6-1.9-1-2.9-1.2l-.6-3.3-3.9-.1-.7 3.2c-1 .2-2 .6-2.9 1.1l-2.7-1.9-2.8 2.7 1.8 2.8c-.6.9-1 1.9-1.2 2.9l-3.3.6-.1 3.9 3.2.7c.2 1 .6 2 1.1 2.9l-1.9 2.7 2.7 2.8 2.8-1.8c.9.6 1.9 1 2.9 1.2l.6 3.3 3.9.1.7-3.2c1-.2 2-.6 2.9-1.1l2.7 1.9 2.8-2.7-1.8-2.8c.6-.9 1-1.9 1.2-2.9l3.3-.6.1-3.9-3.2-.7c-.2-1-.6-2-1.1-2.9l1.9-2.7zm-7.8 4.8c1.8 1.9 1.8 4.8-.1 6.6-1.9 1.8-4.8 1.8-6.6-.1-1.8-1.9-1.8-4.8.1-6.6 1.9-1.8 4.8-1.8 6.6.1z"/><path d="M194.7 14.9l-2.1-.8-1 1.6c-.6-.1-1.2-.1-1.8 0l-1.1-1.6-2 .9.4 1.9c-.5.4-.9.8-1.3 1.3l-1.9-.3-.8 2.1 1.6 1c-.1.6-.1 1.2 0 1.8l-1.6 1.1.9 2 1.9-.4c.4.5.8.9 1.3 1.3l-.3 1.9 2.1.8 1-1.6c.6.1 1.2.1 1.8 0l1.1 1.6 2-.9-.4-1.9c.5-.4.9-.8 1.3-1.3l1.9.3.8-2.1-1.6-1c.1-.6.1-1.2 0-1.8l1.6-1.1-.9-2-1.9.4c-.4-.5-.8-.9-1.3-1.3l.3-1.9zm-2.9 4.4c1.4.5 2.1 2.1 1.5 3.5-.5 1.4-2.1 2.1-3.5 1.5-1.4-.5-2.1-2.1-1.5-3.5.5-1.4 2.1-2.1 3.5-1.5z"/></g><circle fill="#FFF" cx="231.4" cy="84.2" r="2.2"/><circle fill="#00ECFF" cx="280.1" cy="93.3" r="5.2"/><circle fill="#9FFF72" cx="357.4" cy="67.2" r="2.7"/><circle fill="#9FFF72" cx="378.4" cy="67.2" r="4.4"/><ellipse fill="#2E284F" transform="rotate(-12.357 156.182 68.394)" cx="156.182" cy="68.394" rx="1" ry="1.2"/><ellipse fill="#2E284F" transform="rotate(-12.357 163.195 67.084)" cx="163.195" cy="67.084" rx="1" ry="1.2"/><path d="M152 65.7c0-.2.1-.5.3-.5 1-.3 3.6-1 3.9-1 .3.1-2.4 1.3-3.6 1.8-.3.1-.6 0-.6-.3zM164.4 63.5c0 .2-.2.4-.4.5-1 .2-3.6.7-3.9.6-.3-.1 2.5-1 3.8-1.4.2-.2.5 0 .5.3z" fill="#2E284F"/><path d="M160 74s3.5-1.8 3.5-1-1.7 1.6-1.7 1.6L160 74z" fill="url(#l)"/><path d="M152.6 76.3s2.2 1 3 1.1c.8.1 2.2 0 2.2 0s-1.7.7-2.9.5c-1.1-.3-2.3-1.6-2.3-1.6z" fill="#F6541B"/><ellipse fill="#2E284F" transform="rotate(-84.852 311.887 60.298)" cx="311.887" cy="60.298" rx="1.2" ry="1"/><ellipse fill="#2E284F" transform="rotate(-84.852 304.803 59.74)" cx="304.803" cy="59.739" rx="1.2" ry="1"/><path d="M315.7 57c0-.2-.2-.4-.4-.5-1-.2-3.7-.6-3.9-.5-.3.1 2.6 1 3.8 1.4.2.1.5-.1.5-.4zM303.2 56.8c.1.2.3.4.5.3 1-.2 3.7-.6 3.9-.8.2-.2-2.7-.1-4-.1-.3.1-.5.3-.4.6z" fill="#2E284F"/><path d="M310.1 67.4s-4.8-2.5-4.8-1.4 2.4 2.2 2.4 2.2l2.4-.8z" fill="url(#m)"/><path d="M316.9 69.6s-2.2 1-3 1.1c-.9.1-2.2 0-2.2 0s1.7.7 2.9.5c1.1-.2 2.3-1.6 2.3-1.6z" fill="#193153"/></g></svg>
