<?xml version="1.0" encoding="utf-8"?>
<!-- Generator: Adobe Illustrator 22.1.0, SVG Export Plug-In . SVG Version: 6.00 Build 0)  -->
<svg version="1.1" id="Layer_1" xmlns="http://www.w3.org/2000/svg" xmlns:xlink="http://www.w3.org/1999/xlink" x="0px" y="0px"
	 viewBox="0 0 394.8 236.6" style="enable-background:new 0 0 394.8 236.6;" xml:space="preserve">
<style type="text/css">
	.st0{fill:#FFC3A5;}
	.st1{fill:url(#Path_1_);}
	.st2{fill:#FF9F77;}
	.st3{fill:url(#Path_37_);}
	.st4{fill:#FF726D;}
	.st5{fill:url(#Path_38_);}
	.st6{fill:url(#Path_39_);}
	.st7{fill:url(#Path_48_);}
	.st8{fill:url(#Path_49_);}
	.st9{fill:url(#Shape_1_);}
	.st10{fill:url(#Path_50_);}
	.st11{fill:url(#Path_51_);}
	.st12{fill:url(#Path_52_);}
	.st13{fill:#032336;}
	.st14{fill:#75BAFF;}
	.st15{fill:#1F3F64;}
	.st16{fill:#DD413B;}
	.st17{fill:#FFFFFF;}
	.st18{fill:#193153;}
	.st19{fill:#0C2039;}
	.st20{fill:url(#Path_53_);}
	.st21{fill:#FF8685;}
	.st22{fill:#2E284F;}
	.st23{fill:url(#Path_54_);}
	.st24{fill:#F6541B;}
	.st25{fill:url(#Path_55_);}
</style>
<title>Our-strategy</title>
<desc>Created with Sketch.</desc>
<g id="HOW-WE-WORK_x3F_" transform="translate(46.000000, 40.000000)">
	<g id="Our-strategy" transform="translate(49.000000, 284.000000)">
		<path id="Path_2_" class="st0" d="M29.7-286.5c-0.5-3.2-0.7-6.5-2.1-9.2c-0.5-1-1.1-1.9-2-2.7c-5-4.6-12.5-5.1-18.1-1.2
			c-5.2,3.6-6.8,9.5-5.8,15c-1-0.5-2.1-0.9-3.4-1.2c-0.3-0.1-0.5,0-0.8,0.1c-0.5,0-1,0.2-1.6,0.6c-0.3,0.2-0.4,0.6-0.3,0.9
			c0.8,2.1,2,3.9,4.1,5.2c1.8,1.2,3,2.1,3.5,4.2c0.3,1.3,0.1,1.7,0.1,3.2c0,0.5-0.9,2.5-0.9,3c0.6,12.5,12.9,33.3,12.9,33.3
			l-0.4-20.5c-0.2-1.9,0.2-3.8,1.1-5.4c1.5-2.5,3.6-5.6,5-6.7c2-1.5,4.1-1.9,6.4-2.9c2.9-1.3,2.5-3.8,2.7-6.5
			C30.5-280.2,30.2-283.3,29.7-286.5z"/>
		
			<linearGradient id="Path_1_" gradientUnits="userSpaceOnUse" x1="-68.2189" y1="-70.5881" x2="-68.3038" y2="-69.6041" gradientTransform="matrix(130.7 0 0 -159.984 9117.8525 -11390.5488)">
			<stop  offset="0" style="stop-color:#0C2039"/>
			<stop  offset="0.7628" style="stop-color:#193153"/>
		</linearGradient>
		<path id="Path_3_" class="st1" d="M264.2-113.3l-4.7-21.5c-5.4-35-23.9-108.5-23.9-108.5l-35.5-26.4l-13.7,3.1
			c0,0-30.7,13-33.9,33.7c-3.1,20.7-0.7,46.3-6.1,55c-5.3,8.7-10.1,3-10.1,3l-2.8,13.4c0,0,11.4,2.6,21.4,2.1
			c4.7-0.2,9.6-1.2,12.9-1.8c-3.9,20.7-12.9,50.2-12.9,50.2l29.3,0.5l10.5-22.3l14.1,22.7c0,0,10.2,0.6,21.6,0.3
			c4.7,0,9.4-0.3,14.1-0.9L264.2-113.3z"/>
		<path id="Path_4_" class="st2" d="M165.4-290.2c-0.1-3.3,0.4-12.7,1.3-15.7c0.3-1.1-0.4-0.1,0.3-1.1c4.2-5.5,11.9-3.4,18.3-0.6
			c5.9,2.6,8.6,8.3,8.6,14.1c1-0.7,2-1.3,3.2-1.8c0.2-0.1,0.5-0.1,0.8-0.1c0.5-0.1,1.1,0,1.7,0.3c0.3,0.1,0.5,0.6,0.5,0.9
			c-0.4,2.3-1.3,4.3-3.1,6c-1.6,1.6-2.7,2.7-2.8,4.9c-0.1,1.4,0.2,1.8,0.5,3.2c0.1,0.5,1.4,2.3,1.5,2.9c1.7,12.7-6.8,36-6.8,36
			l-3.4-20.7c-0.2-1.9-0.9-3.8-2.2-5.2c-1.9-2.3-4.7-5-6.3-5.8c-2.3-1.2-2.6-0.8-5.1-1.4c-3.2-0.7-4.7-3.4-5.5-6.1
			C166.1-283.4,165.4-286.9,165.4-290.2z"/>
		
			<linearGradient id="Path_37_" gradientUnits="userSpaceOnUse" x1="-69.5162" y1="-69.7611" x2="-69.779" y2="-70.6616" gradientTransform="matrix(36.785 0 0 -52.9316 2537.7944 -4011.5293)">
			<stop  offset="0.5737" style="stop-color:#2E284F"/>
			<stop  offset="0.9994" style="stop-color:#76274E"/>
		</linearGradient>
		<path id="Path_5_" class="st3" d="M-3.6-308.6c0,0-15.6-18.9-26.8-10.8s-12,17.5-7.2,34.9c4.7,17.4,1.8,14.7,0.8,15.7
			s16.2-0.1,22.7-7.6C-7.6-284-3.6-308.6-3.6-308.6z"/>
		<path id="Path_6_" class="st4" d="M-7.2-307.1c0,0-4.4-0.5-5.1,2.5c-0.7,3,1.4,4,2.5,4.1C-8.7-300.6-7.2-307.1-7.2-307.1z"/>
		
			<linearGradient id="Path_38_" gradientUnits="userSpaceOnUse" x1="-68.3068" y1="-69.6624" x2="-68.4238" y2="-70.4686" gradientTransform="matrix(104.9 0 0 -99 7147.3726 -7074.416)">
			<stop  offset="0" style="stop-color:#4B273B"/>
			<stop  offset="1" style="stop-color:#723D5A"/>
		</linearGradient>
		<path id="Path_7_" class="st5" d="M11.9-140.6l-8.6,16.3C-15.1-104.6-40.3-92-67.6-88.7l-9.5,1.1l45.9-96.7l59-2.3L17.1-112
			L11.9-140.6z"/>
		
			<linearGradient id="Path_39_" gradientUnits="userSpaceOnUse" x1="-68.4516" y1="-70.4878" x2="-68.5985" y2="-69.5306" gradientTransform="matrix(81 0 0 -138.1886 5605.6953 -9875.584)">
			<stop  offset="0" style="stop-color:#D43A37"/>
			<stop  offset="1" style="stop-color:#FF726D"/>
		</linearGradient>
		<path id="Path_8_" class="st6" d="M85.8-221.4c0.4,0.6-0.7,1.7-18.9,12.5c-20.3,12.1-31.3-6.4-31.3-6.4l-0.1,0.3
			c-0.7-18-1.1-31.8-1.1-31.8c-2-10.6-12.7-20.8-12.7-20.8l-10.2,8.5c0,0,9,56.3,12.2,89c0.9,8.8-1.7,23.9-1.3,26.2
			c1.6,10.7,20.8,17.7,18.1,13c-1.3-2.3-2.7-29.4-3.9-56.9c4.5,2.8,11.1,4.4,20.7,1.9c23.5-6.3,35.2-27.8,35.2-27.8L85.8-221.4z"/>
		
			<linearGradient id="Path_48_" gradientUnits="userSpaceOnUse" x1="-70.5048" y1="-70.3235" x2="-69.5048" y2="-70.3235" gradientTransform="matrix(30.1 0 0 -38.9 2124.6824 -2984.6458)">
			<stop  offset="0" style="stop-color:#4B273B"/>
			<stop  offset="1" style="stop-color:#723D5A"/>
		</linearGradient>
		<path id="Path_9_" class="st7" d="M32.6-264.7l-14.7-0.2l-6.1,5.2l-9.3-8.8c3.2,25.8,10.8,30,10.8,30l4,8.9l2.4-16.1l3.2-3.6
			l-4.2-4L32.6-264.7z"/>
		
			<linearGradient id="Path_49_" gradientUnits="userSpaceOnUse" x1="-68.2388" y1="-70.5925" x2="-67.8697" y2="-69.6302" gradientTransform="matrix(186.7876 0 0 -168.1504 12715.2354 -11956.1982)">
			<stop  offset="0" style="stop-color:#D43A37"/>
			<stop  offset="1" style="stop-color:#FF726D"/>
		</linearGradient>
		<path id="Path_10_" class="st8" d="M91.8-178.5l-0.2,10c0,0-17.2,5.3-54.2,1.4c-11.8-1.2-17.3-6.7-33.3-8.6
			c0,0-11.3,45.8-68.2,71.6c-28.6,12.9-32.9-9.6-30.2-35.2c2.1-20.1,28.9-36,38.6-53.6c9.6-17.6,2-36.7,18-49.7
			c11.1-9,24.5-18.1,40.1-25.9c0,0,0.3,2,1.3,5.5c9.6,36.4,38.2,66.5,75.4,77.4L91.8-178.5z"/>
		
			<linearGradient id="Shape_1_" gradientUnits="userSpaceOnUse" x1="-69.4969" y1="-70.338" x2="-68.4984" y2="-70.338" gradientTransform="matrix(53.7195 0 0 -37.5719 3720.8191 -2936.3313)">
			<stop  offset="0" style="stop-color:#2E284F"/>
			<stop  offset="0.4967" style="stop-color:#2F284F"/>
			<stop  offset="0.9994" style="stop-color:#5E284F"/>
		</linearGradient>
		<path id="Shape" class="st9" d="M20.8-307c0,0-9-6.5-17.8-5.2c-7.9,1.2-15.4,8.1-15.5,16.6c-0.1,8.8,0.8,14.8,15.8,20.8
			c-0.5-2.2-1.7-3-3.5-4.2c-2-1.3-3.3-3.1-4.1-5.2c-0.1-0.3,0-0.7,0.3-0.9c0.5-0.4,1-0.6,1.6-0.6c0.2-0.1,0.5-0.1,0.8-0.1
			c0.1,0,0.2,0,0.2,0.1c1.2,0.3,2.3,1.2,2.8,2.3c1.8,3.9,4.7,5.5,3.8,3.9c-1.1-2.2,3.1-12.4,3.1-12.4s0.4,0,1.1,0.1
			c22.6,1.4,27.7,0,26.6-2.7c-0.4-1-1.8-1.7-3.3-2.3c1.4-0.6,2.8-1.3,4.3-2.1C46.3-304,39.9-311.2,20.8-307z M32.4-293.1
			c-1.4,0.6-10.9,0.9-17.6,1.1c4.1-0.4,9.8-1.5,16.3-4.2C32.7-295.1,33.8-293.7,32.4-293.1z"/>
		
			<linearGradient id="Path_50_" gradientUnits="userSpaceOnUse" x1="-69.1505" y1="-70.01" x2="-69.7249" y2="-71.1241" gradientTransform="matrix(38.952 0 0 -18.0932 2691.1487 -1448.9037)">
			<stop  offset="0" style="stop-color:#D63831"/>
			<stop  offset="1" style="stop-color:#E74F47"/>
		</linearGradient>
		<path id="Path_11_" class="st10" d="M4.1-175.7c0,0-33.7-5.2-38.5,5.2C-39.3-160-2.9-148.6,4.1-175.7z"/>
		<path id="Path_12_" class="st0" d="M81.8-176c0.9-1.6,2.6-2.6,4.5-2.4c4.8,0.4,14,1.1,16.9,0c3.5-1.3,9.1-4.1,10.4-4.8
			c0.2-0.1,0.4-0.1,0.6,0l3.8,1.3c0.3,0.1,0.5,0.4,0.5,0.8l-0.1,3.2c0,0.3,0.1,0.5,0.3,0.7l7,5c0.3,0.2,0.4,0.6,0.3,1l-0.5,1
			c-0.1,0.2-0.3,0.4-0.6,0.4l-7.3,1.3h-0.1l-6.2,1.8c-0.1,0-0.3,0-0.4,0c-1.5-0.4-10.8-3-13-3c-1.3,0-6.9,0.2-11.9,0.4
			C82.5-169.1,80.2-172.9,81.8-176z"/>
		<path id="Path_13_" class="st2" d="M121.5-182.2c0,0-2-0.5-3,0c-0.9,0.5-5.4,4.7-5.4,4.7s-2.8,0.9-1.1,1.4s6.9-1.6,6.9-1.6
			l4.3,3.2l3.2,3.1l-0.5,1c0,0,0.8,1.6,2.4,1.1c1.6-0.4,5-0.5,5-0.5l0.1-5.1c0,0-7.1-3.6-8.8-4.9
			C122.9-181.1,121.5-182.2,121.5-182.2z"/>
		<path id="Path_14_" class="st2" d="M111-166.7c0,0,3.7-4.6,4.7-4.8c1-0.2-1.3,5.5-2.4,6.3S111-166.7,111-166.7z"/>
		<path id="Path_15_" class="st2" d="M114.9-168.5l3.2-2c0,0,2.2-0.5,2.8,0.6s-0.6,3.4-0.6,3.4l-7.6,1.6L114.9-168.5z"/>
		<polygon id="Path_16_" class="st2" points="120.8,-167.7 127.9,-169.2 125.6,-170.3 121.1,-169.2 		"/>
		<path id="Path_17_" class="st0" d="M114.5-239.8l-4.7,1.2c-1.6,0.1-3.2,0.3-4.5,0.3c-2.8,0.2-5.5,1.5-5.1,0.9
			c0.4-0.6,3-5.1,2.2-6.1c-0.8-1-3.2,3.1-3.8,3.9c-0.6,0.8-3.5,3.3-3.5,3.3l-11,18.2c-0.5,1-0.4,2.3,0.2,3.2c1.3,1.8,4,1.8,5.3,0
			c2.2-3.3,5.3-7.5,6.8-9c4.5-4.5,13.3-9.9,15.1-10.9c0.4-0.2,0.9-0.6,1.2-1c0.8-0.6,1.7-2.1,2.4-3.2
			C115.4-239.4,115-239.9,114.5-239.8z"/>
		
			<linearGradient id="Path_51_" gradientUnits="userSpaceOnUse" x1="-72.4086" y1="-71.7111" x2="-73.3133" y2="-72.1297" gradientTransform="matrix(13.3024 0 0 -7.4 987.1722 -799.0623)">
			<stop  offset="0" style="stop-color:#FA8C5C"/>
			<stop  offset="1" style="stop-color:#FA8C5C;stop-opacity:0"/>
		</linearGradient>
		<path id="Path_18_" class="st11" d="M14.4-262c0,0-3.4-3.5-3.6-6.4c-0.1-1.3,3-0.6,6.4-0.3c4,0.4,6.9-0.7,6.9-0.7
			s-3.2,2.4-4.9,3.6C17.7-264.5,14.4-262,14.4-262z"/>
		
			<linearGradient id="Path_52_" gradientUnits="userSpaceOnUse" x1="-73.2363" y1="-71.9574" x2="-72.3548" y2="-72.1053" gradientTransform="matrix(13.5705 0 0 -7.3229 1171.2662 -799.5355)">
			<stop  offset="0" style="stop-color:#BE5259"/>
			<stop  offset="0.9982" style="stop-color:#FF9F77;stop-opacity:0"/>
		</linearGradient>
		<path id="Path_19_" class="st12" d="M187.3-267.9c0,0,4.1-9.4,2.5-6.9c-0.4,0.6-2.3,0.9-5.7,1.4c-3.9,0.6-7.5-0.3-7.5-0.3
			s3,2.1,4.6,3.6C182.6-268.7,187.3-267.9,187.3-267.9z"/>
		<path id="Path_20_" class="st13" d="M190.7-295.8l-1.8,8.5l2.9,1.2l2.2-7.4l2-1.2c0,0,3.8-0.9,3.8,1.8s-2.8,4.7-2.8,4.7
			s-3.3,1.7-2.8,4.9c0.5,3.2,5.8-4.6,5.8-4.6s6.8-10.9,2.2-20s-24.8-16.4-33.6-10c-8.8,6.4-4.3,12.2,0.7,12.8
			c4.8,0.6,13.9-8.4,21,5.6C190.8-298.4,190.9-297,190.7-295.8z"/>
		<polygon id="Path_21_" class="st14" points="196.2,-277.1 188.2,-263.2 200.6,-251.6 199.8,-274.8 		"/>
		<path id="Path_22_" class="st15" d="M197.8-186.3l-11.6-74l-7.5-2.4l-1.4,11.5l4.6,11.3c0,0,0.2,4-0.1,6S197.8-186.3,197.8-186.3z
			"/>
		<polygon id="Path_23_" class="st14" points="183.9,-267.1 181.8,-269.4 180.7,-249.1 188.2,-263.2 		"/>
		<polygon id="Path_24_" class="st14" points="188.2,-263.2 194.6,-259.1 193.8,-211 186.4,-254.3 186.2,-260.4 		"/>
		<polygon id="Path_25_" class="st16" points="188.2,-263.2 192.8,-260.3 190.6,-254.2 187.1,-257.4 		"/>
		<polygon id="Path_26_" class="st16" points="188.8,-240.2 189.3,-255.8 191.7,-256.5 194.7,-240.5 193.8,-211 		"/>
		<path id="Path_27_" class="st13" d="M165.1-305c0,0,5.9,0.3,9.9-1.6c0,0-5.7,2.8-8.9,3.5c-3.2,0.7-3.9-2.1-3.9-2.1L165.1-305z"/>
		<polygon id="Path_28_" class="st17" points="206,-220.6 225,-222.9 224.4,-225.4 206.1,-223 		"/>
		<path id="Path_29_" class="st18" d="M199.8-274.8c0,0,52.6,13.5,61.8,37.2c3.8,9.7,34.5,31.7,37.6,54.7
			c4.5,33.4-46.3,46-43.1,53.6l-4.7-19c0,0,8.1-15.9,12.4-30c0.2-0.8,0.4-1.6,0.6-2.4c1.6-8.4-0.3-8.1-8.5-15.3L227-217l9.5-16.2
			l-36.2-33.7L199.8-274.8z"/>
		<path id="Path_30_" class="st15" d="M199.8-274.8l4.7,1.5l2.1,17c0,0-6.6,14.8-6.1,15.3s3.3,8.1,2.2,9.8
			c-1.1,1.8-3.5,34.8-4.8,42.3c-1.3,7.5-4-22.1-4-22.1l0.8-48.1l6,7.5L199.8-274.8z"/>
		<polygon id="Path_31_" class="st17" points="136.4,-174.9 131.2,-176.1 128.3,-166.4 134.3,-165.2 		"/>
		<path id="Path_32_" class="st19" d="M162.1-223.6c0,0,6.4,20.3,6.2,24.6c-0.2,4.3-6.3-19.2-6.3-19.2S160.6-227.6,162.1-223.6z"/>
		
			<linearGradient id="Path_53_" gradientUnits="userSpaceOnUse" x1="-71.3553" y1="-70.0385" x2="-71.4247" y2="-70.9018" gradientTransform="matrix(18.8092 0 0 -30.66 1578.498 -2357.4067)">
			<stop  offset="0" style="stop-color:#0C2039"/>
			<stop  offset="1" style="stop-color:#193153;stop-opacity:0"/>
		</linearGradient>
		<path id="Path_33_" class="st20" d="M245.3-203.1c0,0-14.4-11.4-15.3-10c-0.9,1.4-8,20.8,1,29S245.3-203.1,245.3-203.1z"/>
		<polygon id="Path_34_" class="st17" points="252.2,-145.8 255.4,-136.2 251.3,-134.3 248.2,-142.6 		"/>
		<path id="Path_35_" class="st2" d="M248.2-142.6l-5.4-0.8c0,0-2.8-1.8-4.6-1.8c-1.8,0-3.9-0.4-4.4-1.2c-0.5-0.9-1.1,1.8,0.3,2.4
			c1.4,0.6,3.8,1.9,3.8,1.9s-6.8,3.4-7.7,4c-0.8,0.5-2.4,1.4-3.3,2c-1,0.6-0.5,0.9,1.9,0.6c2.4-0.3,7.1-2.4,7.1-2.4l-8.3,4.8
			c-0.5,0.2-0.3,1.2,0.2,1.1l8.8-2.6l-6.2,3.1c-0.7,0.5-0.5,1.5,0.3,1.4l6.2-1.9l-2.5,2.5c-0.4,0.2-0.2,0.8,0.2,0.8l7-1.7
			c2.9-0.6,5.4-2.7,5.4-2.7l4.3-1.3L248.2-142.6z"/>
		<path id="Path_36_" class="st21" d="M19.7-245.7c0,0,3.9,1,4,6.5c0.1,5.5-4.8,9.5-4.8,9.5l-1.9-2.2L19.7-245.7z"/>
		
			<ellipse id="Oval_4_" transform="matrix(0.9768 -0.214 0.214 0.9768 61.4353 -2.5437)" class="st22" cx="19" cy="-285" rx="1" ry="1.2"/>
		
			<ellipse id="Oval_5_" transform="matrix(0.9768 -0.214 0.214 0.9768 61.8782 -1.0732)" class="st22" cx="26" cy="-286.3" rx="1" ry="1.2"/>
		<path id="Path_40_" class="st22" d="M14.8-287.7c0-0.2,0.1-0.5,0.3-0.5c1-0.3,3.6-1,3.9-1c0.3,0.1-2.4,1.3-3.6,1.8
			C15.1-287.3,14.8-287.4,14.8-287.7z"/>
		<path id="Path_41_" class="st22" d="M27.2-289.9c0,0.2-0.2,0.4-0.4,0.5c-1,0.2-3.6,0.7-3.9,0.6c-0.3-0.1,2.5-1,3.8-1.4
			C26.9-290.4,27.2-290.2,27.2-289.9z"/>
		
			<linearGradient id="Path_54_" gradientUnits="userSpaceOnUse" x1="-87.1977" y1="-78.6538" x2="-88.0874" y2="-79.5146" gradientTransform="matrix(3.5 0 0 -1.805 330.5311 -421.9035)">
			<stop  offset="0" style="stop-color:#FA8C5C"/>
			<stop  offset="1" style="stop-color:#FA8C5C;stop-opacity:0"/>
		</linearGradient>
		<path id="Path_42_" class="st23" d="M22.8-279.4c0,0,3.5-1.8,3.5-1c0,0.8-1.7,1.6-1.7,1.6L22.8-279.4z"/>
		<path id="Path_43_" class="st24" d="M15.4-277.1c0,0,2.2,1,3,1.1c0.8,0.1,2.2,0,2.2,0s-1.7,0.7-2.9,0.5
			C16.6-275.8,15.4-277.1,15.4-277.1z"/>
		
			<ellipse id="Oval_6_" transform="matrix(8.973485e-02 -0.996 0.996 8.973485e-02 450.9315 -92.8419)" class="st22" cx="174.7" cy="-293.1" rx="1.2" ry="1"/>
		
			<ellipse id="Oval_7_" transform="matrix(8.973485e-02 -0.996 0.996 8.973485e-02 445.0399 -100.4061)" class="st22" cx="167.6" cy="-293.7" rx="1.2" ry="1"/>
		<path id="Path_44_" class="st22" d="M178.5-296.4c0-0.2-0.2-0.4-0.4-0.5c-1-0.2-3.7-0.6-3.9-0.5c-0.3,0.1,2.6,1,3.8,1.4
			C178.2-295.9,178.5-296.1,178.5-296.4z"/>
		<path id="Path_45_" class="st22" d="M166-296.6c0.1,0.2,0.3,0.4,0.5,0.3c1-0.2,3.7-0.6,3.9-0.8c0.2-0.2-2.7-0.1-4-0.1
			C166.1-297.1,165.9-296.9,166-296.6z"/>
		
			<linearGradient id="Path_55_" gradientUnits="userSpaceOnUse" x1="-82.2999" y1="-76.2565" x2="-81.4096" y2="-77.1163" gradientTransform="matrix(4.8 0 0 -2.4797 564.5106 -475.8104)">
			<stop  offset="0" style="stop-color:#DC7464"/>
			<stop  offset="1" style="stop-color:#FA8C5C;stop-opacity:0"/>
		</linearGradient>
		<path id="Path_46_" class="st25" d="M172.9-286c0,0-4.8-2.5-4.8-1.4s2.4,2.2,2.4,2.2L172.9-286z"/>
		<path id="Path_47_" class="st18" d="M179.7-283.8c0,0-2.2,1-3,1.1c-0.9,0.1-2.2,0-2.2,0s1.7,0.7,2.9,0.5
			C178.5-282.4,179.7-283.8,179.7-283.8z"/>
	</g>
</g>
</svg>
