<svg width="339" height="312" xmlns="http://www.w3.org/2000/svg"><desc>Created with Sketch.</desc><defs><linearGradient x1="49.975%" y1="99.442%" x2="49.975%" y2="1.862%" id="a"><stop stop-color="#3A0374" offset="0%"/><stop stop-color="#7540CF" offset="100%"/></linearGradient><linearGradient x1=".014%" y1="50.049%" x2="100.033%" y2="50.049%" id="b"><stop stop-color="#4D0C93" offset="33.13%"/><stop stop-color="#933FCF" offset="100%"/></linearGradient><linearGradient x1="97.274%" y1="30.264%" x2="23.302%" y2="54.132%" id="c"><stop stop-color="#3A0374" offset="0%"/><stop stop-color="#51109A" stop-opacity="0" offset="100%"/></linearGradient><linearGradient x1="50.76%" y1="79.327%" x2="48.232%" y2="-13.992%" id="d"><stop stop-color="#00D0FF" stop-opacity="0" offset="0%"/><stop stop-color="#FFF" stop-opacity=".4" offset="100%"/></linearGradient><linearGradient x1="70.17%" y1="28.682%" x2="5.917%" y2="96.513%" id="e"><stop stop-color="#00D0FF" stop-opacity="0" offset="0%"/><stop stop-color="#FFF" stop-opacity=".4" offset="100%"/></linearGradient><linearGradient x1="32.553%" y1="95.324%" x2="70.123%" y2="-2.819%" id="f"><stop stop-color="#FFF" offset="0%"/><stop stop-color="#E7E7E7" offset="100%"/></linearGradient><linearGradient x1="98.606%" y1="5.591%" x2="13.735%" y2="70.443%" id="g"><stop stop-color="#FA8C5C" offset="0%"/><stop stop-color="#FA8C5C" stop-opacity="0" offset="100%"/></linearGradient><linearGradient x1="72.227%" y1="38.391%" x2="-17.411%" y2="125.664%" id="h"><stop stop-color="#FA8C5C" offset="0%"/><stop stop-color="#FA8C5C" stop-opacity="0" offset="100%"/></linearGradient><linearGradient x1=".061%" y1="49.389%" x2="100.114%" y2="49.389%" id="i"><stop stop-color="#FA8C5C" offset="0%"/><stop stop-color="#FA8C5C" stop-opacity="0" offset="100%"/></linearGradient><linearGradient x1="49.967%" y1="100.175%" x2="49.967%" y2=".282%" id="j"><stop stop-color="#00D0FF" offset="0%"/><stop stop-color="#00F6FF" offset="100%"/></linearGradient><linearGradient x1=".185%" y1="51.99%" x2="99.901%" y2="51.99%" id="k"><stop stop-color="#00D0FF" stop-opacity="0" offset="0%"/><stop stop-color="#00F6FF" stop-opacity=".4" offset="100%"/></linearGradient><linearGradient x1=".093%" y1="51.99%" x2="99.836%" y2="51.99%" id="l"><stop stop-color="#00D0FF" stop-opacity="0" offset="0%"/><stop stop-color="#00F6FF" stop-opacity=".4" offset="100%"/></linearGradient><linearGradient x1=".144%" y1="49.177%" x2="99.844%" y2="49.177%" id="m"><stop stop-color="#00D0FF" stop-opacity="0" offset="0%"/><stop stop-color="#00F6FF" stop-opacity=".4" offset="100%"/></linearGradient><linearGradient x1=".003%" y1="49.816%" x2="99.878%" y2="49.816%" id="n"><stop stop-color="#00D0FF" stop-opacity="0" offset="0%"/><stop stop-color="#00F6FF" stop-opacity=".4" offset="100%"/></linearGradient><linearGradient x1="-.085%" y1="49.177%" x2="99.724%" y2="49.177%" id="o"><stop stop-color="#00D0FF" stop-opacity="0" offset="0%"/><stop stop-color="#00F6FF" stop-opacity=".4" offset="100%"/></linearGradient><linearGradient x1=".246%" y1="49.816%" x2="99.783%" y2="49.816%" id="p"><stop stop-color="#00D0FF" stop-opacity="0" offset="0%"/><stop stop-color="#00F6FF" stop-opacity=".4" offset="100%"/></linearGradient></defs><g transform="translate(0 -1)" fill="none" fill-rule="evenodd"><path fill="#9FFF72" d="M263.1 215.3L239.5 94.2 36.5 69 .6 194.9z"/><path fill="#00B94A" d="M55.7 177.5L23 216l63 6.7-19-48.2z"/><path d="M285.6 175.6S266 212.7 252 205.7s-43-84-57-97.3c-14-13.3-62.4-2-62.4-2S60 132.8 56 162.7s37.9 138 73.4 149c35.5 11 56.5-86.5 56.5-86.5l-4.2-9.2s-10.8 31.3-38.8 28.3c11.4-13.3 28.7-33.3 50.6-36.7 19.4-3 51.2 28.1 62.6 31.2 33.1 9 45.4-64.2 45.4-64.2l-15.9 1z" fill="url(#a)"/><path d="M156.8 115.9l-24.2-9.5s-10.1 22.7 5.9 39.7c16 17 31.6 3.6 18.3-30.2z" fill="#00B845"/><path d="M159.1 115l-.4-1-26.2-7.5-3.1 1.2c-.4 1-9.7 22.3 7.2 40.3 5 5.3 10.3 8.1 15 8.1 2.1 0 4.1-.6 5.9-1.7 8.4-5.3 8.9-20.7 1.6-39.4zm-4.2 35.2c-3.6 2.3-9.2.1-14.6-5.6-12-12.8-8.3-28.9-6.3-34.8l20.9 8.1c6.7 17.9 4.8 29.2 0 32.3z" fill="#804AE7" fill-rule="nonzero"/><path d="M169.1 59.7c-8-7.1-20-7.8-28.9-1.5-8.2 5.8-10.6 15.2-8.8 24-1.7-.8-3.4-1.3-5.4-1.8-.4-.1-.9 0-1.2.2-.8.1-1.6.4-2.5 1-.4.3-.6 1-.4 1.5 1.3 3.3 3.3 6.1 6.6 8.1 3 1.9 4.9 3.2 5.7 6.6.3 1.1.6 2.2 1 3.2.1 1.3.4 2.5 1.5 3.8.3.4.7.9 1.1 1.3 3.7 5.7 6 16 12.8 18.6.9.3 1.8-.4 2-1 1.3-3.6 6.8-12.7 9.9-15.2 3.1-2.5 6.4-3.2 10.1-4.8 4.6-2.1 6.1-6.2 6.5-10.5 1.1-11.5-.6-25.1-10-33.5z" fill="#FFC3A5"/><path d="M178.4 50.8c-6.5-.2-12.7-3.9-12.7-3.9-5.4-3.9-12-5.2-22.5-2.5-5.1 1.3-8.9 4.1-11.5 7.7-2.5-3-6.8-7.9-6.9-7-.2 1.2 3.2 8.5 3.2 8.5s-8.7-2.8-8.5-1c.2 1.8 8.5 7 8.5 7-3 9.2-1.6 19.4 1.2 22.4 1.8 1.9 3.3 3.9 4.2 5.3-.3.4-.5.8-.8 1.2-1 1.6 1.5 3.1 2.6 1.5 4.8-7.4 10.6-19.2 10-29.3 2.1 1.3 7.9 4.4 12.9 5.5 6.3 1.3 14.2.9 14.2.9s-7.6-3-14.4-6.4l1.6.1c3.7.9 9.7 2.4 11.6 2.5 1.2.1.4-.9-1-2.1l8.3.3c-1.7-2.4-3.3-4.6-4.9-6.6 4.9-1.4 9.8-4 4.9-4.1z" fill="url(#b)"/><path fill="#9FFF72" d="M135.2 101l-1.2 8.7 7.6 27.7 9-12.7zM156.8 115.9l7.1 16.2-13.3-7.4z"/><path fill="url(#c)" d="M272.9 206.5l-36.3 18.7-35.8-17.8 15.8-22.7z"/><circle fill="url(#d)" cx="248.6" cy="53.4" r="40"/><circle fill="url(#e)" cx="248.6" cy="53.4" r="52.8"/><path fill="url(#f)" d="M272.9 206.5l-79.4 1 46.1-75.4 79 1.4z"/><path d="M196.4 203.4s3.1-45.5 7.1-47.3c3.1-1.4 8.3 6.6-7.1 47.3z" fill="#3C0078"/><path d="M181.6 216s12.2-18 13-18.8c.8-.8.2-3.5 1.8-3.2 1.6.3 1.2 7.5 0 9.4-1.2 1.9 12.8-3.4 14.8-3.4s7-1.5 8.5-.5-2.2 2-3.5 2.5c-1.3.5-7.5 6.8-8.8 8.5-1.3 1.7-11.5 7.3-15.8 10.5-3.5 2.7-5.8 4.2-5.8 4.2l-4.2-9.2z" fill="#FFC3A5"/><g fill="#FFC3A5"><path d="M300.4 155.6c.1-.4 0-.4 0 0zM310.2 146c-.5-1-4.6 3.4-7.2 6.5l-.2-.1-.7 1s0 .1.1.2c-.9 1.1-1.6 1.9-1.6 1.9l-.2.3-7.8 19.5c-.4 1.9 4.4 3.1 5.9 1.8l3-2.5 4.4-10.7v-.2l.3-6.5c1.8-3.9 4.6-10.2 4-11.2z"/></g><path d="M297.7 165.6l-5.4-13.3c-.4-1.1.4-2.3 1.5-2.3H307l-9.3 15.6z" fill="#FFC3A5"/><path d="M304.1 150.1s-9.1-5.2-9-3.7c.1 1.5 2.8 2.7 5.2 4.4 2.5 1.5 3.8-.7 3.8-.7z" fill="#FFC3A5"/><path d="M262.5 160c-1.8-.8-2.5-2.7-1.6-4.3l6.8-11.5c1.2-2 3.8-2.7 5.9-1.5 2 1.2 2.5 3.7 1.2 5.5l-7.3 10.7c-1 1.5-3.2 2-5 1.1z" fill="#CBCBCB"/><path d="M271.7 148.6c0 1-.9 1.8-2 1.8s-1.9-.8-1.9-1.8.9-1.9 2-1.9 2 .9 1.9 1.9z" fill="#6F6F6D"/><circle fill="#008435" cx="151.7" cy="132.6" r="1.2"/><path d="M142.8 244.3s-22.8-28-18.8-40 18.6 13.5 18.8 40z" fill="#3C0078"/><path fill="#804AE7" d="M181.6 216l4.3 9.2-1.2 5-6.7-6.5zM292.5 175.1l8.9-.6-1.2 6.2-10.6-.9z"/><path d="M154.5 119.2s-5.9-3.8-7-7.7c-.5-1.8 3.9-1.8 8.7-2.4 5.6-.7 9.9-2.7 9.9-2.7s-3.6 2-5.1 3.9c-1.6 1.8-6.5 8.9-6.5 8.9z" fill="url(#g)"/><ellipse fill="#4D0096" transform="rotate(-12.357 158.688 76.792)" cx="158.688" cy="76.792" rx="1.4" ry="2.2"/><ellipse fill="#4D0096" transform="rotate(-12.357 172.89 74.584)" cx="172.89" cy="74.584" rx="1.4" ry="2.2"/><path d="M152.3 73.9c-.2-.4 0-.9.4-1.1 1.7-1 6-3.7 6.6-3.7.6 0-3.8 3.6-5.7 5.2-.4.3-1.1.2-1.3-.4zM175.4 68.8c0 .4-.3.8-.8.9-1.9.4-6.9 1.3-7.5 1.1-.5-.2 4.8-2 7.2-2.7.5-.3 1.1.1 1.1.7z" fill="#4D0096"/><path d="M167.1 87s6.6-3.4 6.6-1.9-3.3 3-3.3 3l-3.3-1.1z" fill="url(#h)"/><path d="M153 91.3s4.1 1.9 5.8 2c1.7.1 4.1 0 4.1 0s-3.2 1.3-5.4 1c-2.2-.3-4.5-3-4.5-3z" fill="#C73800"/><path d="M304.1 150.1s2.1 6.5 2.1 7.1c0 .5 1.9-3.3 1.8-4 0-.9.5-4-3.9-3.1z" fill="url(#i)"/><circle fill="url(#j)" cx="248.8" cy="53.4" r="32.4"/><g fill="#0080B0"><path d="M281.1 52.8c0-5.9-1.7-11.3-4.7-15.9 0 0-1.7 2.4-1.4 4 .3 1.6 2.2 1.7 2 2.8-.2 1.1-1.5-.3-3.2 2.7-1.7 3-.8 7.2 1.6 7.5 2.4.3 5.7-1.1 5.7-1.1zM257.6 22.3c3.4.9 6.6 2.4 9.3 4.4 0 0-3.4-.6-4.7.6-1.3 1.1-3.2 3.9-4.7 0-1.4-3.8.1-5 .1-5zM225.6 31c5.4-6.1 13.2-10 22-10 0 0-2 1.2 1.8 3.2s2 3 1.3 3.6c-.8.6-2.1-1.3-3-2.5-.9-1.3-4.7-3.2-7.6-2.1-2.9 1-5.4 1.8-5 2.8.4 1 5.4-.9 7.3-.8 1.9.1 1.3 1.3-.5 2.6-1.8 1.4-2 3-.1 4.1 1.9 1 4.2 1.1 4.7.5.5-.6-.9-4.7 2.6-2.9 3.5 1.8 6.5 2.8 3.6 5.4-2.9 2.6-6.3 5.5-6.4 7.2-.1 1.7 1 3 .4 3.1-.6.1-1.2-.7-1.6-1.3-.4-.6-2.3-.8-3.3-.4-.9.4-2.7 1.8-1.7 3.1 1 1.4 2.3.7 3.7 1.4 1.4.6 2.6 3 2.4 3.5-.3.5-1.4-.1-2.4-2-.9-1.8-2.7-.6-4-.9-1.2-.3-2.2-.5-3.4-2.7-1.3-2.2-3.8-2.8-4.9-4.1-3-3.6-2.8-6.4-3.4-7.6-.8-1.2-2.5-3.2-2.5-3.2zM250.4 50.7s3.1.3 4.7 1.7 1.8 1.9 4.2 2.4c2.4.5 3.4 1.9 1.9 4.5-1.6 2.6-4.4 6.8-5.7 8-1.4 1.3-3 2.3-3.7 4.4-.6 2.1-.8 3.3.5 4.2 0 0-.7 1.8-2.4-.5s-.3-5 0-6.6c.3-1.6 1.1-6.3.6-7.4-.5-1.1-2.9-1.9-3.6-4.3-.5-2.4.6-7.1 3.5-6.4z"/></g><g transform="rotate(-76.167 136.352 -104.786)" fill="#89FBFF"><ellipse cx="10.572" cy="14.982" rx="2.2" ry="1.1"/><ellipse opacity=".4" cx="10.572" cy="14.982" rx="7.1" ry="3.6"/><ellipse opacity=".4" cx="10.572" cy="14.982" rx="13.2" ry="6.7"/></g><ellipse fill="#89FBFF" opacity=".4" transform="rotate(-72.435 271.435 58.57)" cx="271.435" cy="58.57" rx="3.8" ry="2.9"/><ellipse fill="#89FBFF" opacity=".4" transform="rotate(-72.435 271.435 58.57)" cx="271.435" cy="58.57" rx="10.1" ry="7.7"/><ellipse fill="#89FBFF" opacity=".4" transform="rotate(-72.435 271.435 58.57)" cx="271.435" cy="58.57" rx="18" ry="13.8"/><path d="M311.3 96.7c-.4.1-.8.2-1.3.3 1.3-1.8 2.3-3.8 2.9-5.9 1.9-6.5-.5-11.5-5.6-10.9-1.4.2-2.9.8-4.3 1.7-.9-4.7-4.1-7.6-8.8-7.2-7.1.8-14.5 9.1-16.3 18.2-.1.4-.1.8-.2 1.2-5.1.6-10.1 6.3-11.2 12.5-1 6 2 10.2 6.8 9.6l33.5-4.3c3.2-.4 6.9-4 8.1-8.2 1.4-4.2-.3-7.4-3.6-7z" fill="#00ECFF" opacity=".6"/><path d="M223.9 88.6c-.2 0-.4.1-.7.2.5-.9.8-1.8.9-2.9.2-3.1-1.7-5.5-4.3-5.2-.7.1-1.4.4-2.1.8-1-2.2-3-3.5-5.4-3.2-3.6.4-6.7 4.3-6.7 8.7v.6c-2.6.3-4.8 3.1-4.8 6.1 0 3 2.1 5.1 4.6 4.8l17.9-2.3c1.7-.2 3.3-2.1 3.5-4.1.2-2.2-1.1-3.7-2.9-3.5z" fill="#0080B0"/><g fill="#FFF"><path d="M288.8 94.9l-5.2 5.5 2.9 4.4 1-1.1-2.3-3.5 4.1-4.4zM298.9 93.7l-1 1.1 2.1 3.6-4.2 4.3.5.9 5.2-5.4zM288.7 106.8l1 .2 7-15.4-1-.3z"/></g><path d="M18.6 3.2H2C1.2 3.2.6 2.6.6 1.8v-.3C.6.7 1.2.1 2 .1h16.6c.8 0 1.4.6 1.4 1.4v.3c0 .8-.6 1.4-1.4 1.4z" fill="url(#k)" transform="translate(303 39)"/><path d="M34.6 3.2h-11c-.8 0-1.4-.6-1.4-1.4v-.3c0-.8.6-1.4 1.4-1.4h11c.8 0 1.4.6 1.4 1.4v.3c0 .8-.6 1.4-1.4 1.4z" fill="url(#l)" transform="translate(303 39)"/><path d="M24.2 9.7H2C1.2 9.7.6 9.1.6 8.3V8c0-.8.6-1.4 1.4-1.4h22.2c.8 0 1.4.6 1.4 1.4v.3c0 .7-.7 1.4-1.4 1.4z" fill="url(#m)" transform="translate(303 39)"/><path d="M34.6 16.1H18.8c-.8 0-1.4-.6-1.4-1.4v-.3c0-.8.6-1.4 1.4-1.4h15.8c.8 0 1.4.6 1.4 1.4v.3c0 .8-.6 1.4-1.4 1.4z" fill="url(#n)" transform="translate(303 39)"/><path d="M34.6 9.7h-5.4c-.8 0-1.4-.6-1.4-1.4V8c0-.8.6-1.4 1.4-1.4h5.4c.8 0 1.4.6 1.4 1.4v.3c0 .7-.6 1.4-1.4 1.4z" fill="url(#o)" transform="translate(303 39)"/><path d="M13.8 16.1H2c-.8 0-1.4-.6-1.4-1.4v-.3c0-.8.6-1.4 1.4-1.4h11.8c.8 0 1.4.6 1.4 1.4v.3c0 .8-.6 1.4-1.4 1.4z" fill="url(#p)" transform="translate(303 39)"/><circle fill="#00B94A" cx="93" cy="74.7" r="7"/><circle fill="#0080B0" cx="189" cy="40.7" r="4"/></g></svg>
