<?xml version="1.0" encoding="utf-8"?>
<!-- Generator: Adobe Illustrator 22.1.0, SVG Export Plug-In . SVG Version: 6.00 Build 0)  -->
<svg version="1.1" id="Layer_1" xmlns="http://www.w3.org/2000/svg" xmlns:xlink="http://www.w3.org/1999/xlink" x="0px" y="0px"
	 viewBox="0 0 209.8 170.8" style="enable-background:new 0 0 209.8 170.8;" xml:space="preserve">
<style type="text/css">
	.st0{fill:url(#Path_1_);}
	.st1{fill:url(#Path_20_);}
	.st2{fill:#193153;}
	.st3{fill:#0C2039;}
	.st4{fill:url(#Path_21_);}
	.st5{fill:#FF9F77;}
	.st6{fill:url(#Path_22_);}
	.st7{fill:#2E284F;}
	.st8{fill:url(#Path_23_);}
	.st9{fill:url(#Path_24_);}
	.st10{fill:url(#Path_25_);}
	.st11{fill:#FFFFFF;}
	.st12{fill:#00B94A;}
	.st13{fill:#71DC44;}
	.st14{fill:#032336;}
	.st15{fill:#FFC3A5;}
	.st16{fill:url(#Path_26_);}
	.st17{fill:#3A0374;}
	.st18{fill:#7397CB;}
	.st19{fill:#0040A2;}
	.st20{fill:url(#Path_27_);}
	.st21{fill:url(#Path_28_);}
	.st22{fill:#934528;}
	.st23{fill:#00B7FA;}
</style>
<title>Our-team</title>
<desc>Created with Sketch.</desc>
<g id="Our-team" transform="translate(49.000000, 284.000000)">
	
		<linearGradient id="Path_1_" gradientUnits="userSpaceOnUse" x1="-225.6651" y1="-95.9107" x2="-225.7956" y2="-94.9194" gradientTransform="matrix(83.1255 0 0 -126.4 18768.6289 -12232.9893)">
		<stop  offset="0" style="stop-color:#0C2039"/>
		<stop  offset="0.7628" style="stop-color:#193153"/>
	</linearGradient>
	<path id="Path_2_" class="st0" d="M43.7-188c-4.3-28.1-12.6-36.3-12.6-36.3L1.3-246.5l-11.5,2.6c0,0-25.8,10.9-28.5,28.4
		c-2.6,17.4,12.1,21.6,13.3,28.5l-0.5,31.7c-2.4,12.6-1.1,25.3-0.2,31.5c0.3,2.1,2.2,3.7,4.3,3.7h58.7c2.4,0,4.4-2,4.4-4.4l-0.2-9.6
		C39.8-143.6,45.7-174.8,43.7-188z"/>
	
		<linearGradient id="Path_20_" gradientUnits="userSpaceOnUse" x1="-225.4746" y1="-95.8801" x2="-225.4746" y2="-94.8684" gradientTransform="matrix(113.7 0 0 -112.7011 25739.5078 -10945.6289)">
		<stop  offset="0" style="stop-color:#0040A2"/>
		<stop  offset="1" style="stop-color:#0040A2"/>
	</linearGradient>
	<path id="Path_3_" class="st1" d="M138.5-199l21.4-7.4c-1.4-17.9-10.9-28.7-10.9-28.7c-9.1-11.7-38.6-15.9-47-16
		c-8.4-0.1-22.7,6.5-22.7,6.5s-5.9,2.9-16.6,4.9c-10.7,2-16.5,20-16.5,20s4.2,33.3,11.7,33s3.6,4,6.3,7.8
		c2.7,3.8,12.4,40.5,12.4,40.5h52.7L138.5-199z"/>
	<path id="Path_4_" class="st2" d="M52.9-171.2c-4.9,11.4-9.2,25.5-9.2,25.5l4.4,6c3.4-5.1,34.1-15.3,33.4-43.6
		C81-202.8,57.3-213.8,55-222.2c-5.5-20.6-53.8-24.4-53.8-24.4l7.5,8.6l19.7,26.6l1.2,16.2L51.8-175L52.9-171.2z"/>
	<path id="Path_5_" class="st2" d="M1.4-244.1c0,0-33.8,5.2-39.3,25.1c-2.2,8.1-9.1,25.8-10.9,45.1c-2.6,28.1,22.3,28.4,20.4,34.8
		l2.9-10.6c0,0,0.7-8.3-2-20.2c-0.1-0.7-0.3-1.3-0.4-2c-1-7,0.2-6.8,5.1-12.8l17.3-17.5l-5.8-13.6L10.4-244L1.4-244.1z"/>
	<path id="Path_6_" class="st3" d="M-30.6-212.7c0,0,5.4,17.1,5.2,20.7c-0.1,3.6-5.3-16.2-5.3-16.2S-31.8-216.1-30.6-212.7z"/>
	
		<linearGradient id="Path_21_" gradientUnits="userSpaceOnUse" x1="-230.1693" y1="-96.9519" x2="-230.2384" y2="-97.8141" gradientTransform="matrix(15.8603 0 0 -25.7998 3682.3176 -2694.5332)">
		<stop  offset="0" style="stop-color:#0C2039"/>
		<stop  offset="1" style="stop-color:#193153;stop-opacity:0"/>
	</linearGradient>
	<path id="Path_7_" class="st4" d="M39.3-187.3c0,0-12.1-9.6-12.9-8.4c-0.8,1.1-6.7,17.5,0.8,24.4C34.7-164.4,39.3-187.3,39.3-187.3
		z"/>
	<path id="Path_8_" class="st5" d="M43.7-145.6l-4.6,0.6c0,0-2.7-0.8-4.1-0.4c-1.5,0.4-3.3,0.6-3.8,0c-0.6-0.6-0.5,1.7,0.8,1.9
		c1.2,0.2,3.5,0.7,3.5,0.7s-4.8,4.3-5.4,5c-0.6,0.6-1.6,1.7-2.2,2.4c-0.6,0.7-0.2,0.8,1.7,0.1c1.9-0.8,5.2-3.6,5.2-3.6l-5.6,5.8
		c-0.4,0.3,0,1,0.5,0.9l6.6-4.1l-4.3,3.9c-0.5,0.5-0.1,1.3,0.6,1l4.6-3l-1.4,2.6c-0.3,0.3,0,0.7,0.4,0.6l5.3-2.9
		c2.2-1.2,3.8-3.4,3.8-3.4l3.2-2L43.7-145.6z"/>
	<path id="Path_9_" class="st5" d="M11.6-260.7c0.1-2.8-0.3-10.7-1.1-13.2c-0.3-0.9,0.4-0.1-0.3-0.9c-3.5-4.6-7.8-6.6-13.2-4.2
		c-5,2.2-9.5,10.7-9.5,15.5c-0.8-0.6-1.7-1.1-2.7-1.5c-0.2-0.1-0.5-0.1-0.7,0c-0.4,0-0.9,0-1.4,0.3c-0.3,0.1-0.4,0.5-0.4,0.7
		c0.2,0.9,0.3,2,0.7,2.8c0.4,0.8,1.2,1.5,1.9,2.2c1.4,1.3,2.3,2.2,2.3,4.1c0.1,1.2-0.2,1.5-0.4,2.7c-0.1,0.5-0.3,10.6-0.4,11.1
		c-0.1,0.9-0.2,1.8-0.2,2.7c-0.1,5,11.1,3.5,11.9-1.5c0.2-1.3-0.8-2.9,0.1-3.9c1.6-1.9,1.6-1.7,3-2.4c1.9-1,2.1-0.7,4.3-1.2
		c2.7-0.6,4-2.8,4.7-5.1C11-255,11.5-257.9,11.6-260.7z"/>
	
		<linearGradient id="Path_22_" gradientUnits="userSpaceOnUse" x1="-231.9056" y1="-105.3104" x2="-232.7878" y2="-105.4583" gradientTransform="matrix(11.3962 0 0 -6.1551 2644.3352 -894.0641)">
		<stop  offset="0" style="stop-color:#BE5259"/>
		<stop  offset="0.9982" style="stop-color:#FF9F77;stop-opacity:0"/>
	</linearGradient>
	<path id="Path_10_" class="st6" d="M-6.8-241.9c0,0-3.4-7.9-2.1-5.8c0.3,0.5,1.9,0.8,4.8,1.2c3.3,0.5,6.3-0.2,6.3-0.2
		s-2.5,1.8-3.9,3C-2.9-242.7-6.8-241.9-6.8-241.9z"/>
	<path id="Oval" class="st7" d="M2.7-262.4c-0.4,0-0.7-0.4-0.8-1.1s0.2-1.1,0.6-1.2c0.4,0,0.7,0.4,0.8,1.1
		C3.3-263,3.1-262.5,2.7-262.4z"/>
	<path id="Oval_1_" class="st7" d="M9.4-262.9c-0.4,0-0.7-0.4-0.8-1.1c-0.1-0.6,0.2-1.1,0.6-1.2c0.4,0,0.7,0.4,0.8,1.1
		C10.1-263.5,9.8-262.9,9.4-262.9z"/>
	<path id="Path_11_" class="st7" d="M-1.1-266.7c0-0.2,0.1-0.4,0.3-0.4c1-0.1,3.6-0.6,3.8-0.4s-2.5,0.9-3.7,1.2
		C-0.9-266.2-1.1-266.4-1.1-266.7z"/>
	<path id="Path_12_" class="st7" d="M10.9-266.8c-0.1,0.2-0.3,0.3-0.5,0.3c-1-0.1-3.6-0.6-3.8-0.8c-0.2-0.2,2.6-0.1,3.9-0.1
		C10.8-267.4,11-267,10.9-266.8z"/>
	
		<linearGradient id="Path_23_" gradientUnits="userSpaceOnUse" x1="-243.4969" y1="-123.5665" x2="-244.3949" y2="-124.4519" gradientTransform="matrix(4.5812 0 0 -2.2697 1123.0194 -537.9777)">
		<stop  offset="0" style="stop-color:#DC7464"/>
		<stop  offset="1" style="stop-color:#FA8C5C;stop-opacity:0"/>
	</linearGradient>
	<path id="Path_13_" class="st8" d="M4.3-256.8c0,0,4.6-2.4,4.6-1.3s-2.3,2-2.3,2L4.3-256.8z"/>
	<path id="Path_14_" class="st2" d="M-2.2-254.7c0,0,2.1,0.9,2.9,1c0.8,0.1,2.1,0,2.1,0s-1.6,0.7-2.7,0.4
		C-1.1-253.5-2.2-254.7-2.2-254.7z"/>
	<path id="Path_15_" class="st5" d="M-25.7-146.2c0,0-3.5,1-3.9,2.4s-3.2,5.6-2.5,7.5c0.7,1.9,0.8,2.7,4.3,4.9
		c3.5,2.2,3.8,0.8,2.3-1.4c-0.4-0.5-0.6-1.1-0.8-1.6c-0.4-1.5-0.1-2.6-0.1-2.6s2.6,3.5,3.2,3.7c0.7,0.2-2.2-4.7-2-5.7
		c0.1-1,0.5,1.6,2.7,2c2.2,0.4-1.4-7-1.4-7l1.9-1.1C-21.9-145.2-23.2-147.2-25.7-146.2z"/>
	
		<linearGradient id="Path_24_" gradientUnits="userSpaceOnUse" x1="-229.1013" y1="-100.3576" x2="-229.1614" y2="-99.3234" gradientTransform="matrix(19.6571 0 0 -13.1912 4498.375 -1556.0961)">
		<stop  offset="0" style="stop-color:#0C2120"/>
		<stop  offset="0.7628" style="stop-color:#193153"/>
	</linearGradient>
	<path id="Path_16_" class="st9" d="M-13-246.5c0,0,4.3,2.4,8.5,2.4c2.2,0,4.6-2.3,5.8-2.4c1.7-0.2,3.1,5.2,2.7,7.6
		c-0.4,2.4-3.5,4.6-5.3,5.3c-3.6,1.3-12.8-2.2-13.7-3.2c-0.9-1-0.6-7.1-0.2-8.3C-14.8-246.3-13-246.5-13-246.5z"/>
	
		<linearGradient id="Path_25_" gradientUnits="userSpaceOnUse" x1="-226.1013" y1="-107.0635" x2="-226.1152" y2="-105.3528" gradientTransform="matrix(62.0475 0 0 -5.8154 14037.9258 -734.5665)">
		<stop  offset="0" style="stop-color:#0C2039"/>
		<stop  offset="0.7628" style="stop-color:#193153"/>
	</linearGradient>
	<path id="Path_17_" class="st10" d="M-22.3-120.1c0,0-1,2.2,0,3.3s62.1,3,61.6,1.4c-0.5-1.5,0-5.2,0-5.2L-22.3-120.1z"/>
	<rect id="Rectangle_1_" x="-8.4" y="-201.5" class="st11" width="15.8" height="21.3"/>
	<g transform="translate(306.000000, 87.000000)">
		<g id="SVGID_8_-link">
			<rect id="SVGID_8_" x="-311.4" y="-284.7" class="st12" width="3.1" height="7.9"/>
		</g>
		<g id="SVGID_10_-link" transform="translate(7.000000, 0.000000)">
			<rect id="SVGID_10_" x="-311.8" y="-284.7" class="st12" width="3.1" height="7.9"/>
		</g>
		<polygon id="Path_18_" class="st13" points="-311.4,-284.7 -308.3,-284.7 -306.5,-281.7 -304.8,-284.7 -301.6,-284.7 
			-306.5,-276.8 		"/>
	</g>
	<path id="Path_19_" class="st14" d="M8.3-279.4c-5.7-7.2-23.8-3.7-27.6,3.9c-3.9,7.6,1.8,16.8,1.8,16.8s4.4,6.6,4.9,3.9
		c0.4-2.7-2.3-4.1-2.3-4.1s-2.4-1.7-2.4-4c0-2.3,3.2-1.5,3.2-1.5l1.7,1l1.8,6.2l1.4-6.3l-0.3-1.3c0.4-0.4,0.7-0.8,1.1-1.3
		c1-1.5,1.7-6.8,1.7-6.8c0.6-0.9,1.1-1.6,1.6-2.2c0,0,10.4,2.7,11.6,1.8c1-0.8,3.5-0.8,3.5-1.7C11.6-274.5,11.8-275,8.3-279.4z"/>
	<path id="Path_34_" class="st15" d="M111.1-264.4l0.5-9.6l-12.1,0.2L87.4-274l0.5,9.6c0,0-5.8-1-2.8,4.5c3,5.5,4,2.2,4,2.2
		s0.5,4.1,2.5,6.7c2,2.7,5.3,15.1,7,15.8c0.2,0.1,0.5,0.1,0.8,0.2c0.3,0,0.5-0.1,0.8-0.2c1.8-0.7,5-13.1,7-15.8s2.5-6.7,2.5-6.7
		s1,3.4,4-2.2C116.9-265.5,111.1-264.4,111.1-264.4z"/>
	
		<linearGradient id="Path_26_" gradientUnits="userSpaceOnUse" x1="-236.793" y1="-113.2279" x2="-236.651" y2="-114.1227" gradientTransform="matrix(7.2 0 0 -3.4613 1804.4945 -638.155)">
		<stop  offset="0" style="stop-color:#FA8C5C"/>
		<stop  offset="1" style="stop-color:#FA8C5C;stop-opacity:0"/>
	</linearGradient>
	<path id="Path_35_" class="st16" d="M96-246.2c0,0,3.2,4,4.1,3.4c0.4-0.3,1.7-0.8,2-1.6c0.4-1,1.1-1.8,1.1-1.8l-1.5,0.7
		c-1.3,0.6-2.7,0.6-4,0L96-246.2z"/>
	<path id="Path_59_" class="st17" d="M88.6-261.5c0,0-3.3-7.8-1.1-12.6c2.2-4.8,7.5-4,8.6-7.3c1.1-3.3,19.4-5.8,18.8,5.8
		s-4.4,14.1-4.4,14.1l-1.7-11.8l-2.8,1.2c-3.3,1.1-6.8,1.4-10.2,0.8l-4.3-1.5L88.6-261.5z"/>
	<rect id="Rectangle_2_" x="76.6" y="-138.4" class="st18" width="52.7" height="8"/>
	<rect id="Rectangle_3_" x="97.4" y="-138.7" class="st11" width="11" height="8.5"/>
	<g id="Rectangle_4_" transform="translate(395.000000, 146.000000)">
		<rect x="-312" y="-284.7" class="st19" width="3" height="8.2"/>
		<rect x="-273.4" y="-284.7" class="st19" width="3" height="8.2"/>
	</g>
	
		<rect id="Rectangle_5_" x="-10.1" y="-241.9" transform="matrix(0.9321 -0.3622 0.3622 0.9321 79.6208 -18.5226)" class="st19" width="1" height="40.5"/>
	
		<rect id="Rectangle_6_" x="-19.4" y="-224.5" transform="matrix(7.416267e-02 -0.9972 0.9972 7.416267e-02 225.3563 -205.2492)" class="st19" width="43" height="1"/>
	<rect id="Rectangle_7_" x="-3.3" y="-203.6" class="st19" width="5.5" height="3.2"/>
	<path id="Path_60_" class="st15" d="M159.9-206.5c0,0,4.5,48-8.1,80.2c0,0-6,6.9-8.3,8.5c-2.3,1.6-3.7-4-3.7-4.9c0-0.9-1.7,1.9-3,0
		c-1.3-1.9-2.7-4.2,0-6.2c0.8-0.6,10.9-5.8,11.2-15.5c0.6-20.8-9.5-54.7-9.5-54.7"/>
	
		<linearGradient id="Path_27_" gradientUnits="userSpaceOnUse" x1="-230.3462" y1="-98.2261" x2="-229.8154" y2="-97.2406" gradientTransform="matrix(15.9109 0 0 -22.2096 3792.375 -2359.24)">
		<stop  offset="0" style="stop-color:#0040A2"/>
		<stop  offset="1" style="stop-color:#0012A2"/>
	</linearGradient>
	<path id="Path_61_" class="st20" d="M135.1-176.9c0,0-13.3-1.4-13-7.2c0.3-5.8,15.5-21.9,15.9-11.7c0.1,3.5-1.1,7.7-1.5,10.5
		C135.6-179.9,135.1-176.9,135.1-176.9z"/>
	<path id="Path_62_" class="st15" d="M41.3-237.9c0,0-1.8-3.2-3.2-3.2c-1.4,0-5.8-1.2-7.4-0.1c0,0-4.1,2.1-4.2,2.4
		c-0.1,0.2,0.7,0.4,1.4,0.6c-0.2,0.5-0.5,1.2-0.7,2c-1.3,3.9-0.6,3.5,1.2,1.6c0.4-0.5,0.9-0.8,1.4-1.1c0.3-0.2,0.6-0.3,0.9-0.4
		c-0.3,1.8-0.7,4.6-0.6,5.4c0.1,1,4.1-3.9,5.3-5.5c0.3-0.3,0.3-0.4,0.5,0.9l0,0c-0.3,1.8-1,5.9-0.5,6.1s1.5-3.3,2.3-5.3
		c1.1-0.3,2.2-1.1,2.2-1.1l2.5,0.3c1.2,0.3,2.6,0.5,2.6,0C44.8-236.3,41.3-237.9,41.3-237.9z"/>
	<ellipse id="Oval_7_" class="st2" cx="93.9" cy="-264.5" rx="1" ry="1.2"/>
	<path id="Path_63_" class="st7" d="M96-267.7c-0.1,0.2-0.2,0.4-0.4,0.4c-1,0.2-3.6,0.4-3.9,0.2c-0.3-0.2,2.5-0.8,3.7-1.1
		C95.7-268.2,96.1-267.9,96-267.7z"/>
	<path id="Path-Copy" class="st7" d="M101.8-267.5c0.1,0.2,0.3,0.4,0.4,0.4c1,0.1,3.6,0,3.9-0.2c0.3-0.2-2.6-0.5-3.8-0.7
		C102-268,101.7-267.7,101.8-267.5z"/>
	<ellipse id="Oval_8_" class="st2" cx="104" cy="-264.5" rx="1" ry="1.2"/>
	
		<linearGradient id="Path_28_" gradientUnits="userSpaceOnUse" x1="-241.5959" y1="-119.9201" x2="-241.4505" y2="-120.7968" gradientTransform="matrix(5.1502 0 0 -2.5627 1343.8936 -566.0035)">
		<stop  offset="0" style="stop-color:#FA8C5C"/>
		<stop  offset="1" style="stop-color:#FA8C5C;stop-opacity:0"/>
	</linearGradient>
	<path id="Path_64_" class="st21" d="M97-258.7c0,0,2.3,2.9,3,2.4c0.2-0.2,1.2-0.7,1.4-1.2c0.3-0.8,0.8-1.3,0.8-1.3l-1.1,0.5
		c-0.9,0.4-2,0.4-3,0L97-258.7z"/>
	<path id="Path_65_" class="st22" d="M96.8-253.8c0,0,3.2,0.8,4.2,0.4c1-0.3,2.2-1.2,2.2-1.2s-1,2.3-2.4,2.5
		C99.4-251.9,96.8-253.8,96.8-253.8z"/>
	<path id="Oval_11_" class="st23" d="M-160.3-273.7"/>
	<g id="Group_1_" transform="translate(141.000000, 29.000000)">
		<line id="Rectangle_10_" class="st11" x1="-302.5" y1="-313" x2="-304.4" y2="-313.5"/>
	</g>
</g>
</svg>
