<svg width="473" height="243" xmlns="http://www.w3.org/2000/svg"><desc>Created with Sketch.</desc><defs><linearGradient x1="59.117%" y1="108.112%" x2="46.068%" y2="8.98%" id="a"><stop stop-color="#0C2039" offset="0%"/><stop stop-color="#193153" offset="76.28%"/></linearGradient><linearGradient x1="49.995%" y1="98.758%" x2="49.995%" y2="-2.41%" id="b"><stop stop-color="#0040A2" offset="0%"/><stop stop-color="#0040A2" offset="100%"/></linearGradient><linearGradient x1="52.908%" y1="10.268%" x2="45.991%" y2="96.487%" id="c"><stop stop-color="#0C2039" offset="0%"/><stop stop-color="#193153" stop-opacity="0" offset="100%"/></linearGradient><linearGradient x1="93.684%" y1="35.397%" x2="5.463%" y2="50.185%" id="d"><stop stop-color="#BE5259" offset="0%"/><stop stop-color="#FF9F77" stop-opacity="0" offset="99.82%"/></linearGradient><linearGradient x1="72.287%" y1="42.511%" x2="-17.505%" y2="131.044%" id="e"><stop stop-color="#DC7464" offset="0%"/><stop stop-color="#FA8C5C" stop-opacity="0" offset="100%"/></linearGradient><linearGradient x1="53.277%" y1="108.221%" x2="47.269%" y2="4.803%" id="f"><stop stop-color="#0C2120" offset="0%"/><stop stop-color="#193153" offset="76.28%"/></linearGradient><linearGradient x1="51.068%" y1="149.217%" x2="49.68%" y2="-21.863%" id="g"><stop stop-color="#0C2039" offset="0%"/><stop stop-color="#193153" offset="76.28%"/></linearGradient><linearGradient x1="50.039%" y1="98.535%" x2="50.039%" y2="2.235%" id="h"><stop stop-color="#FF8F00" offset="0%"/><stop stop-color="#FFAB00" offset="100%"/></linearGradient><linearGradient x1="63.725%" y1="-2.754%" x2="35.852%" y2="96.487%" id="i"><stop stop-color="#00F6FF" offset="0%"/><stop stop-color="#17A8EE" offset="100%"/></linearGradient><linearGradient x1=".102%" y1="49.948%" x2="100.145%" y2="49.948%" id="j"><stop stop-color="#00EBFF" offset="0%"/><stop stop-color="#1D83EE" offset="100%"/></linearGradient><linearGradient x1="-.185%" y1="50.048%" x2="99.769%" y2="50.048%" id="k"><stop stop-color="#4D0C93" offset="33.13%"/><stop stop-color="#933FCF" offset="100%"/></linearGradient><linearGradient x1=".026%" y1="50.241%" x2="100.089%" y2="50.241%" id="l"><stop stop-color="#8C32CB" offset="33.13%"/><stop stop-color="#933FCF" offset="100%"/></linearGradient><linearGradient x1="51.075%" y1="16.877%" x2="23.727%" y2="77.972%" id="m"><stop stop-color="#FA8C5C" offset="0%"/><stop stop-color="#FA8C5C" stop-opacity="0" offset="100%"/></linearGradient><linearGradient x1="50.154%" y1=".276%" x2="64.714%" y2="91.313%" id="n"><stop stop-color="#FA8C5C" offset="0%"/><stop stop-color="#FA8C5C" stop-opacity="0" offset="100%"/></linearGradient><linearGradient x1="49.984%" y1="4.452%" x2="64.53%" y2="92.128%" id="o"><stop stop-color="#FA8C5C" offset="0%"/><stop stop-color="#FA8C5C" stop-opacity="0" offset="100%"/></linearGradient><linearGradient x1="48.941%" y1=".045%" x2="63.143%" y2="89.53%" id="p"><stop stop-color="#FA8C5C" offset="0%"/><stop stop-color="#FA8C5C" stop-opacity="0" offset="100%"/></linearGradient><linearGradient x1="78.807%" y1="11.299%" x2="34.733%" y2="101.151%" id="q"><stop stop-color="#00D5FA" offset="0%"/><stop stop-color="#1D83EE" offset="100%"/></linearGradient><linearGradient x1="49.972%" y1="95.821%" x2="49.972%" y2=".287%" id="r"><stop stop-color="#E2E2E2" offset="0%"/><stop stop-color="#FFF" offset="100%"/></linearGradient><linearGradient x1="72.668%" y1="38.658%" x2="-17.419%" y2="126.921%" id="s"><stop stop-color="#FA8C5C" offset="0%"/><stop stop-color="#FA8C5C" stop-opacity="0" offset="100%"/></linearGradient><linearGradient x1="33.146%" y1="96.638%" x2="86.222%" y2="-1.914%" id="t"><stop stop-color="#0040A2" offset="0%"/><stop stop-color="#0012A2" offset="100%"/></linearGradient><linearGradient x1="49.395%" y1="5.975%" x2="63.939%" y2="93.652%" id="u"><stop stop-color="#FA8C5C" offset="0%"/><stop stop-color="#FA8C5C" stop-opacity="0" offset="100%"/></linearGradient></defs><g fill="none" fill-rule="evenodd"><path fill="#9FFF72" d="M152.6 198.6L218 72.5l144.8-4.4 46.8 122z"/><path fill="#00ECFF" opacity=".4" d="M236.743.375l54.094.863-.863 54.094-54.094-.863z"/><path fill="#00B94A" d="M198.7 153.6l17.9 89.4 177.2-59.8-5-26z"/><g transform="translate(0 44)"><path d="M355.9 96.8c-4.3-28.1-12.6-36.3-12.6-36.3l-29.8-22.2-11.5 2.6s-25.8 10.9-28.5 28.4c-2.6 17.4 12.1 21.6 13.3 28.5l-.5 31.7c-2.4 12.6-1.1 25.3-.2 31.5.3 2.1 2.2 3.7 4.3 3.7h58.7c2.4 0 4.4-2 4.4-4.4l-.2-9.6c-1.3-9.5 4.6-40.7 2.6-53.9z" fill="url(#a)"/><path d="M450.7 85.8l21.4-7.4c-1.4-17.9-10.9-28.7-10.9-28.7-9.1-11.7-38.6-15.9-47-16-8.4-.1-22.7 6.5-22.7 6.5s-5.9 2.9-16.6 4.9c-10.7 2-16.5 20-16.5 20s4.2 33.3 11.7 33c7.5-.3 3.6 4 6.3 7.8 2.7 3.8 12.4 40.5 12.4 40.5h52.7l9.2-60.6z" fill="url(#b)"/><path d="M365.1 113.6c-4.9 11.4-9.2 25.5-9.2 25.5l4.4 6c3.4-5.1 34.1-15.3 33.4-43.6-.5-19.5-24.2-30.5-26.5-38.9-5.5-20.6-53.8-24.4-53.8-24.4l7.5 8.6 19.7 26.6 1.2 16.2 22.2 20.2 1.1 3.8z" fill="#193153"/><path d="M313.6 40.7s-33.8 5.2-39.3 25.1c-2.2 8.1-9.1 25.8-10.9 45.1-2.6 28.1 22.3 28.4 20.4 34.8l2.9-10.6s.7-8.3-2-20.2c-.1-.7-.3-1.3-.4-2-1-7 .2-6.8 5.1-12.8l17.3-17.5-5.8-13.6 21.7-28.2-9-.1z" fill="#193153"/><path d="M281.6 72.1s5.4 17.1 5.2 20.7c-.1 3.6-5.3-16.2-5.3-16.2s-1.1-7.9.1-4.5z" fill="#0C2039"/><path d="M351.5 97.5s-12.1-9.6-12.9-8.4c-.8 1.1-6.7 17.5.8 24.4 7.5 6.9 12.1-16 12.1-16z" fill="url(#c)"/><path d="M355.9 139.2l-4.6.6s-2.7-.8-4.1-.4c-1.5.4-3.3.6-3.8 0-.6-.6-.5 1.7.8 1.9 1.2.2 3.5.7 3.5.7s-4.8 4.3-5.4 5c-.6.6-1.6 1.7-2.2 2.4-.6.7-.2.8 1.7.1 1.9-.8 5.2-3.6 5.2-3.6l-5.6 5.8c-.4.3 0 1 .5.9l6.6-4.1-4.3 3.9c-.5.5-.1 1.3.6 1l4.6-3-1.4 2.6c-.3.3 0 .7.4.6l5.3-2.9c2.2-1.2 3.8-3.4 3.8-3.4l3.2-2-4.8-6.1zM323.8 24.1c.1-2.8-.3-10.7-1.1-13.2-.3-.9.4-.1-.3-.9-3.5-4.6-7.8-6.6-13.2-4.2-5 2.2-9.5 10.7-9.5 15.5-.8-.6-1.7-1.1-2.7-1.5-.2-.1-.5-.1-.7 0-.4 0-.9 0-1.4.3-.3.1-.4.5-.4.7.2.9.3 2 .7 2.8.4.8 1.2 1.5 1.9 2.2 1.4 1.3 2.3 2.2 2.3 4.1.1 1.2-.2 1.5-.4 2.7-.1.5-.3 10.6-.4 11.1-.1.9-.2 1.8-.2 2.7-.1 5 11.1 3.5 11.9-1.5.2-1.3-.8-2.9.1-3.9 1.6-1.9 1.6-1.7 3-2.4 1.9-1 2.1-.7 4.3-1.2 2.7-.6 4-2.8 4.7-5.1.8-2.5 1.3-5.4 1.4-8.2z" fill="#FF9F77"/><path d="M305.4 42.9s-3.4-7.9-2.1-5.8c.3.5 1.9.8 4.8 1.2 3.3.5 6.3-.2 6.3-.2s-2.5 1.8-3.9 3c-1.2 1-5.1 1.8-5.1 1.8z" fill="url(#d)"/><path d="M314.89 22.384c-.377.033-.73-.44-.787-1.057-.056-.617.204-1.144.582-1.177.378-.033.73.44.787 1.056.057.617-.203 1.144-.581 1.178zM321.65 21.94c-.379.033-.731-.44-.788-1.057-.057-.617.204-1.144.582-1.177.378-.033.73.44.787 1.056.057.617-.204 1.144-.582 1.178zM311.108 18.12c0-.225.114-.449.343-.449 1.031-.112 3.55-.56 3.78-.449.229.113-2.52.897-3.665 1.234-.23.224-.458 0-.458-.337zM323.134 18.007c-.115.225-.344.337-.459.337-1.03-.112-3.55-.56-3.779-.785-.23-.224 2.634-.112 3.894-.112.23 0 .458.336.344.56z" fill="#2E284F"/><path d="M316.49 27.987s4.582-2.355 4.582-1.346c0 1.01-2.29 2.018-2.29 2.018l-2.291-.672z" fill="url(#e)"/><path d="M309.963 30.117s2.061.897 2.863 1.009c.802.112 2.061 0 2.061 0s-1.603.673-2.748.449c-1.031-.225-2.176-1.458-2.176-1.458z" fill="#193153"/><path d="M286.5 138.6s-3.5 1-3.9 2.4c-.4 1.4-3.2 5.6-2.5 7.5.7 1.9.8 2.7 4.3 4.9s3.8.8 2.3-1.4c-.4-.5-.6-1.1-.8-1.6-.4-1.5-.1-2.6-.1-2.6s2.6 3.5 3.2 3.7c.7.2-2.2-4.7-2-5.7.1-1 .5 1.6 2.7 2 2.2.4-1.4-7-1.4-7l1.9-1.1c.1-.1-1.2-2.1-3.7-1.1z" fill="#FF9F77"/><path d="M299.2 38.3s4.3 2.4 8.5 2.4c2.2 0 4.6-2.3 5.8-2.4 1.7-.2 3.1 5.2 2.7 7.6-.4 2.4-3.5 4.6-5.3 5.3-3.6 1.3-12.8-2.2-13.7-3.2-.9-1-.6-7.1-.2-8.3.4-1.2 2.2-1.4 2.2-1.4z" fill="url(#f)"/><path d="M289.9 164.7s-1 2.2 0 3.3c1 1.1 62.1 3 61.6 1.4-.5-1.5 0-5.2 0-5.2l-61.6.5z" fill="url(#g)"/><path fill="#FFF" d="M303.8 83.3h15.8v21.3h-15.8z"/><path d="M306.8 87.1h3.1V95h-3.1zM313.4 87.1h3.1V95h-3.1z" fill="#00B94A"/><path fill="#71DC44" d="M306.8 87.1h3.1l1.8 3 1.7-3h3.2l-4.9 7.9z"/><path d="M320.5 5.4c-5.7-7.2-23.8-3.7-27.6 3.9-3.9 7.6 1.8 16.8 1.8 16.8s4.4 6.6 4.9 3.9c.4-2.7-2.3-4.1-2.3-4.1s-2.4-1.7-2.4-4 3.2-1.5 3.2-1.5l1.7 1 1.8 6.2 1.4-6.3-.3-1.3c.4-.4.7-.8 1.1-1.3 1-1.5 1.7-6.8 1.7-6.8.6-.9 1.1-1.6 1.6-2.2 0 0 10.4 2.7 11.6 1.8 1-.8 3.5-.8 3.5-1.7 1.6.5 1.8 0-1.7-4.4z" fill="#032336"/><path d="M192.5 109.5s-16.9 33.5-44 19.2-24.2-70.9-24.2-70.9l8.9-5s12.9 36.9 22.2 41.3c7.1 3.4 16.7-16.6 20.9-26.3 1.6-3.7 4-6.9 7-9.4 6.9-5.8 19.5-15.3 26.2-14 9.6 2 17.3 1.9 33.4 11.3 0 0 20.6 10.1 23.3 15.4 2.7 5.3 6.3 27 6.8 40.6.3 8.8-6.8 24.5-11.9 34.4-4 7.8-11.8 13-20.5 13.5-.5 0-1 0-1.5.1-10.7.3-46.6-50.2-46.6-50.2z" fill="url(#h)"/><path d="M227.9 39.6c-.7-1.5 0-6.8 0-6.8l-3.6-1.3-11.8 4-11.8-4-3.6 1.3s.7 5.3 0 6.8-4.3 1.2-1.4 5.1c2.9 3.9 11.8 2.2 11.8 2.2l5-9.9 5 9.9s8.9 1.7 11.8-2.2c3-3.9-.7-3.7-1.4-5.1z" fill="#032336"/><path fill="#FFF" d="M207.5 47v76.2l18.3 11.8-8.3-88z"/><path d="M226 25.3l.6-11.2-14.1.2-14.1-.2.6 11.2s-6.8-1.2-3.2 5.3c3.6 6.5 4.7 2.5 4.7 2.5s.6 4.7 2.9 7.9c2.4 3.1 6.2 13.1 8.2 13.9.3.1.6.2.9.2.3 0 .6-.1.9-.2 2.1-.8 5.9-10.7 8.2-13.9 2.4-3.1 2.9-7.9 2.9-7.9s1.2 3.9 4.7-2.5-3.2-5.3-3.2-5.3z" fill="#FFC3A5"/><path d="M223.3 3.8c-2.4-1.4-5.5-2.1-9.2-.1L210 8.1s-5.7-1-11.8 0c-6 1-1.6 17.2-1.6 17.2h2.3s2.6 4.9 2.4 3.5c-.3-1.3 1.2-10.4 2.4-11.9s6.9-2.6 6.9-2.6 2.1 10.1 7.6 12.3c5.6 2.2 7.8-1.3 7.8-1.3l2.7.1V13.6c0-3.9-2-7.7-5.4-9.8zM218.5 21c-.7-2.5 4 3 4 3s-3.4-.4-4-3z" fill="#032336" fill-rule="nonzero"/><path d="M149.4 115c-2.9-6.1-27.6-26.9-27.6-26.9-6-12.1-11.6-22.7-15.6-26.5-10.6-10.1-47.4-1.5-47.4-1.5S3.8 80 .7 102.8c-3.1 22.7 34.1 79.6 61.8 85.2 16.8 3.4 32-19.2 43.9-33.9 0 0 33.8-8.8 43-14.8 9.2-6.2 2.9-18.3 0-24.3z" fill="url(#i)"/><path d="M57.1 49.8s-20.5 3.4-21.8 6.9c-1.3 3.5-5.9 9.6 4.2 14.8 3.1 1.6 11.2 1.7 15.8 2.7 5.4 1.2 9.6 5.7 13.8 5.2 5.4-.7 7.4-1.5 8.3-5.8.4-1.6-1.3-4.7-1.6-6.1-1-4.5-18.7-17.7-18.7-17.7z" fill="#00EBFF"/><path d="M72.9 71L59 49.8l-2.7.2c-3.3 2.3-5 5.7-4.9 10.5.1 3.9 12.3 11 16.8 13.4 1.1.6 3.4-2.1 4.6-2.7" fill="url(#j)"/><path d="M71.6 71.7c.6.2 1.2-.2 1.3-.7.8-2.3 4.4-8.3 6.5-9.9 2-1.6 4.2-2.1 6.6-3.2 3-1.4 4-4 4.2-6.9.6-7.4-.4-16.3-6.6-21.8-5.2-4.6-13.1-5.1-18.9-1-5.4 3.8-6.9 9.9-5.8 15.7-1.1-.5-2.2-.9-3.5-1.2-.3-.1-.6 0-.8.1-.5.1-1.1.2-1.6.6-.3.2-.4.7-.3 1 .9 2.2 2.2 4 4.3 5.3 1.9 1.2 3.1 2.1 3.7 4.3 4.8 16.5 10.9 17.7 10.9 17.7z" fill="#FFC3A5"/><path d="M57.1 43.2S55 31.3 56 29.2c1-2.1 6.7-8.4 12.8-8.1 6.1.3 9.6-.9 11.6 1.4s3.3 6.7 3.3 6.7l-17.2 8.9-7.4 5.8-2-.7z" fill="url(#k)"/><path fill="#00B94A" d="M72.1 24.2l2.5-.2 1.3 5.3-2.6.6zM77.2 23.9l1.9-.2 1.1 4.6-1.9.5z"/><path fill="#71DC44" d="M72.1 24.2l2.5-.2 1.8 1.9.8-2 1.9-.2-2 5.3z"/><path d="M59 43.9s29.8-26 36-22.6c6.2 3.4-6.1 16-6.1 16s-.305-.85-.862-2.06C86.44 31.765 80.803 26.991 59 43.9z" fill="url(#l)"/><path d="M64.8 55.3s7.3 13.4 9.7 12.6c1-.3 1.6-2.7 2.7-4.2 1.6-2.1 3.7-3.4 3.7-3.4l-16.1-5z" fill="url(#m)"/><path d="M208.4 46.6s3.7 4.6 4.7 3.9c.4-.3 2-1 2.3-1.8.4-1.2 1.2-2.1 1.2-2.1l-1.8.8c-1.5.7-3.2.7-4.7 0l-1.7-.8z" fill="url(#n)"/><path d="M210.276 34.017s2.328 3.008 2.994 2.451c.222-.223 1.22-.668 1.441-1.225.333-.78.777-1.337.777-1.337l-1.11.557c-.886.445-1.995.445-2.993 0l-1.11-.446z" fill="url(#o)"/><path d="M423.3 20.4l.5-9.6-12.1.2-12.1-.2.5 9.6s-5.8-1-2.8 4.5 4 2.2 4 2.2.5 4.1 2.5 6.7c2 2.7 5.3 15.1 7 15.8.2.1.5.1.8.2.3 0 .5-.1.8-.2 1.8-.7 5-13.1 7-15.8 2-2.7 2.5-6.7 2.5-6.7s1 3.4 4-2.2c3.2-5.6-2.6-4.5-2.6-4.5z" fill="#FFC3A5"/><path d="M408.2 38.6s3.2 4 4.1 3.4c.4-.3 1.7-.8 2-1.6.4-1 1.1-1.8 1.1-1.8l-1.5.7c-1.3.6-2.7.6-4 0l-1.7-.7z" fill="url(#p)"/><path d="M60.9 42.5s7.8 7.2 10.7 6.8c2.8-.4 11.1-4 14.3-3.4 3.2.7 4.4-1.4 4.4-1.4S93 54.8 91.8 57c-1.2 2.3-2.5 3.1-5.6 4-3.1 1-12.9 2.4-18.6-2.6-5.7-5-8.6-14.5-8.6-14.5l1.9-1.4z" fill="#4A1E0C"/><path d="M106.4 154s9.9-34 16.6-33.6c6.7.3 7.4 14.5 3.4 19.5s-20 14.1-20 14.1z" fill="url(#q)"/><path d="M77.5 103.9c-.4 0-.9-.2-1.2-.6-1.5-1.9-2.3-4-3.3-11.3-.9-6.9-6.5-14-6.6-14-.5-.6-.4-1.6.2-2.1.6-.5 1.6-.4 2.1.2.3.3 6.2 7.8 7.2 15.5.9 7.2 1.7 8.6 2.6 9.9.5.7.4 1.6-.3 2.1-.1.2-.4.3-.7.3zM87.2 99.7c-.4 0-.9-.2-1.2-.6-1.5-1.9-2.3-4-3.3-11.3-.9-6.9-6.5-14-6.6-14-.5-.6-.4-1.6.2-2.1.6-.5 1.6-.4 2.1.2.3.3 6.2 7.8 7.2 15.5.9 7.2 1.7 8.6 2.6 9.9.5.7.4 1.6-.3 2.1 0 .1-.3.3-.7.3z" fill="#FFF"/><path d="M74.5 131.2l-10-3s-10.2 9.7-9.2 10.8c1 1.2 6.2-4 7.7-5.4 1.5-1.4-4.9 4.4-4.5 6.4.3 1.3 10.4-3.2 11.3-2.9 1 .3-3 2.8-3.6 3.4-.6.6 4.1.4 5.3-.9 1.2-1.3 8.8-5.9 8.8-5.9l-5.8-2.5zM120 111.6s-1.2-3.7-4.2-4c-3-.3 4.2-3 7.9-1.3s-1 6.6-2 7.4c-1 .8-1.7-2.1-1.7-2.1zM134.2 33.2c.2-1.6-1.8 1-3.2 1.7l-1.2-4.5c.1-.6.1-1.2.2-1.6.2-1.1.2-3.1 0-4.4 0-.4-.6-.5-.7-.1-.9 2.1-1.8 7-2.4 6.6-.6-.4-1.1-4.3-1.4-6.5-.1-.4-.6-.4-.7 0-.3 2.3-.3 5.9-.8 5.9-.8 0-1.2-2.3-2.1-3.6-.3-.4-.9-.2-.9.3.1 1.3.8 3.6.5 4.9-.3 1.3-.7 1.4-1.1.8-1-1.7-2.6-2.9-2.5-1.9 0 .8 5.1 13.5 5.1 13.5l1.1 13.5 9-3.6s-1.4-13.9-1-15.5c.7-1.6 1.9-3.9 2.1-5.5z" fill="#FFC3A5"/><path d="M41 103.6s12 16.8 11.8 22.9c-.2 6.1-11.8-22.9-11.8-22.9z" fill="#00A8F8"/><path d="M175.6 102.7s-3.1-10.6-1.4-11.6c1.7-.9 4.3 5.4 5.2 8.2.9 2.9 3.3-1.1 4.3-1.4 1-.3 3.1 2.8 1.7 4.7-1.4 1.9 3.7 4.3 3.7 4.3s-5.9 2.1-7.6 1.2c-1.7-.9-4.8 3.5-5.7 3.8-.9.3-5.7-1.7-4.5-2.6 1.2-.9 3.3-2.6 3.3-2.6l-3.5-5.2 4.5 1.2zM253.2 79.6l1.2-8.1s2.8 6.3 2.4 8.1c-.5 1.9 4.5 4 5.4 4 .9 0 2.6 4.7-1.5 3.3-4.2-1.4-3.5.2-2.4 2.4 1.1 2.1-2 5-3.4 2.4s-4.7-2.1-6.8-2.1c-2.1 0-3.1-4.7 0-4.3 3.1.5 2.8-2.6.9-4.5s-5.2-7.3-.5-4.3 4.7 3.1 4.7 3.1zM237.6 111.7l1.2-8.1s2.8 6.3 2.4 8.1c-.5 1.9 4.5 4 5.4 4 .9 0 2.6 4.7-1.5 3.3-4.2-1.4-3.5.2-2.4 2.4 1.1 2.1-2 5-3.4 2.4s-4.7-2.1-6.8-2.1c-2.1 0-3.1-4.7 0-4.3 3.1.5 2.8-2.6.9-4.5s-5.2-7.3-.5-4.3l4.7 3.1zM263.4 141.2c-.7-.6-1.1-1.2-.9-1.8.5-1.9-2.4-8.1-2.4-8.1l-1.2 8.1-4.7-3.1c-4.7-3.1-1.4 2.4.5 4.3s2.1 5-.9 4.5c-3.1-.5-2.1 4.3 0 4.3 1.5 0 3.6-.2 5.2.6 1.7-2.9 3.4-5.7 4.4-8.8zM182 68.5c-1.7 2.6 2.9 3.7 3.8 1.8.9-1.9 1.9-5.1 4.9-5.3 3-.2 1.7-4.2-.7-4.1-2.4.1-4.2 0-1.1-3.2 2.1-2.1.5-3-.9-3.1-1.7 1.3-3.3 2.6-4.7 3.8-2.5 2.1-4.6 4.7-6.2 7.7l1.2-.3c2.6-1 5.4.1 3.7 2.7zM223.2 80.5l-1.8 1.1.3 3.5c.3-.1.5-.1.7-.2 2.5-.9 5.4.2 3.6 2.8-1.8 2.6 2.9 3.7 3.8 1.8.9-1.9 1.9-5.1 4.9-5.3 3-.2 1.7-4.2-.7-4.1-2.4.1-4.2 0-1.1-3.2 3.1-3.1-1.9-3.6-2.3-2.8-.4.9-4.5 4.4-6 3.2-.6-.5-2.2-.8-3.9-1l.3 2.9 2.2 1.3zM135.3 72.9c-1.5-1.2-8.4-1.4-8.4-1.4l6.9 4.6L129 79c-4.8 2.9 1.5 2.3 4 1.4 2.5-.9 5.4.2 3.6 2.8-1.7 2.6 2.9 3.7 3.8 1.8.8-1.8 1.8-4.6 4.2-5.2-.7-1.4-1.4-2.9-2.1-4.3-.5-.2-.8-.5-.5-1.1-.6-1.3-1.2-2.5-1.7-3.7-1.3 1.3-3.9 3.1-5 2.2z" fill="#FFD16F"/><path d="M241.7 165.9h-72.6c-2.6 0-4.9-1.8-5.6-4.3l-.8-3h85l-.3 2.3c-.3 2.8-2.8 5-5.7 5z" fill="#B1B1B1"/><path d="M240 163.6h-72.6c-1 0-1.8-.8-1.9-1.7l-3.4-43.4c-.1-1.1.8-2 1.9-2h72.6c1 0 1.8.8 1.9 1.7l3.4 43.4c0 1.1-.8 2-1.9 2z" fill="url(#r)"/><circle fill="#B1B1B1" cx="202" cy="140" r="5"/><path d="M78.262 41.86c-.488.106-1.013-.4-1.174-1.133-.16-.732.106-1.412.594-1.519.488-.107 1.013.4 1.174 1.132.16.732-.105 1.412-.594 1.52zM85.952 40.201c-.493.085-.995-.446-1.121-1.185-.127-.738.17-1.406.663-1.49.492-.084.994.446 1.12 1.185.127.739-.17 1.406-.662 1.49zM74.013 38.746c-.113-.226 0-.566.226-.679 1.018-.678 3.732-2.262 4.071-2.262.34 0-2.375 2.262-3.506 3.167-.339.226-.678.113-.791-.226zM87.392 35.353c0 .226-.226.452-.452.566-1.244.113-4.297.565-4.636.452-.34-.113 3.053-1.13 4.523-1.47.34-.226.565.113.565.452z" fill="#4D0096"/><path d="M9.5 11s5.3-2.8 5.3-1.6c0 1.2-2.7 2.4-2.7 2.4L9.5 11z" fill="url(#s)" transform="translate(72 34)"/><path d="M72.6 52.5s2.4.4 3.3.3c.9-.2 2.2-.6 2.2-.6s-1.5 1.1-2.7 1.2c-1.2.2-2.8-.9-2.8-.9z" fill="#FFC3A5"/><ellipse fill="#032336" cx="207.728" cy="26.775" rx="1" ry="1.448"/><ellipse fill="#032336" cx="217.703" cy="26.775" rx="1" ry="1.448"/><path d="M206.508 37.362s2.107 1.003 2.994 1.003c.887.111 2.107 0 2.107 0s-1.664.668-2.773.446c-1.22-.112-2.328-1.449-2.328-1.449z" fill="#DC4138"/><path d="M204.512 22.542c.11-.334.332-.557.665-.557 1.33 0 4.88.111 5.212.334.332.223-3.549.668-5.212.891-.443.112-.776-.334-.665-.668z" fill="#032336"/><path d="M400.8 23.3s-3.3-7.8-1.1-12.6c2.2-4.8 7.5-4 8.6-7.3 1.1-3.3 19.4-5.8 18.8 5.8-.6 11.6-4.4 14.1-4.4 14.1L421 11.5l-2.8 1.2c-3.3 1.1-6.8 1.4-10.2.8l-4.3-1.5-2.9 11.3z" fill="#3A0374"/><path fill="#7397CB" d="M388.8 146.4h52.7v8h-52.7z"/><path fill="#FFF" d="M409.6 146.1h11v8.5h-11z"/><g fill="#0040A2"><path d="M395.2 146.1h3v8.2h-3zM433.8 146.1h3v8.2h-3z"/></g><path fill="#0040A2" d="M294.816 44.514l.933-.362 14.669 37.75-.932.362zM312.255 82.24l3.188-42.88.998.075-3.19 42.88z"/><path fill="#0040A2" d="M308.9 81.2h5.5v3.2h-5.5z"/><path d="M472.1 78.3s4.5 48-8.1 80.2c0 0-6 6.9-8.3 8.5-2.3 1.6-3.7-4-3.7-4.9 0-.9-1.7 1.9-3 0s-2.7-4.2 0-6.2c.8-.6 10.9-5.8 11.2-15.5.6-20.8-9.5-54.7-9.5-54.7" fill="#FFC3A5"/><path d="M447.3 107.9s-13.3-1.4-13-7.2c.3-5.8 15.5-21.9 15.9-11.7.1 3.5-1.1 7.7-1.5 10.5l-1.4 8.4z" fill="url(#t)"/><path d="M353.5 46.9s-1.8-3.2-3.2-3.2c-1.4 0-5.8-1.2-7.4-.1 0 0-4.1 2.1-4.2 2.4-.1.2.7.4 1.4.6-.2.5-.5 1.2-.7 2-1.3 3.9-.6 3.5 1.2 1.6.4-.5.9-.8 1.4-1.1.3-.2.6-.3.9-.4-.3 1.8-.7 4.6-.6 5.4.1 1 4.1-3.9 5.3-5.5.3-.3.3-.4.5.9-.3 1.8-1 5.9-.5 6.1.5.2 1.5-3.3 2.3-5.3 1.1-.3 2.2-1.1 2.2-1.1l2.5.3c1.2.3 2.6.5 2.6 0-.2-1-3.7-2.6-3.7-2.6z" fill="#FFC3A5"/><ellipse fill="#193153" cx="406.159" cy="20.361" rx="1" ry="1.194"/><path d="M408.211 17.136c-.052.247-.244.414-.355.444-1.025.158-3.575.377-3.854.22-.28-.157 2.515-.79 3.732-1.116.222-.06.53.206.477.452zM414.037 17.355c.078.24.286.386.4.404 1.035.05 3.594.002 3.855-.184.262-.186-2.584-.523-3.828-.72-.226-.036-.505.26-.427.5z" fill="#2E284F"/><ellipse fill="#193153" cx="416.241" cy="20.361" rx="1" ry="1.194"/><path d="M409.228 26.112s2.3 2.93 2.958 2.387c.22-.217 1.206-.65 1.425-1.193.328-.76.767-1.302.767-1.302l-1.096.542c-.877.434-1.972.434-2.959 0l-1.095-.434z" fill="url(#u)"/><path d="M409.008 30.995s3.178.76 4.164.434c.987-.325 2.192-1.194 2.192-1.194s-.986 2.28-2.41 2.496c-1.316.217-3.946-1.736-3.946-1.736z" fill="#934528"/></g><circle fill="#00B7FA" cx="151.9" cy="37" r="18.1"/><g fill="#FFF"><path d="M147.8 33l-1.4-1.4L141 37l5.4 5.4 1.4-1.4-4-4zM157.4 31.6L156 33l3.9 4-3.9 4 1.4 1.4 5.4-5.4zM148.781 44.318l4.242-15.22 1.927.537-4.242 15.22z"/></g><circle fill="#00B7FA" cx="186.2" cy="39.7" r="3"/><g fill="#FFF"><path d="M250 16h8.3v2H250zM261.3 16h15.4v2h-15.4zM250 28h8.3v2H250zM261.3 28h15.4v2h-15.4zM250 20h11.8v2H250zM264.9 20h11.8v2h-11.8zM250 24h4.7v2H250zM257.8 24h9.5v2h-9.5zM270.2 24h6.5v2h-6.5z"/></g><circle fill="#9FFF72" cx="344.9" cy="38.5" r="6.2"/></g></svg>
