<?xml version="1.0" encoding="utf-8"?>
<!-- Generator: Adobe Illustrator 22.1.0, SVG Export Plug-In . SVG Version: 6.00 Build 0)  -->
<svg version="1.1" id="Layer_1" xmlns="http://www.w3.org/2000/svg" xmlns:xlink="http://www.w3.org/1999/xlink" x="0px" y="0px"
	 viewBox="0 0 302.6 319.4" style="enable-background:new 0 0 302.6 319.4;" xml:space="preserve">
<style type="text/css">
	.st0{fill:#3FC052;}
	.st1{fill:#6EDC66;}
	.st2{fill:#FFC4A8;}
	.st3{fill:#0C353E;}
	.st4{fill:#7499CA;}
	.st5{fill:#0243A0;}
	.st6{fill:#3A0D72;}
	.st7{fill:#072D5A;}
	.st8{fill:#FFFFFF;}
	.st9{fill:#0B2C33;}
	.st10{fill:#888F92;}
	.st11{fill:url(#SVGID_1_);}
	.st12{fill:#846256;}
	.st13{fill:#DBDFE1;}
</style>
<title>Group 2</title>
<desc>Created with Sketch.</desc>
<g>
	<g>
		<g id="Page-1_2_">
			<g id="Partners_2_" transform="translate(-60.000000, -506.000000)">
				<polygon id="Path_19_" class="st0" points="226.7,639.2 361.4,723.3 230.5,796.5 207.9,809.2 194.7,816.6 60,732.4 				"/>
			</g>
		</g>
		<g id="Page-1_1_">
			<g id="Partners_1_" transform="translate(-60.000000, -490.000000)">
				<polygon id="Path_18_" class="st1" points="226.7,599.5 361.4,683.7 194.7,776.9 60,692.8 				"/>
			</g>
		</g>
	</g>
	<g id="Page-1">
		<g id="Partners" transform="translate(-111.000000, -377.000000)">
			<g id="Group-2" transform="translate(110.000000, 377.000000)">
				<g id="Group">
					<path id="Path" class="st2" d="M151.4,70.8l3.7,20.9c0.2,0.9,0,1.9-0.5,2.8c-1.4,2.3-4.4,6.7-8,7.8s-6.4,2.3-8,3.7
						c-1.6,1.4-6.7,5.8-6.7,5.8s-1.6-4.4-0.4-6.7s5.7-4.6,5.7-4.6s5.7-3.2,5.1-7.8s-5.8-17.5-5.8-17.5L151.4,70.8z"/>
					<path id="Path_1_" class="st2" d="M128.4,192.3c0,0-0.7,3-0.2,3.7c0.5,0.7,5,0.9,5,0.9v-4.6H128.4z"/>
					<path id="Path_2_" class="st2" d="M112.6,182.4c0,0-0.2,4.1,0.5,4.8c0.7,0.7,3,0.5,3,0.5v-4.6L112.6,182.4z"/>
					<path id="Path_3_" class="st3" d="M107.5,86c0,0-3.2,33.1-1.6,47.9c1.6,15,5.7,47.6,5.7,47.6s2.5,3.2,5.5,2.3s0.5-72,0.5-72
						l9.7,80.5c0,0,5,2.5,6.4,0c0.9-1.6,0.7-47.8-0.2-75.5c-0.4-12.7-1.6-23.5-1.6-23.5L107.5,86z"/>
					<path id="Path_4_" class="st4" d="M132.1,89.9v3.4c-12.4-0.4-24.4-7.3-24.4-7.3v-4.2"/>
					<path id="Path_5_" class="st5" d="M111.7,30.6c0,0-10.6-5.7-13.3-1.6c-2.8,4.1-7.1,3.9-6.4,14.5c0.5,10.8,7.1,12.9,7.1,12.9
						s6.2,20.2,5.8,22.6s0.5,0.7,2.8,2.8c2.1,2.1,23.5,8.8,25.5,8.7c1.8-0.4,1.8-0.4,1.8-0.4l1.8-15.2l14.9-4.2c0,0,0-18-6.2-23.5
						c-6.2-5.5-20.2-12.2-20.2-12.2L111.7,30.6z"/>
					<path id="Path_6_" class="st2" d="M115.8,26.2c0,0-1.4-1.2-1.9-1.2c-0.7,0-1.9,1.2-1.1,2.5c0.9,1.2,1.9,1.6,1.9,1.6
						s-1.4,4.6-1.2,5.1c0,0.5,0.2,8.5,3.9,8.1c3.7-0.2,3.7-5.7,4.6-6c0.9-0.4,3.2-0.5,4.2-1.2s3.5-7.8,3.5-9.9s-0.2-6.7-0.5-7.4
						c-0.4-0.7-11,5.1-11,5.1L115.8,26.2z"/>
					<path id="Path_7_" class="st6" d="M119.5,24.4c0,0-0.2,2.8-1.4,3.7c-1.4,0.9-2.5-1.9-3.2-2.7c-0.7-0.7-2.8-4.2-1.6-6.2
						c0.5-0.9,0.4-3.2,1.9-4.6c2.1-1.9,6-2.8,8.8-2.1c4.8,1.1,9.6,0.7,7.8,3.5s-6,6.2-8.3,6.5C121.1,22.7,119.5,24.4,119.5,24.4z"/>
					<path id="Path_8_" class="st2" d="M91.9,43.5c0,0-5.3,6.9-6.9,6.9s-6-7.4-7.8-12.2C75.8,34.2,74,21.6,74,21.6l2.5-11.1
						c0,0-2.1-0.4-3,3c-0.9,3.4-5.5-7.3-5.3-8.7c0.2-1.6-2.8-2.8-3-1.2C65,5.3,62.4,10.4,64.7,15c2.3,4.6,4.4,10.6,4.4,10.6
						S65,49.9,76,59.3s23.2-2.7,23.2-2.7L91.9,43.5z"/>
					<polygon id="Path_9_" class="st7" points="99,56.4 100.4,44.6 94.7,48.8 					"/>
					<path id="Path_10_" class="st6" d="M129.2,18.9l4.2-1.2c0,0-1.9,4.1-7.3,3.5s-2.5-2.5-2.5-2.5L129.2,18.9z"/>
					<polygon id="Path_11_" class="st5" points="125,88.3 125,92.4 126.6,92.7 126.6,88.3 					"/>
					<path id="Path_12_" class="st8" d="M112.4,84c0,0-0.7,3.9-0.2,4.2c0.5,0.2,4.2,1.6,4.2,1.6l1.1-4.1L112.4,84z"/>
					<path id="Path_13_" class="st9" d="M109.8,184.9c0,0,3.9-0.4,4.2,0.4c0.4,0.5-0.4,2.5,0.5,2.7c0.9,0.2,1.1-1.4,1.8-1.4
						c0.7,0,1.1,2.5,1.1,3c0,0.4,0,1.1,0,1.8s-0.4,1.2-1.1,1.6l-2.8,1.4c0,0-2.1,1.1-3.2,3c-1.1,1.8-6.9,3.9-8.3,3
						c-1.4-0.9-1.1-6.4,2.7-8.8C108.5,189,109.8,184.9,109.8,184.9z"/>
					<path id="Path_14_" class="st9" d="M133,197.1c-1.1-0.2-1.6-1.2-2.5-1.8c-0.9-0.7-3.5-1.4-3.5-1.4c-1.6-0.4-1.2,3.2-1.1,4.1
						c0.2,0.9-1.9,4.2-3.5,6.7c-1.6,2.5-0.2,5.8,0.7,6.9c1.1,0.9,3.9-0.9,6-2.3c2.1-1.4,4.4-9.7,4.2-11
						C133.3,196.9,134.2,197.3,133,197.1z"/>
				</g>
				<g id="Group_1_" transform="translate(102.615385, 35.384615)">
					<g id="Path_15_">
						<path class="st9" d="M76.9,178.3c0,0-1.8,4.6,0,5.7c1.8,1.1,3.5,0.9,3.5,0.9l1.1-5L76.9,178.3z"/>
						<path class="st9" d="M95.8,186c0,0-1.8,4.6,0,5.7c1.8,1.1,3.5,0.9,3.5,0.9l1.1-5L95.8,186z"/>
						<path class="st10" d="M70.5,102.3l4.4,74.3c0,0,7.4,7.3,8.1,3.9c1.1-3.9,2.1-69,3.7-67.9s6.2,72,6.2,72s8,6.2,9.9,4.2
							c1.9-1.8,0.4-76.8,0.4-76.8l-9.7-18.9l-17.2-3.9L70.5,102.3z"/>
						
							<linearGradient id="SVGID_1_" gradientUnits="userSpaceOnUse" x1="-177.4299" y1="228.2663" x2="-177.4299" y2="229.1317" gradientTransform="matrix(56.0028 0 0 -93.2455 10027.75 21392.2344)">
							<stop  offset="0" style="stop-color:#B1B9BE"/>
							<stop  offset="1" style="stop-color:#8E9398"/>
						</linearGradient>
						<path class="st11" d="M74.9,19.3c0,0-6.2-3.4-9.2,6.7s-2.8,39.3-2.1,42.3c0.5,3,2.1,10.1,5.1,10.1c3,0,1.6,23.9,1.6,23.9
							s12.7,6,13.4,4.4c0.7-1.6,1.2-11,1.2-11l2.1,11.7c0,0,11.3,4.6,16.3,4.6c5,0,5.1-1.8,5.1-1.8V91.7c0,0,6.7,0.5,9.2-3.2
							c2.5-3.7,1.2-30.3,0-35.2c-1.2-5,3.5-10.3-12.2-18C93.7,29.4,74.9,19.3,74.9,19.3z"/>
						<path class="st12" d="M84.7,6.4c0,0-5.7,10.8-3.4,13.6c2.3,2.8,4.2,11.9,8,12.2c3.7,0.5,5.1-8.3,5.1-8.3s-0.2-3.5,2.7-2.7
							s5.8-6.9,1.6-6.4s-7.3-8.5-7.3-8.5H84.7z"/>
						<path class="st9" d="M84.7,6.4c0,0-1.4-2.8,1.9-2.8c3.4,0,8.5-1.1,10.3,1.9c1.9,3,7.1,6.5,3.5,9.7c-3.5,3.2-5.3,4.2-5.3,4.2
							l-0.7-1.8c0,0,0.7-1.8,0.7-2.5C95.1,14.2,92.8,7.3,84.7,6.4z"/>
						<g transform="translate(19.461538, 31.846154)">
							<polygon class="st13" points="62.4,4.4 65.9,17.2 68,2.1 							"/>
							<polygon class="st13" points="73.7,9.7 69.8,2.8 69.8,17 							"/>
							<polygon class="st9" points="69.8,2.8 68,2.1 65.9,17.2 67.5,23 69.8,17 							"/>
						</g>
						<polygon class="st10" points="108.5,91.7 108.5,56.6 114,62.8 111.4,71.3 111.4,91.7 						"/>
						<path class="st10" d="M70.2,80.7l2.7-39.3c0,0-5,16.3-4.6,19.6C68.4,64.6,70.2,80.7,70.2,80.7z"/>
						<path class="st10" d="M96.9,30.6l3.2,1.8c0,0-1.4,11.1-3.2,12.9c-1.8,1.8-6.5,12.9-6.5,12.9l-3.9,5.8l0.5-9.2L96.9,30.6z"/>
						<path class="st10" d="M83.4,24.2c0,0-4.8,8.5-4.8,9.7c0,1.4,7.6,30.1,7.6,30.1l0.5-9.2l-5.1-16.6v-1.9L84.1,26L83.4,24.2z"/>
						<polygon class="st8" points="84.3,26 80.6,36.8 87.5,34 						"/>
						<polygon class="st8" points="93.7,28.5 97.4,30.4 93.5,42.6 88.6,34 						"/>
						<polygon class="st8" points="94.7,61.2 102,64.1 100.1,56.6 						"/>
					</g>
					<path id="Path_16_" class="st12" d="M66.1,191.4c0,0,1.1-1.6,3-3c1.2-0.9,5.3-5.5,6-5.8c0.7-0.5,3.2,0,3.4,0.7
						c0.2,0.7,1.6,1.9,1.6,1.9c0.7,2.5-1.6,2.3-1.6,2.3s-4.2,2.8-4.8,3.9c-0.7,1.1-6.2,3.2-8,2.8C64.1,194.1,66.1,191.4,66.1,191.4z
						"/>
					<path id="Path_17_" class="st12" d="M95.5,190.6c0,0-1.4,7.6-1.2,8.3c0.2,0.7,1.1,1.8,1.8,4.4c0.7,2.5,2.1,3.5,3.5,3.4
						c1.2-0.2,2.1-3.9,2.3-5.7c0.2-1.8-2.1-7.1-2.1-7.1S99,189.1,95.5,190.6z"/>
				</g>
			</g>
		</g>
	</g>
</g>
</svg>
