<?xml version="1.0" encoding="utf-8"?>
<!-- Generator: Adobe Illustrator 22.1.0, SVG Export Plug-In . SVG Version: 6.00 Build 0)  -->
<svg version="1.1" id="Layer_1" xmlns="http://www.w3.org/2000/svg" xmlns:xlink="http://www.w3.org/1999/xlink" x="0px" y="0px"
	 viewBox="0 0 1440 423" style="enable-background:new 0 0 1440 423;" xml:space="preserve">
<style type="text/css">
	.st0{clip-path:url(#SVGID_2_);}
	.st1{fill:#28B655;}
	.st2{filter:url(#Adobe_OpacityMaskFilter);}
	.st3{fill:#FFFFFF;}
	.st4{opacity:0.4475;mask:url(#mask-2_1_);}
	.st5{fill:url(#Combined-Shape_1_);}
	.st6{fill:url(#Combined-Shape-Copy_1_);}
	.st7{filter:url(#Adobe_OpacityMaskFilter_1_);}
	.st8{opacity:0.3213;mask:url(#mask-2_2_);fill:#6FD84F;enable-background:new    ;}
	.st9{filter:url(#Adobe_OpacityMaskFilter_2_);}
	.st10{opacity:0.4533;mask:url(#mask-2_3_);fill:#A7FF81;enable-background:new    ;}
	.st11{filter:url(#Adobe_OpacityMaskFilter_3_);}
	.st12{mask:url(#mask-2_4_);fill:url(#Path_1_1_);}
	.st13{fill:none;}
</style>
<title>Start a project_BG</title>
<desc>Created with Sketch.</desc>
<g>
	<g>
		<defs>
			<rect id="SVGID_1_" width="1440" height="423"/>
		</defs>
		<clipPath id="SVGID_2_">
			<use xlink:href="#SVGID_1_"  style="overflow:visible;"/>
		</clipPath>
		<g id="CTA" class="st0">
			<g id="Group-13-Copy">
				<g id="Group-14">
					<g id="Start-a-project_BG">
						<g id="Rectangle">
							<rect id="path-1_1_" class="st1" width="1440" height="423"/>
						</g>
						<defs>
							<filter id="Adobe_OpacityMaskFilter" filterUnits="userSpaceOnUse" x="316" y="-60" width="1027" height="642.1">
								<feColorMatrix  type="matrix" values="1 0 0 0 0  0 1 0 0 0  0 0 1 0 0  0 0 0 1 0"/>
							</filter>
						</defs>
						<mask maskUnits="userSpaceOnUse" x="316" y="-60" width="1027" height="642.1" id="mask-2_1_">
							<g class="st2">
								<rect id="path-1_2_" class="st3" width="1440" height="423"/>
							</g>
						</mask>
						<g id="Group-18-Copy" class="st4">
							<g transform="translate(316.000000, -60.000000)">
								
									<linearGradient id="Combined-Shape_1_" gradientUnits="userSpaceOnUse" x1="52.534" y1="621.4373" x2="53.5189" y2="620.6561" gradientTransform="matrix(244 0 0 -329.0845 -12806 204552.5625)">
									<stop  offset="0" style="stop-color:#9AFF93"/>
									<stop  offset="1" style="stop-color:#28B655;stop-opacity:0.4929"/>
								</linearGradient>
								<path id="Combined-Shape" class="st5" d="M0,0h3.4v3.4H0V0z M17.2,0h3.4v3.4h-3.4V0z M34.4,0h3.4v3.4h-3.4V0z M51.5,0H55
									v3.4h-3.4V0z M68.7,0h3.4v3.4h-3.4V0z M85.9,0h3.4v3.4h-3.4V0z M103.1,0h3.4v3.4h-3.4V0z M120.3,0h3.4v3.4h-3.4V0z M137.5,0
									h3.4v3.4h-3.4V0z M154.6,0h3.4v3.4h-3.4V0z M171.8,0h3.4v3.4h-3.4V0z M189,0h3.4v3.4H189V0z M206.2,0h3.4v3.4h-3.4V0z
									 M223.4,0h3.4v3.4h-3.4V0z M240.6,0h3.4v3.4h-3.4V0z M0,17.2h3.4v3.4H0V17.2z M17.2,17.2h3.4v3.4h-3.4V17.2z M34.4,17.2h3.4
									v3.4h-3.4V17.2z M51.5,17.2H55v3.4h-3.4V17.2z M68.7,17.2h3.4v3.4h-3.4V17.2z M85.9,17.2h3.4v3.4h-3.4V17.2z M103.1,17.2
									h3.4v3.4h-3.4V17.2z M120.3,17.2h3.4v3.4h-3.4V17.2z M137.5,17.2h3.4v3.4h-3.4V17.2z M154.6,17.2h3.4v3.4h-3.4V17.2z
									 M171.8,17.2h3.4v3.4h-3.4V17.2z M189,17.2h3.4v3.4H189V17.2z M206.2,17.2h3.4v3.4h-3.4V17.2z M223.4,17.2h3.4v3.4h-3.4
									V17.2z M240.6,17.2h3.4v3.4h-3.4V17.2z M0,34.4h3.4v3.4H0V34.4z M17.2,34.4h3.4v3.4h-3.4V34.4z M34.4,34.4h3.4v3.4h-3.4
									V34.4z M51.5,34.4H55v3.4h-3.4V34.4z M68.7,34.4h3.4v3.4h-3.4V34.4z M85.9,34.4h3.4v3.4h-3.4V34.4z M103.1,34.4h3.4v3.4
									h-3.4V34.4z M120.3,34.4h3.4v3.4h-3.4V34.4z M137.5,34.4h3.4v3.4h-3.4V34.4z M154.6,34.4h3.4v3.4h-3.4V34.4z M171.8,34.4
									h3.4v3.4h-3.4V34.4z M189,34.4h3.4v3.4H189V34.4z M206.2,34.4h3.4v3.4h-3.4V34.4z M223.4,34.4h3.4v3.4h-3.4V34.4z
									 M240.6,34.4h3.4v3.4h-3.4V34.4z M0,51.5h3.4V55H0V51.5z M17.2,51.5h3.4V55h-3.4V51.5z M34.4,51.5h3.4V55h-3.4V51.5z
									 M51.5,51.5H55V55h-3.4V51.5z M68.7,51.5h3.4V55h-3.4V51.5z M85.9,51.5h3.4V55h-3.4V51.5z M103.1,51.5h3.4V55h-3.4V51.5z
									 M120.3,51.5h3.4V55h-3.4V51.5z M137.5,51.5h3.4V55h-3.4V51.5z M154.6,51.5h3.4V55h-3.4V51.5z M171.8,51.5h3.4V55h-3.4V51.5
									z M189,51.5h3.4V55H189V51.5z M206.2,51.5h3.4V55h-3.4V51.5z M223.4,51.5h3.4V55h-3.4V51.5z M240.6,51.5h3.4V55h-3.4V51.5z
									 M0,68.7h3.4v3.4H0V68.7z M17.2,68.7h3.4v3.4h-3.4V68.7z M34.4,68.7h3.4v3.4h-3.4V68.7z M51.5,68.7H55v3.4h-3.4V68.7z
									 M68.7,68.7h3.4v3.4h-3.4V68.7z M85.9,68.7h3.4v3.4h-3.4V68.7z M103.1,68.7h3.4v3.4h-3.4V68.7z M120.3,68.7h3.4v3.4h-3.4
									V68.7z M137.5,68.7h3.4v3.4h-3.4V68.7z M154.6,68.7h3.4v3.4h-3.4V68.7z M171.8,68.7h3.4v3.4h-3.4V68.7z M189,68.7h3.4v3.4
									H189V68.7z M206.2,68.7h3.4v3.4h-3.4V68.7z M223.4,68.7h3.4v3.4h-3.4V68.7z M240.6,68.7h3.4v3.4h-3.4V68.7z M0,85.9h3.4v3.4
									H0V85.9z M17.2,85.9h3.4v3.4h-3.4V85.9z M34.4,85.9h3.4v3.4h-3.4V85.9z M51.5,85.9H55v3.4h-3.4V85.9z M68.7,85.9h3.4v3.4
									h-3.4V85.9z M85.9,85.9h3.4v3.4h-3.4V85.9z M103.1,85.9h3.4v3.4h-3.4V85.9z M120.3,85.9h3.4v3.4h-3.4V85.9z M137.5,85.9h3.4
									v3.4h-3.4V85.9z M154.6,85.9h3.4v3.4h-3.4V85.9z M171.8,85.9h3.4v3.4h-3.4V85.9z M189,85.9h3.4v3.4H189V85.9z M206.2,85.9
									h3.4v3.4h-3.4V85.9z M223.4,85.9h3.4v3.4h-3.4V85.9z M240.6,85.9h3.4v3.4h-3.4V85.9z M0,103.1h3.4v3.4H0V103.1z M17.2,103.1
									h3.4v3.4h-3.4V103.1z M34.4,103.1h3.4v3.4h-3.4V103.1z M51.5,103.1H55v3.4h-3.4V103.1z M68.7,103.1h3.4v3.4h-3.4V103.1z
									 M85.9,103.1h3.4v3.4h-3.4V103.1z M103.1,103.1h3.4v3.4h-3.4V103.1z M120.3,103.1h3.4v3.4h-3.4V103.1z M137.5,103.1h3.4v3.4
									h-3.4V103.1z M154.6,103.1h3.4v3.4h-3.4V103.1z M171.8,103.1h3.4v3.4h-3.4V103.1z M189,103.1h3.4v3.4H189V103.1z
									 M206.2,103.1h3.4v3.4h-3.4V103.1z M223.4,103.1h3.4v3.4h-3.4V103.1z M240.6,103.1h3.4v3.4h-3.4V103.1z M0,120.3h3.4v3.4H0
									V120.3z M17.2,120.3h3.4v3.4h-3.4V120.3z M34.4,120.3h3.4v3.4h-3.4V120.3z M51.5,120.3H55v3.4h-3.4V120.3z M68.7,120.3h3.4
									v3.4h-3.4V120.3z M85.9,120.3h3.4v3.4h-3.4V120.3z M103.1,120.3h3.4v3.4h-3.4V120.3z M120.3,120.3h3.4v3.4h-3.4V120.3z
									 M137.5,120.3h3.4v3.4h-3.4V120.3z M154.6,120.3h3.4v3.4h-3.4V120.3z M171.8,120.3h3.4v3.4h-3.4V120.3z M189,120.3h3.4v3.4
									H189V120.3z M206.2,120.3h3.4v3.4h-3.4V120.3z M223.4,120.3h3.4v3.4h-3.4V120.3z M240.6,120.3h3.4v3.4h-3.4V120.3z M0,137.5
									h3.4v3.4H0V137.5z M17.2,137.5h3.4v3.4h-3.4V137.5z M34.4,137.5h3.4v3.4h-3.4V137.5z M51.5,137.5H55v3.4h-3.4V137.5z
									 M68.7,137.5h3.4v3.4h-3.4V137.5z M85.9,137.5h3.4v3.4h-3.4V137.5z M103.1,137.5h3.4v3.4h-3.4V137.5z M120.3,137.5h3.4v3.4
									h-3.4V137.5z M137.5,137.5h3.4v3.4h-3.4V137.5z M154.6,137.5h3.4v3.4h-3.4V137.5z M171.8,137.5h3.4v3.4h-3.4V137.5z
									 M189,137.5h3.4v3.4H189V137.5z M206.2,137.5h3.4v3.4h-3.4V137.5z M223.4,137.5h3.4v3.4h-3.4V137.5z M240.6,137.5h3.4v3.4
									h-3.4V137.5z M0,154.6h3.4v3.4H0V154.6z M17.2,154.6h3.4v3.4h-3.4V154.6z M34.4,154.6h3.4v3.4h-3.4V154.6z M51.5,154.6H55
									v3.4h-3.4V154.6z M68.7,154.6h3.4v3.4h-3.4V154.6z M85.9,154.6h3.4v3.4h-3.4V154.6z M103.1,154.6h3.4v3.4h-3.4V154.6z
									 M120.3,154.6h3.4v3.4h-3.4V154.6z M137.5,154.6h3.4v3.4h-3.4V154.6z M154.6,154.6h3.4v3.4h-3.4V154.6z M171.8,154.6h3.4
									v3.4h-3.4V154.6z M189,154.6h3.4v3.4H189V154.6z M206.2,154.6h3.4v3.4h-3.4V154.6z M223.4,154.6h3.4v3.4h-3.4V154.6z
									 M240.6,154.6h3.4v3.4h-3.4V154.6z M0,171h3.4v3.4H0V171z M17.2,171h3.4v3.4h-3.4V171z M34.4,171h3.4v3.4h-3.4V171z
									 M51.5,171H55v3.4h-3.4V171z M68.7,171h3.4v3.4h-3.4V171z M85.9,171h3.4v3.4h-3.4V171z M103.1,171h3.4v3.4h-3.4V171z
									 M120.3,171h3.4v3.4h-3.4V171z M137.5,171h3.4v3.4h-3.4V171z M154.6,171h3.4v3.4h-3.4V171z M171.8,171h3.4v3.4h-3.4V171z
									 M189,171h3.4v3.4H189V171z M206.2,171h3.4v3.4h-3.4V171z M223.4,171h3.4v3.4h-3.4V171z M240.6,171h3.4v3.4h-3.4V171z
									 M0,188.2h3.4v3.4H0V188.2z M17.2,188.2h3.4v3.4h-3.4V188.2z M34.4,188.2h3.4v3.4h-3.4V188.2z M51.5,188.2H55v3.4h-3.4
									V188.2z M68.7,188.2h3.4v3.4h-3.4V188.2z M85.9,188.2h3.4v3.4h-3.4V188.2z M103.1,188.2h3.4v3.4h-3.4V188.2z M120.3,188.2
									h3.4v3.4h-3.4V188.2z M137.5,188.2h3.4v3.4h-3.4V188.2z M154.6,188.2h3.4v3.4h-3.4V188.2z M171.8,188.2h3.4v3.4h-3.4V188.2z
									 M189,188.2h3.4v3.4H189V188.2z M206.2,188.2h3.4v3.4h-3.4V188.2z M223.4,188.2h3.4v3.4h-3.4V188.2z M240.6,188.2h3.4v3.4
									h-3.4V188.2z M0,205.4h3.4v3.4H0V205.4z M17.2,205.4h3.4v3.4h-3.4V205.4z M34.4,205.4h3.4v3.4h-3.4V205.4z M51.5,205.4H55
									v3.4h-3.4V205.4z M68.7,205.4h3.4v3.4h-3.4V205.4z M85.9,205.4h3.4v3.4h-3.4V205.4z M103.1,205.4h3.4v3.4h-3.4V205.4z
									 M120.3,205.4h3.4v3.4h-3.4V205.4z M137.5,205.4h3.4v3.4h-3.4V205.4z M154.6,205.4h3.4v3.4h-3.4V205.4z M171.8,205.4h3.4
									v3.4h-3.4V205.4z M189,205.4h3.4v3.4H189V205.4z M206.2,205.4h3.4v3.4h-3.4V205.4z M223.4,205.4h3.4v3.4h-3.4V205.4z
									 M240.6,205.4h3.4v3.4h-3.4V205.4z M0,222.5h3.4v3.4H0V222.5z M17.2,222.5h3.4v3.4h-3.4V222.5z M34.4,222.5h3.4v3.4h-3.4
									V222.5z M51.5,222.5H55v3.4h-3.4V222.5z M68.7,222.5h3.4v3.4h-3.4V222.5z M85.9,222.5h3.4v3.4h-3.4V222.5z M103.1,222.5h3.4
									v3.4h-3.4V222.5z M120.3,222.5h3.4v3.4h-3.4V222.5z M137.5,222.5h3.4v3.4h-3.4V222.5z M154.6,222.5h3.4v3.4h-3.4V222.5z
									 M171.8,222.5h3.4v3.4h-3.4V222.5z M189,222.5h3.4v3.4H189V222.5z M206.2,222.5h3.4v3.4h-3.4V222.5z M223.4,222.5h3.4v3.4
									h-3.4V222.5z M240.6,222.5h3.4v3.4h-3.4V222.5z M0,239.7h3.4v3.4H0V239.7z M17.2,239.7h3.4v3.4h-3.4V239.7z M34.4,239.7h3.4
									v3.4h-3.4V239.7z M51.5,239.7H55v3.4h-3.4V239.7z M68.7,239.7h3.4v3.4h-3.4V239.7z M85.9,239.7h3.4v3.4h-3.4V239.7z
									 M103.1,239.7h3.4v3.4h-3.4V239.7z M120.3,239.7h3.4v3.4h-3.4V239.7z M137.5,239.7h3.4v3.4h-3.4V239.7z M154.6,239.7h3.4
									v3.4h-3.4V239.7z M171.8,239.7h3.4v3.4h-3.4V239.7z M189,239.7h3.4v3.4H189V239.7z M206.2,239.7h3.4v3.4h-3.4V239.7z
									 M223.4,239.7h3.4v3.4h-3.4V239.7z M240.6,239.7h3.4v3.4h-3.4V239.7z M0,256.9h3.4v3.4H0V256.9z M17.2,256.9h3.4v3.4h-3.4
									V256.9z M34.4,256.9h3.4v3.4h-3.4V256.9z M51.5,256.9H55v3.4h-3.4V256.9z M68.7,256.9h3.4v3.4h-3.4V256.9z M85.9,256.9h3.4
									v3.4h-3.4V256.9z M103.1,256.9h3.4v3.4h-3.4V256.9z M120.3,256.9h3.4v3.4h-3.4V256.9z M137.5,256.9h3.4v3.4h-3.4V256.9z
									 M154.6,256.9h3.4v3.4h-3.4V256.9z M171.8,256.9h3.4v3.4h-3.4V256.9z M189,256.9h3.4v3.4H189V256.9z M206.2,256.9h3.4v3.4
									h-3.4V256.9z M223.4,256.9h3.4v3.4h-3.4V256.9z M240.6,256.9h3.4v3.4h-3.4V256.9z M0,274.1h3.4v3.4H0V274.1z M17.2,274.1
									h3.4v3.4h-3.4V274.1z M34.4,274.1h3.4v3.4h-3.4V274.1z M51.5,274.1H55v3.4h-3.4V274.1z M68.7,274.1h3.4v3.4h-3.4V274.1z
									 M85.9,274.1h3.4v3.4h-3.4V274.1z M103.1,274.1h3.4v3.4h-3.4V274.1z M120.3,274.1h3.4v3.4h-3.4V274.1z M137.5,274.1h3.4v3.4
									h-3.4V274.1z M154.6,274.1h3.4v3.4h-3.4V274.1z M171.8,274.1h3.4v3.4h-3.4V274.1z M189,274.1h3.4v3.4H189V274.1z
									 M206.2,274.1h3.4v3.4h-3.4V274.1z M223.4,274.1h3.4v3.4h-3.4V274.1z M240.6,274.1h3.4v3.4h-3.4V274.1z M0,291.3h3.4v3.4H0
									V291.3z M17.2,291.3h3.4v3.4h-3.4V291.3z M34.4,291.3h3.4v3.4h-3.4V291.3z M51.5,291.3H55v3.4h-3.4V291.3z M68.7,291.3h3.4
									v3.4h-3.4V291.3z M85.9,291.3h3.4v3.4h-3.4V291.3z M103.1,291.3h3.4v3.4h-3.4V291.3z M120.3,291.3h3.4v3.4h-3.4V291.3z
									 M137.5,291.3h3.4v3.4h-3.4V291.3z M154.6,291.3h3.4v3.4h-3.4V291.3z M171.8,291.3h3.4v3.4h-3.4V291.3z M189,291.3h3.4v3.4
									H189V291.3z M206.2,291.3h3.4v3.4h-3.4V291.3z M223.4,291.3h3.4v3.4h-3.4V291.3z M240.6,291.3h3.4v3.4h-3.4V291.3z M0,308.5
									h3.4v3.4H0V308.5z M17.2,308.5h3.4v3.4h-3.4V308.5z M34.4,308.5h3.4v3.4h-3.4V308.5z M51.5,308.5H55v3.4h-3.4V308.5z
									 M68.7,308.5h3.4v3.4h-3.4V308.5z M85.9,308.5h3.4v3.4h-3.4V308.5z M103.1,308.5h3.4v3.4h-3.4V308.5z M120.3,308.5h3.4v3.4
									h-3.4V308.5z M137.5,308.5h3.4v3.4h-3.4V308.5z M154.6,308.5h3.4v3.4h-3.4V308.5z M171.8,308.5h3.4v3.4h-3.4V308.5z
									 M189,308.5h3.4v3.4H189V308.5z M206.2,308.5h3.4v3.4h-3.4V308.5z M223.4,308.5h3.4v3.4h-3.4V308.5z M240.6,308.5h3.4v3.4
									h-3.4V308.5z M0,325.6h3.4v3.4H0V325.6z M17.2,325.6h3.4v3.4h-3.4V325.6z M34.4,325.6h3.4v3.4h-3.4V325.6z M51.5,325.6H55
									v3.4h-3.4V325.6z M68.7,325.6h3.4v3.4h-3.4V325.6z M85.9,325.6h3.4v3.4h-3.4V325.6z M103.1,325.6h3.4v3.4h-3.4V325.6z
									 M120.3,325.6h3.4v3.4h-3.4V325.6z M137.5,325.6h3.4v3.4h-3.4V325.6z M154.6,325.6h3.4v3.4h-3.4V325.6z M171.8,325.6h3.4
									v3.4h-3.4V325.6z M189,325.6h3.4v3.4H189V325.6z M206.2,325.6h3.4v3.4h-3.4V325.6z M223.4,325.6h3.4v3.4h-3.4V325.6z
									 M240.6,325.6h3.4v3.4h-3.4V325.6z"/>
								
									<linearGradient id="Combined-Shape-Copy_1_" gradientUnits="userSpaceOnUse" x1="52.4042" y1="621.459" x2="53.4421" y2="620.7813" gradientTransform="matrix(244 0 0 -329.0845 -12023 204865.5781)">
									<stop  offset="0" style="stop-color:#9AFF93"/>
									<stop  offset="1" style="stop-color:#28B655;stop-opacity:0.4929"/>
								</linearGradient>
								<path id="Combined-Shape-Copy" class="st6" d="M783,313h3.4v3.4H783V313z M800.2,313h3.4v3.4h-3.4V313z M817.4,313h3.4v3.4
									h-3.4V313z M834.5,313h3.4v3.4h-3.4V313z M851.7,313h3.4v3.4h-3.4V313z M868.9,313h3.4v3.4h-3.4V313z M886.1,313h3.4v3.4
									h-3.4V313z M903.3,313h3.4v3.4h-3.4V313z M920.5,313h3.4v3.4h-3.4V313z M937.6,313h3.4v3.4h-3.4V313z M954.8,313h3.4v3.4
									h-3.4V313z M972,313h3.4v3.4H972V313z M989.2,313h3.4v3.4h-3.4V313z M1006.4,313h3.4v3.4h-3.4V313z M1023.6,313h3.4v3.4
									h-3.4V313z M783,330.2h3.4v3.4H783V330.2z M800.2,330.2h3.4v3.4h-3.4V330.2z M817.4,330.2h3.4v3.4h-3.4V330.2z M834.5,330.2
									h3.4v3.4h-3.4V330.2z M851.7,330.2h3.4v3.4h-3.4V330.2z M868.9,330.2h3.4v3.4h-3.4V330.2z M886.1,330.2h3.4v3.4h-3.4V330.2z
									 M903.3,330.2h3.4v3.4h-3.4V330.2z M920.5,330.2h3.4v3.4h-3.4V330.2z M937.6,330.2h3.4v3.4h-3.4V330.2z M954.8,330.2h3.4
									v3.4h-3.4V330.2z M972,330.2h3.4v3.4H972V330.2z M989.2,330.2h3.4v3.4h-3.4V330.2z M1006.4,330.2h3.4v3.4h-3.4V330.2z
									 M1023.6,330.2h3.4v3.4h-3.4V330.2z M783,347.4h3.4v3.4H783V347.4z M800.2,347.4h3.4v3.4h-3.4V347.4z M817.4,347.4h3.4v3.4
									h-3.4V347.4z M834.5,347.4h3.4v3.4h-3.4V347.4z M851.7,347.4h3.4v3.4h-3.4V347.4z M868.9,347.4h3.4v3.4h-3.4V347.4z
									 M886.1,347.4h3.4v3.4h-3.4V347.4z M903.3,347.4h3.4v3.4h-3.4V347.4z M920.5,347.4h3.4v3.4h-3.4V347.4z M937.6,347.4h3.4
									v3.4h-3.4V347.4z M954.8,347.4h3.4v3.4h-3.4V347.4z M972,347.4h3.4v3.4H972V347.4z M989.2,347.4h3.4v3.4h-3.4V347.4z
									 M1006.4,347.4h3.4v3.4h-3.4V347.4z M1023.6,347.4h3.4v3.4h-3.4V347.4z M783,364.5h3.4v3.4H783V364.5z M800.2,364.5h3.4v3.4
									h-3.4V364.5z M817.4,364.5h3.4v3.4h-3.4V364.5z M834.5,364.5h3.4v3.4h-3.4V364.5z M851.7,364.5h3.4v3.4h-3.4V364.5z
									 M868.9,364.5h3.4v3.4h-3.4V364.5z M886.1,364.5h3.4v3.4h-3.4V364.5z M903.3,364.5h3.4v3.4h-3.4V364.5z M920.5,364.5h3.4
									v3.4h-3.4V364.5z M937.6,364.5h3.4v3.4h-3.4V364.5z M954.8,364.5h3.4v3.4h-3.4V364.5z M972,364.5h3.4v3.4H972V364.5z
									 M989.2,364.5h3.4v3.4h-3.4V364.5z M1006.4,364.5h3.4v3.4h-3.4V364.5z M1023.6,364.5h3.4v3.4h-3.4V364.5z M783,381.7h3.4
									v3.4H783V381.7z M800.2,381.7h3.4v3.4h-3.4V381.7z M817.4,381.7h3.4v3.4h-3.4V381.7z M834.5,381.7h3.4v3.4h-3.4V381.7z
									 M851.7,381.7h3.4v3.4h-3.4V381.7z M868.9,381.7h3.4v3.4h-3.4V381.7z M886.1,381.7h3.4v3.4h-3.4V381.7z M903.3,381.7h3.4
									v3.4h-3.4V381.7z M920.5,381.7h3.4v3.4h-3.4V381.7z M937.6,381.7h3.4v3.4h-3.4V381.7z M954.8,381.7h3.4v3.4h-3.4V381.7z
									 M972,381.7h3.4v3.4H972V381.7z M989.2,381.7h3.4v3.4h-3.4V381.7z M1006.4,381.7h3.4v3.4h-3.4V381.7z M1023.6,381.7h3.4v3.4
									h-3.4V381.7z M783,398.9h3.4v3.4H783V398.9z M800.2,398.9h3.4v3.4h-3.4V398.9z M817.4,398.9h3.4v3.4h-3.4V398.9z
									 M834.5,398.9h3.4v3.4h-3.4V398.9z M851.7,398.9h3.4v3.4h-3.4V398.9z M868.9,398.9h3.4v3.4h-3.4V398.9z M886.1,398.9h3.4
									v3.4h-3.4V398.9z M903.3,398.9h3.4v3.4h-3.4V398.9z M920.5,398.9h3.4v3.4h-3.4V398.9z M937.6,398.9h3.4v3.4h-3.4V398.9z
									 M954.8,398.9h3.4v3.4h-3.4V398.9z M972,398.9h3.4v3.4H972V398.9z M989.2,398.9h3.4v3.4h-3.4V398.9z M1006.4,398.9h3.4v3.4
									h-3.4V398.9z M1023.6,398.9h3.4v3.4h-3.4V398.9z M783,416.1h3.4v3.4H783V416.1z M800.2,416.1h3.4v3.4h-3.4V416.1z
									 M817.4,416.1h3.4v3.4h-3.4V416.1z M834.5,416.1h3.4v3.4h-3.4V416.1z M851.7,416.1h3.4v3.4h-3.4V416.1z M868.9,416.1h3.4
									v3.4h-3.4V416.1z M886.1,416.1h3.4v3.4h-3.4V416.1z M903.3,416.1h3.4v3.4h-3.4V416.1z M920.5,416.1h3.4v3.4h-3.4V416.1z
									 M937.6,416.1h3.4v3.4h-3.4V416.1z M954.8,416.1h3.4v3.4h-3.4V416.1z M972,416.1h3.4v3.4H972V416.1z M989.2,416.1h3.4v3.4
									h-3.4V416.1z M1006.4,416.1h3.4v3.4h-3.4V416.1z M1023.6,416.1h3.4v3.4h-3.4V416.1z M783,433.3h3.4v3.4H783V433.3z
									 M800.2,433.3h3.4v3.4h-3.4V433.3z M817.4,433.3h3.4v3.4h-3.4V433.3z M834.5,433.3h3.4v3.4h-3.4V433.3z M851.7,433.3h3.4
									v3.4h-3.4V433.3z M868.9,433.3h3.4v3.4h-3.4V433.3z M886.1,433.3h3.4v3.4h-3.4V433.3z M903.3,433.3h3.4v3.4h-3.4V433.3z
									 M920.5,433.3h3.4v3.4h-3.4V433.3z M937.6,433.3h3.4v3.4h-3.4V433.3z M954.8,433.3h3.4v3.4h-3.4V433.3z M972,433.3h3.4v3.4
									H972V433.3z M989.2,433.3h3.4v3.4h-3.4V433.3z M1006.4,433.3h3.4v3.4h-3.4V433.3z M1023.6,433.3h3.4v3.4h-3.4V433.3z
									 M783,450.5h3.4v3.4H783V450.5z M800.2,450.5h3.4v3.4h-3.4V450.5z M817.4,450.5h3.4v3.4h-3.4V450.5z M834.5,450.5h3.4v3.4
									h-3.4V450.5z M851.7,450.5h3.4v3.4h-3.4V450.5z M868.9,450.5h3.4v3.4h-3.4V450.5z M886.1,450.5h3.4v3.4h-3.4V450.5z
									 M903.3,450.5h3.4v3.4h-3.4V450.5z M920.5,450.5h3.4v3.4h-3.4V450.5z M937.6,450.5h3.4v3.4h-3.4V450.5z M954.8,450.5h3.4
									v3.4h-3.4V450.5z M972,450.5h3.4v3.4H972V450.5z M989.2,450.5h3.4v3.4h-3.4V450.5z M1006.4,450.5h3.4v3.4h-3.4V450.5z
									 M1023.6,450.5h3.4v3.4h-3.4V450.5z M783,467.6h3.4v3.4H783V467.6z M800.2,467.6h3.4v3.4h-3.4V467.6z M817.4,467.6h3.4v3.4
									h-3.4V467.6z M834.5,467.6h3.4v3.4h-3.4V467.6z M851.7,467.6h3.4v3.4h-3.4V467.6z M868.9,467.6h3.4v3.4h-3.4V467.6z
									 M886.1,467.6h3.4v3.4h-3.4V467.6z M903.3,467.6h3.4v3.4h-3.4V467.6z M920.5,467.6h3.4v3.4h-3.4V467.6z M937.6,467.6h3.4
									v3.4h-3.4V467.6z M954.8,467.6h3.4v3.4h-3.4V467.6z M972,467.6h3.4v3.4H972V467.6z M989.2,467.6h3.4v3.4h-3.4V467.6z
									 M1006.4,467.6h3.4v3.4h-3.4V467.6z M1023.6,467.6h3.4v3.4h-3.4V467.6z M783,484h3.4v3.4H783V484z M800.2,484h3.4v3.4h-3.4
									V484z M817.4,484h3.4v3.4h-3.4V484z M834.5,484h3.4v3.4h-3.4V484z M851.7,484h3.4v3.4h-3.4V484z M868.9,484h3.4v3.4h-3.4
									V484z M886.1,484h3.4v3.4h-3.4V484z M903.3,484h3.4v3.4h-3.4V484z M920.5,484h3.4v3.4h-3.4V484z M937.6,484h3.4v3.4h-3.4
									V484z M954.8,484h3.4v3.4h-3.4V484z M972,484h3.4v3.4H972V484z M989.2,484h3.4v3.4h-3.4V484z M1006.4,484h3.4v3.4h-3.4V484z
									 M1023.6,484h3.4v3.4h-3.4V484z M783,501.2h3.4v3.4H783V501.2z M800.2,501.2h3.4v3.4h-3.4V501.2z M817.4,501.2h3.4v3.4h-3.4
									V501.2z M834.5,501.2h3.4v3.4h-3.4V501.2z M851.7,501.2h3.4v3.4h-3.4V501.2z M868.9,501.2h3.4v3.4h-3.4V501.2z M886.1,501.2
									h3.4v3.4h-3.4V501.2z M903.3,501.2h3.4v3.4h-3.4V501.2z M920.5,501.2h3.4v3.4h-3.4V501.2z M937.6,501.2h3.4v3.4h-3.4V501.2z
									 M954.8,501.2h3.4v3.4h-3.4V501.2z M972,501.2h3.4v3.4H972V501.2z M989.2,501.2h3.4v3.4h-3.4V501.2z M1006.4,501.2h3.4v3.4
									h-3.4V501.2z M1023.6,501.2h3.4v3.4h-3.4V501.2z M783,518.4h3.4v3.4H783V518.4z M800.2,518.4h3.4v3.4h-3.4V518.4z
									 M817.4,518.4h3.4v3.4h-3.4V518.4z M834.5,518.4h3.4v3.4h-3.4V518.4z M851.7,518.4h3.4v3.4h-3.4V518.4z M868.9,518.4h3.4
									v3.4h-3.4V518.4z M886.1,518.4h3.4v3.4h-3.4V518.4z M903.3,518.4h3.4v3.4h-3.4V518.4z M920.5,518.4h3.4v3.4h-3.4V518.4z
									 M937.6,518.4h3.4v3.4h-3.4V518.4z M954.8,518.4h3.4v3.4h-3.4V518.4z M972,518.4h3.4v3.4H972V518.4z M989.2,518.4h3.4v3.4
									h-3.4V518.4z M1006.4,518.4h3.4v3.4h-3.4V518.4z M1023.6,518.4h3.4v3.4h-3.4V518.4z M783,535.5h3.4v3.4H783V535.5z
									 M800.2,535.5h3.4v3.4h-3.4V535.5z M817.4,535.5h3.4v3.4h-3.4V535.5z M834.5,535.5h3.4v3.4h-3.4V535.5z M851.7,535.5h3.4
									v3.4h-3.4V535.5z M868.9,535.5h3.4v3.4h-3.4V535.5z M886.1,535.5h3.4v3.4h-3.4V535.5z M903.3,535.5h3.4v3.4h-3.4V535.5z
									 M920.5,535.5h3.4v3.4h-3.4V535.5z M937.6,535.5h3.4v3.4h-3.4V535.5z M954.8,535.5h3.4v3.4h-3.4V535.5z M972,535.5h3.4v3.4
									H972V535.5z M989.2,535.5h3.4v3.4h-3.4V535.5z M1006.4,535.5h3.4v3.4h-3.4V535.5z M1023.6,535.5h3.4v3.4h-3.4V535.5z
									 M783,552.7h3.4v3.4H783V552.7z M800.2,552.7h3.4v3.4h-3.4V552.7z M817.4,552.7h3.4v3.4h-3.4V552.7z M834.5,552.7h3.4v3.4
									h-3.4V552.7z M851.7,552.7h3.4v3.4h-3.4V552.7z M868.9,552.7h3.4v3.4h-3.4V552.7z M886.1,552.7h3.4v3.4h-3.4V552.7z
									 M903.3,552.7h3.4v3.4h-3.4V552.7z M920.5,552.7h3.4v3.4h-3.4V552.7z M937.6,552.7h3.4v3.4h-3.4V552.7z M954.8,552.7h3.4
									v3.4h-3.4V552.7z M972,552.7h3.4v3.4H972V552.7z M989.2,552.7h3.4v3.4h-3.4V552.7z M1006.4,552.7h3.4v3.4h-3.4V552.7z
									 M1023.6,552.7h3.4v3.4h-3.4V552.7z M783,569.9h3.4v3.4H783V569.9z M800.2,569.9h3.4v3.4h-3.4V569.9z M817.4,569.9h3.4v3.4
									h-3.4V569.9z M834.5,569.9h3.4v3.4h-3.4V569.9z M851.7,569.9h3.4v3.4h-3.4V569.9z M868.9,569.9h3.4v3.4h-3.4V569.9z
									 M886.1,569.9h3.4v3.4h-3.4V569.9z M903.3,569.9h3.4v3.4h-3.4V569.9z M920.5,569.9h3.4v3.4h-3.4V569.9z M937.6,569.9h3.4
									v3.4h-3.4V569.9z M954.8,569.9h3.4v3.4h-3.4V569.9z M972,569.9h3.4v3.4H972V569.9z M989.2,569.9h3.4v3.4h-3.4V569.9z
									 M1006.4,569.9h3.4v3.4h-3.4V569.9z M1023.6,569.9h3.4v3.4h-3.4V569.9z M783,587.1h3.4v3.4H783V587.1z M800.2,587.1h3.4v3.4
									h-3.4V587.1z M817.4,587.1h3.4v3.4h-3.4V587.1z M834.5,587.1h3.4v3.4h-3.4V587.1z M851.7,587.1h3.4v3.4h-3.4V587.1z
									 M868.9,587.1h3.4v3.4h-3.4V587.1z M886.1,587.1h3.4v3.4h-3.4V587.1z M903.3,587.1h3.4v3.4h-3.4V587.1z M920.5,587.1h3.4
									v3.4h-3.4V587.1z M937.6,587.1h3.4v3.4h-3.4V587.1z M954.8,587.1h3.4v3.4h-3.4V587.1z M972,587.1h3.4v3.4H972V587.1z
									 M989.2,587.1h3.4v3.4h-3.4V587.1z M1006.4,587.1h3.4v3.4h-3.4V587.1z M1023.6,587.1h3.4v3.4h-3.4V587.1z M783,604.3h3.4
									v3.4H783V604.3z M800.2,604.3h3.4v3.4h-3.4V604.3z M817.4,604.3h3.4v3.4h-3.4V604.3z M834.5,604.3h3.4v3.4h-3.4V604.3z
									 M851.7,604.3h3.4v3.4h-3.4V604.3z M868.9,604.3h3.4v3.4h-3.4V604.3z M886.1,604.3h3.4v3.4h-3.4V604.3z M903.3,604.3h3.4
									v3.4h-3.4V604.3z M920.5,604.3h3.4v3.4h-3.4V604.3z M937.6,604.3h3.4v3.4h-3.4V604.3z M954.8,604.3h3.4v3.4h-3.4V604.3z
									 M972,604.3h3.4v3.4H972V604.3z M989.2,604.3h3.4v3.4h-3.4V604.3z M1006.4,604.3h3.4v3.4h-3.4V604.3z M1023.6,604.3h3.4v3.4
									h-3.4V604.3z M783,621.5h3.4v3.4H783V621.5z M800.2,621.5h3.4v3.4h-3.4V621.5z M817.4,621.5h3.4v3.4h-3.4V621.5z
									 M834.5,621.5h3.4v3.4h-3.4V621.5z M851.7,621.5h3.4v3.4h-3.4V621.5z M868.9,621.5h3.4v3.4h-3.4V621.5z M886.1,621.5h3.4
									v3.4h-3.4V621.5z M903.3,621.5h3.4v3.4h-3.4V621.5z M920.5,621.5h3.4v3.4h-3.4V621.5z M937.6,621.5h3.4v3.4h-3.4V621.5z
									 M954.8,621.5h3.4v3.4h-3.4V621.5z M972,621.5h3.4v3.4H972V621.5z M989.2,621.5h3.4v3.4h-3.4V621.5z M1006.4,621.5h3.4v3.4
									h-3.4V621.5z M1023.6,621.5h3.4v3.4h-3.4V621.5z M783,638.6h3.4v3.4H783V638.6z M800.2,638.6h3.4v3.4h-3.4V638.6z
									 M817.4,638.6h3.4v3.4h-3.4V638.6z M834.5,638.6h3.4v3.4h-3.4V638.6z M851.7,638.6h3.4v3.4h-3.4V638.6z M868.9,638.6h3.4
									v3.4h-3.4V638.6z M886.1,638.6h3.4v3.4h-3.4V638.6z M903.3,638.6h3.4v3.4h-3.4V638.6z M920.5,638.6h3.4v3.4h-3.4V638.6z
									 M937.6,638.6h3.4v3.4h-3.4V638.6z M954.8,638.6h3.4v3.4h-3.4V638.6z M972,638.6h3.4v3.4H972V638.6z M989.2,638.6h3.4v3.4
									h-3.4V638.6z M1006.4,638.6h3.4v3.4h-3.4V638.6z M1023.6,638.6h3.4v3.4h-3.4V638.6z"/>
							</g>
						</g>
						<defs>
							<filter id="Adobe_OpacityMaskFilter_1_" filterUnits="userSpaceOnUse" x="754" y="-131" width="541.2" height="313.4">
								<feColorMatrix  type="matrix" values="1 0 0 0 0  0 1 0 0 0  0 0 1 0 0  0 0 0 1 0"/>
							</filter>
						</defs>
						<mask maskUnits="userSpaceOnUse" x="754" y="-131" width="541.2" height="313.4" id="mask-2_2_">
							<g class="st7">
								<rect id="path-1_3_" class="st3" width="1440" height="423"/>
							</g>
						</mask>
						<polyline id="Path" class="st8" points="1295.2,49.7 982.3,-131 754,1.7 1066.9,182.4 1295.2,49.7 						"/>
						<defs>
							<filter id="Adobe_OpacityMaskFilter_2_" filterUnits="userSpaceOnUse" x="754" y="-173" width="541.2" height="313.4">
								<feColorMatrix  type="matrix" values="1 0 0 0 0  0 1 0 0 0  0 0 1 0 0  0 0 0 1 0"/>
							</filter>
						</defs>
						<mask maskUnits="userSpaceOnUse" x="754" y="-173" width="541.2" height="313.4" id="mask-2_3_">
							<g class="st9">
								<rect id="path-1_4_" class="st3" width="1440" height="423"/>
							</g>
						</mask>
						<polyline id="Path_1_" class="st10" points="1295.2,7.7 982.3,-173 754,-40.3 1066.9,140.4 1295.2,7.7 						"/>
						<defs>
							<filter id="Adobe_OpacityMaskFilter_3_" filterUnits="userSpaceOnUse" x="-132.4" y="-46" width="676.1" height="549">
								<feColorMatrix  type="matrix" values="1 0 0 0 0  0 1 0 0 0  0 0 1 0 0  0 0 0 1 0"/>
							</filter>
						</defs>
						<mask maskUnits="userSpaceOnUse" x="-132.4" y="-46" width="676.1" height="549" id="mask-2_4_">
							<g class="st11">
								<rect id="path-1_5_" class="st3" width="1440" height="423"/>
							</g>
						</mask>
						
							<linearGradient id="Path_1_1_" gradientUnits="userSpaceOnUse" x1="371.1218" y1="562.0502" x2="371.4514" y2="561.4886" gradientTransform="matrix(-676.1209 0 0 549 251078.4688 -308172.9688)">
							<stop  offset="0" style="stop-color:#75DB4F;stop-opacity:0"/>
							<stop  offset="1" style="stop-color:#75DB4F"/>
						</linearGradient>
						<polygon id="Path_1" class="st12" points="543.7,503 328.5,503 205.7,294.9 82.8,503 -132.4,503 205.7,-46 						"/>
					</g>
					<rect class="st13" width="1440" height="423"/>
				</g>
			</g>
		</g>
	</g>
</g>
</svg>
