<?xml version="1.0" encoding="utf-8"?>
<!-- Generator: Adobe Illustrator 22.1.0, SVG Export Plug-In . SVG Version: 6.00 Build 0)  -->
<svg version="1.1" id="Layer_1" xmlns="http://www.w3.org/2000/svg" xmlns:xlink="http://www.w3.org/1999/xlink" x="0px" y="0px"
	 viewBox="0 0 720 1024" style="enable-background:new 0 0 720 1024;" xml:space="preserve">
<style type="text/css">
	.st0{clip-path:url(#SVGID_2_);}
	.st1{filter:url(#filter-3);}
	.st2{fill:#28B655;}
	.st3{filter:url(#Adobe_OpacityMaskFilter);}
	.st4{fill:#FFFFFF;}
	.st5{opacity:0.2;mask:url(#mask-2_1_);}
	.st6{fill:#A2EF80;}
	.st7{fill:#B8FF98;}
	.st8{filter:url(#Adobe_OpacityMaskFilter_1_);}
	.st9{mask:url(#mask-2_2_);}
	.st10{clip-path:url(#SVGID_2_);fill:#FFFFFF;}
	.st11{clip-path:url(#SVGID_2_);fill:#6AF7FF;}
	.st12{fill:none;stroke:#FFFFFF;stroke-miterlimit:10;}
</style>
<filter  filterUnits="objectBoundingBox" height="110.1%" id="filter-3" width="114.3%" x="-7.2%" y="-3.2%">
	<feMorphology  in="SourceAlpha" operator="erode" radius="10" result="shadowSpreadOuter1"></feMorphology>
	<feOffset  dx="0" dy="19" in="shadowSpreadOuter1" result="shadowOffsetOuter1"></feOffset>
	<feGaussianBlur  in="shadowOffsetOuter1" result="shadowBlurOuter1" stdDeviation="24"></feGaussianBlur>
	
		<feColorMatrix  in="shadowBlurOuter1" type="matrix" values="0 0 0 0 0.11372549   0 0 0 0 0.623529412   0 0 0 0 0.274509804  0 0 0 0.6 0">
		</feColorMatrix>
</filter>
<title>Group 4</title>
<desc>Created with Sketch.</desc>
<g>
	<defs>
		<rect id="SVGID_1_" width="720" height="1024"/>
	</defs>
	<clipPath id="SVGID_2_">
		<use xlink:href="#SVGID_1_"  style="overflow:visible;"/>
	</clipPath>
	<g id="Desktop" class="st0">
		<g id="Estimate-project-popup" transform="translate(-692.000000, 0.000000)">
			<g id="Group-4" transform="translate(720.000000, 0.000000)">
				<g id="Rectangle">
					<g class="st1">
						<rect id="path-1_5_" x="-28" width="720" height="1024"/>
					</g>
					<g>
						<rect id="path-1_2_" x="-28" class="st2" width="720" height="1024"/>
					</g>
				</g>
				<defs>
					<filter id="Adobe_OpacityMaskFilter" filterUnits="userSpaceOnUse" x="-187.9" y="-18" width="1090" height="1029.8">
						<feColorMatrix  type="matrix" values="1 0 0 0 0  0 1 0 0 0  0 0 1 0 0  0 0 0 1 0"/>
					</filter>
				</defs>
				<mask maskUnits="userSpaceOnUse" x="-187.9" y="-18" width="1090" height="1029.8" id="mask-2_1_">
					<g class="st3">
						<rect id="path-1_3_" x="-28" class="st4" width="720" height="1024"/>
					</g>
				</mask>
				<g id="Group" class="st5">
					
						<g transform="translate(385.000000, 497.149635) rotate(-30.000000) translate(-385.000000, -497.149635) translate(-44.000000, 148.000000)">
						<polygon id="Path_6158" class="st6" points="-23.4,-12.9 249,-12.9 249,682.3 -23.4,682.3 						"/>
						<polygon id="Path_6136" class="st6" points="560.9,-12.2 833.4,-12.2 833.4,683 560.9,683 						"/>
						<polygon id="Path_1" class="st7" points="-23.9,-12.2 248.7,-12.2 404.3,251.3 559.9,-12.2 832.5,-12.2 404.3,683 						"/>
					</g>
				</g>
				<defs>
					<filter id="Adobe_OpacityMaskFilter_1_" filterUnits="userSpaceOnUse" x="173.9" y="465" width="317.1" height="93.8">
						<feColorMatrix  type="matrix" values="1 0 0 0 0  0 1 0 0 0  0 0 1 0 0  0 0 0 1 0"/>
					</filter>
				</defs>
				<mask maskUnits="userSpaceOnUse" x="173.9" y="465" width="317.1" height="93.8" id="mask-2_2_">
					<g class="st8">
						<rect id="path-1_4_" x="-28" class="st4" width="720" height="1024"/>
					</g>
				</mask>
				<g id="mitoc" class="st9">
					<g transform="translate(201.000000, 465.000000)">
						<polygon id="Path_6158_1_" class="st6" points="-27.1,0 9.8,0 9.8,93.8 -27.1,93.8 						"/>
						<polygon id="Path_6136_1_" class="st6" points="51.7,0 88.6,0 88.6,93.8 51.7,93.8 						"/>
						<polygon id="Path_1_1_" class="st7" points="-27.1,0 9.7,0 30.7,35.6 51.7,0 88.5,0 30.7,93.8 						"/>
						<path id="Path_2" class="st4" d="M136.2,10.2c0.4-0.9,1.4-1.3,2.3-1c0.7,0.3,1.2,1,1.1,1.8v28.3c0,1-0.8,1.7-1.8,1.7
							s-1.8-0.8-1.8-1.7V16.9l-10,15.7c-0.4,0.9-1.5,1.3-2.5,1c-0.4-0.2-0.8-0.5-1-1L112.5,17v22.3c0,1-0.8,1.7-1.8,1.7
							s-1.8-0.8-1.8-1.7V11c-0.1-0.5,0.1-0.9,0.4-1.3s0.7-0.6,1.2-0.6c0.8-0.1,1.5,0.3,1.8,1.1l12,18.7L136.2,10.2z"/>
						<path id="Path_3" class="st4" d="M150.9,10.1c0-1,0.8-1.7,1.8-1.7s1.8,0.8,1.8,1.7v29.6c0,1-0.8,1.7-1.8,1.7s-1.8-0.8-1.8-1.7
							V10.1z"/>
						<path id="Path_4" class="st4" d="M188.1,9.3c0.6,0,1.2,0.3,1.6,0.8c0.3,0.5,0.3,1.2,0,1.8c-0.3,0.5-0.9,0.9-1.6,0.8h-11v26.7
							c0,0.5-0.2,0.9-0.5,1.3s-0.8,0.5-1.3,0.5h-0.1c-1,0-1.7-0.8-1.8-1.7V12.7h-11c-0.6,0-1.2-0.3-1.6-0.8c-0.3-0.5-0.3-1.2,0-1.8
							c0.3-0.5,0.9-0.9,1.6-0.8L188.1,9.3z"/>
						<path id="Path_5" class="st4" d="M193.7,24.5c-0.2-7.7,5.4-14.4,13.1-15.6c1.7-0.2,3.5-0.2,5.2,0c7.7,1.1,13.5,7.7,13.5,15.6
							c0.2,4.2-1.2,8.3-4,11.5c-2.8,3.1-6.8,5-11,5.2h-0.9C200.7,41.3,193.7,35,193.7,24.5z M197.3,24.7c0,8.1,5.3,13.2,12.3,13.2
							s12.1-5,12.1-13.2c0.1-6.1-4.2-11.3-10.2-12.3c-1.4-0.2-2.9-0.2-4.3,0C201.2,13.2,196.9,18.6,197.3,24.7L197.3,24.7z"/>
						<path id="Path_6" class="st4" d="M256.9,39.5c-2.3,1.1-4.8,1.7-7.3,1.8c-9-0.1-16.2-7.5-16-16.5v-0.2
							c-0.1-7.8,5.6-14.5,13.4-15.7c5.4-1,11,0.8,14.8,4.8c0.6,0.7,0.5,1.7-0.2,2.3c-0.7,0.6-1.7,0.5-2.3-0.1
							c-3-3.1-7.3-4.5-11.5-3.6c-6.2,0.7-10.7,6.1-10.3,12.3c-0.2,7.1,5.4,13,12.5,13.2h0.1c2,0,4-0.5,5.7-1.4
							c1.6-0.8,2.9-1.9,4-3.3c1.1-1.7,4.1,0.2,2.9,2C261,36.9,259.1,38.5,256.9,39.5L256.9,39.5z"/>
						<path id="Path_7" class="st4" d="M137,81.4c-4.3,5.3-11.5,7.3-17.8,4.9c-6.4-2.4-10.5-8.6-10.3-15.4
							c0.1-7.7,5.6-14.3,13.2-15.7c0.8-0.1,1.7-0.2,2.5-0.2c4.3-0.2,8.5,1.5,11.5,4.7c1.4,1.7-1.1,4.1-2.5,2.3
							c-2.8-3.1-7-4.4-11.1-3.4c-6.2,1.4-10.5,7.2-10,13.5c0.5,6.4,5.6,11.4,11.9,11.9c3.7,0.1,7.3-1.5,9.6-4.4v-6.6h-8.9
							c-0.9,0-1.6-0.7-1.6-1.6s0.7-1.6,1.6-1.6h10.4c1.4,0,1.9,0.8,1.9,1.8v8.2C137.6,80.3,137.4,80.9,137,81.4L137,81.4z"/>
						<path id="Path_8" class="st4" d="M152.2,75.9v9.5c0,1-0.8,1.7-1.8,1.7s-1.8-0.8-1.8-1.7V57.2c0-0.4,0.1-0.9,0.4-1.2
							s0.7-0.5,1.2-0.5H162c8.5,0,12.9,5,12.9,10.6c0,5-2.7,8.6-8.8,9.6l8,8.6c0.4,0.4,0.6,1.1,0.5,1.7c-0.2,0.6-0.6,1.1-1.2,1.2
							c-0.6,0.2-1.3,0-1.7-0.5L161.8,76L152.2,75.9z M152.2,72.7h9.8c6.5,0,9.3-3,9.2-6.7c-0.1-3.7-3.4-7.3-9.2-7.3h-9.8L152.2,72.7
							z"/>
						<path id="Path_9" class="st4" d="M183.1,70.6c-0.2-7.7,5.4-14.4,13.1-15.6c1.7-0.2,3.5-0.2,5.2,0c8.1,1.4,13.8,8.6,13.4,16.8
							s-6.8,14.8-15,15.4H199C190.2,87.4,183.1,81.1,183.1,70.6z M186.7,70.8c0,8.1,5.3,13.2,12.3,13.2s12.1-5,12.1-13.2
							c0.1-6.1-4.2-11.3-10.2-12.3c-1.4-0.2-2.9-0.2-4.3,0C190.6,59.4,186.3,64.7,186.7,70.8L186.7,70.8z"/>
						<path id="Path_10" class="st4" d="M250,56.8c0-0.5,0.2-0.9,0.5-1.3c0.3-0.3,0.8-0.5,1.3-0.5c1,0,1.8,0.8,1.8,1.8V73
							c0,8-6.5,14.5-14.5,14.5c-8,0-14.5-6.5-14.5-14.5V56.8c0-2.2,3.7-2.2,3.7,0v16.1c0,14.2,21.7,14.2,21.7,0V56.8z"/>
						<path id="Path_11" class="st4" d="M268.6,77.6v7.9c0,0.5-0.2,0.9-0.5,1.3c-0.3,0.3-0.8,0.5-1.3,0.5c-0.5,0-1-0.2-1.3-0.5
							c-0.3-0.3-0.5-0.8-0.5-1.3V57.2c0-0.5,0.2-0.9,0.5-1.2s0.8-0.5,1.3-0.5h10.8c8.5,0,12.5,5.6,12.5,11.4s-4,10.8-12.7,10.8
							L268.6,77.6z M268.6,74.3h8.8c6.6,0,9.3-3.8,9.2-7.5c-0.1-2.2-1-4.3-2.6-5.9c-1.6-1.5-3.8-2.3-6-2.2h-9.3L268.6,74.3z"/>
					</g>
				</g>
			</g>
		</g>
	</g>
	<circle class="st10" cx="250.6" cy="303.8" r="30.2"/>
	<circle class="st10" cx="204.1" cy="246.7" r="11.3"/>
	<circle class="st10" cx="598.3" cy="628.7" r="7.6"/>
	<path class="st11" d="M414.4,426.9h-27.9c-4.3,0-6.7-5-4-8.3l12.7-15.9c2.4-3,7-3,9.4,0l13.4,16.7
		C420.4,422.4,418.3,426.9,414.4,426.9z"/>
	<g class="st0">
		<line class="st12" x1="388.6" y1="621.1" x2="388.9" y2="651"/>
		<line class="st12" x1="403.7" y1="636" x2="373.8" y2="636"/>
	</g>
</g>
</svg>
