<?xml version="1.0" encoding="utf-8"?>
<!-- Generator: Adobe Illustrator 22.1.0, SVG Export Plug-In . SVG Version: 6.00 Build 0)  -->
<svg version="1.1" id="Layer_1" xmlns="http://www.w3.org/2000/svg" xmlns:xlink="http://www.w3.org/1999/xlink" x="0px" y="0px"
	 viewBox="0 0 87 141.7" style="enable-background:new 0 0 87 141.7;" xml:space="preserve">
<style type="text/css">
	.st0{fill:#FFC4A8;}
	.st1{fill:url(#Path_21_);}
	.st2{fill:#0B2C33;}
	.st3{fill:#F06887;}
	.st4{fill:#FFFFFF;}
	.st5{fill:#CD4669;}
	.st6{fill:#0A1F2E;}
	.st7{opacity:0.5;}
</style>
<title>Group</title>
<desc>Created with Sketch.</desc>
<g>
	<g id="Desktop">
		<g id="Estimate-project-popup" transform="translate(-349.000000, -116.000000)">
			<g id="Group" transform="translate(348.600000, 116.100000)">
				<path id="Path" class="st0" d="M58.2,127.1l0.9,3.1c0,0,0.7,0.2,1.2,0c0.6-0.2,0.8-3.9,0.8-3.9L58.2,127.1z"/>
				<path id="Path_1_" class="st0" d="M67.6,130.3l0.9,3.1c0,0,0.7,0.2,1.2,0c0.5-0.2,0.8-3.9,0.8-3.9L67.6,130.3z"/>
				
					<linearGradient id="Path_21_" gradientUnits="userSpaceOnUse" x1="-270.4439" y1="424.5128" x2="-270.4439" y2="423.6277" gradientTransform="matrix(23.9598 0 0 -71.4601 6542.3896 30399.7969)">
					<stop  offset="0" style="stop-color:#151953"/>
					<stop  offset="0.6834" style="stop-color:#134753"/>
				</linearGradient>
				<path id="Path_2_" class="st1" d="M57.8,62.6c0.9-1.6-1.6-3-2.4-1.4c-5.1,9.3-4.4,20.9-4.8,31.1c-0.1,3.1,0,5.9,0.5,8.7
					c-0.1,0.2-0.2,0.5-0.2,0.7c0,8.1,2.1,15.7,6.2,22.6c0.2,0.7,0.4,1.3,0.5,2c0.2,0.9,1.1,1.1,1.8,0.9c0.7,0.2,1.5-0.1,1.6-0.9
					c0.9-6,0.5-12.1,0.3-18.3c0.6,4.9,1.3,9.9,2.4,14.6c0.6,2.4,1.6,7.1,4.2,8.2c2,0.8,3.3-0.4,4-2.1c1.6-3.7,1.6-9.3,2-13.2
					c0.5-5.4,0.7-10.9,0.6-16.4c-0.3-11.1-2.6-22-2.4-33.1c0-1.8-2.8-1.8-2.8,0"/>
				<path id="Path_3_" class="st2" d="M69,27.4l-1.6,2.3c0,0,0.3,2.2,5.6,0.6l2.8-1c0,0-2.8-5.6-3.1-7.4c-0.3-1.8-2.8-6.1-5.9-5.9
					c0,0-7.9,0.3-7.2,7.4c0.1,1,0.1,1.9,0.1,2.7c-0.2,2.9,2.2,5.2,5.1,4.8c0.1,0,0.2,0,0.3,0C70.8,30.1,69,27.4,69,27.4z"/>
				<path id="Path_4_" class="st0" d="M70.3,23.7c-0.3,0-0.6,0.1-0.9,0.2c0-0.1,0.1-0.3,0.1-0.4c0-0.6-0.1-1.2-0.3-1.7
					c-0.1-0.1-0.1-0.3-0.2-0.4c0-0.2-0.1-0.4-0.3-0.6c-1-0.9-3.1-1.6-4.4-0.8c-0.4-0.2-0.9-0.1-1.1,0.4c-0.9,1.8-1.3,3.7-1,5.6
					c0.2,1.4,0.6,3.3,2.1,3.9c0.2,0.1,0.3,0.1,0.5,0.1L63.6,32l2.1,6.4l3.5-7.8l-1.1-2.5c0.3-0.4,0.5-0.9,0.8-1.2
					c0.4-0.5,0.6-0.4,1.2-0.7c0.6-0.4,0.6-0.8,0.8-1.5S71,23.6,70.3,23.7z"/>
				<path id="Path_5_" class="st3" d="M86.5,41.5c-1.8-6.1-9.8-8.3-14.9-10.8c-0.6-0.3-2-0.4-2.4,0c-0.5,0.1,0.3-0.6,0,0
					c-1.7,3-2.1,5.1-3.5,7.5c-0.2-0.6,0-0.2-0.2-0.7c-0.4-1.2-0.3-1.9-0.7-3.1c-0.1-0.4-0.5-2-0.8-2.1c-0.4-0.7-0.8,0.2-0.8,0.2
					c-1.2,1.5-5.2,2.5-6.6,3.7c-0.6,0.4-0.9,1-1.2,1.6c-0.2,0.5-0.3,0.9-0.8,1.3c-0.9,0.7-1.8-0.1-2.1-1.1c-0.1-0.3-0.2-0.5-0.4-0.7
					c-0.1-1-1.4-1.8-2.4-0.9c-4.8,4.1-9.3,10.6-7.7,17.2c1.3,5.4,6,5.6,10.2,3.8c2.9,4.6,9.4,7.2,14.3,8.6
					c6.4,1.7,11.5,1.1,14.8-4.9C84.1,55.7,88.3,47.7,86.5,41.5z"/>
				<path id="Path_6_" class="st2" d="M64.3,20.1c0,0,1.6,2.6,5.2,3.4c0,0-3.8-2.6-4-3.8C65.4,18.6,64.3,20.1,64.3,20.1z"/>
				<polygon id="Path_7_" class="st4" points="65.6,38.4 59.3,41.5 63.9,32.4 				"/>
				<polygon id="Path_8_" class="st4" points="71.6,30.9 71.6,41.5 65.6,38.4 69.1,30.9 				"/>
				<g id="Path_9_" transform="translate(25.000000, 3.000000)">
					<path class="st2" d="M43.1,25.4c0,0-1,4,5,2C54.2,25.4,43.1,25.4,43.1,25.4z"/>
					<path class="st2" d="M44.5,19.5c1.6,0.6,0.7-1.9,0.7-1.9l-3.7-1.5C41.5,16.1,42.9,18.9,44.5,19.5z"/>
				</g>
				<path id="Path_10_" class="st5" d="M78.5,47.1l-2.3,5.7c-0.9,2.2-3,3.6-5.3,3.6H68C65,56.3,78.5,47.1,78.5,47.1z"/>
				<path id="Path_11_" class="st0" d="M50,36.6l5.9-6.8c0,0,3.3-2.3,2.9-1.3c-0.4,1-2.2,3-2.2,3s1.4,1.2,1.1,2
					c-0.3,0.9-2.5,2.9-3.4,3.3c-0.9,0.3-2.9,1.4-2.9,1.4L50,36.6z"/>
				<path id="Path_12_" class="st0" d="M52,57.3l2.8-2.6c0,0-2.4-1.2-2.8,0C51.6,55.9,52,57.3,52,57.3z"/>
				<path id="Path_13_" class="st4" d="M50,35.9c0,0,2-0.5,2.3,2.2c0.3,2.6-3.4-1.1-3.4-1.1L50,35.9z"/>
				<path id="Path_14_" class="st4" d="M52,57.3c0,0,2.2-2.8,2.8-2.6c0.7,0.2,0.5,0.8,0,1.5c-0.5,0.7-2.4,2.8-2.4,2.8l-0.6-1.2
					L52,57.3z"/>
				<path id="Path_15_" class="st4" d="M53.3,133.4c0,0-0.4,0.7,0.1,0.8c0.6,0.1,1.8,0.8,3.3,0c1.5-0.8,1.8-1.7,2.2-1.9
					c0.4-0.2,1.2-0.4,1.6-0.6c0.4-0.2,1.4-0.4,1.3-1.1c0-0.3-0.7-0.9-1-0.9c-0.3,0-1.4,0.7-1.4,0.7l-3.6,1.7L53.3,133.4z"/>
				<path id="Path_16_" class="st2" d="M57.2,128.4c0,0,2,0.1,2,0.7c0,0.6-0.2,0.8-0.2,0.8l1.4-0.2l0.4-0.5c0,0,0.4,1,0.3,1.2
					c-0.1,0.2-1,1.2-1.9,1.5c-1,0.3-2.4,1.7-3.4,2c-0.9,0.3-2.2,0.3-2.5-0.4c-0.2-0.5,3.2-3.2,3.5-3.5
					C57,129.6,57.2,128.4,57.2,128.4z"/>
				<path id="Path_17_" class="st4" d="M70.3,133.4c0,0,1.4,0,1.2,0.6c-0.2,0.6-2.2,4.7-2.9,5.3c-0.7,0.6-2,0.6-2.2,0.2
					s0.4-1.1,0.4-1.1L70.3,133.4z"/>
				<path id="Path_18_" class="st2" d="M66.7,132.3c0,0,2.2-0.3,2.4,0c0.2,0.3,0.6,1.1,0.6,1.1s0.5-0.7,0.4-0.6c0,0.1,0.4,1,0.4,1.3
					s-1.4,4.4-2.6,4.8c-1.2,0.4-1.7-0.2-1.4-1c0.3-0.8,0.3-2.4,0.4-3.3S66.7,132.3,66.7,132.3z"/>
				<path id="Path_19_" class="st6" d="M57.6,75.6l3.5,1.7v16.1C61.1,93.4,55.8,81.2,57.6,75.6z"/>
			</g>
		</g>
	</g>
	<g id="Desktop_1_" class="st7">
		<g id="Estimate-project-popup_1_" transform="translate(-310.000000, -99.000000)">
			<polyline id="Path_20_" class="st4" points="369.3,133.5 310.1,99.9 310,152.2 369.2,186 369.3,133.5 			"/>
		</g>
	</g>
</g>
</svg>
