<?xml version="1.0" encoding="utf-8"?>
<!-- Generator: Adobe Illustrator 22.1.0, SVG Export Plug-In . SVG Version: 6.00 Build 0)  -->
<svg version="1.1" id="Layer_1" xmlns="http://www.w3.org/2000/svg" xmlns:xlink="http://www.w3.org/1999/xlink" x="0px" y="0px"
	 viewBox="0 0 60.9 60.9" style="enable-background:new 0 0 60.9 60.9;" xml:space="preserve">
<style type="text/css">
	.st0{display:none;filter:url(#filter-3);}
	.st1{display:inline;}
	.st2{fill:url(#SVGID_1_);stroke:#FFFFFF;stroke-opacity:0.4004;}
	.st3{fill:url(#Oval_2_);}
	.st4{fill:url(#Combined-Shape_1_);}
</style>
<filter  filterUnits="objectBoundingBox" height="176.7%" id="filter-3" width="165.0%" x="-32.5%" y="-19.2%">
	<feMorphology  in="SourceAlpha" operator="erode" radius="8" result="shadowSpreadOuter1"></feMorphology>
	<feOffset  dx="0" dy="15" in="shadowSpreadOuter1" result="shadowOffsetOuter1"></feOffset>
	<feGaussianBlur  in="shadowOffsetOuter1" result="shadowBlurOuter1" stdDeviation="12"></feGaussianBlur>
	<feComposite  in="shadowBlurOuter1" in2="SourceAlpha" operator="out" result="shadowBlurOuter1"></feComposite>
	
		<feColorMatrix  in="shadowBlurOuter1" type="matrix" values="0 0 0 0 0   0 0 0 0 0.411764706   0 0 0 0 0.870588235  0 0 0 0.5 0">
		</feColorMatrix>
</filter>
<title>Oval</title>
<desc>Created with Sketch.</desc>
<g id="Google-Cloud-Partner" transform="translate(-378.000000, -1438.000000)">
	<g id="Group-27" transform="translate(385.000000, 1438.000000)">
		<g id="Group-15">
			<g id="Oval">
				<g class="st0">
					<circle id="path-2_1_" class="st1" cx="23.5" cy="30.1" r="30"/>
				</g>
				
					<linearGradient id="SVGID_1_" gradientUnits="userSpaceOnUse" x1="-322.7921" y1="382.598" x2="-321.7921" y2="382.584" gradientTransform="matrix(59 0 0 -59 19038.75 22603)">
					<stop  offset="0" style="stop-color:#0069DE"/>
					<stop  offset="1" style="stop-color:#008AFF"/>
				</linearGradient>
				<circle class="st2" cx="23.5" cy="30.1" r="29.5"/>
			</g>
		</g>
	</g>
</g>
<g id="Google-Cloud-Partner_1_" transform="translate(-404.000000, -1458.000000)">
	<g id="Group-27_1_" transform="translate(385.000000, 1438.000000)">
		<g id="Group-15_1_">
			<g id="Regions-Icon" transform="translate(19.000000, 19.000000)">
				<g id="Group-10">
					
						<linearGradient id="Oval_2_" gradientUnits="userSpaceOnUse" x1="-304.6413" y1="373.7528" x2="-305.6413" y2="373.7528" gradientTransform="matrix(22 0 0 -21.9048 6743.625 8218.5371)">
						<stop  offset="0" style="stop-color:#FFFFFF"/>
						<stop  offset="1" style="stop-color:#FFFFFF;stop-opacity:0.5"/>
					</linearGradient>
					<ellipse id="Oval_1_" class="st3" cx="30.5" cy="31.6" rx="11" ry="11"/>
					<g id="Group" transform="translate(2.000000, 0.000000)">
						
							<linearGradient id="Combined-Shape_1_" gradientUnits="userSpaceOnUse" x1="-304.2057" y1="371.2377" x2="-305.2057" y2="371.2377" gradientTransform="matrix(19.0097 0 0 -18.7812 5822.3809 7002.2788)">
							<stop  offset="0" style="stop-color:#008BFF"/>
							<stop  offset="1" style="stop-color:#006AD9"/>
						</linearGradient>
						<path id="Combined-Shape" class="st4" d="M39.5,31.3c0,0-1.1,0.5-1.9,0.4s-1.1-1.5-0.5-2.5c0.6-1,1-0.5,1.1-0.9
							c0.1-0.4-0.6-0.4-0.7-0.9c-0.1-0.5,0.5-1.4,0.5-1.4C38.9,27.5,39.5,29.3,39.5,31.3z M31.6,21c1.1,0.3,2.2,0.8,3.1,1.5
							c0,0-1.1-0.2-1.6,0.2c-0.4,0.4-1.1,1.3-1.6,0C31.1,21.4,31.6,21,31.6,21z M20.5,24.1c1.8-2.1,4.4-3.5,7.3-3.5
							c0-0.1-0.7,0.5,0.6,1.2s0.7,1,0.4,1.2c-0.3,0.2-0.7-0.4-1-0.8c-0.3-0.4-1.6-1.1-2.5-0.7c-1,0.3-1.8,0.6-1.7,0.9
							s1.8-0.3,2.4-0.3c0.6,0,0.4,0.4-0.2,0.9c-0.6,0.5-0.7,1,0,1.4c0.6,0.3,1.4,0.4,1.6,0.2c0.2-0.2-0.3-1.6,0.9-1
							c1.2,0.6,2.2,0.9,1.2,1.8s-2.1,1.9-2.1,2.4c0,0.6,0.3,1,0.1,1c-0.2,0-0.4-0.2-0.5-0.4s-0.8-0.3-1.1-0.1
							c-0.3,0.1-0.9,0.6-0.6,1c0.3,0.5,0.8,0.2,1.2,0.5c0.5,0.2,0.9,1,0.8,1.2c-0.1,0.2-0.5,0-0.8-0.7c-0.3-0.6-0.9-0.2-1.3-0.3
							c-0.4-0.1-0.7-0.2-1.1-0.9c-0.4-0.7-1.3-0.9-1.6-1.4c-1-1.2-0.9-2.2-1.1-2.6C21.1,24.8,20.5,24.1,20.5,24.1z M29,30.7
							c0,0,1,0.1,1.6,0.6c0.5,0.5,0.6,0.6,1.4,0.8c0.8,0.2,1.1,0.6,0.6,1.5c-0.5,0.9-1.5,2.3-1.9,2.7c-0.5,0.4-1,0.8-1.2,1.5
							c-0.2,0.7-0.3,1.1,0.2,1.4c0,0-0.2,0.6-0.8-0.2c-0.6-0.8-0.1-1.7,0-2.2s0.4-2.1,0.2-2.5c-0.2-0.4-1-0.6-1.2-1.5
							C27.7,32,28,30.4,29,30.7z"/>
					</g>
				</g>
			</g>
		</g>
	</g>
</g>
</svg>
