<svg xmlns="http://www.w3.org/2000/svg" viewBox="0 0 98 98"><style type="text/css">
	.st0{fill:#FF9900;}
	.st1{fill:#FFFFFF;}
</style><circle class="st0" cx="49" cy="49" r="49"/><path class="st1" d="M69.7 47.4c-0.2-1.1-0.8-2-1.6-2.8 -0.8-0.7-1.8-1.2-2.9-1.3 -3.4-0.4-8.6-0.6-15.5-0.6 -6.9 0-12.1 0.2-15.5 0.6 -1.1 0.1-2.1 0.6-2.9 1.3 -0.8 0.7-1.4 1.7-1.6 2.8 -0.5 2.2-0.7 5.4-0.7 9.8 0 4.4 0.2 7.7 0.7 9.8 0.2 1.1 0.8 2 1.6 2.8 0.8 0.7 1.8 1.2 2.9 1.3 3.4 0.4 8.6 0.6 15.5 0.6 6.9 0 12.1-0.2 15.5-0.6 1.1-0.1 2-0.5 2.8-1.3 0.8-0.7 1.4-1.7 1.6-2.8 0.5-2.2 0.7-5.4 0.7-9.8C70.4 52.8 70.1 49.5 69.7 47.4zM40.8 50.3h-3v15.9H35V50.3h-2.9v-2.6h8.7L40.8 50.3 40.8 50.3zM48.3 66.2h-2.5v-1.5c-1 1.1-2 1.7-2.8 1.7 -0.9 0-1.4-0.3-1.6-1 -0.1-0.4-0.2-1.1-0.2-2V52.4h2.5v10.2c0 0.6 0 0.9 0 1 0.1 0.4 0.3 0.6 0.6 0.6 0.5 0 1-0.4 1.6-1.2V52.4h2.5L48.3 66.2 48.3 66.2zM57.8 62c0 1.4-0.1 2.3-0.3 2.8 -0.3 1-1 1.5-2 1.5 -0.9 0-1.8-0.5-2.6-1.5v1.3h-2.5V47.6H53v6.1c0.8-1 1.7-1.5 2.6-1.5 1 0 1.7 0.5 2 1.6 0.2 0.5 0.3 1.4 0.3 2.8V62zM67.3 59.7h-5v2.4c0 1.3 0.4 1.9 1.3 1.9 0.6 0 1-0.3 1.1-1 0-0.2 0.1-0.8 0.1-1.7h2.5v0.4c0 0.9 0 1.5-0.1 1.6 -0.1 0.5-0.3 1-0.6 1.5 -0.7 1-1.7 1.5-3 1.5 -1.3 0-2.3-0.5-3-1.4 -0.5-0.7-0.8-1.8-0.8-3.2v-4.8c0-1.5 0.3-2.5 0.8-3.2 0.7-0.9 1.7-1.4 3-1.4 1.2 0 2.2 0.5 3 1.4 0.5 0.7 0.8 1.8 0.8 3.2V59.7L67.3 59.7z"/><path class="st1" d="M54.3 54.5c-0.4 0-0.8 0.2-1.3 0.6v8.4c0.4 0.4 0.8 0.6 1.3 0.6 0.7 0 1.1-0.6 1.1-1.9v-5.9C55.4 55.1 55 54.5 54.3 54.5z"/><path class="st1" d="M63.5 54.5c-0.8 0-1.3 0.6-1.3 1.9v1.3h2.5v-1.3C64.8 55.1 64.4 54.5 63.5 54.5z"/><path class="st1" d="M39.2 32.7v7.6H42v-7.6l3.4-11.1h-2.8l-1.9 7.3 -2-7.3h-3c0.5 1.6 1.1 3.3 1.8 5.2C38.4 29.4 38.9 31.4 39.2 32.7z"/><path class="st1" d="M49.1 40.5c1.3 0 2.3-0.5 3-1.4 0.5-0.7 0.8-1.8 0.8-3.3v-4.9c0-1.5-0.3-2.6-0.8-3.3 -0.7-0.9-1.7-1.4-3-1.4 -1.2 0-2.2 0.5-2.9 1.4 -0.5 0.7-0.8 1.8-0.8 3.3v4.9c0 1.5 0.3 2.6 0.8 3.3C46.9 40 47.9 40.5 49.1 40.5zM47.9 30.4c0-1.3 0.4-1.9 1.2-1.9s1.2 0.6 1.2 1.9v5.9c0 1.3-0.4 2-1.2 2s-1.2-0.7-1.2-2V30.4z"/><path class="st1" d="M56.8 40.5c0.9 0 1.9-0.6 2.9-1.7v1.5h2.5V26.4h-2.5V37c-0.6 0.8-1.1 1.2-1.6 1.2 -0.3 0-0.5-0.2-0.6-0.6 0 0 0-0.4 0-1V26.4h-2.5v11c0 0.9 0.1 1.6 0.2 2.1C55.4 40.2 55.9 40.5 56.8 40.5z"/></svg>
