<svg xmlns="http://www.w3.org/2000/svg" viewBox="0 0 406.27077 152.5613"><defs><style>.cls-1{fill:#fff;}.cls-1,.cls-3,.cls-5,.cls-6{stroke:#242424;stroke-width:2.052px;}.cls-1,.cls-3,.cls-5,.cls-6,.cls-7{stroke-miterlimit:10;}.cls-2,.cls-5{fill:#7ed257;}.cls-3,.cls-7{fill:none;}.cls-4,.cls-6{fill:#28b655;}.cls-7{stroke:#28b655;stroke-width:5.13px;}</style></defs><title>partners</title><g id="Layer_2" data-name="Layer 2"><g id="Layer_1-2" data-name="Layer 1"><path id="Path_6224" data-name="Path 6224" class="cls-1" d="M113.87078,74.382a30.215,30.215,0,0,1-12.311,24.369v14.1h-89.258v-.01c-.174.01-.339.01-.513.01a10.771,10.771,0,0,1-4.379-20.608,13.1197,13.1197,0,0,1-.236-2.473,12.829,12.829,0,0,1,12.822-12.819,12.65705,12.65705,0,0,1,6.915,2.031,19.5,19.5,0,0,1,19.247-16.395,19.157,19.157,0,0,1,8.782,2.1,30.262,30.262,0,0,1,58.931,9.7Z"/><path id="Path_6225" data-name="Path 6225" class="cls-1" d="M113.87078,23.34v86.437h82.076V1.026h-59.248Z"/><path id="Path_6226" data-name="Path 6226" class="cls-2" d="M136.44177,2.48V23.597h-22.571Z"/><line id="Line_165" data-name="Line 165" class="cls-3" x1="113.87078" y1="23.597" x2="136.44177" y2="23.597"/><path id="Path_6227" data-name="Path 6227" class="cls-3" d="M113.87078,23.34v86.437h82.076V1.026h-59.248Z"/><line id="Line_166" data-name="Line 166" class="cls-3" x1="136.44177" y1="1.026" x2="136.44177" y2="24.623"/><rect id="Rectangle_523" data-name="Rectangle 523" class="cls-1" x="66.42076" y="58.479" width="88.232" height="56.427"/><path id="Path_6228" data-name="Path 6228" class="cls-4" d="M82.06577,86.18l12.311,5.13,12.312-14.359,26.675,24.623,16.415-3.591v12.824h-79Z"/><path id="Path_6229" data-name="Path 6229" class="cls-3" d="M150.03577,110.803h-79V62.583h79Z"/><path id="Path_6230" data-name="Path 6230" class="cls-5" d="M330.34676,33.856V97.465h-98.491V33.856l49.246-23.6Z"/><line id="Line_167" data-name="Line 167" class="cls-3" x1="330.34776" y1="33.856" x2="231.85576" y2="33.856"/><path id="Path_6231" data-name="Path 6231" class="cls-1" d="M324.19176,20.519V37.837l-43.09,27.824-44.116-28.491V20.519Z"/><line id="Line_168" data-name="Line 168" class="cls-3" x1="330.34776" y1="33.856" x2="324.19176" y2="37.837"/><line id="Line_169" data-name="Line 169" class="cls-3" x1="281.10176" y1="65.661" x2="231.85576" y2="97.466"/><line id="Line_170" data-name="Line 170" class="cls-3" x1="330.34776" y1="97.466" x2="281.10176" y2="65.661"/><line id="Line_171" data-name="Line 171" class="cls-3" x1="236.98576" y1="37.17" x2="231.85576" y2="33.856"/><path id="Path_6232" data-name="Path 6232" class="cls-1" d="M405.24178,100.03c0,5.951-4.822,11.8-10.773,11.8-.174,0-.339,0-.513-.01v.01h-104.646v-5.171a14.363,14.363,0,0,1-2.483-28.255,22.054,22.054,0,0,1,20.437-13.768,21.33615,21.33615,0,0,1,5.273.646,28.21,28.21,0,0,1,55.773,6.022,25.96347,25.96347,0,0,1-.133,2.7,17.11494,17.11494,0,0,1,2.185-.133,18.458,18.458,0,0,1,18.406,17.035,10.764,10.764,0,0,1,16.477,9.127Z"/><rect id="Rectangle_524" data-name="Rectangle 524" class="cls-6" x="301.62078" y="63.609" width="21.545" height="48.22"/><path id="Path_6233" data-name="Path 6233" class="cls-1" d="M314.93877,103.768a17.239,17.239,0,0,1-17.235,17.243h-191.303c-.183,0-.356,0-.539-.011a15.622,15.622,0,0,1-7.372-29.088,20.2053,20.2053,0,0,1-.172-2.694,22.088,22.088,0,0,1,32.213-19.636,30.722,30.722,0,0,1,45.771-14.506,40.953,40.953,0,0,1,81.12646,11.27344q-.23759,1.70955-.61847,3.39455a21.027,21.027,0,0,1,31.189,18.4c0,.183,0,.366-.011.539,0,.291-.022.582-.043.862a14.37037,14.37037,0,0,1,1.4-.862,17.247,17.247,0,0,1,25.6,15.088Z"/><rect id="Rectangle_525" data-name="Rectangle 525" class="cls-5" x="333.42476" y="38.986" width="21.545" height="72.843"/><path id="Path_6234" data-name="Path 6234" class="cls-1" d="M241.85878,117.087a6.165,6.165,0,0,1-6.156,6.156h-2.793a25.64451,25.64451,0,0,1-3.088,7.469l1.97,1.97a6.159,6.159,0,0,1-8.71,8.71l-1.97-1.97a25.64419,25.64419,0,0,1-7.469,3.088v2.791a6.156,6.156,0,0,1-12.311.1566q-.001-.0783,0-.1566V142.51a25.6432,25.6432,0,0,1-7.469-3.088l-1.97,1.97a6.159,6.159,0,0,1-8.71-8.71l1.97-1.97a25.64421,25.64421,0,0,1-3.088-7.469h-2.791a6.156,6.156,0,0,1-.15658-12.311q.07827-.001.15658,0h2.791a25.64234,25.64234,0,0,1,3.088-7.469l-1.97-1.97a6.159,6.159,0,0,1,8.65954-8.76044l.05045.05044,1.97,1.97a25.64348,25.64348,0,0,1,7.469-3.088V88.874a6.156,6.156,0,0,1,12.311-.15659q.001.07828,0,.15659v2.791a25.64438,25.64438,0,0,1,7.467,3.086l1.97-1.97a6.159,6.159,0,0,1,8.76044,8.65956l-.05045.05044-1.97,1.97a25.64454,25.64454,0,0,1,3.088,7.469h2.791A6.174,6.174,0,0,1,241.85878,117.087Z"/><circle id="Ellipse_5" data-name="Ellipse 5" class="cls-7" cx="207.48878" cy="117.087" r="17.441"/><circle id="Ellipse_6" data-name="Ellipse 6" class="cls-2" cx="207.48976" cy="117.087" r="7.695"/></g></g></svg>