<svg xmlns="http://www.w3.org/2000/svg" viewBox="0 0 415.44857 176"><defs><style>.cls-1{fill:#7ed257;}.cls-2{fill:#242424;}.cls-3{fill:#fff;}</style></defs><title>404-page</title><g id="Layer_2" data-name="Layer 2"><g id="Layer_1-2" data-name="Layer 1"><path class="cls-1" d="M269.16853,149.875c-34.375,34.375-92.95,31.625-123.475,1.1-18.425-18.7-20.9-76.725,13.475-111.1s94.325-29.975,111.1-13.475C300.79353,56.925,303.54353,115.5,269.16853,149.875Z"/><path class="cls-2" d="M207.29353,8.25a79.75,79.75,0,1,1-79.75,79.75,79.80731,79.80731,0,0,1,79.75-79.75m0-8.25a88,88,0,1,0,88,88A87.9055,87.9055,0,0,0,207.29353,0Z"/><path class="cls-3" d="M182.37843,108.35a213.919,213.919,0,0,1-25.3-15.4c-1.375-.825-2.75-1.925-4.125-2.75V88.55a3.29356,3.29356,0,0,1,1.1-1.1c8.25-5.775,17.6-11.55,27.775-17.325a12.70456,12.70456,0,0,1-1.925,1.925c-.55.275-3.025,1.925-7.15,4.675-4.675,3.025-8.25,5.225-10.45,6.6-4.4,2.75-5.5,3.3-5.5,5.775s0,2.475,8.25,7.425c4.4,2.75,7.425,4.675,9.9,6.05a47.83482,47.83482,0,0,1,4.95,3.025A12.38571,12.38571,0,0,1,182.37843,108.35Z"/><path class="cls-2" d="M183.7019,64.625a15.90186,15.90186,0,0,0-3.85,1.375,302.39749,302.39749,0,0,0-28.6,17.875,6.22477,6.22477,0,0,0-3.025,4.675v.825a6.53236,6.53236,0,0,0,.825,3.3,27.913,27.913,0,0,0,4.95,3.575c17.325,11.275,27.225,17.05,29.975,17.05,1.375,0,2.2-1.375,2.2-4.4a9.37306,9.37306,0,0,0-4.675-6.875,54.77574,54.77574,0,0,0-5.225-3.3c-2.475-1.375-5.775-3.3-9.9-6.05s-6.325-3.85-6.325-4.125a40.70836,40.70836,0,0,1,3.575-2.2q3.3-2.0625,10.725-6.6c4.95-3.025,7.15-4.675,7.425-4.675a8.48429,8.48429,0,0,0,4.125-6.325c0-2.75-.55-4.125-2.2-4.125Z"/><path class="cls-3" d="M195.03851,119.075c1.65-4.95,7.7-20.35,26.4-64.075.275-.55.55-.825.825-1.375h0q-1.2375,2.8875-1.65,4.125a2.07879,2.07879,0,0,0-.275,1.1l-1.65,4.125q-1.65,4.125-2.475,5.775a11.5605,11.5605,0,0,1-.55,1.375V69.85c-.275.275-.825,1.925-8.8,21.725-7.15,17.6-9.075,22.55-9.625,23.65A27.48027,27.48027,0,0,1,195.03851,119.075Z"/><path class="cls-2" d="M220.30558,48.87023q-3.198,0-4.797,4.125-26.38374,63.525-26.38375,67.65v.55c0,1.1,1.33252,1.65,3.731,1.65h1.599c1.599,0,3.198-2.2,5.06355-6.325.533-1.65,3.731-9.35,9.32758-23.65s8.52808-21.45,8.52808-21.45a9.05634,9.05634,0,0,0,.533-1.65,44.86433,44.86433,0,0,1,2.132-5.5l1.599-4.125a4.7353,4.7353,0,0,1,.533-1.375,34.35544,34.35544,0,0,0,1.33251-3.575,9.16676,9.16676,0,0,0,1.066-3.85v-.825c0-1.1-1.33251-1.65-4.264-1.65Z"/><path class="cls-3" d="M236.16853,107.8a7.41315,7.41315,0,0,1,2.2-1.925c.275-.275,1.925-1.375,10.725-6.6,12.375-7.425,12.375-7.425,12.375-9.9s0-2.475-12.375-10.175c-9.075-5.775-10.725-6.875-11-7.15l-1.65-1.65.275.275a302.702,302.702,0,0,1,27.225,17.05,1.96,1.96,0,0,1,.825,1.65c0,.55,0,1.1-1.1,1.65C254.31852,97.075,245.24353,102.85,236.16853,107.8Z"/><path class="cls-2" d="M232.77265,64.35c-1.65,0-2.475,1.375-2.475,3.85a8.88315,8.88315,0,0,0,3.85,6.875q.825.825,11.55,7.425c7.15,4.4,10.45,6.6,10.45,6.875,0,0-3.575,2.2-10.45,6.6-6.875,4.125-10.725,6.6-11.275,6.875-2.75,2.2-4.4,4.4-4.4,6.325V110c0,2.475.825,3.85,2.2,3.85a9.851,9.851,0,0,0,3.025-1.1c9.35-5.225,19.25-11.275,29.425-17.875a6.10045,6.10045,0,0,0,.55-10.175,260.99715,260.99715,0,0,0-27.775-17.325A11.29409,11.29409,0,0,0,232.77265,64.35Z"/><path class="cls-2" d="M109.01064,113.07325a4.35672,4.35672,0,0,1,0,6.4689,4.80345,4.80345,0,0,1-3.354,1.31795H87.44837v49.11442a4.91282,4.91282,0,0,1-4.79191,4.79191,4.48487,4.48487,0,0,1-3.474-1.43748,4.79868,4.79868,0,0,1-1.31751-3.35443V120.8601H4.79147a4.31659,4.31659,0,0,1-3.474-1.55746A5.23194,5.23194,0,0,1,0,115.82868a4.20762,4.20762,0,0,1,1.198-3.11447L78.58352,8.97405a4.79116,4.79116,0,0,1,4.07294-1.91694,4.49006,4.49006,0,0,1,3.474,1.43748A4.821,4.821,0,0,1,87.44837,11.849v99.90672h18.20829A4.82069,4.82069,0,0,1,109.01064,113.07325Zm-95.11481-1.31751H77.865V25.74485Z"/><path class="cls-2" d="M414.01064,113.07325a4.35672,4.35672,0,0,1,0,6.4689,4.80345,4.80345,0,0,1-3.354,1.31795H392.44837v49.11442a4.91282,4.91282,0,0,1-4.79191,4.79191,4.48487,4.48487,0,0,1-3.474-1.43748,4.79868,4.79868,0,0,1-1.31751-3.35443V120.8601H309.79147a4.31659,4.31659,0,0,1-3.474-1.55746A5.23194,5.23194,0,0,1,305,115.82868a4.20762,4.20762,0,0,1,1.198-3.11447L383.58352,8.97405a4.79116,4.79116,0,0,1,4.07294-1.91694,4.49006,4.49006,0,0,1,3.474,1.43748,4.821,4.821,0,0,1,1.31795,3.35443v99.90672h18.20829A4.82069,4.82069,0,0,1,414.01064,113.07325Zm-95.11481-1.31751H382.865V25.74485Z"/></g></g></svg>