<svg xmlns="http://www.w3.org/2000/svg" viewBox="0 0 472 181.16667"><defs><style>.cls-1{fill:#fff;}.cls-1,.cls-3,.cls-5,.cls-9{stroke:#242424;}.cls-1,.cls-3,.cls-5,.cls-6,.cls-9{stroke-miterlimit:10;}.cls-1,.cls-3,.cls-9{stroke-width:2px;}.cls-2{fill:#7ed257;}.cls-3,.cls-5,.cls-6,.cls-9{fill:none;}.cls-4{fill:#28b655;}.cls-5,.cls-6{stroke-width:3px;}.cls-5,.cls-9{opacity:0.4;isolation:isolate;}.cls-6{stroke:#28b655;}.cls-7{fill:#242424;}.cls-8{opacity:0.1;}</style></defs><title>about-us</title><g id="Layer_2" data-name="Layer 2"><g id="Layer_1-2" data-name="Layer 1"><path class="cls-1" d="M298.91257,180h-60c1.38235-1,3-3.2074,3-4.8111V149h54v26.0658C295.91257,176.71053,297.66257,179,298.91257,180Z"/><rect class="cls-1" x="162.29373" y="1" width="212.99997" height="148" rx="7" ry="7"/><rect class="cls-2" x="172" y="27" width="194" height="46"/><rect class="cls-3" x="171.79373" y="10" width="193.99997" height="117"/><path class="cls-4" d="M217.5,15h13a3.5,3.5,0,0,1,3.5,3.5h0a3.5,3.5,0,0,1-3.5,3.5h-13a3.5,3.5,0,0,1-3.5-3.5h0A3.5,3.5,0,0,1,217.5,15Z"/><line class="cls-5" x1="249" y1="18.5" x2="324" y2="18.5"/><line class="cls-5" x1="245" y1="47.5" x2="293" y2="47.5"/><line class="cls-5" x1="214" y1="81.5" x2="324" y2="81.5"/><line class="cls-5" x1="214" y1="91.5" x2="324" y2="91.5"/><line class="cls-5" x1="214" y1="101.5" x2="324" y2="101.5"/><line class="cls-5" x1="214" y1="111.5" x2="324" y2="111.5"/><rect class="cls-1" x="343" y="99.16667" width="128" height="81" rx="6" ry="6"/><rect class="cls-1" x="351" y="104.16667" width="112" height="71"/><line class="cls-3" x1="467" y1="130.66667" x2="467" y2="148.66667"/><rect class="cls-2" x="361" y="114" width="24" height="24"/><rect class="cls-2" x="395" y="114" width="24" height="24"/><rect class="cls-2" x="429" y="114" width="24" height="24"/><line class="cls-5" x1="361" y1="145" x2="453" y2="145"/><line class="cls-5" x1="361" y1="152" x2="453" y2="152"/><line class="cls-6" x1="361" y1="159" x2="453" y2="159"/><line class="cls-6" x1="361" y1="166" x2="420" y2="166"/><path class="cls-1" d="M35.875,52h160a7,7,0,0,1,7,7V174h-174V59A7,7,0,0,1,35.875,52Z"/><path class="cls-1" d="M21.471,174H210.275a1.6,1.6,0,0,1,1.6,1.6V177a3,3,0,0,1-3,3h-186a3,3,0,0,1-3-3v-1.404A1.596,1.596,0,0,1,21.471,174Z"/><rect class="cls-1" x="35.375" y="59" width="161" height="109"/><path class="cls-7" d="M94.875,176.5a1.5,1.5,0,0,1,0-3h42a1.5,1.5,0,0,1,0,3Z"/><path class="cls-7" d="M136.875,174a1,1,0,0,1,0,2h-42a1,1,0,0,1,0-2h42m0-1h-42a2,2,0,0,0,0,4h42a2,2,0,0,0,0-4Z"/><rect class="cls-2" x="43" y="67" width="73" height="46"/><rect class="cls-4" x="123" y="67" width="14" height="14"/><line class="cls-5" x1="141" y1="70.5" x2="189" y2="70.5"/><line class="cls-5" x1="141" y1="77.5" x2="189" y2="77.5"/><rect class="cls-4" x="123" y="87" width="14" height="14"/><line class="cls-5" x1="141" y1="90.5" x2="189" y2="90.5"/><line class="cls-5" x1="141" y1="97.5" x2="189" y2="97.5"/><rect class="cls-4" x="123" y="107" width="14" height="14"/><line class="cls-5" x1="141" y1="110.5" x2="189" y2="110.5"/><line class="cls-5" x1="141" y1="117.5" x2="189" y2="117.5"/><rect class="cls-4" x="123" y="127" width="14" height="14"/><line class="cls-5" x1="141" y1="130.5" x2="189" y2="130.5"/><line class="cls-5" x1="141" y1="137.5" x2="189" y2="137.5"/><rect class="cls-4" x="123" y="147" width="14" height="14"/><line class="cls-5" x1="141" y1="150.5" x2="189" y2="150.5"/><line class="cls-5" x1="141" y1="157.5" x2="189" y2="157.5"/><line class="cls-5" x1="43" y1="119.5" x2="115.5" y2="119.5"/><line class="cls-5" x1="43" y1="126.5" x2="115.5" y2="126.5"/><line class="cls-5" x1="43" y1="133.5" x2="115.5" y2="133.5"/><line class="cls-5" x1="43" y1="140.5" x2="79.5" y2="140.5"/><rect class="cls-1" x="1" y="105" width="38" height="75" rx="5.67773" ry="5.67773"/><rect class="cls-1" x="4" y="113" width="32" height="61"/><line class="cls-3" x1="17" y1="109" x2="23" y2="109"/><g class="cls-8"><rect class="cls-7" x="6" y="120" width="28" height="9"/></g><rect class="cls-2" x="7" y="121" width="7" height="7"/><line class="cls-9" x1="15" y1="122" x2="33" y2="122"/><line class="cls-9" x1="15" y1="125" x2="33" y2="125"/><path class="cls-4" d="M16,116h9a1,1,0,0,1,1,1h0a1,1,0,0,1-1,1H16a1,1,0,0,1-1-1h0A1,1,0,0,1,16,116Z"/><g class="cls-8"><rect class="cls-7" x="6" y="131" width="28" height="9"/></g><rect class="cls-2" x="7" y="132" width="7" height="7"/><line class="cls-9" x1="15" y1="133" x2="33" y2="133"/><line class="cls-9" x1="15" y1="136" x2="33" y2="136"/><g class="cls-8"><rect class="cls-7" x="6" y="142" width="28" height="9"/></g><rect class="cls-2" x="7" y="143" width="7" height="7"/><line class="cls-9" x1="15" y1="144" x2="33" y2="144"/><line class="cls-9" x1="15" y1="147" x2="33" y2="147"/><g class="cls-8"><rect class="cls-7" x="6" y="153" width="28" height="9"/></g><rect class="cls-2" x="7" y="154" width="7" height="7"/><line class="cls-9" x1="15" y1="155" x2="33" y2="155"/><line class="cls-9" x1="15" y1="158" x2="33" y2="158"/><g class="cls-8"><rect class="cls-7" x="6" y="164" width="28" height="9"/></g><rect class="cls-2" x="7" y="165" width="7" height="7"/><line class="cls-9" x1="15" y1="166" x2="33" y2="166"/><line class="cls-9" x1="15" y1="169" x2="33" y2="169"/></g></g></svg>