<?xml version="1.0" encoding="utf-8"?>
<!-- Generator: Adobe Illustrator 21.1.0, SVG Export Plug-In . SVG Version: 6.00 Build 0)  -->
<svg version="1.1" id="Layer_1" xmlns="http://www.w3.org/2000/svg" xmlns:xlink="http://www.w3.org/1999/xlink" x="0px" y="0px"
	 viewBox="0 0 3504 640" style="enable-background:new 0 0 3504 640;" xml:space="preserve">
<style type="text/css">
	.st0{fill:#1F1A1C;}
	.st1{fill:#1F95F2;}
	.st2{enable-background:new    ;}
</style>
<title>atm-logo-v2</title>
<g id="Page-1">
	<g id="ATM-Concept-4">
		<g id="Light-BG">
			<g id="logo-640-stroke">
				<g id="text">
					<path id="ADTECHMEDIA" class="st0" d="M1113.9,35.1l84,297.9h-36.3l-12.7-48.1h-70.2l-12.5,48.1h-36.3L1113.9,35.1z
						 M1140.6,253l-19.4-74.6l-7.4-34.5l-7.1,34.5L1087,253H1140.6z M1298.8,40.8c20,1.1,38,5.2,54.2,12.3
						c15.8,6.8,30,16.9,41.6,29.6c11.5,12.6,20.5,27.8,26.8,45.5c6.3,17.8,9.4,37.9,9.4,60.4c0,22.5-3.1,42.6-9.4,60.4
						c-6.3,17.8-15.2,33-26.8,45.5c-11.7,12.7-25.8,22.7-41.6,29.6c-16.2,7.1-34.3,11.2-54.2,12.3V40.8z M1332.6,297.3
						c17.7-5.7,32.9-17.2,43.3-32.7c6-8.7,10.8-19.3,14.5-31.8s5.5-27.2,5.5-44.2c0-16.9-1.8-31.7-5.5-44.2
						c-3.7-12.5-8.5-23.1-14.5-31.8c-10.3-15.4-25.6-26.9-43.3-32.7L1332.6,297.3z M2448.2,33l83.4,153.1L2615.3,33v300h-33.7V197.3
						l0.9-36.5l-19.2,36.8l-31.4,57.1v0.4l-0.2-0.2v-0.2l-31.6-57.3l-19.2-36.6l1.1,36.1V333h-33.7V33z M2742.2,44h97.2v31.9h-63.5
						v111h54.4v31.9h-54.4v82.2h63.5V333h-97.2V44z M2956.8,40.8c20,1.1,38,5.2,54.2,12.3c15.8,6.8,30,16.9,41.6,29.6
						c11.5,12.6,20.5,27.8,26.8,45.5c6.3,17.8,9.4,37.9,9.4,60.4c0,22.5-3.1,42.6-9.4,60.4c-6.3,17.8-15.2,33-26.8,45.5
						c-11.7,12.7-25.8,22.7-41.6,29.6c-16.2,7.1-34.3,11.2-54.2,12.3L2956.8,40.8z M2990.6,297.3c17.7-5.7,32.9-17.2,43.3-32.7
						c6-8.7,10.8-19.3,14.5-31.8s5.5-27.2,5.5-44.2c0-16.9-1.8-31.7-5.5-44.2c-3.7-12.5-8.5-23.1-14.5-31.8
						c-10.3-15.4-25.6-26.9-43.3-32.7L2990.6,297.3z M3200.9,44h33.7v289h-33.7V44z M3419.4,35.1l84,297.9h-36.3l-12.7-48.1h-70.2
						l-12.5,48.1h-36.3L3419.4,35.1z M3446,253l-19.4-74.6l-7.4-34.5l-7.1,34.5l-19.6,74.6H3446z"/>
					<path id="Combined-Shape" class="st1" d="M2190.4,44h33.7v160.4h63.7V44h33.7v289h-33.7v-96.7h-63.7V333h-33.7V44z
						 M2044.2,336.4c-11.5,0-22.9-2.7-33.2-7.8c-10.5-5.2-19.7-13.7-27.6-25.4s-14.1-27-18.8-45.8c-4.7-18.8-7-41.8-7-68.8
						c0-27.1,2.3-50,7-68.8c4.7-18.8,10.9-34,18.8-45.7c7.9-11.7,17.1-20.1,27.6-25.4c10.3-5.2,21.7-7.9,33.2-7.9
						c6.2,0,12.4,0.6,18.4,1.8c5.9,1.3,11.7,3.2,17.3,5.6l-15.1,29.2c-11.9-5-25.4-3.9-36.3,3c-6.7,4.1-12.6,10.6-18,19.7
						s-9.6,20.9-13,35.4c-3.3,14.5-5,32.2-5,53.2c0,20.9,1.7,38.6,5,53.2c3.3,14.5,7.6,26.3,13,35.4c5.3,9.1,11.3,15.6,18,19.7
						c10.9,6.9,24.4,8,36.3,3L2080,329c-5.6,2.4-11.4,4.3-17.3,5.6C2056.6,335.9,2050.4,336.5,2044.2,336.4z M1757.6,44h97.2v31.9
						h-63.5v111h54.4v31.9h-54.4v82.2h63.5V333h-97.2V44z M1570.1,75.9h-45.4V44h124.4v31.9h-45.4V333h-33.7L1570.1,75.9z"/>
				</g>
				<path id="logo" class="st1" d="M577.1,454.2l37.8-83.5L708,576.9h167.7L674.5,131.8l-11.4,22.8l182,402.5l-124.3,0L614.9,322.7
					l-48.6,107.5L577.1,454.2z M298.3,453.5l-37.4-82.8l-93.2,206.2H0l200.8-444.1l11.4,22.8L30.6,557.2l124.3-0.1l105.9-234.4
					l48.3,106.7L298.3,453.5z M525.3,339.5l12-117h91.8L692.9,95H181.9l63.9,127.6h91.8l12,117.4l16.2-35.9l-10.4-101.2H258
					l-44.1-88.1H661l-44.1,88l-97.5,0L509,303.7L525.3,339.5z M487.3,573.5h-99.6l8.9-19.8l81.8,0L487.3,573.5z M217.9,95l42.9-95
					l42.9,95h-21.7L260.8,48L239.6,95H217.9z M571.9,95l42.9-95l42.9,95h-21.7l-21.2-47l-21.2,47H571.9z M357.7,640H213.9
					l223.6-494.5L661.1,640H517.4l-79.9-176.7L357.7,640z M344.9,620.2l92.6-205l92.6,205l100.3,0l-193-426.7L244.6,620.2
					L344.9,620.2z"/>
			</g>
		</g>
	</g>
	<g class="st2">
		<path d="M1114.7,464.4V482c-8.6-7.2-17.5-10.8-26.7-10.8c-10.1,0-18.7,3.6-25.6,10.9c-7,7.2-10.5,16.1-10.5,26.6
			c0,10.4,3.5,19.1,10.5,26.2c7,7.1,15.6,10.7,25.7,10.7c5.2,0,9.7-0.9,13.4-2.6c2-0.9,4.2-2,6.4-3.5c2.2-1.4,4.5-3.2,6.9-5.2v18
			c-8.5,4.8-17.5,7.2-26.9,7.2c-14.1,0-26.2-4.9-36.1-14.8c-9.9-9.9-14.9-21.9-14.9-35.9c0-12.6,4.2-23.8,12.5-33.6
			c10.2-12.1,23.5-18.1,39.7-18.1C1097.9,457.2,1106.4,459.6,1114.7,464.4z"/>
		<path d="M1127.8,526.2c0-9,3.2-16.7,9.7-23c6.4-6.3,14.3-9.5,23.5-9.5c9.3,0,17.2,3.2,23.7,9.5c6.4,6.4,9.6,14.2,9.6,23.4
			c0,9.3-3.2,17.2-9.7,23.5c-6.5,6.3-14.4,9.4-23.9,9.4c-9.3,0-17.2-3.2-23.5-9.6C1131,543.7,1127.8,535.8,1127.8,526.2z
			 M1142.5,526.5c0,6.2,1.7,11.2,5,14.8c3.4,3.7,7.9,5.5,13.5,5.5c5.6,0,10.1-1.8,13.5-5.4c3.4-3.6,5.1-8.5,5.1-14.5
			c0-6.1-1.7-10.9-5.1-14.5c-3.4-3.7-7.9-5.5-13.5-5.5c-5.5,0-10,1.8-13.4,5.5C1144.2,516,1142.5,520.7,1142.5,526.5z"/>
		<path d="M1209.5,495.5h14.5v5.8c5-5,10.7-7.5,17-7.5c7.2,0,12.9,2.3,17,6.8c3.5,3.9,5.2,10.2,5.2,19v38.2h-14.5V523
			c0-6.1-0.9-10.4-2.6-12.7c-1.7-2.4-4.7-3.6-9.1-3.6c-4.8,0-8.2,1.6-10.2,4.7c-2,3.1-2.9,8.6-2.9,16.3v30.1h-14.5V495.5z"/>
		<path d="M1317.5,506.2l-11.9,6.3c-1.9-3.8-4.2-5.8-7-5.8c-1.3,0-2.5,0.4-3.4,1.3c-0.9,0.9-1.4,2-1.4,3.4c0,2.4,2.8,4.8,8.3,7.1
			c7.6,3.3,12.8,6.3,15.4,9.1c2.6,2.8,4,6.5,4,11.2c0,6-2.2,11-6.7,15.1c-4.3,3.8-9.5,5.8-15.6,5.8c-10.4,0-17.8-5.1-22.2-15.3
			l12.3-5.7c1.7,3,3,4.9,3.9,5.7c1.7,1.6,3.8,2.4,6.3,2.4c4.9,0,7.3-2.2,7.3-6.7c0-2.6-1.9-4.9-5.6-7.2c-1.5-0.7-2.9-1.4-4.3-2.1
			c-1.5-0.7-2.9-1.4-4.4-2.1c-4.2-2-7.1-4.1-8.8-6.1c-2.2-2.6-3.3-5.9-3.3-10c0-5.4,1.9-9.9,5.6-13.4c3.8-3.5,8.4-5.3,13.8-5.3
			C1307.7,493.8,1313.7,497.9,1317.5,506.2z"/>
		<path d="M1348.9,495.5v35.8c0,10.3,4.1,15.5,12.2,15.5c8.1,0,12.2-5.2,12.2-15.5v-35.8h14.4v36.1c0,5-0.6,9.3-1.9,12.9
			c-1.2,3.2-3.3,6.2-6.2,8.8c-4.9,4.2-11,6.3-18.5,6.3c-7.5,0-13.6-2.1-18.5-6.3c-3-2.6-5.1-5.5-6.3-8.8c-1.2-2.9-1.8-7.2-1.8-12.9
			v-36.1H1348.9z"/>
		<path d="M1405.9,495.5h14.4v5.8c2.8-2.9,5.1-4.9,7.1-5.9c2.1-1.1,4.7-1.6,7.9-1.6c7,0,12.6,3.1,16.7,9.2
			c4.5-6.1,10.6-9.2,18.4-9.2c14,0,21,8.5,21,25.5v38.5h-14.5v-34.6c0-6-0.7-10.2-2.2-12.7c-1.5-2.5-3.9-3.8-7.4-3.8
			c-4,0-6.9,1.5-8.7,4.5c-1.8,3-2.7,7.8-2.7,14.4v32.2h-14.5v-34.4c0-11.1-3.2-16.6-9.6-16.6c-4.1,0-7,1.5-8.9,4.5
			c-1.9,3-2.8,7.8-2.8,14.3v32.2h-14.4V495.5z"/>
		<path d="M1566.2,530.1h-44.6c0.4,5.1,2,9.2,5,12.2c2.9,3,6.7,4.5,11.3,4.5c3.6,0,6.5-0.9,8.9-2.6c2.3-1.7,4.9-4.9,7.9-9.5
			l12.2,6.8c-1.9,3.2-3.9,5.9-5.9,8.2c-2.1,2.3-4.3,4.2-6.7,5.6c-2.4,1.5-5,2.5-7.7,3.2c-2.8,0.7-5.8,1-9,1c-9.3,0-16.8-3-22.4-9
			c-5.6-6-8.4-14-8.4-23.9c0-9.9,2.7-17.8,8.2-23.9c5.5-6,12.8-9,21.9-9c9.2,0,16.4,2.9,21.7,8.8c5.3,5.8,7.9,13.8,7.9,24.1
			L1566.2,530.1z M1551.5,518.3c-2-7.7-6.8-11.5-14.5-11.5c-1.7,0-3.4,0.3-4.9,0.8s-2.9,1.3-4.2,2.3c-1.3,1-2.3,2.2-3.2,3.6
			c-0.9,1.4-1.6,3-2,4.8H1551.5z"/>
		<path d="M1582,495.5h14.4v5.6c2.6-2.8,5-4.7,7-5.7c2.1-1.1,4.6-1.6,7.4-1.6c3.8,0,7.8,1.2,11.9,3.7l-6.6,13.2
			c-2.7-2-5.4-2.9-8-2.9c-7.8,0-11.8,5.9-11.8,17.8v32.3H1582V495.5z"/>
		<path d="M1667.2,506.2l-11.9,6.3c-1.9-3.8-4.2-5.8-7-5.8c-1.3,0-2.5,0.4-3.4,1.3c-0.9,0.9-1.4,2-1.4,3.4c0,2.4,2.8,4.8,8.3,7.1
			c7.6,3.3,12.8,6.3,15.4,9.1c2.6,2.8,4,6.5,4,11.2c0,6-2.2,11-6.7,15.1c-4.3,3.8-9.5,5.8-15.6,5.8c-10.4,0-17.8-5.1-22.2-15.3
			l12.3-5.7c1.7,3,3,4.9,3.9,5.7c1.7,1.6,3.8,2.4,6.3,2.4c4.9,0,7.3-2.2,7.3-6.7c0-2.6-1.9-4.9-5.6-7.2c-1.5-0.7-2.9-1.4-4.3-2.1
			c-1.5-0.7-2.9-1.4-4.4-2.1c-4.2-2-7.1-4.1-8.8-6.1c-2.2-2.6-3.3-5.9-3.3-10c0-5.4,1.9-9.9,5.6-13.4c3.8-3.5,8.4-5.3,13.8-5.3
			C1657.4,493.8,1663.3,497.9,1667.2,506.2z"/>
		<path d="M1730.6,519.9h53.6v12.5h-53.6V519.9z"/>
	</g>
	<g class="st2">
		<path d="M1863.9,509v48.9h-14.5V509h-5.1v-13.4h5.1v-24.1c0-7.8,1.4-13.4,4.1-16.6c3.8-4.5,9.2-6.8,16.4-6.8
			c2.6,0,5.8,0.7,9.7,2.2V465l-1.5-0.8c-3.1-1.6-5.7-2.4-7.7-2.4c-2.6,0-4.3,0.9-5.2,2.8c-0.9,1.8-1.3,5.2-1.3,10.4v20.5h15.7V509
			H1863.9z"/>
	</g>
	<g class="st2">
		<path d="M1888.4,469.6c0-2.5,0.9-4.7,2.8-6.5c1.8-1.8,4-2.8,6.6-2.8c2.6,0,4.8,0.9,6.7,2.8c1.8,1.8,2.8,4,2.8,6.6
			c0,2.6-0.9,4.8-2.8,6.7c-1.8,1.8-4,2.8-6.6,2.8c-2.6,0-4.8-0.9-6.7-2.8C1889.4,474.5,1888.4,472.3,1888.4,469.6z M1905,495.5v62.3
			h-14.4v-62.3H1905z"/>
		<path d="M1923.2,495.5h14.4v5.6c2.6-2.8,5-4.7,7-5.7c2.1-1.1,4.6-1.6,7.4-1.6c3.8,0,7.8,1.2,11.9,3.7l-6.6,13.2
			c-2.7-2-5.4-2.9-8-2.9c-7.8,0-11.8,5.9-11.8,17.8v32.3h-14.4V495.5z"/>
		<path d="M2008.4,506.2l-11.9,6.3c-1.9-3.8-4.2-5.8-7-5.8c-1.3,0-2.5,0.4-3.4,1.3c-0.9,0.9-1.4,2-1.4,3.4c0,2.4,2.8,4.8,8.3,7.1
			c7.6,3.3,12.8,6.3,15.4,9.1c2.6,2.8,4,6.5,4,11.2c0,6-2.2,11-6.7,15.1c-4.3,3.8-9.5,5.8-15.6,5.8c-10.4,0-17.8-5.1-22.2-15.3
			l12.3-5.7c1.7,3,3,4.9,3.9,5.7c1.7,1.6,3.8,2.4,6.3,2.4c4.9,0,7.3-2.2,7.3-6.7c0-2.6-1.9-4.9-5.6-7.2c-1.5-0.7-2.9-1.4-4.3-2.1
			c-1.5-0.7-2.9-1.4-4.4-2.1c-4.2-2-7.1-4.1-8.8-6.1c-2.2-2.6-3.3-5.9-3.3-10c0-5.4,1.9-9.9,5.6-13.4c3.8-3.5,8.4-5.3,13.8-5.3
			C1998.6,493.8,2004.6,497.9,2008.4,506.2z"/>
		<path d="M2040.2,509v48.9h-14.4V509h-6.1v-13.4h6.1v-22.8h14.4v22.8h11.2V509H2040.2z"/>
		<path d="M2070.1,539.4l12.8,5l-18.2,36.5l-9.7-4L2070.1,539.4z"/>
		<path d="M2141.4,557.8l20.8-106.2l33.9,76.8l35.1-76.8l18.7,106.2h-15.3l-9.5-59.6l-29.2,64.2l-28.4-64.2l-10.6,59.7H2141.4z"/>
		<path d="M2265.1,526.2c0-9,3.2-16.7,9.7-23c6.4-6.3,14.3-9.5,23.5-9.5c9.3,0,17.2,3.2,23.7,9.5c6.4,6.4,9.6,14.2,9.6,23.4
			c0,9.3-3.2,17.2-9.7,23.5c-6.5,6.3-14.4,9.4-23.9,9.4c-9.3,0-17.2-3.2-23.5-9.6C2268.2,543.7,2265.1,535.8,2265.1,526.2z
			 M2279.8,526.5c0,6.2,1.7,11.2,5,14.8c3.4,3.7,7.9,5.5,13.5,5.5c5.6,0,10.1-1.8,13.5-5.4c3.4-3.6,5.1-8.5,5.1-14.5
			c0-6.1-1.7-10.9-5.1-14.5c-3.4-3.7-7.9-5.5-13.5-5.5c-5.5,0-10,1.8-13.4,5.5C2281.5,516,2279.8,520.7,2279.8,526.5z"/>
		<path d="M2346.7,495.5h14.5v5.8c5-5,10.7-7.5,17-7.5c7.2,0,12.9,2.3,17,6.8c3.5,3.9,5.2,10.2,5.2,19v38.2H2386V523
			c0-6.1-0.9-10.4-2.6-12.7c-1.7-2.4-4.7-3.6-9.1-3.6c-4.8,0-8.2,1.6-10.2,4.7c-2,3.1-2.9,8.6-2.9,16.3v30.1h-14.5V495.5z"/>
	</g>
	<g class="st2">
		<path d="M2475.3,530.1h-44.6c0.4,5.1,2,9.2,5,12.2c2.9,3,6.7,4.5,11.3,4.5c3.6,0,6.5-0.9,8.9-2.6c2.3-1.7,4.9-4.9,7.9-9.5
			l12.2,6.8c-1.9,3.2-3.9,5.9-5.9,8.2c-2.1,2.3-4.3,4.2-6.7,5.6c-2.4,1.5-5,2.5-7.7,3.2c-2.8,0.7-5.8,1-9,1c-9.3,0-16.8-3-22.4-9
			c-5.6-6-8.4-14-8.4-23.9c0-9.9,2.7-17.8,8.2-23.9c5.5-6,12.8-9,21.9-9c9.2,0,16.4,2.9,21.7,8.8c5.3,5.8,7.9,13.8,7.9,24.1
			L2475.3,530.1z M2460.5,518.3c-2-7.7-6.8-11.5-14.5-11.5c-1.7,0-3.4,0.3-4.9,0.8s-2.9,1.3-4.2,2.3s-2.3,2.2-3.2,3.6
			c-0.9,1.4-1.6,3-2,4.8H2460.5z"/>
	</g>
	<g class="st2">
		<path d="M2507,509v48.9h-14.4V509h-6.1v-13.4h6.1v-22.8h14.4v22.8h11.2V509H2507z"/>
		<path d="M2525.8,469.6c0-2.5,0.9-4.7,2.8-6.5c1.8-1.8,4-2.8,6.6-2.8c2.6,0,4.8,0.9,6.7,2.8c1.8,1.8,2.8,4,2.8,6.6
			c0,2.6-0.9,4.8-2.8,6.7c-1.8,1.8-4,2.8-6.6,2.8c-2.6,0-4.8-0.9-6.7-2.8C2526.8,474.5,2525.8,472.3,2525.8,469.6z M2542.4,495.5
			v62.3H2528v-62.3H2542.4z"/>
		<path d="M2581.3,544.3h37v13.6h-65.6l40.4-48.9h-31.8v-13.4h60.3L2581.3,544.3z"/>
		<path d="M2677.8,495.5h14.5v62.3h-14.5v-6.5c-5.9,5.5-12.3,8.3-19.1,8.3c-8.6,0-15.7-3.1-21.4-9.3c-5.6-6.4-8.4-14.3-8.4-23.8
			c0-9.3,2.8-17.1,8.4-23.3c5.6-6.2,12.6-9.3,21-9.3c7.2,0,13.8,3,19.5,9V495.5z M2643.6,526.5c0,6,1.6,10.8,4.8,14.6
			c3.3,3.8,7.4,5.7,12.4,5.7c5.3,0,9.6-1.8,12.9-5.5c3.3-3.8,4.9-8.6,4.9-14.5c0-5.8-1.6-10.7-4.9-14.5c-3.3-3.7-7.5-5.6-12.8-5.6
			c-4.9,0-9.1,1.9-12.4,5.6C2645.2,516.2,2643.6,520.9,2643.6,526.5z"/>
		<path d="M2725.2,509v48.9h-14.4V509h-6.1v-13.4h6.1v-22.8h14.4v22.8h11.2V509H2725.2z"/>
		<path d="M2744,469.6c0-2.5,0.9-4.7,2.8-6.5c1.8-1.8,4-2.8,6.6-2.8c2.6,0,4.8,0.9,6.7,2.8c1.8,1.8,2.8,4,2.8,6.6
			c0,2.6-0.9,4.8-2.8,6.7c-1.8,1.8-4,2.8-6.6,2.8c-2.6,0-4.8-0.9-6.7-2.8C2744.9,474.5,2744,472.3,2744,469.6z M2760.6,495.5v62.3
			h-14.4v-62.3H2760.6z"/>
		<path d="M2775.9,526.2c0-9,3.2-16.7,9.7-23c6.4-6.3,14.3-9.5,23.5-9.5c9.3,0,17.2,3.2,23.7,9.5c6.4,6.4,9.6,14.2,9.6,23.4
			c0,9.3-3.2,17.2-9.7,23.5c-6.5,6.3-14.4,9.4-23.9,9.4c-9.3,0-17.2-3.2-23.5-9.6C2779,543.7,2775.9,535.8,2775.9,526.2z
			 M2790.6,526.5c0,6.2,1.7,11.2,5,14.8c3.4,3.7,7.9,5.5,13.5,5.5c5.6,0,10.1-1.8,13.5-5.4c3.4-3.6,5.1-8.5,5.1-14.5
			c0-6.1-1.7-10.9-5.1-14.5c-3.4-3.7-7.9-5.5-13.5-5.5c-5.5,0-10,1.8-13.4,5.5C2792.3,516,2790.6,520.7,2790.6,526.5z"/>
		<path d="M2857.6,495.5h14.5v5.8c5-5,10.7-7.5,17-7.5c7.2,0,12.9,2.3,16.9,6.8c3.5,3.9,5.2,10.2,5.2,19v38.2h-14.5V523
			c0-6.1-0.9-10.4-2.6-12.7c-1.7-2.4-4.7-3.6-9.1-3.6c-4.8,0-8.2,1.6-10.2,4.7c-2,3.1-2.9,8.6-2.9,16.3v30.1h-14.5V495.5z"/>
		<path d="M2975.9,519.9h53.6v12.5h-53.6V519.9z"/>
		<path d="M3130.4,506.2l-11.9,6.3c-1.9-3.8-4.2-5.8-7-5.8c-1.3,0-2.5,0.4-3.4,1.3c-0.9,0.9-1.4,2-1.4,3.4c0,2.4,2.8,4.8,8.3,7.1
			c7.6,3.3,12.8,6.3,15.4,9.1c2.6,2.8,4,6.5,4,11.2c0,6-2.2,11-6.7,15.1c-4.3,3.8-9.5,5.8-15.6,5.8c-10.4,0-17.8-5.1-22.2-15.3
			l12.3-5.7c1.7,3,3,4.9,3.9,5.7c1.7,1.6,3.8,2.4,6.3,2.4c4.9,0,7.3-2.2,7.3-6.7c0-2.6-1.9-4.9-5.6-7.2c-1.5-0.7-2.9-1.4-4.3-2.1
			c-1.5-0.7-2.9-1.4-4.4-2.1c-4.2-2-7.1-4.1-8.8-6.1c-2.2-2.6-3.3-5.9-3.3-10c0-5.4,1.9-9.9,5.6-13.4c3.8-3.5,8.4-5.3,13.8-5.3
			C3120.6,493.8,3126.6,497.9,3130.4,506.2z"/>
		<path d="M3204.1,530.1h-44.6c0.4,5.1,2,9.2,5,12.2c2.9,3,6.7,4.5,11.3,4.5c3.6,0,6.5-0.9,8.9-2.6c2.3-1.7,4.9-4.9,7.9-9.5
			l12.2,6.8c-1.9,3.2-3.9,5.9-5.9,8.2c-2.1,2.3-4.3,4.2-6.7,5.6c-2.4,1.5-5,2.5-7.7,3.2c-2.8,0.7-5.8,1-9,1c-9.3,0-16.8-3-22.4-9
			c-5.6-6-8.4-14-8.4-23.9c0-9.9,2.7-17.8,8.2-23.9c5.5-6,12.8-9,21.9-9c9.2,0,16.4,2.9,21.7,8.8c5.3,5.8,7.9,13.8,7.9,24.1
			L3204.1,530.1z M3189.4,518.3c-2-7.7-6.8-11.5-14.5-11.5c-1.7,0-3.4,0.3-4.9,0.8s-2.9,1.3-4.2,2.3c-1.3,1-2.3,2.2-3.2,3.6
			c-0.9,1.4-1.6,3-2,4.8H3189.4z"/>
		<path d="M3268.3,498.2v19.1c-3.3-4-6.2-6.8-8.8-8.3c-2.6-1.5-5.6-2.3-9-2.3c-5.4,0-9.9,1.9-13.5,5.7c-3.6,3.8-5.4,8.6-5.4,14.3
			c0,5.8,1.7,10.6,5.2,14.4c3.5,3.8,8,5.6,13.4,5.6c3.5,0,6.5-0.7,9.1-2.2c2.6-1.4,5.6-4.3,9-8.4v19c-5.8,3-11.7,4.5-17.5,4.5
			c-9.6,0-17.7-3.1-24.2-9.3c-6.5-6.3-9.7-14-9.7-23.3c0-9.3,3.3-17.1,9.9-23.5c6.6-6.4,14.6-9.6,24.2-9.6
			C3257.1,493.8,3262.9,495.3,3268.3,498.2z"/>
		<path d="M3279.3,526.2c0-9,3.2-16.7,9.7-23c6.4-6.3,14.3-9.5,23.5-9.5c9.3,0,17.2,3.2,23.7,9.5c6.4,6.4,9.6,14.2,9.6,23.4
			c0,9.3-3.2,17.2-9.7,23.5c-6.5,6.3-14.4,9.4-23.9,9.4c-9.3,0-17.2-3.2-23.5-9.6C3282.5,543.7,3279.3,535.8,3279.3,526.2z
			 M3294.1,526.5c0,6.2,1.7,11.2,5,14.8c3.4,3.7,7.9,5.5,13.5,5.5c5.6,0,10.1-1.8,13.5-5.4c3.4-3.6,5.1-8.5,5.1-14.5
			c0-6.1-1.7-10.9-5.1-14.5c-3.4-3.7-7.9-5.5-13.5-5.5c-5.5,0-10,1.8-13.4,5.5C3295.8,516,3294.1,520.7,3294.1,526.5z"/>
		<path d="M3361,495.5h14.5v5.8c5-5,10.7-7.5,17-7.5c7.2,0,12.9,2.3,16.9,6.8c3.5,3.9,5.2,10.2,5.2,19v38.2h-14.5V523
			c0-6.1-0.9-10.4-2.6-12.7c-1.7-2.4-4.7-3.6-9.1-3.6c-4.8,0-8.2,1.6-10.2,4.7c-2,3.1-2.9,8.6-2.9,16.3v30.1H3361V495.5z"/>
		<path d="M3478.8,449.8h14.5v108h-14.5v-6.5c-5.7,5.5-12.1,8.3-19.3,8.3c-8.5,0-15.6-3.1-21.2-9.3c-5.6-6.4-8.4-14.3-8.4-23.8
			c0-9.3,2.8-17.1,8.4-23.3c5.5-6.3,12.5-9.4,20.9-9.4c7.3,0,13.8,3,19.6,9V449.8z M3444.6,526.5c0,6,1.6,10.8,4.8,14.6
			c3.3,3.8,7.4,5.7,12.4,5.7c5.3,0,9.6-1.8,12.9-5.5c3.3-3.8,4.9-8.6,4.9-14.5c0-5.8-1.6-10.7-4.9-14.5c-3.3-3.7-7.5-5.6-12.8-5.6
			c-4.9,0-9.1,1.9-12.4,5.6C3446.3,516.2,3444.6,520.9,3444.6,526.5z"/>
	</g>
</g>
</svg>
