<svg xmlns="http://www.w3.org/2000/svg" viewBox="0 0 750.49316 303.03906"><defs><style>.cls-1{fill:#53c1db;}.cls-2{fill:#ededed;}.cls-3{fill:#438ecc;}.cls-4{fill:#010101;}.cls-5{fill:#61b345;}.cls-6{fill:#1d1d1b;}.cls-7{fill:#e84a1d;}.cls-8{fill:#ef8818;}.cls-9{fill:#f4cc09;}.cls-10,.cls-11{fill:none;stroke:#1d1d1b;stroke-linecap:round;stroke-miterlimit:10;stroke-width:3px;}.cls-11{stroke-dasharray:9.49742 9.49742;}.cls-12{fill:#fcc010;}.cls-13{fill:#fee1c4;}.cls-14{fill:#231f20;}.cls-15{fill:#ecf0f1;}.cls-16{fill:#e0e0e0;}.cls-17{fill:#b61f1e;}.cls-18{fill:#9e9e9e;}.cls-19{fill:#1f1a1c;}.cls-20{fill:#1f95f2;}.cls-21{isolation:isolate;}</style></defs><title>atm-2_1</title><g id="Layer_2" data-name="Layer 2"><g id="Layer_1-2" data-name="Layer 1"><g id="Layer_2-2" data-name="Layer 2"><g id="Layer_1-2-2" data-name="Layer 1-2"><circle class="cls-1" cx="264.14538" cy="41.51969" r="40.01969"/><path d="M264.14551,83.03955a41.51978,41.51978,0,1,1,41.51953-41.52A41.56726,41.56726,0,0,1,264.14551,83.03955Zm0-80.03955A38.51978,38.51978,0,1,0,302.665,41.51953,38.56325,38.56325,0,0,0,264.14551,3Z"/><rect class="cls-2" x="257.77167" y="111.15232" width="236.18182" height="80.03936" rx="12" ry="12"/><path d="M481.95312,192.69141H269.77148a13.51508,13.51508,0,0,1-13.5-13.5V123.15234a13.5154,13.5154,0,0,1,13.5-13.5H481.95312a13.51508,13.51508,0,0,1,13.5,13.5v56.03907A13.51476,13.51476,0,0,1,481.95312,192.69141ZM269.77148,112.65234a10.51211,10.51211,0,0,0-10.5,10.5v56.03907a10.5118,10.5118,0,0,0,10.5,10.5H481.95312a10.51148,10.51148,0,0,0,10.5-10.5V123.15234a10.5118,10.5118,0,0,0-10.5-10.5Z"/><path d="M255.07318,32.83969h-2.50461l6.82828,19.30193,3.82266-10.92389-2.96374-8.378h-2.6426V31.00048H269.3154v1.83921H266.575l6.82816,19.30193,2.45445-7.01419c3.21977-8.98651-2.639-11.78585-2.639-13.7914a3.6313,3.6313,0,0,1,3.63129-3.6313c.1085,0,.21386.00588.31709.0155a18.97421,18.97421,0,0,0-28.81468,3.28026h6.72056V32.8397Z"/><path d="M245.17094,41.51974A18.9706,18.9706,0,0,0,255.24966,58.2825l-8.5628-24.2052A18.91258,18.91258,0,0,0,245.17094,41.51974Z"/><path d="M280.65869,32.16972a13.41234,13.41234,0,0,1-.22723,5.19737h.07548l-.28691.81981h0a17.67922,17.67922,0,0,1-.62721,1.7925l-6.52889,18.29084a18.98319,18.98319,0,0,0,7.82552-25.68043q-.11273-.2115-.23073-.4201Z"/><path d="M258.29346,59.573a19.06329,19.06329,0,0,0,11.44824.08166l-5.55023-15.68927Z"/><path d="M280.18051,25.48449a22.67717,22.67717,0,1,0,6.642,16.03525A22.67717,22.67717,0,0,0,280.18051,25.48449ZM264.14529,62.59714a21.07746,21.07746,0,1,1,21.07737-21.07756v.00015A21.10125,21.10125,0,0,1,264.14529,62.59714Z"/><circle class="cls-3" cx="263.45257" cy="261.51968" r="40.01968"/><path d="M263.45264,303.03906a41.51953,41.51953,0,1,1,41.51953-41.51953A41.56674,41.56674,0,0,1,263.45264,303.03906Zm0-80.03906a38.51953,38.51953,0,1,0,38.51953,38.51953A38.56284,38.56284,0,0,0,263.45264,223Z"/><path id="Drupal" class="cls-4" d="M274.74179,245.2933c-2.64619-1.64456-5.148-2.28988-7.6439-3.93493a35.688,35.688,0,0,1-5.49517-5.6732c-.34669,3.43484-1.3965,4.83169-2.59718,5.82768a35.9463,35.9463,0,0,1-6.34267,3.78045c-1.84817.94661-11.88745,6.91761-11.88745,19.76273,0,12.84164,10.84017,22.29816,22.87538,22.29816,12.03966,0,22.479-8.7103,22.479-21.90174A23.40426,23.40426,0,0,0,274.74179,245.2933Zm.203,37.03965a10.90994,10.90994,0,0,1-5.24434,2.09179c-2.69784.24674-6.34532.39643-8.5415-1.59506a.71077.71077,0,0,1-.03776-1.00448q.01817-.01956.03776-.03775a1.15069,1.15069,0,0,1,.74985-.35212c.30141,0,.247,0,.4.0997.99851.79789,2.49591,1.442,5.69061,1.442a11.30436,11.30436,0,0,0,6.44515-1.64157c.44965-.34766.64917-.04816.70084.15149a.75656.75656,0,0,1-.2006.846Zm-8.65646-4.19034a8.96119,8.96119,0,0,1,2.30083-1.64325,4.45582,4.45582,0,0,1,2.09576-.29935,4.12748,4.12748,0,0,1,2.24822.45072,3.909,3.909,0,0,1,1.1447,1.78619.70264.70264,0,0,1-.39583.9996c-.34754.1969-.39907.09815-.74889-.54718-.34717-.64642-.64821-1.2962-2.39741-1.2962a4.04272,4.04272,0,0,0-3.14629,1.2962c-.84883.69519-1.14928.94471-1.45042.54718-.29876-.3974-.19893-.79767.3493-1.29391Zm18.0282-9.489a12.16862,12.16862,0,0,1-1.69982,6.07071c-1.19468,1.74476-1.9432,2.39286-3.347,2.29194-1.79965-.15137-5.39341-5.72535-7.691-5.82746-2.89294-.098-9.18924,6.02817-14.13567,6.02817-2.998,0-3.89372-.44748-4.892-1.09787a5.31649,5.31649,0,0,1-2.20136-4.82822c.05357-3.88531,3.695-7.515,8.2932-7.56317,5.8403-.05163,9.89151,5.76908,12.8349,5.722,2.49892-.04709,7.29625-4.928,9.6432-4.928,2.49649-.00012,3.19551,2.58456,3.19551,4.13193Z"/><circle class="cls-5" cx="153.79899" cy="151.17328" r="40.01969"/><path d="M153.79883,192.69336a41.51978,41.51978,0,1,1,41.52-41.52A41.56685,41.56685,0,0,1,153.79883,192.69336Zm0-80.03955a38.51978,38.51978,0,1,0,38.52,38.51953A38.56314,38.56314,0,0,0,153.79883,112.65381Z"/><path class="cls-6" d="M136.7793,159.01746a8.08235,8.08235,0,0,1-6.17969-2.25586,8.98963,8.98963,0,0,1-2.124-6.40772,9.8496,9.8496,0,0,1,.648-3.68359,7.92793,7.92793,0,0,1,1.77588-2.73633,7.43422,7.43422,0,0,1,2.688-1.69238,9.70043,9.70043,0,0,1,3.38379-.5752,10.9012,10.9012,0,0,1,1.92041.15528,12.59864,12.59864,0,0,1,1.51172.36035,7.4828,7.4828,0,0,1,1.08008.41992c.28809.14453.49561.25586.624.33594l-1.08008,3.02441a9.057,9.057,0,0,0-1.78806-.69627,8.51637,8.51637,0,0,0-2.31592-.28809,5.10327,5.10327,0,0,0-1.69189.28809,3.82518,3.82518,0,0,0-1.46387.92382,4.592,4.592,0,0,0-1.02,1.64454,6.88469,6.88469,0,0,0-.38428,2.44726,8.74,8.74,0,0,0,.252,2.14844,4.55069,4.55069,0,0,0,.81592,1.71582,3.89965,3.89965,0,0,0,1.476,1.13911,5.24855,5.24855,0,0,0,2.208.4209,9.99737,9.99737,0,0,0,1.46436-.09668,10.78279,10.78279,0,0,0,1.15186-.22754,6.13712,6.13712,0,0,0,.88818-.2998q.38305-.16773.6958-.312l1.03174,2.99951a8.75105,8.75105,0,0,1-2.23193.86426A13.0165,13.0165,0,0,1,136.7793,159.01746Z"/><path class="cls-6" d="M149.16312,142.05017q.43286.79248.99854,1.95606.56542,1.16454,1.17919,2.51953.61377,1.35644,1.21533,2.77246.60132,1.4165,1.13086,2.66406.52954-1.248,1.13135-2.66406.60132-1.41651,1.21484-2.77246.61377-1.355,1.1792-2.51953t.99854-1.95606h3.4082q.23951,1.65528.44385,3.708.20361,2.05225.36035,4.27149.15528,2.22071.28761,4.45215.13183,2.23169.228,4.1997h-3.64793q-.07179-2.42432-.19189-5.27978-.12014-2.855-.35986-5.75977-.43359,1.00782-.96289,2.23242-.53028,1.22314-1.04736,2.44727-.51783,1.22461-.999,2.34082-.48194,1.114-.81886,1.90674H152.295q-.33692-.791-.81836-1.90674-.4812-1.11621-.99951-2.34082-.51709-1.22314-1.04687-2.44727-.53028-1.2246-.96289-2.23242-.24024,2.9048-.36036,5.75977-.12012,2.85571-.19189,5.27978h-3.64795q.096-1.96728.228-4.1997.13184-2.23242.28809-4.45215.156-2.21923.35986-4.27149.20359-2.05224.44385-3.708Z"/><path class="cls-6" d="M170.81107,155.82507a5.36135,5.36135,0,0,0,1.3081-.13183,2.40288,2.40288,0,0,0,.82765-.35938,1.20635,1.20635,0,0,0,.43212-.53955,1.92569,1.92569,0,0,0,.12013-.69629,1.60966,1.60966,0,0,0-.76807-1.35644,11.01,11.01,0,0,0-2.64015-1.16309q-.81591-.28857-1.63184-.66016a6.01277,6.01277,0,0,1-1.46387-.93652,4.47386,4.47386,0,0,1-1.05614-1.36816,4.27476,4.27476,0,0,1-.4082-1.95606,4.8407,4.8407,0,0,1,.43212-2.07519,4.43117,4.43117,0,0,1,1.22413-1.57227,5.60918,5.60918,0,0,1,1.91991-.99609,8.63516,8.63516,0,0,1,2.544-.34766,10.1608,10.1608,0,0,1,4.91992,1.15137l-1.07959,2.95215a10.18623,10.18623,0,0,0-1.54834-.63574,6.71266,6.71266,0,0,0-2.05176-.27637,3.76335,3.76335,0,0,0-1.93213.37207,1.25543,1.25543,0,0,0-.58789,1.14062,1.31547,1.31547,0,0,0,.21582.76758,2.09756,2.09756,0,0,0,.6123.56348,5.27141,5.27141,0,0,0,.91162.45605q.51636.20508,1.14014.4209,1.29565.479,2.25586.94727a6.06273,6.06273,0,0,1,1.59619,1.09179,3.96348,3.96348,0,0,1,.94775,1.46485,5.877,5.877,0,0,1,.312,2.04,4.33062,4.33062,0,0,1-1.63184,3.61084,7.874,7.874,0,0,1-4.91992,1.28418,13.646,13.646,0,0,1-1.99219-.13184,12.8516,12.8516,0,0,1-1.57178-.32421,8.93581,8.93581,0,0,1-1.17627-.40821,8.78077,8.78077,0,0,1-.82764-.40722l1.05566-2.97608A9.0412,9.0412,0,0,0,170.811,155.825Z"/><path class="cls-6" d="M161.52832,99.84766a1.5,1.5,0,0,1-1.5-1.49952,51.49313,51.49313,0,0,1,.311-5.65771,1.49983,1.49983,0,1,1,2.98144.33008,48.61273,48.61273,0,0,0-.29248,5.32666,1.50008,1.50008,0,0,1-1.49951,1.50049Z"/><path class="cls-6" d="M163.77637,85.06885a1.50115,1.50115,0,0,1-1.43164-1.9502,50.94957,50.94957,0,0,1,3.81006-8.998,1.49992,1.49992,0,1,1,2.63671,1.43066,47.92666,47.92666,0,0,0-3.58447,8.4668A1.50084,1.50084,0,0,1,163.77637,85.06885Zm8.9956-16.59571a1.5,1.5,0,0,1-1.15674-2.4541,51.08437,51.08437,0,0,1,6.90821-6.9082,1.5002,1.5002,0,0,1,1.9082,2.31543,48,48,0,0,0-6.501,6.501A1.49781,1.49781,0,0,1,172.772,68.47314Zm14.56934-12.0039a1.50033,1.50033,0,0,1-.7168-2.81885,50.93242,50.93242,0,0,1,8.99561-3.81055,1.50015,1.50015,0,1,1,.89941,2.86231,47.90822,47.90822,0,0,0-8.46435,3.585A1.49269,1.49269,0,0,1,187.34131,56.46924Z"/><path class="cls-6" d="M205.36719,50.81592a1.49989,1.49989,0,0,1-.1626-2.99072,51.65545,51.65545,0,0,1,5.644-.31055,1.52538,1.52538,0,0,1,1.51319,1.50049,1.5,1.5,0,0,1-1.5,1.49951h-.01319a48.68979,48.68979,0,0,0-5.31494.292A1.47583,1.47583,0,0,1,205.36719,50.81592Z"/><path class="cls-6" d="M210.86182,254.832a51.84025,51.84025,0,0,1-5.65674-.31055,1.50026,1.50026,0,0,1,.3291-2.98242,48.75294,48.75294,0,0,0,5.32764.293,1.5,1.5,0,0,1,0,3Z"/><path class="cls-6" d="M196.083,252.585a1.4753,1.4753,0,0,1-.4502-.06934,50.90593,50.90593,0,0,1-8.99756-3.80957,1.49969,1.49969,0,1,1,1.42969-2.63671,48.07264,48.07264,0,0,0,8.46729,3.585,1.49981,1.49981,0,0,1-.44922,2.93066Zm-16.59668-8.99707a1.49361,1.49361,0,0,1-.95313-.34277,50.97885,50.97885,0,0,1-6.9082-6.90918,1.50021,1.50021,0,1,1,2.31543-1.90821,47.98511,47.98511,0,0,0,6.501,6.50293,1.49977,1.49977,0,0,1-.95508,2.65723Zm-12.002-14.56641a1.49909,1.49909,0,0,1-1.31983-.78515,50.86971,50.86971,0,0,1-3.81055-8.9961,1.5,1.5,0,0,1,2.86231-.89843,47.90765,47.90765,0,0,0,3.585,8.46484,1.49987,1.49987,0,0,1-1.31689,2.21484Z"/><path class="cls-6" d="M161.82812,210.99121a1.49934,1.49934,0,0,1-1.48876-1.335,51.50411,51.50411,0,0,1-.311-5.65723,1.49977,1.49977,0,0,1,1.5-1.5h.00049a1.5,1.5,0,0,1,1.49951,1.5,48.62164,48.62164,0,0,0,.29248,5.32715,1.50062,1.50062,0,0,1-1.32568,1.65625A1.60818,1.60818,0,0,1,161.82812,210.99121Z"/><path class="cls-6" d="M366.186,210.99121a1.5987,1.5987,0,0,1-.16651-.00879,1.49986,1.49986,0,0,1-1.32617-1.65527,48.69246,48.69246,0,0,0,.292-5.32813,1.5,1.5,0,0,1,1.49951-1.5h.00049a1.49976,1.49976,0,0,1,1.5,1.5,51.6337,51.6337,0,0,1-.31055,5.65625A1.5002,1.5002,0,0,1,366.186,210.99121Z"/><path class="cls-6" d="M331.94385,252.57617a1.49984,1.49984,0,0,1-.44971-2.93066,48.07329,48.07329,0,0,0,8.46533-3.58594,1.49969,1.49969,0,1,1,1.42969,2.63672,50.98552,50.98552,0,0,1-8.99463,3.81055A1.50931,1.50931,0,0,1,331.94385,252.57617Zm16.59326-8.99707a1.49977,1.49977,0,0,1-.95508-2.65722,47.98217,47.98217,0,0,0,6.50147-6.502,1.5002,1.5002,0,0,1,2.31543,1.9082,51.0587,51.0587,0,0,1-6.9087,6.90821A1.49259,1.49259,0,0,1,348.53711,243.5791Zm12.002-14.56836a1.50055,1.50055,0,0,1-1.31738-2.21484,48.002,48.002,0,0,0,3.58545-8.46778,1.50029,1.50029,0,0,1,2.8623.9004,51.04478,51.04478,0,0,1-3.81,8.99707A1.50041,1.50041,0,0,1,360.53906,229.01074Z"/><path class="cls-6" d="M317.15234,254.832a1.5,1.5,0,0,1,0-3,48.75294,48.75294,0,0,0,5.32764-.293,1.50026,1.50026,0,0,1,.3291,2.98242A51.84025,51.84025,0,0,1,317.15234,254.832Z"/><path class="cls-6" d="M322.92334,48.76709a1.4757,1.4757,0,0,1-.1665-.00928,48.7555,48.7555,0,0,0-5.31446-.29248h-.01318a1.5,1.5,0,0,1-.00049-3h.01367a51.60552,51.60552,0,0,1,5.64356.311,1.49989,1.49989,0,0,1-.1626,2.99072Z"/><path class="cls-6" d="M364.50537,83.00732a1.50083,1.50083,0,0,1-1.43066-1.05078,47.90853,47.90853,0,0,0-3.585-8.46435,1.49992,1.49992,0,1,1,2.63671-1.43067,50.93168,50.93168,0,0,1,3.81055,8.99561,1.50112,1.50112,0,0,1-1.43164,1.95019Zm-8.99609-16.59277a1.49779,1.49779,0,0,1-1.15869-.5459,48,48,0,0,0-6.501-6.501,1.5002,1.5002,0,0,1,1.9082-2.31543,51.08379,51.08379,0,0,1,6.90821,6.9082,1.5,1.5,0,0,1-1.15674,2.4541ZM340.93945,54.41064a1.49261,1.49261,0,0,1-.71386-.18212,47.92733,47.92733,0,0,0-8.4668-3.58448,1.50014,1.50014,0,1,1,.89941-2.8623,50.95042,50.95042,0,0,1,8.998,3.81006,1.50032,1.50032,0,0,1-.7168,2.81884Z"/><path class="cls-6" d="M366.76221,97.79883h-.00049a1.50007,1.50007,0,0,1-1.49951-1.50049,48.66127,48.66127,0,0,0-.292-5.32715,1.49978,1.49978,0,0,1,2.98145-.3291,51.64065,51.64065,0,0,1,.31055,5.65723A1.5,1.5,0,0,1,366.76221,97.79883Z"/><circle class="cls-7" cx="490.11951" cy="261.51968" r="40.01968"/><path d="M490.11914,303.03906a41.51953,41.51953,0,1,1,41.52051-41.51953A41.56706,41.56706,0,0,1,490.11914,303.03906Zm0-80.03906a38.51953,38.51953,0,1,0,38.52051,38.51953A38.56253,38.56253,0,0,0,490.11914,223Z"/><circle class="cls-8" cx="490.81232" cy="41.51969" r="40.01969"/><path d="M490.8125,83.03955a41.51978,41.51978,0,1,1,41.51953-41.52A41.56717,41.56717,0,0,1,490.8125,83.03955ZM490.8125,3A38.51978,38.51978,0,1,0,529.332,41.51953,38.56284,38.56284,0,0,0,490.8125,3Z"/><circle class="cls-9" cx="600.46591" cy="151.86609" r="40.01968"/><path d="M600.46582,193.38574a41.51978,41.51978,0,1,1,41.51953-41.51953A41.56706,41.56706,0,0,1,600.46582,193.38574Zm0-80.03955a38.51978,38.51978,0,1,0,38.51953,38.52A38.56295,38.56295,0,0,0,600.46582,113.34619Z"/><path class="cls-10" d="M592.73654,204.69153a49.98193,49.98193,0,0,1-.30157,5.49228"/><path class="cls-11" d="M590.489,219.47086a49.3665,49.3665,0,0,1-36.89718,33.503"/><path class="cls-10" d="M548.89551,253.7233a49.99438,49.99438,0,0,1-5.49228.30154"/><path class="cls-6" d="M548.89746,51.50879a1.46711,1.46711,0,0,1-.166-.00928,48.70546,48.70546,0,0,0-5.31543-.292h-.0127a1.5,1.5,0,1,1,0-3h.0127a51.64652,51.64652,0,0,1,5.64355.31055,1.49984,1.49984,0,0,1-.16211,2.99072Z"/><path class="cls-6" d="M590.48047,85.749a1.501,1.501,0,0,1-1.43067-1.05029,48.07325,48.07325,0,0,0-3.58593-8.46533,1.49969,1.49969,0,1,1,2.63672-1.42969,50.98622,50.98622,0,0,1,3.81054,8.99463,1.50044,1.50044,0,0,1-1.43066,1.95068Zm-8.99609-16.59228a1.49544,1.49544,0,0,1-1.15821-.5459,47.98317,47.98317,0,0,0-6.502-6.50146,1.5002,1.5002,0,0,1,1.9082-2.31543,51.0574,51.0574,0,0,1,6.9082,6.90869,1.49969,1.49969,0,0,1-1.15624,2.4541ZM566.91406,57.15283a1.49473,1.49473,0,0,1-.71386-.18164,48.002,48.002,0,0,0-8.46778-3.58545,1.50029,1.50029,0,0,1,.90039-2.8623,51.04375,51.04375,0,0,1,8.99707,3.81006,1.50052,1.50052,0,0,1-.71582,2.81933Z"/><path class="cls-6" d="M592.73633,100.54053h-.001a1.50039,1.50039,0,0,1-1.499-1.501,48.25368,48.25368,0,0,0-.293-5.32617,1.50032,1.50032,0,0,1,2.98242-.33008,51.37921,51.37921,0,0,1,.31055,5.6582A1.49956,1.49956,0,0,1,592.73633,100.54053Z"/><path class="cls-6" d="M387.7793,97.79883a1.50007,1.50007,0,0,1-1.5-1.5,51.84274,51.84274,0,0,1,.31054-5.65674,1.50027,1.50027,0,0,1,2.98243.3291,48.75294,48.75294,0,0,0-.293,5.32764A1.50008,1.50008,0,0,1,387.7793,97.79883Z"/><path class="cls-6" d="M390.02637,83.02a1.50116,1.50116,0,0,1-1.43067-1.9502,50.90732,50.90732,0,0,1,3.80957-8.99755,1.49969,1.49969,0,1,1,2.63672,1.42968,48.073,48.073,0,0,0-3.585,8.46729A1.49994,1.49994,0,0,1,390.02637,83.02Zm8.99609-16.5957a1.4997,1.4997,0,0,1-1.15625-2.45411,50.97885,50.97885,0,0,1,6.90918-6.9082,1.5002,1.5002,0,1,1,1.9082,2.31543,47.98683,47.98683,0,0,0-6.50293,6.501A1.4954,1.4954,0,0,1,399.02246,66.42432ZM413.59082,54.4209a1.50018,1.50018,0,0,1-.71582-2.81885,50.86993,50.86993,0,0,1,8.99609-3.81055,1.5,1.5,0,0,1,.89844,2.86231,47.90733,47.90733,0,0,0-8.46484,3.585A1.48714,1.48714,0,0,1,413.59082,54.4209Z"/><path class="cls-6" d="M431.61816,48.76709a1.49984,1.49984,0,0,1-.16211-2.99072,51.60552,51.60552,0,0,1,5.64356-.311h.01269a1.5,1.5,0,1,1,0,3h-.01269a48.7866,48.7866,0,0,0-5.31543.29248A1.46729,1.46729,0,0,1,431.61816,48.76709Z"/><path class="cls-6" d="M436.83594,254.832a51.8111,51.8111,0,0,1-5.65625-.31055,1.50021,1.50021,0,1,1,.32812-2.98242,48.76188,48.76188,0,0,0,5.32813.293,1.5,1.5,0,0,1,0,3Z"/><path class="cls-6" d="M422.05664,252.585a1.4692,1.4692,0,0,1-.44922-.06934,50.9451,50.9451,0,0,1-8.998-3.80957,1.49969,1.49969,0,1,1,1.42968-2.63671,48.06141,48.06141,0,0,0,8.4668,3.585,1.49981,1.49981,0,0,1-.44922,2.93066Zm-16.5957-8.99707a1.49264,1.49264,0,0,1-.95313-.34277,50.98608,50.98608,0,0,1-6.90918-6.90918,1.50058,1.50058,0,1,1,2.31641-1.90821,47.957,47.957,0,0,0,6.501,6.50293,1.5,1.5,0,0,1-.95508,2.65723ZM393.458,229.02148a1.4989,1.4989,0,0,1-1.31934-.78515,50.92725,50.92725,0,0,1-3.80957-8.9961,1.49953,1.49953,0,0,1,2.86133-.89843,48.01182,48.01182,0,0,0,3.585,8.46484,1.5002,1.5002,0,0,1-1.31738,2.21484Z"/><path class="cls-6" d="M387.80176,210.99121a1.50068,1.50068,0,0,1-1.48926-1.33594,51.69267,51.69267,0,0,1-.30957-5.65722,1.49955,1.49955,0,0,1,1.5-1.499h.001a1.50039,1.50039,0,0,1,1.499,1.501,48.60846,48.60846,0,0,0,.292,5.32715,1.49991,1.49991,0,0,1-1.32715,1.65527A1.5892,1.5892,0,0,1,387.80176,210.99121Z"/><path class="cls-12" d="M509.966,29.18388c0-5.12933-5.54413-9.2874-12.38311-9.2874s-12.38321,4.15807-12.38321,9.2874c0,4.73431,4.72326,8.64116,10.82855,9.21467.227,1.91374.28644,5.15308-1.59747,6.54575a11.02819,11.02819,0,0,0,7.88836-7.17725C506.80792,36.37226,509.966,33.05489,509.966,29.18388Z"/><circle class="cls-13" cx="481.8913" cy="45.11387" r="6.33451"/><path class="cls-3" d="M481.8913,51.44839h0a10.2327,10.2327,0,0,0-10.23273,10.23269v1.46181H492.124v-1.4617a10.23274,10.23274,0,0,0-10.23266-10.2328Z"/><path class="cls-14" d="M506.92374,21.83706a16.42367,16.42367,0,0,0-18.68189,0,9.20243,9.20243,0,0,0-4.01675,7.34682c0,4.9685,4.63385,9.20037,10.906,10.09015.10239,1.52182.0293,3.91912-1.2796,4.88658a.97438.97438,0,0,0,.74439,1.74417,11.89942,11.89942,0,0,0,8.46841-7.35618c4.80148-1.65078,7.87628-5.28575,7.87628-9.36473A9.20318,9.20318,0,0,0,506.92374,21.83706Zm-4.894,14.99933a.97517.97517,0,0,0-.62744.59946,10.16621,10.16621,0,0,1-4.3031,5.371q-.16309.1-.32254.18952a12.487,12.487,0,0,0,.21918-4.7126.97453.97453,0,0,0-.87662-.85545c-5.66974-.53272-9.94522-4.07713-9.94522-8.24455.00009-4.58354,5.118-8.3127,11.40875-8.3127s11.4086,3.72907,11.4086,8.31279c.00013,3.3346-2.73254,6.33851-6.96158,7.65253Z"/><path class="cls-14" d="M492.77988,28.20944a.9751.9751,0,1,0,.68887.28556A.97511.97511,0,0,0,492.77988,28.20944Z"/><path class="cls-14" d="M497.58243,28.20944a.97453.97453,0,1,0,.97452.97454h0A.97486.97486,0,0,0,497.58243,28.20944Z"/><path class="cls-14" d="M502.38593,28.20944a.975.975,0,1,0,.689.28556A.975.975,0,0,0,502.38593,28.20944Z"/><path class="cls-14" d="M492.72839,58.822a11.25587,11.25587,0,0,0-6.82309-7.6044,7.309,7.309,0,1,0-8.028,0,11.22554,11.22554,0,0,0-7.19327,10.4634v1.4618a.97466.97466,0,0,0,.97452.97453H492.124a.97468.97468,0,0,0,.97452-.97453V61.681a11.19121,11.19121,0,0,0-.34161-2.74916A.97322.97322,0,0,0,492.72839,58.822ZM476.53131,45.11387a5.36,5.36,0,1,1,5.36,5.36h0A5.366,5.366,0,0,1,476.53131,45.11387Zm14.61817,17.05458H472.63312v-.48726a9.25784,9.25784,0,0,1,17.81451-3.53461H486.764a.97453.97453,0,0,0,0,1.94906h4.24908a9.28314,9.28314,0,0,1,.13639,1.58546Z"/><path class="cls-14" d="M482.2811,58.14658h-.3898a.97453.97453,0,0,0,0,1.94906h.3898a.97453.97453,0,0,0,0-1.94906Z"/><path class="cls-15" d="M620.88422,168.84721H577.8103a1.747,1.747,0,0,1-1.747-1.747h0v-29.413a2.11636,2.11636,0,0,1,2.11637-2.11638h38.47183a2.11635,2.11635,0,0,1,2.11639,2.11634v29.04363a2.116,2.116,0,0,0,2.1156,2.11639Z"/><path class="cls-16" d="M624.86853,141.01492v25.71591a2.116,2.116,0,0,1-2.11563,2.11638h-1.86871a2.116,2.116,0,0,1-2.1164-2.1156V138.89854h3.98435a2.116,2.116,0,0,1,2.11639,2.1156Z"/><rect class="cls-3" x="588.26907" y="140.39597" width="18.85651" height="4.76961"/><rect class="cls-17" x="582.02972" y="154.06689" width="9.95071" height="9.92738"/><path class="cls-14" d="M622.75217,137.78928h-2.87506v-.102a3.22917,3.22917,0,0,0-3.22556-3.22555H578.17966a3.22924,3.22924,0,0,0-3.22556,3.22555V167.1002a2.85944,2.85944,0,0,0,2.85623,2.85624H622.7522a3.22919,3.22919,0,0,0,3.22552-3.22556v-25.716A3.22925,3.22925,0,0,0,622.75217,137.78928ZM577.8103,167.738a.63862.63862,0,0,1-.63778-.63779V137.68723a1.00819,1.00819,0,0,1,1.00711-1.00713h38.4718a1.00819,1.00819,0,0,1,1.00711,1.00713v29.04359a3.21674,3.21674,0,0,0,.16095,1.00713Zm45.949-1.00713a1.00819,1.00819,0,0,1-1.00711,1.00713h-1.868a1.00819,1.00819,0,0,1-1.00711-1.00713V140.00771h2.87506a1.00818,1.00818,0,0,1,1.00711,1.00712v25.716Z"/><path class="cls-14" d="M613.36493,148.49316H582.02972a1.10917,1.10917,0,0,0,0,2.21833H613.3649a1.10917,1.10917,0,0,0,0-2.21833Z"/><path class="cls-14" d="M588.26907,146.27473h18.85651a1.10915,1.10915,0,0,0,1.10916-1.10916h0V140.396a1.10917,1.10917,0,0,0-1.10913-1.10918H588.26907a1.10915,1.10915,0,0,0-1.10916,1.10916v4.76962a1.109,1.109,0,0,0,1.10886,1.10913Zm1.10916-4.7696H606.0163v2.55117H589.37823Z"/><path class="cls-14" d="M591.98044,152.95773h-9.95072a1.10916,1.10916,0,0,0-1.10916,1.10916v9.9274a1.10917,1.10917,0,0,0,1.10913,1.10918h9.95075a1.10915,1.10915,0,0,0,1.10916-1.10916v-9.92742a1.10911,1.10911,0,0,0-1.109-1.10916Zm-1.10916,9.92739H583.139v-7.709h7.7323Z"/><path class="cls-14" d="M613.36493,153.48462H601.57507a1.10917,1.10917,0,0,0,0,2.21832h11.78974a1.10916,1.10916,0,1,0,.00009-2.21832Z"/><path class="cls-14" d="M597.24924,155.703h.305a1.10917,1.10917,0,1,0,.00873-2.21832h-.31372a1.10917,1.10917,0,0,0,0,2.21832Z"/><path class="cls-14" d="M613.36493,157.92148h-.06906a1.10917,1.10917,0,0,0,0,2.21832h.06906a1.10917,1.10917,0,0,0,0-2.21832Z"/><path class="cls-14" d="M597.24924,160.13991h12.31222a1.10917,1.10917,0,1,0,.00873-2.21832h-12.321a1.10917,1.10917,0,0,0,0,2.21832Z"/><path class="cls-14" d="M613.36493,162.35825H597.24924a1.10917,1.10917,0,0,0,0,2.21832h16.11569a1.10917,1.10917,0,0,0,.00873-2.21832Z"/><rect class="cls-16" x="481.55347" y="257.98672" width="29.3895" height="18.08578"/><path class="cls-3" d="M490.59628,267.03027h0a4.52155,4.52155,0,0,1,4.52149-4.52148h15.8251v9.04294H495.1178A4.52153,4.52153,0,0,1,490.59628,267.03027Z"/><rect class="cls-18" x="475.33646" y="259.96481" width="6.21701" height="14.12955"/><polygon class="cls-15" points="467.424 257.139 475.336 259.965 475.336 274.095 467.424 276.921 467.424 257.139"/><rect class="cls-18" x="490.03119" y="251.76973" width="12.43402" height="6.217"/><rect class="cls-15" x="483.97131" y="247.24826" width="27.12872" height="4.52147"/><polygon class="cls-18" points="511.1 247.249 516.186 246.118 516.186 252.901 511.1 251.77 511.1 247.249"/><path class="cls-17" d="M474.92847,246.11847h9.04294v6.78216h-9.04294a3.391,3.391,0,0,1-3.39109-3.39091v-.00017h0a3.391,3.391,0,0,1,3.39093-3.39108Z"/><path class="cls-14" d="M516.89392,245.23672a1.12984,1.12984,0,0,0-.95242-.22163l-4.96543,1.10349H485.10181a1.13055,1.13055,0,0,0-1.1304-1.13039h-9.04294a4.52147,4.52147,0,1,0-.00577,9.04294h9.04871a1.13055,1.13055,0,0,0,1.1304-1.13039h3.79907V256.857h-7.34741a1.13053,1.13053,0,0,0-1.1304,1.13041v.84777h-4.891L467.804,256.0751a1.13024,1.13024,0,0,0-1.51047,1.06443v19.78131a1.13028,1.13028,0,0,0,1.51047,1.06451l7.72808-2.76h4.891v.84778a1.13052,1.13052,0,0,0,1.1304,1.1304H510.943a1.13052,1.13052,0,0,0,1.1304-1.1304V257.98734a1.13053,1.13053,0,0,0-1.1304-1.13041h-7.34741v-3.95622h7.38059l4.96542,1.10349a1.13031,1.13031,0,0,0,1.37555-1.1034v-6.78216A1.13021,1.13021,0,0,0,516.89392,245.23672Zm-41.96545,6.53362a2.26069,2.26069,0,1,1-.00467-4.52138h7.9172v4.52147h-7.91253Zm10.17334-3.39108h24.868V250.64h-24.868ZM468.5542,258.74362l5.65185,2.01843v12.53647L468.5542,275.317Zm7.91254,14.221V261.09589h3.95633v11.86886h-3.95633Zm33.34582-7.06479h-4.818a1.13039,1.13039,0,1,0-.00577,2.26077h4.82376v2.26069H495.1178a3.39108,3.39108,0,0,1,0-6.78217h14.6947v2.26068Zm0-4.52136H495.1178a5.65187,5.65187,0,0,0,0,11.30374h14.6947v2.26068H482.68378V259.11774H509.8125v2.26077Zm-8.47781-4.52149H491.16156v-3.95631h10.17325Zm13.72168-5.36544-2.82593-.628v-2.708l2.82593-.628Z"/><path class="cls-14" d="M499.34268,268.16068h.52738a1.13039,1.13039,0,1,0,.00576-2.26078h-.53314a1.13039,1.13039,0,0,0-.00577,2.26078Z"/></g><g id="Page-1"><g id="ATM-Concept-4"><g id="Light-BG"><g id="logo-640-stroke"><g id="text"><path id="ADTECHMEDIA" class="cls-19" d="M336.1924,134.09912l5.27487,18.707h-2.2795l-.79751-3.0205H333.982l-.78495,3.0205h-2.2795Zm1.67665,13.68328-1.21825-4.68459-.46469-2.16647-.44585,2.16647-1.23708,4.68459Zm9.93435-13.32534a9.7305,9.7305,0,0,1,3.40355.7724,7.6193,7.6193,0,0,1,2.61232,1.85876,8.3353,8.3353,0,0,1,1.68294,2.85723,12.48086,12.48086,0,0,1,0,7.58577,8.12343,8.12343,0,0,1-1.68294,2.85722,7.76547,7.76547,0,0,1-2.61232,1.85877,9.7631,9.7631,0,0,1-3.40355.77239Zm2.12251,16.10721a5.18721,5.18721,0,0,0,2.71908-2.05343,6.9917,6.9917,0,0,0,.91054-1.99692,11.32548,11.32548,0,0,0,0-5.55118,6.9917,6.9917,0,0,0-.91054-1.99692,5.22733,5.22733,0,0,0-2.71908-2.05343Zm70.05537-16.597,5.2372,9.61409,5.25605-9.61409V152.8061H428.3583v-8.52144l.05651-2.29206-1.20568,2.3109-1.9718,3.58566v.02512l-.01255-.01256v-.01256l-1.98437-3.59822-1.20568-2.29834.06908,2.26694v8.54656h-2.11622V133.96725Zm18.46207.69076h6.10378v2.0032h-3.98755v6.97037h3.4161v2.0032h-3.4161v5.16184h3.98755v2.00948h-6.10378Zm13.47606-.20095a9.7306,9.7306,0,0,1,3.40355.7724,7.61939,7.61939,0,0,1,2.61232,1.85876,8.3353,8.3353,0,0,1,1.68294,2.85723,12.48086,12.48086,0,0,1,0,7.58577,8.12343,8.12343,0,0,1-1.68294,2.85722,7.76547,7.76547,0,0,1-2.61232,1.85877,9.76316,9.76316,0,0,1-3.40355.77239Zm2.12251,16.10721a5.18721,5.18721,0,0,0,2.71908-2.05343,6.9917,6.9917,0,0,0,.91054-1.99692,11.32548,11.32548,0,0,0,0-5.55118,6.9917,6.9917,0,0,0-.91054-1.99692,5.22737,5.22737,0,0,0-2.71908-2.05343Zm13.206-15.90626h2.11622V152.8061h-2.11622Zm13.72095-.55889,5.27488,18.707h-2.2795l-.79751-3.0205h-4.40829l-.78495,3.0205H475.694Zm1.67039,13.68328-1.21824-4.68459-.46469-2.16647-.44585,2.16647-1.23082,4.68459Z"/><path id="Combined-Shape" class="cls-20" d="M403.79244,134.658h2.11622v10.0725h4.00011V134.658H412.025V152.8061h-2.11623v-6.07239h-4.00011v6.07239h-2.11622Zm-9.1808,18.36159a4.70846,4.70846,0,0,1-2.08483-.48981,4.56682,4.56682,0,0,1-1.73317-1.595,9.07834,9.07834,0,0,1-1.18057-2.87606,21.45149,21.45149,0,0,1,0-8.64075,9.03787,9.03787,0,0,1,1.18057-2.86978,4.45612,4.45612,0,0,1,3.818-2.09112,5.90838,5.90838,0,0,1,1.15545.113,6.08937,6.08937,0,0,1,1.08637.35166l-.94823,1.83364a2.46607,2.46607,0,0,0-2.2795.18839,3.47067,3.47067,0,0,0-1.13033,1.23709,7.9462,7.9462,0,0,0-.81635,2.223,17.92985,17.92985,0,0,0,0,6.68151,7.7547,7.7547,0,0,0,.81635,2.223,3.41523,3.41523,0,0,0,1.13033,1.23709,2.46607,2.46607,0,0,0,2.2795.18839l.95452,1.82108a6.09082,6.09082,0,0,1-1.08638.35166A5.17088,5.17088,0,0,1,394.61164,153.0196ZM376.61427,134.658h6.10378v2.0032H378.7305v6.97037h3.41611v2.0032H378.7305v5.16184h3.98755v2.00948h-6.10378ZM364.84,136.66121h-2.85094V134.658h7.81184v2.0032h-2.85095V152.8061h-2.11623Z"/></g><path id="logo" class="cls-20" d="M302.48342,160.417l2.3737-5.24348,5.84632,12.94857h10.53091l-12.63458-27.95057-.71588,1.43175,11.4289,25.27545h-7.80556l-6.65011-14.71941-3.05189,6.75058Zm-17.50756-.044-2.34858-5.19952-5.8526,12.94857H266.24377l12.60947-27.88777.71587,1.43175L268.16533,166.885l7.80556-.00628L282.621,152.1593l3.03305,6.70035Zm14.25472-7.15876.75356-7.34715h5.76468l4.0064-8.00651H277.66639l4.01267,8.01279h5.76469l.75355,7.37227,1.0173-2.25438-.65308-6.355h-6.11634l-2.76931-5.53234H307.752L304.98271,144.63h-6.12262l-.65308,6.33613Zm-2.38625,14.6943h-6.2545l.55889-1.24336h5.13672Zm-16.91728-30.048L282.621,131.895l2.694,5.96563h-1.36268L282.621,134.9092l-1.33127,2.95141Zm22.22984,0,2.694-5.96563,2.694,5.96563h-1.36268l-1.33128-2.95141-1.33128,2.95141Zm-13.45094,34.2239h-9.03008l14.04121-31.05269,14.04122,31.05269h-9.0238l-5.01741-11.09608Zm-.80379-1.24336,5.81492-12.87321,5.81492,12.87321h6.29846L293.7108,144.046l-12.10709,26.79512Z"/></g></g></g><g class="cls-21"><path d="M336.24263,161.05751v1.10521a2.59053,2.59053,0,0,0-1.67666-.6782,2.12706,2.12706,0,0,0-1.60758.68448,2.30722,2.30722,0,0,0-.65936,1.67038,2.24938,2.24938,0,0,0,.65936,1.64526,2.1854,2.1854,0,0,0,1.61386.67192,2.01065,2.01065,0,0,0,.84147-.16327,2.587,2.587,0,0,0,.4019-.21979,4.35012,4.35012,0,0,0,.43329-.32654v1.13033a3.39037,3.39037,0,0,1-1.68921.45214,3.18394,3.18394,0,0,1-3.20261-3.18377,3.17562,3.17562,0,0,1,.78495-2.10995,3.1108,3.1108,0,0,1,2.493-1.13661A3.23849,3.23849,0,0,1,336.24263,161.05751Z"/><path d="M337.06526,164.93831a1.936,1.936,0,0,1,.60912-1.44431,2.033,2.033,0,0,1,1.47571-.59656,2.0618,2.0618,0,0,1,1.48827.59656,1.9996,1.9996,0,0,1,.60284,1.46943,1.97553,1.97553,0,0,1-.60912,1.47571,2.065,2.065,0,0,1-1.50083.59029,1.99372,1.99372,0,0,1-1.47571-.60285A2.02067,2.02067,0,0,1,337.06526,164.93831Zm.9231.01884a1.33152,1.33152,0,0,0,.314.92938,1.09407,1.09407,0,0,0,.84775.34538,1.11155,1.11155,0,0,0,.84775-.3391,1.45453,1.45453,0,0,0,0-1.82109,1.20541,1.20541,0,0,0-1.68922,0A1.23687,1.23687,0,0,0,337.98836,164.95715Z"/><path d="M342.19571,163.01047h.91054v.36422a1.4758,1.4758,0,0,1,1.06753-.471,1.37654,1.37654,0,0,1,1.06754.427,1.76035,1.76035,0,0,1,.32654,1.19312v2.39882h-.91055v-2.18531a1.42439,1.42439,0,0,0-.16327-.79751.651.651,0,0,0-.57144-.22607.70511.70511,0,0,0-.64052.29515,2.02867,2.02867,0,0,0-.18211,1.02358v1.89016h-.91054v-3.9122Z"/><path d="M348.97769,163.68239l-.74728.39561c-.11931-.23862-.26374-.36421-.43957-.36421a.29354.29354,0,0,0-.21351.08163.28863.28863,0,0,0-.08791.21351c0,.15071.17583.30142.52121.44585a3.08064,3.08064,0,0,1,.96706.57144.99229.99229,0,0,1,.25118.70332,1.22711,1.22711,0,0,1-.42073.94822,1.49449,1.49449,0,0,1-2.37369-.59656l.7724-.35794a1.61934,1.61934,0,0,0,.2449.35794.55528.55528,0,0,0,.39562.15071c.30771,0,.45842-.13815.45842-.42073,0-.16327-.11932-.30771-.35166-.45214-.09419-.044-.18211-.08791-.27-.13187-.0942-.044-.18212-.08791-.27631-.13187a1.66772,1.66772,0,0,1-.55261-.383.93479.93479,0,0,1-.20723-.628,1.11331,1.11331,0,0,1,.35166-.84147,1.236,1.236,0,0,1,.86659-.33282A1.15936,1.15936,0,0,1,348.97769,163.68239Z"/><path d="M350.94949,163.01047v2.2481c0,.6468.25746.97334.76611.97334s.76611-.32654.76611-.97334v-2.2481h.90426v2.26694a2.39461,2.39461,0,0,1-.11931.81007,1.41668,1.41668,0,0,1-.38933.55261,1.90355,1.90355,0,0,1-2.32346,0,1.331,1.331,0,0,1-.39562-.55261,2.22277,2.22277,0,0,1-.113-.81007v-2.26694Z"/><path d="M354.52887,163.01047h.90427v.36422a1.84785,1.84785,0,0,1,.44585-.3705,1.05765,1.05765,0,0,1,.49609-.10048,1.20775,1.20775,0,0,1,1.04869.57773,1.35948,1.35948,0,0,1,1.15545-.57773q1.31872,0,1.31872,1.60131v2.41765h-.91054v-2.17275a1.644,1.644,0,0,0-.13815-.79751.49733.49733,0,0,0-.4647-.23862.58875.58875,0,0,0-.54632.28258,1.82738,1.82738,0,0,0-.16955.90427v2.022h-.91054v-2.16019c0-.697-.20094-1.04241-.60284-1.04241a.60949.60949,0,0,0-.55889.28258,1.73946,1.73946,0,0,0-.17583.898v2.022h-.90427v-3.9122Z"/><path d="M364.59509,165.18321h-2.80071a1.17094,1.17094,0,0,0,.314.76612.946.946,0,0,0,.7096.28258.93489.93489,0,0,0,.55889-.16327,2.38037,2.38037,0,0,0,.49609-.59656l.76611.427a3.51919,3.51919,0,0,1-.3705.51493,1.81656,1.81656,0,0,1-.42073.35166,1.71471,1.71471,0,0,1-.48353.201,2.3273,2.3273,0,0,1-.56516.06279,1.83557,1.83557,0,0,1-1.40664-.56516,2.11463,2.11463,0,0,1-.52749-1.50083,2.14681,2.14681,0,0,1,.51493-1.50083,1.776,1.776,0,0,1,1.37523-.56517,1.7341,1.7341,0,0,1,1.36268.55261,2.1554,2.1554,0,0,1,.49609,1.51339Zm-.9231-.741a.86141.86141,0,0,0-.91055-.72216.98734.98734,0,0,0-.3077.05024.90416.90416,0,0,0-.26374.14443.86637.86637,0,0,0-.20095.22607.92647.92647,0,0,0-.12559.30142Z"/><path d="M365.58727,163.01047h.90426v.35166a1.66018,1.66018,0,0,1,.43958-.35794.99341.99341,0,0,1,.46469-.10048,1.43635,1.43635,0,0,1,.74728.23235l-.41446.82891a.83908.83908,0,0,0-.50237-.18211c-.48981,0-.741.3705-.741,1.11778v2.02831h-.898Z"/><path d="M370.9375,163.68239l-.74728.39561c-.11931-.23862-.26374-.36421-.43957-.36421a.29354.29354,0,0,0-.21351.08163.28863.28863,0,0,0-.08792.21351c0,.15071.17584.30142.52121.44585a3.08072,3.08072,0,0,1,.96707.57144.99229.99229,0,0,1,.25118.70332,1.22711,1.22711,0,0,1-.42073.94822,1.49449,1.49449,0,0,1-2.37369-.59656l.7724-.35794a1.619,1.619,0,0,0,.2449.35794.55526.55526,0,0,0,.39562.15071c.3077,0,.45842-.13815.45842-.42073,0-.16327-.11932-.30771-.35166-.45214-.09419-.044-.18211-.08791-.27-.13187-.09419-.044-.18211-.08791-.2763-.13187a1.66772,1.66772,0,0,1-.55261-.383.93479.93479,0,0,1-.20723-.628,1.11327,1.11327,0,0,1,.35166-.84147,1.236,1.236,0,0,1,.86659-.33282A1.16494,1.16494,0,0,1,370.9375,163.68239Z"/><path d="M374.91877,164.5427h3.36588v.785h-3.36588Z"/></g><g class="cls-21"><path d="M383.2895,163.85822v3.07073H382.379v-3.07073h-.32026v-.84147h.32026v-1.51339a1.64345,1.64345,0,0,1,.25746-1.04241,1.269,1.269,0,0,1,1.02986-.427,1.7506,1.7506,0,0,1,.60912.13815v.92311l-.0942-.05024a1.12635,1.12635,0,0,0-.48352-.15071.32234.32234,0,0,0-.32654.17583,1.67074,1.67074,0,0,0-.08164.65308v1.28732h.9859v.84775Z"/></g><g class="cls-21"><path d="M384.828,161.38405a.54234.54234,0,0,1,.17583-.40818.59343.59343,0,1,1,0,.83519A.598.598,0,0,1,384.828,161.38405Zm1.04241,1.62642v3.9122h-.90426v-3.9122Z"/><path d="M387.01331,163.01047h.90427v.35166a1.66,1.66,0,0,1,.43957-.35794.99341.99341,0,0,1,.46469-.10048,1.43635,1.43635,0,0,1,.74728.23235l-.41446.82891a.83908.83908,0,0,0-.50237-.18211c-.48981,0-.741.3705-.741,1.11778v2.02831H387.007v-3.91848Z"/><path d="M392.36355,163.68239l-.74728.39561c-.11931-.23862-.26374-.36421-.43957-.36421a.29354.29354,0,0,0-.21351.08163.28863.28863,0,0,0-.08792.21351c0,.15071.17583.30142.52121.44585a3.08072,3.08072,0,0,1,.96707.57144.99234.99234,0,0,1,.25118.70332,1.22711,1.22711,0,0,1-.42073.94822,1.49449,1.49449,0,0,1-2.37369-.59656l.77239-.35794a1.61927,1.61927,0,0,0,.24491.35794.55526.55526,0,0,0,.39562.15071c.3077,0,.45841-.13815.45841-.42073,0-.16327-.11931-.30771-.35165-.45214-.0942-.044-.18211-.08791-.27-.13187-.09419-.044-.18211-.08791-.2763-.13187a1.66772,1.66772,0,0,1-.55261-.383.93479.93479,0,0,1-.20723-.628,1.1133,1.1133,0,0,1,.35165-.84147,1.236,1.236,0,0,1,.86659-.33282A1.15936,1.15936,0,0,1,392.36355,163.68239Z"/><path d="M394.36046,163.85822v3.07073h-.90427v-3.07073h-.383v-.84147h.383V161.585h.90427v1.43175h.70331v.84147Z"/><path d="M396.23807,165.76722l.8038.314-1.14289,2.29206-.60912-.25118Z"/><path d="M400.71542,166.92267l1.30617-6.669,2.12878,4.82274,2.20415-4.82274,1.17429,6.669H406.568l-.59656-3.74265-1.83365,4.03151-1.7834-4.03151-.66565,3.74893h-.97334Z"/><path d="M408.48332,164.93831a1.93593,1.93593,0,0,1,.60912-1.44431,2.03294,2.03294,0,0,1,1.47571-.59656,2.06176,2.06176,0,0,1,1.48826.59656,1.99961,1.99961,0,0,1,.60285,1.46943,1.9755,1.9755,0,0,1-.60912,1.47571,2.06493,2.06493,0,0,1-1.50082.59029,2.03829,2.03829,0,0,1-2.066-2.09112Zm.9231.01884a1.33152,1.33152,0,0,0,.314.92938,1.094,1.094,0,0,0,.84775.34538,1.11154,1.11154,0,0,0,.84775-.3391,1.45453,1.45453,0,0,0,0-1.82109,1.20539,1.20539,0,0,0-1.68921,0A1.23683,1.23683,0,0,0,409.40642,164.95715Z"/><path d="M413.60748,163.01047h.91054v.36422a1.4758,1.4758,0,0,1,1.06753-.471,1.37656,1.37656,0,0,1,1.06754.427,1.7603,1.7603,0,0,1,.32654,1.19312v2.39882h-.90426v-2.18531a1.42421,1.42421,0,0,0-.16328-.79751.651.651,0,0,0-.57145-.22607.70512.70512,0,0,0-.64052.29515,2.02869,2.02869,0,0,0-.1821,1.02358v1.89016h-.91054Z"/></g><g class="cls-21"><path d="M421.68307,165.18321h-2.80072a1.17089,1.17089,0,0,0,.314.76612.946.946,0,0,0,.7096.28258.93482.93482,0,0,0,.55888-.16327,2.38,2.38,0,0,0,.49608-.59656l.76611.427a3.517,3.517,0,0,1-.37049.51493,1.81635,1.81635,0,0,1-.42073.35166,1.71465,1.71465,0,0,1-.48352.201,2.32744,2.32744,0,0,1-.56517.06279,1.83553,1.83553,0,0,1-1.40663-.56516,2.11463,2.11463,0,0,1-.52748-1.50083,2.14681,2.14681,0,0,1,.51493-1.50083,1.776,1.776,0,0,1,1.37523-.56517,1.73409,1.73409,0,0,1,1.36267.55261,2.1554,2.1554,0,0,1,.49608,1.51339Zm-.92939-.741a.8614.8614,0,0,0-.91054-.72216.98738.98738,0,0,0-.3077.05024.90428.90428,0,0,0-.26374.14443.86634.86634,0,0,0-.20094.22607.92648.92648,0,0,0-.1256.30142Z"/></g><g class="cls-21"><path d="M423.6737,163.85822v3.07073h-.90426v-3.07073h-.38306v-.84147h.38306V161.585h.90426v1.43175h.70331v.84147Z"/><path d="M424.85427,161.38405a.5423.5423,0,0,1,.17583-.40818.59343.59343,0,1,1,0,.83519A.59807.59807,0,0,1,424.85427,161.38405Zm1.04241,1.62642v3.9122h-.90426v-3.9122Z"/><path d="M428.33946,166.07492h2.32345v.854h-4.11943l2.537-3.07073h-1.99692v-.84147h3.78661Z"/><path d="M434.39928,163.01047h.91055v3.9122h-.91055v-.40818a1.73992,1.73992,0,0,1-2.54324-.06279,2.18466,2.18466,0,0,1-.52748-1.49455,2.1046,2.1046,0,0,1,.52748-1.46315,1.70319,1.70319,0,0,1,1.31872-.584,1.65813,1.65813,0,0,1,1.22452.56516Zm-2.14762,1.94668a1.367,1.367,0,0,0,.30142.91682.98555.98555,0,0,0,.77867.35794,1.0318,1.0318,0,0,0,.81006-.34538,1.50109,1.50109,0,0,0,0-1.82109,1.0239,1.0239,0,0,0-.80379-.35166,1.00885,1.00885,0,0,0-.77867.35166A1.328,1.328,0,0,0,432.25166,164.95715Z"/><path d="M437.37582,163.85822v3.07073h-.90426v-3.07073h-.38307v-.84147h.38307V161.585h.90426v1.43175h.70331v.84147Z"/><path d="M438.55639,161.38405a.5423.5423,0,0,1,.17583-.40818.58363.58363,0,1,1-.17583.40818Zm1.04242,1.62642v3.9122h-.90426v-3.9122Z"/><path d="M440.55958,164.93831a1.93593,1.93593,0,0,1,.60912-1.44431,2.03292,2.03292,0,0,1,1.47571-.59656,2.06178,2.06178,0,0,1,1.48826.59656,1.99961,1.99961,0,0,1,.60285,1.46943,1.9755,1.9755,0,0,1-.60912,1.47571,2.065,2.065,0,0,1-1.50082.59029,2.03829,2.03829,0,0,1-2.066-2.09112Zm.92311.01884a1.33152,1.33152,0,0,0,.314.92938,1.094,1.094,0,0,0,.84775.34538,1.11152,1.11152,0,0,0,.84775-.3391,1.4545,1.4545,0,0,0,0-1.82109,1.20539,1.20539,0,0,0-1.68921,0A1.23683,1.23683,0,0,0,441.48269,164.95715Z"/><path d="M445.69,163.01047h.91055v.36422a1.47579,1.47579,0,0,1,1.06753-.471,1.35364,1.35364,0,0,1,1.06125.427,1.7603,1.7603,0,0,1,.32654,1.19312v2.39882h-.91055v-2.18531a1.42431,1.42431,0,0,0-.16327-.79751.651.651,0,0,0-.57145-.22607.70511.70511,0,0,0-.64052.29515,2.02869,2.02869,0,0,0-.1821,1.02358v1.89016h-.91055v-3.9122Z"/><path d="M453.11881,164.5427h3.36588v.785h-3.36588Z"/><path d="M462.82081,163.68239l-.74727.39561c-.1193-.23862-.26374-.36421-.43957-.36421a.2935.2935,0,0,0-.2135.08163.28866.28866,0,0,0-.08791.21351c0,.15071.17583.30142.52121.44585a3.08052,3.08052,0,0,1,.96706.57144.99229.99229,0,0,1,.25118.70332,1.22711,1.22711,0,0,1-.42073.94822,1.4945,1.4945,0,0,1-2.3737-.59656l.7724-.35794a1.61934,1.61934,0,0,0,.2449.35794.55524.55524,0,0,0,.39561.15071c.3077,0,.45842-.13815.45842-.42073,0-.16327-.11931-.30771-.35167-.45214-.09419-.044-.1821-.08791-.27-.13187-.0942-.044-.1821-.08791-.2763-.13187a1.66761,1.66761,0,0,1-.55261-.383.93479.93479,0,0,1-.20723-.628,1.11325,1.11325,0,0,1,.35167-.84147,1.236,1.236,0,0,1,.86659-.33282A1.15932,1.15932,0,0,1,462.82081,163.68239Z"/><path d="M467.4489,165.18321h-2.80072a1.171,1.171,0,0,0,.314.76612.946.946,0,0,0,.7096.28258.9348.9348,0,0,0,.55888-.16327,2.38016,2.38016,0,0,0,.49609-.59656l.76611.427a3.51843,3.51843,0,0,1-.37049.51493,1.8166,1.8166,0,0,1-.42074.35166,1.71465,1.71465,0,0,1-.48352.201,2.32738,2.32738,0,0,1-.56517.06279,1.83553,1.83553,0,0,1-1.40663-.56516,2.11463,2.11463,0,0,1-.52748-1.50083,2.14681,2.14681,0,0,1,.51493-1.50083,1.776,1.776,0,0,1,1.37523-.56517,1.73409,1.73409,0,0,1,1.36267.55261,2.1554,2.1554,0,0,1,.49608,1.51339Zm-.92312-.741a.8614.8614,0,0,0-.91054-.72216.98738.98738,0,0,0-.3077.05024.90428.90428,0,0,0-.26374.14443.86634.86634,0,0,0-.20094.22607.92625.92625,0,0,0-.12559.30142Z"/><path d="M471.48041,163.18v1.1994a2.2614,2.2614,0,0,0-.55261-.5212,1.181,1.181,0,0,0-1.41292.21351,1.25768,1.25768,0,0,0-.33909.898,1.281,1.281,0,0,0,.32654.90427,1.09127,1.09127,0,0,0,.84146.35165,1.11681,1.11681,0,0,0,.57145-.13815,2.19035,2.19035,0,0,0,.56517-.52749v1.19313a2.3842,2.3842,0,0,1-1.09894.28258,2.11972,2.11972,0,0,1-1.51966-.584,1.948,1.948,0,0,1-.60912-1.46315,1.97316,1.97316,0,0,1,.62168-1.47571A2.09374,2.09374,0,0,1,470.394,162.91,2.19578,2.19578,0,0,1,471.48041,163.18Z"/><path d="M472.17116,164.93831a1.936,1.936,0,0,1,.60912-1.44431,2.03294,2.03294,0,0,1,1.47571-.59656,2.0618,2.0618,0,0,1,1.48827.59656,1.99961,1.99961,0,0,1,.60285,1.46943,1.97553,1.97553,0,0,1-.60912,1.47571,2.065,2.065,0,0,1-1.50082.59029,1.99372,1.99372,0,0,1-1.47571-.60285A2.02061,2.02061,0,0,1,472.17116,164.93831Zm.92939.01884a1.33152,1.33152,0,0,0,.314.92938,1.094,1.094,0,0,0,.84775.34538,1.11154,1.11154,0,0,0,.84775-.3391,1.45453,1.45453,0,0,0,0-1.82109,1.20539,1.20539,0,0,0-1.68921,0A1.23683,1.23683,0,0,0,473.10055,164.95715Z"/><path d="M477.30161,163.01047h.91054v.36422a1.4758,1.4758,0,0,1,1.06753-.471,1.35364,1.35364,0,0,1,1.06125.427,1.7603,1.7603,0,0,1,.32654,1.19312v2.39882h-.91054v-2.18531a1.42421,1.42421,0,0,0-.16328-.79751.651.651,0,0,0-.57145-.22607.70511.70511,0,0,0-.64052.29515,2.02869,2.02869,0,0,0-.1821,1.02358v1.89016h-.898Z"/><path d="M484.699,160.14068h.91055v6.782H484.699v-.40818a1.70184,1.70184,0,0,1-1.212.52121,1.72,1.72,0,0,1-1.33128-.584,2.18466,2.18466,0,0,1-.52748-1.49455,2.1046,2.1046,0,0,1,.52748-1.46315,1.68808,1.68808,0,0,1,2.54324-.02512Zm-2.14762,4.81647a1.367,1.367,0,0,0,.30142.91682.98555.98555,0,0,0,.77867.35794,1.0318,1.0318,0,0,0,.81006-.34538,1.50109,1.50109,0,0,0,0-1.82109,1.0239,1.0239,0,0,0-.80379-.35166,1.00885,1.00885,0,0,0-.77867.35166A1.36077,1.36077,0,0,0,482.55137,164.95715Z"/></g></g></g><path d="M554.24219,13.72266h4.0332a7.61043,7.61043,0,0,1,4.11133.84961,2.99823,2.99823,0,0,1,1.26953,2.68554,3.10527,3.10527,0,0,1-.708,2.09473,3.4049,3.4049,0,0,1-2.06543,1.06934v.09765q3.252.55663,3.252,3.418a3.67233,3.67233,0,0,1-1.29395,2.98828A5.50548,5.50548,0,0,1,559.22266,28h-4.98047Zm1.66015,6.11328h2.73438a4.45335,4.45335,0,0,0,2.5293-.55176,2.12909,2.12909,0,0,0,.77148-1.86035,1.88208,1.88208,0,0,0-.85938-1.7334,5.369,5.369,0,0,0-2.73437-.53223h-2.44141Zm0,1.40625V26.584h2.97852a4.24422,4.24422,0,0,0,2.60254-.66894,2.46856,2.46856,0,0,0,.874-2.09473,2.21829,2.21829,0,0,0-.89355-1.95312,4.77648,4.77648,0,0,0-2.71973-.625Z"/><path d="M568.37793,28h-1.62109V12.80469h1.62109Z"/><path d="M580.85352,22.63867a5.905,5.905,0,0,1-1.31836,4.08692,4.64205,4.64205,0,0,1-3.64258,1.46972,4.82447,4.82447,0,0,1-2.54883-.67383,4.44517,4.44517,0,0,1-1.71875-1.93359,6.74285,6.74285,0,0,1-.60547-2.94922,5.8968,5.8968,0,0,1,1.30859-4.07715,4.62763,4.62763,0,0,1,3.63282-1.46,4.52777,4.52777,0,0,1,3.56933,1.49414A5.88044,5.88044,0,0,1,580.85352,22.63867Zm-8.1543,0a5.08068,5.08068,0,0,0,.82031,3.125,3.25569,3.25569,0,0,0,4.8291.00488,5.05673,5.05673,0,0,0,.8252-3.12988,4.975,4.975,0,0,0-.8252-3.10058,2.89851,2.89851,0,0,0-2.43652-1.05957,2.852,2.852,0,0,0-2.40234,1.04492A5.03082,5.03082,0,0,0,572.69922,22.63867Z"/><path d="M592.25586,17.29688v1.02539l-1.98242.23437a3.48143,3.48143,0,0,1,.70312,2.13867,3.16479,3.16479,0,0,1-1.07422,2.50977,4.33283,4.33283,0,0,1-2.94922.9375,4.89648,4.89648,0,0,1-.89843-.07813,1.59532,1.59532,0,0,0-1.03516,1.377.69907.69907,0,0,0,.36133.64941,2.63825,2.63825,0,0,0,1.24023.21h1.89453a4.24241,4.24241,0,0,1,2.6709.73242,2.54366,2.54366,0,0,1,.93262,2.12891,3.03941,3.03941,0,0,1-1.42578,2.71,7.63107,7.63107,0,0,1-4.16016.93262,5.68379,5.68379,0,0,1-3.2373-.78125,2.52175,2.52175,0,0,1-1.1377-2.207,2.4772,2.4772,0,0,1,.625-1.68946,3.18668,3.18668,0,0,1,1.75782-.96679,1.69585,1.69585,0,0,1-.68848-.57618,1.524,1.524,0,0,1-.27832-.9082,1.72587,1.72587,0,0,1,.3125-1.02539,3.2815,3.2815,0,0,1,.98633-.84961,2.892,2.892,0,0,1-1.35254-1.16211,3.41215,3.41215,0,0,1-.52246-1.875,3.46331,3.46331,0,0,1,1.05468-2.71,4.30611,4.30611,0,0,1,2.98829-.95215,5.42919,5.42919,0,0,1,1.51367.19532Zm-8.53516,12.5a1.45231,1.45231,0,0,0,.73242,1.31835,4.04473,4.04473,0,0,0,2.09961.44922,5.86113,5.86113,0,0,0,3.02247-.61035,1.86845,1.86845,0,0,0,.98144-1.65527,1.309,1.309,0,0,0-.53711-1.20606,4.17334,4.17334,0,0,0-2.02148-.33691h-1.94336a2.56028,2.56028,0,0,0-1.71875.52734A1.88407,1.88407,0,0,0,583.7207,29.79688Zm.87891-9.07227a2.1807,2.1807,0,0,0,.63477,1.69922A2.53376,2.53376,0,0,0,587.002,23a2.06776,2.06776,0,0,0,2.37305-2.30469,2.12778,2.12778,0,0,0-2.40234-2.41211,2.37841,2.37841,0,0,0-1.75782.61524A2.478,2.478,0,0,0,584.59961,20.72461Z"/><path d="M603.0127,17.29688v1.02539l-1.98243.23437a3.48151,3.48151,0,0,1,.70313,2.13867,3.16479,3.16479,0,0,1-1.07422,2.50977,4.33283,4.33283,0,0,1-2.94922.9375,4.8966,4.8966,0,0,1-.89844-.07813,1.59531,1.59531,0,0,0-1.03515,1.377.699.699,0,0,0,.36133.64941,2.63822,2.63822,0,0,0,1.24023.21h1.89453a4.24241,4.24241,0,0,1,2.6709.73242,2.54366,2.54366,0,0,1,.93262,2.12891,3.03941,3.03941,0,0,1-1.42578,2.71,7.63109,7.63109,0,0,1-4.16016.93262,5.68381,5.68381,0,0,1-3.23731-.78125,2.52177,2.52177,0,0,1-1.13769-2.207,2.4772,2.4772,0,0,1,.625-1.68946,3.18665,3.18665,0,0,1,1.75781-.96679,1.69576,1.69576,0,0,1-.68847-.57618,1.524,1.524,0,0,1-.27833-.9082,1.72594,1.72594,0,0,1,.3125-1.02539,3.2815,3.2815,0,0,1,.98633-.84961,2.892,2.892,0,0,1-1.35254-1.16211,3.41215,3.41215,0,0,1-.52246-1.875,3.46331,3.46331,0,0,1,1.05469-2.71,4.3061,4.3061,0,0,1,2.98828-.95215,5.42919,5.42919,0,0,1,1.51367.19532Zm-8.53516,12.5a1.45231,1.45231,0,0,0,.73242,1.31835,4.0447,4.0447,0,0,0,2.09961.44922,5.86112,5.86112,0,0,0,3.02246-.61035,1.86844,1.86844,0,0,0,.98145-1.65527,1.309,1.309,0,0,0-.53711-1.20606,4.17336,4.17336,0,0,0-2.02149-.33691h-1.94336a2.5603,2.5603,0,0,0-1.71875.52734A1.88409,1.88409,0,0,0,594.47754,29.79688Zm.87891-9.07227a2.18073,2.18073,0,0,0,.63476,1.69922A2.53378,2.53378,0,0,0,597.75879,23a2.06776,2.06776,0,0,0,2.37305-2.30469,2.12779,2.12779,0,0,0-2.40235-2.41211,2.37839,2.37839,0,0,0-1.75781.61524A2.47793,2.47793,0,0,0,595.35645,20.72461Z"/><path d="M609.53125,28.19531A4.91858,4.91858,0,0,1,605.78613,26.75a5.59324,5.59324,0,0,1-1.37207-4.01367,6.20556,6.20556,0,0,1,1.27442-4.11133,4.23284,4.23284,0,0,1,3.42285-1.52344,4.0363,4.0363,0,0,1,3.18359,1.32324A5.07187,5.07187,0,0,1,613.4668,21.916v1.02539h-7.37305a4.23936,4.23936,0,0,0,.95215,2.86132,3.29417,3.29417,0,0,0,2.54394.97657,8.61682,8.61682,0,0,0,3.418-.72266V27.502a8.58186,8.58186,0,0,1-1.626.53223A9.13557,9.13557,0,0,1,609.53125,28.19531ZM609.0918,18.459a2.64628,2.64628,0,0,0-2.05567.83985,3.8713,3.8713,0,0,0-.90332,2.32422h5.59571a3.56237,3.56237,0,0,0-.6836-2.34864A2.40655,2.40655,0,0,0,609.0918,18.459Z"/><path d="M620.91309,17.10156a6.34283,6.34283,0,0,1,1.27929.11719l-.22461,1.50391a5.51683,5.51683,0,0,0-1.17187-.14649,2.85208,2.85208,0,0,0-2.22168,1.05469,3.84541,3.84541,0,0,0-.92285,2.627V28h-1.6211V17.29688h1.33789l.18555,1.98242h.07813a4.70847,4.70847,0,0,1,1.43554-1.61133A3.23136,3.23136,0,0,1,620.91309,17.10156Z"/><path d="M630.89844,25.08008a2.68126,2.68126,0,0,1-1.11328,2.30469,5.23252,5.23252,0,0,1-3.125.81054,6.7952,6.7952,0,0,1-3.32032-.67383v-1.5039a8.06255,8.06255,0,0,0,1.65528.61523,6.90249,6.90249,0,0,0,1.7041.22461,3.86617,3.86617,0,0,0,1.95312-.40527,1.39529,1.39529,0,0,0,.14161-2.30469,8.53142,8.53142,0,0,0-2.11426-1.0498,11.45477,11.45477,0,0,1-2.124-.97168,2.903,2.903,0,0,1-.9375-.94239,2.45769,2.45769,0,0,1-.30761-1.25976A2.40028,2.40028,0,0,1,624.375,17.8584a4.96115,4.96115,0,0,1,2.91992-.75684,8.5447,8.5447,0,0,1,3.37891.70313l-.57617,1.31836a7.75433,7.75433,0,0,0-2.91993-.66407,3.36026,3.36026,0,0,0-1.73828.36133,1.11691,1.11691,0,0,0-.58593.9961,1.2125,1.2125,0,0,0,.21972.73242,2.17193,2.17193,0,0,0,.708.57617,15.83028,15.83028,0,0,0,1.875.791,7.00993,7.00993,0,0,1,2.57324,1.39648A2.46158,2.46158,0,0,1,630.89844,25.08008Z"/><path d="M115.0918,28h-1.64063l-2.88086-9.56055q-.20508-.635-.459-1.60156a9.46586,9.46586,0,0,1-.26367-1.16211,22.28884,22.28884,0,0,1-.6836,2.82227L106.37109,28h-1.64062l-3.79883-14.27734h1.75781l2.25586,8.81836a32.88547,32.88547,0,0,1,.6836,3.35937,24.29939,24.29939,0,0,1,.78125-3.49609l2.55859-8.68164h1.75781l2.68555,8.75976a26.6354,26.6354,0,0,1,.791,3.418,29.42784,29.42784,0,0,1,.70313-3.37891l2.24609-8.79882h1.75782Z"/><path d="M129.94043,22.63867a5.905,5.905,0,0,1-1.31836,4.08692,4.642,4.642,0,0,1-3.64258,1.46972,4.82447,4.82447,0,0,1-2.54883-.67383,4.44523,4.44523,0,0,1-1.71875-1.93359,6.74285,6.74285,0,0,1-.60546-2.94922,5.8968,5.8968,0,0,1,1.30859-4.07715,4.6276,4.6276,0,0,1,3.63281-1.46,4.52781,4.52781,0,0,1,3.56934,1.49414A5.88048,5.88048,0,0,1,129.94043,22.63867Zm-8.1543,0a5.08061,5.08061,0,0,0,.82032,3.125,3.25569,3.25569,0,0,0,4.8291.00488,5.0568,5.0568,0,0,0,.82519-3.12988,4.97507,4.97507,0,0,0-.82519-3.10058,2.89854,2.89854,0,0,0-2.43653-1.05957,2.852,2.852,0,0,0-2.40234,1.04492A5.03082,5.03082,0,0,0,121.78613,22.63867Z"/><path d="M137.46484,17.10156a6.34286,6.34286,0,0,1,1.2793.11719l-.22461,1.50391a5.5169,5.5169,0,0,0-1.17187-.14649,2.85208,2.85208,0,0,0-2.22168,1.05469,3.84542,3.84542,0,0,0-.92286,2.627V28H132.582V17.29688h1.33789l.18555,1.98242h.07812a4.7085,4.7085,0,0,1,1.43555-1.61133A3.23135,3.23135,0,0,1,137.46484,17.10156Z"/><path d="M147.832,26.56445h-.08789a3.80871,3.80871,0,0,1-3.35937,1.63086,3.97493,3.97493,0,0,1-3.26661-1.43554,6.31726,6.31726,0,0,1-1.167-4.082,6.42591,6.42591,0,0,1,1.17188-4.11132,3.943,3.943,0,0,1,3.26172-1.46485,3.89132,3.89132,0,0,1,3.33984,1.582h.12695l-.06836-.77148-.03906-.75195V12.80469h1.62109V28h-1.31835Zm-3.24219.27344a2.95237,2.95237,0,0,0,2.40723-.90332,4.56388,4.56388,0,0,0,.74707-2.915v-.3418a5.3684,5.3684,0,0,0-.75684-3.24707,2.87441,2.87441,0,0,0-2.417-.97168,2.48229,2.48229,0,0,0-2.18261,1.1084,5.50834,5.50834,0,0,0-.75684,3.12989,5.2865,5.2865,0,0,0,.75195,3.0957A2.54629,2.54629,0,0,0,144.58984,26.83789Z"/><path d="M161.89941,17.88281a3.99844,3.99844,0,0,1-1.47949,3.335,6.703,6.703,0,0,1-4.2334,1.167h-1.67968V28h-1.66016V13.72266h3.70117Q161.89892,13.72266,161.89941,17.88281ZM154.50684,20.959H156.001a5.55251,5.55251,0,0,0,3.19336-.71289,2.62777,2.62777,0,0,0,.98632-2.28515,2.46441,2.46441,0,0,0-.92773-2.10938,4.84484,4.84484,0,0,0-2.89063-.69336h-1.85546Z"/><path d="M169.32617,17.10156a6.34286,6.34286,0,0,1,1.2793.11719l-.22461,1.50391a5.51691,5.51691,0,0,0-1.17188-.14649,2.85209,2.85209,0,0,0-2.22168,1.05469,3.84546,3.84546,0,0,0-.92285,2.627V28h-1.62109V17.29688h1.33789l.18555,1.98242h.07812a4.7085,4.7085,0,0,1,1.43555-1.61133A3.23133,3.23133,0,0,1,169.32617,17.10156Z"/><path d="M176.92871,28.19531A4.91858,4.91858,0,0,1,173.18359,26.75a5.59324,5.59324,0,0,1-1.37207-4.01367,6.20556,6.20556,0,0,1,1.27442-4.11133,4.23284,4.23284,0,0,1,3.42285-1.52344,4.0363,4.0363,0,0,1,3.18359,1.32324,5.07187,5.07187,0,0,1,1.17188,3.49122v1.02539h-7.37305a4.23936,4.23936,0,0,0,.95215,2.86132,3.29417,3.29417,0,0,0,2.54394.97657,8.61682,8.61682,0,0,0,3.418-.72266V27.502a8.58186,8.58186,0,0,1-1.626.53223A9.13557,9.13557,0,0,1,176.92871,28.19531Zm-.43945-9.73633a2.64628,2.64628,0,0,0-2.05567.83985,3.8713,3.8713,0,0,0-.90332,2.32422H179.126a3.56237,3.56237,0,0,0-.6836-2.34864A2.40655,2.40655,0,0,0,176.48926,18.459Z"/><path d="M190.332,25.08008a2.68123,2.68123,0,0,1-1.11328,2.30469,5.23252,5.23252,0,0,1-3.125.81054,6.79513,6.79513,0,0,1-3.32031-.67383v-1.5039a8.06246,8.06246,0,0,0,1.65527.61523,6.90262,6.90262,0,0,0,1.7041.22461,3.86624,3.86624,0,0,0,1.95313-.40527,1.3953,1.3953,0,0,0,.1416-2.30469,8.53142,8.53142,0,0,0-2.11426-1.0498,11.4546,11.4546,0,0,1-2.124-.97168,2.903,2.903,0,0,1-.9375-.94239,2.45759,2.45759,0,0,1-.30762-1.25976,2.40028,2.40028,0,0,1,1.06445-2.06543,4.96117,4.96117,0,0,1,2.91993-.75684,8.54465,8.54465,0,0,1,3.3789.70313l-.57617,1.31836a7.75429,7.75429,0,0,0-2.91992-.66407,3.36021,3.36021,0,0,0-1.73828.36133,1.1169,1.1169,0,0,0-.58594.9961,1.21244,1.21244,0,0,0,.21973.73242,2.17188,2.17188,0,0,0,.708.57617,15.83028,15.83028,0,0,0,1.875.791,7.00991,7.00991,0,0,1,2.57325,1.39648A2.46157,2.46157,0,0,1,190.332,25.08008Z"/><path d="M199.67383,25.08008a2.68126,2.68126,0,0,1-1.11328,2.30469,5.23252,5.23252,0,0,1-3.125.81054,6.7952,6.7952,0,0,1-3.32032-.67383v-1.5039a8.06255,8.06255,0,0,0,1.65528.61523,6.90255,6.90255,0,0,0,1.7041.22461,3.86617,3.86617,0,0,0,1.95312-.40527,1.39529,1.39529,0,0,0,.14161-2.30469,8.53142,8.53142,0,0,0-2.11426-1.0498,11.45477,11.45477,0,0,1-2.124-.97168,2.903,2.903,0,0,1-.9375-.94239,2.45769,2.45769,0,0,1-.30761-1.25976,2.40028,2.40028,0,0,1,1.06445-2.06543,4.96115,4.96115,0,0,1,2.91992-.75684,8.5447,8.5447,0,0,1,3.37891.70313l-.57617,1.31836a7.75429,7.75429,0,0,0-2.91993-.66407,3.36026,3.36026,0,0,0-1.73828.36133,1.11691,1.11691,0,0,0-.58593.9961,1.2125,1.2125,0,0,0,.21972.73242,2.172,2.172,0,0,0,.708.57617,15.83028,15.83028,0,0,0,1.875.791,7.00993,7.00993,0,0,1,2.57324,1.39648A2.46158,2.46158,0,0,1,199.67383,25.08008Z"/><path d="M666.79492,148.91357a3.99687,3.99687,0,0,1-1.47949,3.33448,6.70008,6.70008,0,0,1-4.2334,1.167h-1.67969v5.61523h-1.66015V144.75342h3.70117Q666.79443,144.75342,666.79492,148.91357Zm-7.39258,3.07618h1.49414a5.55257,5.55257,0,0,0,3.19336-.71289,2.62778,2.62778,0,0,0,.98633-2.28516,2.46442,2.46442,0,0,0-.92773-2.10938,4.84486,4.84486,0,0,0-2.89063-.69336h-1.85547Z"/><path d="M670.8623,148.32764v6.94287a2.79078,2.79078,0,0,0,.59571,1.95312,2.42677,2.42677,0,0,0,1.86523.64453,3.04178,3.04178,0,0,0,2.45606-.918,4.62948,4.62948,0,0,0,.77636-2.99805v-5.62451h1.6211v10.70263h-1.33789l-.23438-1.43554h-.08789a3.22871,3.22871,0,0,1-1.38183,1.21093,4.6397,4.6397,0,0,1-2.01661.41993,4.08848,4.08848,0,0,1-2.9248-.92774,3.94909,3.94909,0,0,1-.97168-2.96875v-7.00146Z"/><path d="M686.39453,148.15186a3.97908,3.97908,0,0,1,3.27637,1.44043,7.71166,7.71166,0,0,1-.00977,8.17333,3.961,3.961,0,0,1-3.2666,1.46,4.62242,4.62242,0,0,1-1.90918-.38575,3.58506,3.58506,0,0,1-1.45019-1.18652H682.918l-.3418,1.37695h-1.16211V143.83545h1.6211v3.69141q0,1.24-.07813,2.22656h.07813A3.84742,3.84742,0,0,1,686.39453,148.15186Zm-.23437,1.35742a2.83083,2.83083,0,0,0-2.39258.95215,7.34568,7.34568,0,0,0,.01953,6.435,2.858,2.858,0,0,0,2.41211.97168,2.49889,2.49889,0,0,0,2.22656-1.08886,5.59419,5.59419,0,0,0,.73242-3.12989,5.37791,5.37791,0,0,0-.73242-3.11474A2.59518,2.59518,0,0,0,686.16016,149.50928Z"/><path d="M695.0918,159.03027h-1.6211V143.83545h1.6211Z"/><path d="M698.19238,145.42725a1.07525,1.07525,0,0,1,.27344-.81543,1.01225,1.01225,0,0,1,1.35742.00488,1.05817,1.05817,0,0,1,.28321.81055,1.07513,1.07513,0,0,1-.28321.81543.9919.9919,0,0,1-1.35742,0A1.09537,1.09537,0,0,1,698.19238,145.42725Zm1.75782,13.603h-1.6211V148.32764h1.6211Z"/><path d="M710.0918,156.11035a2.68065,2.68065,0,0,1-1.11328,2.30469,5.229,5.229,0,0,1-3.125.81055,6.7952,6.7952,0,0,1-3.32032-.67383v-1.50391a8.00664,8.00664,0,0,0,1.65528.61524,6.87932,6.87932,0,0,0,1.7041.22461,3.861,3.861,0,0,0,1.95312-.40528,1.39528,1.39528,0,0,0,.1416-2.30469,8.56691,8.56691,0,0,0-2.11425-1.0498,11.42151,11.42151,0,0,1-2.124-.97168,2.89835,2.89835,0,0,1-.9375-.94238,2.45465,2.45465,0,0,1-.30761-1.25928,2.40028,2.40028,0,0,1,1.06445-2.06543,4.96123,4.96123,0,0,1,2.91992-.75684,8.54474,8.54474,0,0,1,3.37891.70313l-.57617,1.31836a7.7543,7.7543,0,0,0-2.91993-.66406,3.36027,3.36027,0,0,0-1.73828.36132,1.11691,1.11691,0,0,0-.58593.9961,1.2125,1.2125,0,0,0,.21972.73242,2.16513,2.16513,0,0,0,.708.57568,15.65943,15.65943,0,0,0,1.875.791,7.01719,7.01719,0,0,1,2.57324,1.39648A2.46238,2.46238,0,0,1,710.0918,156.11035Z"/><path d="M719.85254,159.03027v-6.92382a2.79111,2.79111,0,0,0-.5957-1.95264,2.42679,2.42679,0,0,0-1.86524-.64453,3.05715,3.05715,0,0,0-2.46582.918,4.64877,4.64877,0,0,0-.77637,3.00732v5.5957h-1.62109V143.83545h1.62109v4.59961a10.07716,10.07716,0,0,1-.07812,1.37695h.09766a3.31253,3.31253,0,0,1,1.3623-1.21582,4.42672,4.42672,0,0,1,2.0166-.44433,4.13042,4.13042,0,0,1,2.94434.93261,3.92719,3.92719,0,0,1,.98144,2.96338v6.98242Z"/><path d="M729.125,159.22559a4.91679,4.91679,0,0,1-3.74512-1.44532,5.59164,5.59164,0,0,1-1.37207-4.01367,6.20508,6.20508,0,0,1,1.27442-4.11084,4.23284,4.23284,0,0,1,3.42285-1.52344,4.03627,4.03627,0,0,1,3.18359,1.32325,5.07138,5.07138,0,0,1,1.17188,3.49072v1.02539H725.6875a4.23754,4.23754,0,0,0,.95215,2.86133,3.29243,3.29243,0,0,0,2.54394.97656,8.60816,8.60816,0,0,0,3.418-.72266v1.44532a8.54763,8.54763,0,0,1-1.626.53222A9.13478,9.13478,0,0,1,729.125,159.22559Zm-.43945-9.73584a2.64626,2.64626,0,0,0-2.05567.83984,3.87106,3.87106,0,0,0-.90332,2.32373h5.59571a3.56179,3.56179,0,0,0-.6836-2.34814A2.40652,2.40652,0,0,0,728.68555,149.48975Z"/><path d="M740.50781,148.13232a6.34358,6.34358,0,0,1,1.2793.11719l-.22461,1.50391a5.51691,5.51691,0,0,0-1.17188-.14649,2.85209,2.85209,0,0,0-2.22167,1.05469,3.845,3.845,0,0,0-.92286,2.62647v5.74218H735.625V148.32764h1.33789l.18555,1.98242h.07812a4.7085,4.7085,0,0,1,1.43555-1.61133A3.23133,3.23133,0,0,1,740.50781,148.13232Z"/><path d="M750.49316,156.11035a2.68063,2.68063,0,0,1-1.11328,2.30469,5.229,5.229,0,0,1-3.125.81055,6.79518,6.79518,0,0,1-3.32031-.67383v-1.50391a8.00677,8.00677,0,0,0,1.65527.61524,6.87945,6.87945,0,0,0,1.70411.22461,3.861,3.861,0,0,0,1.95312-.40528,1.3953,1.3953,0,0,0,.1416-2.30469,8.567,8.567,0,0,0-2.11426-1.0498,11.42134,11.42134,0,0,1-2.124-.97168,2.89835,2.89835,0,0,1-.9375-.94238,2.45455,2.45455,0,0,1-.30762-1.25928,2.40029,2.40029,0,0,1,1.06446-2.06543,4.9612,4.9612,0,0,1,2.91992-.75684,8.54465,8.54465,0,0,1,3.3789.70313l-.57617,1.31836a7.75426,7.75426,0,0,0-2.91992-.66406,3.36024,3.36024,0,0,0-1.73828.36132,1.1169,1.1169,0,0,0-.58594.9961,1.21244,1.21244,0,0,0,.21973.73242,2.165,2.165,0,0,0,.708.57568,15.65943,15.65943,0,0,0,1.875.791,7.01719,7.01719,0,0,1,2.57324,1.39648A2.46237,2.46237,0,0,1,750.49316,156.11035Z"/><path d="M151.49414,276.72461a7.20774,7.20774,0,0,1-1.91894,5.40527A7.59108,7.59108,0,0,1,144.05273,284h-3.95507V269.72266h4.375a6.409,6.409,0,0,1,7.02148,7.00195Zm-1.75781.05859a5.74662,5.74662,0,0,0-1.40137-4.209,5.61875,5.61875,0,0,0-4.165-1.416h-2.41211v11.40625h2.02149a6.14442,6.14442,0,0,0,4.46289-1.46A5.78,5.78,0,0,0,149.73633,276.7832Z"/><path d="M159.11621,273.10156a6.34286,6.34286,0,0,1,1.2793.11719l-.22461,1.50391a5.51691,5.51691,0,0,0-1.17188-.14649,2.85209,2.85209,0,0,0-2.22168,1.05469,3.84459,3.84459,0,0,0-.92285,2.627V284H154.2334V273.29688h1.33789l.18555,1.98242h.07812a4.69945,4.69945,0,0,1,1.43555-1.61133A3.235,3.235,0,0,1,159.11621,273.10156Z"/><path d="M163.7207,273.29688v6.94335a2.79081,2.79081,0,0,0,.59571,1.95313,2.42677,2.42677,0,0,0,1.86523.64453,3.04491,3.04491,0,0,0,2.45606-.918,4.62952,4.62952,0,0,0,.77636-2.998v-5.625h1.6211V284h-1.33789l-.23438-1.43555H169.375a3.2287,3.2287,0,0,1-1.38184,1.21094,4.65372,4.65372,0,0,1-2.0166.41992,4.08846,4.08846,0,0,1-2.9248-.92773,3.95058,3.95058,0,0,1-.97168-2.96875v-7.002Z"/><path d="M179.25391,284.19531a4.63815,4.63815,0,0,1-1.90918-.38574,3.59311,3.59311,0,0,1-1.4502-1.18652h-.11719a14.3471,14.3471,0,0,1,.11719,1.77734v4.4043h-1.62109V273.29688h1.31836l.22461,1.46484h.07812a3.75929,3.75929,0,0,1,1.45508-1.26953,4.43489,4.43489,0,0,1,1.9043-.39063,3.95448,3.95448,0,0,1,3.28613,1.45508,7.74853,7.74853,0,0,1-.01953,8.17871A3.961,3.961,0,0,1,179.25391,284.19531Zm-.23438-9.71679a2.87278,2.87278,0,0,0-2.37305.9082,4.66989,4.66989,0,0,0-.75195,2.89062v.36133a5.358,5.358,0,0,0,.75195,3.22754,2.86072,2.86072,0,0,0,2.41211.97168,2.50964,2.50964,0,0,0,2.17286-1.12305,5.32287,5.32287,0,0,0,.78613-3.0957,5.1247,5.1247,0,0,0-.78613-3.07129A2.58652,2.58652,0,0,0,179.01953,274.47852Z"/><path d="M192.91113,284l-.32226-1.52344h-.07813a4.51278,4.51278,0,0,1-1.59668,1.36231,4.87227,4.87227,0,0,1-1.9873.35644,3.57477,3.57477,0,0,1-2.49512-.82031,2.98993,2.98993,0,0,1-.90332-2.334q0-3.24316,5.18555-3.39844l1.8164-.0586v-.66406a2.71354,2.71354,0,0,0-.542-1.86035,2.22959,2.22959,0,0,0-1.7334-.60059,7.0628,7.0628,0,0,0-3.02734.82032l-.49805-1.24024a7.78957,7.78957,0,0,1,3.62305-.918,4.07648,4.07648,0,0,1,2.83691.84961,3.54633,3.54633,0,0,1,.92285,2.72461V284Zm-3.66211-1.14258a3.29365,3.29365,0,0,0,2.37793-.83008,3.06979,3.06979,0,0,0,.86426-2.32422v-.96679l-1.62109.06836a5.8915,5.8915,0,0,0-2.78809.60058,1.812,1.812,0,0,0-.85449,1.65528,1.672,1.672,0,0,0,.53223,1.33789A2.20581,2.20581,0,0,0,189.249,282.85742Z"/><path d="M198.87305,284H197.252V268.80469h1.6211Z"/><path d="M13.13477,148.01758a7.86171,7.86171,0,0,1-1.7334,5.39062A6.09308,6.09308,0,0,1,6.582,155.37109a6.17047,6.17047,0,0,1-4.86816-1.92871A7.92283,7.92283,0,0,1,0,147.99805a7.82653,7.82653,0,0,1,1.71875-5.40528,6.21435,6.21435,0,0,1,4.88281-1.91894,6.0815,6.0815,0,0,1,4.80469,1.95312A7.85244,7.85244,0,0,1,13.13477,148.01758Zm-11.377,0A6.77843,6.77843,0,0,0,2.99316,152.417,4.3804,4.3804,0,0,0,6.582,153.916a4.34149,4.34149,0,0,0,3.584-1.49414,6.86881,6.86881,0,0,0,1.21093-4.4043,6.81762,6.81762,0,0,0-1.20605-4.37012,4.32226,4.32226,0,0,0-3.56934-1.48926,4.40534,4.40534,0,0,0-3.6084,1.499A6.70856,6.70856,0,0,0,1.75781,148.01758Z"/><path d="M19.33105,154.0332a5.76736,5.76736,0,0,0,1.46485-.19531v1.24023a2.92517,2.92517,0,0,1-.77637.21,5.79239,5.79239,0,0,1-.92285.083q-3.10546,0-3.10547-3.27148v-6.36719H14.458v-.78125l1.5332-.67383.68359-2.28515h.9375v2.48047h3.10547v1.25976H17.6123v6.29883a2.16791,2.16791,0,0,0,.459,1.48437A1.59417,1.59417,0,0,0,19.33105,154.0332Z"/><path d="M30.05859,155.17578V148.252a2.79161,2.79161,0,0,0-.5957-1.95312,2.42677,2.42677,0,0,0-1.86523-.64453,3.05714,3.05714,0,0,0-2.46582.918,4.6494,4.6494,0,0,0-.77637,3.00781v5.5957H22.73438V139.98047h1.62109v4.59961a10.077,10.077,0,0,1-.07813,1.37695H24.375a3.31266,3.31266,0,0,1,1.3623-1.21582,4.42673,4.42673,0,0,1,2.01661-.44433,4.13039,4.13039,0,0,1,2.94433.93261,3.92764,3.92764,0,0,1,.98145,2.96387v6.98242Z"/><path d="M39.332,155.37109a4.91679,4.91679,0,0,1-3.74512-1.44531,5.59248,5.59248,0,0,1-1.37207-4.01367,6.20557,6.20557,0,0,1,1.27442-4.11133,4.23284,4.23284,0,0,1,3.42285-1.52344,4.03627,4.03627,0,0,1,3.18359,1.32325,5.07182,5.07182,0,0,1,1.17188,3.49121v1.02539h-7.373a4.23848,4.23848,0,0,0,.95215,2.86133,3.29248,3.29248,0,0,0,2.54394.97656,8.60834,8.60834,0,0,0,3.418-.72266v1.44531a8.547,8.547,0,0,1-1.626.53223A9.1355,9.1355,0,0,1,39.332,155.37109Zm-.43945-9.73632a2.64627,2.64627,0,0,0-2.05567.83984,3.8713,3.8713,0,0,0-.90332,2.32422H41.5293a3.56234,3.56234,0,0,0-.6836-2.34863A2.40652,2.40652,0,0,0,38.89258,145.63477Z"/><path d="M50.71387,144.27734a6.34355,6.34355,0,0,1,1.27929.11719l-.22461,1.50391a5.51683,5.51683,0,0,0-1.17187-.14649,2.85211,2.85211,0,0,0-2.22168,1.05469,3.84548,3.84548,0,0,0-.92285,2.627v5.74219h-1.6211V144.47266H47.169l.18554,1.98242h.07813a4.70847,4.70847,0,0,1,1.43554-1.61133A3.23136,3.23136,0,0,1,50.71387,144.27734Z"/><path d="M65.14746,142.17773a4.6677,4.6677,0,0,0-3.71582,1.56739,6.32216,6.32216,0,0,0-1.3623,4.292,6.44661,6.44661,0,0,0,1.31347,4.331,4.66735,4.66735,0,0,0,3.74512,1.52832,12.77615,12.77615,0,0,0,3.4082-.5371v1.45507a10.49276,10.49276,0,0,1-3.66211.55664,6.19456,6.19456,0,0,1-4.86816-1.91406,7.8816,7.8816,0,0,1-1.71387-5.43945,8.59025,8.59025,0,0,1,.8252-3.86719A5.92429,5.92429,0,0,1,61.5,141.5918a7.20967,7.20967,0,0,1,3.667-.89844,8.84994,8.84994,0,0,1,3.92578.82031l-.70312,1.42578A7.56689,7.56689,0,0,0,65.14746,142.17773Z"/><path d="M77.76953,155.17578l-4.84375-12.65625h-.07812q.13623,1.50366.13672,3.57422v9.082H71.45117V140.89844h2.5l4.52149,11.77734h.07812l4.56055-11.77734H85.5918v14.27734H83.93164v-9.19922q0-1.582.13672-3.4375h-.07813l-4.88281,12.63672Z"/><path d="M97.36523,151.377a3.50249,3.50249,0,0,1-1.36718,2.93946,5.92759,5.92759,0,0,1-3.71094,1.05468,9.28957,9.28957,0,0,1-3.90625-.65429v-1.60157a10.17984,10.17984,0,0,0,1.91406.58594,10.052,10.052,0,0,0,2.05078.21485,4.13789,4.13789,0,0,0,2.5-.62989,2.06746,2.06746,0,0,0,.83985-1.75293,2.25377,2.25377,0,0,0-.29785-1.21582,2.76155,2.76155,0,0,0-.9961-.874,13.93158,13.93158,0,0,0-2.124-.9082,6.77775,6.77775,0,0,1-2.84668-1.68946,3.731,3.731,0,0,1-.85449-2.54882,3.169,3.169,0,0,1,1.24023-2.627,5.15626,5.15626,0,0,1,3.28125-.97656,9.66847,9.66847,0,0,1,3.916.78125l-.51758,1.44531a8.85405,8.85405,0,0,0-3.4375-.74219,3.32843,3.32843,0,0,0-2.06055.56641,1.86568,1.86568,0,0,0-.74219,1.57227,2.40708,2.40708,0,0,0,.27344,1.21582,2.57862,2.57862,0,0,0,.92285.86914,11.45438,11.45438,0,0,0,1.98731.874,7.87262,7.87262,0,0,1,3.09082,1.71875A3.37876,3.37876,0,0,1,97.36523,151.377Z"/><path d="M552.16211,289.75977a3.27344,3.27344,0,0,1-1.44531-.26368v-1.416a5.28007,5.28007,0,0,0,1.44531.19531,1.8299,1.8299,0,0,0,1.46973-.58594A2.52334,2.52334,0,0,0,554.13477,286V271.72266h1.66015v14.14062a4.09776,4.09776,0,0,1-.9375,2.876A3.47561,3.47561,0,0,1,552.16211,289.75977Z"/><path d="M568.37793,280.63867a5.905,5.905,0,0,1-1.31836,4.08692,4.64367,4.64367,0,0,1-3.64258,1.46972,4.82447,4.82447,0,0,1-2.54883-.67383,4.44523,4.44523,0,0,1-1.71875-1.93359,6.74137,6.74137,0,0,1-.60546-2.94922,5.89849,5.89849,0,0,1,1.30859-4.07715,4.626,4.626,0,0,1,3.63281-1.46,4.52781,4.52781,0,0,1,3.56934,1.49414A5.88048,5.88048,0,0,1,568.37793,280.63867Zm-8.1543,0a5.08157,5.08157,0,0,0,.82032,3.125,3.25569,3.25569,0,0,0,4.8291.00488,5.05777,5.05777,0,0,0,.82519-3.12988,4.97314,4.97314,0,0,0-.82519-3.10058,2.89988,2.89988,0,0,0-2.43653-1.05957,2.85068,2.85068,0,0,0-2.40234,1.04492A5.03082,5.03082,0,0,0,560.22363,280.63867Z"/><path d="M572.543,275.29688v6.94335a2.79081,2.79081,0,0,0,.5957,1.95313,2.42679,2.42679,0,0,0,1.86524.64453,3.0449,3.0449,0,0,0,2.45605-.918,4.62946,4.62946,0,0,0,.77637-2.998v-5.625h1.62109V286h-1.33789l-.23437-1.43555h-.08789a3.22876,3.22876,0,0,1-1.38184,1.21094,4.65378,4.65378,0,0,1-2.0166.41992,4.08849,4.08849,0,0,1-2.92481-.92773,3.95058,3.95058,0,0,1-.97168-2.96875v-7.002Z"/><path d="M587.97852,275.10156a6.34283,6.34283,0,0,1,1.27929.11719l-.22461,1.50391a5.51683,5.51683,0,0,0-1.17187-.14649,2.85208,2.85208,0,0,0-2.22168,1.05469,3.84455,3.84455,0,0,0-.92285,2.627V286h-1.6211V275.29688h1.33789l.18555,1.98242h.07813a4.69943,4.69943,0,0,1,1.43554-1.61133A3.235,3.235,0,0,1,587.97852,275.10156Z"/><path d="M598.38379,286v-6.92383a2.79077,2.79077,0,0,0-.5957-1.95312,2.4268,2.4268,0,0,0-1.86524-.64453,3.07539,3.07539,0,0,0-2.46094.9082,4.58834,4.58834,0,0,0-.78125,2.998V286h-1.62109V275.29688h1.31836l.26367,1.46484h.07813a3.3142,3.3142,0,0,1,1.39648-1.22559,4.53281,4.53281,0,0,1,2.00195-.43457,4.06447,4.06447,0,0,1,2.91016.93262,3.96835,3.96835,0,0,1,.97656,2.9834V286Z"/><path d="M609.7168,286l-.32227-1.52344h-.07812a4.51287,4.51287,0,0,1-1.59668,1.36231,4.87232,4.87232,0,0,1-1.98731.35644,3.57479,3.57479,0,0,1-2.49512-.82031,2.99,2.99,0,0,1-.90332-2.334q0-3.24316,5.18555-3.39844l1.81641-.0586v-.66406a2.7136,2.7136,0,0,0-.542-1.86035,2.2296,2.2296,0,0,0-1.7334-.60059,7.06284,7.06284,0,0,0-3.02735.82032l-.498-1.24024a7.78949,7.78949,0,0,1,3.623-.918,4.07652,4.07652,0,0,1,2.83692.84961,3.54637,3.54637,0,0,1,.92285,2.72461V286Zm-3.66211-1.14258a3.29365,3.29365,0,0,0,2.37793-.83008,3.06979,3.06979,0,0,0,.86426-2.32422v-.96679l-1.6211.06836a5.89146,5.89146,0,0,0-2.78808.60058,1.812,1.812,0,0,0-.8545,1.65528,1.67207,1.67207,0,0,0,.53223,1.33789A2.20582,2.20582,0,0,0,606.05469,284.85742Z"/><path d="M615.67871,286h-1.62109V270.80469h1.62109Z"/><path d="M618.7793,272.39648a1.07605,1.07605,0,0,1,.27343-.81543,1.01228,1.01228,0,0,1,1.35743.00489,1.05747,1.05747,0,0,1,.2832.81054,1.07367,1.07367,0,0,1-.2832.81543.99188.99188,0,0,1-1.35743,0A1.09388,1.09388,0,0,1,618.7793,272.39648ZM620.53711,286H618.916V275.29688h1.62109Z"/><path d="M630.67969,283.08008a2.68185,2.68185,0,0,1-1.11328,2.30469,5.229,5.229,0,0,1-3.125.81054,6.7952,6.7952,0,0,1-3.32032-.67383v-1.5039a8.11987,8.11987,0,0,0,1.65528.61523,6.87932,6.87932,0,0,0,1.7041.22461,3.861,3.861,0,0,0,1.95312-.40527,1.39529,1.39529,0,0,0,.14161-2.30469,8.5665,8.5665,0,0,0-2.11426-1.0498,11.48755,11.48755,0,0,1-2.124-.97168,2.89828,2.89828,0,0,1-.9375-.94239,2.45769,2.45769,0,0,1-.30761-1.25976,2.40028,2.40028,0,0,1,1.06445-2.06543,4.95764,4.95764,0,0,1,2.91992-.75684,8.5447,8.5447,0,0,1,3.37891.70313l-.57617,1.31836a7.74492,7.74492,0,0,0-2.91993-.66407,3.3652,3.3652,0,0,0-1.73828.36133,1.11583,1.11583,0,0,0-.58593.9961,1.21046,1.21046,0,0,0,.21972.73242,2.17193,2.17193,0,0,0,.708.57617,16.00336,16.00336,0,0,0,1.875.791,7.01719,7.01719,0,0,1,2.57324,1.39648A2.46237,2.46237,0,0,1,630.67969,283.08008Z"/><path d="M636.57324,284.85742a5.33525,5.33525,0,0,0,.83008-.06347,5.45719,5.45719,0,0,0,.63477-.13184v1.24023a3.00208,3.00208,0,0,1-.77637.21,5.79142,5.79142,0,0,1-.92285.083q-3.10548,0-3.10547-3.27148v-6.36719h-1.5332v-.78125l1.5332-.67383.68359-2.28515h.9375v2.48047H637.96v1.25976h-3.10547v6.29883a2.16962,2.16962,0,0,0,.459,1.48437A1.59415,1.59415,0,0,0,636.57324,284.85742Z"/><path d="M646.88086,283.08008a2.68183,2.68183,0,0,1-1.11328,2.30469,5.229,5.229,0,0,1-3.125.81054,6.79513,6.79513,0,0,1-3.32031-.67383v-1.5039a8.11956,8.11956,0,0,0,1.65527.61523,6.87944,6.87944,0,0,0,1.7041.22461,3.86107,3.86107,0,0,0,1.95313-.40527,1.3953,1.3953,0,0,0,.1416-2.30469,8.5665,8.5665,0,0,0-2.11426-1.0498,11.48739,11.48739,0,0,1-2.124-.97168,2.89808,2.89808,0,0,1-.9375-.94239,2.45759,2.45759,0,0,1-.30762-1.25976,2.40028,2.40028,0,0,1,1.06445-2.06543,4.95764,4.95764,0,0,1,2.91992-.75684,8.5447,8.5447,0,0,1,3.37891.70313l-.57617,1.31836a7.74488,7.74488,0,0,0-2.91992-.66407,3.36515,3.36515,0,0,0-1.73828.36133,1.11582,1.11582,0,0,0-.58594.9961,1.21046,1.21046,0,0,0,.21972.73242,2.172,2.172,0,0,0,.708.57617,16.00336,16.00336,0,0,0,1.875.791,7.01719,7.01719,0,0,1,2.57324,1.39648A2.46237,2.46237,0,0,1,646.88086,283.08008Z"/></g></g></svg>