<svg xmlns="http://www.w3.org/2000/svg" viewBox="0 0 600 353"><defs><style>.cls-1{fill:none;}.cls-2{fill:#7ed257;}.cls-3,.cls-6{fill:#242424;}.cls-4{fill:#fff;}.cls-5{opacity:0.1;}.cls-6{opacity:0.4;isolation:isolate;}.cls-7{fill:#28b655;}</style></defs><title>aut-data-3</title><g id="Layer_2" data-name="Layer 2"><g id="Layer_1-2" data-name="Layer 1"><rect class="cls-1" width="600" height="353"/><path class="cls-2" d="M326.74382,203.24382c-14.85768,14.85767-40.17516,13.66906-53.36878.47545-7.96371-8.08258-9.03346-33.16234,5.82421-48.02s40.76947-12.95589,48.02-5.82421C340.41288,163.06866,341.60149,188.38614,326.74382,203.24382Z"/><path class="cls-3" d="M300,142.03019A34.46981,34.46981,0,1,1,265.53019,176.5,34.49458,34.49458,0,0,1,300,142.03019m0-3.56584A38.03565,38.03565,0,1,0,338.03565,176.5,37.9948,37.9948,0,0,0,300,138.46435Z"/><path class="cls-4" d="M289.23111,185.29575a92.462,92.462,0,0,1-10.93525-6.65624c-.5943-.35658-1.18861-.832-1.78292-1.18862v-.71316a1.42348,1.42348,0,0,1,.47545-.47545c3.56584-2.49609,7.60713-4.99217,12.005-7.48827a5.49081,5.49081,0,0,1-.832.832c-.23772.11887-1.30748.832-3.0904,2.02065-2.02064,1.30747-3.56584,2.25836-4.51673,2.85267-1.90178,1.18862-2.37723,1.42634-2.37723,2.49609s0,1.06976,3.56584,3.20926c1.90179,1.18862,3.20926,2.02065,4.279,2.61495a20.67593,20.67593,0,0,1,2.1395,1.30748A5.353,5.353,0,0,1,289.23111,185.29575Z"/><path class="cls-3" d="M290.66759,166.39678a6.87274,6.87274,0,0,0-1.66405.59431,130.7023,130.7023,0,0,0-12.36159,7.726,2.69047,2.69047,0,0,0-1.30748,2.02064v.35659a2.82335,2.82335,0,0,0,.35659,1.42633,12.06426,12.06426,0,0,0,2.1395,1.5452c7.48827,4.87332,11.76728,7.36941,12.9559,7.36941.5943,0,.95089-.59431.95089-1.90178a4.05126,4.05126,0,0,0-2.02065-2.97154,23.67751,23.67751,0,0,0-2.25836-1.42633c-1.06976-.59431-2.49609-1.42634-4.279-2.615s-2.73381-1.66406-2.73381-1.78292a17.59776,17.59776,0,0,1,1.5452-.95089q1.42634-.89145,4.63559-2.85267c2.13951-1.30748,3.0904-2.02065,3.20926-2.02065a3.66712,3.66712,0,0,0,1.78293-2.73381c0-1.18861-.23773-1.78292-.9509-1.78292Z"/><path class="cls-4" d="M294.7031,189.93134c.71316-2.13951,3.32811-8.79575,11.41069-27.69471.11886-.23772.23772-.35658.35658-.59431h0q-.53487,1.248-.71316,1.78292a.89854.89854,0,0,0-.11886.47545l-.71317,1.78292q-.71318,1.78293-1.06975,2.49609a4.99707,4.99707,0,0,1-.23773.59431v-.11886c-.11886.11886-.35658.832-3.80356,9.39005-3.0904,7.60713-3.92243,9.74663-4.16015,10.22208A11.87874,11.87874,0,0,1,294.7031,189.93134Z"/><path class="cls-3" d="M306.48856,159.5872q-1.38227,0-2.0734,1.78292-11.40366,27.457-11.40367,29.23991v.23772c0,.47545.57594.71317,1.61264.71317h.69113c.69113,0,1.38227-.95089,2.18859-2.73381.23037-.71317,1.61264-4.04129,4.03159-10.22208s3.686-9.27119,3.686-9.27119a3.914,3.914,0,0,0,.23038-.71317,19.39175,19.39175,0,0,1,.92151-2.37723l.69113-1.78292a2.04664,2.04664,0,0,1,.23037-.5943,14.84875,14.84875,0,0,0,.57595-1.5452,3.96208,3.96208,0,0,0,.46075-1.66406v-.35658c0-.47545-.57594-.71318-1.843-.71318Z"/><path class="cls-4" d="M312.48045,185.058a3.20431,3.20431,0,0,1,.95089-.832c.11886-.11886.832-.59431,4.6356-2.85267,5.34876-3.20926,5.34876-3.20926,5.34876-4.279s0-1.06976-5.34876-4.39788c-3.92243-2.49609-4.6356-2.97153-4.75446-3.09039l-.71317-.71317.11886.11886a130.83478,130.83478,0,0,1,11.76728,7.36941.84717.84717,0,0,1,.35658.71316c0,.23773,0,.47545-.47545.71317C320.3253,180.42243,316.40287,182.91852,312.48045,185.058Z"/><path class="cls-3" d="M311.87712,166.27792c-.71317,0-1.06976.59431-1.06976,1.66406a3.83949,3.83949,0,0,0,1.66407,2.97153q.35658.35659,4.99218,3.20926a35.29543,35.29543,0,0,1,4.51673,2.97154s-1.5452.95089-4.51673,2.85267c-2.97154,1.78292-4.6356,2.85268-4.87332,2.97154-1.18861.95089-1.90178,1.90178-1.90178,2.73381v.35658c0,1.06976.35658,1.66406.95089,1.66406a4.25788,4.25788,0,0,0,1.30747-.47544c4.04129-2.25837,8.3203-4.87332,12.71818-7.726a2.63677,2.63677,0,0,0,.23771-4.39788,112.80942,112.80942,0,0,0-12.005-7.48827A4.88155,4.88155,0,0,0,311.87712,166.27792Z"/><rect class="cls-3" x="29.71765" y="131.67432" width="3" height="120.81152"/><path class="cls-3" d="M76.15173,148.30518c-22.82471,0-46.43408-6.38476-46.43408-17.07031S53.327,114.16456,76.15173,114.16456s46.43408,6.38476,46.43408,17.07031S98.97644,148.30518,76.15173,148.30518Zm0-31.14062c-20.544,0-43.43408,5.77832-43.43408,14.07031s22.89013,14.07031,43.43408,14.07031,43.43408-5.77832,43.43408-14.07031S96.69567,117.16456,76.15173,117.16456Z"/><path class="cls-3" d="M76.14782,208.94288c-22.82471,0-46.43408-6.38477-46.43408-17.07032h3c0,8.292,22.89014,14.07032,43.43408,14.07032s43.43408-5.77832,43.43408-14.07032h3C122.5819,202.55811,98.97253,208.94288,76.14782,208.94288Z"/><rect class="cls-3" x="119.58581" y="131.23487" width="3" height="121.25098"/><path class="cls-3" d="M76.14782,178.22217c-22.82471,0-46.43408-6.38476-46.43408-17.07031h3c0,8.292,22.89014,14.07031,43.43408,14.07031s43.43408-5.77832,43.43408-14.07031h3C122.5819,171.83741,98.97253,178.22217,76.14782,178.22217Z"/><path class="cls-3" d="M76.14782,238.83546c-22.82471,0-46.43408-6.38477-46.43408-17.07032h3c0,8.292,22.89014,14.07032,43.43408,14.07032s43.43408-5.77832,43.43408-14.07032h3C122.5819,232.45069,98.97253,238.83546,76.14782,238.83546Z"/><path class="cls-3" d="M76.14782,269.55714c-22.82471,0-46.43408-6.38575-46.43408-17.07129h3c0,8.292,22.89014,14.07129,43.43408,14.07129s43.43408-5.7793,43.43408-14.07129h3C122.5819,263.17139,98.97253,269.55714,76.14782,269.55714Z"/><path class="cls-4" d="M484.36931,80.25708h68.38262a14.57178,14.57178,0,0,1,14.57178,14.57178V258.17114a14.57178,14.57178,0,0,1-14.57178,14.57178h-68.3826a14.57178,14.57178,0,0,1-14.57178-14.57178V94.82884A14.57176,14.57176,0,0,1,484.36931,80.25708Z"/><path class="cls-3" d="M552.75183,273.74268H484.3695a15.58916,15.58916,0,0,1-15.57178-15.57129V94.82862A15.58916,15.58916,0,0,1,484.3695,79.25733h68.38233A15.58915,15.58915,0,0,1,568.3236,94.82862V258.17139A15.58915,15.58915,0,0,1,552.75183,273.74268ZM484.3695,81.25733a13.58687,13.58687,0,0,0-13.57178,13.57129V258.17139a13.58687,13.58687,0,0,0,13.57178,13.57129h68.38233a13.58686,13.58686,0,0,0,13.57177-13.57129V94.82862a13.58686,13.58686,0,0,0-13.57177-13.57129Z"/><rect class="cls-4" x="477.49698" y="100.7889" width="82.12729" height="156.55515"/><path class="cls-3" d="M560.62438,258.34424H476.49694V99.78858h84.12744Zm-82.12744-2h80.12744V101.78858H478.49694Z"/><rect class="cls-3" x="510.8612" y="89.52296" width="15.39893" height="2"/><g class="cls-5"><rect class="cls-3" x="482.62993" y="118.75425" width="71.86138" height="23.0983"/></g><rect class="cls-2" x="485.19641" y="121.32072" width="17.96535" height="17.96535"/><rect class="cls-6" x="505.72839" y="122.88721" width="46.19629" height="2"/><rect class="cls-6" x="505.72839" y="130.58643" width="46.19629" height="2"/><path class="cls-7" d="M508.29471,108.48834H531.393a2.56645,2.56645,0,0,1,2.56647,2.56647h0a2.56645,2.56645,0,0,1-2.56647,2.56648H508.29471a2.56645,2.56645,0,0,1-2.56647-2.56648h0A2.56645,2.56645,0,0,1,508.29471,108.48834Z"/><g class="cls-5"><rect class="cls-3" x="482.62993" y="146.9855" width="71.86138" height="23.0983"/></g><rect class="cls-2" x="485.19641" y="149.55198" width="17.96535" height="17.96535"/><rect class="cls-6" x="505.72839" y="151.11866" width="46.19629" height="2"/><rect class="cls-6" x="505.72839" y="158.81788" width="46.19629" height="2"/><g class="cls-5"><rect class="cls-3" x="482.62993" y="175.21676" width="71.86138" height="23.0983"/></g><rect class="cls-2" x="485.19641" y="177.78324" width="17.96535" height="17.96535"/><rect class="cls-6" x="505.72839" y="179.3501" width="46.19629" height="2"/><rect class="cls-6" x="505.72839" y="187.04932" width="46.19629" height="2"/><g class="cls-5"><rect class="cls-3" x="482.62993" y="203.44802" width="71.86138" height="23.0983"/></g><rect class="cls-2" x="485.19641" y="206.0145" width="17.96535" height="17.96535"/><rect class="cls-6" x="505.72839" y="207.58057" width="46.19629" height="2"/><rect class="cls-6" x="505.72839" y="215.28077" width="46.19629" height="2"/><g class="cls-5"><rect class="cls-3" x="482.62993" y="231.67928" width="71.86138" height="23.0983"/></g><rect class="cls-2" x="485.19641" y="234.24575" width="17.96535" height="17.96535"/><rect class="cls-6" x="505.72839" y="235.81202" width="46.19629" height="2"/><rect class="cls-6" x="505.72839" y="243.51124" width="46.19629" height="2"/><path class="cls-3" d="M481.83716,62.58749a110.27432,110.27432,0,0,0-76.21163-16.163,103.80689,103.80689,0,0,0-66.39485,38.86737,102.28272,102.28272,0,0,0-19.23124,40.91022l3.47765.77029a98.75074,98.75074,0,0,1,18.5667-39.49591,100.25744,100.25744,0,0,1,64.12887-37.53259A106.7155,106.7155,0,0,1,479.9235,65.59046Z"/><rect class="cls-3" x="476.1785" y="44.73595" width="3.562" height="21.28658" transform="translate(10.60527 169.80025) rotate(-20.36612)"/><rect class="cls-3" x="462.23656" y="64.7094" width="21.04934" height="3.5617" transform="translate(3.62937 155.03084) rotate(-18.69358)"/><path class="cls-3" d="M275.12571,222.4858a110.27435,110.27435,0,0,1-42.46081,65.31871,103.80689,103.80689,0,0,1-74.43163,19.46487A102.28289,102.28289,0,0,1,115.70683,291.94l1.9144-3.00375a98.75083,98.75083,0,0,0,41.05647,14.79919,100.25755,100.25755,0,0,0,71.8855-18.80641,106.7156,106.7156,0,0,0,41.08593-63.21351Z"/><rect class="cls-3" x="275.69979" y="219.68143" width="3.562" height="21.28658" transform="translate(-70.74999 136.621) rotate(-24.63388)"/><rect class="cls-3" x="255.42372" y="224.36293" width="21.04934" height="3.5617" transform="translate(-72.67804 141.28096) rotate(-26.30642)"/></g></g></svg>