<svg xmlns="http://www.w3.org/2000/svg" viewBox="0 0 1062.10509 480.04691"><defs><style>.cls-1{fill:#f9b122;}.cls-2{fill:#fff;}.cls-3{fill:#231f20;}.cls-4{fill:#5a5b5e;}</style></defs><title>aws-1</title><g id="Layer_2" data-name="Layer 2"><g id="Layer_1-2" data-name="Layer 1"><g id="Layer_1-3" data-name="Layer 1"><polygon class="cls-1" points="237.087 157.357 205.025 146.637 205.025 100.143 237.129 109.684 237.087 157.357"/><polyline class="cls-1" points="245.454 109.684 277.572 100.143 277.455 146.601 245.454 157.357 245.454 109.684"/><polyline class="cls-1" points="271.02 95.115 241.091 85.843 211.566 95.115 241.141 103.058 271.02 95.115"/><polygon class="cls-1" points="317.96 157.357 285.887 146.637 285.887 100.143 317.999 109.684 317.96 157.357"/><polyline class="cls-1" points="326.328 109.684 358.432 100.143 358.328 146.601 326.328 157.357 326.328 109.684"/><polyline class="cls-1" points="351.901 95.115 321.969 85.843 292.428 95.115 322.017 103.058 351.901 95.115"/><polygon class="cls-1" points="115.82 177.621 83.71 168.087 83.71 214.575 115.783 225.303 115.82 177.621"/><polyline class="cls-1" points="124.15 177.621 156.262 168.087 156.155 214.543 124.15 225.303 124.15 177.621"/><polyline class="cls-1" points="149.727 163.059 119.792 153.783 90.259 163.059 119.831 171.002 149.727 163.059"/><polygon class="cls-1" points="196.654 225.303 164.588 214.575 164.588 168.087 196.701 177.621 196.654 225.303"/><polyline class="cls-1" points="205.025 177.621 237.129 168.087 237.023 214.543 205.025 225.303 205.025 177.621"/><polyline class="cls-1" points="230.588 163.059 200.663 153.783 171.125 163.059 200.711 171.002 230.588 163.059"/><polygon class="cls-1" points="156.219 293.247 124.15 282.521 124.15 236.035 156.262 245.57 156.219 293.247"/><polyline class="cls-1" points="164.588 245.57 196.701 236.035 196.588 282.488 164.588 293.247 164.588 245.57"/><polyline class="cls-1" points="190.154 230.998 160.231 221.728 130.691 230.998 160.274 238.938 190.154 230.998"/><path d="M298.254,252.151l-2.358.008a2.39764,2.39764,0,0,0-2.244,1.536l-7.157,25.279-7.085-25.226a2.11974,2.11974,0,0,0-1.968-1.592h-2.795a2.08671,2.08671,0,0,0-1.938,1.606l-6.586,24.963-6.811-25.032a2.49153,2.49153,0,0,0-2.286-1.537l-3.399-.004a2.1756,2.1756,0,0,0-1.752.812,1.16953,1.16953,0,0,0-.199,1.066l10.51,37.303a2.06819,2.06819,0,0,0,1.9,1.576h3.375a2.04308,2.04308,0,0,0,1.945-1.611l6.473-24.85,7.041,24.879a2.06339,2.06339,0,0,0,1.886,1.582h3.318a1.99214,1.99214,0,0,0,1.931-1.591l10.123-37.274a1.217,1.217,0,0,0-.196-1.086A2.13916,2.13916,0,0,0,298.254,252.151Z"/><path d="M318.762,251.885c-12.056,0-17.542,10.678-17.542,20.593,0,12.384,6.825,20.378,17.375,20.378,7.562,0,13.322-3.826,15.812-10.51a1.46606,1.46606,0,0,0-.119-1.174,1.99466,1.99466,0,0,0-1.303-.914l-3.351-.641a2.21606,2.21606,0,0,0-2.257,1.163,9.1444,9.1444,0,0,1-8.308,5.938,9.6419,9.6419,0,0,1-8.357-5.43,17.67848,17.67848,0,0,1-1.431-7.762l24.218-.006a2.03416,2.03416,0,0,0,1.404-.6,1.52852,1.52852,0,0,0,.474-1.094C335.319,262.188,330.917,251.885,318.762,251.885Zm8.679,16.106H309.608c.406-5.023,3.658-10.216,9.168-10.416C324.63106,257.765,327.313,262.846,327.44106,267.991Z"/><path d="M357.939,251.542h-.638a11.08342,11.08342,0,0,0-9.551,5.078l-.008-15.724a1.884,1.884,0,0,0-1.929-1.693h-3.467a1.913,1.913,0,0,0-1.936,1.693v49.089a1.90942,1.90942,0,0,0,1.924,1.7l1.011-.008a2.06694,2.06694,0,0,0,1.89-1.507l1.092-3.469a12.78011,12.78011,0,0,0,10.43,5.727h.626c10.74,0,15.547-10.475,15.547-20.855,0-5.164-1.271-10.111-3.49-13.554A13.86793,13.86793,0,0,0,357.939,251.542Zm7.227,20.998c0,2.282-.399,13.689-8.495,13.979a9.01792,9.01792,0,0,1-6.978-4.061,15.37147,15.37147,0,0,1-1.942-7.306v-6.7c.126-5.146,3.732-10.787,8.898-11.008C364.766,257.768,365.166,270.077,365.166,272.54Z"/><path d="M411.06206,271.431c-2.271-1.623-4.988-2.171-7.718-2.718l-5.229-.971c-3.754-.621-5.923-1.63-5.923-4.945,0-3.508,3.622-4.852,6.697-4.93,3.764.094,6.581,1.771,7.952,4.725a2.03936,2.03936,0,0,0,1.807,1.162,1.87141,1.87141,0,0,0,.383-.039l3.265-.727a2.00419,2.00419,0,0,0,1.294-.955,1.33971,1.33971,0,0,0,.124-1.156c-1.987-5.828-7.062-8.916-14.729-8.916-6.925.021-14.336,3.111-14.336,11.736,0,5.891,3.697,9.631,10.988,11.125l5.861,1.113c3.213.62,6.5,1.717,6.5,5.175,0,5.126-5.948,5.64-7.742,5.677-4.034-.09-8.598-1.887-9.708-5.701a1.93853,1.93853,0,0,0-2.202-1.241l-3.419.706a1.98792,1.98792,0,0,0-1.25.89,1.5262,1.5262,0,0,0-.191,1.19c1.766,6.332,7.862,10.154,16.323,10.216h.183c7.557,0,15.625-3.238,15.625-12.335A11.008,11.008,0,0,0,411.06206,271.431Z"/><path d="M436.9,251.92c-12.059,0-17.547,10.678-17.547,20.592,0,12.379,6.825,20.378,17.384,20.378,7.559,0,13.305-3.826,15.809-10.513a1.40019,1.40019,0,0,0-.118-1.17,1.95388,1.95388,0,0,0-1.303-.916l-3.339-.641a2.20925,2.20925,0,0,0-2.275,1.164,9.14225,9.14225,0,0,1-8.297,5.936,9.64074,9.64074,0,0,1-8.365-5.418,17.79915,17.79915,0,0,1-1.42-7.77l24.21-.006a2.05156,2.05156,0,0,0,1.402-.6,1.601,1.601,0,0,0,.473-1.101C453.455,262.219,449.065,251.92,436.9,251.92Zm8.689,16.109H427.738c.408-5.022,3.666-10.233,9.171-10.411C442.753,257.795,445.443,262.879,445.589,268.029Z"/><path d="M476.37706,252.375a12.46165,12.46165,0,0,0-1.363-.084c-4.066,0-7.369,2.219-9.652,6.447l.011-3.701a1.87221,1.87221,0,0,0-1.918-1.687h-3.032a1.837,1.837,0,0,0-1.862,1.698l-.008,35.988a1.83778,1.83778,0,0,0,1.87,1.698h3.537a1.941,1.941,0,0,0,1.96-1.698l.003-18.142a15.255,15.255,0,0,1,1.693-7.913c2.051-3.797,4.885-5.66,8.711-5.693a1.84551,1.84551,0,0,0,1.784-1.789v-3.365A1.87781,1.87781,0,0,0,476.37706,252.375Z"/><path d="M513.423,251.667h-2.782a2.48631,2.48631,0,0,0-2.268,1.547l-9.031,28.461-9.227-28.426a2.47281,2.47281,0,0,0-2.271-1.584h-3.979a2.212,2.212,0,0,0-1.792.832,1.20076,1.20076,0,0,0-.194,1.074l12.623,37.535a2.15563,2.15563,0,0,0,1.906,1.611h4.813a2.07032,2.07032,0,0,0,1.935-1.611l12.246-37.521a1.1573,1.1573,0,0,0-.179-1.076A2.23771,2.23771,0,0,0,513.423,251.667Z"/><path d="M522.58006,237.242a4.67654,4.67654,0,1,0,4.658,4.674A4.675,4.675,0,0,0,522.58006,237.242Z"/><path d="M524.5,251.438h-3.824a1.96235,1.96235,0,0,0-1.984,1.76l-.016,38.217a1.63156,1.63156,0,0,0,.645,1.26,2.13105,2.13105,0,0,0,1.346.49l3.848.006h.003a1.943,1.943,0,0,0,1.979-1.748V253.198A1.94848,1.94848,0,0,0,524.5,251.438Z"/><path d="M560.211,277.354l-3.194.008a2.05821,2.05821,0,0,0-1.965,1.465c-1.167,5.043-3.809,7.653-7.811,7.771-7.799-.229-8.402-11.125-8.402-14.458,0-6.645,2.291-13.814,8.699-14.006,3.871.115,6.688,2.9,7.535,7.436a2.091,2.091,0,0,0,1.839,1.741l3.416.042a1.94235,1.94235,0,0,0,1.807-1.852c-1.202-8.193-6.868-13.485-14.443-13.485l-.258.008-.291-.008c-11.005,0-15.934,10.293-15.934,20.495,0,9.357,4.157,20.277,15.877,20.277h.548c7.382,0,12.957-5.184,14.549-13.588a1.50621,1.50621,0,0,0-.38-1.123A2.24387,2.24387,0,0,0,560.211,277.354Z"/><path d="M583.032,251.92c-12.048,0-17.541,10.678-17.541,20.592,0,12.379,6.826,20.378,17.386,20.378,7.553,0,13.311-3.823,15.808-10.513a1.45233,1.45233,0,0,0-.125-1.17,1.97109,1.97109,0,0,0-1.292-.916l-3.354-.641a2.19973,2.19973,0,0,0-2.259,1.164,9.16729,9.16729,0,0,1-8.305,5.936,9.63071,9.63071,0,0,1-8.36-5.418,17.65266,17.65266,0,0,1-1.43-7.77l24.21-.006a2.02853,2.02853,0,0,0,1.412-.605,1.49776,1.49776,0,0,0,.477-1.094C599.595,262.219,595.203,251.92,583.032,251.92Zm8.689,16.109h-17.84c.401-5.026,3.646-10.233,9.162-10.411C588.904,257.795,591.589,262.879,591.72105,268.029Z"/><path d="M630,271.431c-2.29-1.623-5.007-2.175-7.732-2.718l-5.228-.971c-3.742-.621-5.911-1.63-5.911-4.945,0-4.523,5.591-4.902,6.697-4.93,3.757.094,6.575,1.771,7.951,4.728a2.0124,2.0124,0,0,0,1.798,1.159,1.80275,1.80275,0,0,0,.383-.039l3.264-.727a1.97076,1.97076,0,0,0,1.294-.959,1.36244,1.36244,0,0,0,.137-1.152c-2.006-5.828-7.058-8.916-14.741-8.916-6.925.021-14.334,3.11-14.334,11.736,0,5.893,3.696,9.631,11.001,11.124l5.849,1.114c3.213.62,6.5,1.717,6.5,5.175,0,5.126-5.946,5.64-7.738,5.677-3.732-.084-8.523-1.625-9.703-5.697a1.9371,1.9371,0,0,0-2.21-1.246l-3.397.707a1.9484,1.9484,0,0,0-1.272.896,1.46083,1.46083,0,0,0-.182,1.184c1.759,6.332,7.854,10.154,16.309,10.216h.193c7.547,0,15.618-3.238,15.618-12.335A11.00517,11.00517,0,0,0,630,271.431Z"/><path d="M474.646,177.865V169.19a2.15387,2.15387,0,0,1,2.2-2.205h38.793a2.16156,2.16156,0,0,1,2.229,2.192v7.439c-.013,1.248-1.061,2.877-2.921,5.462l-20.088,28.755c7.454-.175,15.355.94,22.125,4.756a4.00379,4.00379,0,0,1,2.056,3.386v9.253c0,1.283-1.395,2.752-2.861,1.985a44.57348,44.57348,0,0,0-40.985.076c-1.341.722-2.762-.73-2.762-2.008v-8.797a10.45815,10.45815,0,0,1,1.454-5.968l23.274-33.464-20.265-.009a2.15789,2.15789,0,0,1-2.249-2.178"/><path d="M333.163,232.038H321.354a2.21185,2.21185,0,0,1-2.103-2.003l.012-60.698a2.21908,2.21908,0,0,1,2.265-2.183l10.995-.009a2.247,2.247,0,0,1,2.149,2.042v7.932h.213c2.867-7.671,8.265-11.243,15.539-11.243,7.383,0,12.004,3.572,15.301,11.243a17.41489,17.41489,0,0,1,29.962-4.608c3.746,5.112,2.979,12.521,2.979,19.038l-.005,38.303a2.22913,2.22913,0,0,1-2.279,2.188h-11.785a2.21362,2.21362,0,0,1-2.122-2.173V197.68c0-2.553.22-8.943-.334-11.37-.879-4.09-3.522-5.23-6.936-5.23a7.847,7.847,0,0,0-7.055,4.969c-1.208,3.075-1.096,8.182-1.096,11.631v32.172a2.23005,2.23005,0,0,1-2.275,2.188H352.986a2.21263,2.21263,0,0,1-2.116-2.173l-.01-32.187c0-6.773,1.106-16.729-7.271-16.729-8.483,0-8.146,9.704-8.146,16.729l-.003,32.172a2.22765,2.22765,0,0,1-2.277,2.186"/><path d="M551.26506,165.875c17.518,0,26.999,15.074,26.999,34.226,0,18.531-10.479,33.218-26.999,33.218-17.186,0-26.55-15.079-26.55-33.855,0-18.902,9.47095-33.589,26.55-33.589m.105,12.389c-8.695,0-9.252,11.874-9.252,19.291,0,7.406-.11,23.242,9.146,23.242,9.149,0,9.594-12.772,9.594-20.564,0-5.107-.226-11.234-1.766-16.093C557.76805,179.92,555.121,178.264,551.37,178.264Z"/><path d="M600.964,232.038H589.217a2.21265,2.21265,0,0,1-2.129-2.173l-.015-60.735a2.236,2.236,0,0,1,2.267-1.976l10.953-.009a2.257,2.257,0,0,1,2.095,1.701v9.293h.218c3.301-8.306,7.938-12.264,16.084-12.264,5.289,0,10.464,1.912,13.77,7.147,3.084,4.855,3.084,13.024,3.084,18.905v38.198a2.2342,2.2342,0,0,1-2.252,1.913H621.46007a2.22143,2.22143,0,0,1-2.111-1.913V197.169c0-6.645.772-16.354-7.379-16.354a7.741,7.741,0,0,0-6.832,4.857c-1.653,3.697-1.872,7.408-1.872,11.497V229.85a2.259,2.259,0,0,1-2.302,2.188"/><path d="M443.733,203.048c0,4.609.108,8.452-2.214,12.545-1.87,3.335-4.854,5.381-8.176,5.381-4.52,0-7.17-3.456-7.17-8.58,0-10.076,9.021-11.904,17.56-11.904v2.558m-154.703,0c0,4.609.113,8.452-2.208,12.545-1.868,3.335-4.864,5.381-8.167,5.381-4.528,0-7.181-3.456-7.181-8.58,0-10.076,9.013-11.904,17.556-11.904v2.558m166.6,28.839a2.44672,2.44672,0,0,1-2.792.275c-3.917-3.26-4.626-4.774-6.759-7.88-6.485,6.613-11.066,8.595-19.46,8.595-9.938,0-17.66-6.144-17.66-18.435,0-9.597,5.188-16.133,12.575-19.329,6.401-2.816,15.352-3.329,22.198-4.103v-1.532c0-2.816.217-6.149-1.437-8.577-1.432-2.176-4.192-3.073-6.625-3.073-4.5,0-8.511,2.319-9.485,7.104a2.48838,2.48838,0,0,1-2.047,2.176l-11.441-1.246a2.07418,2.07418,0,0,1-1.762-2.465c2.637-13.913,15.166-18.112,26.394-18.112,5.729,0,13.246,1.533,17.777,5.885,5.731,5.377,5.177,12.544,5.177,20.357v18.425c0,5.545,2.312,7.978,4.467,10.969.746,1.072.914,2.345-.046,3.139-2.408,2.021-6.695,5.755-9.044,7.854Z"/><path d="M289.03,203.048c0,4.609.113,8.452-2.208,12.545-1.868,3.335-4.864,5.381-8.167,5.381-4.528,0-7.181-3.456-7.181-8.58,0-10.076,9.013-11.904,17.556-11.904v2.558m11.892,28.839a2.42954,2.42954,0,0,1-2.782.275c-3.919-3.26-4.623-4.774-6.77-7.88-6.472,6.613-11.064,8.595-19.449,8.595-9.939,0-17.671-6.144-17.671-18.435,0-9.597,5.198-16.133,12.592-19.329,6.408-2.816,15.345-3.329,22.188-4.103v-1.532c0-2.816.221-6.149-1.439-8.577-1.423-2.176-4.193-3.073-6.617-3.073-4.495,0-8.505,2.319-9.49,7.104a2.48185,2.48185,0,0,1-2.036,2.176l-11.439-1.246a2.07986,2.07986,0,0,1-1.773-2.465c2.63-13.913,15.158-18.112,26.393-18.112,5.739,0,13.255,1.533,17.776,5.885,5.735,5.377,5.187,12.544,5.187,20.357v18.425c0,5.545,2.299,7.978,4.449,10.969.755,1.072.928,2.345-.034,3.139-2.411,2.021-6.697,5.755-9.05,7.854Z"/><path class="cls-2" d="M289.03,203.048c0,4.609.113,8.452-2.208,12.545-1.868,3.335-4.864,5.381-8.167,5.381-4.528,0-7.181-3.456-7.181-8.58,0-10.076,9.013-11.904,17.556-11.904v2.558"/><path class="cls-2" d="M443.733,203.048c0,4.609.113,8.452-2.208,12.545-1.868,3.335-4.864,5.381-8.167,5.381-4.528,0-7.181-3.456-7.181-8.58,0-10.076,9.013-11.904,17.556-11.904v2.558"/><path class="cls-3" d="M730.625,241.965h4.681L773.678,294h.167V241.965h3.748v56.724h-4.427l-38.629-52.431h-.168v52.431h-3.744V241.965Z"/><path class="cls-3" d="M787.73,278.67c-.171,9.609,5.275,18.347,16.08,18.347,8.254,0,14.125-4.604,15.653-12.151h3.234c-1.703,9.53-8.505,14.772-18.889,14.772-12.764,0-19.483-9.37-19.313-20.652-.17-11.2,6.126-22.084,19.313-22.084,13.697,0,19.823,10.089,19.229,21.769H787.73Zm32.075-2.623c-.167-8.578-5.952-16.524-15.994-16.524-9.699,0-15.4,8.42-16.08,16.524Z"/><path class="cls-3" d="M846.28105,260.479h-9.53v28.518c0,6.594,3.317,7.23,9.443,7.072v2.62c-6.636.396-13.019-.478-12.678-9.692V260.479h-8.082v-2.621h8.082V245.144h3.233v12.714h9.53l.002,2.621Z"/><path class="cls-3" d="M863.47105,295.194h.174l11.908-37.336h4.34l11.994,37.336h.175l12.252-37.336h3.571l-14.038,40.831h-3.999l-11.998-37.021h-.168l-12.084,37.021h-4.084l-13.865-40.831h3.486Z"/><path class="cls-3" d="M929.089,256.901c12.853,0,20.08,9.77,20.08,21.37,0,11.599-7.229,21.367-20.08,21.367-12.847,0-20.079-9.771-20.079-21.367C909.01006,266.67,916.243,256.901,929.089,256.901Zm0,40.116c10.979,0,16.847-8.976,16.847-18.746s-5.869-18.748-16.847-18.748c-10.975,0-16.846,8.978-16.846,18.748C912.24406,288.042,918.115,297.017,929.089,297.017Z"/><path class="cls-3" d="M959.561,266.911h.256c1.701-5.324,8.851-9.611,16.763-9.293v3.02a15.45151,15.45151,0,0,0-12.082,3.97c-3.232,3.101-4.594,5.642-4.937,11.759V298.69H956.33V257.859h3.231Z"/><path class="cls-3" d="M980.246,241.965h3.23v37.578l26.973-21.686h4.681l-19.146,15.252,20.505,25.578h-4.425l-18.632-23.275-9.954,7.865v15.41h-3.231l-.001-56.722Z"/><path class="cls-3" d="M731.071,167.877h25.455c6.783,0,17.421,2.27,17.421,15.641,0,9.775-6.87,15.329-18.758,15.329h-20.435v24.866h-3.685l.002-55.836Zm3.684,27.997h21.018c10.802,0,14.488-6.646,14.488-12.433,0-4.145-2.013-12.592-13.985-12.592h-21.521Z"/><path class="cls-3" d="M811.891,216.284c0,2.348,0,4.849,2.845,4.849a15.63218,15.63218,0,0,0,2.346-.233v2.503a15.69444,15.69444,0,0,1-2.597.31c-5.022,0-5.778-2.58-5.778-5.863v-2.112h-.165c-2.011,4.77-7.786,8.917-15.994,8.917-8.121,0-14.402-2.895-14.402-11.341,0-9.385,8.707-11.34,15.827-11.887,14.23-.938,14.82-1.798,14.82-8.368,0-1.8-2.177-7.898-11.974-7.898-7.705,0-12.814,3.752-13.233,10.713h-3.183c.419-8.836,6.281-13.294,16.416-13.294,7.538,0,15.072,2.191,15.072,10.48v23.224Zm-3.185-15.405c-2.51,2.66-9.378,2.345-15.573,3.129-7.534.782-11.81,3.284-11.81,9.306,0,4.849,3.771,8.758,11.305,8.758,14.489,0,16.078-11.573,16.078-13.685Z"/><path class="cls-3" d="M825.378,192.434h.251c1.675-5.24,8.71-9.462,16.499-9.15v2.972a15.20879,15.20879,0,0,0-11.893,3.911c-3.184,3.049-4.521,5.551-4.857,11.573v21.974h-3.18V183.519h3.18Z"/><path class="cls-3" d="M863.56706,186.1h-9.374v28.074c0,6.491,3.264,7.118,9.294,6.959v2.58c-6.533.392-12.814-.468-12.478-9.539V186.1h-7.957v-2.582h7.957V171.006h3.184v12.512h9.374Z"/><path class="cls-3" d="M869.604,183.518h3.181v8.603h.17c2.177-6.021,8.707-9.542,15.404-9.542,15.156,0,15.327,11.34,15.327,16.268v24.866h-3.184V198.299c0-4.146-.502-13.139-12.225-13.139-9.632,0-15.494,6.96-15.494,16.813v21.739h-3.182V183.518Z"/><path class="cls-3" d="M914.496,204.008c-.164,9.462,5.195,18.064,15.827,18.064,8.123,0,13.898-4.535,15.409-11.965h3.184c-1.675,9.385-8.375,14.547-18.593,14.547-12.559,0-19.175-9.23-19.011-20.334-.164-11.027,6.03-21.742,19.011-21.742,13.483,0,19.512,9.932,18.925,21.429l-34.752.001Zm31.573-2.581c-.173-8.445-5.864-16.266-15.746-16.266-9.546,0-15.157,8.29-15.827,16.266Z"/><path class="cls-3" d="M960.061,192.434h.252c1.675-5.24,8.711-9.462,16.496-9.15v2.972a15.20472,15.20472,0,0,0-11.89,3.911c-3.185,3.049-4.521,5.551-4.858,11.573v21.974h-3.183V183.519h3.183Z"/><rect class="cls-3" x="684.29704" y="125.09497" width="3.521" height="218.492"/></g><path class="cls-4" d="M128.11479,431l13.19531-34.35937h4.89844L160.271,431h-5.17969l-4.00781-10.40625H136.71635L132.94292,431Zm9.91406-14.10937h11.64844l-3.58594-9.51562q-1.64062-4.33594-2.4375-7.125a43.80015,43.80015,0,0,1-1.85156,6.5625Z"/><path class="cls-4" d="M162.46391,431V396.64059h11.83594a28.70937,28.70937,0,0,1,6.11719.49219,11.63787,11.63787,0,0,1,5.03906,2.46094,13.97935,13.97935,0,0,1,4.06641,5.87109,23.04649,23.04649,0,0,1,1.34766,8.168,23.99913,23.99913,0,0,1-.91406,6.9375,16.83054,16.83054,0,0,1-2.34375,5.00391,12.45091,12.45091,0,0,1-3.12891,3.11719,12.75243,12.75243,0,0,1-4.10156,1.72266A23.40912,23.40912,0,0,1,174.86235,431Zm4.54688-4.05469h7.33594a17.80225,17.80225,0,0,0,5.332-.63281,7.62806,7.62806,0,0,0,3.082-1.78125,10.83854,10.83854,0,0,0,2.51953-4.34766,21.25565,21.25565,0,0,0,.90234-6.62109q0-5.39062-1.76953-8.28516a8.90587,8.90587,0,0,0-4.30078-3.87891,17.7771,17.7771,0,0,0-5.88281-.70312h-7.21875Z"/><path class="cls-4" d="M205.50835,431l-13.3125-34.35937h4.92188l8.92969,24.96094q1.07813,3,1.80469,5.625.79688-2.8125,1.85156-5.625l9.28125-24.96094h4.64063L210.17241,431Z"/><path class="cls-4" d="M218.92778,431l13.19531-34.35937h4.89844L251.084,431h-5.17969l-4.00781-10.40625H227.52934L223.75591,431Zm9.91406-14.10937h11.64844l-3.58594-9.51562q-1.64062-4.33594-2.4375-7.125a43.80015,43.80015,0,0,1-1.85156,6.5625Z"/><path class="cls-4" d="M253.23,431V396.64059h4.66406L275.941,423.61716V396.64059h4.35938V431h-4.66406L257.5894,404v27Z"/><path class="cls-4" d="M311.01616,418.95309l4.54688,1.14844a15.30585,15.30585,0,0,1-5.14453,8.543,14.17505,14.17505,0,0,1-9.082,2.94141,16.3205,16.3205,0,0,1-9.03516-2.26172,14.12242,14.12242,0,0,1-5.29687-6.55078,23.37328,23.37328,0,0,1-1.81641-9.21094,20.2466,20.2466,0,0,1,2.05078-9.36328,14.0509,14.0509,0,0,1,5.83594-6.07031,17.05162,17.05162,0,0,1,8.332-2.07422,14.08564,14.08564,0,0,1,8.67188,2.625,13.63177,13.63177,0,0,1,4.89844,7.38281l-4.47656,1.05469a10.61878,10.61878,0,0,0-3.46875-5.46094,9.24335,9.24335,0,0,0-5.71875-1.71094,11.10848,11.10848,0,0,0-6.62109,1.89844,10.02529,10.02529,0,0,0-3.73828,5.09766,20.52276,20.52276,0,0,0-1.07812,6.59766,20.96617,20.96617,0,0,0,1.27734,7.65234,9.51527,9.51527,0,0,0,3.97266,4.88672,11.14146,11.14146,0,0,0,5.83594,1.61719,9.7792,9.7792,0,0,0,6.46875-2.20312A11.27494,11.27494,0,0,0,311.01616,418.95309Z"/><path class="cls-4" d="M319.81841,431V396.64059h24.84375v4.05469H324.36528v10.52344h19.00781V415.25H324.36528v11.69531H345.459V431Z"/><path class="cls-4" d="M350.30034,431V396.64059h11.83594a28.70937,28.70937,0,0,1,6.11719.49219,11.63787,11.63787,0,0,1,5.03906,2.46094,13.97935,13.97935,0,0,1,4.06641,5.87109,23.04649,23.04649,0,0,1,1.34766,8.168,23.99913,23.99913,0,0,1-.91406,6.9375,16.83054,16.83054,0,0,1-2.34375,5.00391,12.45091,12.45091,0,0,1-3.12891,3.11719,12.75243,12.75243,0,0,1-4.10156,1.72266A23.40912,23.40912,0,0,1,362.69878,431Zm4.54688-4.05469h7.33594a17.80225,17.80225,0,0,0,5.332-.63281,7.62806,7.62806,0,0,0,3.082-1.78125,10.83854,10.83854,0,0,0,2.51953-4.34766,21.25565,21.25565,0,0,0,.90234-6.62109q0-5.39062-1.76953-8.28516a8.90587,8.90587,0,0,0-4.30078-3.87891,17.7771,17.7771,0,0,0-5.88281-.70312h-7.21875Z"/><path class="cls-4" d="M403.29546,431V400.69528H391.97514v-4.05469h27.23438v4.05469H407.84233V431Z"/><path class="cls-4" d="M422.52739,431V396.64059h24.84375v4.05469H427.07426v10.52344h19.00781V415.25H427.07426v11.69531H448.168V431Z"/><path class="cls-4" d="M477.52495,418.95309l4.54688,1.14844a15.30585,15.30585,0,0,1-5.14453,8.543,14.17505,14.17505,0,0,1-9.082,2.94141,16.3205,16.3205,0,0,1-9.03516-2.26172,14.12242,14.12242,0,0,1-5.29687-6.55078,23.37328,23.37328,0,0,1-1.81641-9.21094,20.2466,20.2466,0,0,1,2.05078-9.36328,14.0509,14.0509,0,0,1,5.83594-6.07031,17.05162,17.05162,0,0,1,8.332-2.07422,14.08564,14.08564,0,0,1,8.67188,2.625,13.63177,13.63177,0,0,1,4.89844,7.38281l-4.47656,1.05469a10.61878,10.61878,0,0,0-3.46875-5.46094,9.24335,9.24335,0,0,0-5.71875-1.71094,11.10848,11.10848,0,0,0-6.62109,1.89844,10.02529,10.02529,0,0,0-3.73828,5.09766,20.52276,20.52276,0,0,0-1.07812,6.59766,20.96617,20.96617,0,0,0,1.27734,7.65234,9.51527,9.51527,0,0,0,3.97266,4.88672,11.14146,11.14146,0,0,0,5.83594,1.61719,9.7792,9.7792,0,0,0,6.46875-2.20312A11.27494,11.27494,0,0,0,477.52495,418.95309Z"/><path class="cls-4" d="M486.37407,431V396.64059h4.54688V410.75h17.85938V396.64059h4.54688V431h-4.54687V414.80466H490.92094V431Z"/><path class="cls-4" d="M519.4102,431V396.64059h4.66406l18.04688,26.97656V396.64059h4.35938V431h-4.66406l-18.04687-27v27Z"/><path class="cls-4" d="M551.29887,414.26559q0-8.55469,4.59375-13.39453a15.61852,15.61852,0,0,1,11.85938-4.83984,16.45236,16.45236,0,0,1,8.57813,2.27344,14.84725,14.84725,0,0,1,5.82422,6.33984,20.59084,20.59084,0,0,1,2.00391,9.22266,20.24582,20.24582,0,0,1-2.10937,9.35156,14.4011,14.4011,0,0,1-5.97656,6.24609,17.07566,17.07566,0,0,1-8.34375,2.12109,16.24672,16.24672,0,0,1-8.67187-2.34375,15.08233,15.08233,0,0,1-5.78906-6.39844A19.391,19.391,0,0,1,551.29887,414.26559Zm4.6875.07031q0,6.21094,3.33984,9.78516a11.65125,11.65125,0,0,0,16.82813-.03516q3.31641-3.60937,3.31641-10.24219a17.60175,17.60175,0,0,0-1.418-7.32422,10.89477,10.89477,0,0,0-4.14844-4.85156,11.24689,11.24689,0,0,0-6.12891-1.72266,11.62594,11.62594,0,0,0-8.30859,3.31641Q555.98637,406.57809,555.98637,414.33591Z"/><path class="cls-4" d="M588.38969,431V396.64059h4.54688v30.30469h16.92188V431Z"/><path class="cls-4" d="M612.45024,414.26559q0-8.55469,4.59375-13.39453a15.61852,15.61852,0,0,1,11.85938-4.83984,16.45236,16.45236,0,0,1,8.57813,2.27344,14.84725,14.84725,0,0,1,5.82422,6.33984,20.59084,20.59084,0,0,1,2.00391,9.22266,20.24582,20.24582,0,0,1-2.10937,9.35156,14.4011,14.4011,0,0,1-5.97656,6.24609,17.07566,17.07566,0,0,1-8.34375,2.12109,16.24672,16.24672,0,0,1-8.67187-2.34375,15.08233,15.08233,0,0,1-5.78906-6.39844A19.391,19.391,0,0,1,612.45024,414.26559Zm4.6875.07031q0,6.21094,3.33984,9.78516a11.65125,11.65125,0,0,0,16.82813-.03516q3.31641-3.60937,3.31641-10.24219a17.60175,17.60175,0,0,0-1.418-7.32422,10.89477,10.89477,0,0,0-4.14844-4.85156,11.24689,11.24689,0,0,0-6.12891-1.72266,11.62594,11.62594,0,0,0-8.30859,3.31641Q617.13774,406.57809,617.13774,414.33591Z"/><path class="cls-4" d="M665.80669,417.52341v-4.03125l14.55469-.02344v12.75a25.70064,25.70064,0,0,1-6.91406,4.01953,20.50654,20.50654,0,0,1-7.3125,1.34766,19.51213,19.51213,0,0,1-9.19922-2.168,14.33118,14.33118,0,0,1-6.24609-6.26953,19.74023,19.74023,0,0,1-2.10937-9.16406,21.26465,21.26465,0,0,1,2.09766-9.36328,13.95033,13.95033,0,0,1,6.03516-6.457,18.91315,18.91315,0,0,1,9.07031-2.10937,17.97112,17.97112,0,0,1,6.73828,1.207,11.172,11.172,0,0,1,4.72266,3.36328,14.91819,14.91819,0,0,1,2.60156,5.625l-4.10156,1.125a12.69451,12.69451,0,0,0-1.92187-4.125,7.88435,7.88435,0,0,0-3.28125-2.40234,12.03356,12.03356,0,0,0-4.73437-.90234,13.94024,13.94024,0,0,0-5.39062.94922,10.06079,10.06079,0,0,0-3.668,2.49609,11.90289,11.90289,0,0,0-2.168,3.39844,17.98194,17.98194,0,0,0-1.3125,6.91406,16.77623,16.77623,0,0,0,1.582,7.6875,10.12478,10.12478,0,0,0,4.60547,4.59375,14.25888,14.25888,0,0,0,6.42188,1.5,15.25632,15.25632,0,0,0,5.76563-1.13672,14.88024,14.88024,0,0,0,4.26563-2.42578v-6.39844Z"/><path class="cls-4" d="M695.30376,431V416.44528l-13.24219-19.80469h5.53125L694.36626,407q1.875,2.90625,3.49219,5.8125,1.54688-2.69531,3.75-6.07031l6.65625-10.10156h5.29688l-13.71094,19.80469V431Z"/><path class="cls-4" d="M727.22856,431V396.64059H740.1895a31.2937,31.2937,0,0,1,5.22656.32813,10.35376,10.35376,0,0,1,4.24219,1.60547,8.42369,8.42369,0,0,1,2.75391,3.31641,11.18338,11.18338,0,0,1-1.74609,12.10547q-2.78906,3.03516-10.07812,3.03516h-8.8125V431Zm4.54688-18.02344h8.88281q4.40625,0,6.25781-1.64062a5.8457,5.8457,0,0,0,1.85156-4.61719,6.21052,6.21052,0,0,0-1.08984-3.69141A5.09443,5.09443,0,0,0,744.80669,401a19.4277,19.4277,0,0,0-4.24219-.30469h-8.78906Z"/><path class="cls-4" d="M750.4688,431l13.19531-34.35937h4.89844L782.625,431h-5.17969l-4.00781-10.40625H759.07036L755.29692,431Zm9.91406-14.10937H772.0313l-3.58594-9.51562q-1.64062-4.33594-2.4375-7.125a43.80015,43.80015,0,0,1-1.85156,6.5625Z"/><path class="cls-4" d="M784.88774,431V396.64059h15.23438a20.27564,20.27564,0,0,1,6.98438.92578,7.63761,7.63761,0,0,1,3.82031,3.26953,9.75423,9.75423,0,0,1,1.42969,5.17969,8.641,8.641,0,0,1-2.36719,6.16406q-2.36719,2.50781-7.3125,3.1875a11.79129,11.79129,0,0,1,2.74219,1.71094,23.62569,23.62569,0,0,1,3.77344,4.57031L815.169,431h-5.71875l-4.54687-7.14844q-1.99219-3.09375-3.28125-4.73437a10.31673,10.31673,0,0,0-2.30859-2.29687,6.8241,6.8241,0,0,0-2.07422-.91406,13.65951,13.65951,0,0,0-2.53125-.16406h-5.27344V431Zm4.54688-19.19531h9.77344a14.65751,14.65751,0,0,0,4.875-.64453,5.18779,5.18779,0,0,0,2.67188-2.0625,5.57861,5.57861,0,0,0,.91406-3.082,5.1197,5.1197,0,0,0-1.76953-4.00781q-1.76953-1.57031-5.58984-1.57031h-10.875Z"/><path class="cls-4" d="M825.917,431V400.69528H814.59673v-4.05469H841.8311v4.05469H830.46391V431Z"/><path class="cls-4" d="M845.00786,431V396.64059h4.66406l18.04688,26.97656V396.64059h4.35938V431h-4.66406l-18.04687-27v27Z"/><path class="cls-4" d="M878.37309,431V396.64059h24.84375v4.05469H882.92v10.52344h19.00781V415.25H882.92v11.69531h21.09375V431Z"/><path class="cls-4" d="M908.92485,431V396.64059h15.23438a20.27564,20.27564,0,0,1,6.98438.92578,7.63761,7.63761,0,0,1,3.82031,3.26953,9.75423,9.75423,0,0,1,1.42969,5.17969,8.641,8.641,0,0,1-2.36719,6.16406q-2.36719,2.50781-7.3125,3.1875a11.79129,11.79129,0,0,1,2.74219,1.71094,23.62569,23.62569,0,0,1,3.77344,4.57031L939.2061,431h-5.71875l-4.54687-7.14844q-1.99219-3.09375-3.28125-4.73437a10.31673,10.31673,0,0,0-2.30859-2.29687,6.8241,6.8241,0,0,0-2.07422-.91406,13.65951,13.65951,0,0,0-2.53125-.16406h-5.27344V431Zm4.54688-19.19531h9.77344a14.65751,14.65751,0,0,0,4.875-.64453,5.18779,5.18779,0,0,0,2.67188-2.0625,5.57861,5.57861,0,0,0,.91406-3.082,5.1197,5.1197,0,0,0-1.76953-4.00781q-1.76953-1.57031-5.58984-1.57031h-10.875Z"/><path d="M1042.10509,2a18.02045,18.02045,0,0,1,18,18V460.04691a18.02043,18.02043,0,0,1-18,18H20a18.02041,18.02041,0,0,1-18-18V20A18.02043,18.02043,0,0,1,20,2H1042.10509m0-2H20A20.0588,20.0588,0,0,0,0,20V460.04691a20.0588,20.0588,0,0,0,20,20H1042.10509a20.0588,20.0588,0,0,0,20-20V20a20.0588,20.0588,0,0,0-20-20Z"/></g></g></svg>