<svg id="Layer_1" data-name="Layer 1" xmlns="http://www.w3.org/2000/svg" viewBox="0 0 768 368"><defs><style>.cls-1{fill:none;}.cls-2{fill:#f90;}.cls-3{stroke:#000;}</style></defs><title>aws</title><rect class="cls-1" width="768" height="368"/><path class="cls-2" d="M159.24652,297.75947,123.529,284.9422V232.57451L159.24652,244.757v53.00245m6.56734,0,35.71752-12.81727V232.57451L165.81385,244.757v53.00245M127.19108,228.6683l36.18138-10.18058,33.52027,10.81533L163.37246,240.6799l-36.18138-12.0116m-10.47356-4.05271L81,211.79832v-52.3921l35.71752,12.18251v53.02686m6.56734,0,35.74193-12.81727v-52.3921l-35.74193,12.18251v53.02686M84.66208,155.5l36.157-10.18058,33.52027,10.81533-33.52027,11.37686L84.66208,155.5M200.091,224.61559,164.349,211.79832v-52.3921L200.091,171.58873v53.02686m6.56733,0,35.74194-12.81727v-52.3921l-35.74194,12.18251v53.02686M168.03552,155.5l36.157-10.18058,33.52027,10.81533-33.52027,11.37685L168.03552,155.5m74.58444-4.0527L206.878,138.63V86.26236L242.62,98.44486v53.00245m6.56733,0L284.90481,138.63V86.26236L249.16287,98.44486l.02442,53.00245M210.56451,82.33173,246.7459,72.15115l33.52027,10.81533L246.7459,94.34334,210.56451,82.33173M325.9934,151.44731,290.25146,138.63V86.26236L325.9934,98.44486v53.00245m6.56734,0L368.30268,138.63V86.26236L332.56074,98.44486v53.00245M293.93795,82.33173l36.157-10.18057L363.6152,82.96649,330.09492,94.34334l-36.157-12.01161"/><path d="M307.82946,263.65333l-12.01164,41.69884h-5.22458L281.24273,274.371l-8.56927,30.98117h-5.32223l-12.45108-41.69884h6.44527l9.082,31.07882,8.66692-31.07882H283.855l9.39935,31.17648,9.32611-31.17648Z"/><path class="cls-3" d="M307.82946,263.65333l-12.01164,41.69884h-5.22458L281.24273,274.371l-8.56927,30.98117h-5.32223l-12.45108-41.69884h6.44527l9.082,31.07882,8.66692-31.07882H283.855l9.39935,31.17648,9.32611-31.17648Z"/><path d="M341.03235,292.90111l6.03022,1.2451a17.10286,17.10286,0,0,1-6.42087,8.86222,18.49127,18.49127,0,0,1-11.2548,3.5156,17.46926,17.46926,0,0,1-13.79385-6.0058q-5.27341-6.00581-5.27339-15.77134,0-9.96085,5.49313-16.08873a17.66381,17.66381,0,0,1,13.76944-6.12787,16.6622,16.6622,0,0,1,13.13469,5.63959q4.98042,5.63961,5.0781,16.91879H317.52179q0,9.44815,3.95505,12.76844a12.86491,12.86491,0,0,0,8.34955,3.29587q7.9467-.03661,11.206-8.25188Zm-.36621-12.67078a18.01421,18.01421,0,0,0-1.14744-6.22553,10.67331,10.67331,0,0,0-3.61327-4.63863,10.02106,10.02106,0,0,0-6.12788-1.9287,10.924,10.924,0,0,0-8.17865,3.46677,14.30094,14.30094,0,0,0-3.75975,9.32609Z"/><path class="cls-3" d="M341.03235,292.90111l6.03022,1.2451a17.10286,17.10286,0,0,1-6.42087,8.86222,18.49127,18.49127,0,0,1-11.2548,3.5156,17.46926,17.46926,0,0,1-13.79385-6.0058q-5.27341-6.00581-5.27339-15.77134,0-9.96085,5.49313-16.08873a17.66381,17.66381,0,0,1,13.76944-6.12787,16.6622,16.6622,0,0,1,13.13469,5.63959q4.98042,5.63961,5.0781,16.91879H317.52179q0,9.44815,3.95505,12.76844a12.86491,12.86491,0,0,0,8.34955,3.29587q7.9467-.03661,11.206-8.25188Zm-.36621-12.67078a18.01421,18.01421,0,0,0-1.14744-6.22553,10.67331,10.67331,0,0,0-3.61327-4.63863,10.02106,10.02106,0,0,0-6.12788-1.9287,10.924,10.924,0,0,0-8.17865,3.46677,14.30094,14.30094,0,0,0-3.75975,9.32609Z"/><path d="M359.44043,305.35217h-3.125V249.05386h6.49409v21.55742q4.43111-8.09318,12.2802-8.1054a15.17579,15.17579,0,0,1,12.01162,5.664c3.22262,3.78415,4.834,9.25285,4.834,16.45494q0,9.30168-4.76071,15.60045a14.8207,14.8207,0,0,1-12.37783,6.29877q-8.496,0-13.01262-8.05657Zm3.3691-16.35727c.293,4.27242,1.61131,7.39739,3.93063,9.32609a11.38288,11.38288,0,0,0,7.34858,2.90525,9.37184,9.37184,0,0,0,7.98333-4.29683q3.03955-4.28463,3.02733-11.76747,0-8.05657-2.92967-12.67079a9.15081,9.15081,0,0,0-8.12984-4.61422,10.18933,10.18933,0,0,0-7.34858,3.27146,13.88178,13.88178,0,0,0-3.90622,8.47161l.02444,9.37491Z"/><path class="cls-3" d="M359.44043,305.35217h-3.125V249.05386h6.49409v21.55742q4.43111-8.09318,12.2802-8.1054a15.17579,15.17579,0,0,1,12.01162,5.664c3.22262,3.78415,4.834,9.25285,4.834,16.45494q0,9.30168-4.76071,15.60045a14.8207,14.8207,0,0,1-12.37783,6.29877q-8.496,0-13.01262-8.05657Zm3.3691-16.35727c.293,4.27242,1.61131,7.39739,3.93063,9.32609a11.38288,11.38288,0,0,0,7.34858,2.90525,9.37184,9.37184,0,0,0,7.98333-4.29683q3.03955-4.28463,3.02733-11.76747,0-8.05657-2.92967-12.67079a9.15081,9.15081,0,0,0-8.12984-4.61422,10.18933,10.18933,0,0,0-7.34858,3.27146,13.88178,13.88178,0,0,0-3.90622,8.47161l.02444,9.37491Z"/><path d="M408.46351,294.53684l6.20113-1.26952c1.36717,5.249,5.73726,7.86126,13.06143,7.86126a12.54258,12.54258,0,0,0,6.8603-1.80663,5.70837,5.70837,0,0,0,2.8076-5.1025c0-3.27146-2.39257-5.34664-7.15328-6.22553l-8.789-1.66014a15.93168,15.93168,0,0,1-8.20306-3.88181,10.05727,10.05727,0,0,1-3.05174-7.64153,11.01265,11.01265,0,0,1,4.17477-8.76458c2.78319-2.34372,6.5185-3.54,11.206-3.54,9.05755,0,14.62393,3.54,16.74792,10.59561L436.393,274.371q-2.56346-6.48188-10.498-6.49408a11.70217,11.70217,0,0,0-6.49409,1.63573,5.10633,5.10633,0,0,0-2.53905,4.541c0,3.05173,2.14843,4.98043,6.46968,5.78608l8.12984,1.48924q12.74407,2.3071,12.744,12.3534a11.03866,11.03866,0,0,1-4.7363,9.27726q-4.76071,3.55222-12.622,3.54c-9.93641,0-16.03988-3.97944-18.38364-11.96277Z"/><path class="cls-3" d="M408.46351,294.53684l6.20113-1.26952c1.36717,5.249,5.73726,7.86126,13.06143,7.86126a12.54258,12.54258,0,0,0,6.8603-1.80663,5.70837,5.70837,0,0,0,2.8076-5.1025c0-3.27146-2.39257-5.34664-7.15328-6.22553l-8.789-1.66014a15.93168,15.93168,0,0,1-8.20306-3.88181,10.05727,10.05727,0,0,1-3.05174-7.64153,11.01265,11.01265,0,0,1,4.17477-8.76458c2.78319-2.34372,6.5185-3.54,11.206-3.54,9.05755,0,14.62393,3.54,16.74792,10.59561L436.393,274.371q-2.56346-6.48188-10.498-6.49408a11.70217,11.70217,0,0,0-6.49409,1.63573,5.10633,5.10633,0,0,0-2.53905,4.541c0,3.05173,2.14843,4.98043,6.46968,5.78608l8.12984,1.48924q12.74407,2.3071,12.744,12.3534a11.03866,11.03866,0,0,1-4.7363,9.27726q-4.76071,3.55222-12.622,3.54c-9.93641,0-16.03988-3.97944-18.38364-11.96277Z"/><path d="M478.72669,292.90111l6.03022,1.2451a17.10286,17.10286,0,0,1-6.42087,8.86222,18.44059,18.44059,0,0,1-11.2548,3.5156,17.51955,17.51955,0,0,1-13.81826-6.0058q-5.27341-6.00581-5.27339-15.77134,0-9.96085,5.49313-16.08873a17.66383,17.66383,0,0,1,13.76944-6.12787,16.6622,16.6622,0,0,1,13.13469,5.63959q4.98047,5.63958,5.0781,16.91879H455.19173q0,9.44815,3.955,12.76844a12.8649,12.8649,0,0,0,8.34954,3.29587Q475.47967,301.11637,478.72669,292.90111Zm-.36621-12.67078a18.01421,18.01421,0,0,0-1.14744-6.22553,10.67331,10.67331,0,0,0-3.61327-4.63863,10.02106,10.02106,0,0,0-6.12788-1.9287,10.924,10.924,0,0,0-8.17865,3.46677,14.30094,14.30094,0,0,0-3.75975,9.32609Z"/><path class="cls-3" d="M478.72669,292.90111l6.03022,1.2451a17.10286,17.10286,0,0,1-6.42087,8.86222,18.44059,18.44059,0,0,1-11.2548,3.5156,17.51955,17.51955,0,0,1-13.81826-6.0058q-5.27341-6.00581-5.27339-15.77134,0-9.96085,5.49313-16.08873a17.66383,17.66383,0,0,1,13.76944-6.12787,16.6622,16.6622,0,0,1,13.13469,5.63959q4.98047,5.63958,5.0781,16.91879H455.19173q0,9.44815,3.955,12.76844a12.8649,12.8649,0,0,0,8.34954,3.29587Q475.47967,301.11637,478.72669,292.90111Zm-.36621-12.67078a18.01421,18.01421,0,0,0-1.14744-6.22553,10.67331,10.67331,0,0,0-3.61327-4.63863,10.02106,10.02106,0,0,0-6.12788-1.9287,10.924,10.924,0,0,0-8.17865,3.46677,14.30094,14.30094,0,0,0-3.75975,9.32609Z"/><path d="M498.94141,305.35217h-6.49409V263.65333h5.68845V273.37c2.00193-4.56539,4.02829-7.49505,6.03022-8.83781a11.08765,11.08765,0,0,1,6.20113-2.02635q.98874,0,2.56346.14648v6.20112h-1.31836a11.34371,11.34371,0,0,0-8.88666,3.97945c-2.36814,2.66111-3.61327,6.12787-3.78415,10.44912v22.07012Z"/><path class="cls-3" d="M498.94141,305.35217h-6.49409V263.65333h5.68845V273.37c2.00193-4.56539,4.02829-7.49505,6.03022-8.83781a11.08765,11.08765,0,0,1,6.20113-2.02635q.98874,0,2.56346.14648v6.20112h-1.31836a11.34371,11.34371,0,0,0-8.88666,3.97945c-2.36814,2.66111-3.61327,6.12787-3.78415,10.44912v22.07012Z"/><path d="M553.28672,263.65333l-14.4042,41.69884H532.1443l-14.86807-41.69884h7.17769l11.57219,33.88641,11.47453-33.88641Z"/><path class="cls-3" d="M553.28672,263.65333l-14.4042,41.69884H532.1443l-14.86807-41.69884h7.17769l11.57219,33.88641,11.47453-33.88641Z"/><path d="M558.48686,249.05386h6.958v7.20208h-6.958Zm.293,14.59947h6.49409v41.69884h-6.49409Z"/><path class="cls-3" d="M558.48686,249.05386h6.958v7.20208h-6.958Zm.293,14.59947h6.49409v41.69884h-6.49409Z"/><path d="M599.20925,290.7527l5.8349,1.02538a18.60243,18.60243,0,0,1-5.49313,10.81533,15.03656,15.03656,0,0,1-10.5956,3.90621c-5.73726,0-10.13176-2.124-13.13469-6.372a26.21537,26.21537,0,0,1-4.51657-15.5272c0-6.3476,1.5869-11.59657,4.76071-15.79576a15.38109,15.38109,0,0,1,12.9638-6.29877q6.81151,0,10.913,4.07711a18.27026,18.27026,0,0,1,5.10248,10.52236l-5.8349,1.123q-1.64794-10.32706-9.96088-10.32705a9.14637,9.14637,0,0,0-8.22747,4.56539q-2.89305,4.5776-2.88085,11.81631c0,5.34664.95215,9.47257,2.85641,12.42665A9.07127,9.07127,0,0,0,589.053,301.153q8.02-.03666,10.1562-10.40032Z"/><path class="cls-3" d="M599.20925,290.7527l5.8349,1.02538a18.60243,18.60243,0,0,1-5.49313,10.81533,15.03656,15.03656,0,0,1-10.5956,3.90621c-5.73726,0-10.13176-2.124-13.13469-6.372a26.21537,26.21537,0,0,1-4.51657-15.5272c0-6.3476,1.5869-11.59657,4.76071-15.79576a15.38109,15.38109,0,0,1,12.9638-6.29877q6.81151,0,10.913,4.07711a18.27026,18.27026,0,0,1,5.10248,10.52236l-5.8349,1.123q-1.64794-10.32706-9.96088-10.32705a9.14637,9.14637,0,0,0-8.22747,4.56539q-2.89305,4.5776-2.88085,11.81631c0,5.34664.95215,9.47257,2.85641,12.42665A9.07127,9.07127,0,0,0,589.053,301.153q8.02-.03666,10.1562-10.40032Z"/><path d="M641.68942,292.90111l6.03022,1.2451a17.10286,17.10286,0,0,1-6.42087,8.86222,18.44056,18.44056,0,0,1-11.25483,3.5156,17.55424,17.55424,0,0,1-13.81829-6.0058q-5.27336-6.00581-5.27342-15.77134,0-9.96085,5.49313-16.08873a17.66381,17.66381,0,0,1,13.76941-6.12787,16.6622,16.6622,0,0,1,13.13469,5.63959q4.98047,5.63961,5.0781,16.91879H618.15433q0,9.44815,3.955,12.76844a12.87716,12.87716,0,0,0,8.374,3.29587Q638.43023,301.11637,641.68942,292.90111Zm-.34177-12.67078a18.01421,18.01421,0,0,0-1.14744-6.22553,10.67287,10.67287,0,0,0-3.61327-4.63863,10.021,10.021,0,0,0-6.12791-1.9287,10.924,10.924,0,0,0-8.17865,3.46677,14.30076,14.30076,0,0,0-3.75972,9.32609Z"/><path class="cls-3" d="M641.68942,292.90111l6.03022,1.2451a17.10286,17.10286,0,0,1-6.42087,8.86222,18.44056,18.44056,0,0,1-11.25483,3.5156,17.55424,17.55424,0,0,1-13.81829-6.0058q-5.27336-6.00581-5.27342-15.77134,0-9.96085,5.49313-16.08873a17.66381,17.66381,0,0,1,13.76941-6.12787,16.6622,16.6622,0,0,1,13.13469,5.63959q4.98047,5.63961,5.0781,16.91879H618.15433q0,9.44815,3.955,12.76844a12.87716,12.87716,0,0,0,8.374,3.29587Q638.43023,301.11637,641.68942,292.90111Zm-.34177-12.67078a18.01421,18.01421,0,0,0-1.14744-6.22553,10.67287,10.67287,0,0,0-3.61327-4.63863,10.021,10.021,0,0,0-6.12791-1.9287,10.924,10.924,0,0,0-8.17865,3.46677,14.30076,14.30076,0,0,0-3.75972,9.32609Z"/><path d="M652.11414,294.53684l6.2011-1.26952q2.0508,7.87346,13.037,7.86126a12.48509,12.48509,0,0,0,6.86033-1.80663,5.70837,5.70837,0,0,0,2.8076-5.1025c0-3.27146-2.39257-5.34664-7.15328-6.22553l-8.789-1.66014a15.93178,15.93178,0,0,1-8.20309-3.88181,10.05727,10.05727,0,0,1-3.05174-7.64153,11.01259,11.01259,0,0,1,4.1748-8.76458c2.78316-2.34372,6.5185-3.54,11.206-3.54,9.05758,0,14.6239,3.54,16.748,10.59561l-5.93259,1.26952q-2.56346-6.48188-10.498-6.49408a11.70234,11.70234,0,0,0-6.49412,1.63573,5.10637,5.10637,0,0,0-2.539,4.541c0,3.05173,2.14843,4.98043,6.46968,5.78608l8.1054,1.48924q12.74407,2.3071,12.744,12.3534a11.03871,11.03871,0,0,1-4.73627,9.27726q-4.76071,3.55222-12.622,3.54-14.83135,0-18.3348-11.96277Z"/><path class="cls-3" d="M652.11414,294.53684l6.2011-1.26952q2.0508,7.87346,13.037,7.86126a12.48509,12.48509,0,0,0,6.86033-1.80663,5.70837,5.70837,0,0,0,2.8076-5.1025c0-3.27146-2.39257-5.34664-7.15328-6.22553l-8.789-1.66014a15.93178,15.93178,0,0,1-8.20309-3.88181,10.05727,10.05727,0,0,1-3.05174-7.64153,11.01259,11.01259,0,0,1,4.1748-8.76458c2.78316-2.34372,6.5185-3.54,11.206-3.54,9.05758,0,14.6239,3.54,16.748,10.59561l-5.93259,1.26952q-2.56346-6.48188-10.498-6.49408a11.70234,11.70234,0,0,0-6.49412,1.63573,5.10637,5.10637,0,0,0-2.539,4.541c0,3.05173,2.14843,4.98043,6.46968,5.78608l8.1054,1.48924q12.74407,2.3071,12.744,12.3534a11.03871,11.03871,0,0,1-4.73627,9.27726q-4.76071,3.55222-12.622,3.54-14.83135,0-18.3348-11.96277Z"/><path d="M554.6783,218.09711c-7.83685-4.4189-16.96765-5.68842-25.61018-5.49311l23.242-33.20283c2.14843-2.97849,3.36913-4.85835,3.39354-6.29877v-8.59368a2.50314,2.50314,0,0,0-2.58787-2.539H508.09659a2.49629,2.49629,0,0,0-2.417,2.539V174.5184h0a2.4974,2.4974,0,0,0,2.58787,2.51462h23.46174l-26.92853,38.64711a12.09938,12.09938,0,0,0-1.66016,6.88471V232.721c0,1.46483,1.63572,3.14939,3.19821,2.31931a51.7816,51.7816,0,0,1,47.4362-.09766c1.68456.87889,3.29588-.80565,3.29588-2.29491V221.95448A4.62733,4.62733,0,0,0,554.6783,218.09711ZM417.399,168.36611a19.32829,19.32829,0,0,0-15.79578-7.66595c-8.03218,0-15.55164,4.12594-18.87195,12.98817-3.833-8.83781-9.17962-12.98817-17.72448-12.98817-8.39838,0-14.64833,4.12594-17.96862,12.98817h-.26855v-9.15519a2.54529,2.54529,0,0,0-2.4902-2.34373H331.55981a2.57057,2.57057,0,0,0-2.6367,2.51462v70.09215a2.55,2.55,0,0,0,2.44137,2.29491h13.64737a2.57058,2.57058,0,0,0,2.63671-2.51462V197.4186c0-8.1054-.39062-19.31135,9.42376-19.31135,9.6923,0,8.42279,11.49892,8.42279,19.31135l.02441,37.15787a2.56168,2.56168,0,0,0,2.44139,2.51462h13.64737a2.58609,2.58609,0,0,0,2.63671-2.51462V197.41858c0-3.97945-.12207-9.88761,1.26951-13.42761a9.04109,9.04109,0,0,1,8.15425-5.76167c3.955,0,7.00677,1.31835,8.03218,6.05463.63476,2.80759.39062,10.18058.39062,13.13465v37.15787a2.56168,2.56168,0,0,0,2.44139,2.51462h13.64737a2.57058,2.57058,0,0,0,2.63671-2.51462V190.33857C420.84137,182.8191,421.74467,174.24984,417.399,168.36611Zm171.28782-7.666h0c-19.60437,0-30.46855,16.96762-30.46855,38.79359,0,21.67949,10.74211,39.08656,30.46855,39.08656,18.96958,0,30.9812-16.96762,30.9812-38.35414C619.6681,178.08281,608.80392,160.70016,588.68683,160.70016Zm0,63.40275c-10.62,0-10.498-16.47934-10.498-25.0486,0-8.54484.63476-22.26543,10.62-22.26543,4.29687,0,7.32417,1.90428,8.86225,6.787,1.78223,5.61518,2.02636,12.6952,2.02636,18.57893C599.67309,211.16357,599.18481,224.10291,588.68683,224.10291ZM685.21939,168.952c-3.833-6.05463-9.81437-8.25188-15.94228-8.25188-9.42379,0-14.79484,4.56539-18.60337,14.16h-.26858V164.14252a2.56181,2.56181,0,0,0-2.417-1.95311H635.31743a2.60663,2.60663,0,0,0-2.63671,2.2949l.02444,70.11655a2.56165,2.56165,0,0,0,2.44139,2.51462h13.59853a2.60784,2.60784,0,0,0,2.66109-2.51462V196.83264c0-4.71187.26858-9.00871,2.17281-13.28113a8.95839,8.95839,0,0,1,7.91008-5.61518c9.42379,0,8.54486,11.206,8.54486,18.8719v38.06117a2.60909,2.60909,0,0,0,2.44139,2.22165h13.69622a2.59664,2.59664,0,0,0,2.61227-2.22165V190.778C688.78379,183.991,688.78379,174.54281,685.21939,168.952ZM495.7676,224.24938c-2.4902-3.44235-5.15132-6.24994-5.15132-12.64637V190.31414c0-9.00871.63476-17.285-6.00581-23.51053-5.249-5.02925-13.91592-6.81146-20.55648-6.81146-12.98818,0-27.49,4.85835-30.54177,20.92266a2.40808,2.40808,0,0,0,2.02636,2.85642l13.23232,1.44042A2.82973,2.82973,0,0,0,451.139,182.697c1.14744-5.54195,5.76167-8.20305,10.98625-8.20305,2.8076,0,6.00581,1.02538,7.666,3.54,1.9043,2.80759,1.66016,6.64057,1.66016,9.912v1.78221c-7.91011.8789-18.2616,1.46483-25.6834,4.73628-8.56927,3.68648-14.57508,11.23037-14.57508,22.31426,0,14.18444,8.93548,21.28887,20.43441,21.28887,9.71674,0,15.01454-2.29491,22.5096-9.93644,2.4902,3.58884,3.29588,5.32221,7.83685,9.10636a2.84527,2.84527,0,0,0,3.22262-.31738l.02441.02441c2.73434-2.417,7.69038-6.73821,10.47357-9.05753C496.84179,226.95933,496.6465,225.4945,495.7676,224.24938Zm-24.31626-20.6297h0c0,5.32221.12207,9.76554-2.56346,14.47741-2.17284,3.85738-5.61519,6.20112-9.44816,6.20112-5.22458,0-8.30072-3.97945-8.30072-9.912,0-11.621,10.42472-13.745,20.31235-13.745ZM318.303,224.24938c-2.49022-3.44235-5.15132-6.24994-5.15132-12.64637V190.31414c0-9.00871.63476-17.285-6.00581-23.51053-5.249-5.02925-13.91592-6.81146-20.5565-6.81146-12.98819,0-27.49,4.85835-30.54177,20.92266a2.40808,2.40808,0,0,0,2.02635,2.85642l13.23233,1.44042a2.82977,2.82977,0,0,0,2.36815-2.51462c1.14746-5.54195,5.76167-8.20305,10.98625-8.20305,2.8076,0,6.00581,1.02538,7.666,3.54,1.90428,2.80759,1.66014,6.64057,1.66014,9.912v1.78221c-7.91011.8789-18.26159,1.46483-25.68342,4.73628-8.56927,3.68648-14.5751,11.23037-14.5751,22.31426,0,14.18444,8.93548,21.28887,20.43443,21.28887,9.71673,0,15.01454-2.29491,22.50961-9.93644,2.49022,3.58884,3.29588,5.32221,7.83685,9.10636a2.84529,2.84529,0,0,0,3.22264-.31738l.02441.02441c2.73436-2.417,7.69038-6.73821,10.47357-9.05753C319.35282,226.95933,319.15751,225.4945,318.303,224.24938Zm-26.8797-6.15228c-2.17284,3.85738-5.61519,6.20112-9.44818,6.20112-5.249,0-8.30072-3.97945-8.30072-9.912,0-11.621,10.42473-13.745,20.31236-13.745v2.95407C293.96237,208.94192,294.10885,213.38522,291.42332,218.09711Z"/></svg>