<svg id="Layer_1" data-name="Layer 1" xmlns="http://www.w3.org/2000/svg" viewBox="0 0 144 144"><defs><style>.cls-1{fill:#7ed257;}.cls-2{fill:#242424;}.cls-3{fill:#fff;}.cls-4{fill:none;stroke:#242424;stroke-miterlimit:10;stroke-width:3px;}</style></defs><title>cc</title><path class="cls-1" d="M94.50338,134.22235c-12.49678,12.49678-33.77134,11.4835-44.90128.35355-6.71752-6.71751-7.60769-27.869,4.88908-40.36575s34.23373-10.90431,40.24414-4.8939C105.86526,100.44619,107.00015,121.72557,94.50338,134.22235Z"/><path class="cls-2" d="M97.01,91.74628a32.00981,32.00981,0,0,0-56.92,17.47c-.06.82-.09,1.66-.09,2.5a32,32,0,1,0,57.01-19.97ZM72,140.71625a28.99522,28.99522,0,0,1-29-29c0-.84.04-1.68.12-2.5a28.99424,28.99424,0,1,1,28.88,31.5Z"/><path class="cls-2" d="M64.00705,103.20307a3.36729,3.36729,0,0,0-1.39453.53125q-5.72754,3.22119-10.376,6.4746a2.08066,2.08066,0,0,0-1.0791,1.67676v.29883a1.841,1.841,0,0,0,.332,1.24512,12.00131,12.00131,0,0,0,1.84286,1.34472q9.3794,6.15967,10.85742,6.15918.76319,0,.76367-1.57714a3.37808,3.37808,0,0,0-1.66016-2.47364,18.84225,18.84225,0,0,0-1.91748-1.22021q-1.28687-.73828-3.57763-2.17481-2.291-1.43555-2.291-1.46923a14.71823,14.71823,0,0,1,1.25342-.78028q1.25317-.74708,3.88476-2.42383,2.63087-1.67651,2.68116-1.71A3.23142,3.23142,0,0,0,64.82058,104.83q0-1.62671-.81348-1.627Z"/><path class="cls-3" d="M68.00119,122.98383c.61084-1.84668,2.77344-7.44434,9.56348-23.29053a1.95064,1.95064,0,0,1,.27637-.48047l-.00977.02295c-.3125.72021-.5083,1.20459-.5918,1.4502-.05811.17041-.10205.29346-.13525.36768l-.61768,1.54248q-.62915,1.45386-.856,2.07861c-.10352.28662-.168.46387-.19678.53418l.03564-.07471c-.061.13281-.31152.74121-3.22168,7.91406-2.58594,6.37256-3.33008,8.17773-3.499,8.57031A6.61976,6.61976,0,0,1,68.00119,122.98383Z"/><path class="cls-2" d="M77.97872,97.60834q-1.1455,0-1.793,1.49414-9.895,23.09325-9.89453,24.62011v.249q0,.58082,1.36133.58106H68.217q.88037,0,1.90918-2.34082.36475-.84667,3.51172-8.59961,3.145-7.75269,3.16992-7.80273.02637-.0498.23242-.62255.208-.57275.83887-2.03369l.59766-1.49414c.04395-.09961.10546-.26269.18261-.48974q.11573-.33985.54786-1.33642a4.33673,4.33673,0,0,0,.43164-1.36133V98.206q0-.59765-1.66016-.59765Z"/><path class="cls-2" d="M81.79028,103.13666q-.93018,0-.92969,1.36133a3.20825,3.20825,0,0,0,1.3945,2.49026q.33252.26586,4.167,2.65625,3.835,2.39063,3.835,2.457,0,.06664-3.78516,2.35742-3.78516,2.291-4.10058,2.54-1.56006,1.229-1.56055,2.25781v.28223q0,1.37841.81348,1.37793a2.78369,2.78369,0,0,0,1.0957-.415q5.146-2.80518,10.6582-6.541a2.13176,2.13176,0,0,0,1.0625-1.85937,2.16552,2.16552,0,0,0-.92969-1.84278,100.334,100.334,0,0,0-10.09375-6.34179A6.94044,6.94044,0,0,0,81.79028,103.13666Z"/><path class="cls-4" d="M36.95484,115.85663C17.5,115.04167,1.5,98.6472,1.5,78.41742A37.504,37.504,0,0,1,36.329,41.01135,44.79944,44.79944,0,1,1,122.09414,63.739a26.43466,26.43466,0,0,1-6.03164,52.17267h-9.38332"/><path class="cls-4" d="M37.72922,58.70669a44.81389,44.81389,0,1,1,87.88016-12.40755"/><path class="cls-4" d="M99.797,67.91592a27.32746,27.32746,0,0,1,15.828-4.97842,26.58171,26.58171,0,0,1,26.87435,26.36725"/></svg>