<svg xmlns="http://www.w3.org/2000/svg" viewBox="0 0 600.86816 212.72222"><defs><style>.cls-1{fill:#7ed257;}.cls-2{fill:#fff;}.cls-3{fill:none;}</style></defs><title>clouds_2</title><g id="Layer_2" data-name="Layer 2"><g id="Layer_1-2" data-name="Layer 1"><path class="cls-1" d="M303.86942,86.11773H228.98826c-12.52791,0-21.40979-9.27557-22.69092-21.73781-.6325-11.88719,6.47955-19.063,18.44307-21.42776.22535-10.12295,7.68778-19.14693,17.86408-19.14693a17.09973,17.09973,0,0,1,6.38892,1c5.056-11.10627,16.78556-20.03378,29.86108-19.6875,16.63868.44065,29.965,11.56847,30.27014,28.21019a31.56533,31.56533,0,0,1-.24348,4.57683,24.32953,24.32953,0,0,1,19.69434,26.39337C327.37654,76.33205,315.96293,86.11773,303.86942,86.11773Z"/><path class="cls-2" d="M303.86914,87.61773H228.98828a25.81936,25.81936,0,0,1-6.68652-50.88379,20.20189,20.20189,0,0,1,26.00293-17.66357A32.85078,32.85078,0,0,1,278.5918,1.01275a33.25234,33.25234,0,0,1,32.0332,32.2876,33.94292,33.94292,0,0,1-.11035,3.4209,25.69777,25.69777,0,0,1,19.55273,27.72558C328.81738,77.0064,316.81934,87.61773,303.86914,87.61773ZM242.415,21.19879a17.27374,17.27374,0,0,0-17.17481,16.78662L225.21289,39.19l-1.18164.23388a22.75421,22.75421,0,0,0-18.24219,24.80274,22.99585,22.99585,0,0,0,23.19922,20.39111h74.88086c11.47852,0,22.1084-9.37353,23.21387-20.46826a22.72073,22.72073,0,0,0-18.47852-24.77l-1.3916-.26074.17969-1.40479a29.93655,29.93655,0,0,0-56.94727-16.17187l-.584,1.28174-1.31543-.50147A17.14717,17.14717,0,0,0,242.415,21.19879Z"/><path class="cls-1" d="M214.181,45.36944a23.32453,23.32453,0,0,1,14.05975-4.47495c10.92511.3674,24.31405,9.58264,24.31405,24.31405"/><path class="cls-2" d="M254.05506,65.20855h-3c0-14.38476-13.27929-22.49267-22.86523-22.81494a21.61828,21.61828,0,0,0-13.13672,4.19629L213.309,44.14849a24.54512,24.54512,0,0,1,14.98242-4.75293C240.73378,39.81353,254.05506,50.2857,254.05506,65.20855Z"/><path class="cls-1" d="M248.99341,20.96313a19.57985,19.57985,0,0,1,8.75563,7.076"/><path class="cls-2" d="M256.50781,28.88091a18.13372,18.13372,0,0,0-8.06933-6.52441l1.10937-2.78711a21.21059,21.21059,0,0,1,9.44238,7.62793Z"/><path class="cls-1" d="M309.13017,33.41142a32.288,32.288,0,0,1-16.26046,27.53373"/><path class="cls-2" d="M293.60742,62.252l-1.47461-2.61328a30.648,30.648,0,0,0,15.49707-26.22754h3A33.69371,33.69371,0,0,1,293.60742,62.252Z"/><path d="M152.77246,212.72222H38.19922a38.2028,38.2028,0,0,1-8.60156-75.42383A29.72537,29.72537,0,0,1,68.51758,110.9483a48.94845,48.94845,0,0,1,92.916,21.50488c0,1.61328-.07812,3.22412-.23242,4.80469a38.20334,38.20334,0,0,1-8.42871,75.46435ZM59.2334,112.47076a26.83906,26.83906,0,0,0-26.68652,26.08447l-.02735,1.20459-1.18164.23389a35.20212,35.20212,0,0,0,6.86133,69.72851H152.77246a35.2022,35.2022,0,0,0,6.50879-69.79687l-1.39063-.26074.17872-1.40381a45.9503,45.9503,0,0,0-87.40918-24.82422l-.584,1.28174-1.31543-.502A26.65132,26.65132,0,0,0,59.2334,112.47076Z"/><path d="M68.02344,157.16363c-6.3711-10.15625-18.5166-17.24414-30.22266-17.6377A33.39723,33.39723,0,0,0,17.502,146.00152l-1.74414-2.44043a36.34529,36.34529,0,0,1,22.14453-7.0332c12.65821.42529,25.78516,8.07763,32.66211,19.042Z"/><path d="M81.1377,124.29107a28.14984,28.14984,0,0,0-12.5293-10.12842l1.10937-2.78711a31.2302,31.2302,0,0,1,13.90235,11.23194Z"/><path d="M136.127,174.42388l-1.47461-2.61328a47.03441,47.03441,0,0,0,23.78125-40.25244h3C161.43359,148.92779,151.5,165.75347,136.127,174.42388Z"/><rect class="cls-3" x="0.60449" y="1.11773" width="600" height="210"/><path d="M301.86914,86.61773H226.98828a25.81936,25.81936,0,0,1-6.68652-50.88379,20.20189,20.20189,0,0,1,26.00293-17.66357A32.83108,32.83108,0,0,1,276.5918.01275a33.25234,33.25234,0,0,1,32.0332,32.2876,33.94292,33.94292,0,0,1-.11035,3.4209,25.69777,25.69777,0,0,1,19.55273,27.72558C326.81738,76.0064,314.81934,86.61773,301.86914,86.61773ZM240.415,20.19879a17.27374,17.27374,0,0,0-17.17481,16.78662L223.21289,38.19l-1.18164.23388a22.75421,22.75421,0,0,0-18.24219,24.80274,22.99585,22.99585,0,0,0,23.19922,20.39111h74.88086c11.47852,0,22.1084-9.37353,23.21387-20.46826a22.72073,22.72073,0,0,0-18.47852-24.77l-1.3916-.26074.17969-1.40479a29.93655,29.93655,0,0,0-56.94727-16.17187l-.584,1.28174-1.31543-.50147A17.14717,17.14717,0,0,0,240.415,20.19879Z"/><path d="M252.10645,60.93072h-3c0-14.38477-13.27833-22.49268-22.86426-22.81543a21.6934,21.6934,0,0,0-13.1377,4.19678l-1.74414-2.44141a24.60644,24.60644,0,0,1,14.9834-4.75342C238.78516,35.5357,252.10645,46.00836,252.10645,60.93072Z"/><path d="M254.50781,27.88091a18.13372,18.13372,0,0,0-8.06933-6.52441l1.10937-2.78711a21.21059,21.21059,0,0,1,9.44238,7.62793Z"/><path d="M291.60742,61.252l-1.47461-2.61328a30.648,30.648,0,0,0,15.49707-26.22754h3A33.69371,33.69371,0,0,1,291.60742,61.252Z"/><path d="M548.69922,197.38043H390.50977A52.26107,52.26107,0,0,1,379.18066,94.12164,40.45782,40.45782,0,0,1,432.665,57.92339,67.032,67.032,0,0,1,559.71582,94.0523a52.26127,52.26127,0,0,1-11.0166,103.32813ZM419.55273,58.75054a37.66019,37.66019,0,0,0-37.417,36.63135l-.02734,1.2041-1.18164.23438a49.25968,49.25968,0,0,0,9.583,97.56006H548.69922A49.2598,49.2598,0,0,0,557.79,96.72418l-1.39063-.26026.17871-1.40381A64.00673,64.00673,0,0,0,434.80859,60.421l-.583,1.28369-1.31739-.50293A37.31045,37.31045,0,0,0,419.55273,58.75054Z"/><path d="M442.27637,145.45416h-3c0-31.05225-28.585-48.5542-49.22071-49.24952a46.61283,46.61283,0,0,0-28.37695,9.061l-1.74609-2.43945a49.69472,49.69472,0,0,1,30.22461-9.61963C415.32715,94.05474,442.27637,115.25152,442.27637,145.45416Z"/><path d="M450.2666,75.34722A39.46911,39.46911,0,0,0,432.707,61.12994l1.11133-2.78614A42.55471,42.55471,0,0,1,452.751,73.66461Z"/><path d="M547.55078,124.31793l-2.45117-1.7295a63.81441,63.81441,0,0,0,11.98633-36.86914h3A66.80346,66.80346,0,0,1,547.55078,124.31793Z"/></g></g></svg>