<svg xmlns="http://www.w3.org/2000/svg" viewBox="0 0 176.95057 176.95057"><defs><style>.cls-1{fill:#7ed257;}.cls-2{fill:#242424;}</style></defs><title>confirm</title><g id="Layer_2" data-name="Layer 2"><g id="Layer_1-2" data-name="Layer 1"><g id="Layer_2-2" data-name="Layer 2"><g id="Layer_1-2-2" data-name="Layer 1-2"><path class="cls-1" d="M150.68443,150.68448c-34.56065,34.56065-93.452,31.79579-124.14185,1.10593C8.01807,133.2659,5.5297,74.65105,40.09035,40.09038s95.1109-29.13689,111.7-12.54778C182.48022,58.23248,185.24509,116.12383,150.68443,150.68448Z"/><path class="cls-2" d="M88.47526,8.29461A80.1807,80.1807,0,1,1,8.29455,88.47532h0a80.23832,80.23832,0,0,1,80.1807-80.1807m0-8.29456a88.47526,88.47526,0,1,0,88.47526,88.47526h0A88.38027,88.38027,0,0,0,88.66536.00005Q88.57032-.00005,88.47526.00005Z"/><path class="cls-2" d="M46.75,87.12768a13.97121,13.97121,0,0,0,1.74818,3.8708A303.62973,303.62973,0,0,0,71.22452,119.753a8.28706,8.28706,0,0,0,5.94379,3.04133h1.04891a10.09494,10.09494,0,0,0,4.19561-.82946,29.37288,29.37288,0,0,0,4.54527-4.97674c14.335-17.41858,43.38606-56.6119,43.38606-59.37679,0-1.38243-1.74818-2.21189-5.59416-2.21189a12.32342,12.32342,0,0,0-8.74091,4.70023c-1.52244,1.68724-24.6319,32.681-25.9043,34.49312-1.74818,2.48837-4.19561,5.80618-7.692,9.95346s-4.8949,6.35917-5.24453,6.35917a40.67876,40.67876,0,0,1-2.79709-3.59432Q71.74895,103.99324,65.98,96.52813c-3.846-4.97674-5.94379-7.18861-5.94379-7.46509a11.27437,11.27437,0,0,0-8.04162-4.14728c-3.49634,0-5.24453.553-5.24453,2.21191Z"/></g></g></g></g></svg>