<svg xmlns="http://www.w3.org/2000/svg" viewBox="0 0 600 290"><defs><style>.cls-1{fill:none;}.cls-2{fill:#242424;}.cls-3{fill:#7ed257;}.cls-4{fill:#fff;}</style></defs><title>continous-integration_1</title><g id="Layer_2" data-name="Layer 2"><g id="Layer_1-2" data-name="Layer 1"><rect class="cls-1" width="600" height="290"/><path class="cls-2" d="M292.50047,271.07845a139.837,139.837,0,0,1-89.11621-43.4541,133.14171,133.14171,0,0,1-36.33545-91.29981,131.492,131.492,0,0,1,12.44581-56.10546l2.71777,1.2705a128.5088,128.5088,0,0,0-12.16358,54.835,130.14694,130.14694,0,0,0,35.52393,89.24707,136.83338,136.83338,0,0,0,87.20752,42.52051Z"/><path class="cls-2" d="M192.79051,61.848l-2.416-1.77832C216.44042,24.64632,258.66747,3.49788,303.331,3.49788c44.54785,0,86.70654,21.061,112.7749,56.33789L413.69286,61.619C388.188,27.10384,346.93114,6.49788,303.331,6.49788,259.61717,6.49788,218.29393,27.18929,192.79051,61.848Z"/><path class="cls-2" d="M316.78368,273.63216l-.27979-2.98633a136.84011,136.84011,0,0,0,87.20362-42.51953,130.147,130.147,0,0,0,35.52734-89.24756,128.4497,128.4497,0,0,0-12.29492-55.10058l2.71484-1.27735a131.42525,131.42525,0,0,1,12.58008,56.37793A133.13532,133.13532,0,0,1,405.896,230.17806,139.82946,139.82946,0,0,1,316.78368,273.63216Z"/><rect class="cls-2" x="403.48609" y="48.19306" width="25.28024" height="2.99979" transform="translate(325.89674 458.94722) rotate(-84.37664)"/><rect class="cls-2" x="402.15707" y="46.78875" width="2.9998" height="25.85529" transform="matrix(0.09303, -0.99566, 0.99566, 0.09303, 306.64802, 456.06757)"/><rect class="cls-2" x="157.55819" y="82.61801" width="25.79667" height="2.99999" transform="translate(-18.10239 60.10133) rotate(-19.00706)"/><rect class="cls-2" x="183.54226" y="78.23786" width="2.99993" height="25.34085" transform="translate(-19.90696 68.53033) rotate(-19.93283)"/><rect class="cls-2" x="323.8981" y="265.57874" width="2.99967" height="25.69181" transform="translate(-83.06008 407.13419) rotate(-58.04194)"/><rect class="cls-2" x="309.21187" y="261.54001" width="25.44635" height="2.99973" transform="translate(-74.6923 387.61474) rotate(-56.68759)"/><path class="cls-3" d="M331.38571,165.14719c-14.85768,14.85767-40.17516,13.66906-53.36878.47544-7.96371-8.08257-9.03346-33.16233,5.82421-48.02s40.76947-12.95589,48.02-5.82421C345.05477,124.972,346.24338,150.28951,331.38571,165.14719Z"/><path class="cls-2" d="M304.64189,103.93356a34.46981,34.46981,0,1,1-34.46981,34.46981,34.49458,34.49458,0,0,1,34.46981-34.46981m0-3.56584a38.03565,38.03565,0,1,0,38.03565,38.03565A37.9948,37.9948,0,0,0,304.64189,100.36772Z"/><path class="cls-4" d="M293.873,147.19912a92.462,92.462,0,0,1-10.93525-6.65624c-.5943-.35658-1.18861-.832-1.78292-1.18862v-.71316a1.42348,1.42348,0,0,1,.47545-.47545c3.56584-2.49609,7.60713-4.99218,12.005-7.48827a5.49081,5.49081,0,0,1-.832.832c-.23772.11887-1.30748.832-3.0904,2.02065-2.02064,1.30747-3.56584,2.25836-4.51673,2.85267-1.90178,1.18862-2.37723,1.42634-2.37723,2.49609s0,1.06976,3.56584,3.20926c1.90179,1.18861,3.20926,2.02065,4.279,2.615a20.67593,20.67593,0,0,1,2.1395,1.30748A5.353,5.353,0,0,1,293.873,147.19912Z"/><path class="cls-2" d="M295.30948,128.30015a6.87274,6.87274,0,0,0-1.66405.59431,130.7023,130.7023,0,0,0-12.36159,7.726,2.69047,2.69047,0,0,0-1.30748,2.02064v.35659a2.82335,2.82335,0,0,0,.35659,1.42633,12.06426,12.06426,0,0,0,2.1395,1.5452c7.48827,4.87332,11.76728,7.36941,12.9559,7.36941.5943,0,.95089-.59431.95089-1.90178a4.05126,4.05126,0,0,0-2.02065-2.97154,23.67751,23.67751,0,0,0-2.25836-1.42633c-1.06976-.59431-2.49609-1.42634-4.279-2.615s-2.73381-1.66406-2.73381-1.78292a17.59776,17.59776,0,0,1,1.5452-.95089q1.42633-.89145,4.63559-2.85267c2.13951-1.30748,3.0904-2.02065,3.20926-2.02065a3.66712,3.66712,0,0,0,1.78293-2.73381c0-1.18861-.23773-1.78292-.9509-1.78292Z"/><path class="cls-4" d="M299.345,151.83471c.71316-2.13951,3.32811-8.79575,11.41069-27.69471.11886-.23772.23772-.35658.35658-.59431h0q-.53487,1.248-.71316,1.78292a.89854.89854,0,0,0-.11886.47545l-.71317,1.78292q-.71318,1.78291-1.06975,2.49609a4.99707,4.99707,0,0,1-.23773.59431v-.11886c-.11886.11886-.35658.832-3.80356,9.39005-3.0904,7.60713-3.92243,9.74663-4.16015,10.22208A11.87874,11.87874,0,0,1,299.345,151.83471Z"/><path class="cls-2" d="M311.13045,121.49057q-1.38227,0-2.0734,1.78292-11.40366,27.457-11.40367,29.23991v.23772c0,.47545.57594.71317,1.61264.71317h.69113c.69114,0,1.38227-.95089,2.18859-2.73381.23037-.71317,1.61264-4.04129,4.03159-10.22208s3.686-9.27119,3.686-9.27119a3.914,3.914,0,0,0,.23038-.71317,19.39175,19.39175,0,0,1,.92151-2.37723l.69113-1.78292a2.04664,2.04664,0,0,1,.23037-.5943,14.84875,14.84875,0,0,0,.576-1.5452,3.96208,3.96208,0,0,0,.46075-1.66406v-.35658c0-.47545-.57594-.71318-1.843-.71318Z"/><path class="cls-4" d="M317.12234,146.96139a3.20431,3.20431,0,0,1,.95089-.832c.11886-.11886.832-.59431,4.6356-2.85267,5.34876-3.20926,5.34876-3.20926,5.34876-4.279s0-1.06976-5.34876-4.39788c-3.92243-2.49609-4.6356-2.97153-4.75446-3.09039l-.71317-.71317.11886.11886a130.83478,130.83478,0,0,1,11.76728,7.36941.84717.84717,0,0,1,.35658.71316c0,.23773,0,.47545-.47545.71317C324.96719,142.3258,321.04476,144.82189,317.12234,146.96139Z"/><path class="cls-2" d="M316.519,128.18129c-.71317,0-1.06976.5943-1.06976,1.66406a3.83949,3.83949,0,0,0,1.66407,2.97153q.35658.35659,4.99218,3.20926a35.29543,35.29543,0,0,1,4.51673,2.97154s-1.5452.95089-4.51673,2.85267c-2.97154,1.78292-4.6356,2.85268-4.87332,2.97154-1.18861.95089-1.90178,1.90178-1.90178,2.73381v.35658c0,1.06976.35658,1.66406.95089,1.66406a4.25788,4.25788,0,0,0,1.30747-.47544c4.04129-2.25837,8.3203-4.87332,12.71818-7.726a2.63677,2.63677,0,0,0,.23771-4.39788,112.80942,112.80942,0,0,0-12.005-7.48827A4.88145,4.88145,0,0,0,316.519,128.18129Z"/><path class="cls-2" d="M313.55419,227.54818l-.27832-2.98633A89.88362,89.88362,0,0,0,370.42381,196.87a84.44747,84.44747,0,0,0,23.269-58.09814,83.21946,83.21946,0,0,0-7.96631-35.69336l2.71484-1.27734a86.20529,86.20529,0,0,1,8.25147,36.9707,87.43534,87.43534,0,0,1-24.08692,60.15674A92.87875,92.87875,0,0,1,313.55419,227.54818Z"/><path class="cls-2" d="M377.08055,88.62826C360.36913,66.057,333.289,52.58187,304.64208,52.58187c-28.57276,0-55.60889,13.41943-72.32178,35.897l-2.40723-1.79c17.27588-23.23535,45.21192-37.10693,74.729-37.10693,29.59375,0,57.5747,13.9292,74.84961,37.26123Z"/><path class="cls-2" d="M295.72948,227.54818a92.88208,92.88208,0,0,1-59.04932-28.61963,87.43466,87.43466,0,0,1-24.08935-60.15674,86.15089,86.15089,0,0,1,8.34131-37.15039l2.71142,1.28418a83.176,83.176,0,0,0-8.05273,35.86621A84.445,84.445,0,0,0,238.86229,196.87a89.88455,89.88455,0,0,0,57.14551,27.6919Z"/><rect class="cls-2" x="228.47973" y="72.05711" width="2.99998" height="17.59395" transform="translate(-6.84866 23.05814) rotate(-5.65569)"/><rect class="cls-2" x="229.16638" y="85.9192" width="18.06174" height="3.00015" transform="translate(-7.06135 22.39406) rotate(-5.30418)"/><rect class="cls-2" x="391.78469" y="94.28541" width="2.99993" height="18.01382" transform="translate(168.21864 441.94762) rotate(-71.10831)"/><rect class="cls-2" x="374.85054" y="106.23978" width="17.64362" height="3.0001" transform="matrix(0.34276, -0.93942, 0.93942, 0.34276, 150.9508, 431.24102)"/><rect class="cls-2" x="280.46136" y="228.84007" width="17.92929" height="3.00021" transform="translate(-77.93546 187.10178) rotate(-31.80177)"/><rect class="cls-2" x="290.20802" y="211.39841" width="2.99995" height="17.72947" transform="translate(-73.10434 197.42965) rotate(-33.4743)"/></g></g></svg>