<svg xmlns="http://www.w3.org/2000/svg" viewBox="0 0 600 245.47929"><defs><style>.cls-1,.cls-14,.cls-7{fill:#7ed257;}.cls-10,.cls-2{fill:#242424;}.cls-3,.cls-4{fill:#fff;}.cls-10,.cls-11,.cls-12,.cls-13,.cls-14,.cls-15,.cls-4,.cls-7,.cls-8,.cls-9{stroke:#242424;stroke-miterlimit:10;}.cls-10,.cls-11,.cls-13,.cls-14,.cls-15,.cls-4,.cls-7,.cls-9{stroke-width:3px;}.cls-5{font-size:18.11486px;font-family:MyriadPro-Regular, Myriad Pro;}.cls-6{letter-spacing:-0.03898em;}.cls-13,.cls-15,.cls-16,.cls-8,.cls-9{fill:none;}.cls-8{stroke-width:2.052px;}.cls-11,.cls-12{fill:#28b655;}.cls-13,.cls-14,.cls-15{stroke-linecap:square;}.cls-15{stroke-dasharray:6.99475 5.9955;}</style></defs><title>data-lake</title><g id="Layer_2" data-name="Layer 2"><g id="Layer_1-2" data-name="Layer 1"><path class="cls-1" d="M549.057,149.7231c-14.85768,14.85768-40.17516,13.66907-53.36877.47545-7.96372-8.08258-9.03347-33.16233,5.82421-48.02s40.76946-12.95589,48.02-5.82421C562.72605,109.548,563.91467,134.86543,549.057,149.7231Z"/><path class="cls-2" d="M522.31317,88.50948a34.46981,34.46981,0,1,1-34.46981,34.46981,34.49458,34.49458,0,0,1,34.46981-34.46981m0-3.56585a38.03566,38.03566,0,1,0,38.03565,38.03566A37.99481,37.99481,0,0,0,522.31317,84.94363Z"/><path class="cls-3" d="M511.54428,131.775A92.462,92.462,0,0,1,500.609,125.1188c-.5943-.35659-1.18861-.832-1.78292-1.18862V123.217a1.42364,1.42364,0,0,1,.47545-.47544c3.56584-2.49609,7.60713-4.99218,12.005-7.48827a5.49082,5.49082,0,0,1-.832.832c-.23772.11886-1.30747.832-3.0904,2.02064-2.02064,1.30748-3.56584,2.25837-4.51673,2.85268-1.90178,1.18861-2.37723,1.42634-2.37723,2.49609s0,1.06975,3.56585,3.20926c1.90178,1.18861,3.20926,2.02064,4.279,2.615a20.67368,20.67368,0,0,1,2.1395,1.30747A5.3532,5.3532,0,0,1,511.54428,131.775Z"/><path class="cls-2" d="M512.98077,112.87607a6.87308,6.87308,0,0,0-1.66406.5943,130.70155,130.70155,0,0,0-12.36159,7.726,2.69046,2.69046,0,0,0-1.30747,2.02064v.35658a2.82345,2.82345,0,0,0,.35658,1.42634,12.06431,12.06431,0,0,0,2.13951,1.5452c7.48826,4.87331,11.76728,7.36941,12.95589,7.36941.59431,0,.95089-.59431.95089-1.90178a4.05124,4.05124,0,0,0-2.02065-2.97154,23.67514,23.67514,0,0,0-2.25836-1.42634c-1.06975-.5943-2.49609-1.42633-4.279-2.61495s-2.73382-1.66406-2.73382-1.78292a17.59684,17.59684,0,0,1,1.5452-.95089q1.42634-.89147,4.6356-2.85267c2.1395-1.30748,3.09039-2.02065,3.20926-2.02065a3.66712,3.66712,0,0,0,1.78292-2.73381c0-1.18862-.23772-1.78292-.95089-1.78292Z"/><path class="cls-3" d="M517.01627,136.41063c.71317-2.13951,3.32812-8.79575,11.41069-27.69471.11886-.23773.23773-.35659.35659-.59431h0q-.53488,1.248-.71317,1.78292a.8985.8985,0,0,0-.11886.47545l-.71317,1.78292q-.71316,1.78292-1.06975,2.49609a4.9964,4.9964,0,0,1-.23773.5943v-.11886c-.11886.11886-.35658.832-3.80356,9.39005-3.0904,7.60714-3.92243,9.74664-4.16015,10.22209A11.87774,11.87774,0,0,1,517.01627,136.41063Z"/><path class="cls-2" d="M528.80173,106.06649q-1.38227,0-2.07339,1.78292-11.40367,27.457-11.40368,29.23991v.23772c0,.47545.576.71317,1.61264.71317h.69114c.69113,0,1.38226-.95089,2.18858-2.73381.23038-.71317,1.61264-4.04129,4.0316-10.22208s3.686-9.27119,3.686-9.27119A3.9144,3.9144,0,0,0,527.765,115.1a19.39218,19.39218,0,0,1,.92151-2.37723l.69113-1.78292a2.04687,2.04687,0,0,1,.23038-.59431,14.84993,14.84993,0,0,0,.57594-1.5452,3.962,3.962,0,0,0,.46076-1.66406v-.35658c0-.47545-.576-.71317-1.843-.71317Z"/><path class="cls-3" d="M534.79362,131.53731a3.20417,3.20417,0,0,1,.95089-.832c.11886-.11886.832-.59431,4.6356-2.85268,5.34876-3.20926,5.34876-3.20926,5.34876-4.279s0-1.06975-5.34876-4.39787c-3.92243-2.49609-4.6356-2.97154-4.75446-3.0904l-.71317-.71317.11886.11887a130.83245,130.83245,0,0,1,11.76728,7.3694.84716.84716,0,0,1,.35658.71317c0,.23772,0,.47545-.47544.71317C542.63847,126.90171,538.71605,129.3978,534.79362,131.53731Z"/><path class="cls-2" d="M534.19029,112.7572c-.71317,0-1.06975.59431-1.06975,1.66406a3.83948,3.83948,0,0,0,1.66406,2.97154q.35658.35658,4.99218,3.20926a35.29626,35.29626,0,0,1,4.51673,2.97153s-1.5452.95089-4.51673,2.85268c-2.97154,1.78292-4.6356,2.85267-4.87332,2.97153-1.18861.95089-1.90178,1.90179-1.90178,2.73382v.35658c0,1.06975.35658,1.66406.95089,1.66406a4.25779,4.25779,0,0,0,1.30748-.47545c4.04129-2.25837,8.32029-4.87331,12.71817-7.726a2.63676,2.63676,0,0,0,.23772-4.39787,112.81042,112.81042,0,0,0-12.005-7.48827A4.88167,4.88167,0,0,0,534.19029,112.7572Z"/><path class="cls-2" d="M496.31807,77.53555a102.20079,102.20079,0,0,0-44.09766-57.17219A96.20691,96.20691,0,0,0,382.0098,7.93525,94.79442,94.79442,0,0,0,343.86843,25.269l1.99259,2.632a91.52088,91.52088,0,0,1,36.823-16.73429,92.91732,92.91732,0,0,1,67.80942,12.0098,98.9025,98.9025,0,0,1,42.67051,55.33Z"/><rect class="cls-2" x="488.04475" y="68.4678" width="19.72812" height="3.30121" transform="translate(261.59621 513.94961) rotate(-69.98348)"/><rect class="cls-2" x="485.91687" y="65.08695" width="3.30094" height="19.50826" transform="translate(237.83483 500.23122) rotate(-68.31094)"/><path class="cls-2" d="M341.38884,213.01423a104.30466,104.30466,0,0,0,68.94275,26.44413,98.85915,98.85915,0,0,0,68.0891-26.579,97.51062,97.51062,0,0,0,24.21718-35.48522l-3.141-1.23737a94.14354,94.14354,0,0,1-23.38025,34.25841,95.47888,95.47888,0,0,1-65.764,25.66418,100.93849,100.93849,0,0,1-66.71584-25.59541Z"/><polygon class="cls-2" points="344.228 230.576 347.544 229.91 343.629 210.111 340.313 210.778 344.228 230.576"/><polygon class="cls-2" points="340.911 214.051 360.612 210.685 360.054 207.354 340.353 210.72 340.911 214.051"/><path class="cls-4" d="M145.02747,66.0456V118.145a5.52585,5.52585,0,0,1-5.50965,5.50965H96.56934a5.52585,5.52585,0,0,1-5.50965-5.50965V61.15862A5.52584,5.52584,0,0,1,96.56934,55.649h38.06149Z"/><text class="cls-5" transform="translate(103.24188 94.96808)">CSV</text><path class="cls-4" d="M206.0121,66.0456V118.145a5.52585,5.52585,0,0,1-5.50965,5.50965H157.554a5.52585,5.52585,0,0,1-5.50965-5.50965V61.15862A5.52584,5.52584,0,0,1,157.554,55.649h38.0615Z"/><text class="cls-5" transform="translate(158.54852 94.96808)"><tspan class="cls-6">L</tspan><tspan x="7.84375" y="0">OGS</tspan></text><path class="cls-4" d="M267.00626,66.0456V118.145a5.52586,5.52586,0,0,1-5.50965,5.50965H218.54813a5.52585,5.52585,0,0,1-5.50965-5.50965V61.15862a5.52584,5.52584,0,0,1,5.50965-5.50965h38.06149Z"/><text class="cls-5" transform="translate(223.29266 94.96808)">XML</text><path class="cls-4" d="M327.79,66.0456V118.145a5.52585,5.52585,0,0,1-5.50964,5.50965H279.33186a5.52585,5.52585,0,0,1-5.50965-5.50965V61.15862a5.52584,5.52584,0,0,1,5.50965-5.50965h38.06149Z"/><text class="cls-5" transform="translate(280.78778 94.96808)">JSON</text><path id="Path_6230" data-name="Path 6230" class="cls-7" d="M145.28008,152.99969v35.21262h-54.473V152.99969l27.23678-13.06447Z"/><line id="Line_167" data-name="Line 167" class="cls-8" x1="144.28136" y1="153.41557" x2="91.8058" y2="153.41557"/><path id="Path_6231" data-name="Path 6231" class="cls-4" d="M142.15934,145.61661v9.58688l-23.832,15.40279-24.39949-15.772v-9.21765Z"/><line class="cls-9" x1="93.92782" y1="154.83426" x2="90.80708" y2="152.99969"/><line class="cls-9" x1="142.15934" y1="155.20349" x2="145.28008" y2="152.99969"/><line class="cls-9" x1="90.80708" y1="188.21231" x2="118.32731" y2="170.60628"/><line class="cls-9" x1="118.32731" y1="170.60628" x2="145.28008" y2="188.21231"/><rect class="cls-10" x="152.12231" y="140.61653" width="53.8118" height="48.4839"/><rect class="cls-11" x="152.12231" y="150.73954" width="53.8118" height="27.70508"/><rect class="cls-3" x="153.45429" y="142.48129" width="10.12301" height="6.92627" rx="3" ry="3"/><rect class="cls-3" x="167.30683" y="142.48129" width="10.12301" height="6.92627" rx="3" ry="3"/><rect class="cls-3" x="181.15937" y="142.48129" width="10.12301" height="6.92627" rx="3" ry="3"/><rect class="cls-3" x="195.01191" y="142.48129" width="10.12301" height="6.92627" rx="3" ry="3"/><rect class="cls-3" x="153.45429" y="180.30939" width="10.12301" height="6.92627" rx="3" ry="3"/><rect class="cls-3" x="167.30683" y="180.30939" width="10.12301" height="6.92627" rx="3" ry="3"/><rect class="cls-3" x="181.15937" y="180.30939" width="10.12301" height="6.92627" rx="3" ry="3"/><rect class="cls-3" x="195.01191" y="180.30939" width="10.12301" height="6.92627" rx="3" ry="3"/><polygon class="cls-2" points="185.729 164.834 174.233 156.388 174.233 173.28 185.729 164.834"/><polygon class="cls-12" points="267.006 189.1 213.038 189.1 213.038 188.212 213.271 172.626 232.302 159.797 239.349 170.606 252.66 154.102 267.006 170.719 267.006 189.1"/><line class="cls-13" x1="214.01139" y1="172.58393" x2="232.30213" y2="159.79697"/><polygon class="cls-9" points="267.006 189.1 213.038 189.1 213.038 188.212 213.038 139.935 267.006 139.935 267.006 189.1"/><line class="cls-13" x1="239.34897" y1="170.60628" x2="232.30213" y2="159.79697"/><line class="cls-13" x1="252.65968" y1="154.10159" x2="239.34897" y2="170.60628"/><line class="cls-13" x1="266.58001" y1="170.98556" x2="252.65968" y2="154.10159"/><circle class="cls-13" cx="227.05624" cy="149.51609" r="3.89948"/><rect class="cls-13" x="273.84792" y="139.92134" width="53.96778" height="49.1652" rx="12" ry="12"/><ellipse class="cls-14" cx="297.06323" cy="176.10551" rx="5.87991" ry="4.20779" transform="translate(-41.54272 108.24001) rotate(-19.32697)"/><line class="cls-13" x1="302.61177" y1="174.1595" x2="300.09809" y2="148.68353"/><polygon class="cls-14" points="310.22 157.585 300.783 155.629 300.098 148.684 309.534 150.64 310.22 157.585"/><ellipse class="cls-15" cx="209.31139" cy="122.37469" rx="166.72789" ry="120.87469"/><rect class="cls-16" y="0.47929" width="600" height="245"/></g></g></svg>