<svg xmlns="http://www.w3.org/2000/svg" viewBox="0 0 600 210"><defs><style>.cls-1{fill:none;}.cls-2{fill:#242424;}.cls-3{fill:#7ed257;}.cls-4{fill:#fff;}</style></defs><title>expantion2</title><g id="Layer_2" data-name="Layer 2"><g id="Layer_1-2" data-name="Layer 1"><rect class="cls-1" width="600" height="210"/><path class="cls-2" d="M455.36193,125.42348h-40.6066a14.0014,14.0014,0,0,1-3.626-27.59341,10.95515,10.95515,0,0,1,14.10094-9.57865,17.80371,17.80371,0,0,1,16.42418-9.79233,18.03217,18.03217,0,0,1,17.371,17.509,18.40684,18.40684,0,0,1-.05984,1.85509,13.93546,13.93546,0,0,1,10.60311,15.03511C468.89094,119.66914,462.3846,125.42348,455.36193,125.42348Zm-33.3255-36.01785a9.36724,9.36724,0,0,0-9.3136,9.10309l-.01483.65323-.64078.12683a12.33921,12.33921,0,0,0-9.89242,13.4501,12.47024,12.47024,0,0,0,12.58053,11.05775h40.6066c6.22461,0,11.989-5.08311,12.58849-11.09959a12.32105,12.32105,0,0,0-10.02059-13.43235l-.75464-.1414.09744-.76179a16.23407,16.23407,0,0,0-30.88152-8.76973l-.31668.69507-.71334-.27194A9.29859,9.29859,0,0,0,422.03643,89.40563Z"/><path class="cls-2" d="M428.37648,111.49385h-1.62685c0-7.80061-7.2006-12.19739-12.39889-12.37241a11.764,11.764,0,0,0-7.12435,2.27584l-.94581-1.32393a13.34355,13.34355,0,0,1,8.12524-2.5777C421.15258,97.72257,428.37648,103.40171,428.37648,111.49385Z"/><path class="cls-2" d="M429.6787,93.57151a9.83356,9.83356,0,0,0-4.37586-3.53807l.60159-1.51141a11.50221,11.50221,0,0,1,5.12045,4.1365Z"/><path class="cls-2" d="M449.79718,111.66808l-.79965-1.41713a16.61992,16.61992,0,0,0,8.40379-14.22275h1.62685A18.27151,18.27151,0,0,1,449.79718,111.66808Z"/><path class="cls-3" d="M320.95646,129.93565c-11.2174,11.2174-30.33185,10.32-40.29291.359-6.01252-6.10227-6.82018-25.03725,4.39723-36.25465s30.78054-9.78157,36.25464-4.39722C331.27647,99.6038,332.17386,118.71825,320.95646,129.93565Z"/><path class="cls-2" d="M300.76514,83.72a26.02438,26.02438,0,1,1-26.02437,26.02438A26.04308,26.04308,0,0,1,300.76514,83.72m0-2.69217a28.71655,28.71655,0,1,0,28.71654,28.71655A28.68572,28.68572,0,0,0,300.76514,81.02778Z"/><path class="cls-4" d="M293.04756,116.385a69.80642,69.80642,0,0,1-8.256-5.0254c-.4487-.26921-.89739-.62817-1.34609-.89739v-.53843a1.07478,1.07478,0,0,1,.359-.359c2.69217-1.88452,5.74331-3.769,9.06366-5.65357a4.14584,4.14584,0,0,1-.62818.62818c-.17948.08973-.98713.62817-2.33322,1.52556-1.52557.98713-2.69217,1.70505-3.41009,2.15374-1.43582.8974-1.79478,1.07687-1.79478,1.88453s0,.80765,2.69218,2.423c1.43582.89739,2.423,1.52556,3.23061,1.97426a15.60893,15.60893,0,0,1,1.6153.98713A4.04125,4.04125,0,0,1,293.04756,116.385Z"/><path class="cls-2" d="M293.586,102.11649a5.18913,5.18913,0,0,0-1.25635.4487,98.6781,98.6781,0,0,0-9.33288,5.83305,2.03129,2.03129,0,0,0-.98713,1.52556v.26922a2.13162,2.13162,0,0,0,.26922,1.07687,9.10863,9.10863,0,0,0,1.61531,1.16661c5.65357,3.67931,8.88418,5.56383,9.78157,5.56383.4487,0,.71791-.44869.71791-1.43582a3.05863,3.05863,0,0,0-1.52556-2.24348,17.87317,17.87317,0,0,0-1.705-1.07687c-.80765-.4487-1.88452-1.07688-3.23061-1.97427s-2.064-1.25635-2.064-1.34609a13.285,13.285,0,0,1,1.16661-.71791q1.07686-.673,3.49983-2.15374c1.6153-.98713,2.33322-1.52557,2.423-1.52557a2.76861,2.76861,0,0,0,1.34609-2.064c0-.89739-.17947-1.34609-.71791-1.34609Z"/><path class="cls-4" d="M297.17557,119.88486c.53843-1.61531,2.5127-6.64071,8.615-20.90924.08974-.17948.17948-.26922.26922-.4487h0q-.40383.94227-.53844,1.34609a.67843.67843,0,0,0-.08973.359l-.53844,1.34609q-.53844,1.34609-.80765,1.88452a3.77318,3.77318,0,0,1-.17948.4487v-.08974c-.08974.08974-.26922.62817-2.87166,7.08939-2.33322,5.74331-2.96139,7.35862-3.14087,7.71758A8.968,8.968,0,0,1,297.17557,119.88486Z"/><path class="cls-2" d="M306.14949,97.0911q-1.07686,0-1.61531,1.34608Q295.65,119.16694,295.65,120.513v.17948c0,.359.4487.53843,1.25635.53843h.53844c.53843,0,1.07687-.71791,1.705-2.064.17948-.53843,1.25635-3.05113,3.14087-7.71757s2.87166-6.99966,2.87166-6.99966a2.89378,2.89378,0,0,0,.17947-.53843,14.3654,14.3654,0,0,1,.71792-1.79479l.53843-1.34608a1.51616,1.51616,0,0,1,.17948-.4487,10.99609,10.99609,0,0,0,.4487-1.16661,2.92115,2.92115,0,0,0,.359-1.25635v-.26921c0-.359-.4487-.53844-1.43583-.53844Z"/><path class="cls-4" d="M310.18775,116.20555a2.41911,2.41911,0,0,1,.71792-.62818c.08973-.08973.62817-.44869,3.49983-2.15374,4.03826-2.423,4.03826-2.423,4.03826-3.23061s0-.80765-4.03826-3.32035c-2.9614-1.88452-3.49983-2.24348-3.58957-2.33322l-.53844-.53844.08974.08974a98.7788,98.7788,0,0,1,8.88418,5.56383.63962.63962,0,0,1,.26922.53844c0,.17948,0,.359-.359.53843C316.11054,112.70572,313.14915,114.59024,310.18775,116.20555Z"/><path class="cls-2" d="M309.55958,102.02675c-.53844,0-.80766.4487-.80766,1.25635a2.8988,2.8988,0,0,0,1.25635,2.24348q.26922.26922,3.769,2.423a26.64806,26.64806,0,0,1,3.41009,2.24348s-1.16661.71791-3.41009,2.15374c-2.24348,1.34609-3.49983,2.15375-3.6793,2.24348-.8974.71792-1.43583,1.43583-1.43583,2.064v.26922c0,.80766.26922,1.25635.71791,1.25635a3.2146,3.2146,0,0,0,.98713-.359c3.05114-1.705,6.28175-3.6793,9.6021-5.833a1.99073,1.99073,0,0,0,.17947-3.32036,85.1705,85.1705,0,0,0-9.06365-5.65357A3.68562,3.68562,0,0,0,309.55958,102.02675Z"/><rect class="cls-2" x="140.68164" y="48.85042" width="2" height="2.96099"/><rect class="cls-2" x="140.68164" y="56.01291" width="2" height="4.90208"/><rect class="cls-2" x="140.68164" y="65.11648" width="2" height="2.96099"/><path class="cls-2" d="M231.63477,85.92952h-5.37845v-2h5.37845Zm-9.98855,0h-5.37845v-2h5.37845Zm-9.98855,0h-5.37845v-2h5.37845Zm-9.98855,0h-5.37845v-2h5.37845Zm-9.98855,0h-5.37845v-2h5.37845Zm-9.98855,0h-5.37844v-2H181.692Zm-9.98854,0H166.325v-2h5.37845Zm-9.98855,0h-2.4161v-2h2.4161Z"/><path class="cls-2" d="M159.29883,85.92952h-7v-2h7Zm-13.25391-1.564a11.08641,11.08641,0,0,1-4.75976-5.84961l1.88867-.65625a9.08428,9.08428,0,0,0,3.90039,4.791Zm-3.36328-12.11523h-2v-4.938h2Z"/><path class="cls-2" d="M267.27669,108.93783h-6.69624v-2h6.69624Zm-12.43587,0h-6.69624v-2h6.69624Zm-12.43587,0h-6.69624v-2H242.405Zm-12.43587,0h-6.69624v-2h6.69624Zm-12.43588,0H210.837v-2h6.69623Zm-12.43587,0h-6.69624v-2h6.69624Zm-12.43587,0h-6.69624v-2h6.69624Zm-12.43587,0h-6.69624v-2h6.69624Zm-12.43587,0h-6.69624v-2h6.69624Zm-12.43587,0h-6.69624v-2h6.69624Zm-12.43588,0h-6.69624v-2H142.918Zm-12.43587,0h-6.69624v-2h6.69624Zm-12.43587,0H111.35v-2h6.69624Zm-12.43587,0H98.91412v-2h6.69624Zm-12.43587,0H86.47825v-2h6.69624Z"/><rect class="cls-2" x="89.74609" y="160.3387" width="2" height="3.5"/><rect class="cls-2" x="89.74609" y="150.90951" width="2" height="3.5"/><path class="cls-2" d="M230.98242,134.29232h-7v-2h7Zm-13,0h-7v-2h7Zm-13,0h-7v-2h7Zm-13,0h-7v-2h7Zm-13,0h-7v-2h7Zm-13,0h-7v-2h7Zm-13,0h-7v-2h7Zm-13,0h-7v-2h7Zm-13,0h-7v-2h7Zm-13,0H108.335v-2h5.64746Z"/><path class="cls-2" d="M91.71777,150.90951h-2v-4.938h2ZM92.21,140.36214l-1.88867-.65625a11.08641,11.08641,0,0,1,4.75976-5.84961l1.0293,1.71485A9.08422,9.08422,0,0,0,92.21,140.36214Zm16.125-6.06982h-7v-2h7Z"/><rect class="cls-2" x="299" y="144.3387" width="2" height="4.40792"/><rect class="cls-2" x="299" y="155.00121" width="2" height="7.29754"/><rect class="cls-2" x="299" y="168.55335" width="2" height="4.40792"/><path class="cls-2" d="M511.5648,190.81331h-5.77758v-2h5.77758Zm-10.72979,0h-5.77758v-2H500.835Zm-10.72979,0h-5.77757v-2h5.77757Zm-10.72978,0h-5.77758v-2h5.77758Zm-10.72979,0h-5.77757v-2h5.77757Zm-10.72978,0h-5.77758v-2h5.77758Zm-10.72979,0H441.4085v-2h5.77758Zm-10.72979,0h-5.77757v-2h5.77757Zm-10.72978,0h-5.77758v-2h5.77758Zm-10.72979,0h-5.77757v-2h5.77757Zm-10.72978,0h-5.77758v-2h5.77758Zm-10.72979,0h-5.77758v-2h5.77758Zm-10.72978,0h-5.77758v-2h5.77758Zm-10.72979,0H366.3v-2h5.77758Zm-10.72979,0h-5.77757v-2h5.77757Zm-10.72978,0h-5.77758v-2H350.618Zm-10.72979,0h-5.77757v-2h5.77757Zm-10.72978,0h-5.77758v-2h5.77758Z"/><path class="cls-2" d="M317.61719,190.81331h-7v-2h7Zm-13.25391-1.564a11.08636,11.08636,0,0,1-4.75976-5.84961l1.88867-.65625a9.08428,9.08428,0,0,0,3.90039,4.791ZM301,177.13411h-2v-4.938h2Z"/><path class="cls-2" d="M391.20654,108.016h-7v-2h7Zm-13,0h-7v-2h7Zm-13,0h-7v-2h7Zm-13,0h-7v-2h7Zm-13,0h-4.292v-2h4.292Z"/><rect class="cls-2" x="299.03516" y="72.25667" width="2" height="3.5"/><rect class="cls-2" x="299.03516" y="62.82747" width="2" height="3.5"/><path class="cls-2" d="M505.06055,46.21029h-7v-2h7Zm-13,0h-7v-2h7Zm-13,0h-7v-2h7Zm-13,0h-7v-2h7Zm-13,0h-7v-2h7Zm-13,0h-7v-2h7Zm-13,0h-7v-2h7Zm-13,0h-7v-2h7Zm-13,0h-7v-2h7Zm-13,0h-7v-2h7Zm-13,0h-7v-2h7Zm-13,0h-7v-2h7Zm-13,0h-7v-2h7Zm-13,0h-7v-2h7Zm-13,0h-5.4375v-2h5.4375Z"/><path class="cls-2" d="M301.00586,62.82747h-2v-4.938h2Zm.49219-10.54736-1.88867-.65625a11.08632,11.08632,0,0,1,4.75976-5.84961l1.0293,1.71485A9.08422,9.08422,0,0,0,301.49805,52.28011Zm16.125-6.06982h-7v-2h7Z"/><path class="cls-2" d="M583.38379,209.48207H536.13032a16.29328,16.29328,0,0,1-4.21953-32.11015,12.74838,12.74838,0,0,1,16.40912-11.14658,20.718,20.718,0,0,1,19.11264-11.39523,20.98385,20.98385,0,0,1,20.21452,20.375,21.42076,21.42076,0,0,1-.06964,2.15876,16.21655,16.21655,0,0,1,12.33873,17.49619C599.12735,202.78581,591.556,209.48207,583.38379,209.48207Zm-38.78054-41.91359a10.90058,10.90058,0,0,0-10.83814,10.59317l-.01725.76016-.74567.14759a14.359,14.359,0,0,0-11.51171,15.65174,14.5115,14.5115,0,0,0,14.63984,12.86779h47.25347c7.2435,0,13.95148-5.91516,14.64908-12.91648A14.3379,14.3379,0,0,0,586.372,179.04136l-.87817-.16454.11339-.88649a18.89142,18.89142,0,0,0-35.9365-10.20524l-.36852.80884-.8301-.31645A10.82086,10.82086,0,0,0,544.60325,167.56848Z"/><path class="cls-2" d="M551.9811,193.27231H550.088c0-9.07748-8.37927-14.194-14.42847-14.39764A13.68952,13.68952,0,0,0,527.369,181.523l-1.10064-1.54065a15.52786,15.52786,0,0,1,9.45525-2.99964C543.57472,177.24682,551.9811,183.85558,551.9811,193.27231Z"/><path class="cls-2" d="M553.49648,172.41628a11.44328,11.44328,0,0,0-5.09214-4.11723l.70007-1.7588a13.38493,13.38493,0,0,1,5.9586,4.8136Z"/><path class="cls-2" d="M576.90814,193.47506l-.93055-1.6491A19.34041,19.34041,0,0,0,585.757,175.2751h1.89315A21.26236,21.26236,0,0,1,576.90814,193.47506Z"/><path class="cls-2" d="M557.94448,60.56825H524.76981a11.43882,11.43882,0,0,1-2.96235-22.54318,8.95009,8.95009,0,0,1,11.52015-7.82555,14.54524,14.54524,0,0,1,13.41818-8.00011,14.73186,14.73186,0,0,1,14.19176,14.30446,15.03506,15.03506,0,0,1-.04889,1.51557,11.385,11.385,0,0,1,8.6625,12.28334C568.99737,55.86708,563.68184,60.56825,557.94448,60.56825ZM530.71831,31.14248a7.65284,7.65284,0,0,0-7.609,7.437l-.01211.53367-.5235.10362a10.08085,10.08085,0,0,0-8.08189,10.98842,10.18791,10.18791,0,0,0,10.278,9.03393h33.17467A10.57726,10.57726,0,0,0,568.229,50.171a10.066,10.066,0,0,0-8.18659-10.97393l-.61653-.11552.07961-.62236a13.26287,13.26287,0,0,0-25.2295-7.16467l-.25872.56785-.58278-.22216A7.59675,7.59675,0,0,0,530.71831,31.14248Z"/><path class="cls-2" d="M535.898,49.18806h-1.3291c0-6.37292-5.88273-9.965-10.12961-10.108a9.61085,9.61085,0,0,0-5.82043,1.85931l-.77271-1.08162a10.90133,10.90133,0,0,1,6.63813-2.10592C529.99621,37.93724,535.898,42.577,535.898,49.18806Z"/><path class="cls-2" d="M536.96187,34.54592a8.0339,8.0339,0,0,0-3.575-2.89053l.49148-1.23478A9.397,9.397,0,0,1,538.06166,33.8Z"/><path class="cls-2" d="M553.39821,49.3304l-.6533-1.15777A13.5781,13.5781,0,0,0,559.61062,36.553h1.32909A14.92739,14.92739,0,0,1,553.39821,49.3304Z"/><path class="cls-2" d="M244.752,115.62474h2v4.938h-2Zm-.49218,10.54736,1.88867.65625a11.08638,11.08638,0,0,1-4.75977,5.84961l-1.02929-1.71484A9.08432,9.08432,0,0,0,244.25977,126.1721Zm-16.125,6.06983h7v2h-7Z"/><path class="cls-2" d="M106.30355,209.00056H73.12887a11.43883,11.43883,0,0,1-2.96234-22.54319,8.95009,8.95009,0,0,1,11.52014-7.82554,14.54526,14.54526,0,0,1,13.41819-8.00011,14.73186,14.73186,0,0,1,14.19175,14.30446,15.03506,15.03506,0,0,1-.04889,1.51557,11.385,11.385,0,0,1,8.66251,12.28334C117.35643,204.29939,112.04091,209.00056,106.30355,209.00056ZM79.07737,179.57479a7.65283,7.65283,0,0,0-7.609,7.437l-.01212.53368-.5235.10362a10.08085,10.08085,0,0,0-8.08189,10.98842,10.18791,10.18791,0,0,0,10.278,9.03393h33.17468a10.57726,10.57726,0,0,0,10.2845-9.06811,10.066,10.066,0,0,0-8.18659-10.97393l-.61652-.11552.0796-.62236a13.26287,13.26287,0,0,0-25.2295-7.16467l-.25872.56785-.58278-.22217A7.597,7.597,0,0,0,79.07737,179.57479Z"/><path class="cls-2" d="M84.257,197.62037H82.928c0-6.37292-5.88274-9.965-10.12962-10.108a9.61085,9.61085,0,0,0-5.82043,1.85931l-.77271-1.08162a10.90134,10.90134,0,0,1,6.63814-2.10592C78.35528,186.36955,84.257,191.00928,84.257,197.62037Z"/><path class="cls-2" d="M85.32093,182.97823a8.03377,8.03377,0,0,0-3.575-2.89053l.49149-1.23478a9.397,9.397,0,0,1,4.18328,3.37942Z"/><path class="cls-2" d="M101.75727,197.76271l-.6533-1.15777a13.57808,13.57808,0,0,0,6.86571-11.61965h1.3291A14.92742,14.92742,0,0,1,101.75727,197.76271Z"/><path class="cls-2" d="M160.66282,44.21029h-38.187a13.1671,13.1671,0,0,1-3.40993-25.94921,10.30236,10.30236,0,0,1,13.26072-9.0079A16.74286,16.74286,0,0,1,147.77214.04434a16.9577,16.9577,0,0,1,16.336,16.46571,17.30947,17.30947,0,0,1-.05628,1.74455,13.10509,13.10509,0,0,1,9.97131,14.13922C173.38568,38.79883,167.267,44.21029,160.66282,44.21029ZM129.32307,10.33861a8.80909,8.80909,0,0,0-8.75863,8.56068l-.014.6143-.6026.11928a11.604,11.604,0,0,0-9.303,12.64865,11.7272,11.7272,0,0,0,11.83091,10.39886h38.187c5.8537,0,11.27463-4.78023,11.83838-10.4382a11.58688,11.58688,0,0,0-9.42349-12.632l-.70967-.133.09163-.7164a15.26674,15.26674,0,0,0-29.0414-8.24717l-.29781.65364-.67083-.25573A8.74472,8.74472,0,0,0,129.32307,10.33861Z"/><path class="cls-2" d="M135.28534,31.11068h-1.52991c0-7.3358-6.77155-11.47059-11.66009-11.63519a11.063,11.063,0,0,0-6.69983,2.14023l-.88946-1.245a12.54851,12.54851,0,0,1,7.64109-2.4241C128.49188,18.16,135.28534,23.50072,135.28534,31.11068Z"/><path class="cls-2" d="M136.51,14.25627a9.24778,9.24778,0,0,0-4.11512-3.32726l.56574-1.42134a10.81677,10.81677,0,0,1,4.81534,3.89Z"/><path class="cls-2" d="M155.42966,31.27453l-.752-1.3327a15.62958,15.62958,0,0,0,7.903-13.37526h1.52991A17.1828,17.1828,0,0,1,155.42966,31.27453Z"/><path class="cls-2" d="M63.86523,126.74628H16.61176a16.29327,16.29327,0,0,1-4.21952-32.11015A12.74837,12.74837,0,0,1,28.80135,83.48955,20.718,20.718,0,0,1,47.914,72.09432,20.98384,20.98384,0,0,1,68.12851,92.46937a21.42065,21.42065,0,0,1-.06964,2.15875,16.21654,16.21654,0,0,1,12.33873,17.4962C79.60879,120.05,72.03744,126.74628,63.86523,126.74628ZM25.0847,84.83269A10.90057,10.90057,0,0,0,14.24656,95.42587l-.01726.76015-.74567.14759A14.359,14.359,0,0,0,1.97192,111.98535a14.5115,14.5115,0,0,0,14.63984,12.86779H63.86523c7.24351,0,13.95148-5.91516,14.64908-12.91648A14.33788,14.33788,0,0,0,66.85347,96.30557L65.9753,96.141l.11339-.88648A18.89142,18.89142,0,0,0,30.15219,85.0493l-.36852.80884-.8301-.31645A10.82081,10.82081,0,0,0,25.0847,84.83269Z"/><path class="cls-2" d="M32.46255,110.53653H30.5694c0-9.07749-8.37927-14.194-14.42846-14.39765a13.68953,13.68953,0,0,0-8.29053,2.64837L6.74977,97.2466A15.52786,15.52786,0,0,1,16.205,94.247C24.05616,94.511,32.46255,101.11979,32.46255,110.53653Z"/><path class="cls-2" d="M33.97793,89.68049a11.44335,11.44335,0,0,0-5.09215-4.11723l.70007-1.7588a13.38493,13.38493,0,0,1,5.9586,4.8136Z"/><path class="cls-2" d="M57.38959,110.73927l-.93055-1.6491a19.34042,19.34042,0,0,0,9.7794-16.55086h1.89315A21.26237,21.26237,0,0,1,57.38959,110.73927Z"/><path class="cls-2" d="M228.13477,83.87474h7v2h-7Zm13.2539,1.564a11.08638,11.08638,0,0,1,4.75977,5.84961l-1.88867.65625a9.08434,9.08434,0,0,0-3.90039-4.791ZM244.752,97.55394h2v4.938h-2Z"/></g></g></svg>