<svg xmlns="http://www.w3.org/2000/svg" viewBox="7012 -21 40 40">
  <defs>
    <style>
      .cls-1 {
        fill: #242424;
        fill-rule: evenodd;
      }
    </style>
  </defs>
  <path id="Ei-sc-github" class="cls-1" d="M30.066,10A20.278,20.278,0,0,0,10,30.537,20.481,20.481,0,0,0,23.779,49.979c1.07.137,1.338-.411,1.338-.958v-3.56c-5.619,1.232-6.822-2.738-6.822-2.738A5.764,5.764,0,0,0,16.02,39.71c-1.873-1.232.134-1.232.134-1.232a4.229,4.229,0,0,1,3.077,2.054c1.739,3.149,4.682,2.191,5.886,1.643a3.786,3.786,0,0,1,1.338-2.738c-4.415-.548-9.1-2.328-9.1-10.132a8.274,8.274,0,0,1,2.007-5.477,7.291,7.291,0,0,1,.134-5.477s1.739-.548,5.485,2.054a20.716,20.716,0,0,1,5.083-.685,20.716,20.716,0,0,1,5.083.685c3.879-2.6,5.485-2.054,5.485-2.054a7.291,7.291,0,0,1,.134,5.477A7.647,7.647,0,0,1,42.775,29.3c0,7.941-4.682,9.584-9.1,10.132a5.342,5.342,0,0,1,1.338,3.834v5.613a.965.965,0,0,0,1.338.958,20.236,20.236,0,0,0,11.223-9.613A20.611,20.611,0,0,0,50,30.4,20.049,20.049,0,0,0,30.066,10Z" transform="translate(7002 -31)"/>
</svg>
