<svg xmlns="http://www.w3.org/2000/svg" viewBox="0 0 600.34535 177.5556"><defs><style>.cls-1{fill:#7ed257;}.cls-2{fill:#242424;}.cls-3{fill:#fff;}.cls-4,.cls-5,.cls-6{fill:none;}.cls-5,.cls-6{stroke:#242424;stroke-miterlimit:10;stroke-width:3px;}.cls-6{stroke-dasharray:7 6;}</style></defs><title>iaas_1</title><g id="Layer_2" data-name="Layer 2"><g id="Layer_1-2" data-name="Layer 1"><path class="cls-1" d="M54.96923,54.96923c-12.60762,12.60762-34.091,11.599-45.28658.40344C2.925,48.51413,2.01722,27.23246,14.62484,14.62484S49.22015,3.631,55.37267,9.68265C66.56824,20.87822,67.57685,42.36161,54.96923,54.96923Z"/><path class="cls-2" d="M32.27551,3.02583A29.24968,29.24968,0,1,1,3.02583,32.27551,29.2707,29.2707,0,0,1,32.27551,3.02583m0-3.02583A32.27551,32.27551,0,1,0,64.551,32.27551,32.24085,32.24085,0,0,0,32.27551,0Z"/><path class="cls-3" d="M23.13747,39.73922A78.458,78.458,0,0,1,13.85826,34.091c-.5043-.30258-1.00861-.706-1.51291-1.00861v-.60516a1.20792,1.20792,0,0,1,.40344-.40345c3.02583-2.11808,6.4551-4.23616,10.187-6.35424a4.6597,4.6597,0,0,1-.706.706c-.20172.10086-1.10947.706-2.62238,1.71464-1.71464,1.10947-3.02583,1.91635-3.83272,2.42066-1.61378,1.00861-2.01722,1.21033-2.01722,2.11808s0,.90775,3.02583,2.72325c1.61377,1.00861,2.72325,1.71463,3.631,2.21894a17.54278,17.54278,0,0,1,1.8155,1.10947A4.54244,4.54244,0,0,1,23.13747,39.73922Z"/><path class="cls-2" d="M24.35641,23.70233a5.8323,5.8323,0,0,0-1.41205.5043,110.9072,110.9072,0,0,0-10.48954,6.556,2.283,2.283,0,0,0-1.10947,1.71463v.30259a2.39587,2.39587,0,0,0,.30258,1.21033,10.23729,10.23729,0,0,0,1.8155,1.31119c6.35424,4.1353,9.98523,6.25338,10.99384,6.25338.50431,0,.80689-.5043.80689-1.61377a3.43775,3.43775,0,0,0-1.71464-2.52153,20.08956,20.08956,0,0,0-1.91636-1.21033c-.90775-.50431-2.11808-1.21033-3.631-2.21894s-2.3198-1.41206-2.3198-1.51292a14.92911,14.92911,0,0,1,1.31119-.80688q1.21034-.75646,3.93358-2.42067c1.81549-1.10947,2.62238-1.71463,2.72324-1.71463a3.11178,3.11178,0,0,0,1.51292-2.31981c0-1.00861-.20172-1.51291-.80689-1.51291Z"/><path class="cls-3" d="M27.78077,43.6728c.60517-1.8155,2.82411-7.46371,9.68265-23.50061.10086-.20172.20173-.30258.30259-.5043h0q-.45389,1.059-.60517,1.51291a.76247.76247,0,0,0-.10086.40345l-.60516,1.51291q-.60518,1.51292-.90775,2.11808a4.2414,4.2414,0,0,1-.20172.50431v-.10086c-.10086.10086-.30259.706-3.22756,7.968-2.62238,6.45511-3.32841,8.2706-3.53013,8.67405A10.07951,10.07951,0,0,1,27.78077,43.6728Z"/><path class="cls-2" d="M37.78144,17.924q-1.17294,0-1.7594,1.51291-9.67669,23.29888-9.67669,24.8118v.20172c0,.40345.48872.60517,1.36842.60517h.58646c.58647,0,1.17294-.80689,1.85715-2.3198.19548-.60517,1.36842-3.42928,3.421-8.674s3.12782-7.86715,3.12782-7.86715a3.3218,3.3218,0,0,0,.19549-.60517,16.45552,16.45552,0,0,1,.782-2.01722l.58647-1.51291a1.737,1.737,0,0,1,.19548-.50431,12.59663,12.59663,0,0,0,.48873-1.31119,3.36207,3.36207,0,0,0,.391-1.41205v-.30258c0-.40345-.48873-.60517-1.56391-.60517Z"/><path class="cls-3" d="M42.86591,39.5375a2.71908,2.71908,0,0,1,.80689-.706c.10086-.10086.706-.5043,3.93358-2.42066,4.53874-2.72325,4.53874-2.72325,4.53874-3.631s0-.90775-4.53874-3.73186c-3.32841-2.11808-3.93358-2.52153-4.03444-2.62239l-.60516-.60516.10085.10086a111.02067,111.02067,0,0,1,9.98524,6.25338.71888.71888,0,0,1,.30258.60516c0,.20172,0,.40345-.40344.60517C49.52273,35.60392,46.19432,37.722,42.86591,39.5375Z"/><path class="cls-2" d="M42.354,23.60147c-.60516,0-.90775.5043-.90775,1.41205A3.258,3.258,0,0,0,42.85826,27.535q.30258.3026,4.23616,2.72325a29.95068,29.95068,0,0,1,3.83271,2.52153s-1.31119.80688-3.83271,2.42066c-2.52153,1.51291-3.93358,2.42066-4.1353,2.52152-1.00861.80689-1.61377,1.61378-1.61377,2.31981v.30258c0,.90775.30258,1.41205.80688,1.41205A3.61307,3.61307,0,0,0,43.2617,41.353c3.42928-1.91636,7.06027-4.1353,10.79213-6.556a2.23744,2.23744,0,0,0,.20171-3.73185,95.726,95.726,0,0,0-10.187-6.35424A4.14226,4.14226,0,0,0,42.354,23.60147Z"/><rect class="cls-4" x="0.34535" y="0.5556" width="600" height="177"/><path class="cls-2" d="M597.84535,155.22226V173.5556H579.512V155.22226h18.33334m2.5-2.5H577.012V176.0556h23.33334V152.72226Z"/><path class="cls-2" d="M559.512,41.88893v18.333H541.17868v-18.333H559.512m2.5-2.5H538.67868v23.333H562.012v-23.333Z"/><path class="cls-2" d="M559.512,116.88893v18.33333H541.17868V116.88893H559.512m2.5-2.5H538.67868v23.33333H562.012V114.38893Z"/><path class="cls-2" d="M522.012,155.22226V173.5556H503.67868V155.22226H522.012m2.5-2.5H501.17868V176.0556H524.512V152.72226Z"/><path class="cls-2" d="M522.012,79.38893V97.72226H503.67868V79.38893H522.012m2.5-2.5H501.17868v23.33333H524.512V76.88893Z"/><path class="cls-2" d="M597.84535,79.38893V97.72226H579.512V79.38893h18.33334m2.5-2.5H577.012v23.33333h23.33334V76.88893Z"/><path class="cls-2" d="M597.84535,3.5556V21.88893H579.512V3.5556h18.33334m2.5-2.5H577.012V24.38893h23.33334V1.0556Z"/><path class="cls-2" d="M484.51171,116.88893v18.33333h-18.333V116.88893h18.333m2.5-2.5h-23.333v23.33333h23.333V114.38893Z"/><path class="cls-2" d="M446.17868,155.22226V173.5556H427.84535V155.22226h18.33333m2.5-2.5H425.34535V176.0556h23.33333V152.72226Z"/><rect class="cls-2" x="442.6258" y="143.9724" width="27.10576" height="2.49973" transform="translate(30.92399 365.10165) rotate(-45)"/><rect class="cls-2" x="492.42881" y="131.66938" width="2.49973" height="27.10576" transform="translate(41.90749 391.61816) rotate(-45)"/><rect class="cls-2" x="517.7447" y="143.97212" width="27.70128" height="2.50029" transform="translate(47.33546 408.23459) rotate(-43.78673)"/><rect class="cls-2" x="568.26215" y="131.66938" width="2.49973" height="27.10576" transform="translate(64.11856 445.24042) rotate(-45)"/><rect class="cls-2" x="555.66137" y="106.05545" width="27.70128" height="2.50029" transform="translate(97.95723 444.19506) rotate(-46.21327)"/><rect class="cls-2" x="530.34548" y="93.16346" width="2.49973" height="28.28427" transform="translate(79.82416 407.32376) rotate(-45)"/><rect class="cls-2" x="479.82804" y="106.05545" width="27.70128" height="2.50029" transform="translate(74.59875 389.44943) rotate(-46.21327)"/><rect class="cls-2" x="517.7447" y="68.13878" width="27.70128" height="2.50029" transform="translate(99.81031 387.14689) rotate(-43.78673)"/><rect class="cls-2" x="568.26215" y="55.83605" width="2.49973" height="27.10576" transform="translate(117.74082 423.02935) rotate(-45)"/><rect class="cls-2" x="555.95913" y="30.63906" width="27.10576" height="2.49973" transform="translate(144.25733 412.04586) rotate(-45)"/><path class="cls-2" d="M33.34535,99.4223h-3V92.26653h3Zm0-13.28907h-3V78.978h3Z"/><rect class="cls-2" x="30.34535" y="105.5556" width="3" height="3.5"/><path class="cls-2" d="M43.84535,122.0556a13.406,13.406,0,0,1-7.43262-2.24366l1.6582-2.5a10.41571,10.41571,0,0,0,5.77442,1.74366ZM31.92445,114.874a13.47078,13.47078,0,0,1-1.5791-6.31836h3a10.46315,10.46315,0,0,0,1.22558,4.90625Z"/><path class="cls-2" d="M188.34535,122.0556h-1v-3h1Zm-7,0h-7v-3h7Zm-13,0h-7v-3h7Zm-13,0h-7v-3h7Zm-13,0h-7v-3h7Zm-13,0h-7v-3h7Zm-13,0h-7v-3h7Zm-13,0h-7v-3h7Zm-13,0h-7v-3h7Zm-13,0h-7v-3h7Zm-13,0h-7v-3h7Zm-13,0h-7v-3h7Z"/><path class="cls-2" d="M494.34535,90.0556h-7v-3h7Zm-13,0h-7v-3h7Zm-13,0h-7v-3h7Zm-13,0h-7v-3h7Zm-13,0h-7v-3h7Zm-13,0h-7v-3h7Zm-13,0h-7v-3h7Zm-13,0h-7v-3h7Zm-13,0h-7v-3h7Zm-13,0h-7v-3h7Z"/><path class="cls-2" d="M310.78224,143.77189H235.90135a25.81936,25.81936,0,0,1-6.68653-50.88378,20.20188,20.20188,0,0,1,26.00293-17.66358,32.83108,32.83108,0,0,1,30.28711-18.05762,33.25234,33.25234,0,0,1,32.0332,32.2876,33.93327,33.93327,0,0,1-.11035,3.4209A25.69777,25.69777,0,0,1,336.98045,120.601C335.73048,133.16059,323.73243,143.77189,310.78224,143.77189ZM249.32813,77.353A17.27371,17.27371,0,0,0,232.15336,94.1396l-.02734,1.20459-1.18165.23388a22.7542,22.7542,0,0,0-18.24218,24.80274,22.99583,22.99583,0,0,0,23.19916,20.39108h74.88089c11.47851,0,22.10839-9.37353,23.21386-20.46826a22.72073,22.72073,0,0,0-18.47851-24.77l-1.3916-.26074.17968-1.40478a29.93655,29.93655,0,0,0-56.94726-16.17188l-.584,1.28174-1.31543-.50147A17.1472,17.1472,0,0,0,249.32813,77.353Z"/><path class="cls-2" d="M261.01957,118.08489h-3c0-14.38476-13.27832-22.49267-22.86426-22.81543a21.69338,21.69338,0,0,0-13.13769,4.19677l-1.74414-2.44141a24.60632,24.60632,0,0,1,14.98339-4.75341C247.69825,92.68987,261.01957,103.16253,261.01957,118.08489Z"/><path class="cls-2" d="M263.42091,85.03509a18.13379,18.13379,0,0,0-8.06934-6.52442l1.10938-2.78711a21.2107,21.2107,0,0,1,9.44238,7.62793Z"/><path class="cls-2" d="M300.52052,118.40618l-1.47461-2.61329A30.648,30.648,0,0,0,314.543,89.56535h3A33.69378,33.69378,0,0,1,300.52052,118.40618Z"/><line class="cls-5" x1="188.34535" y1="120.5556" x2="191.84535" y2="120.5556"/><line class="cls-5" x1="197.34535" y1="120.5556" x2="200.84535" y2="120.5556"/><line class="cls-6" x1="360.84535" y1="88.5556" x2="323.84535" y2="88.5556"/></g></g></svg>