<svg xmlns="http://www.w3.org/2000/svg" viewBox="0 0 600.34535 210.0556"><defs><style>.cls-1{fill:#7ed257;}.cls-2{fill:#242424;}.cls-3{fill:#fff;}.cls-4{fill:none;}.cls-5{fill:#28b655;}</style></defs><title>iac_2</title><g id="Layer_2" data-name="Layer 2"><g id="Layer_1-2" data-name="Layer 1"><path class="cls-1" d="M54.96923,54.96923c-12.60762,12.60762-34.091,11.599-45.28658.40344C2.925,48.51413,2.01722,27.23246,14.62484,14.62484S49.22015,3.631,55.37267,9.68265C66.56824,20.87822,67.57685,42.36161,54.96923,54.96923Z"/><path class="cls-2" d="M32.27551,3.02583A29.24968,29.24968,0,1,1,3.02583,32.27551,29.2707,29.2707,0,0,1,32.27551,3.02583m0-3.02583A32.27551,32.27551,0,1,0,64.551,32.27551,32.24085,32.24085,0,0,0,32.27551,0Z"/><path class="cls-3" d="M23.13747,39.73922A78.458,78.458,0,0,1,13.85826,34.091c-.5043-.30258-1.00861-.706-1.51291-1.00861v-.60516a1.20792,1.20792,0,0,1,.40344-.40345c3.02583-2.11808,6.4551-4.23616,10.187-6.35424a4.6597,4.6597,0,0,1-.706.706c-.20172.10086-1.10947.706-2.62238,1.71464-1.71464,1.10947-3.02583,1.91635-3.83272,2.42066-1.61378,1.00861-2.01722,1.21033-2.01722,2.11808s0,.90775,3.02583,2.72325c1.61377,1.00861,2.72325,1.71463,3.631,2.21894a17.54278,17.54278,0,0,1,1.8155,1.10947A4.54244,4.54244,0,0,1,23.13747,39.73922Z"/><path class="cls-2" d="M24.35641,23.70233a5.8323,5.8323,0,0,0-1.41205.5043,110.9072,110.9072,0,0,0-10.48954,6.556,2.283,2.283,0,0,0-1.10947,1.71463v.30259a2.39587,2.39587,0,0,0,.30258,1.21033,10.23729,10.23729,0,0,0,1.8155,1.31119c6.35424,4.1353,9.98523,6.25338,10.99384,6.25338.50431,0,.80689-.5043.80689-1.61377a3.43775,3.43775,0,0,0-1.71464-2.52153,20.08956,20.08956,0,0,0-1.91636-1.21033c-.90775-.50431-2.11808-1.21033-3.631-2.21894s-2.3198-1.41206-2.3198-1.51292a14.92911,14.92911,0,0,1,1.31119-.80688q1.21034-.75646,3.93358-2.42067c1.81549-1.10947,2.62238-1.71463,2.72324-1.71463a3.11178,3.11178,0,0,0,1.51292-2.31981c0-1.00861-.20172-1.51291-.80689-1.51291Z"/><path class="cls-3" d="M27.78077,43.6728c.60517-1.8155,2.82411-7.46371,9.68265-23.50061.10086-.20172.20173-.30258.30259-.5043h0q-.45389,1.059-.60517,1.51291a.76247.76247,0,0,0-.10086.40345l-.60516,1.51291q-.60518,1.51292-.90775,2.11808a4.2414,4.2414,0,0,1-.20172.50431v-.10086c-.10086.10086-.30259.706-3.22756,7.968-2.62238,6.45511-3.32841,8.2706-3.53013,8.67405A10.07951,10.07951,0,0,1,27.78077,43.6728Z"/><path class="cls-2" d="M37.78144,17.924q-1.17294,0-1.7594,1.51291-9.67669,23.29888-9.67669,24.8118v.20172c0,.40345.48872.60517,1.36842.60517h.58646c.58647,0,1.17294-.80689,1.85715-2.3198.19548-.60517,1.36842-3.42928,3.421-8.674s3.12782-7.86715,3.12782-7.86715a3.3218,3.3218,0,0,0,.19549-.60517,16.45552,16.45552,0,0,1,.782-2.01722l.58647-1.51291a1.737,1.737,0,0,1,.19548-.50431,12.59663,12.59663,0,0,0,.48873-1.31119,3.36207,3.36207,0,0,0,.391-1.41205v-.30258c0-.40345-.48873-.60517-1.56391-.60517Z"/><path class="cls-3" d="M42.86591,39.5375a2.71908,2.71908,0,0,1,.80689-.706c.10086-.10086.706-.5043,3.93358-2.42066,4.53874-2.72325,4.53874-2.72325,4.53874-3.631s0-.90775-4.53874-3.73186c-3.32841-2.11808-3.93358-2.52153-4.03444-2.62239l-.60516-.60516.10085.10086a111.02067,111.02067,0,0,1,9.98524,6.25338.71888.71888,0,0,1,.30258.60516c0,.20172,0,.40345-.40344.60517C49.52273,35.60392,46.19432,37.722,42.86591,39.5375Z"/><path class="cls-2" d="M42.354,23.60147c-.60516,0-.90775.5043-.90775,1.41205A3.258,3.258,0,0,0,42.85826,27.535q.30258.3026,4.23616,2.72325a29.95068,29.95068,0,0,1,3.83271,2.52153s-1.31119.80688-3.83271,2.42066c-2.52153,1.51291-3.93358,2.42066-4.1353,2.52152-1.00861.80689-1.61377,1.61378-1.61377,2.31981v.30258c0,.90775.30258,1.41205.80688,1.41205A3.61307,3.61307,0,0,0,43.2617,41.353c3.42928-1.91636,7.06027-4.1353,10.79213-6.556a2.23744,2.23744,0,0,0,.20171-3.73185,95.726,95.726,0,0,0-10.187-6.35424A4.14226,4.14226,0,0,0,42.354,23.60147Z"/><rect class="cls-4" x="0.34535" y="0.0556" width="600" height="210"/><path class="cls-2" d="M597.34535,185.0556v22h-22v-22h22m3-3h-28v28h28v-28Z"/><path class="cls-2" d="M551.34535,49.0556V71.0552h-22V49.0556h22m3-3h-28V74.0552h28V46.0556Z"/><path class="cls-2" d="M551.34535,139.0556v22h-22v-22h22m3-3h-28v28h28v-28Z"/><path class="cls-2" d="M506.34535,185.0556v22h-22v-22h22m3-3h-28v28h28v-28Z"/><path class="cls-2" d="M506.34535,94.0556v22h-22v-22h22m3-3h-28v28h28v-28Z"/><path class="cls-2" d="M597.34535,94.0556v22h-22v-22h22m3-3h-28v28h28v-28Z"/><path class="cls-2" d="M597.34535,3.0556v22h-22v-22h22m3-3h-28v28h28v-28Z"/><path class="cls-2" d="M461.345,139.0556v22H439.34535v-22H461.345m3-3H436.34535v28H464.345v-28Z"/><path class="cls-2" d="M415.34535,185.0556v22h-22v-22h22m3-3h-28v28h28v-28Z"/><rect class="cls-2" x="411.08189" y="171.55576" width="32.52691" height="2.99968" transform="translate(2.79777 352.8656) rotate(-45)"/><rect class="cls-2" x="470.84551" y="156.79214" width="2.99968" height="32.52691" transform="translate(15.97796 384.68541) rotate(-45)"/><rect class="cls-2" x="501.22458" y="171.55542" width="33.24154" height="3.00035" transform="translate(24.25187 406.4598) rotate(-43.78673)"/><rect class="cls-2" x="561.84551" y="156.79214" width="2.99968" height="32.52691" transform="translate(42.63125 449.03212) rotate(-45)"/><rect class="cls-2" x="546.72458" y="126.05542" width="33.24154" height="3.00035" transform="translate(81.43886 445.98071) rotate(-46.21327)"/><rect class="cls-2" x="516.34551" y="110.58503" width="2.99968" height="33.94113" transform="translate(61.47796 403.53212) rotate(-45)"/><rect class="cls-2" x="455.72458" y="126.05542" width="33.24154" height="3.00035" transform="translate(53.40868 380.28594) rotate(-46.21327)"/><rect class="cls-2" x="501.22458" y="80.55542" width="33.24154" height="3.00035" transform="translate(87.22169 381.15456) rotate(-43.78673)"/><rect class="cls-2" x="561.84551" y="65.79214" width="2.99968" height="32.52691" transform="translate(106.97796 422.37884) rotate(-45)"/><rect class="cls-2" x="547.08189" y="35.55576" width="32.52691" height="2.99968" transform="translate(138.79777 409.19865) rotate(-45)"/><rect class="cls-5" x="196.34535" y="17.0556" width="147" height="43"/><path class="cls-2" d="M344.34535,195.0556h-150v-180h150Zm-147-3h144v-174h-144Z"/><rect class="cls-2" x="195.34535" y="58.0556" width="147" height="3"/><circle class="cls-2" cx="214.84535" cy="38.5556" r="6.5"/><circle class="cls-2" cx="232.84535" cy="38.5556" r="6.5"/><circle class="cls-2" cx="250.84535" cy="38.5556" r="6.5"/><rect class="cls-2" x="232.34535" y="76.0556" width="86" height="3"/><rect class="cls-2" x="233.34535" y="95.0556" width="70" height="3"/><rect class="cls-2" x="233.34535" y="114.0556" width="81" height="3"/><rect class="cls-2" x="233.34535" y="133.0556" width="85" height="3"/><rect class="cls-2" x="233.34535" y="152.0556" width="48" height="3"/><rect class="cls-2" x="233.34535" y="171.0556" width="65" height="3"/><path class="cls-2" d="M214.84535,180.0556a7.5,7.5,0,1,1,7.5-7.5A7.5082,7.5082,0,0,1,214.84535,180.0556Zm0-12a4.5,4.5,0,1,0,4.5,4.5A4.50491,4.50491,0,0,0,214.84535,168.0556Z"/><path class="cls-2" d="M214.84535,161.0556a7.5,7.5,0,1,1,7.5-7.5A7.5082,7.5082,0,0,1,214.84535,161.0556Zm0-12a4.5,4.5,0,1,0,4.5,4.5A4.50491,4.50491,0,0,0,214.84535,149.0556Z"/><circle class="cls-5" cx="214.84535" cy="134.5556" r="6"/><path class="cls-2" d="M214.84535,142.0556a7.5,7.5,0,1,1,7.5-7.5A7.5082,7.5082,0,0,1,214.84535,142.0556Zm0-12a4.5,4.5,0,1,0,4.5,4.5A4.50491,4.50491,0,0,0,214.84535,130.0556Z"/><circle class="cls-5" cx="214.84535" cy="115.5556" r="6"/><path class="cls-2" d="M214.84535,123.0556a7.5,7.5,0,1,1,7.5-7.5A7.5082,7.5082,0,0,1,214.84535,123.0556Zm0-12a4.5,4.5,0,1,0,4.5,4.5A4.50491,4.50491,0,0,0,214.84535,111.0556Z"/><circle class="cls-5" cx="214.84535" cy="96.5556" r="6"/><path class="cls-2" d="M214.84535,104.0556a7.5,7.5,0,1,1,7.5-7.5A7.5082,7.5082,0,0,1,214.84535,104.0556Zm0-12a4.5,4.5,0,1,0,4.5,4.5A4.50491,4.50491,0,0,0,214.84535,92.0556Z"/><circle class="cls-5" cx="214.84535" cy="77.5556" r="6"/><path class="cls-2" d="M214.84535,85.0556a7.5,7.5,0,1,1,7.5-7.5A7.5082,7.5082,0,0,1,214.84535,85.0556Zm0-12a4.5,4.5,0,1,0,4.5,4.5A4.50491,4.50491,0,0,0,214.84535,73.0556Z"/><rect class="cls-2" x="30.34535" y="72.0556" width="3" height="3.5"/><path class="cls-2" d="M33.34535,115.4223h-3v-7.15577h3Zm0-13.28907h-3V94.978h3Zm0-13.28857h-3V81.6889h3Z"/><rect class="cls-2" x="30.34535" y="121.5556" width="3" height="3.5"/><path class="cls-2" d="M43.84535,138.0556a13.406,13.406,0,0,1-7.43262-2.24366l1.6582-2.5a10.41571,10.41571,0,0,0,5.77442,1.74366ZM31.92445,130.874a13.47078,13.47078,0,0,1-1.5791-6.31836h3a10.46315,10.46315,0,0,0,1.22558,4.90625Z"/><path class="cls-2" d="M188.34535,138.0556h-1v-3h1Zm-7,0h-7v-3h7Zm-13,0h-7v-3h7Zm-13,0h-7v-3h7Zm-13,0h-7v-3h7Zm-13,0h-7v-3h7Zm-13,0h-7v-3h7Zm-13,0h-7v-3h7Zm-13,0h-7v-3h7Zm-13,0h-7v-3h7Zm-13,0h-7v-3h7Zm-13,0h-7v-3h7Z"/><path class="cls-2" d="M474.34535,106.0556h-7v-3h7Zm-13,0h-7v-3h7Zm-13,0h-7v-3h7Zm-13,0h-7v-3h7Zm-13,0h-7v-3h7Zm-13,0h-7v-3h7Zm-13,0h-7v-3h7Zm-13,0h-7v-3h7Zm-13,0h-7v-3h7Zm-13,0h-7v-3h7Z"/></g></g></svg>