<svg xmlns="http://www.w3.org/2000/svg" xmlns:xlink="http://www.w3.org/1999/xlink" viewBox="6424 -21 40 40">
  <defs>
    <style>
      .cls-1 {
        fill: #7ed257;
      }

      .cls-2 {
        clip-path: url(#clip-path);
      }

      .cls-3 {
        fill: #242424;
      }
    </style>
    <clipPath id="clip-path">
      <rect id="Rectangle_423" data-name="Rectangle 423" class="cls-1" width="40" height="40"/>
    </clipPath>
  </defs>
  <g id="Mask_Group_61" data-name="Mask Group 61" class="cls-2" transform="translate(6424 -21)">
    <g id="in" transform="translate(0 0.901)">
      <path id="LinkedIn" class="cls-3" d="M40,24.858V39.843H31.427V25.861c0-3.512-1.24-5.909-4.343-5.909a4.7,4.7,0,0,0-4.4,3.178,6.018,6.018,0,0,0-.284,2.118V39.843H13.824s.116-23.681,0-26.134H22.4v3.7c-.017.028-.04.058-.056.084H22.4v-.084A8.5,8.5,0,0,1,30.128,13.1C35.77,13.095,40,16.83,40,24.858ZM4.853,1.111A4.5,4.5,0,0,0,0,5.626a4.469,4.469,0,0,0,4.739,4.518H4.8A4.5,4.5,0,0,0,9.647,5.626,4.481,4.481,0,0,0,4.853,1.111ZM.509,39.843H9.082V13.709H.509Z" transform="translate(0 -1.111)"/>
    </g>
  </g>
</svg>
