<?xml version="1.0" encoding="utf-8"?>
<!-- Generator: Adobe Illustrator 22.1.0, SVG Export Plug-In . SVG Version: 6.00 Build 0)  -->
<svg version="1.1" id="Layer_1" xmlns="http://www.w3.org/2000/svg" xmlns:xlink="http://www.w3.org/1999/xlink" x="0px" y="0px"
	 viewBox="0 0 476 455" style="enable-background:new 0 0 476 455;" xml:space="preserve">
<style type="text/css">
	.st0{fill:none;stroke:#DCDCDC;stroke-miterlimit:10;}
	.st1{fill:none;stroke:#E0E0E0;stroke-miterlimit:10;}
	.st2{fill:none;stroke:#E8E8E8;stroke-miterlimit:10;}
	.st3{fill:none;stroke:#F4F4F4;stroke-miterlimit:10;}
	.st4{fill:none;stroke:#DDDDDD;stroke-miterlimit:10;}
	.st5{fill:none;stroke:#DFDFDF;stroke-miterlimit:10;}
	.st6{fill:none;stroke:#E2E2E2;stroke-miterlimit:10;}
	.st7{fill:none;stroke:#E6E6E6;stroke-miterlimit:10;}
	.st8{fill:none;stroke:#EBEBEB;stroke-miterlimit:10;}
	.st9{fill:#252F3E;}
	.st10{clip-path:url(#SVGID_2_);fill:#252F3E;}
	.st11{clip-path:url(#SVGID_2_);fill:#FF9900;}
	.st12{fill:#FF9900;}
	.st13{fill:#535B64;}
</style>
<g>
	<polygon class="st0" points="3,3 473,3 473,456 3,456 3,3 	"/>
	<polygon class="st1" points="2,2 474,2 474,456 2,456 2,2 	"/>
	<polygon class="st2" points="1,1 475,1 475,456 1,456 1,1 	"/>
	<polygon class="st3" points="0,0 476,0 476,456 0,456 0,0 	"/>
	<line class="st0" x1="3" y1="450" x2="473" y2="450"/>
	<line class="st4" x1="3" y1="451" x2="473" y2="451"/>
	<line class="st5" x1="3" y1="452" x2="473" y2="452"/>
	<line class="st6" x1="3" y1="453" x2="473" y2="453"/>
	<line class="st7" x1="3" y1="454" x2="473" y2="454"/>
	<line class="st8" x1="3" y1="455" x2="473" y2="455"/>
	<path class="st9" d="M144.6,101.2c1.1,0.7,2.8,1.3,4.9,1.7c2.1,0.6,4.3,0.7,6.6,0.7c2.2,0,4.2-0.3,6-0.8c1.8-0.6,3.4-1.4,4.8-2.4
		c1.3-1,2.4-2.2,3.1-3.8c0.7-1.5,1.1-3.1,1.1-5c0-2.2-0.7-4.2-2-6c-1.3-1.7-3.5-3.1-6.6-4.1l-6-2c-2.2-0.7-3.9-1.5-4.8-2.4
		c-0.8-0.8-1.3-1.8-1.3-3.1c0-1.7,0.7-3.1,2-3.8c1.4-0.8,3.2-1.3,5.7-1.3c3.1,0,5.7,0.6,8.3,1.7c0.7,0.3,1.3,0.6,1.7,0.6
		c0.7,0,1-0.4,1-1.4v-1.7c0-0.6-0.1-1.1-0.4-1.4c-0.3-0.4-0.7-0.8-1.3-1.1c-0.4-0.3-1.1-0.6-1.8-0.7c-0.7-0.3-1.5-0.4-2.4-0.7
		c-0.8-0.1-1.8-0.4-2.8-0.4c-1-0.3-2-0.3-2.9-0.3c-2,0-3.6,0.3-5.3,0.7c-1.7,0.6-3.2,1.3-4.5,2.2c-1.3,1-2.2,2.1-3.1,3.5
		c-0.8,1.4-1.1,2.9-1.1,4.8c0,2.2,0.7,4.3,2.1,6.2c1.4,2,3.6,3.4,6.9,4.3l6.2,2c2.1,0.7,3.5,1.4,4.3,2.2c0.8,0.8,1.1,1.8,1.1,2.9
		c0,1.7-0.7,3.1-2.2,4.1c-1.5,1-3.5,1.4-6.3,1.4c-1.7,0-3.4-0.1-5-0.6c-1.7-0.3-3.2-0.8-4.8-1.5c-0.4-0.1-0.8-0.3-1.1-0.4
		c-0.3-0.1-0.6-0.1-0.8-0.1c-0.7,0-1,0.4-1,1.4v2.1c0,0.4,0.1,0.8,0.3,1.3C143.5,100.5,143.9,100.8,144.6,101.2L144.6,101.2z"/>
	<path class="st9" d="M72.2,80.5c-1.5-0.3-3.1-0.3-4.5-0.3c-4.3,0-7.8,1.1-10.5,3.4c-2.7,2.2-3.9,5.2-3.9,8.8c0,3.5,1,6.2,3.1,8.3
		c2.1,2.1,4.9,3.1,8.5,3.1c5,0,9.2-2,12.6-5.9c0.4,1,0.8,1.8,1.3,2.5s1,1.4,1.5,2c0.4,0.4,0.8,0.6,1.3,0.6c0.3,0,0.7-0.1,1.1-0.4
		l2.7-1.8c0.6-0.4,0.8-0.8,0.8-1.3c0-0.3-0.1-0.6-0.3-1c-0.6-1.1-1.1-2.1-1.4-3.1c-0.3-1-0.4-2.2-0.4-3.8v-14
		c0-4.6-1.1-8.1-3.5-10.5s-6-3.5-11.2-3.5c-2.4,0-4.6,0.3-6.7,0.8c-2,0.6-3.8,1.1-5.3,2c-0.6,0.3-1,0.6-1.1,0.8
		C56,67.5,56,68.1,56,68.8v2.1c0,0.8,0.3,1.4,0.8,1.4c0.1,0,0.4,0,0.7-0.1c0.3-0.1,0.8-0.3,1.5-0.6c1.5-0.6,3.1-1.1,4.6-1.4
		c1.5-0.4,3.1-0.6,4.6-0.6c3.4,0,5.6,0.7,7,2c1.4,1.3,2,3.6,2,6.9v3.1C75.4,81.1,73.9,80.8,72.2,80.5L72.2,80.5z M77.1,88.1
		c0,1.4-0.1,2.7-0.4,3.6c-0.3,1-0.7,2-1.4,2.7c-1.1,1.3-2.5,2.2-4.1,2.7c-1.5,0.6-3.1,0.8-4.5,0.8c-2,0-3.5-0.6-4.5-1.5
		c-1-1-1.5-2.5-1.5-4.5c0-2.1,0.7-3.8,2.1-4.9c1.4-1.1,3.5-1.7,6.3-1.7c1.3,0,2.7,0.1,4.1,0.3c1.4,0.1,2.7,0.4,3.9,0.7V88.1
		L77.1,88.1z"/>
	<g>
		<defs>
			<polygon id="SVGID_1_" points="48,-38 328,-38 328,242 48,242 48,-38 			"/>
		</defs>
		<clipPath id="SVGID_2_">
			<use xlink:href="#SVGID_1_"  style="overflow:visible;"/>
		</clipPath>
		<path class="st10" d="M98.7,100.5c0.3,0.8,0.6,1.4,0.8,1.7c0.3,0.3,0.8,0.4,1.7,0.4h3.6c0.8,0,1.4-0.1,1.7-0.4s0.6-0.8,0.8-1.7
			l6.6-27.6l6.7,27.6c0.1,0.8,0.4,1.4,0.8,1.7c0.3,0.3,1,0.4,1.7,0.4h3.6c0.7,0,1.3-0.1,1.7-0.4c0.3-0.3,0.7-0.8,0.8-1.7l10.4-33
			c0.1-0.4,0.3-0.8,0.3-1c0-0.3,0.1-0.4,0.1-0.7c0-0.7-0.3-1-1-1h-3.9c-0.8,0-1.4,0.1-1.7,0.4c-0.3,0.3-0.6,0.8-0.8,1.7l-7.4,28.7
			l-6.9-28.8c-0.1-0.8-0.4-1.4-0.8-1.7c-0.3-0.3-1-0.4-1.7-0.4h-3.5c-0.8,0-1.4,0.1-1.7,0.4s-0.6,0.8-0.8,1.7l-6.7,28.3L96,66.8
			c-0.3-0.8-0.6-1.4-0.8-1.7c-0.3-0.3-0.8-0.4-1.7-0.4h-4.2c-0.7,0-1,0.3-1,1c0,0.3,0.1,0.8,0.4,1.7L98.7,100.5L98.7,100.5z"/>
		<path class="st11" d="M162.1,121.2c-15.7,6.7-32.9,9.9-48.4,9.9c-23.1,0-45.5-6.3-63.6-16.9c-1.5-1-2.8,0.7-1.4,2
			c16.8,15.1,38.9,24.2,63.6,24.2c17.5,0,37.9-5.5,52.1-16C166.4,122.8,164.5,120.3,162.1,121.2L162.1,121.2z"/>
	</g>
	<path class="st12" d="M153.3,115.4c-1.3,0.8-1,2.1,0.3,2c4.5-0.6,14.7-1.8,16.4,0.6c1.8,2.2-2,11.8-3.6,16.1
		c-0.6,1.3,0.6,1.8,1.8,0.8c7.6-6.3,9.5-19.6,8-21.4C174.6,111.3,161.3,109.8,153.3,115.4L153.3,115.4z"/>
	<path class="st9" d="M209.8,93.8c-0.3,0-0.6-0.1-0.6-0.6V70.1c0-0.3,0.1-0.6,0.6-0.6h0.7c0.4,0,0.6,0.1,0.6,0.6l0.1,1.4
		c1-0.8,2.1-1.4,3.1-1.8c1-0.4,2-0.6,3.1-0.6c2.2,0,3.9,0.8,5.2,2.4c1.3,1.5,2,3.8,2,6.4c0,2.8-0.7,5-2,6.7
		c-1.4,1.7-3.1,2.5-5.5,2.5c-2.1,0-3.9-0.8-5.7-2.4v8.4c0,0.3-0.1,0.6-0.6,0.6H209.8L209.8,93.8z M216.8,85.4c1.8,0,3.2-0.6,4.2-1.8
		c1-1.3,1.4-3.1,1.4-5.5c0-4.8-1.8-7.1-5.5-7.1c-1.8,0-3.8,0.7-5.6,2.2v9.9c1,0.8,1.8,1.4,2.7,1.8C214.9,85.1,215.9,85.4,216.8,85.4
		L216.8,85.4z"/>
	<path class="st9" d="M232.8,87.1c-1.5,0-2.8-0.4-3.8-1.4c-1-0.8-1.4-2.1-1.4-3.6c0-1.7,0.6-2.9,1.7-3.9c1.1-1,2.7-1.4,4.6-1.4
		c1.5,0,3.1,0.3,4.9,0.8v-2.8c0-1.4-0.3-2.4-1-2.9c-0.7-0.6-1.7-0.8-3.2-0.8c-1.5,0-3.2,0.3-4.9,0.8c-0.1,0-0.4,0.1-0.6,0.1
		c-0.3,0-0.3-0.1-0.3-0.4v-0.7c0-0.1,0-0.3,0.1-0.4c0.1-0.1,0.1-0.1,0.3-0.3c1.8-0.7,3.6-1.1,5.7-1.1c2,0,3.5,0.4,4.5,1.3
		c1,0.8,1.4,2.1,1.4,3.8v12c0,0.3-0.1,0.6-0.6,0.6h-0.7c-0.3,0-0.6-0.1-0.6-0.6l-0.1-1.4C237,86.4,234.9,87.1,232.8,87.1L232.8,87.1
		z M233.1,85.4c0.8,0,1.8-0.1,2.8-0.6c1-0.4,2-0.8,3.1-1.5v-4.2c-1.5-0.4-2.9-0.6-4.5-0.6c-3.2,0-4.8,1.3-4.8,3.6
		c0,1,0.3,1.8,0.8,2.4C231.1,85.1,232,85.4,233.1,85.4L233.1,85.4z"/>
	<path class="st9" d="M246.7,86.8c-0.3,0-0.6-0.1-0.6-0.6V70.1c0-0.3,0.1-0.6,0.6-0.6h0.7c0.4,0,0.6,0.1,0.6,0.6l0.1,2
		c0.8-1,1.7-1.7,2.5-2c0.8-0.4,1.8-0.6,2.8-0.6c0.4,0,0.7,0,0.8,0c0.3,0,0.6,0.1,0.6,0.6V71c0,0.1,0,0.1-0.1,0.3
		c0,0.1-0.1,0.1-0.3,0.1c-0.1,0-0.4,0-0.6,0c-0.1,0-0.4,0-0.7,0c-1,0-2,0.1-2.8,0.6c-0.8,0.4-1.5,1-2.4,1.8v12.5
		c0,0.3-0.1,0.6-0.6,0.6L246.7,86.8L246.7,86.8z"/>
	<path class="st9" d="M263.7,87c-1.4,0-2.4-0.4-3.1-1.1c-0.7-0.7-1.1-1.7-1.1-3.1V71.4h-2.7c-0.3,0-0.6-0.1-0.6-0.6v-0.3
		c0-0.1,0-0.3,0.1-0.4c0-0.1,0.1-0.1,0.4-0.1l2.8-0.3l0.3-4.5c0-0.1,0.1-0.3,0.1-0.4c0.1-0.1,0.1-0.1,0.4-0.1h0.6
		c0.3,0,0.6,0.1,0.6,0.6v4.5h4.9c0.3,0,0.6,0.1,0.6,0.6V71c0,0.3-0.1,0.6-0.6,0.6h-4.9v11.3c0,1,0.1,1.5,0.6,2
		c0.4,0.4,1.1,0.6,2,0.6c0.7,0,1.3,0,1.7-0.1c0.3,0,0.4-0.1,0.6-0.1c0.1,0,0.3,0,0.3,0c0.3,0,0.4,0.1,0.4,0.4v0.6
		c0,0.4-0.1,0.6-0.4,0.7C265.8,86.8,264.9,87,263.7,87L263.7,87z"/>
	<path class="st9" d="M271.3,86.8c-0.3,0-0.6-0.1-0.6-0.6V70.1c0-0.3,0.1-0.6,0.6-0.6h0.7c0.4,0,0.6,0.1,0.6,0.6l0.1,1.4
		c1.1-0.8,2.2-1.4,3.5-1.8c1.3-0.4,2.4-0.7,3.5-0.7c1.7,0,2.9,0.4,3.8,1.3c0.8,0.8,1.3,2.1,1.3,3.9v11.9c0,0.3-0.1,0.6-0.6,0.6h-1
		c-0.3,0-0.6-0.1-0.6-0.6V75.2c0-1.5-0.3-2.5-0.8-3.2c-0.6-0.7-1.5-1-2.7-1c-2.2,0-4.5,0.7-6.6,2.2v13.2c0,0.3-0.1,0.6-0.6,0.6h-0.7
		V86.8z"/>
	<path class="st9" d="M297.3,87.2c-2.7,0-4.8-0.7-6-2.2c-1.4-1.5-2.1-3.8-2.1-6.9c0-2.8,0.7-5,2.1-6.6c1.4-1.5,3.4-2.4,5.7-2.4
		c2.1,0,3.6,0.6,4.8,1.8c1.1,1.1,1.7,2.8,1.7,5c0,0.8,0,1.5-0.1,2.1c0,0.3-0.3,0.6-0.6,0.6h-11.5c0,2.4,0.6,4.2,1.5,5.3
		c1,1.1,2.7,1.7,4.8,1.7c1.7,0,3.2-0.3,4.6-0.8c0.3-0.1,0.6-0.1,0.6-0.1c0.1,0,0.1,0,0.3,0.1c0,0.1,0.1,0.1,0.1,0.3v0.6
		c0,0.4-0.1,0.6-0.4,0.7C301,86.8,299.3,87.2,297.3,87.2L297.3,87.2z M301.5,77c0-0.3,0-0.7,0-1.1c0-1.7-0.4-2.8-1.1-3.6
		c-0.8-0.8-2-1.3-3.5-1.3c-3.6,0-5.5,2-5.7,6H301.5L301.5,77z"/>
	<path class="st9" d="M308.1,86.8c-0.3,0-0.6-0.1-0.6-0.6V70.1c0-0.3,0.1-0.6,0.6-0.6h0.7c0.4,0,0.6,0.1,0.6,0.6l0.1,2
		c0.8-1,1.7-1.7,2.5-2c0.8-0.4,1.8-0.6,2.8-0.6c0.4,0,0.7,0,0.8,0c0.3,0,0.6,0.1,0.6,0.6V71c0,0.1,0,0.1-0.1,0.3
		c0,0.1-0.1,0.1-0.3,0.1s-0.4,0-0.6,0c-0.1,0-0.4,0-0.7,0c-1,0-2,0.1-2.8,0.6c-0.8,0.4-1.5,1-2.4,1.8v12.5c0,0.3-0.1,0.6-0.6,0.6
		L308.1,86.8L308.1,86.8z"/>
	<path class="st9" d="M209.8,124.5c-0.3,0-0.6-0.1-0.6-0.6v-16c0-0.3,0.1-0.6,0.6-0.6h0.7c0.4,0,0.6,0.1,0.6,0.6l0.1,1.4
		c1.1-0.8,2.2-1.4,3.5-1.8c1.3-0.4,2.4-0.7,3.5-0.7c1.7,0,2.9,0.4,3.8,1.3c0.8,0.8,1.3,2.1,1.3,3.9v11.9c0,0.3-0.1,0.6-0.6,0.6h-1
		c-0.3,0-0.6-0.1-0.6-0.6v-11.1c0-1.5-0.3-2.5-0.8-3.2c-0.6-0.7-1.5-1-2.7-1c-2.2,0-4.5,0.7-6.6,2.2V124c0,0.3-0.1,0.6-0.6,0.6h-0.7
		V124.5z"/>
	<path class="st9" d="M235.9,125c-2.7,0-4.8-0.7-6-2.2c-1.4-1.5-2.1-3.8-2.1-6.9c0-2.8,0.7-5,2.1-6.6c1.4-1.5,3.4-2.4,5.7-2.4
		c2.1,0,3.6,0.6,4.8,1.8c1.1,1.1,1.7,2.8,1.7,5c0,0.8,0,1.5-0.1,2.1c0,0.3-0.3,0.6-0.6,0.6h-11.5c0,2.4,0.6,4.2,1.5,5.3
		c1,1.1,2.7,1.7,4.8,1.7c1.7,0,3.2-0.3,4.6-0.8c0.3-0.1,0.6-0.1,0.6-0.1c0.1,0,0.1,0,0.3,0.1c0,0.1,0.1,0.1,0.1,0.3v0.6
		c0,0.4-0.1,0.6-0.4,0.7C239.7,124.6,237.8,125,235.9,125L235.9,125z M240.1,114.7c0-0.3,0-0.7,0-1.1c0-1.7-0.4-2.8-1.1-3.6
		c-0.8-0.8-2-1.3-3.5-1.3c-3.6,0-5.5,2-5.7,6H240.1L240.1,114.7z"/>
	<path class="st9" d="M251.6,124.8c-1.4,0-2.4-0.4-3.1-1.1s-1.1-1.7-1.1-3.1v-11.5h-2.7c-0.3,0-0.6-0.1-0.6-0.6v-0.3
		c0-0.1,0-0.3,0.1-0.4c0-0.1,0.1-0.1,0.4-0.1l2.8-0.3l0.3-4.5c0-0.1,0.1-0.3,0.1-0.4c0.1-0.1,0.1-0.1,0.4-0.1h0.6
		c0.3,0,0.6,0.1,0.6,0.6v4.5h4.9c0.3,0,0.6,0.1,0.6,0.6v0.7c0,0.3-0.1,0.6-0.6,0.6h-4.9v11.3c0,1,0.1,1.5,0.6,2s1.1,0.6,2,0.6
		c0.7,0,1.3,0,1.7-0.1c0.3,0,0.4-0.1,0.6-0.1c0.1,0,0.3,0,0.3,0c0.3,0,0.4,0.1,0.4,0.4v0.6c0,0.4-0.1,0.6-0.4,0.7
		C253.7,124.6,252.7,124.8,251.6,124.8L251.6,124.8z"/>
	<path class="st9" d="M262.6,124.5c-0.3,0-0.6-0.1-0.7-0.4l-5.3-15.8c-0.1-0.3-0.1-0.4-0.1-0.6s0.1-0.3,0.4-0.3h1.1
		c0.3,0,0.4,0.1,0.6,0.4l4.6,14.4l4.1-14.4c0.1-0.3,0.3-0.4,0.7-0.4h1.3c0.3,0,0.6,0.1,0.7,0.4l4.1,14.4l4.8-14.6
		c0.1-0.3,0.3-0.4,0.6-0.4h1c0.3,0,0.4,0.1,0.4,0.3c0,0.1,0,0.3-0.1,0.6l-5.6,15.8c-0.1,0.3-0.3,0.4-0.7,0.4h-1.1
		c-0.3,0-0.6-0.1-0.7-0.4l-4.1-14.4l-4.1,14.4c-0.1,0.3-0.3,0.4-0.7,0.4h-1V124.5z"/>
	<path class="st9" d="M290.8,125c-2.5,0-4.5-0.8-5.9-2.4c-1.4-1.5-2.1-3.8-2.1-6.7c0-2.8,0.7-5,2.1-6.7c1.4-1.5,3.4-2.4,5.9-2.4
		c2.5,0,4.5,0.8,5.9,2.4c1.4,1.5,2.1,3.8,2.1,6.7c0,2.8-0.7,5-2.1,6.7C295.2,124.2,293.3,125,290.8,125L290.8,125z M290.8,123.2
		c3.9,0,5.9-2.4,5.9-7.3c0-4.9-2-7.3-5.9-7.3c-3.9,0-5.9,2.4-5.9,7.3C284.9,120.8,286.8,123.2,290.8,123.2L290.8,123.2z"/>
	<path class="st9" d="M303.6,124.5c-0.3,0-0.6-0.1-0.6-0.6v-16c0-0.3,0.1-0.6,0.6-0.6h0.7c0.4,0,0.6,0.1,0.6,0.6l0.1,2
		c0.8-1,1.7-1.7,2.5-2c0.8-0.4,1.8-0.6,2.8-0.6c0.4,0,0.7,0,0.8,0c0.3,0,0.6,0.1,0.6,0.6v0.8c0,0.1,0,0.1-0.1,0.3
		c-0.1,0.1-0.1,0.1-0.3,0.1c-0.1,0-0.4,0-0.6,0c-0.1,0-0.4,0-0.7,0c-1,0-2,0.1-2.8,0.6c-0.8,0.4-1.5,1-2.4,1.8v12.5
		c0,0.3-0.1,0.6-0.6,0.6h-0.7V124.5z"/>
	<path class="st9" d="M315.3,124.5c-0.3,0-0.6-0.1-0.6-0.6V99.8c0-0.3,0.1-0.6,0.6-0.6h1c0.3,0,0.6,0.1,0.6,0.6V115l8.1-7.3
		c0.3-0.3,0.6-0.3,0.8-0.3h1.3c0.3,0,0.4,0.1,0.4,0.3s-0.1,0.3-0.4,0.6l-8.3,7.3l9,8.3c0.1,0.1,0.3,0.3,0.3,0.4
		c0,0.3-0.1,0.3-0.4,0.3h-1.4c-0.3,0-0.6-0.1-0.7-0.3l-8.7-8.1v7.8c0,0.3-0.1,0.6-0.6,0.6H315.3L315.3,124.5z"/>
	<path class="st13" d="M63.9,242l-1.6-5.1h-7.6l-1.5,5.1h-5l7.8-22.2h5.3l7.8,22.2H63.9L63.9,242z M55.8,233.5h5.6l-2.8-9.3
		L55.8,233.5L55.8,233.5z M82.6,242l-0.4-1.4c-1.3,1.2-2.9,1.8-4.7,1.8c-1.3,0-2.5-0.3-3.5-1c-1-0.7-1.8-1.6-2.4-2.9
		c-0.6-1.3-0.9-2.8-0.9-4.5c0-2.6,0.6-4.8,1.9-6.4c1.3-1.6,2.9-2.4,5-2.4c1.7,0,3.2,0.5,4.4,1.4v-8.3h4.7V242H82.6L82.6,242z
		 M79,238.8c1,0,2-0.3,2.9-0.9v-8.5c-0.9-0.5-2-0.8-3.2-0.8c-1.1,0-2,0.4-2.5,1.3s-0.8,2.1-0.8,3.8c0,1.7,0.3,3,0.9,3.8
		C76.9,238.4,77.8,238.8,79,238.8L79,238.8z M95.2,242L89,225.6h5l3.5,12.2l3.5-12.2h4.8L99.6,242H95.2L95.2,242z M117.6,242
		l-0.4-1.4c-0.7,0.6-1.4,1.1-2.3,1.4c-0.9,0.4-1.7,0.5-2.5,0.5c-1.6,0-2.8-0.4-3.8-1.3c-0.9-0.9-1.4-2.1-1.4-3.6
		c0-1,0.3-1.9,0.8-2.7c0.5-0.8,1.2-1.4,2.2-1.8s2.1-0.7,3.4-0.7c1,0,2.2,0.1,3.4,0.4v-1.6c0-1-0.2-1.7-0.6-2
		c-0.4-0.4-1.1-0.5-2.2-0.5c-1.8,0-3.7,0.3-5.8,1v-3.1c0.8-0.4,1.8-0.7,3-1c1.2-0.2,2.4-0.4,3.6-0.4c2.2,0,3.8,0.4,4.8,1.3
		c1,0.9,1.5,2.3,1.5,4.2V242H117.6L117.6,242z M113.7,239.4c0.5,0,1.1-0.1,1.6-0.4s1.1-0.6,1.6-1v-2.8c-0.9-0.1-1.8-0.2-2.5-0.2
		c-1.9,0-2.8,0.7-2.8,2.2c0,0.7,0.2,1.2,0.5,1.5C112.5,239.2,113,239.4,113.7,239.4L113.7,239.4z M136.2,242v-10.7
		c0-0.9-0.2-1.5-0.6-1.9c-0.4-0.4-1-0.6-1.8-0.6c-1.2,0-2.3,0.4-3.5,1.1V242h-4.7v-16.4h3.8l0.5,1.8c1.9-1.5,4-2.2,6.1-2.2
		c1.5,0,2.7,0.4,3.5,1.2c0.8,0.8,1.2,2,1.2,3.5V242H136.2L136.2,242z M157.1,241.3c-0.6,0.3-1.3,0.6-2.1,0.8
		c-0.8,0.2-1.7,0.3-2.5,0.3c-2.6,0-4.6-0.7-6-2.2c-1.4-1.5-2.1-3.5-2.1-6.3c0-2.7,0.7-4.8,2.2-6.3c1.5-1.5,3.5-2.3,6-2.3
		c1.6,0,3,0.3,4.3,1v3.1c-1.3-0.4-2.4-0.5-3.5-0.5c-1.5,0-2.6,0.4-3.3,1.1c-0.7,0.8-1.1,2-1.1,3.6v0.5c0,1.6,0.3,2.8,1,3.6
		c0.7,0.8,1.8,1.1,3.2,1.1c1,0,2.3-0.2,3.6-0.6V241.3L157.1,241.3z M163.9,235c0.1,1.4,0.5,2.4,1.3,3.1c0.8,0.6,2,0.9,3.6,0.9
		c1.4,0,3.1-0.3,5-0.8v3.1c-0.7,0.4-1.6,0.7-2.7,0.9c-1,0.2-2.1,0.3-3.2,0.3c-2.7,0-4.8-0.7-6.2-2.2c-1.4-1.5-2.1-3.6-2.1-6.5
		c0-2.7,0.7-4.9,2.1-6.4c1.4-1.5,3.4-2.3,5.9-2.3c2.1,0,3.7,0.6,4.9,1.7c1.1,1.2,1.7,2.8,1.7,5c0,0.5,0,1-0.1,1.6
		c-0.1,0.6-0.1,1.1-0.2,1.5H163.9L163.9,235z M167.4,228.4c-1.1,0-1.9,0.3-2.5,0.9c-0.6,0.6-0.9,1.5-1,2.7h6.3v-0.5
		C170.1,229.4,169.2,228.4,167.4,228.4L167.4,228.4z M188.7,242l-0.4-1.4c-1.3,1.2-2.9,1.8-4.7,1.8c-1.3,0-2.5-0.3-3.5-1
		c-1-0.7-1.8-1.6-2.4-2.9c-0.6-1.3-0.9-2.8-0.9-4.5c0-2.6,0.6-4.8,1.9-6.4c1.3-1.6,2.9-2.4,5-2.4c1.7,0,3.2,0.5,4.4,1.4v-8.3h4.7
		V242H188.7L188.7,242z M185.2,238.8c1,0,2-0.3,2.9-0.9v-8.5c-0.9-0.5-2-0.8-3.2-0.8c-1.1,0-2,0.4-2.5,1.3s-0.8,2.1-0.8,3.8
		c0,1.7,0.3,3,0.9,3.8C183.1,238.4,184,238.8,185.2,238.8L185.2,238.8z"/>
	<path class="st13" d="M65.9,312c-0.7,0-1-0.3-1-1v-42.5H50.3c-0.7,0-1-0.3-1-1v-1.6c0-0.7,0.3-1,1-1h33.2c0.7,0,1,0.3,1,1v1.6
		c0,0.7-0.3,1-1,1H68.9V311c0,0.7-0.3,1-1,1H65.9L65.9,312z M105.5,313c-5.4,0-9.4-1.5-12.2-4.6c-2.7-3.1-4.1-7.6-4.1-13.6
		c0-5.7,1.4-10.1,4.1-13.3c2.7-3.2,6.6-4.7,11.5-4.7c4.1,0,7.3,1.2,9.5,3.5c2.2,2.4,3.3,5.7,3.3,10.1c0,1.8-0.1,3.2-0.3,4.1
		c-0.1,0.7-0.5,1-1.2,1h-23c0,4.8,1.1,8.3,3.1,10.5c2,2.3,5.2,3.4,9.5,3.4c3.3,0,6.4-0.6,9.3-1.7c0.6-0.2,1-0.3,1.2-0.3
		c0.2,0,0.3,0.1,0.5,0.2c0.1,0.2,0.2,0.4,0.2,0.6v1c0,0.7-0.2,1.2-0.8,1.4C113,312.2,109.4,313,105.5,313L105.5,313z M113.9,292.4
		c0-0.6,0.1-1.4,0.1-2.2c0-3.3-0.8-5.7-2.4-7.4c-1.6-1.7-3.9-2.5-7-2.5c-7.2,0-11,4.1-11.4,12.2H113.9L113.9,292.4z M140.5,312.8
		c-5.2,0-9.2-1.5-12-4.5c-2.7-3-4.1-7.4-4.1-13.3c0-5.8,1.4-10.2,4.1-13.3s6.8-4.6,12-4.6c2.5,0,4.9,0.4,7.1,1.3
		c0.5,0.2,0.8,0.7,0.8,1.4v1c0,0.6-0.3,0.9-0.8,0.9c-0.1,0-0.3,0-0.5-0.1s-0.5-0.1-1-0.2c-1.8-0.4-3.6-0.7-5.4-0.7
		c-4.3,0-7.4,1.1-9.3,3.3s-2.9,5.7-2.9,10.6v0.8c0,4.7,1,8.2,2.9,10.4c1.9,2.2,5,3.4,9.2,3.4c1.8,0,3.7-0.3,5.9-0.9
		c0.5-0.1,0.9-0.2,1.1-0.3s0.4-0.1,0.5-0.1c0.5,0,0.8,0.3,0.8,0.9v1c0,0.7-0.2,1.2-0.7,1.4C145.8,312.2,143.2,312.8,140.5,312.8
		L140.5,312.8z M158,312c-0.7,0-1-0.3-1-1v-48.3c0-0.7,0.3-1,1-1h1.8c0.7,0,1,0.3,1,1v19c2.2-1.5,4.5-2.7,7-3.6
		c2.4-0.9,4.8-1.3,7.1-1.3c3.3,0,5.8,0.9,7.6,2.6c1.7,1.7,2.6,4.3,2.6,7.7V311c0,0.7-0.3,1-1,1h-1.8c-0.7,0-1-0.3-1-1v-22.2
		c0-2.9-0.6-5.1-1.7-6.4c-1.1-1.3-2.9-2-5.4-2c-4.5,0-8.9,1.4-13.2,4.3V311c0,0.7-0.3,1-1,1H158L158,312z M196.6,312
		c-0.7,0-1-0.3-1-1v-32.2c0-0.7,0.3-1,1-1h1.4c0.7,0,1.1,0.3,1.2,1l0.3,2.9c2.2-1.6,4.6-2.8,7-3.7s4.8-1.3,7.1-1.3
		c3.3,0,5.8,0.9,7.6,2.6c1.7,1.7,2.6,4.3,2.6,7.7V311c0,0.7-0.3,1-1,1h-1.8c-0.7,0-1-0.3-1-1v-22.2c0-2.9-0.6-5.1-1.7-6.4
		c-1.1-1.3-2.9-2-5.4-2c-4.5,0-8.9,1.4-13.2,4.3V311c0,0.7-0.3,1-1,1H196.6L196.6,312z M248.2,313c-5,0-8.9-1.6-11.6-4.8
		c-2.8-3.2-4.1-7.6-4.1-13.4c0-5.7,1.4-10.1,4.1-13.3c2.8-3.2,6.6-4.8,11.6-4.8c5,0,8.9,1.6,11.6,4.8s4.1,7.6,4.1,13.3
		c0,5.7-1.4,10.2-4.1,13.4C257.1,311.4,253.2,313,248.2,313L248.2,313z M248.2,309.5c7.8,0,11.8-4.9,11.8-14.6
		c0-9.7-3.9-14.5-11.8-14.5c-7.8,0-11.8,4.8-11.8,14.5C236.4,304.6,240.3,309.5,248.2,309.5L248.2,309.5z M278.6,312.2
		c-1.8,0-3.2-0.5-4.2-1.6c-1-1.1-1.5-2.5-1.5-4.5v-43.5c0-0.7,0.3-1,1-1h1.8c0.7,0,1,0.3,1,1v43.4c0,1,0.2,1.7,0.6,2.1
		c0.4,0.4,1.1,0.6,2.1,0.6c0.3,0,0.6,0,0.9-0.1c0.3,0,0.6-0.1,0.8-0.1c0.6,0,1,0.3,1,1v1.3c0,0.6-0.3,0.9-0.9,1
		C280.4,312.1,279.6,312.2,278.6,312.2L278.6,312.2z M303.8,313c-5,0-8.9-1.6-11.6-4.8c-2.8-3.2-4.1-7.6-4.1-13.4
		c0-5.7,1.4-10.1,4.1-13.3s6.6-4.8,11.6-4.8c5,0,8.9,1.6,11.6,4.8s4.1,7.6,4.1,13.3c0,5.7-1.4,10.2-4.1,13.4
		C312.7,311.4,308.8,313,303.8,313L303.8,313z M303.8,309.5c7.8,0,11.8-4.9,11.8-14.6c0-9.7-3.9-14.5-11.8-14.5
		c-7.8,0-11.8,4.8-11.8,14.5C292.1,304.6,296,309.5,303.8,309.5L303.8,309.5z M340.5,326.8c-1.9,0-3.8-0.2-5.6-0.6
		c-1.8-0.4-3.4-0.9-4.8-1.6c-0.5-0.2-0.8-0.7-0.8-1.4v-1c0-0.6,0.2-0.9,0.8-0.9c0.1,0,0.3,0,0.4,0.1c0.2,0,0.4,0.1,0.9,0.3
		c3.2,1,6.2,1.6,8.8,1.6c4.2,0,7.3-1,9.3-3.1s3-5.4,3-9.9V307c-1.7,1.4-3.5,2.5-5.6,3.3c-2,0.8-4,1.2-5.8,1.2
		c-4.4,0-7.8-1.6-10.5-4.7s-3.9-7.2-3.9-12.3c0-5.5,1.3-9.8,3.9-13c2.6-3.2,6.2-4.8,10.6-4.8c4.3,0,8,1.5,11.3,4.5l0.3-2.5
		c0.1-0.7,0.5-1,1.2-1h1.4c0.7,0,1,0.3,1,1v31.6c0,5.3-1.4,9.4-4.1,12.2S345.6,326.8,340.5,326.8L340.5,326.8z M342,308
		c3.4,0,6.9-1.4,10.5-4.3v-18.9c-1.9-1.5-3.6-2.7-5.4-3.4c-1.7-0.7-3.6-1.1-5.5-1.1c-3.6,0-6.4,1.2-8.2,3.5
		c-1.8,2.4-2.8,5.8-2.8,10.5c0,4.4,1,7.8,2.9,10.2S338.3,308,342,308L342,308z M368.2,326.8c-1.1,0-2.1-0.2-3.1-0.5
		c-0.7-0.2-1-0.6-1-1.4v-1c0-0.6,0.3-0.9,0.8-0.9c0.3,0,0.5,0,0.7,0.1c0.2,0,0.5,0.1,0.9,0.1c0.4,0,0.8,0,1.4,0
		c1.5,0,2.7-0.4,3.6-1.2c0.9-0.8,1.7-2.2,2.5-4.2l2.3-5.7L363,279.4c-0.2-0.4-0.3-0.7-0.3-0.9c0-0.5,0.3-0.8,0.8-0.8h2.2
		c0.6,0,1,0.3,1.2,0.9l11.4,29.2l11.5-29.2c0.2-0.6,0.6-0.9,1.2-0.9h2c0.5,0,0.8,0.2,0.8,0.8c0,0.1-0.1,0.4-0.3,0.9l-16,39.8
		c-1.1,2.8-2.4,4.7-3.8,5.9C372.2,326.3,370.4,326.8,368.2,326.8L368.2,326.8z"/>
	<path class="st13" d="M55,382c-0.7,0-1-0.3-1-1v-45.1c0-0.7,0.3-1,1-1h15.2c4.3,0,7.7,1.3,10.3,3.8c2.6,2.5,3.8,5.9,3.8,10.2
		c0,4.2-1.3,7.6-3.8,10.1c-2.6,2.5-6,3.8-10.3,3.8H57.9V381c0,0.7-0.3,1-1,1H55L55,382z M70.1,359.2c6.7,0,10.1-3.4,10.1-10.3
		c0-6.9-3.4-10.4-10.1-10.4H57.9v20.7H70.1L70.1,359.2z M101,382.8c-3.1,0-5.6-0.9-7.4-2.7c-1.8-1.8-2.8-4.2-2.8-7.2
		c0-3.3,1.1-5.9,3.4-7.8c2.3-1.9,5.4-2.9,9.3-2.9c3,0,6.3,0.5,9.7,1.6v-5.7c0-2.8-0.7-4.7-2-5.9c-1.3-1.2-3.5-1.8-6.5-1.8
		c-3.1,0-6.4,0.6-9.9,1.7c-0.4,0.1-0.8,0.2-1,0.2c-0.4,0-0.7-0.3-0.7-0.9v-1.1c0-0.4,0.1-0.6,0.2-0.9c0.1-0.2,0.4-0.4,0.7-0.5
		c3.6-1.4,7.4-2.1,11.4-2.1c4,0,6.9,0.8,8.9,2.5s2.9,4.2,2.9,7.6V381c0,0.7-0.3,1-1,1h-1.4c-0.7,0-1-0.3-1.1-1l-0.3-2.9
		C109.3,381.2,105.2,382.8,101,382.8L101,382.8z M101.5,379.2c1.7,0,3.6-0.4,5.6-1.1c2-0.7,4-1.7,6.1-3v-8.5c-3-0.8-6-1.2-8.8-1.2
		c-6.3,0-9.5,2.4-9.5,7.3c0,2.1,0.6,3.7,1.7,4.8C97.6,378.7,99.3,379.2,101.5,379.2L101.5,379.2z M128.5,382c-0.7,0-1-0.3-1-1v-32.2
		c0-0.7,0.3-1,1-1h1.3c0.7,0,1.1,0.3,1.2,1l0.3,4c1.7-1.9,3.4-3.3,5.1-4c1.7-0.8,3.5-1.2,5.6-1.2c0.7,0,1.3,0,1.8,0.1
		c0.7,0,1,0.4,1,1.1v1.7c0,0.2-0.1,0.4-0.2,0.5c-0.1,0.2-0.3,0.2-0.5,0.2c-0.4,0-0.7,0-1,0c-0.3,0-0.8,0-1.4,0
		c-2.1,0-3.9,0.4-5.5,1.2c-1.6,0.8-3.2,2-4.6,3.7v25c0,0.7-0.3,1-1,1H128.5L128.5,382z M161.4,382.4c-2.7,0-4.7-0.7-6.1-2.1
		s-2.1-3.5-2.1-6.2v-22.8h-5.4c-0.7,0-1-0.3-1-1v-0.7c0-0.4,0.1-0.6,0.2-0.8c0.1-0.2,0.4-0.3,0.8-0.3l5.5-0.5l0.5-9
		c0-0.4,0.1-0.6,0.3-0.8c0.2-0.2,0.4-0.2,0.7-0.2h1.2c0.7,0,1,0.3,1,1v8.9h9.9c0.7,0,1,0.3,1,1v1.4c0,0.7-0.3,1-1,1h-9.9v22.6
		c0,1.9,0.4,3.2,1.2,3.9s2.1,1.2,4,1.2c1.3,0,2.5-0.1,3.5-0.3c0.5-0.1,0.9-0.2,1.2-0.2c0.3-0.1,0.5-0.1,0.6-0.1
		c0.5,0,0.8,0.3,0.8,0.8v1c0,0.8-0.2,1.2-0.8,1.4C165.8,382.1,163.7,382.4,161.4,382.4L161.4,382.4z M176.5,382c-0.7,0-1-0.3-1-1
		v-32.2c0-0.7,0.3-1,1-1h1.4c0.7,0,1.1,0.3,1.2,1l0.3,2.9c2.2-1.6,4.6-2.8,7-3.7c2.4-0.9,4.8-1.3,7.1-1.3c3.3,0,5.8,0.9,7.6,2.6
		c1.7,1.7,2.6,4.3,2.6,7.7V381c0,0.7-0.3,1-1,1h-1.8c-0.7,0-1-0.3-1-1v-22.2c0-2.9-0.6-5.1-1.7-6.4c-1.1-1.3-2.9-2-5.4-2
		c-4.5,0-8.9,1.4-13.2,4.3V381c0,0.7-0.3,1-1,1H176.5L176.5,382z M228.6,383c-5.4,0-9.4-1.5-12.2-4.6c-2.7-3.1-4.1-7.6-4.1-13.6
		c0-5.7,1.4-10.1,4.1-13.3c2.7-3.2,6.6-4.7,11.5-4.7c4.1,0,7.3,1.2,9.5,3.5c2.2,2.4,3.3,5.7,3.3,10.1c0,1.8-0.1,3.2-0.3,4.1
		c-0.1,0.7-0.5,1-1.2,1h-23c0,4.8,1.1,8.3,3.1,10.5c2,2.3,5.2,3.4,9.5,3.4c3.3,0,6.4-0.6,9.3-1.7c0.6-0.2,1-0.3,1.2-0.3
		c0.2,0,0.3,0.1,0.5,0.2c0.1,0.2,0.2,0.4,0.2,0.6v1c0,0.7-0.2,1.2-0.8,1.4C236.1,382.2,232.5,383,228.6,383L228.6,383z M237,362.4
		c0-0.6,0.1-1.4,0.1-2.2c0-3.3-0.8-5.7-2.4-7.4c-1.6-1.7-3.9-2.5-7-2.5c-7.2,0-11,4.1-11.4,12.2H237L237,362.4z M250.4,382
		c-0.7,0-1-0.3-1-1v-32.2c0-0.7,0.3-1,1-1h1.3c0.7,0,1.1,0.3,1.2,1l0.3,4c1.7-1.9,3.4-3.3,5.1-4c1.7-0.8,3.5-1.2,5.6-1.2
		c0.7,0,1.3,0,1.8,0.1c0.7,0,1,0.4,1,1.1v1.7c0,0.2-0.1,0.4-0.2,0.5c-0.1,0.2-0.3,0.2-0.5,0.2c-0.4,0-0.7,0-1,0c-0.3,0-0.8,0-1.4,0
		c-2.1,0-3.9,0.4-5.5,1.2c-1.6,0.8-3.2,2-4.6,3.7v25c0,0.7-0.3,1-1,1H250.4L250.4,382z"/>
</g>
</svg>
