<svg xmlns="http://www.w3.org/2000/svg" viewBox="0 0 383 183"><defs><style>.cls-1{fill:#ebebeb;}.cls-2{fill:#333;}</style></defs><title>maninng-logo</title><g id="Layer_2" data-name="Layer 2"><g id="Layer_1-2" data-name="Layer 1"><rect class="cls-1" width="383" height="183"/><path class="cls-2" d="M116.93047,111.83167h-3.39392V98.30875l-2.23713,6.66472H109.789l-2.23942-6.66472v13.52292h-3.35513V86.48957h1.67813l4.66936,13.19856,4.70814-13.19856h1.68041Z"/><path class="cls-2" d="M126.6697,104.54406l-1.38381-10.60141-1.38152,10.60141Zm4.245,7.28727h-3.25816l-.62631-4.4955h-3.48633l-.59322,4.4955h-3.095l3.85025-25.341h3.36083Z"/><path class="cls-2" d="M144.60638,111.83167H142.926L137.2333,97.3903v14.44137h-3.35741V86.48957h1.67928l5.65957,14.54265V86.48957h3.39164Z"/><path class="cls-2" d="M159.74442,111.83167h-1.67813L152.37362,97.3903v14.44137h-3.35969V86.48957h1.67928l5.65957,14.54265V86.48957h3.39164Z"/><path class="cls-2" d="M167.64309,111.83146h-3.4918V86.48913h3.4918Z"/><path class="cls-2" d="M182.7479,111.83167h-1.67814L175.37482,97.3903v14.44137H172.0174V86.48957h1.67928l5.65958,14.54265V86.48957h3.39164Z"/><path class="cls-2" d="M197.7545,111.07927A7.012,7.012,0,0,1,194.00237,112q-7.37708,0-7.37308-12.87079,0-12.80533,6.97607-12.80705a8.03094,8.03094,0,0,1,2.20634.29818V89.3108a7.81473,7.81473,0,0,0-1.547-.19347q-4.11719,0-4.11263,10.01187,0,10.07562,3.98144,10.079a1.47264,1.47264,0,0,0,.3605-.03414v-5.25234a5.33588,5.33588,0,0,0-.42781-2.563,1.19138,1.19138,0,0,0-1.11571-.55539,3.446,3.446,0,0,0-.56128.03187V98.0776a6.80209,6.80209,0,0,1,1.15222-.09788q4.21473,0,4.213,6.23907Z"/><path class="cls-2" d="M214.07341,94.1722q0-4.85854-2.92391-4.86083v11.16478c.54645-.08764,1.11458-.57816,1.7078-1.48067a8.58751,8.58751,0,0,0,1.21611-4.82328m3.52169.033a9.85783,9.85783,0,0,1-2.69688,7.153,8.24789,8.24789,0,0,1-3.74872,2.33424v8.1397h-3.49089V86.49h2.6638a7.36005,7.36005,0,0,1,5.039,1.67187q2.23314,2.00591,2.23371,6.04332"/><path class="cls-2" d="M231.08989,105.59874a6.94057,6.94057,0,0,1-1.61083,4.89156,4.71451,4.71451,0,0,1-3.58786,1.50912,4.66148,4.66148,0,0,1-3.55363-1.50912,7.02194,7.02194,0,0,1-1.58231-4.89156V86.49H224.245v19.79386a3.987,3.987,0,0,0,.49283,2.17036,1.4014,1.4014,0,0,0,1.15336.75456,1.47231,1.47231,0,0,0,1.183-.75456,3.76211,3.76211,0,0,0,.52819-2.17036V86.49h3.48747Z"/><path class="cls-2" d="M242.18158,103.4615a7.27917,7.27917,0,0,0-1.87664-5.38322,4.50539,4.50539,0,0,1-1.41689.231v10.73457a2.63479,2.63479,0,0,0,2.20633-1.14835,7.38725,7.38725,0,0,0,1.0872-4.434m-.69247-11.09535q0-2.98922-2.60106-3.08539v6.13892q2.60448-.06658,2.60106-3.05353m4.24611,11.09535q0,4.56492-2.43564,6.69887a7.62993,7.62993,0,0,1-5.16447,1.67073h-2.73339v-25.341h2.79614a7.55456,7.55456,0,0,1,4.57466,1.34524,5.947,5.947,0,0,1,.26239,8.96255,6.72274,6.72274,0,0,1,1.7135,2.19767,10.01673,10.01673,0,0,1,.98681,4.46591"/><path class="cls-2" d="M257.68068,111.83167h-8.19333V86.48957h3.48747v22.55489h4.70586Z"/><path class="cls-2" d="M264.1961,111.83146h-3.49V86.48913h3.49Z"/><path class="cls-2" d="M276.70239,111.76941a6.10787,6.10787,0,0,1-1.71351.2299q-6.97834,0-6.97607-12.86965,0-12.80535,6.97608-12.80706a6.14881,6.14881,0,0,1,1.7135.23218v2.72575a8.23274,8.23274,0,0,0-1.18531-.16275q-3.9803,0-3.97916,10.01188,0,10.0756,4.04647,10.079a7.16256,7.16256,0,0,0,1.118-.13088Z"/><path class="cls-2" d="M285.38991,104.54406l-1.38152-10.60141-1.38381,10.60141Zm4.245,7.28727h-3.25816l-.62175-4.4955h-3.49089l-.59322,4.4955h-3.09275l3.85025-25.341h3.35627Z"/><path class="cls-2" d="M301.48167,89.28076H298.09V111.8311H294.6037V89.28076h-3.38936V86.49013h10.26733Z"/><path class="cls-2" d="M307.99879,111.83146h-3.49V86.48913h3.49Z"/><path class="cls-2" d="M319.87947,99.16141q0-10.04487-2.2725-10.04374-2.26908,0-2.27022,10.04374,0,10.04489,2.27022,10.04716,2.2725,0,2.2725-10.04716m3.48747,0q0,7.45513-1.84356,10.53882a4.2981,4.2981,0,0,1-3.91641,2.299,4.368,4.368,0,0,1-3.94836-2.299q-1.84128-3.08482-1.84241-10.53882,0-7.45171,1.84241-10.53768a4.368,4.368,0,0,1,3.94836-2.30124,4.29811,4.29811,0,0,1,3.91641,2.30124q1.84641,3.08142,1.84356,10.53768"/><path class="cls-2" d="M337.9454,111.83167h-1.67814L330.57232,97.3903v14.44137h-3.35285V86.48957h1.67471l5.65958,14.54265V86.48957h3.39164Z"/><path class="cls-2" d="M350.9444,105.46206a6.40544,6.40544,0,0,1-1.94053,4.99285,6.01711,6.01711,0,0,1-4.18222,1.5444,6.20658,6.20658,0,0,1-3.42016-.88658l1.21839-2.46285a4.28213,4.28213,0,0,0,2.20177.52466,2.38834,2.38834,0,0,0,1.77967-.78984,3.66448,3.66448,0,0,0,.85561-2.5926q0-2.71948-2.8315-6.72845a24.04786,24.04786,0,0,1-2.36833-3.989,8.47291,8.47291,0,0,1-.69362-3.40064,5.23786,5.23786,0,0,1,1.46595-3.90369A5.34865,5.34865,0,0,1,346.963,86.3226a4.965,4.965,0,0,1,2.72882.659l-1.183,2.4287a3.98644,3.98644,0,0,0-1.58-.32891,1.79294,1.79294,0,0,0-1.39864.61,2.3381,2.3381,0,0,0-.54188,1.62293,5.84685,5.84685,0,0,0,.75522,2.69161,24.66732,24.66732,0,0,0,1.90972,3.02052,24.85933,24.85933,0,0,1,2.43564,4.13927,11.14015,11.14015,0,0,1,.85561,4.29634"/><path class="cls-2" d="M39.80515,71H63.72V96.094c1.37012-8.26944,2.5463-16.72895,3.81945-25.094h23.916v40.999H68.88678V76.82481Q66.12317,94.289,63.60824,111.999H41.15587V75.3669C38.72594,87.47857,36.563,99.844,34.18778,111.999H32.0556q3.83657-20.31169,7.63547-40.66209c-.01027-.16274-.01711-.31752.11408-.33687"/></g></g></svg>