<svg xmlns="http://www.w3.org/2000/svg" viewBox="0 0 672 206"><defs><style>.cls-1,.cls-10{fill:#fff;}.cls-1,.cls-11,.cls-12,.cls-13,.cls-14,.cls-3,.cls-5,.cls-9{stroke:#242424;}.cls-1,.cls-11,.cls-12,.cls-13,.cls-14,.cls-3,.cls-5,.cls-6,.cls-9{stroke-miterlimit:10;}.cls-1,.cls-11,.cls-12,.cls-13,.cls-14,.cls-3,.cls-9{stroke-width:2px;}.cls-2{fill:#7ed257;}.cls-11,.cls-12,.cls-13,.cls-14,.cls-15,.cls-3{fill:none;}.cls-4,.cls-5,.cls-9{fill:#28b655;}.cls-5,.cls-6{stroke-width:3px;}.cls-5,.cls-9{opacity:0.4;}.cls-6,.cls-7{fill:#242424;}.cls-6{stroke:#28b655;}.cls-8{opacity:0.1;}.cls-11{stroke-dasharray:4.91429 4.91429;}.cls-12{stroke-dasharray:4.87805 4.87805;}.cls-13{stroke-dasharray:4.98507 4.98507;}.cls-14{stroke-dasharray:5;}</style></defs><title>mission_1</title><g id="Layer_2" data-name="Layer 2"><g id="Layer_1-2" data-name="Layer 1"><path class="cls-1" d="M481.91256,194h-60c1.38234-1,3-3.2074,3-4.8111q0-13.09444,0-26.1889h54v26.0658C478.91256,190.71053,480.66256,193,481.91256,194Z"/><rect class="cls-1" x="345.29372" y="15" width="213" height="148" rx="7" ry="7"/><rect class="cls-2" x="355" y="41" width="194" height="46"/><rect class="cls-3" x="354.79372" y="24" width="194" height="117"/><rect class="cls-4" x="397" y="29" width="20" height="7" rx="3.5" ry="3.5"/><line class="cls-5" x1="432" y1="32.5" x2="507" y2="32.5"/><line class="cls-5" x1="428" y1="61.5" x2="476" y2="61.5"/><line class="cls-5" x1="397" y1="95.5" x2="507" y2="95.5"/><line class="cls-5" x1="397" y1="105.5" x2="507" y2="105.5"/><line class="cls-5" x1="397" y1="115.5" x2="507" y2="115.5"/><line class="cls-5" x1="397" y1="125.5" x2="507" y2="125.5"/><rect class="cls-1" x="526" y="113.16667" width="128" height="81" rx="6" ry="6"/><rect class="cls-1" x="534" y="118.16667" width="112" height="71"/><line class="cls-1" x1="650" y1="144.66667" x2="650" y2="162.66667"/><rect class="cls-2" x="544" y="128" width="24" height="24"/><rect class="cls-2" x="578" y="128" width="24" height="24"/><rect class="cls-2" x="612" y="128" width="24" height="24"/><line class="cls-5" x1="544" y1="159" x2="636" y2="159"/><line class="cls-5" x1="544" y1="166" x2="636" y2="166"/><line class="cls-6" x1="544" y1="173" x2="636" y2="173"/><line class="cls-6" x1="544" y1="180" x2="603" y2="180"/><path class="cls-1" d="M218.875,66h160a7,7,0,0,1,7,7V188a0,0,0,0,1,0,0h-174a0,0,0,0,1,0,0V73A7,7,0,0,1,218.875,66Z"/><path class="cls-1" d="M204.471,188H393.275a1.6,1.6,0,0,1,1.6,1.6V191a3,3,0,0,1-3,3h-186a3,3,0,0,1-3-3v-1.404A1.596,1.596,0,0,1,204.471,188Z"/><rect class="cls-1" x="218.375" y="73" width="161" height="109"/><path class="cls-7" d="M277.875,190.5a1.5,1.5,0,0,1,0-3h42a1.5,1.5,0,0,1,0,3Z"/><path class="cls-7" d="M319.875,188a1,1,0,0,1,0,2h-42a1,1,0,0,1,0-2h42m0-1h-42a2,2,0,0,0,0,4h42a2,2,0,0,0,0-4Z"/><rect class="cls-2" x="226" y="81" width="73" height="46"/><rect class="cls-4" x="306" y="81" width="14" height="14"/><line class="cls-5" x1="324" y1="84.5" x2="372" y2="84.5"/><line class="cls-5" x1="324" y1="91.5" x2="372" y2="91.5"/><rect class="cls-4" x="306" y="101" width="14" height="14"/><line class="cls-5" x1="324" y1="104.5" x2="372" y2="104.5"/><line class="cls-5" x1="324" y1="111.5" x2="372" y2="111.5"/><rect class="cls-4" x="306" y="121" width="14" height="14"/><line class="cls-5" x1="324" y1="124.5" x2="372" y2="124.5"/><line class="cls-5" x1="324" y1="131.5" x2="372" y2="131.5"/><rect class="cls-4" x="306" y="141" width="14" height="14"/><line class="cls-5" x1="324" y1="144.5" x2="372" y2="144.5"/><line class="cls-5" x1="324" y1="151.5" x2="372" y2="151.5"/><rect class="cls-4" x="306" y="161" width="14" height="14"/><line class="cls-5" x1="324" y1="164.5" x2="372" y2="164.5"/><line class="cls-5" x1="324" y1="171.5" x2="372" y2="171.5"/><line class="cls-5" x1="226" y1="133.5" x2="298.5" y2="133.5"/><line class="cls-5" x1="226" y1="140.5" x2="298.5" y2="140.5"/><line class="cls-5" x1="226" y1="147.5" x2="298.5" y2="147.5"/><line class="cls-5" x1="226" y1="154.5" x2="262.5" y2="154.5"/><rect class="cls-1" x="184" y="119" width="38" height="75" rx="5.67773" ry="5.67773"/><rect class="cls-1" x="187" y="127" width="32" height="61"/><line class="cls-1" x1="200" y1="123" x2="206" y2="123"/><g class="cls-8"><rect class="cls-7" x="189" y="134" width="28" height="9"/></g><rect class="cls-2" x="190" y="135" width="7" height="7"/><line class="cls-9" x1="198" y1="136" x2="216" y2="136"/><line class="cls-9" x1="198" y1="139" x2="216" y2="139"/><rect class="cls-4" x="198" y="130" width="11" height="2" rx="1" ry="1"/><g class="cls-8"><rect class="cls-7" x="189" y="145" width="28" height="9"/></g><rect class="cls-2" x="190" y="146" width="7" height="7"/><line class="cls-9" x1="198" y1="147" x2="216" y2="147"/><line class="cls-9" x1="198" y1="150" x2="216" y2="150"/><g class="cls-8"><rect class="cls-7" x="189" y="156" width="28" height="9"/></g><rect class="cls-2" x="190" y="157" width="7" height="7"/><line class="cls-9" x1="198" y1="158" x2="216" y2="158"/><line class="cls-9" x1="198" y1="161" x2="216" y2="161"/><g class="cls-8"><rect class="cls-7" x="189" y="167" width="28" height="9"/></g><rect class="cls-2" x="190" y="168" width="7" height="7"/><line class="cls-9" x1="198" y1="169" x2="216" y2="169"/><line class="cls-9" x1="198" y1="172" x2="216" y2="172"/><g class="cls-8"><rect class="cls-7" x="189" y="178" width="28" height="9"/></g><rect class="cls-2" x="190" y="179" width="7" height="7"/><line class="cls-9" x1="198" y1="180" x2="216" y2="180"/><line class="cls-9" x1="198" y1="183" x2="216" y2="183"/><line class="cls-10" x1="177" y1="156" y2="156"/><line class="cls-3" x1="177" y1="156" x2="174.5" y2="156"/><line class="cls-11" x1="169.58571" y1="156" x2="4.95714" y2="156"/><line class="cls-3" x1="2.5" y1="156" y2="156"/><line class="cls-10" x1="205" y1="108" y2="108"/><line class="cls-3" x1="205" y1="108" x2="202.5" y2="108"/><line class="cls-12" x1="197.62195" y1="108" x2="4.93902" y2="108"/><line class="cls-3" x1="2.5" y1="108" y2="108"/><line class="cls-10" x1="339" y1="53" y2="53"/><line class="cls-3" x1="339" y1="53" x2="336.5" y2="53"/><line class="cls-13" x1="331.51492" y1="53" x2="4.99254" y2="53"/><line class="cls-3" x1="2.5" y1="53" y2="53"/><line class="cls-14" x1="565" y1="35" x2="583" y2="35"/><line class="cls-14" x1="602" y1="108" x2="602" y2="56"/><path class="cls-14" d="M602,53a17.98965,17.98965,0,0,0-18-18"/><line class="cls-10" x1="339" y1="35" y2="35"/><line class="cls-3" x1="339" y1="35" x2="336.5" y2="35"/><line class="cls-13" x1="331.51492" y1="35" x2="4.99254" y2="35"/><line class="cls-3" x1="2.5" y1="35" y2="35"/><rect class="cls-15" width="672" height="206"/><line class="cls-3" x1="89" y1="119" x2="69" y2="119"/><line class="cls-3" x1="327" y1="40" x2="292" y2="40"/><line class="cls-3" x1="201" y1="60" x2="166" y2="60"/><line class="cls-3" x1="43" y1="166" x2="8" y2="166"/><line class="cls-3" x1="61" y1="119" x2="26" y2="119"/><line class="cls-3" x1="38" y1="46" x2="18" y2="46"/><line class="cls-3" x1="136" y1="29" x2="95" y2="29"/><line class="cls-3" x1="89" y1="29" x2="74" y2="29"/><line class="cls-3" x1="608" y1="95" x2="608" y2="73"/><path class="cls-3" d="M595,58c0-12-4-15-16-15"/><line class="cls-3" x1="130" y1="101" x2="115" y2="101"/><line class="cls-3" x1="119" y1="148" x2="99" y2="148"/><line class="cls-3" x1="12" y1="18" x2="12" y2="24"/><line class="cls-3" x1="9" y1="21" x2="15" y2="21"/><line class="cls-3" x1="80" y1="61" x2="80" y2="67"/><line class="cls-3" x1="77" y1="64" x2="83" y2="64"/><line class="cls-3" x1="35" y1="94" x2="35" y2="100"/><line class="cls-3" x1="32" y1="97" x2="38" y2="97"/><line class="cls-3" x1="20" y1="72" x2="20" y2="78"/><line class="cls-3" x1="17" y1="75" x2="23" y2="75"/><line class="cls-3" x1="53" y1="138" x2="53" y2="144"/><line class="cls-3" x1="50" y1="141" x2="56" y2="141"/><line class="cls-3" x1="24" y1="176" x2="24" y2="182"/><line class="cls-3" x1="21" y1="179" x2="27" y2="179"/><rect class="cls-3" x="13" y="130" width="6" height="6" transform="translate(98.73149 27.64109) rotate(45)"/><rect class="cls-3" x="47" y="75" width="6" height="6" transform="translate(69.79899 -12.50967) rotate(45)"/><rect class="cls-3" x="36" y="191" width="6" height="6" transform="translate(148.60155 29.24412) rotate(45)"/><rect class="cls-3" x="25" y="7" width="6" height="6" transform="translate(15.27208 -16.87006) rotate(45)"/><line class="cls-3" x1="121" y1="167" x2="121" y2="173"/><line class="cls-3" x1="118" y1="170" x2="124" y2="170"/></g></g></svg>