<svg id="Layer_1" data-name="Layer 1" xmlns="http://www.w3.org/2000/svg" xmlns:xlink="http://www.w3.org/1999/xlink" viewBox="0 0 672 206"><defs><style>.cls-1,.cls-13,.cls-19,.cls-3,.cls-4,.cls-5,.cls-6,.cls-7{fill:none;}.cls-2,.cls-8{fill:#fff;}.cls-11,.cls-12,.cls-19,.cls-3,.cls-4,.cls-5,.cls-6,.cls-7,.cls-8{stroke:#242424;stroke-width:2px;}.cls-11,.cls-12,.cls-13,.cls-19,.cls-3,.cls-4,.cls-5,.cls-6,.cls-7,.cls-8{stroke-miterlimit:10;}.cls-4{stroke-dasharray:4.93939 4.93939;}.cls-5{stroke-dasharray:4.98347 4.98347;}.cls-6{stroke-dasharray:5.02913 5.02913;}.cls-7{stroke-dasharray:5.02439 5.02439;}.cls-11,.cls-9{fill:#7ed257;}.cls-10,.cls-12{fill:#28b655;}.cls-13{stroke:#28b655;stroke-width:5px;}.cls-14{clip-path:url(#clip-path);}.cls-15{fill:#242424;}.cls-16{clip-path:url(#clip-path-3);}.cls-17{clip-path:url(#clip-path-5);}.cls-18{clip-path:url(#clip-path-7);}.cls-19{stroke-dasharray:5;}</style><clipPath id="clip-path"><rect class="cls-1" x="426.5" y="20.5" width="29" height="29"/></clipPath><clipPath id="clip-path-3"><rect class="cls-1" x="17" y="147" width="50" height="50"/></clipPath><clipPath id="clip-path-5"><rect class="cls-1" x="457" y="136" width="40" height="40"/></clipPath><clipPath id="clip-path-7"><rect class="cls-1" x="106" y="33" width="39" height="39"/></clipPath></defs><title>strategy</title><line class="cls-2" x1="672.00004" y1="156.00016" x2="504" y2="156"/><line class="cls-3" x1="672.00006" y1="156.00015" x2="669.50006" y2="156.00015"/><line class="cls-4" x1="664.56067" y1="156.00015" x2="508.9697" y2="156"/><line class="cls-3" x1="506.5" y1="156" x2="504" y2="156"/><line class="cls-3" x1="672.00006" y1="108.00016" x2="669.50006" y2="108.00016"/><line class="cls-5" x1="664.51654" y1="108.00016" x2="68.99174" y2="108.00016"/><line class="cls-3" x1="66.5" y1="108.00016" x2="64" y2="108.00016"/><line class="cls-3" x1="672" y1="53" x2="669.5" y2="53"/><line class="cls-6" x1="664.47089" y1="53" x2="154.01456" y2="53"/><line class="cls-3" x1="151.5" y1="53" x2="149" y2="53"/><line class="cls-2" x1="672.00004" y1="35.00016" x2="461" y2="35"/><line class="cls-3" x1="672.00006" y1="35.00016" x2="669.50006" y2="35.00016"/><line class="cls-7" x1="664.47565" y1="35.00015" x2="466.01221" y2="35"/><line class="cls-3" x1="463.5" y1="35" x2="461" y2="35"/><line class="cls-3" x1="629" y1="98" x2="609" y2="98"/><line class="cls-3" x1="637" y1="40" x2="602" y2="40"/><line class="cls-3" x1="561" y1="60" x2="526" y2="60"/><line class="cls-3" x1="613" y1="166" x2="578" y2="166"/><line class="cls-3" x1="601" y1="98" x2="566" y2="98"/><line class="cls-3" x1="508" y1="46" x2="488" y2="46"/><line class="cls-3" x1="608" y1="29" x2="567" y2="29"/><line class="cls-3" x1="559" y1="29" x2="544" y2="29"/><line class="cls-3" x1="500" y1="116" x2="485" y2="116"/><line class="cls-3" x1="529" y1="148" x2="509" y2="148"/><line class="cls-3" x1="578" y1="179" x2="578" y2="185"/><line class="cls-3" x1="575" y1="182" x2="581" y2="182"/><line class="cls-3" x1="596" y1="82" x2="596" y2="88"/><line class="cls-3" x1="593" y1="85" x2="599" y2="85"/><line class="cls-3" x1="623" y1="21" x2="623" y2="27"/><line class="cls-3" x1="620" y1="24" x2="626" y2="24"/><line class="cls-3" x1="626" y1="72" x2="626" y2="78"/><line class="cls-3" x1="623" y1="75" x2="629" y2="75"/><line class="cls-3" x1="661" y1="43" x2="661" y2="49"/><line class="cls-3" x1="658" y1="46" x2="664" y2="46"/><line class="cls-3" x1="649" y1="122" x2="649" y2="128"/><line class="cls-3" x1="646" y1="125" x2="652" y2="125"/><rect class="cls-3" x="567" y="65" width="6" height="6" transform="translate(215.0324 -383.13413) rotate(45)"/><rect class="cls-3" x="657" y="91" width="6" height="6" transform="translate(259.77756 -439.15851) rotate(45)"/><rect class="cls-3" x="611" y="137" width="6" height="6" transform="translate(278.83139 -393.15851) rotate(45)"/><rect class="cls-3" x="643" y="18" width="6" height="6" transform="translate(204.05826 -450.64022) rotate(45)"/><line class="cls-3" x1="637" y1="189" x2="637" y2="195"/><line class="cls-3" x1="634" y1="192" x2="640" y2="192"/><path class="cls-8" d="M195,97.5a29.45092,29.45092,0,0,1-12,23.75V135H96v-.01c-.17.01-.33.01-.5.01a10.49847,10.49847,0,0,1-4.27-20.09A12.78926,12.78926,0,0,1,91,112.5,12.50453,12.50453,0,0,1,103.5,100a12.33679,12.33679,0,0,1,6.74,1.98A19.0088,19.0088,0,0,1,129,86a18.67228,18.67228,0,0,1,8.56,2.05A29.49684,29.49684,0,0,1,195,97.5Z"/><polygon class="cls-8" points="195 47.75 195 132 275 132 275 26 217.25 26 195 47.75"/><polygon class="cls-9" points="217 27.417 217 48 195 48 217 27.417"/><line class="cls-3" x1="195" y1="48" x2="217" y2="48"/><polygon class="cls-3" points="195 47.75 195 132 275 132 275 26 217.25 26 195 47.75"/><line class="cls-3" x1="217" y1="26" x2="217" y2="49"/><rect class="cls-8" x="148.75" y="82" width="86" height="55"/><polygon class="cls-10" points="164 109 176 114 188 100 214 124 230 120.5 230 133 153 133 164 109"/><polygon class="cls-3" points="230.25 133 153.25 133 153.25 127 153.25 86 230.25 86 230.25 133"/><polygon class="cls-11" points="406 58 406 120 310 120 310 58 358 35 406 58"/><line class="cls-3" x1="406" y1="58" x2="310" y2="58"/><polygon class="cls-8" points="400 45 400 61.88 358 89 315 61.23 315 45 400 45"/><line class="cls-3" x1="406" y1="58" x2="400" y2="61.88"/><line class="cls-3" x1="358" y1="89" x2="310" y2="120"/><line class="cls-3" x1="406" y1="120" x2="358" y2="89"/><line class="cls-3" x1="315" y1="61.23" x2="310" y2="58"/><path class="cls-8" d="M479,122.5c0,5.8-4.7,11.5-10.5,11.5-.17,0-.33,0-.5-.01V134H366v-5.04a14,14,0,0,1-2.42-27.54A21.49565,21.49565,0,0,1,383.5,88a20.79659,20.79659,0,0,1,5.14.63A27.49655,27.49655,0,0,1,443,94.5a25.30336,25.30336,0,0,1-.13,2.63A16.68348,16.68348,0,0,1,445,97a17.99,17.99,0,0,1,17.94,16.6A10.49121,10.49121,0,0,1,479,122.5Z"/><rect class="cls-12" x="378" y="87" width="21" height="47"/><path class="cls-8" d="M390.98138,126.1429a16.80257,16.80257,0,0,1-16.80723,16.80723H187.71892c-.17856,0-.34667,0-.52523-.01051a15.22722,15.22722,0,0,1-7.18512-28.35169,19.69791,19.69791,0,0,1-.168-2.62613,21.5293,21.5293,0,0,1,31.398-19.1392,29.94468,29.94468,0,0,1,44.61266-14.13911A39.9166,39.9166,0,1,1,334.32,92.98012a20.49483,20.49483,0,0,1,30.40008,17.93122c0,.17856,0,.35718-.01051.52523,0,.28364-.021.56722-.042.84035a14.0026,14.0026,0,0,1,1.36557-.84035,16.8106,16.8106,0,0,1,24.94823,14.70633Z"/><rect class="cls-11" x="409" y="63" width="21" height="71"/><path class="cls-8" d="M319.75,139.125a6.00907,6.00907,0,0,1-6,6h-2.72a24.99476,24.99476,0,0,1-3.01,7.28l1.92,1.92a6.00334,6.00334,0,0,1-8.49,8.49l-1.92-1.92a24.99476,24.99476,0,0,1-7.28,3.01v2.72a6,6,0,0,1-12,0v-2.72a24.99476,24.99476,0,0,1-7.28-3.01l-1.92,1.92a6.00334,6.00334,0,0,1-8.49-8.49l1.92-1.92a24.99476,24.99476,0,0,1-3.01-7.28h-2.72a6,6,0,0,1,0-12h2.72a24.99476,24.99476,0,0,1,3.01-7.28l-1.92-1.92a6.00334,6.00334,0,0,1,8.49-8.49l1.92,1.92a24.99476,24.99476,0,0,1,7.28-3.01v-2.72a6,6,0,0,1,12,0v2.72a24.99476,24.99476,0,0,1,7.28,3.01l1.92-1.92a6.00334,6.00334,0,0,1,8.49,8.49l-1.92,1.92a24.99476,24.99476,0,0,1,3.01,7.28h2.72A6.01766,6.01766,0,0,1,319.75,139.125Z"/><circle class="cls-13" cx="286.25" cy="139.125" r="17"/><circle class="cls-9" cx="286.25" cy="139.125" r="7.5"/><g id="Artwork_2" data-name="Artwork 2"><g class="cls-14"><g class="cls-14"><path class="cls-9" d="M451.198,45.198c-5.66225,5.6627-15.30248,5.20323-20.34577.16041-3.04409-3.04364-3.44737-12.62814,2.21533-18.29084s15.56756-4.93906,18.29084-2.21533c5.04283,5.04328,5.5023,14.68352-.1604,20.34577"/><path class="cls-15" d="M441,21.85938A13.14063,13.14063,0,1,1,427.85938,35,13.14049,13.14049,0,0,1,441,21.85938M441,20.5A14.5,14.5,0,1,0,455.5,35,14.50006,14.50006,0,0,0,441,20.5"/><path class="cls-2" d="M437.09071,38.34356a40.15171,40.15171,0,0,1-4.17509-2.52572,7.6964,7.6964,0,0,1-.66972-.46762.83013.83013,0,0,1-.00906-.1382v-.135c0-.0213.048-.09878.19575-.20119,1.35983-.95156,2.89456-1.91083,4.56614-2.85423a1.74224,1.74224,0,0,1-.32942.33894c-.09516.06117-.48983.31266-1.17858.75128-.78209.49844-1.36844.86456-1.74272,1.0875-.72681.43364-.89991.5365-.89991.93751,0,.3915,0,.3915,1.35711,1.24156.70823.44452,1.24564.77077,1.64348.99914a8.00415,8.00415,0,0,1,.79523.50388,1.60808,1.60808,0,0,1,.44678.46219"/><path class="cls-15" d="M437.37944,31.14246a1.53139,1.53139,0,0,0-.63211.24061q-2.595,1.46-4.70162,2.934a.94357.94357,0,0,0-.48892.75989v.135a.8334.8334,0,0,0,.15044.56414,5.44923,5.44923,0,0,0,.83511.60945q4.25009,2.7908,4.92,2.7908.34528,0,.34573-.71413a1.53131,1.53131,0,0,0-.75219-1.12148,8.71344,8.71344,0,0,0-.86864-.55281q-.58317-.33441-1.62128-.98509-1.03788-.65046-1.03811-.66609.27527-.19031.56776-.35344.56822-.33848,1.76039-1.09837,1.19217-.75921,1.21483-.77484a1.46172,1.46172,0,0,0,.677-1.03041q0-.73746-.36839-.73724"/><path class="cls-2" d="M439.18927,40.10563c.27686-.83692,1.25652-3.37306,4.33323-10.55373a.897.897,0,0,1,.12552-.2175l-.00453.01042c-.14138.32625-.23064.546-.26825.657-.02628.07748-.04622.13322-.06072.16675l-.28048.69872q-.28547.6593-.38787.942c-.04712.13-.07613.21025-.08881.242l.01586-.034c-.02764.06027-.14137.33622-1.45951,3.586-1.17178,2.88777-1.50891,3.70566-1.58548,3.88373a3.017,3.017,0,0,1-.33894.61852"/><path class="cls-15" d="M443.71032,28.60736q-.51928,0-.81245.677-4.4839,10.46379-4.48367,11.15594v.11283q0,.263.61716.26327h.25556q.399,0,.865-1.06077.16584-.38334,1.59137-3.89688,1.4253-3.51262,1.43641-3.53528c.00816-.015.043-.1092.10558-.28184q.0938-.25964.37972-.92166l.271-.677c.01994-.04531.048-.11917.08292-.222s.11736-.3045.24831-.60537a1.9706,1.9706,0,0,0,.1953-.61716v-.12008q0-.2712-.75219-.271"/><path class="cls-2" d="M445.77906,38.24931a2.23588,2.23588,0,0,1,.34256-.32172c.04441-.03217.32036-.21478,1.78939-1.10381,2.04269-1.23612,2.04269-1.23612,2.04269-1.64937,0-.40736,0-.40736-2.05764-1.69016-1.49667-.93253-1.77715-1.12284-1.82836-1.16136a1.27415,1.27415,0,0,1-.275-.29181l.0503.02809a45.119,45.119,0,0,1,4.50316,2.828.30781.30781,0,0,1,.14364.28728c0,.08428-.01314.16856-.17445.27459-1.561,1.05714-3.08306,1.99737-4.53623,2.80031"/><path class="cls-15" d="M445.43745,31.11237q-.42141,0-.42141.6167a1.455,1.455,0,0,0,.63211,1.12873q.15089.12031,1.88817,1.2035,1.73728,1.08342,1.73773,1.11333,0,.02991-1.71508,1.068-1.71553,1.03788-1.85827,1.15094-.70688.55666-.70687,1.02316v.12778q0,.62463.36839.62441a1.258,1.258,0,0,0,.49662-.188q2.33133-1.271,4.82941-2.96344a.96635.96635,0,0,0,.48122-.84281.98149.98149,0,0,0-.421-.83511,45.54472,45.54472,0,0,0-4.57384-2.87372,3.15452,3.15452,0,0,0-.73723-.35344"/></g></g></g><g id="Artwork_2-2" data-name="Artwork 2"><g class="cls-16"><g class="cls-16"><path class="cls-9" d="M59.58274,189.58273c-9.7625,9.76328-26.38359,8.97109-35.07891.27656-5.24844-5.24766-5.94375-21.77266,3.81953-31.53594s26.84062-8.51562,31.53594-3.81953c8.69453,8.69531,9.48672,25.31641-.27656,35.07891"/><path class="cls-15" d="M42,149.34375A22.65625,22.65625,0,1,1,19.34375,172,22.656,22.656,0,0,1,42,149.34375M42,147a25,25,0,1,0,25,25,25.00011,25.00011,0,0,0-25-25"/><path class="cls-2" d="M35.25984,177.76477a69.22706,69.22706,0,0,1-7.19844-4.35469,13.26966,13.26966,0,0,1-1.15469-.80625,1.43127,1.43127,0,0,1-.01562-.23828v-.23281c0-.03672.08281-.17031.3375-.34687,2.34453-1.64063,4.99062-3.29453,7.87266-4.92109a3.00386,3.00386,0,0,1-.568.58437c-.16406.10547-.84453.53906-2.032,1.29531-1.34844.85938-2.35938,1.49063-3.00469,1.875-1.25313.74766-1.55156.925-1.55156,1.6164,0,.675,0,.675,2.33984,2.14062,1.22109.76641,2.14766,1.32891,2.83359,1.72266a13.80025,13.80025,0,0,1,1.37109.86875,2.77256,2.77256,0,0,1,.77031.79687"/><path class="cls-15" d="M35.75766,165.34906a2.64033,2.64033,0,0,0-1.08984.41485q-4.47422,2.51719-8.10625,5.05859a1.62685,1.62685,0,0,0-.843,1.31016v.23281a1.43689,1.43689,0,0,0,.25938.97266,9.39522,9.39522,0,0,0,1.43984,1.05078q7.32773,4.81172,8.48281,4.81172.59531,0,.59609-1.23125a2.64019,2.64019,0,0,0-1.29687-1.93359,15.02316,15.02316,0,0,0-1.49766-.95313q-1.00547-.57656-2.79531-1.69844-1.78945-1.12148-1.78984-1.14844.47461-.32813.9789-.60938.97969-.58359,3.03516-1.89375,2.05547-1.309,2.09453-1.33594a2.52021,2.52021,0,0,0,1.16719-1.77656q0-1.27148-.63516-1.2711"/><path class="cls-2" d="M38.878,180.80281c.47734-1.443,2.16641-5.81562,7.47109-18.19609a1.5466,1.5466,0,0,1,.21641-.375l-.00781.018c-.24375.5625-.39766.94141-.4625,1.13281-.04531.13359-.07969.22969-.10469.2875l-.48359,1.20469q-.49219,1.13672-.66875,1.62422c-.08125.22422-.13125.3625-.15313.41719l.02734-.05859c-.04765.10391-.24375.57969-2.5164,6.18281-2.02031,4.97891-2.60156,6.38906-2.73359,6.69609a5.20177,5.20177,0,0,1-.58437,1.06641"/><path class="cls-15" d="M46.673,160.9782q-.89532,0-1.40078,1.16719-7.73086,18.041-7.73047,19.23437v.19453q0,.45351,1.06406.45391h.44062q.68789,0,1.49141-1.82891.28594-.66094,2.74375-6.71875,2.45742-6.05625,2.47656-6.09531c.01406-.02578.07422-.18828.182-.48594q.16172-.44766.65469-1.58906L47.062,164.143c.03438-.07813.08281-.20547.143-.38281s.20234-.525.42812-1.04375a3.39758,3.39758,0,0,0,.33672-1.06406v-.207q0-.46758-1.29687-.46719"/><path class="cls-2" d="M50.23977,177.60227a3.855,3.855,0,0,1,.59062-.55469c.07656-.05547.55234-.37031,3.08516-1.90313,3.52187-2.13125,3.52187-2.13125,3.52187-2.84375,0-.70234,0-.70234-3.54766-2.91406-2.58047-1.60781-3.06406-1.93594-3.15234-2.00235a2.1968,2.1968,0,0,1-.47422-.50312l.08672.04844a77.79143,77.79143,0,0,1,7.76406,4.87578.53071.53071,0,0,1,.24766.49531c0,.14531-.02266.29062-.30078.47344-2.69141,1.82266-5.31563,3.44375-7.82109,4.82812"/><path class="cls-15" d="M49.65078,165.29719q-.72657,0-.72656,1.06328a2.50855,2.50855,0,0,0,1.08984,1.94609q.26016.20742,3.25547,2.075,2.99531,1.868,2.99609,1.91953,0,.05156-2.957,1.84141-2.95781,1.78945-3.20391,1.98438-1.21875.95976-1.21875,1.76406v.22031q0,1.077.63516,1.07656a2.1689,2.1689,0,0,0,.85625-.32422q4.01953-2.19141,8.32656-5.10937a1.66612,1.66612,0,0,0,.82969-1.45313,1.69222,1.69222,0,0,0-.72578-1.43984,78.52537,78.52537,0,0,0-7.88594-4.95469,5.43883,5.43883,0,0,0-1.27109-.60938"/></g></g></g><g id="Artwork_2-3" data-name="Artwork 2"><g class="cls-17"><g class="cls-17"><path class="cls-9" d="M491.06619,170.06619c-7.81,7.81062-21.10687,7.17687-28.06313.22125-4.19875-4.19813-4.755-17.41812,3.05563-25.22875s21.4725-6.8125,25.22875-3.05563c6.95563,6.95625,7.58938,20.25313-.22125,28.06313"/><path class="cls-15" d="M477,137.875A18.125,18.125,0,1,1,458.875,156,18.12481,18.12481,0,0,1,477,137.875M477,136a20,20,0,1,0,20,20,20.00009,20.00009,0,0,0-20-20"/><path class="cls-2" d="M471.60788,160.61181a55.38167,55.38167,0,0,1-5.75875-3.48375,10.61575,10.61575,0,0,1-.92375-.645,1.145,1.145,0,0,1-.0125-.19063v-.18625c0-.02937.06625-.13625.27-.2775,1.87562-1.3125,3.9925-2.63562,6.29812-3.93687a2.40309,2.40309,0,0,1-.45437.4675c-.13125.08438-.67563.43125-1.62562,1.03625-1.07875.6875-1.8875,1.1925-2.40375,1.5-1.0025.59813-1.24125.74-1.24125,1.29312,0,.54,0,.54,1.87187,1.7125.97687.61313,1.71812,1.06313,2.26687,1.37812a11.04022,11.04022,0,0,1,1.09688.695,2.218,2.218,0,0,1,.61625.6375"/><path class="cls-15" d="M472.00613,150.67925a2.11226,2.11226,0,0,0-.87188.33188q-3.57938,2.01375-6.485,4.04687a1.30148,1.30148,0,0,0-.67438,1.04813v.18625a1.14951,1.14951,0,0,0,.2075.77812,7.51619,7.51619,0,0,0,1.15187.84063q5.86219,3.84937,6.78625,3.84937.47625,0,.47688-.985a2.11216,2.11216,0,0,0-1.0375-1.54687,12.01853,12.01853,0,0,0-1.19812-.7625q-.80437-.46125-2.23625-1.35875-1.43156-.89719-1.43187-.91875.37969-.2625.78312-.4875.78375-.46687,2.42813-1.515,1.64437-1.04718,1.67562-1.06875a2.01617,2.01617,0,0,0,.93375-1.42125q0-1.01719-.50812-1.01688"/><path class="cls-2" d="M474.50244,163.04225c.38187-1.15437,1.73312-4.6525,5.97687-14.55687a1.23728,1.23728,0,0,1,.17313-.3l-.00625.01437c-.195.45-.31813.75313-.37.90625-.03625.10687-.06375.18375-.08375.23l-.38687.96375q-.39375.90938-.535,1.29937c-.065.17938-.105.29-.1225.33375l.02187-.04688c-.03812.08313-.195.46375-2.01312,4.94625-1.61625,3.98312-2.08125,5.11125-2.18688,5.35687a4.16141,4.16141,0,0,1-.4675.85312"/><path class="cls-15" d="M480.73837,147.18256q-.71625,0-1.12063.93375-6.18469,14.43281-6.18437,15.3875v.15563q0,.36281.85125.36312h.3525q.55031,0,1.19313-1.46312.22875-.52875,2.195-5.375,1.96594-4.845,1.98125-4.87625c.01125-.02062.05938-.15062.14562-.38875q.12938-.35812.52375-1.27125l.37375-.93375c.0275-.0625.06625-.16438.11438-.30625s.16187-.42.3425-.835a2.71806,2.71806,0,0,0,.26938-.85125v-.16562q0-.37406-1.0375-.37375"/><path class="cls-2" d="M483.59181,160.48181a3.084,3.084,0,0,1,.4725-.44375c.06125-.04437.44188-.29625,2.46813-1.5225,2.8175-1.705,2.8175-1.705,2.8175-2.275,0-.56188,0-.56188-2.83813-2.33125-2.06437-1.28625-2.45125-1.54875-2.52187-1.60188a1.75744,1.75744,0,0,1-.37937-.4025l.06937.03875a62.23316,62.23316,0,0,1,6.21125,3.90062.42457.42457,0,0,1,.19813.39625c0,.11625-.01813.2325-.24063.37875-2.15312,1.45813-4.2525,2.755-6.25687,3.8625"/><path class="cls-15" d="M483.12062,150.63775q-.58125,0-.58125.85063a2.00684,2.00684,0,0,0,.87187,1.55688q.20812.16594,2.60438,1.66,2.39625,1.49437,2.39687,1.53562,0,.04125-2.36563,1.47313-2.36625,1.43156-2.56313,1.5875-.975.76781-.975,1.41125v.17625q0,.86156.50812.86125a1.73512,1.73512,0,0,0,.685-.25938q3.21563-1.75312,6.66125-4.0875a1.3329,1.3329,0,0,0,.66375-1.1625,1.35378,1.35378,0,0,0-.58063-1.15187,62.8203,62.8203,0,0,0-6.30875-3.96375,4.35107,4.35107,0,0,0-1.01687-.4875"/></g></g></g><g id="Artwork_2-4" data-name="Artwork 2"><g class="cls-18"><g class="cls-18"><path class="cls-9" d="M139.21453,66.21453c-7.61475,7.61536-20.5792,6.99745-27.36155.21572-4.09378-4.09317-4.63612-16.98267,2.97923-24.598s20.93569-6.64219,24.598-2.97923c6.78174,6.78234,7.39964,19.7468-.21572,27.36155"/><path class="cls-15" d="M125.5,34.82813A17.67188,17.67188,0,1,1,107.82813,52.5,17.67169,17.67169,0,0,1,125.5,34.82813M125.5,33A19.5,19.5,0,1,0,145,52.5,19.50009,19.50009,0,0,0,125.5,33"/><path class="cls-2" d="M120.24268,56.99652a53.99711,53.99711,0,0,1-5.61478-3.39666,10.35036,10.35036,0,0,1-.90066-.62887,1.1164,1.1164,0,0,1-.01219-.18586v-.18159c0-.02864.06459-.13284.26325-.27056,1.82873-1.27969,3.89269-2.56973,6.14067-3.83845a2.343,2.343,0,0,1-.443.45581c-.128.08227-.65874.42047-1.585,1.01034-1.05178.67031-1.84031,1.16269-2.34366,1.4625-.97744.58317-1.21022.7215-1.21022,1.2608,0,.5265,0,.5265,1.82508,1.66969.95245.5978,1.67517,1.03655,2.2102,1.34367a10.76421,10.76421,0,0,1,1.06945.67763,2.1626,2.1626,0,0,1,.60084.62156"/><path class="cls-15" d="M120.631,47.31227a2.05946,2.05946,0,0,0-.85008.32358q-3.48989,1.96341-6.32287,3.9457a1.26894,1.26894,0,0,0-.65752,1.02192v.18159a1.12078,1.12078,0,0,0,.20231.75867,7.32828,7.32828,0,0,0,1.12308.81961q5.71563,3.75314,6.61659,3.75314.46434,0,.465-.96038a2.05935,2.05935,0,0,0-1.01156-1.5082,11.71808,11.71808,0,0,0-1.16817-.74344q-.78427-.44972-2.18034-1.32478-1.39577-.87476-1.39608-.89578.3702-.25594.76355-.47531.76416-.4552,2.36742-1.47712,1.60327-1.021,1.63373-1.042a1.96576,1.96576,0,0,0,.91041-1.38572q0-.99176-.49542-.99145"/><path class="cls-2" d="M123.06488,59.36619c.37233-1.12551,1.6898-4.53619,5.82745-14.193a1.20635,1.20635,0,0,1,.1688-.2925l-.00609.014c-.19013.43875-.31017.7343-.36075.88359-.03534.1042-.06215.17916-.08166.22425l-.3772.93966q-.38391.88664-.52162,1.26689c-.06338.17489-.10238.28275-.11944.32541l.02133-.0457c-.03717.081-.19012.45216-1.96279,4.82259-1.57584,3.88355-2.02922,4.98347-2.1322,5.223a4.05738,4.05738,0,0,1-.45581.8318"/><path class="cls-15" d="M129.14492,43.903q-.69835,0-1.09261.91041-6.03007,14.072-6.02976,15.00281V59.968q0,.35374.83.354h.34369q.53655,0,1.1633-1.42655.223-.51553,2.14012-5.24063,1.91679-4.72387,1.93172-4.75434c.011-.02011.05789-.14686.142-.379q.12614-.34917.51066-1.23947l.36441-.91041c.02681-.06094.06459-.16027.11152-.29859s.15783-.4095.33394-.81412a2.65011,2.65011,0,0,0,.26264-.83v-.16148q0-.36471-1.01156-.36441"/><path class="cls-2" d="M131.927,56.86977a3.00688,3.00688,0,0,1,.46069-.43266c.05972-.04327.43083-.28884,2.40642-1.48444,2.74706-1.66237,2.74706-1.66237,2.74706-2.21812,0-.54783,0-.54783-2.76717-2.273-2.01276-1.2541-2.39-1.51-2.45883-1.56183a1.71351,1.71351,0,0,1-.36989-.39244l.06764.03778a60.67732,60.67732,0,0,1,6.056,3.80311.414.414,0,0,1,.19317.38634c0,.11334-.01767.22669-.23461.36928-2.0993,1.42167-4.14619,2.68612-6.10045,3.76594"/><path class="cls-15" d="M131.46761,47.27181q-.56672,0-.56672.82936a1.95667,1.95667,0,0,0,.85008,1.518q.20292.16179,2.53927,1.6185,2.33634,1.457,2.337,1.49723,0,.04022-2.30648,1.4363-2.3071,1.39577-2.499,1.54781-.95063.74862-.95062,1.376v.17184q0,.84.49542.83972a1.69174,1.69174,0,0,0,.66787-.25289q3.13523-1.7093,6.49472-3.98531a1.29957,1.29957,0,0,0,.64716-1.13344,1.31993,1.31993,0,0,0-.56611-1.12308,61.24979,61.24979,0,0,0-6.151-3.86466,4.24229,4.24229,0,0,0-.99145-.47531"/></g></g></g><path class="cls-19" d="M59.97931,108A17.98964,17.98964,0,0,0,42,126"/><path class="cls-3" d="M65,116c-12,0-16,3-16,15"/><line class="cls-19" x1="42" y1="126" x2="42" y2="144"/><line class="cls-3" x1="181" y1="47" x2="166" y2="47"/><line class="cls-3" x1="87" y1="101" x2="72" y2="101"/><line class="cls-3" x1="35" y1="84" x2="35" y2="90"/><line class="cls-3" x1="32" y1="87" x2="38" y2="87"/><rect class="cls-3" x="69" y="32" width="6" height="6" transform="translate(45.83705 -40.66043) rotate(45)"/><line class="cls-3" x1="176" y1="165" x2="176" y2="171"/><line class="cls-3" x1="173" y1="168" x2="179" y2="168"/><rect class="cls-3" x="196" y="162" width="6" height="6" transform="translate(174.95837 -92.38687) rotate(45)"/></svg>