<svg xmlns="http://www.w3.org/2000/svg" viewBox="0 0 314.63499 178.1947"><defs><style>.cls-1{fill:#ffad1c;}.cls-2{fill:#242424;}.cls-3{fill:#7ed257;}.cls-4{fill:#fff;}.cls-5{fill:none;stroke:#242424;stroke-linecap:round;stroke-miterlimit:10;stroke-width:9px;}</style></defs><title>mt-awsl</title><g id="Layer_2" data-name="Layer 2"><g id="Layer_1-2" data-name="Layer 1"><path class="cls-1" d="M288.3689,151.9286c-34.56065,34.56065-93.452,31.7958-124.14185,1.10592-18.5245-18.5245-21.01287-77.13937,13.54778-111.7s95.11089-30.13689,111.7-13.54778C320.16469,58.4766,322.92955,117.368,288.3689,151.9286Z"/><path class="cls-2" d="M226.15973,9.53873a80.1807,80.1807,0,1,1-80.1807,80.1807h0a80.23833,80.23833,0,0,1,80.1807-80.1807m0-8.29456A88.47526,88.47526,0,1,0,314.635,89.71943,88.38026,88.38026,0,0,0,226.15973,1.24417Z"/><path class="cls-3" d="M150.68443,150.68443c-34.56065,34.56065-93.452,31.7958-124.14185,1.10592C8.01807,133.26585,5.5297,74.651,40.09035,40.09033s95.11089-29.13689,111.7-12.54778C182.48022,58.23243,185.24508,116.12378,150.68443,150.68443Z"/><path class="cls-2" d="M88.47526,8.29456a80.1807,80.1807,0,1,1-80.1807,80.1807h0a80.23833,80.23833,0,0,1,80.1807-80.1807m0-8.29456a88.47526,88.47526,0,1,0,88.47526,88.47526A88.38026,88.38026,0,0,0,88.47526,0Z"/><path class="cls-4" d="M64.69754,108.93517A215.07325,215.07325,0,0,1,39.26091,93.452c-1.38243-.82946-2.76485-1.93539-4.14728-2.76485V89.02822a3.3114,3.3114,0,0,1,1.10594-1.10594c8.29456-5.80618,17.69506-11.61237,27.925-17.41858a12.77228,12.77228,0,0,1-1.93539,1.93539c-.553.27648-3.04133,1.93539-7.18861,4.70024C50.32034,80.18066,46.726,82.39255,44.51413,83.775c-4.42376,2.76485-5.5297,3.31781-5.5297,5.80618s0,2.48837,8.29456,7.46509c4.42376,2.76485,7.46509,4.70024,9.95346,6.08267a48.09455,48.09455,0,0,1,4.97674,3.04133A12.45476,12.45476,0,0,1,64.69754,108.93517Z"/><path class="cls-2" d="M66.35645,64.974a15.988,15.988,0,0,0-3.8708,1.38243A304.03,304.03,0,0,0,33.73118,84.328a6.2584,6.2584,0,0,0-3.04133,4.70024v.82946a6.56744,6.56744,0,0,0,.82946,3.31781,28.0635,28.0635,0,0,0,4.97674,3.59432c17.41858,11.33589,27.372,17.14207,30.13689,17.14207,1.38243,0,2.21189-1.38243,2.21189-4.42376A9.4237,9.4237,0,0,0,64.1446,102.576a55.07,55.07,0,0,0-5.25322-3.31781c-2.48837-1.38243-5.80618-3.31781-9.95346-6.08267s-6.35917-3.8708-6.35917-4.14728a40.929,40.929,0,0,1,3.59432-2.21189Q49.4909,84.74271,56.956,80.1807c4.97674-3.04133,7.18861-4.70024,7.46509-4.70024a8.53011,8.53011,0,0,0,4.14728-6.35917c0-2.76485-.553-4.14728-2.21191-4.14728Z"/><path class="cls-4" d="M77.41585,119.71809c1.65891-4.97674,7.74159-20.45991,26.54257-64.42106.27648-.553.553-.82946.82946-1.38243h0q-1.2442,2.90308-1.65891,4.14728a2.09,2.09,0,0,0-.27648,1.10594l-1.65891,4.14728q-1.65892,4.14728-2.48837,5.80618a11.62436,11.62436,0,0,1-.553,1.38243v-.27648c-.27648.27648-.82946,1.93539-8.84752,21.84233-7.18861,17.69506-9.124,22.67178-9.677,23.77772A27.63151,27.63151,0,0,1,77.41585,119.71809Z"/><path class="cls-2" d="M105.06437,49.49085q-3.31783,0-4.97674,4.14728-27.372,63.86808-27.372,68.01535v.553c0,1.10594,1.38243,1.65891,3.8708,1.65891H78.2453c1.65891,0,3.31781-2.21189,5.25322-6.35917.553-1.65891,3.8708-9.4005,9.677-23.77772S102.023,72.16261,102.023,72.16261a8.91351,8.91351,0,0,0,.553-1.65891,44.25818,44.25818,0,0,1,2.21189-5.5297l1.65891-4.14728a4.67121,4.67121,0,0,1,.553-1.38243A33.87416,33.87416,0,0,0,108.38216,55.85a9.00024,9.00024,0,0,0,1.10594-3.8708v-.82946c0-1.1059-1.3824-1.65886-4.42374-1.65886Z"/><path class="cls-4" d="M117.5062,108.38219a7.45274,7.45274,0,0,1,2.21189-1.93539c.27648-.27648,1.93539-1.38243,10.78293-6.63565,12.44185-7.46509,12.44185-7.46509,12.44185-9.95346s0-2.48837-12.44183-10.22994c-9.124-5.80618-10.78293-6.91213-11.05941-7.18861l-1.65891-1.65891.27648.27648a304.33455,304.33455,0,0,1,27.372,17.14207,1.97067,1.97067,0,0,1,.82946,1.65891c0,.553,0,1.10594-1.10592,1.65891C135.75424,97.59928,126.63022,103.40546,117.5062,108.38219Z"/><path class="cls-2" d="M115.57082,64.69754c-1.65891,0-2.48837,1.38243-2.48837,3.8708a8.9311,8.9311,0,0,0,3.8708,6.91213q.82944.82944,11.61237,7.46509c7.18863,4.42376,10.50645,6.63565,10.50645,6.91213,0,0-3.59432,2.21189-10.50645,6.63565-6.91213,4.14728-10.78293,6.63565-11.33589,6.91213-2.76485,2.21189-4.42376,4.42376-4.42376,6.35917v.82946c0,2.48837.82946,3.8708,2.21189,3.8708a9.9039,9.9039,0,0,0,3.04133-1.10594c9.4005-5.25322,19.354-11.33589,29.58393-17.97154a6.13342,6.13342,0,0,0,.553-10.23,262.40533,262.40533,0,0,0-27.925-17.41858A11.35561,11.35561,0,0,0,115.57082,64.69754Z"/><line class="cls-5" x1="216.23411" y1="51.6303" x2="245.98602" y2="127.84868"/><line class="cls-5" x1="260.48861" y1="122.16573" x2="245.98602" y2="127.84868"/><line class="cls-5" x1="224.69953" y1="73.31701" x2="191.83085" y2="127.84868"/><line class="cls-5" x1="216.23411" y1="51.59019" x2="201.5253" y2="51.59019"/></g></g></svg>