<svg xmlns="http://www.w3.org/2000/svg" viewBox="0 0 671.17188 231"><defs><style>.cls-1{fill:#7ed257;}.cls-2,.cls-4{fill:#fff;}.cls-3{fill:none;}.cls-3,.cls-4,.cls-7{stroke:#000;stroke-miterlimit:10;}.cls-4{stroke-linecap:round;}.cls-4,.cls-7{stroke-width:2px;}.cls-5,.cls-7{fill:#28b655;}.cls-6{fill:#242424;}</style></defs><title>team_2</title><g id="Layer_2" data-name="Layer 2"><g id="Layer_1-2" data-name="Layer 1"><rect class="cls-1" x="420" y="133" width="8" height="35"/><path d="M429,169H419V132h10Zm-8-2h6V134h-6Z"/><ellipse class="cls-2" cx="457.5" cy="138.5" rx="33.5" ry="44.5"/><path d="M457.5,96c17.36917,0,31.5,19.06541,31.5,42.5S474.86917,181,457.5,181,426,161.93457,426,138.5,440.13083,96,457.5,96m0-2c-18.50153,0-33.5,19.92331-33.5,44.5S438.99847,183,457.5,183,491,163.07666,491,138.5,476.00153,94,457.5,94Z"/><path d="M456,140h-2a5.00589,5.00589,0,0,1,5-5v2A3.00328,3.00328,0,0,0,456,140Z"/><path d="M439.44434,153v-2C446.47363,151,454,146.17773,454,139h2C456,147.374,447.43945,153,439.44434,153Z"/><path d="M439.44434,153a12.222,12.222,0,0,1-12.40723-12h2a10.22169,10.22169,0,0,0,10.40723,10Z"/><path d="M456,139h-2a5.00589,5.00589,0,0,0-5-5v-2A7.00849,7.00849,0,0,1,456,139Z"/><path d="M429,139h-2a7.00849,7.00849,0,0,1,7-7v2A5.00589,5.00589,0,0,0,429,139Z"/><rect x="434" y="132" width="15" height="2"/><rect x="427" y="139" width="2" height="2"/><path d="M464,140h-2a3.00328,3.00328,0,0,0-3-3v-2A5.00589,5.00589,0,0,1,464,140Z"/><path d="M478.55566,153C470.56055,153,462,147.374,462,139h2c0,7.17773,7.52637,12,14.55566,12Z"/><path d="M478.55566,153v-2a10.22169,10.22169,0,0,0,10.40723-10h2A12.222,12.222,0,0,1,478.55566,153Z"/><path d="M464,139h-2a7.00849,7.00849,0,0,1,7-7v2A5.00589,5.00589,0,0,0,464,139Z"/><path d="M491,139h-2a5.00589,5.00589,0,0,0-5-5v-2A7.00849,7.00849,0,0,1,491,139Z"/><rect x="469" y="132" width="15" height="2"/><rect x="489" y="139" width="2" height="2"/><path class="cls-1" d="M493,97c-8-11-20-14-31-14h-.00015A43.157,43.157,0,0,0,440,94a22.91666,22.91666,0,0,0-10,3c-8,4-13,39-10,41,4.04351,2.69567,23-26.63068,23-39,0-1,6.02126,25.383,45,40,8,3-6,25-3.00021,44H498V108Z"/><path d="M493.69922,141.95313c-16.85742-5.32324-39.52148-19.53906-52.57715-43.47412l1.75586-.958c12.77148,23.41406,34.9375,37.31982,51.42285,42.52588Z"/><path d="M420.56934,138.82227l-1.13867-1.64453c14.999-10.38379,20.79785-29.61572,22.59473-37.40283l1.94922.4502C442.125,108.23828,436.14258,128.041,420.56934,138.82227Z"/><path d="M497.01367,108.16455c-1.75-10.502-10.39551-19.11475-22.5625-22.478-10.20215-2.81885-24.415-1.94922-33.68945,8.96094l-1.52344-1.29492c8.2666-9.72705,21.96582-13.40332,35.74609-9.59375,12.9248,3.57275,22.12207,12.79834,24.002,24.07666Z"/><rect x="497" y="108" width="2" height="75"/><rect x="484" y="182" width="15" height="2"/><path d="M421,139h-2v-1c0-.75781-.00977-1.62012-.02051-2.57031-.10937-9.9707-.31445-28.52979,8.52539-37.46777A16.89837,16.89837,0,0,1,440,93h1v2h-1a14.96753,14.96753,0,0,0-11.07324,4.36816c-8.25293,8.34473-8.05371,26.36035-7.94727,36.04.01074.957.02051,1.82715.02051,2.5918Z"/><path class="cls-3" d="M441.5,142.5"/><path class="cls-3" d="M444.5,145.5"/><path d="M440,144a4.004,4.004,0,0,1-4-4h2a2.00261,2.00261,0,0,0,2,2Z"/><path d="M440,144v-2a2.00261,2.00261,0,0,0,2-2h2A4.004,4.004,0,0,1,440,144Z"/><rect x="439.5" y="143.5" width="1" height="2.5"/><rect x="435.63872" y="143.10354" width="2.51553" height="0.99995" transform="translate(101.03053 457.76043) rotate(-61.28236)"/><rect x="442.39651" y="142.34575" width="0.99995" height="2.51553" transform="translate(-14.58901 230.12687) rotate(-28.67437)"/><path d="M476,144a4.004,4.004,0,0,1-4-4h2a2.00261,2.00261,0,0,0,2,2Z"/><path d="M476,144v-2a2.00261,2.00261,0,0,0,2-2h2A4.004,4.004,0,0,1,476,144Z"/><rect x="475.5" y="143.5" width="1" height="2.5"/><rect x="471.63872" y="143.10354" width="2.51553" height="0.99995" transform="translate(119.73276 489.33237) rotate(-61.28236)"/><rect x="478.39651" y="142.34575" width="0.99995" height="2.51553" transform="translate(-10.174 247.40079) rotate(-28.67437)"/><rect class="cls-2" x="400" y="157" width="89" height="58" rx="3" ry="3"/><path d="M486,216H403a4.004,4.004,0,0,1-4-4V160a4.004,4.004,0,0,1,4-4h83a4.004,4.004,0,0,1,4,4v52A4.004,4.004,0,0,1,486,216Zm-83-58a2.00261,2.00261,0,0,0-2,2v52a2.00261,2.00261,0,0,0,2,2h83a2.00261,2.00261,0,0,0,2-2V160a2.00261,2.00261,0,0,0-2-2Z"/><path d="M509.25,215h-1a6.13564,6.13564,0,0,1-6.25-6v-1h2v1a4.1349,4.1349,0,0,0,4.25,4h1Z"/><rect x="502" y="192" width="2" height="17"/><path d="M504,192h-2a3.00328,3.00328,0,0,1,3-3v2A1.00068,1.00068,0,0,0,504,192Z"/><path d="M516.75,215h-1v-2h1a4.1349,4.1349,0,0,0,4.25-4v-1h2v1A6.13564,6.13564,0,0,1,516.75,215Z"/><rect x="521" y="192" width="2" height="17"/><path d="M523,192h-2a1.00068,1.00068,0,0,0-1-1v-2A3.00328,3.00328,0,0,1,523,192Z"/><rect x="505" y="189" width="15" height="2"/><rect x="508" y="213" width="9" height="2"/><path d="M529,198.47949h-2c0-2.03809-2.24316-3.69629-5-3.69629v-2C525.85938,192.7832,529,195.33887,529,198.47949Z"/><path d="M522.01563,204.21777a1,1,0,0,1-.01172-2,5.84948,5.84948,0,0,0,4.082-1.58691A3.00435,3.00435,0,0,0,527,198.499a1.00087,1.00087,0,0,1,.98047-1.01953H528a.99982.99982,0,0,1,1,.98047,4.9906,4.9906,0,0,1-1.47754,3.5625,7.7742,7.7742,0,0,1-5.49512,2.19531Z"/><path d="M513,203a.99942.99942,0,0,1-1-1V191a1,1,0,0,1,2,0v11A.99942.99942,0,0,1,513,203Z"/><path d="M513,208a.99942.99942,0,0,1-1-1v-2a1,1,0,0,1,2,0v2A.99942.99942,0,0,1,513,208Z"/><path d="M507,199a.99942.99942,0,0,1-1-1v-7a1,1,0,0,1,2,0v7A.99942.99942,0,0,1,507,199Z"/><path class="cls-4" d="M184.80163,64.37506"/><path class="cls-5" d="M231,215l2-21,7-6a8.75992,8.75992,0,0,1,7-9h12a19.65244,19.65244,0,0,1,8,9c1.1572,2.893,5.77914,4.01224,6,6,1,9,2.633,18.377,2,21Z"/><path class="cls-2" d="M258,190a13,13,0,0,1-10,0V176h10Z"/><path d="M253,192a13.92326,13.92326,0,0,1-5.38477-1.07715L247,190.667V175h12v15.667l-.61523.25586A13.925,13.925,0,0,1,253,192Zm5-2h0Zm-9-.68555a12.06091,12.06091,0,0,0,8,0V177h-8Z"/><ellipse class="cls-2" cx="253" cy="134" rx="38" ry="45"/><path d="M253,180c-21.50488,0-39-20.63574-39-46s17.49512-46,39-46,39,20.63574,39,46S274.50488,180,253,180Zm0-90c-20.40186,0-37,19.73828-37,44s16.59814,44,37,44,37-19.73828,37-44S273.40186,90,253,90Z"/><path class="cls-5" d="M215,141l-4-31c-1-9,.42474-15.73329,7-21,6.01841-4.82068,7.22456-4.20285,9-4,3.44717-2.46661,16.01821-10.59647,29-10,23.25078,1.06828,35.3013,22.69592,36,24a56.06481,56.06481,0,0,1,3,24,55.49133,55.49133,0,0,1-4,16,73.73145,73.73145,0,0,0-15-37,44.26933,44.26933,0,0,1-17,2c-8.93991-.70071-22.55264-1.97148-26-4-8,7-9,10-15,16C214.25049,119.74951,217.6652,136.41586,215,141Z"/><path d="M214.38477,144.04785l-4.37646-33.91992c-1.14551-10.30859,1.05811-16.85547,7.3667-21.9082,5.48975-4.39746,7.27441-4.54395,9.36523-4.26123,3.18994-2.23193,16.05322-10.56055,29.30566-9.95752,24.01709,1.10352,36.32324,23.5708,36.83545,24.52686l.06152.13867a56.42182,56.42182,0,0,1-1.019,40.71729L290.439,142.96l-.43262-3.84863a72.73374,72.73374,0,0,0-14.37451-35.94824,44.95357,44.95357,0,0,1-16.71,1.834c-14.20508-1.11328-22.46338-2.32812-25.76855-3.7998a72.35292,72.35292,0,0,0-8.75146,9.15625A84.775,84.775,0,0,1,218.707,116.707c-1.73242,1.73242-1.66162,7.59424-1.59912,12.76562.06055,4.98242.11719,9.68945-1.24316,12.03027Zm61.97656-43.21436.4292.5542a74.69081,74.69081,0,0,1,14.65625,33.56641,54.40052,54.40052,0,0,0-.36377-35.54736c-.86328-1.584-12.62744-22.374-35.12891-23.40771-13.11426-.59668-25.93408,8.06982-28.37207,9.81445l-.313.22363-.79395-.09619c-1.34473-.18359-2.61572-.35352-7.8501,3.83936-5.78223,4.63184-7.70361,10.458-6.63135,20.10937l3.124,24.209c.02832-1.4707.00928-3.04492-.00928-4.60156-.07422-6.10742-.144-11.876,2.18457-14.2041a83.29667,83.29667,0,0,0,5.57031-6.21729,75.278,75.278,0,0,1,9.478-9.82813l.54346-.47559.62256.36621c2.4209,1.42432,11.02393,2.72461,25.5708,3.86475a43.04085,43.04085,0,0,0,16.61572-1.95508Z"/><rect x="275.75658" y="99.4999" width="9.48683" height="2.0002" transform="matrix(0.94863, -0.31637, 0.31637, 0.94863, -17.38758, 93.90521)"/><path d="M232.48535,100.85742C226.93652,97.52783,226,93.2749,226,85h2c0,8.50488,1.18555,11.54492,5.51465,14.14258Z"/><path d="M253,145a.99974.99974,0,0,1-1-1V134a1,1,0,0,1,2,0v10A.99974.99974,0,0,1,253,145Z"/><path d="M232,136h-2a4.00427,4.00427,0,0,1,4-4v2A2.00229,2.00229,0,0,0,232,136Z"/><path d="M238,136h-2a2.00229,2.00229,0,0,0-2-2v-2A4.00427,4.00427,0,0,1,238,136Z"/><path d="M253,152c-3.36426,0-6-1.75684-6-4h2c0,.94434,1.71045,2,4,2Z"/><path d="M253,152v-2c2.28955,0,4-1.05566,4-2h2C259,150.24316,256.36426,152,253,152Z"/><rect x="246" y="158" width="14" height="2"/><path d="M253,165c-1.86719,0-5-.25977-5-2h2a.652.652,0,0,0-.19531-.4834A7.6697,7.6697,0,0,0,253,163Z"/><path d="M253,165v-2a7.6697,7.6697,0,0,0,3.19531-.4834A.652.652,0,0,0,256,163h2C258,164.74023,254.86719,165,253,165Z"/><path d="M229,126h-2c0-2.28027,3.00928-4,7-4v2C230.94775,124,229,125.18457,229,126Z"/><path d="M240,189a.99974.99974,0,0,1-1-1c0-5.78125,2.68115-7.94922,7.62842-9.92871a1.00029,1.00029,0,0,1,.74316,1.85742C242.4292,181.90527,241,183.71582,241,188A.99974.99974,0,0,1,240,189Z"/><path d="M252.8999,198c-5.49512,0-9.7998-2.63574-9.7998-6a1,1,0,0,1,2,0c0,1.93164,3.13428,4,7.7998,4a1,1,0,0,1,0,2Z"/><path d="M232.999,195a1,1,0,0,1-.83105-1.55469c2.29053-3.43555,4.604-5.41992,11.55713-7.40723a1.00043,1.00043,0,0,1,.5498,1.92383c-6.9502,1.98535-8.64746,3.89941-10.44287,6.59277A.99908.99908,0,0,1,232.999,195Z"/><path d="M244,193a.99974.99974,0,0,1-1-1v-7a1,1,0,0,1,2,0v7A.99974.99974,0,0,1,244,193Z"/><path d="M231.001,215c-.0332,0-.06641-.002-.10059-.00488a1.0002,1.0002,0,0,1-.89551-1.09473l2-20a1.00009,1.00009,0,0,1,1.99023.19922l-2,20A1.00026,1.00026,0,0,1,231.001,215Z"/><path d="M238,215a.99974.99974,0,0,1-1-1V195a1,1,0,0,1,2,0v19A.99974.99974,0,0,1,238,215Z"/><path d="M266,189a.99974.99974,0,0,1-1-1c0-4.28418-1.4292-6.09473-6.37158-8.07129a1.00029,1.00029,0,0,1,.74316-1.85742C264.31885,180.05078,267,182.21875,267,188A.99974.99974,0,0,1,266,189Z"/><path d="M253.1001,198a1,1,0,0,1,0-2c4.66553,0,7.7998-2.06836,7.7998-4a1,1,0,0,1,2,0C262.8999,195.36426,258.59521,198,253.1001,198Z"/><path d="M273.001,195a.99908.99908,0,0,1-.833-.44531c-1.79541-2.69336-3.49268-4.60742-10.44287-6.59277a1.00043,1.00043,0,0,1,.5498-1.92383c6.95313,1.9873,9.2666,3.97168,11.55713,7.40723A1,1,0,0,1,273.001,195Z"/><path d="M262,193a.99974.99974,0,0,1-1-1v-7a1,1,0,0,1,2,0v7A.99974.99974,0,0,1,262,193Z"/><path d="M274.999,215a1.00026,1.00026,0,0,1-.99414-.90039l-2-20a1.00009,1.00009,0,1,1,1.99023-.19922l2,20a1.0002,1.0002,0,0,1-.89551,1.09473C275.06592,214.998,275.03223,215,274.999,215Z"/><path d="M268,215a.99974.99974,0,0,1-1-1V195a1,1,0,0,1,2,0v19A.99974.99974,0,0,1,268,215Z"/><path d="M253,215a.99974.99974,0,0,1-1-1V197a1,1,0,0,1,2,0v17A.99974.99974,0,0,1,253,215Z"/><path class="cls-2" d="M249,206a.99974.99974,0,0,1-1-1V194a1,1,0,0,1,2,0v11A.99974.99974,0,0,1,249,206Z"/><path class="cls-2" d="M257,203a.99974.99974,0,0,1-1-1v-8a1,1,0,0,1,2,0v8A.99974.99974,0,0,1,257,203Z"/><line x1="362" y1="90" x2="362" y2="72"/><rect class="cls-5" x="361.5" y="72" width="1" height="18"/><line x1="362" y1="69.5" x2="362" y2="65.5"/><rect class="cls-5" x="361.5" y="65.5" width="1" height="4"/><line x1="365" y1="86" x2="365" y2="90"/><rect class="cls-5" x="364.5" y="86" width="1" height="4"/><line x1="365" y1="83" x2="365" y2="66"/><rect class="cls-5" x="364.5" y="66" width="1" height="17"/><line x1="359" y1="89.5" x2="359" y2="84.5"/><rect class="cls-5" x="358.5" y="84.5" width="1" height="5"/><line x1="359" y1="82.5" x2="359" y2="66.5"/><rect class="cls-5" x="358.5" y="66.5" width="1" height="16"/><line x1="368" y1="66.5" x2="368" y2="69.5"/><rect class="cls-5" x="367.5" y="66.5" width="1" height="3"/><line x1="368" y1="71.5" x2="368" y2="85.5"/><rect class="cls-5" x="367.5" y="71.5" width="1" height="14"/><line x1="371" y1="83.5" x2="371" y2="67.5"/><rect class="cls-5" x="370.5" y="67.5" width="1" height="16"/><line x1="374" y1="68.5" x2="374" y2="79.5"/><rect class="cls-5" x="373.5" y="68.5" width="1" height="11"/><line x1="377" y1="73.5" x2="377" y2="69.5"/><rect class="cls-5" x="376.5" y="69.5" width="1" height="4"/><line x1="377" y1="74.5" x2="377" y2="78.5"/><rect class="cls-5" x="376.5" y="74.5" width="1" height="4"/><line x1="380" y1="76.5" x2="380" y2="70.5"/><rect class="cls-5" x="379.5" y="70.5" width="1" height="6"/><line x1="383" y1="78.5" x2="383" y2="71.5"/><rect class="cls-5" x="382.5" y="71.5" width="1" height="7"/><line x1="386" y1="80" x2="386" y2="73"/><rect class="cls-5" x="385.5" y="73" width="1" height="7"/><line x1="389" y1="82" x2="389" y2="75"/><rect class="cls-5" x="388.5" y="75" width="1" height="7"/><line x1="392" y1="85" x2="392" y2="78"/><rect class="cls-5" x="391.5" y="78" width="1" height="7"/><line x1="395" y1="88" x2="395" y2="81"/><rect class="cls-5" x="394.5" y="81" width="1" height="7"/><line x1="398" y1="96.5" x2="398" y2="86"/><rect class="cls-5" x="397.5" y="86" width="1" height="10.5"/><line x1="356" y1="70.5" x2="356" y2="66.5"/><rect class="cls-5" x="355.5" y="66.5" width="1" height="4"/><line x1="356" y1="71.5" x2="356" y2="86.5"/><rect class="cls-5" x="355.5" y="71.5" width="1" height="15"/><line x1="353" y1="83.5" x2="353" y2="67.5"/><rect class="cls-5" x="352.5" y="67.5" width="1" height="16"/><line x1="350" y1="67.5" x2="350" y2="72.5"/><rect class="cls-5" x="349.5" y="67.5" width="1" height="5"/><line x1="350" y1="73.5" x2="350" y2="79.5"/><rect class="cls-5" x="349.5" y="73.5" width="1" height="6"/><line x1="347" y1="77.5" x2="347" y2="69.5"/><rect class="cls-5" x="346.5" y="69.5" width="1" height="8"/><line x1="344" y1="78.5" x2="344" y2="70.5"/><rect class="cls-5" x="343.5" y="70.5" width="1" height="8"/><line x1="341" y1="80.5" x2="341" y2="72.5"/><rect class="cls-5" x="340.5" y="72.5" width="1" height="8"/><line x1="338" y1="82.5" x2="338" y2="74.5"/><rect class="cls-5" x="337.5" y="74.5" width="1" height="8"/><line x1="335" y1="84.5" x2="335" y2="76.5"/><rect class="cls-5" x="334.5" y="76.5" width="1" height="8"/><line x1="332" y1="88.5" x2="332" y2="78.5"/><rect class="cls-5" x="331.5" y="78.5" width="1" height="10"/><line x1="329" y1="95.5" x2="329" y2="82.5"/><rect class="cls-5" x="328.5" y="82.5" width="1" height="13"/><line x1="326" y1="100.5" x2="326" y2="87.5"/><rect class="cls-5" x="325.5" y="87.5" width="1" height="13"/><path d="M362,148c-23.15869,0-42-18.61719-42-41.5C320,83.6167,338.84131,65,362,65c23.15918,0,42,18.6167,42,41.5C404,129.38281,385.15918,148,362,148Zm0-81c-22.05615,0-40,17.71973-40,39.5S339.94385,146,362,146c22.05566,0,40-17.71973,40-39.5S384.05566,67,362,67Z"/><polygon class="cls-5" points="356 196 383 196 386 215 356 215 356 196"/><rect x="383.49975" y="196.44461" width="2.00049" height="18.11077" transform="translate(-20.34197 43.71781) rotate(-6.34019)"/><rect x="376.5" y="196.5" width="2" height="18"/><rect x="361.5" y="196.5" width="2" height="18"/><rect class="cls-2" x="367" y="196" width="2" height="6"/><rect y="213.62278" width="544" height="2.75443"/><rect class="cls-2" x="263" y="109" width="153" height="93" rx="7" ry="7"/><path d="M409,111a5.00568,5.00568,0,0,1,5,5v79a5.00569,5.00569,0,0,1-5,5H270a5.00568,5.00568,0,0,1-5-5V116a5.00567,5.00567,0,0,1,5-5H409m0-2H270a7.02057,7.02057,0,0,0-7,7v79a7.02057,7.02057,0,0,0,7,7H409a7.02057,7.02057,0,0,0,7-7V116a7.02057,7.02057,0,0,0-7-7Z"/><rect x="353.16674" y="154.80615" width="1.99952" height="63.3877" transform="translate(-18.4293 40.25183) rotate(-6.34019)"/><rect x="293.47266" y="185.50024" width="63.3877" height="1.99952" transform="translate(103.91487 489.09415) rotate(-83.6629)"/><rect x="325.1665" y="154" width="29" height="2"/><rect x="319.1665" y="217" width="41" height="2"/><polygon class="cls-2" points="328.667 155 350.667 155 357.667 218 321.667 218 328.667 155"/><path d="M358.78369,219H320.54932l7.22217-65h23.79Zm-36-2h33.76563l-6.77783-61h-20.21Z"/><path class="cls-1" d="M26,214H13c0-.44028-3-2.55972-3-3V190H29v21C29,211.33334,26,213.66666,26,214Z"/><path d="M16.25,215h-1A6.13564,6.13564,0,0,1,9,209v-1h2v1a4.13521,4.13521,0,0,0,4.25,4h1Z"/><rect x="9" y="192" width="2" height="17"/><path d="M11,192H9a3.00328,3.00328,0,0,1,3-3v2A1.001,1.001,0,0,0,11,192Z"/><path d="M23.75,215h-1v-2h1A4.13521,4.13521,0,0,0,28,209v-1h2v1A6.13564,6.13564,0,0,1,23.75,215Z"/><rect x="28" y="192" width="2" height="17"/><path d="M30,192H28a1.001,1.001,0,0,0-1-1v-2A3.00328,3.00328,0,0,1,30,192Z"/><rect x="12" y="189" width="15" height="2"/><rect x="15" y="213" width="9" height="2"/><path d="M36,198.47949H34c0-2.03809-2.24316-3.69629-5-3.69629v-2C32.85986,192.7832,36,195.33887,36,198.47949Z"/><path d="M29.01514,204.21777a1,1,0,0,1-.01172-2,5.84682,5.84682,0,0,0,4.082-1.58691A3.00072,3.00072,0,0,0,34,198.499a1.00019,1.00019,0,0,1,2-.03906,4.99113,4.99113,0,0,1-1.478,3.5625,7.771,7.771,0,0,1-5.49414,2.19531Z"/><path d="M17,203a.99974.99974,0,0,1-1-1V191a1,1,0,0,1,2,0v11A.99974.99974,0,0,1,17,203Z"/><path d="M22,205a.99974.99974,0,0,1-1-1v-2a1,1,0,0,1,2,0v2A.99974.99974,0,0,1,22,205Z"/><path d="M22,199a.99974.99974,0,0,1-1-1v-7a1,1,0,0,1,2,0v7A.99974.99974,0,0,1,22,199Z"/><path class="cls-1" d="M346.73438,139.73438a11.30958,11.30958,0,0,1-15.43437.1375c-2.30313-2.3375-2.6125-9.59063,1.68437-13.8875S344.775,122.2375,346.87188,124.3A11.30958,11.30958,0,0,1,346.73438,139.73438Z"/><path class="cls-6" d="M339,122.03125A9.96875,9.96875,0,1,1,329.03125,132,9.97591,9.97591,0,0,1,339,122.03125M339,121a11,11,0,1,0,11,11A10.98819,10.98819,0,0,0,339,121Z"/><path class="cls-2" d="M336.04375,134.54375a26.74,26.74,0,0,1-3.1625-1.925c-.17187-.10312-.34375-.24063-.51562-.34375v-.20625a.41169.41169,0,0,1,.1375-.1375c1.03125-.72188,2.2-1.44375,3.47188-2.16563a1.5881,1.5881,0,0,1-.24063.24063c-.06875.03438-.37813.24063-.89375.58438-.58438.37813-1.03125.65312-1.30625.825-.55.34375-.6875.4125-.6875.72188s0,.30938,1.03125.92813c.55.34375.92813.58438,1.2375.75625a5.97916,5.97916,0,0,1,.61875.37812A1.54815,1.54815,0,0,1,336.04375,134.54375Z"/><path class="cls-6" d="M336.25,129.07813a1.98772,1.98772,0,0,0-.48125.17188,37.79965,37.79965,0,0,0-3.575,2.23438.7781.7781,0,0,0-.37813.58438v.10312a.81655.81655,0,0,0,.10313.4125,3.4891,3.4891,0,0,0,.61875.44687c2.16562,1.40937,3.40312,2.13125,3.74687,2.13125.17188,0,.275-.17187.275-.55a1.17163,1.17163,0,0,0-.58438-.85937,6.84705,6.84705,0,0,0-.65312-.4125c-.30937-.17187-.72188-.4125-1.2375-.75625s-.79063-.48125-.79063-.51562a5.08853,5.08853,0,0,1,.44688-.275q.4125-.25781,1.34062-.825c.61875-.37813.89375-.58438.92813-.58438a1.06054,1.06054,0,0,0,.51563-.79062c0-.34375-.06875-.51563-.275-.51563Z"/><path class="cls-2" d="M337.625,135.88437c.20625-.61875.9625-2.54375,3.3-8.00937.03437-.06875.06875-.10312.10312-.17187h0q-.15469.36094-.20625.51563a.25985.25985,0,0,0-.03437.1375l-.20625.51563q-.20625.51563-.30938.72188a1.44521,1.44521,0,0,1-.06875.17188v-.03438c-.03437.03438-.10312.24063-1.1,2.71562-.89375,2.2-1.13437,2.81875-1.20312,2.95625A3.435,3.435,0,0,1,337.625,135.88437Z"/><path class="cls-6" d="M341.0625,127.15312q-.4125,0-.61875.51563a86.36736,86.36736,0,0,0-3.40313,8.45625v.06875c0,.1375.17188.20625.48125.20625h.20625c.20625,0,.4125-.275.65312-.79062.06875-.20625.48125-1.16875,1.20312-2.95625s1.1-2.68125,1.1-2.68125a1.1083,1.1083,0,0,0,.06875-.20625,5.5027,5.5027,0,0,1,.275-.6875l.20625-.51562a.58075.58075,0,0,1,.06875-.17187,4.21215,4.21215,0,0,0,.17188-.44687,1.119,1.119,0,0,0,.1375-.48125v-.10312c0-.1375-.17187-.20625-.55-.20625Z"/><path class="cls-2" d="M342.60938,134.475a.92666.92666,0,0,1,.275-.24063c.03437-.03437.24063-.17187,1.34063-.825,1.54688-.92813,1.54688-.92813,1.54688-1.2375s0-.30937-1.54687-1.27188c-1.13437-.72188-1.34063-.85937-1.375-.89375l-.20625-.20625.03437.03438a37.83759,37.83759,0,0,1,3.40312,2.13125.245.245,0,0,1,.10312.20625c0,.06875,0,.1375-.1375.20625C344.87812,133.13437,343.74375,133.85625,342.60938,134.475Z"/><path class="cls-6" d="M342.36875,129.04375c-.20625,0-.30938.17188-.30938.48125a1.11039,1.11039,0,0,0,.48125.85938q.10313.10313,1.44375.92813a10.20768,10.20768,0,0,1,1.30625.85938s-.44687.275-1.30625.825c-.85937.51563-1.34063.825-1.40937.85938-.34375.275-.55.55-.55.79062V134.75c0,.30938.10312.48125.275.48125a1.23138,1.23138,0,0,0,.37812-.1375c1.16875-.65313,2.40625-1.40937,3.67813-2.23437a.76256.76256,0,0,0,.06875-1.27188,32.62471,32.62471,0,0,0-3.47187-2.16562A1.41176,1.41176,0,0,0,342.36875,129.04375Z"/><path class="cls-1" d="M452.73438,192.73438a11.30958,11.30958,0,0,1-15.43437.1375c-2.30313-2.3375-2.6125-9.59063,1.68437-13.8875S450.775,175.2375,452.87188,177.3A11.30958,11.30958,0,0,1,452.73438,192.73438Z"/><path class="cls-6" d="M445,175.03125A9.96875,9.96875,0,1,1,435.03125,185,9.97591,9.97591,0,0,1,445,175.03125M445,174a11,11,0,1,0,11,11A10.98819,10.98819,0,0,0,445,174Z"/><path class="cls-2" d="M442.04375,187.54375a26.74,26.74,0,0,1-3.1625-1.925c-.17187-.10312-.34375-.24063-.51562-.34375v-.20625a.41169.41169,0,0,1,.1375-.1375c1.03125-.72188,2.2-1.44375,3.47188-2.16563a1.5881,1.5881,0,0,1-.24063.24063c-.06875.03438-.37813.24063-.89375.58438-.58438.37813-1.03125.65312-1.30625.825-.55.34375-.6875.4125-.6875.72188s0,.30938,1.03125.92813c.55.34375.92813.58438,1.2375.75625a5.97916,5.97916,0,0,1,.61875.37812A1.54815,1.54815,0,0,1,442.04375,187.54375Z"/><path class="cls-6" d="M442.25,182.07813a1.98772,1.98772,0,0,0-.48125.17188,37.79965,37.79965,0,0,0-3.575,2.23438.7781.7781,0,0,0-.37813.58438v.10312a.81655.81655,0,0,0,.10313.4125,3.4891,3.4891,0,0,0,.61875.44687c2.16562,1.40937,3.40312,2.13125,3.74687,2.13125.17188,0,.275-.17187.275-.55a1.17163,1.17163,0,0,0-.58438-.85937,6.84705,6.84705,0,0,0-.65312-.4125c-.30937-.17187-.72188-.4125-1.2375-.75625s-.79063-.48125-.79063-.51562a5.08853,5.08853,0,0,1,.44688-.275q.4125-.25781,1.34062-.825c.61875-.37813.89375-.58438.92813-.58438a1.06054,1.06054,0,0,0,.51563-.79062c0-.34375-.06875-.51563-.275-.51563Z"/><path class="cls-2" d="M443.625,188.88437c.20625-.61875.9625-2.54375,3.3-8.00937.03437-.06875.06875-.10312.10312-.17187h0q-.15469.36094-.20625.51563a.25985.25985,0,0,0-.03437.1375l-.20625.51563q-.20625.51563-.30938.72188a1.44521,1.44521,0,0,1-.06875.17188v-.03438c-.03437.03438-.10312.24063-1.1,2.71562-.89375,2.2-1.13437,2.81875-1.20312,2.95625A3.435,3.435,0,0,1,443.625,188.88437Z"/><path class="cls-6" d="M447.0625,180.15312q-.4125,0-.61875.51563a86.36736,86.36736,0,0,0-3.40313,8.45625v.06875c0,.1375.17188.20625.48125.20625h.20625c.20625,0,.4125-.275.65312-.79062.06875-.20625.48125-1.16875,1.20312-2.95625s1.1-2.68125,1.1-2.68125a1.1083,1.1083,0,0,0,.06875-.20625,5.5027,5.5027,0,0,1,.275-.6875l.20625-.51562a.58075.58075,0,0,1,.06875-.17187,4.21215,4.21215,0,0,0,.17188-.44687,1.119,1.119,0,0,0,.1375-.48125v-.10312c0-.1375-.17187-.20625-.55-.20625Z"/><path class="cls-2" d="M448.60938,187.475a.92666.92666,0,0,1,.275-.24063c.03437-.03437.24063-.17187,1.34063-.825,1.54688-.92813,1.54688-.92813,1.54688-1.2375s0-.30937-1.54687-1.27188c-1.13437-.72188-1.34063-.85937-1.375-.89375l-.20625-.20625.03437.03438a37.83759,37.83759,0,0,1,3.40312,2.13125.245.245,0,0,1,.10312.20625c0,.06875,0,.1375-.1375.20625C450.87812,186.13437,449.74375,186.85625,448.60938,187.475Z"/><path class="cls-6" d="M448.36875,182.04375c-.20625,0-.30938.17188-.30938.48125a1.11039,1.11039,0,0,0,.48125.85938q.10313.10313,1.44375.92813a10.20768,10.20768,0,0,1,1.30625.85938s-.44687.275-1.30625.825c-.85937.51563-1.34063.825-1.40937.85938-.34375.275-.55.55-.55.79062V187.75c0,.30938.10312.48125.275.48125a1.23138,1.23138,0,0,0,.37812-.1375c1.16875-.65313,2.40625-1.40937,3.67813-2.23437a.76256.76256,0,0,0,.06875-1.27188,32.62471,32.62471,0,0,0-3.47187-2.16562A1.41176,1.41176,0,0,0,448.36875,182.04375Z"/><line class="cls-2" x1="319" y1="222" x2="424" y2="222"/><rect x="319" y="221" width="105" height="2"/><line class="cls-2" x1="446" y1="222" x2="513" y2="222"/><rect x="446" y="221" width="67" height="2"/><line class="cls-2" x1="532" y1="222" x2="643" y2="222"/><rect x="532" y="221" width="111" height="2"/><rect x="553.32813" y="214" width="117.84375" height="2"/><rect x="268" y="221" width="41" height="2"/><rect x="29" y="221" width="219" height="2"/><rect x="9" y="229" width="155" height="2"/><rect x="174" y="229" width="99" height="2"/><rect x="288" y="229" width="92" height="2"/><rect x="398" y="229" width="63" height="2"/><rect x="477" y="229" width="44" height="2"/><rect x="532" y="229" width="99" height="2"/><rect class="cls-6" x="383" y="40" width="2" height="6"/><rect class="cls-6" x="381" y="42" width="6" height="2"/><rect class="cls-6" x="413" y="30" width="2" height="6"/><rect class="cls-6" x="411" y="32" width="6" height="2"/><path class="cls-6" d="M358,31.65674,352.34326,26,358,20.34326,363.65674,26ZM355.17139,26,358,28.82861,360.82861,26,358,23.17139Z"/><path class="cls-6" d="M448,57.65674,442.34375,52,448,46.34326,453.65625,52ZM445.17188,52,448,54.82861,450.82813,52,448,49.17139Z"/><rect class="cls-6" x="199.07731" y="67.75109" width="2" height="6" transform="translate(-2.74519 8.30368) rotate(-2.36137)"/><rect class="cls-6" x="197.07731" y="69.75109" width="6" height="2" transform="translate(-2.74519 8.30368) rotate(-2.36137)"/><rect class="cls-6" x="140.07731" y="55.75109" width="2" height="6" transform="translate(-2.30087 5.86257) rotate(-2.36137)"/><rect class="cls-6" x="138.07731" y="57.75109" width="6" height="2" transform="translate(-2.30087 5.86257) rotate(-2.36137)"/><path class="cls-6" d="M174,109.65674,168.34326,104,174,98.34326,179.65674,104ZM171.17139,104,174,106.82861,176.82861,104,174,101.17139Z"/><path class="cls-6" d="M305,69.65674,299.34326,64,305,58.34326,310.65674,64ZM302.17139,64,305,66.82861,307.82861,64,305,61.17139Z"/><rect class="cls-6" x="499" y="70" width="2" height="6"/><rect class="cls-6" x="497" y="72" width="6" height="2"/><path class="cls-6" d="M523,75.65674,517.34375,70,523,64.34326,528.65625,70ZM520.17188,70,523,72.82861,525.82813,70,523,67.17139Z"/><rect class="cls-6" x="294" y="19" width="2" height="6"/><rect class="cls-6" x="292" y="21" width="6" height="2"/><path class="cls-6" d="M260,42.65674,254.34326,37,260,31.34326,265.65674,37ZM257.17139,37,260,39.82861,262.82861,37,260,34.17139Z"/><path class="cls-6" d="M118,35.65674,112.34326,30,118,24.34326,123.65674,30ZM115.17139,30,118,32.82861,120.82861,30,118,27.17139Z"/><rect class="cls-6" x="155" y="114" width="2" height="6"/><rect class="cls-6" x="153" y="116" width="6" height="2"/><path class="cls-6" d="M190,141.65674,184.34375,136,190,130.34326,195.65625,136ZM187.17188,136,190,138.82861,192.82813,136,190,133.17139Z"/><rect class="cls-2" x="158.125" y="157" width="89" height="58" rx="3.03548" ry="3.03548"/><line class="cls-2" x1="216" y1="174" x2="223" y2="202"/><rect x="218.50001" y="173.56913" width="1.99997" height="28.86174" transform="translate(-39.04298 58.84978) rotate(-14.03624)"/><line class="cls-2" x1="189" y1="174" x2="182" y2="202"/><rect x="171.06913" y="187.00001" width="28.86174" height="1.99997" transform="translate(-41.8294 322.44551) rotate(-75.98411)"/><line x1="589" y1="100.5" x2="589" y2="96.5"/><line x1="595" y1="97.5" x2="595" y2="100.5"/><line x1="616" y1="113" x2="616" y2="106"/><line x1="571" y1="109.5" x2="571" y2="101.5"/><path d="M589,179c-23.15869,0-42-18.61719-42-41.5,0-22.8833,18.84131-35.5,42-35.5,23.15918,0,42,12.6167,42,35.5C631,160.38281,612.15918,179,589,179Zm0-75c-22.05615,0-40,11.71973-40,33.5S566.94385,177,589,177c22.05566,0,40-17.71973,40-39.5S611.05566,104,589,104Z"/><path class="cls-1" d="M207.54688,193.92188a7.197,7.197,0,0,1-9.82187.0875c-1.46563-1.4875-1.6625-6.10313,1.07187-8.8375S206.3,182.7875,207.63438,184.1A7.197,7.197,0,0,1,207.54688,193.92188Z"/><path class="cls-6" d="M202.625,182.65625A6.34375,6.34375,0,1,1,196.28125,189a6.34831,6.34831,0,0,1,6.34375-6.34375m0-.65625a7,7,0,1,0,7,7A6.99248,6.99248,0,0,0,202.625,182Z"/><path class="cls-2" d="M200.74375,190.61875a17.01633,17.01633,0,0,1-2.0125-1.225c-.10937-.06562-.21875-.15313-.32812-.21875v-.13125a.262.262,0,0,1,.0875-.0875c.65625-.45938,1.4-.91875,2.20938-1.37813a1.01061,1.01061,0,0,1-.15313.15313c-.04375.02188-.24063.15313-.56875.37188-.37188.24063-.65625.41562-.83125.525-.35.21875-.4375.2625-.4375.45938s0,.19688.65625.59063c.35.21875.59063.37188.7875.48125a3.80492,3.80492,0,0,1,.39375.24062A.98518.98518,0,0,1,200.74375,190.61875Z"/><path class="cls-6" d="M200.875,187.14063a1.26491,1.26491,0,0,0-.30625.10938,24.05432,24.05432,0,0,0-2.275,1.42188.49515.49515,0,0,0-.24063.37188v.06562a.51962.51962,0,0,0,.06563.2625,2.22034,2.22034,0,0,0,.39375.28437,10.29392,10.29392,0,0,0,2.38437,1.35625c.10938,0,.175-.10937.175-.35a.74558.74558,0,0,0-.37188-.54687,4.35722,4.35722,0,0,0-.41562-.2625c-.19687-.10937-.45938-.2625-.7875-.48125s-.50313-.30625-.50313-.32812a3.23815,3.23815,0,0,1,.28438-.175q.2625-.16406.85313-.525c.39375-.24063.56875-.37188.59063-.37188a.67489.67489,0,0,0,.32813-.50312c0-.21875-.04375-.32813-.175-.32813Z"/><path class="cls-2" d="M201.75,191.47187c.13125-.39375.6125-1.61875,2.1-5.09687.02187-.04375.04375-.06562.06562-.10937h0q-.09844.22969-.13125.32813a.16536.16536,0,0,0-.02187.0875l-.13125.32813q-.13125.32813-.19688.45938a.91968.91968,0,0,1-.04375.10938v-.02188c-.02187.02188-.06562.15313-.7,1.72812-.56875,1.4-.72187,1.79375-.76562,1.88125A2.18591,2.18591,0,0,1,201.75,191.47187Z"/><path class="cls-6" d="M203.9375,185.91562q-.2625,0-.39375.32813a54.96106,54.96106,0,0,0-2.16563,5.38125v.04375c0,.0875.10938.13125.30625.13125h.13125c.13125,0,.2625-.175.41562-.50312.04375-.13125.30625-.74375.76562-1.88125s.7-1.70625.7-1.70625a.70528.70528,0,0,0,.04375-.13125,3.50171,3.50171,0,0,1,.175-.4375l.13125-.32812a.36957.36957,0,0,1,.04375-.10937,2.68041,2.68041,0,0,0,.10938-.28437.71207.71207,0,0,0,.0875-.30625v-.06562c0-.0875-.10937-.13125-.35-.13125Z"/><path class="cls-2" d="M204.92188,190.575a.58969.58969,0,0,1,.175-.15313c.02187-.02187.15313-.10937.85313-.525.98438-.59063.98438-.59063.98438-.7875s0-.19687-.98437-.80938c-.72187-.45938-.85313-.54687-.875-.56875l-.13125-.13125.02187.02187a24.07847,24.07847,0,0,1,2.16562,1.35625.15591.15591,0,0,1,.06562.13125c0,.04375,0,.0875-.0875.13125C206.36562,189.72187,205.64375,190.18125,204.92188,190.575Z"/><path class="cls-6" d="M204.76875,187.11875c-.13125,0-.19688.10938-.19688.30625a.70661.70661,0,0,0,.30625.54688q.06563.06563.91875.59063a6.4958,6.4958,0,0,1,.83125.54688s-.28437.175-.83125.525c-.54687.32813-.85313.525-.89687.54688-.21875.175-.35.35-.35.50312V190.75c0,.19688.06562.30625.175.30625a.78361.78361,0,0,0,.24062-.0875c.74375-.41563,1.53125-.89687,2.34063-1.42187a.48526.48526,0,0,0,.04375-.80938,20.76118,20.76118,0,0,0-2.20937-1.37812A.89839.89839,0,0,0,204.76875,187.11875Z"/><path class="cls-5" d="M631,130c.388,3.00073.14581,3.48569-.129,3.58011C627.08,134.88278,619.06293,109.04732,608,109c-7.63745-.03267-10.15643,11.20659-18.5,11-7.6944-.19051-9.2204-11.54053-16.5-12-11.6073-.73262-21.71417,27.24088-25.86511,25.54224C545.99561,133.076,547,130.65857,547,130c0-9.05017,8-16,11.39856-21.55365.4886-.79843,3.55584-10.06027,4.33337-11.34732,1.26807-2.099,4.33319,4.7597,5.15015,4.10815,6.85327-5.46584,10.10352-14.59424,10.21515-14.62215.00012,0,5.31659,8.45154,10.90277,8.415,6.114-.04,9.02905-9.39211,10.4101-9.01721,1.6366.44426,3.43384,10.10736,10.05743,14.159,1.8465,1.12947,5.55408-1.826,7.53247-.14175C626.85187,108.3871,630.32623,124.78951,631,130Z"/><path d="M630.55664,134.63574c-2.00781,0-3.90625-3.24707-6.86523-8.30957-4.02246-6.87891-9.53027-16.2998-15.69531-16.32617h-.02832c-3.26855,0-5.57324,2.44238-8.01465,5.02783-2.69434,2.854-5.75488,6.11279-10.47754,5.97168-4.40625-.10889-6.90332-3.3457-9.31836-6.47607-2.11426-2.74072-4.11133-5.3291-7.2207-5.52539-6.417-.39941-12.80566,9.49414-17.47363,16.72168-3.92187,6.07129-6.28711,9.73242-8.707,8.748-1.63184-.668-1.1416-2.76465-.87793-3.89062A4.38392,4.38392,0,0,0,546,129.98828c0-6.96631,4.51563-12.74951,8.14355-17.39648a54.11045,54.11045,0,0,0,3.40234-4.66748c.18848-.33936,1.00488-2.61572,1.66113-4.44531a65.89825,65.89825,0,0,1,2.66992-6.89746,1.67447,1.67447,0,0,1,1.38281-.88184c1.28125-.05664,2.42578,1.48389,3.60449,3.11377.2666.36914.626.8667.90039,1.19531,2.59961-2.207,6.15039-6.25244,9.21094-13.37549.248-.57764.38477-.896.88184-1.019l.70117-.17383.38574.61182C578.99414,86.13184,584.01172,94,588.96289,94h.03027c3.49316-.02295,5.94531-3.80713,7.56738-6.31152,1.207-1.86377,1.93945-2.99316,3.11133-2.67041,1.03223.27979,1.6084,1.54053,2.65332,3.82959,1.45215,3.1792,3.64648,7.9834,7.66406,10.44092.48145.29395,1.61035-.02148,2.60352-.29932,1.5957-.4458,3.584-1.00293,5.05566.249,11.5332,9.81982,14.23438,29.78809,14.34375,30.63379h0c.374,2.89844.34863,4.25879-.79492,4.65332A1.95636,1.95636,0,0,1,630.55664,134.63574ZM563.47949,97.82959c-.48828,1.02-1.57617,4.0542-2.39062,6.32422a48.034,48.034,0,0,1-1.83691,4.81445,55.45573,55.45573,0,0,1-3.53223,4.854C552.10156,118.457,548,123.71045,548,130a4.85943,4.85943,0,0,1-.1748,1.03223,6.19816,6.19816,0,0,0-.22852,1.58594c1.09375-.09961,4.14746-4.82715,6.18652-7.9834,5.21191-8.06885,11.73633-18.11133,19.2793-17.63281,4.01367.25342,6.38477,3.32715,8.67871,6.2998,2.22656,2.88672,4.33008,5.61328,7.7832,5.69873,3.873.0752,6.334-2.54834,8.97461-5.3457,2.625-2.78027,5.33887-5.65479,9.4668-5.65479h.03809c7.30664.03125,13.14844,10.022,17.41309,17.31641,1.57715,2.69629,3.66895,6.27441,4.78613,7.126a18.96945,18.96945,0,0,0-.19531-2.31445h0c-.10449-.81348-2.70312-20.042-13.65625-29.3667-.66113-.562-1.96289-.19775-3.2207.1543-1.45508.40674-2.96191.82715-4.18457.0791-4.54-2.77637-6.88672-7.91553-8.44043-11.31641a26.01122,26.01122,0,0,0-1.21191-2.45068c-.29883.38086-.707,1.01123-1.05469,1.54834-1.74316,2.69092-4.66113,7.19434-9.23242,7.22412h-.043c-4.57227,0-8.78711-4.85742-10.67578-7.39307-3.3125,7.22949-7.11523,11.25439-9.7832,13.38184a1.191,1.191,0,0,1-.917.25049c-.75879-.10352-1.29687-.80469-2.34473-2.25391A14.65338,14.65338,0,0,0,563.47949,97.82959ZM599.0332,86.89795Z"/><rect class="cls-5" x="567.50008" y="118.50006" width="3.99983" height="16.99915" transform="translate(299.19391 644.10096) rotate(-74.97381)"/><rect x="567" y="135" width="5" height="2"/><rect class="cls-5" x="599" y="128" width="17" height="4"/><rect x="605" y="135" width="5" height="2"/><rect class="cls-2" x="536.53022" y="150" width="101" height="66" rx="4" ry="4"/><path d="M633.53027,217h-93a5.00589,5.00589,0,0,1-5-5V154a5.00589,5.00589,0,0,1,5-5h93a5.00589,5.00589,0,0,1,5,5v58A5.00589,5.00589,0,0,1,633.53027,217Zm-93-66a3.00328,3.00328,0,0,0-3,3v58a3.00328,3.00328,0,0,0,3,3h93a3.00328,3.00328,0,0,0,3-3V154a3.00328,3.00328,0,0,0-3-3Z"/><path class="cls-1" d="M595.69952,187.922a12.67667,12.67667,0,0,1-17.30007.15412c-2.58152-2.62006-2.9283-10.74993,1.888-15.56621s13.21587-4.19979,15.56621-1.888A12.67667,12.67667,0,0,1,595.69952,187.922Z"/><path class="cls-6" d="M587.03022,168.079a11.17376,11.17376,0,1,1-11.17376,11.17376A11.18179,11.18179,0,0,1,587.03022,168.079m0-1.15591a12.32967,12.32967,0,1,0,12.32967,12.32967A12.31643,12.31643,0,0,0,587.03022,166.92308Z"/><path class="cls-2" d="M583.71662,182.104a29.97226,29.97226,0,0,1-3.54478-2.15769c-.19265-.11559-.3853-.26971-.578-.3853v-.23118a.46146.46146,0,0,1,.15412-.15412c1.15591-.80913,2.46593-1.61827,3.89155-2.4274a1.78007,1.78007,0,0,1-.26971.26971c-.07706.03853-.42383.26971-1.00179.655-.655.42383-1.15591.73207-1.46415.92473-.61648.3853-.7706.46236-.7706.80913s0,.34677,1.15591,1.04032c.61648.3853,1.04032.655,1.38709.84767a6.70192,6.70192,0,0,1,.69354.42383A1.73528,1.73528,0,0,1,583.71662,182.104Z"/><path class="cls-6" d="M583.9478,175.97768a2.228,2.228,0,0,0-.53942.19265,42.36882,42.36882,0,0,0-4.00714,2.50446.87215.87215,0,0,0-.42383.655v.11559a.91525.91525,0,0,0,.11559.46236,3.91086,3.91086,0,0,0,.69354.50089c2.4274,1.57974,3.81449,2.38887,4.19979,2.38887.19265,0,.30824-.19265.30824-.61648a1.31326,1.31326,0,0,0-.655-.96326,7.67474,7.67474,0,0,0-.73207-.46236c-.34677-.19265-.80913-.46236-1.38709-.84767s-.8862-.53942-.8862-.578a5.70362,5.70362,0,0,1,.50089-.30824q.46236-.289,1.50268-.92473c.69354-.42383,1.00179-.655,1.04032-.655a1.18874,1.18874,0,0,0,.578-.88619c0-.3853-.07706-.578-.30824-.578Z"/><path class="cls-2" d="M585.489,183.60666c.23118-.69354,1.07885-2.85124,3.6989-8.97754.03853-.07706.07706-.11559.11559-.19265h0q-.17339.40457-.23118.578a.29126.29126,0,0,0-.03853.15412l-.23118.578q-.23118.578-.34677.80913a1.6199,1.6199,0,0,1-.07706.19265v-.03853c-.03853.03853-.11559.26971-1.233,3.04389-1.00179,2.46593-1.2715,3.15948-1.34856,3.3136A3.85023,3.85023,0,0,1,585.489,183.60666Z"/><path class="cls-6" d="M589.342,173.82q-.46236,0-.69354.578-3.81449,8.90048-3.81449,9.47843v.07706c0,.15412.19265.23118.53942.23118h.23118c.23118,0,.46236-.30824.73207-.88619.07706-.23118.53942-1.31,1.34856-3.3136s1.233-3.00536,1.233-3.00536a1.24227,1.24227,0,0,0,.07706-.23118,6.16786,6.16786,0,0,1,.30824-.7706l.23118-.578a.651.651,0,0,1,.07706-.19265,4.72125,4.72125,0,0,0,.19265-.50089,1.25422,1.25422,0,0,0,.15412-.53942v-.11559c0-.15412-.19265-.23118-.61648-.23118Z"/><path class="cls-2" d="M591.07589,182.02692a1.03867,1.03867,0,0,1,.30824-.26971c.03853-.03853.26971-.19265,1.50268-.92473,1.73386-1.04032,1.73386-1.04032,1.73386-1.38709s0-.34677-1.73386-1.42562c-1.2715-.80913-1.50268-.96326-1.54121-1.00179l-.23118-.23118.03853.03853a42.41134,42.41134,0,0,1,3.81449,2.38887.27462.27462,0,0,1,.11559.23118c0,.07706,0,.15412-.15412.23118C593.61889,180.52424,592.34739,181.33338,591.07589,182.02692Z"/><path class="cls-6" d="M590.80618,175.93915c-.23118,0-.34677.19265-.34677.53942a1.24461,1.24461,0,0,0,.53942.96326q.11559.11559,1.61827,1.04032a11.44157,11.44157,0,0,1,1.46415.96326s-.50089.30824-1.46415.92473c-.96326.578-1.50268.92473-1.57974.96326-.3853.30824-.61648.61648-.61648.88619v.11559c0,.34677.11559.53942.30824.53942a1.38023,1.38023,0,0,0,.42383-.15412c1.31-.73207,2.69712-1.57974,4.12273-2.50446a.85474.85474,0,0,0,.07706-1.42562,36.56837,36.56837,0,0,0-3.89155-2.4274A1.58241,1.58241,0,0,0,590.80618,175.93915Z"/><rect x="588" y="135" width="2" height="13"/><line x1="99.5" y1="100.5" x2="99.5" y2="96.5"/><line x1="104.71429" y1="97.5" x2="104.71429" y2="100.5"/><line x1="122.96429" y1="113" x2="122.96429" y2="106"/><line x1="83.85714" y1="109.5" x2="83.85714" y2="101.5"/><path d="M99.5,179C79.374,179,63,160.38281,63,137.5,63,114.6167,79.374,102,99.5,102c20.12643,0,36.5,12.6167,36.5,35.5C136,160.38281,119.62643,179,99.5,179Zm0-75c-19.16785,0-34.7619,11.71973-34.7619,33.5S80.33215,177,99.5,177c19.16742,0,34.7619-17.71973,34.7619-39.5S118.66742,104,99.5,104Z"/><path class="cls-7" d="M76.87925,97.099"/><rect x="81" y="135" width="5" height="2"/><rect x="110" y="135" width="5" height="2"/><rect class="cls-2" x="45.03022" y="150" width="101" height="66" rx="4" ry="4"/><path d="M142.03027,217h-93a5.00589,5.00589,0,0,1-5-5V154a5.00589,5.00589,0,0,1,5-5h93a5.00589,5.00589,0,0,1,5,5v58A5.00589,5.00589,0,0,1,142.03027,217Zm-93-66a3.00328,3.00328,0,0,0-3,3v58a3.00328,3.00328,0,0,0,3,3h93a3.00328,3.00328,0,0,0,3-3V154a3.00328,3.00328,0,0,0-3-3Z"/><path class="cls-1" d="M104.19952,189.922a12.67667,12.67667,0,0,1-17.30007.15412c-2.58152-2.62006-2.9283-10.74993,1.888-15.56621s13.21587-4.19979,15.56621-1.888A12.67667,12.67667,0,0,1,104.19952,189.922Z"/><path class="cls-6" d="M95.53022,170.079a11.17376,11.17376,0,1,1-11.17376,11.17376A11.18179,11.18179,0,0,1,95.53022,170.079m0-1.15591a12.32967,12.32967,0,1,0,12.32967,12.32967A12.31643,12.31643,0,0,0,95.53022,168.92308Z"/><path class="cls-2" d="M92.21662,184.104a29.97226,29.97226,0,0,1-3.54478-2.15769c-.19265-.11559-.3853-.26971-.578-.3853v-.23118a.46146.46146,0,0,1,.15412-.15412c1.15591-.80913,2.46593-1.61827,3.89155-2.4274a1.78007,1.78007,0,0,1-.26971.26971c-.07706.03853-.42383.26971-1.00179.655-.655.42383-1.15591.73207-1.46415.92473-.61648.3853-.7706.46236-.7706.80913s0,.34677,1.15591,1.04032c.61648.3853,1.04032.655,1.38709.84767a6.70193,6.70193,0,0,1,.69354.42383A1.73528,1.73528,0,0,1,92.21662,184.104Z"/><path class="cls-6" d="M92.4478,177.97768a2.228,2.228,0,0,0-.53942.19265,42.36883,42.36883,0,0,0-4.00714,2.50446.87215.87215,0,0,0-.42383.655v.11559a.91525.91525,0,0,0,.11559.46236,3.91086,3.91086,0,0,0,.69354.50089c2.4274,1.57974,3.81449,2.38887,4.19979,2.38887.19265,0,.30824-.19265.30824-.61648a1.31326,1.31326,0,0,0-.655-.96326,7.67473,7.67473,0,0,0-.73207-.46236c-.34677-.19265-.80913-.46236-1.38709-.84767s-.8862-.53942-.8862-.578a5.70362,5.70362,0,0,1,.50089-.30824q.46236-.289,1.50268-.92473c.69354-.42383,1.00179-.655,1.04032-.655a1.18874,1.18874,0,0,0,.578-.88619c0-.3853-.07706-.578-.30824-.578Z"/><path class="cls-2" d="M93.989,185.60666c.23118-.69354,1.07885-2.85124,3.6989-8.97754.03853-.07706.07706-.11559.11559-.19265h0q-.17339.40457-.23118.578a.29126.29126,0,0,0-.03853.15412l-.23118.578q-.23118.578-.34677.80913a1.61991,1.61991,0,0,1-.07706.19265v-.03853c-.03853.03853-.11559.26971-1.233,3.04389-1.00179,2.46593-1.2715,3.15948-1.34856,3.3136A3.85023,3.85023,0,0,1,93.989,185.60666Z"/><path class="cls-6" d="M97.842,175.82q-.46236,0-.69354.578-3.81449,8.90048-3.81449,9.47843v.07706c0,.15412.19265.23118.53942.23118h.23118c.23118,0,.46236-.30824.73207-.88619.07706-.23118.53942-1.31,1.34856-3.3136s1.233-3.00536,1.233-3.00536a1.24227,1.24227,0,0,0,.07706-.23118,6.16786,6.16786,0,0,1,.30824-.7706l.23118-.578a.651.651,0,0,1,.07706-.19265,4.72127,4.72127,0,0,0,.19265-.50089,1.25422,1.25422,0,0,0,.15412-.53942v-.11559c0-.15412-.19265-.23118-.61648-.23118Z"/><path class="cls-2" d="M99.57589,184.02692a1.03867,1.03867,0,0,1,.30824-.26971c.03853-.03853.26971-.19265,1.50268-.92473,1.73386-1.04032,1.73386-1.04032,1.73386-1.38709s0-.34677-1.73386-1.42562c-1.2715-.80913-1.50268-.96326-1.54121-1.00179l-.23118-.23118.03853.03853a42.41134,42.41134,0,0,1,3.81449,2.38887.27462.27462,0,0,1,.11559.23118c0,.07706,0,.15412-.15412.23118C102.11889,182.52424,100.84739,183.33338,99.57589,184.02692Z"/><path class="cls-6" d="M99.30618,177.93915c-.23118,0-.34677.19265-.34677.53942a1.24461,1.24461,0,0,0,.53942.96326q.11559.11559,1.61827,1.04032a11.44157,11.44157,0,0,1,1.46415.96326s-.50089.30824-1.46415.92473c-.96326.578-1.50268.92473-1.57974.96326-.3853.30824-.61648.61648-.61648.88619v.11559c0,.34677.11559.53942.30824.53942a1.38023,1.38023,0,0,0,.42383-.15412c1.31-.73207,2.69712-1.57974,4.12273-2.50446a.85474.85474,0,0,0,.07706-1.42562,36.56836,36.56836,0,0,0-3.89155-2.4274A1.58241,1.58241,0,0,0,99.30618,177.93915Z"/><rect x="97" y="135" width="2" height="13"/><path d="M138,130h-1a31.5357,31.5357,0,0,0-31.5-31.5v-1A32.537,32.537,0,0,1,138,130Z"/><path d="M243,217H160a4.004,4.004,0,0,1-4-4V161a4.004,4.004,0,0,1,4-4h83a4.004,4.004,0,0,1,4,4v52A4.004,4.004,0,0,1,243,217Zm-83-58a2.00261,2.00261,0,0,0-2,2v52a2.00261,2.00261,0,0,0,2,2h83a2.00261,2.00261,0,0,0,2-2V161a2.00261,2.00261,0,0,0-2-2Z"/><path class="cls-5" d="M134,128c-.03853.21317-.01981.56158-.25012.73444-1.306.98013-6.424-5.869-12.74988-9.73444-6.36438-3.889-12.59747-3.93059-23-4-9.97028-.06653-14.95543-.09979-20,3-7.10773,4.36757-11.37157,12.83472-12.72209,12.03836C65.15215,129.9642,64.95822,129.75208,65,129c1-18,16.999-28.795,37-35,2.60905-.80942.96033,3.80823,3.15637,3.71832C106.98018,97.64366,115,94,117,95c1.66637.83319,1.34378,5.78432,7,13C132.695,119.0923,134.7162,124.03845,134,128Z"/><path d="M65.48828,131.11035a1.39845,1.39845,0,0,1-.71875-.21094,1.95284,1.95284,0,0,1-.76807-1.95508c.90771-16.34131,13.59277-28.41992,37.70215-35.89941a2.20531,2.20531,0,0,1,1.85889.13232,3.20709,3.20709,0,0,1,1.18555,2.40869,3.49312,3.49312,0,0,0,.31885,1.14355,24.14806,24.14806,0,0,0,3.60742-1.05371c4.17236-1.40186,7.24268-2.33447,8.77295-1.57031,1.02637.51318,1.43262,1.665,2.04688,3.40918a31.60293,31.60293,0,0,0,5.293,9.86865c8.373,10.68164,11.0415,16.12354,10.19678,20.79443l-.00977.082a1.72215,1.72215,0,0,1-.62354,1.27441c-1.33545,1-2.96484-.50879-5.92285-3.25586a52.2882,52.2882,0,0,0-7.94922-6.4248c-6.127-3.74463-12.28418-3.78564-22.48486-3.85352-9.76953-.06689-14.66992-.09766-19.47021,2.85205-3.91211,2.40381-6.92578,6.08887-9.126,8.77979C67.65576,129.76172,66.55225,131.11035,65.48828,131.11035ZM102.51611,94.895c-.021.01221-.09766.022-.21973.06006-22.95117,7.12012-35.14746,18.4043-36.26221,33.54785.51611-.54883,1.19189-1.375,1.81494-2.1377,2.16162-2.64258,5.42773-6.63672,9.62744-9.21729,5.28809-3.249,10.38379-3.21875,20.53027-3.14795,10.54736.07031,16.91357.11279,23.51465,4.14648a53.855,53.855,0,0,1,8.26709,6.6665,33.51256,33.51256,0,0,0,3.26074,2.811c.51563-3.33691-1.0293-7.77148-9.83643-19.00732a33.3908,33.3908,0,0,1-5.605-10.4375,6.31767,6.31767,0,0,0-1.05518-2.28467c-.90479-.45166-5.18457.98633-7.2417,1.67725a19.4503,19.4503,0,0,1-4.11377,1.14551c-1.917.08447-2.24121-1.78223-2.41846-2.78223A4.39915,4.39915,0,0,0,102.51611,94.895Z"/><path d="M79,132H77c0-2.28027,3.00928-4,7-4v2C80.94775,130,79,131.18457,79,132Z"/><path d="M116,132h2c0-2.28027-3.00928-4-7-4v2C114.05225,130,116,131.18457,116,132Z"/><rect x="180" y="29" width="20" height="2"/><rect x="563" y="64" width="22" height="2"/><rect x="479" width="10" height="2"/><rect x="314" y="39" width="12" height="2"/><rect x="51" y="83" width="12" height="2"/><rect x="71" y="43" width="19" height="2"/><rect x="58" y="130" width="6" height="17" rx="3" ry="3"/><rect x="135" y="130" width="6" height="17" rx="3" ry="3"/><path d="M61.5,130h-1A32.537,32.537,0,0,1,93,97.5v1A31.5357,31.5357,0,0,0,61.5,130Z"/></g></g></svg>