<svg width="115" height="105" xmlns="http://www.w3.org/2000/svg"><desc>Created with Sketch.</desc><defs><linearGradient x1="101.512%" y1="49.997%" x2="-1.332%" y2="49.997%" id="a"><stop stop-color="#0B757D" offset="0%"/><stop stop-color="#0E5A64" offset="100%"/></linearGradient><linearGradient x1="101.512%" y1="49.703%" x2="-1.332%" y2="49.703%" id="b"><stop stop-color="#0B757D" offset="0%"/><stop stop-color="#0E5A64" offset="100%"/></linearGradient><linearGradient x1="101.512%" y1="49.983%" x2="-1.332%" y2="49.983%" id="c"><stop stop-color="#0B757D" offset="0%"/><stop stop-color="#0E5A64" offset="100%"/></linearGradient><linearGradient x1="99.054%" y1="49.992%" x2=".376%" y2="49.992%" id="d"><stop stop-color="#009599" offset="0%"/><stop stop-color="#009599" offset="99.83%"/></linearGradient><linearGradient x1="101.525%" y1="50.018%" x2="-1.32%" y2="50.018%" id="e"><stop stop-color="#0B757D" offset="0%"/><stop stop-color="#0E5A64" offset="100%"/></linearGradient><linearGradient x1="101.525%" y1="49.725%" x2="-1.32%" y2="49.725%" id="f"><stop stop-color="#0B757D" offset="0%"/><stop stop-color="#0E5A64" offset="100%"/></linearGradient><linearGradient x1="101.525%" y1="50.005%" x2="-1.32%" y2="50.005%" id="g"><stop stop-color="#0B757D" offset="0%"/><stop stop-color="#0E5A64" offset="100%"/></linearGradient><linearGradient x1="99.066%" y1="50.011%" x2=".389%" y2="50.011%" id="h"><stop stop-color="#009599" offset="0%"/><stop stop-color="#009599" offset="99.83%"/></linearGradient><linearGradient x1="101.5%" y1="50.018%" x2="-1.345%" y2="50.018%" id="i"><stop stop-color="#0B757D" offset="0%"/><stop stop-color="#0E5A64" offset="100%"/></linearGradient><linearGradient x1="101.5%" y1="49.725%" x2="-1.345%" y2="49.725%" id="j"><stop stop-color="#0B757D" offset="0%"/><stop stop-color="#0E5A64" offset="100%"/></linearGradient><linearGradient x1="101.5%" y1="50.005%" x2="-1.345%" y2="50.005%" id="k"><stop stop-color="#0B757D" offset="0%"/><stop stop-color="#0E5A64" offset="100%"/></linearGradient><linearGradient x1="99.042%" y1="50.011%" x2=".364%" y2="50.011%" id="l"><stop stop-color="#009599" offset="0%"/><stop stop-color="#009599" offset="99.83%"/></linearGradient><linearGradient x1="49.823%" y1="99.477%" x2="49.823%" y2=".929%" id="m"><stop stop-color="#00F8FF" stop-opacity=".5" offset="0%"/><stop stop-color="#FFF" stop-opacity="0" offset="100%"/></linearGradient><linearGradient x1="49.875%" y1="99.468%" x2="49.875%" y2=".92%" id="n"><stop stop-color="#00F8FF" stop-opacity=".5" offset="0%"/><stop stop-color="#FFF" stop-opacity="0" offset="100%"/></linearGradient><linearGradient x1="49.861%" y1="99.477%" x2="49.861%" y2=".929%" id="o"><stop stop-color="#00F8FF" stop-opacity=".5" offset="0%"/><stop stop-color="#FFF" stop-opacity="0" offset="100%"/></linearGradient></defs><g transform="translate(0 -1)" fill="none" fill-rule="evenodd"><path d="M69.6 48.7c6.9 4 6.9 10.4.1 14.3-6.8 4-17.9 4-24.8 0-6.9-4-6.9-10.4-.1-14.3 6.9-3.9 18-3.9 24.8 0z" fill="#00F8FF"/><path d="M69.6 39.1c6.9 4 6.9 10.4.1 14.3-6.8 4-17.9 4-24.8 0-6.9-4-6.9-10.4-.1-14.3 6.9-4 18-4 24.8 0z" fill="#00F8FF"/><path d="M35.8 18.2v7.2c0 2.6-1.7 5.2-5.1 7.1-6.8 4-17.9 4-24.8 0-3.4-2-5.2-4.6-5.2-7.2v-7.2c0 2.6 1.7 5.2 5.2 7.2 6.9 4 17.9 4 24.8 0 3.4-1.9 5.1-4.5 5.1-7.1z" fill="url(#a)" transform="translate(39 36)"/><path d="M35.8 19.5v7.2c0 2.6-1.7 5.2-5.1 7.1-6.8 4-17.9 4-24.8 0-3.4-2-5.2-4.6-5.2-7.2v-7.2c0 2.6 1.7 5.2 5.2 7.2 6.9 4 17.9 4 24.8 0 3.4-2 5.1-4.6 5.1-7.1z" fill="url(#b)" transform="translate(39 26)"/><path d="M35.8 10.7v7.2c0 2.6-1.7 5.2-5.1 7.1-6.8 4-17.9 4-24.8 0-3.4-2-5.2-4.6-5.2-7.2v-7.2c0 2.6 1.7 5.2 5.2 7.2 6.9 4 17.9 4 24.8 0 3.4-1.9 5.1-4.5 5.1-7.1z" fill="url(#c)" transform="translate(39 26)"/><path d="M30.6 3.5c6.9 4 6.9 10.4.1 14.3-6.8 4-17.9 4-24.8 0C-1 13.8-1 7.4 5.8 3.5c6.9-4 18-4 24.8 0z" fill="url(#d)" transform="translate(39 26)"/><path d="M30.2 82.5c6.9 4 6.9 10.4.1 14.3-6.8 4-17.9 4-24.8 0-6.9-4-6.9-10.4-.1-14.3 6.9-3.9 18-3.9 24.8 0z" fill="#00F8FF"/><path d="M30.2 72.9c6.9 4 6.9 10.4.1 14.3-6.8 4-17.9 4-24.8 0-6.9-4-6.9-10.4-.1-14.3 6.9-4 18-4 24.8 0z" fill="#00F8FF"/><path d="M35.4 19v7.2c0 2.6-1.7 5.2-5.1 7.1-6.8 4-17.9 4-24.8 0-3.4-2-5.2-4.6-5.2-7.2v-7.2c0 2.6 1.7 5.2 5.2 7.2 6.9 4 17.9 4 24.8 0 3.4-1.9 5.1-4.5 5.1-7.1z" fill="url(#e)" transform="translate(0 69)"/><path d="M35.4 79.3v7.2c0 2.6-1.7 5.2-5.1 7.1-6.8 4-17.9 4-24.8 0-3.4-2-5.2-4.6-5.2-7.2v-7.2c0 2.6 1.7 5.2 5.2 7.2 6.9 4 17.9 4 24.8 0 3.4-2 5.1-4.6 5.1-7.1z" fill="url(#f)"/><path d="M35.4 70.5v7.2c0 2.6-1.7 5.2-5.1 7.1-6.8 4-17.9 4-24.8 0-3.4-2-5.2-4.6-5.2-7.2v-7.2c0 2.6 1.7 5.2 5.2 7.2 6.9 4 17.9 4 24.8 0 3.4-1.9 5.1-4.5 5.1-7.1z" fill="url(#g)"/><path d="M30.2 63.3c6.9 4 6.9 10.4.1 14.3-6.8 4-17.9 4-24.8 0-6.9-4-6.9-10.4-.1-14.3 6.9-4 18-4 24.8 0z" fill="url(#h)"/><path d="M23.9 67c3.3 1.9 3.4 5.1 0 7-3.3 1.9-8.7 1.9-12.1 0-3.3-1.9-3.4-5.1 0-7 3.4-2 8.8-2 12.1 0z" fill="#004C4C"/><path d="M11.8 70c3.3-1.9 8.7-1.9 12.1 0 1 .6 1.7 1.3 2.1 2 .9-1.7.2-3.7-2.1-5-3.3-1.9-8.7-1.9-12.1 0-2.3 1.3-3 3.3-2.1 5 .5-.8 1.2-1.5 2.1-2z" fill="#00F8FF"/><path d="M63.3 33.2c3.3 1.9 3.4 5.1 0 7-3.3 1.9-8.7 1.9-12.1 0-3.3-1.9-3.4-5.1 0-7 3.4-2 8.8-2 12.1 0z" fill="#004C4C"/><path d="M51.3 36.2c3.3-1.9 8.7-1.9 12.1 0 1 .6 1.7 1.3 2.1 2 .9-1.7.2-3.7-2.1-5-3.3-1.9-8.7-1.9-12.1 0-2.3 1.3-3 3.3-2.1 5 .4-.8 1.1-1.5 2.1-2zM109 82.5c6.9 4 6.9 10.4.1 14.3-6.8 4-17.9 4-24.8 0-6.9-4-6.9-10.4-.1-14.3 6.9-3.9 18-3.9 24.8 0z" fill="#00F8FF"/><path d="M109 72.9c6.9 4 6.9 10.4.1 14.3-6.8 4-17.9 4-24.8 0-6.9-4-6.9-10.4-.1-14.3 6.9-4 18-4 24.8 0z" fill="#00F8FF"/><path d="M35.1 19.1v7.2c0 2.6-1.7 5.2-5.1 7.1-6.8 4-17.9 4-24.8 0-3.4-2-5.2-4.6-5.2-7.2V19c0 2.6 1.7 5.2 5.2 7.2 6.9 4 17.9 4 24.8 0 3.4-1.9 5.1-4.5 5.1-7.1z" fill="url(#i)" transform="translate(79 69)"/><path d="M35.2 19.3v7.2c0 2.6-1.7 5.2-5.1 7.1-6.8 4-17.9 4-24.8 0-3.4-2-5.2-4.6-5.2-7.2v-7.2c0 2.6 1.7 5.2 5.2 7.2 6.9 4 17.9 4 24.8 0 3.4-2 5.1-4.6 5.1-7.1z" fill="url(#j)" transform="translate(79 60)"/><path d="M35.2 10.5v7.2c0 2.6-1.7 5.2-5.1 7.1-6.8 4-17.9 4-24.8 0-3.4-2-5.2-4.6-5.2-7.2v-7.2c0 2.6 1.7 5.2 5.2 7.2 6.9 4 17.9 4 24.8 0 3.4-1.9 5.1-4.5 5.1-7.1z" fill="url(#k)" transform="translate(79 60)"/><path d="M30 3.3c6.9 4 6.9 10.4.1 14.3-6.8 4-17.9 4-24.8 0-6.9-4-6.9-10.4-.1-14.3 6.9-4 18-4 24.8 0z" fill="url(#l)" transform="translate(79 60)"/><path d="M102.7 67c3.3 1.9 3.4 5.1 0 7-3.3 1.9-8.7 1.9-12.1 0-3.3-1.9-3.4-5.1 0-7 3.4-2 8.8-2 12.1 0z" fill="#004C4C"/><path d="M90.7 70c3.3-1.9 8.7-1.9 12.1 0 1 .6 1.7 1.3 2.1 2 .9-1.7.2-3.7-2.1-5-3.3-1.9-8.7-1.9-12.1 0-2.3 1.3-3 3.3-2.1 5 .4-.8 1.1-1.5 2.1-2z" fill="#00F8FF"/><g opacity=".5"><path d="M9.8 71.9l-.1-.3c0 .2 0 .2.1.3z" fill="#02656F"/><path d="M.4 1l7.3 36.6.1.3c.4.7 1.1 1.4 2.1 2 3.3 1.9 8.7 1.9 12.1 0 .9-.5 1.6-1.2 2-1.9l.3-.6L31.5.5.4 1z" fill="url(#m)" transform="translate(2 34)"/></g><g opacity=".5"><path d="M49.2 38.1l-.1-.3c0 .2.1.2.1.3z" fill="#02656F"/><path d="M.8 1.2l7.3 36.6.1.3c.4.7 1.1 1.4 2.1 2 3.3 1.9 8.7 1.9 12.1 0 .9-.5 1.6-1.2 2-1.9l.3-.6L31.9.7.8 1.2z" fill="url(#n)" transform="translate(41)"/></g><g opacity=".5"><path d="M88.6 71.9l-.1-.3c0 .2.1.2.1.3z" fill="#02656F"/><path d="M.2 1l7.3 36.6.1.3c.4.7 1.1 1.4 2.1 2 3.3 1.9 8.7 1.9 12.1 0 .9-.5 1.6-1.2 2-1.9l.3-.6L31.3.5.2 1z" fill="url(#o)" transform="translate(81 34)"/></g><circle fill="#00F8FF" cx="23.7" cy="57.5" r="1"/><circle fill="#00F8FF" cx="22.5" cy="43.9" r="1"/><circle fill="#00F8FF" cx="12.1" cy="37.5" r="1"/><circle fill="#00F8FF" cx="20" cy="63.5" r="1"/><circle fill="#00F8FF" cx="21.2" cy="73.7" r="1"/><circle fill="#00F8FF" cx="96.7" cy="70.8" r="1"/><circle fill="#00F8FF" cx="100.2" cy="72" r="1"/><circle fill="#00F8FF" cx="94.4" cy="62.8" r="1"/><circle fill="#00F8FF" cx="102" cy="55.9" r="1"/><circle fill="#00F8FF" cx="92.5" cy="55.5" r="1"/><circle fill="#00F8FF" cx="58.2" cy="36.6" r="1"/><circle fill="#00F8FF" cx="12.1" cy="57.2" r="1"/><circle fill="#00F8FF" cx="17.3" cy="70.5" r="1"/><circle fill="#00F8FF" cx="55" cy="39.3" r="1"/><circle fill="#00F8FF" cx="51.6" cy="29.5" r="1"/><circle fill="#00F8FF" cx="60.1" cy="24" r="1"/><circle fill="#00F8FF" cx="54.3" cy="21.2" r="1"/><circle fill="#00F8FF" cx="17.3" cy="51.9" r="1"/><g fill="#17EFB2"><path d="M51.7 81.5c-2.8.8-5.1 2.1-6.6 3.7-1.6 1.6-2.2 3.4-1.9 5.3l-3.7.2 5.5 3.2 4.3-3.7-3.7.2c-.3-1.5.3-3.1 1.6-4.5s3.2-2.4 5.6-3.1l-1.1-1.3M72.2 94.5l-7.7-.3 2.2 1.8c-2.2.9-4.7 1.4-7.5 1.4-2.7 0-5.3-.4-7.5-1.3l-1.3 1.2c2.6 1 5.7 1.5 8.9 1.5s6.3-.6 8.8-1.7l2.1 1.8 2-4.4M67 79.4l-7.5 1.1 3.4 4 1.5-2c1.4.4 2.7.9 3.8 1.5.8.4 1.5 1 2 1.5 1.4 1.3 2 2.8 1.9 4.4l2.4.1c.2-1.8-.6-3.6-2.2-5.2-.7-.7-1.5-1.3-2.4-1.8-1.3-.8-2.8-1.4-4.5-1.8l1.6-1.8"/></g></g></svg>
