<svg width="122" height="105" xmlns="http://www.w3.org/2000/svg"><desc>Created with Sketch.</desc><defs><linearGradient x1="73.406%" y1="24.235%" x2="25.836%" y2="76.585%" id="a"><stop stop-color="#0B757D" offset="0%"/><stop stop-color="#0E5A64" offset="100%"/></linearGradient><linearGradient x1="73.423%" y1="24.198%" x2="25.863%" y2="76.688%" id="b"><stop stop-color="#85FF59" offset="0%"/><stop stop-color="#43FF5A" offset="100%"/></linearGradient><linearGradient x1="-.031%" y1="50.013%" x2="99.965%" y2="50.013%" id="c"><stop stop-color="#00959A" offset="0%"/><stop stop-color="#00A799" offset="100%"/></linearGradient><linearGradient x1="-.031%" y1="50.039%" x2="99.965%" y2="50.039%" id="d"><stop stop-color="#006B75" offset="0%"/><stop stop-color="#00A59B" offset="100%"/></linearGradient></defs><g fill="none" fill-rule="evenodd"><path fill="url(#a)" d="M84.6 18.3l-30 17.4-30.3-17.4L54.4.8z"/><path fill="#0B757D" d="M84.6 18.3l-.1 32.1-30 17.5.1-32.2z"/><path fill="#0E5A64" d="M54.6 35.7l-.1 32.2-30.3-17.5.1-32.1z"/><path fill="#5CFF5A" fill-rule="nonzero" d="M12.183 58.16L23.38 45.2 34 43.5l1.784.3L34 61.9l-18.437 4.2z"/><path fill="url(#b)" d="M35.9 44.1L18.5 54.3.9 44.1 18.4 34z"/><path fill="#82FF81" d="M35.9 44.1v18.7L18.4 72.9l.1-18.6z"/><path fill="#1AF532" d="M18.5 54.3l-.1 18.6L.9 62.8V44.1z"/><path d="M70.8 26.3l-11.7-6.8c-.7-.4-1.9-.4-2.6 0-.7.4-.7 1.1 0 1.5l11.7 6.8 2.6-1.5" fill="#00F8FF"/><path d="M70.7 26.3l-2.6 1.5v13.5c0 .8.6 1.2 1.3.7.7-.4 1.3-1.4 1.3-2.3V26.3" fill="#00F8FF"/><path fill="url(#c)" d="M49.8 81.2l14.1 8.2 14.3-8.2L64 72.9z"/><path fill="url(#d)" d="M49.8 81.2v15.1l14.2 8.2-.1-15.1z"/><path fill="#00BDAB" d="M63.9 89.4l.1 15.1 14.2-8.2V81.2z"/><path d="M56.1 85l6.2-3.6c.4-.2 1-.2 1.4 0 .4.2.4.6 0 .8l-6.2 3.6-1.4-.8M56.1 85l1.4.8v7.1c0 .4-.3.6-.7.4-.4-.2-.7-.8-.7-1.2V85" fill="#00F8FF"/><path fill="#0E5A64" d="M75.6 52.7l-9.1 5.2v2.8l9.1-5.2v-2.8"/><path d="M24.4 62.2c-.6.3-1 1.1-1 1.7 0 .6.5.9 1 .6.5-.3 1-1.1 1-1.7 0-.6-.5-.9-1-.6M27.9 60.2c-.6.3-1 1.1-1 1.7 0 .6.5.9 1 .6.6-.3 1-1.1 1-1.7 0-.7-.4-.9-1-.6M31.5 58.1c-.6.3-1 1.1-1 1.7 0 .6.5.9 1 .6.5-.3 1-1.1 1-1.7 0-.6-.5-.9-1-.6" fill="#12D928"/><path d="M73.5 79.6l-.1-43.4 48.3-27.8.1 43.4z"/><path fill="#8DFFFC" opacity=".4" d="M115.3 12.1L73.4 36.2l.1 36.1 6.4-3.7-.1-28.7 35.5-20.5v-7.3"/><path fill="#8DFFFC" opacity=".502" d="M121.7 15.7l-6.4 3.7.1 28.7-35.5 20.5v7.3l41.9-24.1-.1-36.1"/><path d="M95.6 53.5l-3.9-2.4 4-6.8 1 .6-3 5 2.9 1.8-1 1.8m10.4-6l-1-.5 2.9-5.1-3-1.6 1-1.7 4 2.1-3.9 6.8m-5.8 5.2l-1.4.4 2.6-14.2 1.4-.4-2.6 14.2m15.1-33.3L79.8 39.9l.1 28.7 35.5-20.5-.1-28.7" fill="#8DFFFC" fill-rule="nonzero" opacity=".702"/><path fill="#0E5A64" d="M95.8 44.4l-4 6.7 3.8 2.4 1.1-1.7-2.9-1.8 3-5-1-.6M105.8 38.6l-.9 1.7 3 1.6L105 47l1 .5 3.9-6.8-4.1-2.1M101.4 38.9l-2.6 14.2 1.4-.4 2.6-14.2-1.4.4"/></g></svg>
