<svg width="115" height="90" xmlns="http://www.w3.org/2000/svg"><desc>Created with Sketch.</desc><defs><linearGradient x1="-.031%" y1="50.039%" x2="99.965%" y2="50.039%" id="a"><stop stop-color="#006B75" offset="0%"/><stop stop-color="#00C1AE" offset="100%"/></linearGradient><linearGradient x1="-.031%" y1="50.013%" x2="99.965%" y2="50.013%" id="b"><stop stop-color="#00959A" offset="0%"/><stop stop-color="#00A799" offset="100%"/></linearGradient><linearGradient x1="73.423%" y1="24.198%" x2="25.863%" y2="76.688%" id="c"><stop stop-color="#85FF59" offset="0%"/><stop stop-color="#43FF5A" offset="100%"/></linearGradient><linearGradient x1="73.406%" y1="24.235%" x2="25.836%" y2="76.585%" id="d"><stop stop-color="#0B757D" offset="0%"/><stop stop-color="#0E5A64" offset="100%"/></linearGradient></defs><g fill="none" fill-rule="evenodd"><path fill="#7CFF4C" d="M107.3 27l.4.6L8.1 84.5v-.7zM8.3 27.1l-.3.5 21.3 12.3v-.7z"/><path fill="url(#a)" d="M114.4 56.2l-56.9 33-57.2-33v-3.4l56.8-29.7 57.3 29.7z"/><path fill="url(#b)" d="M114.4 52.8l-56.9 33-57.2-33 56.8-33.1z"/><path fill="#7CFF4C" d="M29.6 35.2v.7l56.7 32.7v-.7zM85.9 71.9l-.3.6 21.1 12v-.7zM45.5 59l.3.6-17 9.7-.6-.4zM84.9 35.8l.7.3L71.7 44l-.6-.3z"/><path fill="url(#c)" d="M84.9 50.4L57.2 66.5 29.3 50.4 57 34.3z"/><path fill="#82FF81" d="M84.9 50.4v2.9L57.2 69.5v-3z"/><path fill="#1AF532" d="M57.2 66.5v3L29.3 53.4v-3z"/><path fill="#17D921" d="M71.1 50.4l-13.7 8-13.9-8 13.8-8z"/><path fill="#1AF532" d="M71.1 49.5l-13.7 8-13.9-8 13.8-8z"/><path d="M13.3 81.4c3 1.7 3 4.5 0 6.2-2.9 1.7-7.7 1.7-10.6 0-2.9-1.7-3-4.5 0-6.2 2.9-1.7 7.6-1.7 10.6 0zM13.3 24c3 1.7 3 4.5 0 6.2-2.9 1.7-7.7 1.7-10.6 0-2.9-1.7-3-4.5 0-6.2 2.9-1.7 7.6-1.7 10.6 0zM112 24c3 1.7 3 4.5 0 6.2-2.9 1.7-7.7 1.7-10.6 0-2.9-1.7-3-4.5 0-6.2 2.9-1.7 7.7-1.7 10.6 0zM112 81.4c3 1.7 3 4.5 0 6.2-2.9 1.7-7.7 1.7-10.6 0-2.9-1.7-3-4.5 0-6.2 2.9-1.7 7.7-1.7 10.6 0zM85.7 72.5l.6-.4v-4.3l-.6.4v4.3c-.1 0-.1 0 0 0zM28.2 68.9V72.3l.7.4v-3.4z" fill="#7CFF4C"/><path fill="#00F7FF" d="M77 36.2L57.2 47.7 37.4 36.2l19.7-11.5z"/><path fill="#0B757D" d="M77 36.2v6.7L57.2 54.4v-6.7z"/><path fill="#0E5A64" d="M57.2 47.7v6.7L37.3 42.9l.1-6.7z"/><path fill="#00F7FF" d="M76.9 28.1L57.2 39.5 37.3 28.1 57 16.6z"/><path fill="#0B757D" d="M76.9 28.1v6.7L57.2 46.3v-6.8z"/><path fill="#0E5A64" d="M57.2 39.5v6.8L37.3 34.8v-6.7z"/><path fill="#00F7FF" d="M76.9 19.8L57.2 31.3 37.3 19.8 57 8.4z"/><path fill="#0B757D" d="M76.9 19.8v6.7L57.2 38v-6.7z"/><path fill="#0E5A64" d="M57.2 31.3V38L37.3 26.6v-6.8z"/><path fill="url(#d)" d="M76.9 11.6L57.2 23.1 37.3 11.6 57 .1z"/><path fill="#0B757D" d="M76.9 11.6v6.7L57.2 29.8v-6.7z"/><path fill="#0E5A64" d="M57.2 23.1v6.7L37.3 18.3v-6.7z"/><path d="M40.8 16.5c-.3-.2-.6 0-.6.3 0 .4.3.8.6 1 .3.2.6 0 .6-.3-.1-.3-.3-.8-.6-1M43.1 17.9c-.3-.2-.6 0-.6.3 0 .4.3.8.6 1 .3.2.6 0 .6-.3 0-.4-.3-.8-.6-1" fill="#A3FF7A"/><path fill="#0B4C52" d="M70.4 36.7l-6 3.5V42l6-3.5v-1.8M70.4 28.5l-6 3.5v1.8l6-3.5v-1.8M70.4 20.2l-6 3.5v1.9l6-3.5v-1.9"/></g></svg>
