<svg xmlns="http://www.w3.org/2000/svg" viewBox="0 0 67 67"><style type="text/css">
	.st0{fill:#FFFFFF;}
	.st1{fill:#435363;}
	.st2{fill:#F38B00;}
</style><circle class="st0" cx="33.5" cy="33.5" r="33.5"/><g transform="matrix(0.086253 0 0 0.086253 -37.841 -23.224)"><path class="st1" d="m829.6 774.2c-63.5 0-115.1-51.6-115.1-115.1s51.6-115.1 115.1-115.1c52.4 0 96.7 35.2 110.6 83.2h44.5c-14.8-72.1-78.7-126.4-155.1-126.4-87.3 0-158.3 71-158.3 158.3s71 158.3 158.3 158.3c76.4 0 140.3-54.3 155.1-126.4h-44.5c-14 48-58.3 83.2-110.6 83.2"/><path class="st1" d="m752 736.7c19.9 19.9 47.3 32.2 77.6 32.2v-45.9c-17.6 0-33.6-7.2-45.2-18.7l-32.4 32.4z"/><path class="st2" d="m719.8 659.1c0 15.7 3.3 30.6 9.3 44.2l42-18.5c-3.5-7.9-5.4-16.6-5.4-25.7 0-35.3 28.6-63.9 63.9-63.9v-45.9c-60.6 0-109.8 49.2-109.8 109.8"/><path class="st1" d="m869.3 556.8l-16.6 42.8c13.6 5.3 24.9 15.1 32.2 27.6h49.7c-9.9-32.3-34.1-58.3-65.3-70.4"/><path class="st2" d="m852.7 718.6l16.6 42.8c31.1-12.2 55.4-38.1 65.2-70.4h-49.7c-7.2 12.5-18.5 22.3-32.1 27.6"/><path class="st1" d="m626.5 720.5c-0.7-2.4-1.4-4.8-2.1-7.3 0-0.1-0.1-0.3-0.1-0.4-0.6-2.3-1.1-4.5-1.7-6.8-0.1-0.5-0.2-0.9-0.3-1.4-0.4-2-0.8-3.9-1.2-5.9-0.2-0.9-0.3-1.8-0.5-2.6-0.3-1.6-0.6-3.1-0.8-4.7-0.2-1.4-0.4-2.7-0.6-4.1-1.2-9.3-1.9-18.7-1.9-28.2h-43.3c0 10.4 0.6 20.6 1.9 30.8 0 0.2 0.1 0.4 0.1 0.7 0.3 2.8 0.7 5.5 1.1 8.2 0.1 0.8 0.2 1.5 0.4 2.3 0.4 2.2 0.8 4.5 1.2 6.7 0.2 1.2 0.5 2.4 0.7 3.5 0.4 1.8 0.7 3.5 1.1 5.3 0.4 1.5 0.7 3.1 1.1 4.6 0.3 1.4 0.7 2.8 1.1 4.1l1.5 5.4c0.2 0.8 0.4 1.5 0.6 2.3 3 9.9 6.5 19.6 10.7 28.9l39.7-17.5c-3.3-7.7-6.3-15.7-8.7-23.9z"/><path class="st2" d="m829.6 871.3c-58.5 0-111.5-23.8-150-62.3l-30.7 30.7c46.2 46.2 110.1 74.9 180.7 74.9 130.3 0 237.8-97.5 253.6-223.6h-43.7c-15.6 101.9-103.8 180.3-209.9 180.3"/><path class="st2" d="m829.6 446.9c47.5 0 91.4 15.7 126.9 42.2l26-34.8c-42.6-31.9-95.5-50.7-152.8-50.7-108.4 0-201.1 67.5-238.2 162.9l40.4 15.7c30.8-79.2 107.8-135.3 197.7-135.3"/><path class="st1" d="m1039.4 627.1h43.7c-4.7-37.6-17.5-72.7-36.8-103.4l-36.8 23c15.1 24 25.4 51.3 29.9 80.4"/><path class="st2" d="m990.1 627.1h43.9c-11.5-73.6-61.9-134.5-129.4-160.8l-15.7 40.3c51.3 20.1 90.2 65.3 101.2 120.5"/><path class="st1" d="m829.6 495.4v-43.2c-87.6 0-162.7 54.8-192.8 131.9l40.3 15.7c23.8-61.1 83.1-104.4 152.5-104.4"/><path class="st2" d="m665.9 659.1h-43.2c0 86.9 53.9 161.5 130.1 192l16.1-40.1c-60.4-24.2-103-83.2-103-151.9"/><path class="st1" d="m829.6 822.7v43.2c103.2 0 189-76 204.4-174.9h-43.9c-14.9 75-81.2 131.7-160.5 131.7"/></g></svg>
