<svg width="100" height="109" xmlns="http://www.w3.org/2000/svg"><desc>Created with Sketch.</desc><defs><linearGradient x1="73.42%" y1="24.274%" x2="25.871%" y2="76.794%" id="a"><stop stop-color="#0B757D" offset="0%"/><stop stop-color="#0E5A64" offset="100%"/></linearGradient><linearGradient x1="50.043%" y1="97.847%" x2="50.043%" y2="2.034%" id="b"><stop stop-color="#67FF27" stop-opacity=".5" offset="0%"/><stop stop-color="#FFF" stop-opacity="0" offset="100%"/></linearGradient><linearGradient x1="72.043%" y1="8.549%" x2="-21.808%" y2="159.207%" id="c"><stop stop-color="#09353B" offset="0%"/><stop stop-color="#0B757D" stop-opacity="0" offset="100%"/></linearGradient><linearGradient x1=".052%" y1="49.951%" x2="100.074%" y2="49.951%" id="d"><stop stop-color="#00E7FF" offset="0%"/><stop stop-color="#00F7FF" offset="100%"/></linearGradient><linearGradient x1="-.357%" y1="49.912%" x2="99.959%" y2="49.912%" id="e"><stop stop-color="#00E7FF" offset="0%"/><stop stop-color="#00F7FF" offset="100%"/></linearGradient></defs><g fill="none" fill-rule="evenodd"><g transform="translate(0 -2)"><path fill="#00F7FF" d="M60 83.8l-29.4 17.1L.9 83.8l29.5-17.1z"/><path fill="#0B757D" d="M60 83.8v10L30.5 111l.1-10.1z"/><path fill="#0E5A64" d="M30.6 100.9l-.1 10.1L.9 93.8v-10z"/><path fill="#00F7FF" d="M59.9 71.7L30.5 88.8.8 71.7l29.5-17.1z"/><path fill="#0B757D" d="M59.9 71.7v10L30.4 98.9l.1-10.1z"/><path fill="#0E5A64" d="M30.5 88.8l-.1 10.1L.8 81.7v-10z"/><path fill="#00F7FF" d="M59.9 59.4L30.5 76.5.8 59.4l29.5-17.1z"/><path fill="#0B757D" d="M59.9 59.4v10L30.4 86.6l.1-10.1z"/><path fill="#0E5A64" d="M30.5 76.5l-.1 10.1L.8 69.4v-10z"/><path fill="url(#a)" d="M59.9 47.1L30.5 64.2.8 47.1 30.3 30z"/><path fill="#0B757D" d="M59.9 47.1v10L30.4 74.3l.1-10.1z"/><path fill="#0E5A64" d="M30.5 64.2l-.1 10.1L.8 57.2V47.1z"/><path d="M6 54.5c-.5-.3-.9-.1-.9.5s.4 1.2.9 1.5c.5.3.9.1.9-.5s-.4-1.2-.9-1.5M9.5 56.5c-.5-.3-.9-.1-.9.5s.4 1.2.9 1.5c.5.3.9.1.9-.5-.1-.6-.4-1.2-.9-1.5" fill="#A3FF7A"/><path fill="#0B4C52" d="M50.2 84.6l-9 5.2v2.7l9.1-5.2-.1-2.7M50.2 72.3l-9 5.2v2.8l9.1-5.2-.1-2.8M50.2 60l-9 5.2V68l9.1-5.3-.1-2.7"/><path fill="#0D404B" d="M45 47l-14.6 8.5L15.7 47l14.6-8.5z"/><path fill="url(#b)" d="M56.4.4H4.9l11.3 46.8 14.2 8.3 14.8-8.3z"/><path fill="#85FF59" d="M30.4 38.5L15.9 47l5.5 3.2 9-5.2 9.2 5.3 5.6-3.3z"/><path fill="url(#c)" opacity=".5" d="M44.1 81.9l-2.5 10.4 2.1 1.1-2.2 1.2-2.4 11.4L60 93.8v-10z"/><path d="M88.7 48.5l2.6 1.5c-1.5-.8-3.5-.7-5.7.6L83 49c2.3-1.3 4.3-1.4 5.7-.5z" fill="#00F7FF"/><path d="M72 45.4c-5.6 3.3-10.5 10-12.5 16.8-.9-.1-2 .1-3.1.8-3.2 1.9-5.9 6.4-5.9 10.1 0 .3 0 .6.1.8-2.3 2.6-3.9 6.2-3.8 9.4 0 4.4 3.1 6.2 7 4l31.9-18.4c4.4-2.6 8-8.8 8-13.8 0-5.1-3.6-7.1-8-4.6-1.5-6.6-7-8.9-13.7-5.1z" fill="#8DFFFF"/><path d="M48 72.5c0-.3-.1-.5-.1-.8 0-3.7 2.6-8.3 5.9-10.2 1.2-.7 2.2-.9 3.1-.8l1.3.8-1.3-.8c2-6.8 6.9-13.6 12.5-16.8 3.8-2.2 7.3-2.4 9.8-.9l2.6 1.5c-2.5-1.5-6-1.3-9.8.9-5.7 3.3-10.5 10-12.5 16.8-.9-.1-2 .1-3.1.8-3.3 1.9-5.9 6.4-5.9 10.2 0 .3 0 .6.1.8-2.3 2.6-3.9 6.3-3.9 9.4 0 2.2.8 3.7 2 4.5l-2.6-1.5c-1.3-.7-2-2.3-2-4.5 0-3.2 1.6-6.8 3.9-9.4z" fill="url(#d)"/><path d="M96.5 63.7l1.6.9c-.9-.5-2.2-.5-3.6.4l-1.6-.9c1.4-.9 2.6-.9 3.6-.4z" fill="#00F7FF"/><path d="M85.9 61.8c-3.6 2.1-6.6 6.3-7.9 10.6-.6-.1-1.3.1-2 .5-2.1 1.2-3.7 4.1-3.7 6.4v.5c-1.4 1.7-2.4 4-2.4 5.9 0 2.8 2 3.9 4.4 2.5l20.2-11.7c2.8-1.6 5.1-5.5 5.1-8.8 0-3.2-2.3-4.5-5.1-2.9-.9-4-4.4-5.4-8.6-3z" fill="#8DFFFF"/><path d="M70.7 78.9v-.5c0-2.4 1.7-5.2 3.7-6.4.7-.4 1.4-.6 2-.5l.8.5-.8-.5c1.3-4.3 4.4-8.6 7.9-10.7 2.4-1.4 4.6-1.5 6.2-.6l1.6 1c-1.6-.9-3.8-.8-6.2.6-3.6 2.1-6.6 6.3-7.9 10.7-.6-.1-1.3.1-2 .5-2.1 1.2-3.7 4.1-3.7 6.4v.5c-1.5 1.7-2.4 4-2.4 6 0 1.4.5 2.4 1.3 2.8l-1.6-1c-.8-.5-1.3-1.4-1.3-2.8-.1-2 .9-4.3 2.4-6z" fill="url(#e)"/><circle fill="#85FF59" cx="36.7" cy="39.5" r="1"/><circle fill="#85FF59" cx="35.6" cy="25.9" r="1"/><circle fill="#85FF59" cx="25.1" cy="19.5" r="1"/><circle fill="#85FF59" cx="33.4" cy="48.8" r="1"/><circle fill="#85FF59" cx="25.1" cy="39.1" r="1"/><circle fill="#85FF59" cx="30.4" cy="52.4" r="1"/><circle fill="#85FF59" cx="30.4" cy="33.8" r="1"/><path d="M17.4 84.5c-.6 0-1.3-.2-1.8-.6-.9-.6-1.4-1.7-1.4-2.9-.1-3.6 3.7-5.7 3.9-5.8.2-.1.5 0 .7.2.1.2 0 .5-.2.7 0 0-3.4 1.9-3.3 4.9 0 1.2.6 1.8 1 2.2.5.4 1.2.5 1.8.3.3-.1.5.1.6.3.1.3-.1.5-.3.6-.5.1-.7.1-1 .1z" fill="#0C8A8E"/><path d="M14.4 82.7c-.6 0-1.3-.2-1.8-.6-.9-.6-1.4-1.7-1.4-2.9-.1-3.6 3.7-5.7 3.9-5.8.2-.1.5 0 .7.2.1.2 0 .5-.2.7 0 0-3.4 1.9-3.3 4.9 0 1.2.6 1.8 1 2.2.5.4 1.2.5 1.8.3.3-.1.5.1.6.3.1.3-.1.5-.3.6-.5 0-.7.1-1 .1z" fill="#0C8A8E"/><path d="M11.4 80.9c-.6 0-1.3-.2-1.8-.6-.9-.6-1.4-1.7-1.4-2.9-.1-3.6 3.7-5.7 3.9-5.8.2-.1.5 0 .7.2.1.2 0 .5-.2.7 0 0-3.4 1.9-3.3 4.9 0 1.2.6 1.8 1 2.2.5.4 1.2.5 1.8.3.3-.1.5.1.6.3.1.3-.1.5-.3.6-.5.1-.8.1-1 .1z" fill="#0C8A8E"/></g></g></svg>
