<svg xmlns="http://www.w3.org/2000/svg" viewBox="0 0 67 67"><style type="text/css">
	.st0{fill:#FFFFFF;}
	.st1{fill:#4285F4;}
	.st2{opacity:7.000000e-02;enable-background:new    ;}
</style><title>  Cloud Deployment Manager</title><circle class="st0" cx="33.5" cy="33.7" r="33.5"/><path class="st1" d="M55.1 31.5l-9.3-16.1c-0.7-1.3-2-2-3.5-2.1H23.8c-1.4 0-2.8 0.8-3.5 2.1L11 31.5c-0.7 1.2-0.7 2.8 0 4l9.3 16.2c0.7 1.3 2 2.1 3.5 2.1h18.6c1.5 0 2.8-0.9 3.5-2.1l9.3-16.1C55.8 34.3 55.8 32.8 55.1 31.5z"/><path class="st2" d="M44.6 26.9L27.9 30l-6.5 5.4 2.1 2.1 -1.9 1.8 14.6 14.6h6.2c1.5 0 2.8-0.9 3.5-2.1l8.6-15L44.6 26.9z"/><path class="st0" d="M36.7 42.5h-7.1c-0.2 0-0.4-0.2-0.4-0.4l0 0c0-0.2 0.2-0.4 0.4-0.4h7.1c0.2 0 0.4 0.2 0.4 0.4l0 0C37 42.3 36.9 42.5 36.7 42.5z"/><rect x="31.8" y="39" class="st0" width="2.7" height="3.1"/><path class="st0" d="M40.7 36.7c-0.2 0-0.3-0.1-0.5-0.2l-4.8-5L32.2 35c-0.2 0.2-0.6 0.3-0.9 0.1l-2.4-2 -2.6 3.4c-0.1 0.2-0.3 0.3-0.5 0.3h-4.4v2c0 0.5 0.4 0.9 0.9 0.9H44c0.5 0 0.9-0.4 0.9-0.9v-2H40.7z"/><path class="st0" d="M25.5 35.4l2.8-3.7c0.2-0.3 0.6-0.3 0.9-0.1 0 0 0 0 0 0l2.5 2 3.3-3.4c0.1-0.1 0.3-0.2 0.5-0.2l0 0c0.2 0 0.3 0.1 0.5 0.2l5.1 5.3h3.8v-8c0-0.5-0.4-0.9-0.9-0.9H22.3c-0.5 0-0.9 0.4-0.9 0.9v8H25.5z"/></svg>
