<?xml version="1.0" encoding="utf-8"?>
<!-- Generator: Adobe Illustrator 22.1.0, SVG Export Plug-In . SVG Version: 6.00 Build 0)  -->
<svg version="1.1" id="Layer_1" xmlns="http://www.w3.org/2000/svg" xmlns:xlink="http://www.w3.org/1999/xlink" x="0px" y="0px"
	 viewBox="0 0 457 291" style="enable-background:new 0 0 457 291;" xml:space="preserve">
<style type="text/css">
	.st0{fill:#3F8624;}
	.st1{fill:none;stroke:#FFFFFF;stroke-miterlimit:10;}
	.st2{fill:none;stroke:#FFFFFF;stroke-width:2.3949;stroke-miterlimit:10;}
	.st3{fill:#FFFFFF;}
	.st4{fill:#FFFFFF;stroke:#FFFFFF;stroke-width:0.3637;stroke-miterlimit:10;}
	.st5{fill:url(#Blue_Gradient_2_);}
	.st6{fill:url(#Blue_Gradient_4_);}
	.st7{fill:url(#Blue_Gradient_5_);}
	.st8{fill:none;stroke:#FFFFFF;stroke-width:0.9623;stroke-miterlimit:10;}
	.st9{fill:url(#Turquoise_Gradient_1_);}
	.st10{fill:url(#Green_Gradient_2_);}
	.st11{fill:none;stroke:#8E8E8E;stroke-width:0.2829;stroke-miterlimit:10;}
	.st12{fill:#8E8E8E;}
	.st13{fill:#693CC5;}
	.st14{fill:url(#Purple_Gradient_2_);}
	.st15{fill:none;}
	.st16{fill:none;stroke:#8E8E8E;stroke-width:0.2083;stroke-miterlimit:10;}
	.st17{fill:url(#Green_Gradient_3_);}
	.st18{fill:url(#Purple_Gradient_3_);}
	.st19{fill:none;stroke:#8E8E8E;stroke-width:0.2986;stroke-miterlimit:10;}
	.st20{fill:url(#Pink_Gradient_1_);}
	.st21{fill:url(#Orange_Gradient_1_);}
	.st22{font-family:'Helvetica';}
	.st23{font-size:8px;}
	.st24{font-family:'Helvetica-Bold';}
	.st25{font-size:5px;}
	.st26{opacity:0.6;}
	.st27{fill:#939393;}
	.st28{font-size:5.0771px;}
</style>
<g>
	<rect x="36" y="30" class="st0" width="31" height="31"/>
	<g>
		<path class="st1" d="M47.4,40.4H51c0.2,0,0.3,0.1,0.3,0.3v1.7c0,0.2,0.1,0.3,0.3,0.3h8.9c0.2,0,0.3,0.1,0.3,0.3v8.9
			c0,0.2-0.1,0.3-0.3,0.3H43.1c-0.2,0-0.3-0.1-0.3-0.3v-9.8c0-0.2,0.1-0.3,0.3-0.3h3.6c0.2,0,0.3-0.1,0.3-0.3v-0.8
			C47.1,40.5,47.2,40.4,47.4,40.4z"/>
		<g>
			<g>
				<line class="st2" x1="52.8" y1="44.4" x2="52.8" y2="46.5"/>
				<g>
					<polygon class="st3" points="51.1,46 52.8,48.9 54.5,46 					"/>
				</g>
			</g>
		</g>
		<polygon class="st4" points="49.7,48.9 50.2,48.9 50.2,49.9 55.6,49.9 55.6,48.9 56.1,48.9 56.1,50.4 49.7,50.4 		"/>
	</g>
	<g>
		
			<linearGradient id="Blue_Gradient_2_" gradientUnits="userSpaceOnUse" x1="603.4182" y1="142.4182" x2="559.5775" y2="98.5775" gradientTransform="matrix(-1 0 0 1 632.9979 -24.9979)">
			<stop  offset="0" style="stop-color:#2E27AD"/>
			<stop  offset="1" style="stop-color:#527FFF"/>
		</linearGradient>
		<rect id="Blue_Gradient" x="36" y="80" class="st5" width="31" height="31"/>
	</g>
	<g id="Icon_Test">
		<g>
			<path class="st3" d="M56.6,91.6c0-1.2-2.3-1.7-4.4-1.8c-2.1,0-4.4,0.5-4.5,1.7c0,0.1,0,0.1,0,0.2V99c0,1.2,2.3,1.8,4.4,1.8
				s4.5-0.5,4.5-1.7V91.6L56.6,91.6z M52.2,90.6c2.4,0,3.6,0.7,3.6,0.9c0,0.3-1.3,0.9-3.6,0.9c-2.4,0-3.6-0.7-3.6-0.9
				S49.8,90.6,52.2,90.6z M55.8,99.1c0,0.3-1.3,0.9-3.7,0.9s-3.6-0.7-3.6-0.9v-1.3c0.8,0.5,2.3,0.7,3.6,0.7c1.4,0,2.8-0.2,3.6-0.6
				L55.8,99.1z M55.8,96.8c0,0.3-1.3,0.9-3.6,0.9c-2.4,0-3.6-0.7-3.6-0.9l0,0v-1.5c0.8,0.5,2.3,0.7,3.6,0.7c1.4,0,2.8-0.2,3.6-0.6
				V96.8z M55.8,94.2c0,0.3-1.3,0.9-3.6,0.9c-2.4,0-3.6-0.7-3.6-0.9l0,0v-1.6c0.9,0.5,2.3,0.7,3.6,0.7c1.4,0,2.8-0.2,3.7-0.7
				L55.8,94.2z"/>
		</g>
		<g>
			<path class="st3" d="M43.3,104.5H46v0.8h-3.6c-0.2,0-0.4-0.2-0.4-0.4v-3.6h0.8v2.7l3.1-3l0.6,0.6L43.3,104.5z"/>
			<path class="st3" d="M62.2,101.5v3.6c0,0.2-0.2,0.4-0.4,0.4h-3.6v-0.8h2.7l-3-3l0.6-0.6l3,3v-2.7L62.2,101.5z"/>
			<path class="st3" d="M62.4,85.7v3.6h-0.8v-2.7l-3,3L57.9,89l3-3h-2.7v-0.8h3.6C62.2,85.3,62.4,85.4,62.4,85.7z"/>
			<path class="st3" d="M46.5,89l-0.6,0.6l-3-3.1v2.7h-0.8v-3.6c0-0.2,0.2-0.4,0.4-0.4h3.6V86h-2.7L46.5,89z"/>
			<path class="st3" d="M45.9,98.9C43.4,98,42,96.6,42,95.1s1.4-2.8,3.9-3.7l0.3,0.8c-2.1,0.7-3.4,1.8-3.4,2.9s1.2,2.2,3.3,3
				L45.9,98.9z"/>
			<path class="st3" d="M58.1,99.1l-0.3-0.8c2.3-0.7,3.6-1.9,3.6-3s-1.3-2.3-3.6-3.1l0.3-0.8c2.6,0.9,4.1,2.3,4.1,3.9
				C62.3,96.8,60.7,98.2,58.1,99.1z"/>
		</g>
	</g>
	
		<linearGradient id="Blue_Gradient_4_" gradientUnits="userSpaceOnUse" x1="354.4189" y1="-132.4218" x2="310.5783" y2="-88.581" gradientTransform="matrix(-4.371139e-08 1 1 4.371139e-08 162.0014 -186.9986)">
		<stop  offset="0" style="stop-color:#2E27AD"/>
		<stop  offset="1" style="stop-color:#527FFF"/>
	</linearGradient>
	<rect id="Blue_Gradient_1_" x="36" y="130" class="st6" width="31" height="31"/>
	
		<linearGradient id="Blue_Gradient_5_" gradientUnits="userSpaceOnUse" x1="403.4189" y1="-132.4217" x2="359.5783" y2="-88.5811" gradientTransform="matrix(-4.371139e-08 1 1 4.371139e-08 162.0014 -186.9986)">
		<stop  offset="0" style="stop-color:#2E27AD"/>
		<stop  offset="1" style="stop-color:#527FFF"/>
	</linearGradient>
	<rect id="Blue_Gradient_3_" x="36" y="179" class="st7" width="31" height="31"/>
	<g id="Icon_Test_1_">
		<path class="st3" d="M57,138.5c-0.1-1.6-3.1-2.5-6-2.5c-2.8,0-5.8,0.9-6,2.5l0,0v12.4c0,1.7,3.1,2.6,6,2.6s6-0.9,6-2.6V138.5
			L57,138.5z M51.1,136.8c3.2,0,5.2,1,5.2,1.8s-2,1.8-5.2,1.8s-5.2-1-5.2-1.8S47.9,136.8,51.1,136.8z M51.1,152.6
			c-3.2,0-5.2-1-5.2-1.8v-2.4c1.1,0.8,3.2,1.2,5.2,1.2s4-0.4,5.2-1.2v2.4C56.2,151.6,54.3,152.6,51.1,152.6z M51.1,148.9
			c-3.2,0-5.2-1-5.2-1.8l0,0v-2.8c1.1,0.8,3.2,1.2,5.2,1.2s4-0.4,5.2-1.2v2.8C56.3,147.9,54.3,148.9,51.1,148.9z M51.1,144.8
			c-3.2,0-5.2-1-5.2-1.8l0,0v-3.1c1.1,0.8,3.2,1.2,5.2,1.2s4.1-0.4,5.2-1.2v3.1C56.3,143.8,54.3,144.8,51.1,144.8z"/>
	</g>
	<g>
		<path class="st8" d="M55.1,203.5h-8.2c-1.9,0-3.4-1.5-3.4-3.4v-13.2c0-1.9,1.5-3.4,3.4-3.4h8.2c1.9,0,3.4,1.5,3.4,3.4v13.2
			C58.5,202,57,203.5,55.1,203.5z"/>
		<g>
			<rect x="47" y="188" class="st3" width="2" height="1"/>
			<rect x="53" y="188" class="st3" width="2" height="1"/>
			<rect x="50" y="188" class="st3" width="2" height="1"/>
		</g>
		<g>
			<rect x="47" y="190" class="st3" width="2" height="1"/>
			<rect x="53" y="190" class="st3" width="2" height="1"/>
			<rect x="50" y="190" class="st3" width="2" height="1"/>
		</g>
		<g>
			<rect x="47" y="192" class="st3" width="2" height="1"/>
			<rect x="53" y="192" class="st3" width="2" height="1"/>
			<rect x="50" y="192" class="st3" width="2" height="1"/>
		</g>
		<g>
			<rect x="47" y="194" class="st3" width="2" height="1"/>
			<rect x="53" y="194" class="st3" width="2" height="1"/>
			<rect x="50" y="194" class="st3" width="2" height="1"/>
		</g>
		<g>
			<rect x="47" y="196" class="st3" width="2" height="1"/>
			<rect x="53" y="196" class="st3" width="2" height="1"/>
			<rect x="50" y="196" class="st3" width="2" height="1"/>
		</g>
		<g>
			<rect x="47" y="198" class="st3" width="2" height="1"/>
			<rect x="53" y="198" class="st3" width="2" height="1"/>
			<rect x="50" y="198" class="st3" width="2" height="1"/>
		</g>
	</g>
	
		<linearGradient id="Turquoise_Gradient_1_" gradientUnits="userSpaceOnUse" x1="603.6267" y1="291.6267" x2="558.3719" y2="246.3719" gradientTransform="matrix(-1 0 0 1 632.9993 -24.9993)">
		<stop  offset="0" style="stop-color:#055F4E"/>
		<stop  offset="1" style="stop-color:#56C0A7"/>
	</linearGradient>
	<rect id="Turquoise_Gradient" x="36" y="228" class="st9" width="32" height="32"/>
	<g id="Icon_Test_3_">
		<path class="st3" d="M62.2,254.7c-0.1,0-0.2,0-0.3-0.1l-7.7-7.7l0.6-0.6l7,7v-19h-19l7,7l-0.6,0.6l-7.7-7.7
			c-0.1-0.1-0.2-0.3-0.1-0.5c0.1-0.2,0.2-0.3,0.4-0.3h20.5c0.2,0,0.4,0.2,0.4,0.4v20.5c0,0.2-0.1,0.3-0.3,0.4
			C62.4,254.7,62.3,254.7,62.2,254.7z"/>
		<path class="st3" d="M52.4,254.7c-0.1,0-0.2,0-0.3-0.1l-10.7-10.7c-0.1-0.1-0.2-0.3-0.1-0.5c0.1-0.2,0.2-0.3,0.4-0.3h10.7
			c0.2,0,0.4,0.2,0.4,0.4v10.7c0,0.2-0.1,0.3-0.3,0.4C52.5,254.7,52.5,254.7,52.4,254.7z M42.8,244l9.2,9.2V244H42.8z"/>
	</g>
	
		<linearGradient id="Green_Gradient_2_" gradientUnits="userSpaceOnUse" x1="279.579" y1="315.4196" x2="323.4196" y2="271.579" gradientTransform="matrix(4.371139e-08 -1 -1 -4.371139e-08 470.9993 445.9993)">
		<stop  offset="0" style="stop-color:#1B660F"/>
		<stop  offset="1" style="stop-color:#6CAE3E"/>
	</linearGradient>
	<rect id="Green_Gradient" x="162" y="129" class="st10" width="31" height="31"/>
	<g id="Icon_Test_4_">
		<path class="st3" d="M187.4,145.6c-0.1-0.6-0.9-1.1-1.4-1.4c-0.2-0.1-0.6-0.3-0.6-0.4c0-0.1,0-0.2,0-0.3c0.1-1,0.3-2,0.4-3
			c0.1-0.9,0.2-1.7,0.4-2.6c0.1-0.8-0.3-1.3-0.9-1.8c-1.3-0.9-3.1-1.3-4.6-1.5c-2-0.3-4-0.4-5.9-0.2c-1.8,0.2-3.6,0.5-5.2,1.2
			c-0.9,0.4-2,1.1-1.9,2.2c0.4,3.4,0.9,6.7,1.4,10.1c0.2,1.5,0.4,3.1,0.6,4.6c0.1,0.7,0.4,1.1,1,1.4c1.3,0.7,2.9,0.9,4.3,1
			c1.9,0.2,3.8,0.1,5.7-0.2c1.2-0.2,3.4-0.6,3.6-2.1c0.2-1.8,0.5-3.7,0.7-5.5c0-0.2,0.1-0.4,0.1-0.6
			C185.7,146.5,187.6,146.9,187.4,145.6z M176.9,135c2.5,0,5.3,0.3,7.5,1.5c0.3,0.2,1.1,0.6,0.9,1.1c-0.2,0.5-1,0.8-1.5,0.9
			c-0.6,0.2-1.3,0.4-2,0.6c-2.9,0.6-6,0.6-9,0.2c-1.3-0.2-2.7-0.5-3.9-1.1c-0.3-0.2-0.8-0.5-0.7-0.9c0.1-0.2,0.3-0.4,0.5-0.5
			c0.9-0.6,2-0.9,3-1.2C173.5,135.2,175.2,135,176.9,135z M183.4,152.4c-0.1,0.5-0.9,0.7-1.2,0.9c-0.8,0.3-1.6,0.4-2.4,0.5
			c-1.8,0.2-3.7,0.3-5.5,0c-1.1-0.1-2.3-0.3-3.3-0.9c-0.3-0.2-0.5-0.4-0.5-0.7c-0.4-3.3-0.9-6.6-1.3-9.8c-0.2-1.2-0.3-2.4-0.5-3.6
			c0.9,0.6,2,0.8,3,1.1c1.1,0.2,2.3,0.4,3.4,0.5c2.3,0.1,4.6,0,6.8-0.4c1.2-0.2,2.4-0.5,3.4-1.1c-0.3,2.2-0.6,4.3-0.9,6.5
			c-2.1-0.7-4.1-1.6-6.1-2.5c-0.1,0-0.2-0.1-0.3-0.1c-0.1-0.1-0.1,0-0.1-0.2c-0.1-0.2-0.1-0.4-0.3-0.6c-0.4-0.3-1-0.2-1.3,0.1
			c-0.3,0.4-0.3,1,0.1,1.3c0.2,0.1,0.4,0.2,0.6,0.2c0.2,0,0.3-0.1,0.4-0.1c0.2,0,0.2,0,0.3,0c2,0.9,4.1,1.9,6.2,2.5
			c0.3,0.1,0.3,0,0.3,0.3c0,0.2-0.1,0.4-0.1,0.6c-0.1,0.7-0.2,1.3-0.3,2C183.7,150.1,183.5,151.2,183.4,152.4z M177,142.7
			c0,0.1-0.2,0.1-0.2,0C176.7,142.6,177,142.5,177,142.7z M185.1,145.5c0-0.3,0.1-0.6,0.1-0.9c0.4,0.2,1.1,0.6,1.3,1.1
			C186.2,145.8,185.5,145.6,185.1,145.5z"/>
	</g>
	<g>
		<line class="st11" x1="97" y1="145" x2="149.7" y2="145"/>
		<g>
			<path class="st12" d="M149.2,145l-0.6-1l0,0l1.7,0.7c0.6,0.1,1.2,0.3,1.7,0.4c-0.6,0.1-1.2,0.3-1.7,0.4l-1.7,0.7l0,0L149.2,145z"
				/>
		</g>
	</g>
	<path class="st13" d="M230.7,241.2H215c-0.2,0-0.4-0.2-0.4-0.4v-20.2c0-0.2,0.2-0.4,0.4-0.4h15.7c0.2,0,0.4,0.2,0.4,0.4v20.2
		C231.1,241,230.9,241.2,230.7,241.2z M215.4,240.4h14.8v-19.3h-14.8V240.4z"/>
	<path class="st13" d="M213.7,241.2h-1.3c-0.7,0-1.4-0.6-1.4-1.3v-18.4c0-0.7,0.6-1.3,1.4-1.3h1.2v0.8h-1.2c-0.3,0-0.5,0.2-0.5,0.5
		v18.4c0,0.3,0.2,0.5,0.5,0.5h1.2v0.8H213.7z"/>
	<rect x="217.2" y="222.3" class="st13" width="11.7" height="0.8"/>
	<rect x="217.2" y="224" class="st13" width="11.7" height="0.8"/>
	<rect x="217.2" y="237" class="st13" width="11.7" height="0.8"/>
	<rect x="217.2" y="238.7" class="st13" width="11.7" height="0.8"/>
	<path class="st13" d="M222.9,236c-0.4,0-0.7-0.1-1.1-0.3c-0.1-0.1-0.2-0.2-0.2-0.4v-1.4l-3.4-6.5l0.8-0.4l3.5,6.6
		c0,0.1,0,0.1,0,0.2v1.3c0.3,0.1,0.6,0.1,0.9,0v-1.3c0-0.1,0-0.1,0-0.2l3.5-6.6l0.8,0.4l-3.4,6.5v1.5c0,0.1-0.1,0.3-0.2,0.3
		C223.6,235.8,223.2,236,222.9,236z"/>
	<path class="st13" d="M222.9,228.5c-0.8,0-4.8-0.1-4.8-1.4c0-1.3,4-1.4,4.8-1.4s4.8,0.1,4.8,1.4
		C227.6,228.4,223.7,228.5,222.9,228.5z M219,227.1c0.4,0.2,1.7,0.6,3.8,0.6s3.4-0.3,3.8-0.6c-0.4-0.2-1.7-0.6-3.8-0.6
		C220.8,226.6,219.4,226.9,219,227.1z"/>
	<g>
		
			<linearGradient id="Purple_Gradient_2_" gradientUnits="userSpaceOnUse" x1="350.4189" y1="147.5783" x2="306.5782" y2="191.4189" gradientTransform="matrix(-4.371139e-08 1 1 4.371139e-08 162.0014 -186.9986)">
			<stop  offset="0" style="stop-color:#4D27A8"/>
			<stop  offset="1" style="stop-color:#A166FF"/>
		</linearGradient>
		<rect id="Purple_Gradient" x="316" y="126" class="st14" width="31" height="31"/>
	</g>
	<g id="Icon_Test_5_">
		<path class="st3" d="M331.5,151.8c-0.1,0-0.2,0-0.3-0.1l-2.5-2.1c-0.1-0.1-0.2-0.3-0.1-0.5s0.2-0.3,0.4-0.3h1.2v-1.2h0.8v1.7
			c0,0.2-0.2,0.4-0.4,0.4h-0.5l1.4,1.1l1.3-1.1h-0.5c-0.2,0-0.4-0.2-0.4-0.4v-1.7h0.8v1.2h1.2c0.2,0,0.3,0.1,0.4,0.3s0,0.3-0.1,0.5
			l-2.5,2.1C331.7,151.8,331.6,151.8,331.5,151.8z"/>
		<path class="st3" d="M335.2,136.3l-0.1,0.8c1.2,0.1,1.7,0.3,2,0.4c-0.7,0.3-2.8,0.6-5.6,0.6c-2.9,0-4.9-0.3-5.6-0.6
			c0.6-0.3,2.3-0.6,5.2-0.6v-0.8c-5.6,0.1-6.2,1-6.2,1.4v0.1v0.1l0.1,0.1c0,0,0,0.1,0.1,0.1l0.1,0.1l4.6,7.2v1.1
			c0,0.2,0.1,0.3,0.3,0.4c0.5,0.2,1,0.3,1.4,0.3c0.5,0,0.9-0.1,1.4-0.3c0.2-0.1,0.3-0.2,0.3-0.4v-1.1l4.6-7.2l0,0
			c0.3-0.2,0.3-0.4,0.3-0.6C338.1,137.1,337.8,136.6,335.2,136.3z M332.4,145c0,0.1-0.1,0.1-0.1,0.2v0.9c-0.5,0.2-1.1,0.2-1.7,0
			v-0.9c0-0.1,0-0.2-0.1-0.2l-4.1-6.4c1.3,0.3,3.2,0.4,5,0.4c1.7,0,3.7-0.1,5-0.4L332.4,145z"/>
		<path class="st3" d="M334,137.4h-1.7c-0.2,0-0.4-0.2-0.4-0.4v-1.7c0-0.2,0.2-0.4,0.4-0.4h1.7c0.2,0,0.4,0.2,0.4,0.4v1.7
			C334.4,137.2,334.2,137.4,334,137.4z M332.7,136.5h0.8v-0.8h-0.8V136.5z"/>
		<path class="st3" d="M333.2,133.6h-1.7c-0.2,0-0.4-0.2-0.4-0.4v-1.7c0-0.2,0.2-0.4,0.4-0.4h1.7c0.2,0,0.4,0.2,0.4,0.4v1.7
			C333.6,133.5,333.4,133.6,333.2,133.6z M331.9,132.8h0.8V132h-0.8V132.8z"/>
		<path class="st3" d="M329.8,135.7h-1.7c-0.2,0-0.4-0.2-0.4-0.4v-1.7c0-0.2,0.2-0.4,0.4-0.4h1.7c0.2,0,0.4,0.2,0.4,0.4v1.7
			C330.3,135.5,330.1,135.7,329.8,135.7z M328.6,134.9h0.8v-0.8h-0.8V134.9z"/>
	</g>
	<line class="st15" x1="220.6" y1="172" x2="220.9" y2="215"/>
	<g>
		<line class="st16" x1="220.6" y1="172" x2="220.9" y2="213.3"/>
		<g>
			<path class="st12" d="M220.9,212.9l0.7-0.5l0,0l-0.5,1.2c-0.1,0.4-0.2,0.9-0.3,1.3c-0.1-0.4-0.2-0.9-0.3-1.3l-0.5-1.2l0,0
				L220.9,212.9z"/>
		</g>
	</g>
	<g>
		<line class="st11" x1="248" y1="142" x2="300.7" y2="142"/>
		<g>
			<path class="st12" d="M300.2,142l-0.6-1l0,0l1.7,0.7c0.6,0.1,1.2,0.3,1.7,0.4c-0.6,0.1-1.2,0.3-1.7,0.4l-1.7,0.7l0,0L300.2,142z"
				/>
		</g>
	</g>
	
		<linearGradient id="Green_Gradient_3_" gradientUnits="userSpaceOnUse" x1="207.579" y1="67.4196" x2="251.4196" y2="23.579" gradientTransform="matrix(4.371139e-08 -1 -1 -4.371139e-08 470.9993 445.9993)">
		<stop  offset="0" style="stop-color:#1B660F"/>
		<stop  offset="1" style="stop-color:#6CAE3E"/>
	</linearGradient>
	<rect id="Green_Gradient_1_" x="410" y="201" class="st17" width="31" height="31"/>
	<g id="Icon_Test_6_">
		<path class="st3" d="M435.4,217.6c-0.1-0.6-0.9-1.1-1.4-1.4c-0.2-0.1-0.6-0.3-0.6-0.4c0-0.1,0-0.2,0-0.3c0.1-1,0.3-2,0.4-3
			c0.1-0.9,0.2-1.7,0.4-2.6c0.1-0.8-0.3-1.3-0.9-1.8c-1.3-0.9-3.1-1.3-4.6-1.5c-2-0.3-4-0.4-5.9-0.2c-1.8,0.2-3.6,0.5-5.2,1.2
			c-0.9,0.4-2,1.1-1.9,2.2c0.4,3.4,0.9,6.7,1.4,10.1c0.2,1.5,0.4,3.1,0.6,4.6c0.1,0.7,0.4,1.1,1,1.4c1.3,0.7,2.9,0.9,4.3,1
			c1.9,0.2,3.8,0.1,5.7-0.2c1.2-0.2,3.4-0.6,3.6-2.1c0.2-1.8,0.5-3.7,0.7-5.5c0-0.2,0.1-0.4,0.1-0.6
			C433.7,218.5,435.6,218.9,435.4,217.6z M424.9,207c2.5,0,5.3,0.3,7.5,1.5c0.3,0.2,1.1,0.6,0.9,1.1s-1,0.8-1.5,0.9
			c-0.6,0.2-1.3,0.4-2,0.6c-2.9,0.6-6,0.6-9,0.2c-1.3-0.2-2.7-0.5-3.9-1.1c-0.3-0.2-0.8-0.5-0.7-0.9c0.1-0.2,0.3-0.4,0.5-0.5
			c0.9-0.6,2-0.9,3-1.2C421.5,207.2,423.2,207,424.9,207z M431.4,224.4c-0.1,0.5-0.9,0.7-1.2,0.9c-0.8,0.3-1.6,0.4-2.4,0.5
			c-1.8,0.2-3.7,0.3-5.5,0c-1.1-0.1-2.3-0.3-3.3-0.9c-0.3-0.2-0.5-0.4-0.5-0.7c-0.4-3.3-0.9-6.6-1.3-9.8c-0.2-1.2-0.3-2.4-0.5-3.6
			c0.9,0.6,2,0.8,3,1.1c1.1,0.2,2.3,0.4,3.4,0.5c2.3,0.1,4.6,0,6.8-0.4c1.2-0.2,2.4-0.5,3.4-1.1c-0.3,2.2-0.6,4.3-0.9,6.5
			c-2.1-0.7-4.1-1.6-6.1-2.5c-0.1,0-0.2-0.1-0.3-0.1c-0.1-0.1-0.1,0-0.1-0.2c-0.1-0.2-0.1-0.4-0.3-0.6c-0.4-0.3-1-0.2-1.3,0.1
			c-0.3,0.4-0.3,1,0.1,1.3c0.2,0.1,0.4,0.2,0.6,0.2s0.3-0.1,0.4-0.1c0.2,0,0.2,0,0.3,0c2,0.9,4.1,1.9,6.2,2.5c0.3,0.1,0.3,0,0.3,0.3
			c0,0.2-0.1,0.4-0.1,0.6c-0.1,0.7-0.2,1.3-0.3,2C431.7,222.1,431.5,223.2,431.4,224.4z M425,214.7c0,0.1-0.2,0.1-0.2,0
			C424.7,214.6,425,214.5,425,214.7z M433.1,217.5c0-0.3,0.1-0.6,0.1-0.9c0.4,0.2,1.1,0.6,1.3,1.1
			C434.2,217.8,433.5,217.6,433.1,217.5z"/>
	</g>
	<line class="st15" x1="354.4" y1="161.6" x2="398.6" y2="194.4"/>
	<g>
		<line class="st11" x1="354.4" y1="161.6" x2="396.7" y2="193"/>
		<g>
			<path class="st12" d="M396.3,192.7l0.1-1.2l0,0l0.9,1.5c0.4,0.4,0.8,0.9,1.2,1.3c-0.5-0.2-1.1-0.5-1.6-0.7l-1.7-0.5l0,0
				L396.3,192.7z"/>
		</g>
	</g>
	
		<linearGradient id="Purple_Gradient_3_" gradientUnits="userSpaceOnUse" x1="402.5768" y1="189.5768" x2="446.4174" y2="233.4174" gradientTransform="matrix(1 0 0 -1 2.864495e-03 283.9971)">
		<stop  offset="0" style="stop-color:#4D27A8"/>
		<stop  offset="1" style="stop-color:#A166FF"/>
	</linearGradient>
	<rect id="Purple_Gradient_1_" x="409" y="57" class="st18" width="31" height="31"/>
	<path class="st3" d="M424.5,82.8c-3.4,0-7-1-7-2.8V65h0.8v15c0,0.8,2.4,2,6.2,2s6.2-1.2,6.2-2V65h0.8v15
		C431.5,81.8,427.9,82.8,424.5,82.8z"/>
	<path class="st3" d="M424.5,82.8c-3.4,0-7-1-7-2.8V65h0.8v15c0,0.8,2.4,2,6.2,2s6.2-1.2,6.2-2V65h0.8v15
		C431.5,81.8,427.9,82.8,424.5,82.8z"/>
	<path class="st3" d="M424.5,67.8c-3.4,0-7-1-7-2.8c0-1.8,3.6-2.8,7-2.8s7,1,7,2.8C431.5,66.8,427.9,67.8,424.5,67.8z M424.5,63
		c-3.8,0-6.2,1.2-6.2,2s2.4,2,6.2,2s6.2-1.2,6.2-2S428.3,63,424.5,63z"/>
	
		<rect x="424.1" y="72.7" transform="matrix(0.2217 -0.9751 0.9751 0.2217 258.2474 471.5233)" class="st3" width="0.8" height="2.6"/>
	
		<rect x="426.4" y="71.9" transform="matrix(0.3672 -0.9301 0.9301 0.3672 203.4321 443.5416)" class="st3" width="2.6" height="0.8"/>
	
		<rect x="420.3" y="75" transform="matrix(0.3925 -0.9198 0.9198 0.3925 186.6374 433.3089)" class="st3" width="2.1" height="0.8"/>
	<path class="st3" d="M420.6,78.8c-0.8,0-1.4-0.6-1.4-1.4s0.6-1.4,1.4-1.4s1.4,0.6,1.4,1.4C422,78.2,421.4,78.8,420.6,78.8z
		 M420.6,76.7c-0.3,0-0.6,0.3-0.6,0.6c0,0.3,0.3,0.6,0.6,0.6s0.6-0.3,0.6-0.6S420.9,76.7,420.6,76.7z"/>
	<path class="st3" d="M422.2,74.9c-0.8,0-1.4-0.6-1.4-1.4s0.6-1.4,1.4-1.4s1.4,0.6,1.4,1.4C423.7,74.3,423,74.9,422.2,74.9z
		 M422.2,72.9c-0.3,0-0.6,0.3-0.6,0.6c0,0.3,0.3,0.6,0.6,0.6c0.3,0,0.6-0.3,0.6-0.6l0,0C422.8,73.1,422.6,72.9,422.2,72.9z"/>
	<path class="st3" d="M426.8,75.8c-0.8,0-1.4-0.6-1.4-1.4s0.6-1.4,1.4-1.4s1.4,0.6,1.4,1.4S427.6,75.8,426.8,75.8z M426.8,73.7
		c-0.3,0-0.6,0.3-0.6,0.6s0.3,0.6,0.6,0.6c0.3,0,0.6-0.3,0.6-0.6S427.1,73.7,426.8,73.7z"/>
	<path class="st3" d="M428.4,71.4c-0.8,0-1.4-0.6-1.4-1.4s0.6-1.4,1.4-1.4s1.4,0.6,1.4,1.4l0,0C429.9,70.8,429.2,71.4,428.4,71.4z
		 M428.4,69.4c-0.3,0-0.6,0.3-0.6,0.6s0.3,0.6,0.6,0.6c0.3,0,0.6-0.3,0.6-0.6C429.1,69.7,428.8,69.4,428.4,69.4L428.4,69.4z"/>
	<line class="st15" x1="353.2" y1="119.7" x2="400.3" y2="91.2"/>
	<g>
		<line class="st19" x1="353.2" y1="119.7" x2="398.2" y2="92.5"/>
		<g>
			<path class="st12" d="M397.8,92.8l-1.1-0.6l0,0l1.9-0.3c0.6-0.2,1.2-0.4,1.8-0.6c-0.5,0.4-0.9,0.9-1.4,1.3l-1.1,1.5l0,0
				L397.8,92.8z"/>
		</g>
	</g>
	
		<linearGradient id="Pink_Gradient_1_" gradientUnits="userSpaceOnUse" x1="189.579" y1="160.4196" x2="233.4196" y2="116.579" gradientTransform="matrix(4.371139e-08 -1 -1 -4.371139e-08 470.9993 445.9993)">
		<stop  offset="0" style="stop-color:#B0084D"/>
		<stop  offset="1" style="stop-color:#FF4F8B"/>
	</linearGradient>
	<rect id="Pink_Gradient" x="317" y="219" class="st20" width="31" height="31"/>
	<g>
		<g>
			<path class="st3" d="M329,238.8h-4.5c-0.5,0-0.9-0.1-1.3-0.4c-0.7-0.5-2-1.6-2-3.7c0-2.5,1.7-3.5,2.7-3.8c0-0.1,0-0.2,0-0.3
				c0-2.1,1.4-4.2,3.2-5c2.2-0.9,4.4-0.5,6.1,1.2c0.5,0.5,0.9,1.1,1.2,1.8c0.4-0.3,1-0.5,1.5-0.5c1.1,0,2.4,0.9,2.6,2.7
				c1.1,0.3,3.2,1.1,3.2,3.9c0,2-1.1,3-2,3.5l-0.4-0.7c1-0.6,1.5-1.5,1.5-2.7c0-2.4-2-3-2.9-3.2c-0.1,0-0.2-0.1-0.3-0.2
				c-0.1-0.1-0.1-0.2-0.1-0.3c-0.1-1.5-1-2.2-1.8-2.2c-0.5,0-1,0.3-1.3,0.7c-0.1,0.1-0.2,0.2-0.4,0.2c-0.2,0-0.3-0.1-0.3-0.3
				c-0.3-0.8-0.7-1.6-1.3-2.1c-1.4-1.4-3.4-1.8-5.2-1c-1.5,0.6-2.7,2.5-2.7,4.2c0,0.2,0,0.4,0,0.6c0,0.1,0,0.2-0.1,0.3
				s-0.1,0.1-0.2,0.1c-0.9,0.2-2.4,0.9-2.4,3.1c0,1.6,0.9,2.5,1.6,3c0.2,0.2,0.5,0.3,0.9,0.3h4.5v0.8L329,238.8L329,238.8z"/>
		</g>
	</g>
	<g>
		<path class="st3" d="M341.4,241.3l-2.9-2.9c0.2-0.5,0.4-1.1,0.4-1.8c0-2.4-2-4.4-4.4-4.4s-4.4,2-4.4,4.4s2,4.4,4.4,4.4
			c0.7,0,1.4-0.2,2-0.5l2.9,2.9c0.3,0.3,0.6,0.4,1,0.4s0.8-0.2,1-0.4C341.9,242.8,341.9,241.9,341.4,241.3z M334.4,240.1
			c-2,0-3.5-1.6-3.5-3.6s1.6-3.5,3.5-3.5c2,0,3.6,1.6,3.6,3.5C338,238.6,336.4,240.1,334.4,240.1z M340.8,242.8
			c-0.2,0.2-0.7,0.2-0.9,0l-2.8-2.8c0.3-0.3,0.6-0.6,0.9-0.9l2.8,2.8C341,242.1,341,242.5,340.8,242.8z"/>
		<path class="st3" d="M335.6,234.7l-0.5,0.7c-0.6-0.5-1.5-0.3-1.9,0.3c-0.2,0.3-0.3,0.7-0.3,1s0.2,0.7,0.5,0.9l-0.5,0.7
			c-1-0.7-1.2-2.1-0.5-3.1C333.2,234.2,334.6,233.9,335.6,234.7z"/>
	</g>
	<line class="st15" x1="330.6" y1="169" x2="330.9" y2="212"/>
	<g>
		<line class="st16" x1="330.6" y1="169" x2="330.9" y2="210.3"/>
		<g>
			<path class="st12" d="M330.9,209.9l0.7-0.5l0,0l-0.5,1.2c-0.1,0.4-0.2,0.9-0.3,1.3c-0.1-0.4-0.2-0.9-0.3-1.3l-0.5-1.2l0,0
				L330.9,209.9z"/>
		</g>
	</g>
	
		<linearGradient id="Orange_Gradient_1_" gradientUnits="userSpaceOnUse" x1="373.7777" y1="263.9888" x2="373.7777" y2="201.9888" gradientTransform="matrix(-0.7071 -0.7071 -0.7071 0.7071 649.5437 244.0527)">
		<stop  offset="0" style="stop-color:#C8511B"/>
		<stop  offset="1" style="stop-color:#FF9900"/>
	</linearGradient>
	<rect id="Orange_Gradient" x="205" y="129" class="st21" width="31" height="31"/>
	<g id="Icon_Test_2_">
		<path class="st3" d="M230,154.8h-5.1c-0.2,0-0.3-0.1-0.4-0.2l-7.2-15.1h-3c-0.1,0-0.2,0-0.3-0.1s-0.1-0.2-0.1-0.3v-4.5
			c0-0.2,0.2-0.4,0.4-0.4h6.4c0.2,0,0.3,0.1,0.4,0.2l7.2,15.1h1.8c0.2,0,0.4,0.2,0.4,0.4v4.5C230.4,154.6,230.2,154.8,230,154.8z
			 M225.2,154h4.4v-3.7h-1.7c-0.2,0-0.3-0.1-0.4-0.2l-7.2-15.1h-5.7v3.7h2.9c0.2,0,0.3,0.1,0.4,0.2L225.2,154z"/>
		<path class="st3" d="M216.4,154.8H211c-0.1,0-0.3-0.1-0.3-0.2c-0.1-0.1-0.1-0.3,0-0.4l5.6-11.8c0.1-0.1,0.2-0.2,0.4-0.2l0,0
			c0.2,0,0.3,0.1,0.4,0.2l2.7,5.6c0.1,0.1,0.1,0.2,0,0.4l-2.9,6.2C216.7,154.7,216.5,154.8,216.4,154.8z M211.6,154h4.4l2.7-5.8
			l-2.2-4.6L211.6,154z"/>
	</g>
	<text transform="matrix(0.978 0 0 1 27.1558 23.8472)" class="st22 st23">Data Sources</text>
	<rect x="192.7" y="19.1" class="st15" width="163.3" height="9.4"/>
	<text transform="matrix(0.978 0 0 1 224.9912 24.8838)" class="st22 st23">Reference Data Architecture</text>
	<rect x="33.6" y="63.3" class="st15" width="36.4" height="5.6"/>
	<text transform="matrix(0.978 0 0 1 35.9062 66.9004)" class="st24 st25">Web app data</text>
	<rect x="32.9" y="113.1" class="st15" width="36.4" height="6.4"/>
	<text transform="matrix(0.978 0 0 1 35.749 116.7227)" class="st24 st25">Amazon RDS</text>
	<rect x="29.5" y="163.1" class="st15" width="43.1" height="6.4"/>
	<text transform="matrix(0.978 0 0 1 31.9395 166.667)" class="st24 st25">Other databases</text>
	<rect x="28.8" y="212.1" class="st15" width="45.3" height="5.5"/>
	<text transform="matrix(0.978 0 0 1 30.8467 215.7295)" class="st24 st25">On-premises data</text>
	<rect x="32.6" y="262.1" class="st15" width="39" height="5.9"/>
	<text transform="matrix(0.978 0 0 1 34.4863 265.667)" class="st24 st25">Streaming data</text>
	<rect x="163.3" y="161.9" class="st15" width="26.9" height="10.1"/>
	<text transform="matrix(0.978 0 0 1 163.3164 165.5352)" class="st24 st25">Amazon</text>
	<text transform="matrix(0.978 0 0 1 182.2891 165.5352)" class="st24 st25"> </text>
	<text transform="matrix(0.978 0 0 1 184.2451 165.5352)" class="st24 st25">S3 </text>
	<text transform="matrix(0.978 0 0 1 168.5977 171.5352)" class="st24 st25">Bucket</text>
	<rect x="412.1" y="234" class="st15" width="26.9" height="10.1"/>
	<text transform="matrix(0.978 0 0 1 412.0908 237.6299)" class="st24 st25">Amazon</text>
	<text transform="matrix(0.978 0 0 1 431.0645 237.6299)" class="st24 st25"> </text>
	<text transform="matrix(0.978 0 0 1 433.0195 237.6299)" class="st24 st25">S3 </text>
	<text transform="matrix(0.978 0 0 1 417.3721 243.6299)" class="st24 st25">Bucket</text>
	<rect x="201.9" y="163.5" class="st15" width="37.9" height="5.1"/>
	<text transform="matrix(0.978 0 0 1 205.1426 167.0615)" class="st24 st25">AWS Lambda</text>
	<rect x="315.7" y="160.3" class="st15" width="30.8" height="5.3"/>
	<text transform="matrix(0.978 0 0 1 319.2822 163.9287)" class="st24 st25">AWS Glue</text>
	<rect x="204" y="243.8" class="st15" width="36.3" height="14.7"/>
	<text transform="matrix(0.978 0 0 1 203.9717 247.3945)" class="st24 st25">AWS</text>
	<text transform="matrix(0.978 0 0 1 215.4141 247.3945)" class="st24 st25"> </text>
	<text transform="matrix(0.978 0 0 1 217.0762 247.3945)" class="st24 st25">Glue</text>
	<text transform="matrix(0.978 0 0 1 227.9326 247.3945)" class="st24 st25"> </text>
	<text transform="matrix(0.978 0 0 1 229.5947 247.3945)" class="st24 st25">Data </text>
	<text transform="matrix(0.978 0 0 1 213.165 253.3945)" class="st24 st25">Catalog</text>
	<rect x="317.3" y="251.9" class="st15" width="30.4" height="11.2"/>
	<text transform="matrix(0.978 0 0 1 322.9912 255.5273)" class="st24 st25">Amazon </text>
	<text transform="matrix(0.978 0 0 1 318.1992 261.5273)" class="st24 st25">CloudWatch</text>
	<rect x="412.2" y="90.3" class="st15" width="24.5" height="12.3"/>
	<text transform="matrix(0.978 0 0 1 413.6309 93.9102)" class="st24 st25">Amazone </text>
	<text transform="matrix(0.978 0 0 1 414.7061 99.9102)" class="st24 st25">Redshift</text>
	<g class="st26">
		<polygon class="st15" points="106.1,130.9 142.4,130.9 140.6,141 104.3,141 		"/>
		<text transform="matrix(0.9631 0 -0.1736 0.9848 105.471 134.5343)" class="st27 st22 st28">1. New data is                   </text>
		<text transform="matrix(0.9631 0 -0.1736 0.9848 104.413 140.5345)" class="st27 st22 st28">    loaded into S3 </text>
	</g>
	<g class="st26">
		<polygon class="st15" points="250.2,126.7 304.1,126.7 301.9,139 248,139 		"/>
		<text transform="matrix(0.9631 0 -0.1736 0.9848 249.527 130.2787)" class="st27 st22 st28">3. Trigger one or more </text>
		<text transform="matrix(0.9631 0 -0.1736 0.9848 248.469 136.2789)" class="st27 st22 st28">    Glue ETL jobs</text>
	</g>
	<g class="st26">
		<polygon class="st15" points="231.4,182.4 286.6,182.4 284.8,192.5 229.6,192.5 		"/>
		<text transform="matrix(0.9631 0 -0.1736 0.9848 230.7984 186.0338)" class="st27 st22 st28">2. Register the metadata </text>
		<text transform="matrix(0.9631 0 -0.1736 0.9848 229.7404 192.034)" class="st27 st22 st28">     in the Glue Data Catalog</text>
	</g>
	<g class="st26">
		<polygon class="st15" points="340.4,182.4 385.2,182.4 380.6,208.8 335.8,208.8 		"/>
		<text transform="matrix(0.9631 0 -0.1736 0.9848 339.7867 186.0338)" class="st27 st22 st28">4. Logs and </text>
		<text transform="matrix(0.9631 0 -0.1736 0.9848 338.7287 192.034)" class="st27 st22 st28">    notifications are </text>
		<text transform="matrix(0.9631 0 -0.1736 0.9848 337.6707 198.0342)" class="st27 st22 st28">     pushed to </text>
		<text transform="matrix(0.9631 0 -0.1736 0.9848 336.6127 204.0344)" class="st27 st22 st28">     CloudWatch</text>
	</g>
	<g class="st26">
		<polygon class="st15" points="361.7,131.8 415.6,131.8 412.4,150.2 358.5,150.2 		"/>
		<text transform="matrix(0.9631 0 -0.1736 0.9848 361.0604 135.4008)" class="st27 st22 st28">5. Glue loads </text>
		<text transform="matrix(0.9631 0 -0.1736 0.9848 360.0024 141.401)" class="st27 st22 st28">     trasformed data into the </text>
		<text transform="matrix(0.9631 0 -0.1736 0.9848 358.9444 147.4012)" class="st27 st22 st28">     target data store</text>
	</g>
</g>
</svg>
