<svg xmlns="http://www.w3.org/2000/svg" viewBox="0 0 67 67"><style type="text/css">
	.st0{fill:#FFFFFF;}
	.st1{fill:#4891D3;}
	.st2{fill:#A1D51C;}
	.st3{fill:#D7E82E;}
	.st4{fill:#F9E109;}
	.st5{fill:#FCBC04;}
	.st6{fill:#7AB92D;}
	.st7{fill:#C4F236;}
	.st8{opacity:0.35;fill:#60AAE2;}
	.st9{opacity:0.53;fill:#A1D51C;}
	.st10{opacity:0.38;fill:#D7E82E;}
	.st11{opacity:0.35;fill:#E5CF2E;}
	.st12{opacity:0.35;fill:#D6971A;}
</style><circle class="st0" cx="33.5" cy="33.5" r="33.5"/><path class="st1" d="M48.2 24.3c-1.2-5.5-5.9-9.6-11.6-10 -5.6-0.4-10.9 2.9-13 8.1 -4-1.1-8.2 0.8-10 4.5s-0.7 8.2 2.7 10.7c3.4 2.4 8 2.1 11-0.8 4.5 3.9 11.2 4.1 16 0.6 2.5 1.6 5.6 1.5 8-0.2 2.4-1.7 3.5-4.6 2.8-7.5C53.4 26.9 51 24.7 48.2 24.3z"/><path class="st2" d="M38.5 19.2l-4.3 4.3h2.1v7.1h4.3v-7.1h2.1L38.5 19.2z"/><polygon class="st3" points="38.5 19.2 38.5 30.6 40.6 30.6 40.6 23.5 42.8 23.5 "/><path class="st4" d="M44.9 39.2c0 6.3-5.1 11.4-11.4 11.4 -6.3 0-11.4-5.1-11.4-11.4s5.1-11.4 11.4-11.4C39.8 27.8 44.9 32.9 44.9 39.2z"/><path class="st5" d="M42 39.2c0 4.7-3.8 8.6-8.6 8.6s-8.6-3.8-8.6-8.6 3.8-8.6 8.6-8.6S42 34.5 42 39.2z"/><path class="st6" d="M33.5 39.9c0.2 0 0.4-0.1 0.5-0.2l4-4c0.2-0.3 0.2-0.7-0.1-0.9 -0.2-0.2-0.6-0.3-0.9-0.1l-3.6 3.6 -2.5-2.5c-0.2-0.2-0.4-0.3-0.7-0.2 -0.3 0.1-0.5 0.3-0.5 0.5 -0.1 0.3 0 0.5 0.2 0.7l3 3C33.1 39.9 33.3 39.9 33.5 39.9z"/><path class="st7" d="M34.9 39.2c0 0.8-0.6 1.4-1.4 1.4 -0.8 0-1.4-0.6-1.4-1.4 0-0.8 0.6-1.4 1.4-1.4C34.3 37.8 34.9 38.4 34.9 39.2z"/><path class="st8" d="M54 29.7c-0.7-2.8-3-5-5.9-5.4 -1.2-5.5-5.9-9.6-11.6-10 -1.1-0.1-2.1 0-3.1 0.1v13.4c1 0 1.9 0.1 2.9 0.4v-4.7h-2.1l4.3-4.3 4.3 4.3h0l0 0h-2.1v6.8c2.3 1.9 3.9 4.7 4.2 7.8 2.1 0.7 4.5 0.4 6.4-0.9C53.6 35.5 54.7 32.5 54 29.7z"/><path class="st9" d="M38.5 19.2l4.3 4.3h0L38.5 19.2l-4.3 4.3h2.1v4.7c0.7 0.2 1.5 0.5 2.1 0.8V19.2z"/><path class="st10" d="M38.5 28.9c0.8 0.4 1.5 0.8 2.1 1.4v-6.8h2.1l0 0 -4.3-4.3V28.9z"/><path class="st11" d="M40.6 30.3c-0.7-0.5-1.4-1-2.1-1.4 -0.7-0.3-1.4-0.6-2.1-0.8 -0.9-0.2-1.9-0.4-2.9-0.4v2.9c4.7 0 8.6 3.8 8.6 8.6s-3.8 8.6-8.6 8.6v2.9c6.3 0 11.4-5.1 11.4-11.4 0-0.4 0-0.7-0.1-1.1C44.5 35 43 32.2 40.6 30.3z"/><path class="st12" d="M33.9 37.8l3.2-3.2c0.3-0.2 0.7-0.1 0.9 0.1 0.2 0.2 0.3 0.6 0.1 0.9l-3.2 3.2c0 0.1 0.1 0.2 0.1 0.4 0 0.8-0.6 1.4-1.4 1.4v7.1c4.7 0 8.6-3.8 8.6-8.6s-3.8-8.6-8.6-8.6v7.1C33.6 37.8 33.7 37.8 33.9 37.8z"/><path class="st6" d="M34.8 38.8l3.2-3.2c0.2-0.3 0.2-0.7-0.1-0.9 -0.2-0.2-0.6-0.3-0.9-0.1l-3.2 3.2C34.3 38 34.7 38.4 34.8 38.8z"/><path class="st7" d="M34.9 39.2c0-0.1 0-0.2-0.1-0.4 -0.1-0.5-0.5-0.9-1-1 -0.1 0-0.3-0.1-0.4-0.1v2.9C34.3 40.6 34.9 40 34.9 39.2z"/></svg>
