<svg xmlns="http://www.w3.org/2000/svg" viewBox="0 0 67 67"><style type="text/css">
	.st0{fill:#FFFFFF;}
	.st1{fill:#B7CA9D;}
	.st2{fill:#3C4929;}
	.st3{fill:#759C3E;}
	.st4{fill:#4B612C;}
</style><circle class="st0" cx="33.5" cy="33.4" r="33.5"/><path class="st1" d="M16.6 42.5l0.3 0.4 16.6 4.7 0.1-2.9L22 41.8l-0.6-0.2L16.6 42.5"/><path class="st1" d="M50.4 42.5l-17 5.7 -0.1-3.5L45 41.8l0.5-0.6L50.4 42.5"/><path class="st2" d="M33.3 22.5L45 25.2l5.1-0.2 0.3-0.5 -16.2-5.8L33.3 22.5"/><path class="st3" d="M22 41.8l-5.4 0.8L16.5 42V25l0.2-0.6 4.9 0.4 0.5 0.4V41.8"/><path class="st2" d="M33.7 22.5L22 25.2l-5.4-0.8 0.2-0.3 16.8-4.8L33.7 22.5"/><path class="st4" d="M33.5 9.9l-19.4 9.8 0 27.7 19.4 9.8 0.3-0.4V10.5L33.5 9.9zM27.8 45.9l-11.2-3.4V24.5l11.2-3.4V45.9zM45 41.8l5.4 0.8 0.3-0.5V25l-0.3-0.5L45 25.2V41.8"/><path class="st3" d="M33.5 57.1l19.4-9.8 0-27.7L33.5 9.9V57.1zM39.2 21.1l11.2 3.4v18.1l-11.2 3.4V21.1L39.2 21.1z"/></svg>
