<svg xmlns="http://www.w3.org/2000/svg" viewBox="0 0 67 67"><style type="text/css">
	.st0{fill:#FFFFFF;}
	.st1{fill:#A7A9AC;}
	.st2{fill:#D1D3D4;}
	.st3{fill:#E6E7E8;}
	.st4{fill:#006DF0;}
	.st5{fill:#2482F2;}
	.st6{fill:#F1F2F2;}
	.st7{fill:#BCBEC0;}
</style><circle class="st0" cx="33.5" cy="33.7" r="33.5"/><path class="st1" d="M21.5 49.1h28c1.2 0 2.2-1 2.2-2.2v-1.1H38.3c0 0.6-0.5 1.1-1.1 1.1h-3.9c-0.6 0-1.1-0.5-1.1-1.1H19.2v1.1C19.2 48.1 20.2 49.1 21.5 49.1z"/><path class="st2" d="M22.6 43.5V27.8h12.9v-2.2h-14c-0.6 0-1.1 0.5-1.1 1.1v19h11.8c0 0.6 0.5 1.1 1.1 1.1h2.2v-3.4L22.6 43.5 22.6 43.5z"/><path class="st3" d="M48.4 43.5H35.5v3.4h1.7c0.6 0 1.1-0.5 1.1-1.1h12.3V32.3h-2.2V43.5z"/><path class="st3" d="M35.5 25.6h7.3v2.2h-7.3V25.6z"/><path class="st4" d="M34.9 35.7h0.6v-7.8H22.6v15.7h12.9v-7.8H34.9z"/><path class="st5" d="M42.8 31.2v-3.4h-7.3v15.7h12.9V32.3h-4.5C43.3 32.3 42.8 31.8 42.8 31.2z"/><path class="st6" d="M34.9 35.1H36v1.1h-1.1V35.1z"/><path class="st6" d="M37.2 35.1h1.1v1.1h-1.1V35.1z"/><path class="st6" d="M32.7 35.1h1.1v1.1h-1.1V35.1z"/><path class="st4" d="M15.5 46.6h7.1V33.5h-7.1V46.6z"/><path class="st2" d="M27.9 31.7h-5.3v1.9h7.1v-0.6C29.7 32.2 28.9 31.7 27.9 31.7z"/><path class="st5" d="M22.6 33.5v13.1h7.1V33.5H22.6z"/><path class="st2" d="M22.6 49.1h5.3c1 0 1.8-0.6 1.8-1.2v-1.2h-7.1V49.1z"/><path class="st7" d="M15.5 47.9c0 0.7 0.8 1.2 1.8 1.2h5.3v-2.5h-7.1V47.9z"/><path class="st7" d="M17.3 31.7c-1 0-1.8 0.6-1.8 1.2v0.6h7.1v-1.9H17.3z"/><circle class="st6" cx="22.6" cy="47.8" r="0.6"/><path class="st4" d="M42.7 30.2h4.5V18.4h-4.5V30.2z"/><path class="st2" d="M50.6 16.8h-3.4v1.7h4.5v-0.6C51.7 17.3 51.2 16.8 50.6 16.8z"/><path class="st5" d="M47.2 18.4v11.8h4.5V18.4H47.2z"/><path class="st2" d="M47.2 32.5h3.4c0.6 0 1.1-0.5 1.1-1.1v-1.1h-4.5V32.5z"/><path class="st7" d="M42.7 31.3c0 0.6 0.5 1.1 1.1 1.1h3.4v-2.2h-4.5V31.3z"/><path class="st7" d="M43.8 16.8c-0.6 0-1.1 0.5-1.1 1.1v0.6h4.5v-1.7H43.8z"/><path class="st6" d="M46.6 24.1h1.1v1.1h-1.1V24.1z"/><path class="st6" d="M48.9 24.1H50v1.1h-1.1V24.1z"/><path class="st6" d="M44.4 24.1h1.1v1.1h-1.1V24.1z"/><path class="st6" d="M24.4 39.8h1.1v1.1h-1.1V39.8z"/><path class="st6" d="M22 39.8h1.1v1.1H22V39.8z"/><path class="st6" d="M19.8 39.8h1.1v1.1h-1.1V39.8z"/></svg>
