<svg xmlns="http://www.w3.org/2000/svg" viewBox="0 0 66.8 66.8"><style type="text/css">
	.st0{fill:#FFFFFF;}
	.st1{fill:#F47027;}
	.st2{fill:#1D9E12;}
	.st3{fill:#8CDD5E;}
	.st4{fill:#C0C0C0;}
	.st5{fill:#E4E4E4;}
	.st6{fill:#EDEDED;}
	.st7{fill:#F9F67D;}
	.st8{fill:#F7CB7F;}
	.st9{fill:#F4E022;}
	.st10{fill:#434343;}
	.st11{fill:#636363;}
	.st12{fill:#828282;}
</style><circle class="st0" cx="33.4" cy="33.4" r="33.2"/><polygon class="st1" points="42.8 18.4 39.1 28.7 49.4 25 49.4 18.4 "/><polygon class="st2" points="42.8 18.4 33.5 18.4 29.7 28.7 42.8 28.7 "/><polygon class="st3" points="17.6 18.4 17.6 25 33.5 28.7 33.5 18.4 "/><polygon class="st4" points="49.4 25 33.5 25 29.7 36.6 33.5 48.2 49.4 48.2 "/><rect x="17.6" y="25" class="st5" width="15.9" height="23.3"/><polygon class="st6" points="47.5 26.8 33.5 26.8 29.7 36.6 33.5 46.3 47.5 46.3 "/><rect x="19.5" y="26.8" class="st0" width="14" height="19.5"/><path class="st7" d="M21.4 39.8H27c0-1.8 0.7-3.4 1.9-4.6v-3.9H25C22.8 33.5 21.4 36.5 21.4 39.8z"/><path class="st1" d="M42 31.3h-3.9v3.9c1.2 1.2 1.9 2.8 1.9 4.6h5.6C45.6 36.5 44.2 33.5 42 31.3z"/><path class="st8" d="M33.5 27.7l-1.9 2.8 1.9 2.8c1.8 0 3.4 0.7 4.6 1.9l3.9-3.9C39.9 29.1 36.8 27.7 33.5 27.7z"/><path class="st9" d="M25 31.3l3.9 3.9c1.2-1.2 2.8-1.9 4.6-1.9v-5.6C30.2 27.7 27.1 29.1 25 31.3z"/><rect x="32.6" y="29.6" class="st10" width="1.9" height="14.9"/><path class="st11" d="M33.5 37.1l-1.2 2.8 1.2 2.8c1.5 0 2.8-1.2 2.8-2.8S35 37.1 33.5 37.1z"/><path class="st12" d="M30.7 39.9c0 1.5 1.2 2.8 2.8 2.8v-5.6C32 37.1 30.7 38.4 30.7 39.9z"/></svg>
