<svg xmlns="http://www.w3.org/2000/svg" viewBox="0 0 67 67"><style type="text/css">
	.st0{fill:#FFFFFF;}
	.st1{fill:#FFC729;}
	.st2{fill:#787C72;}
	.st3{fill:#FEFFFD;}
	.st4{fill:#DDBD62;}
	.st5{fill:#F0D0B4;}
	.st6{fill:#ECC19C;}
	.st7{fill:#708E50;}
	.st8{fill:#BC875B;}
	.st9{opacity:0.4;}
	.st10{fill:#F9F3EF;}
	.st11{fill:none;stroke:#787C72;stroke-width:1.2146;stroke-linecap:round;stroke-miterlimit:10;}
	.st12{fill:none;stroke:#787C72;stroke-width:1.3482;stroke-linecap:round;stroke-miterlimit:10;}
	.st13{opacity:0.44;}
	.st14{fill:#F8F9F7;}
</style><circle class="st0" cx="33.5" cy="33.7" r="33.5"/><path class="st1" d="M57.5 24.7v-3.8l-1.7-0.4c-0.1-0.2-0.2-0.4-0.3-0.7l0.9-1.5 -2.7-2.7 -1.5 0.9c-0.2-0.1-0.4-0.2-0.7-0.3l-0.4-1.7h-3.8l-0.4 1.7c-0.2 0.1-0.4 0.2-0.7 0.3l-1.5-0.9L42 18.3l0.9 1.5c-0.1 0.2-0.2 0.4-0.3 0.7l-1.7 0.4v3.8l1.7 0.4c0.1 0.2 0.2 0.4 0.3 0.7L42 27.3l2.7 2.7 1.5-0.9c0.2 0.1 0.4 0.2 0.7 0.3l0.4 1.7h3.8l0.4-1.7c0.2-0.1 0.4-0.2 0.7-0.3l1.5 0.9 2.7-2.7 -0.9-1.5c0.1-0.2 0.2-0.4 0.3-0.7L57.5 24.7zM49.3 24.7c-1 0-1.9-0.8-1.9-1.9 0-1 0.8-1.9 1.9-1.9 1 0 1.9 0.8 1.9 1.9C51.2 23.8 50.3 24.7 49.3 24.7z"/><path class="st2" d="M44.7 30.7l1.6-1h0.1l0.5 1.8h4.8l0.5-1.8h0.1l1.6 1 3.4-3.4 -1-1.6v-0.1l1.8-0.5v-4.8l-1.8-0.5v-0.1l1-1.6 -3.4-3.4 -1.6 1h-0.1l-0.5-1.8h-4.8l-0.5 1.8h-0.1l-1.6-1 -3.4 3.4 1 1.6v0.1l-1.8 0.5v4.8l1.8 0.5v0.1l-1 1.6L44.7 30.7zM41.7 24.2v-2.8l1.5-0.4 0.1-0.3c0.1-0.2 0.2-0.4 0.2-0.6l0.1-0.3 -0.8-1.3 2-2 1.3 0.8 0.3-0.1c0.2-0.1 0.4-0.2 0.6-0.2l0.3-0.1 0.4-1.5h2.8l0.4 1.5 0.3 0.1c0.2 0.1 0.4 0.2 0.6 0.2l0.3 0.1 1.3-0.8 2 2 -0.8 1.3 0.1 0.3c0.1 0.2 0.2 0.4 0.2 0.6L55 21l1.5 0.4v2.8L55 24.6l-0.1 0.3c-0.1 0.2-0.2 0.4-0.2 0.6l-0.1 0.3 0.8 1.3 -2 2 -1.3-0.8 -0.3 0.1c-0.2 0.1-0.4 0.2-0.6 0.2l-0.3 0.1 -0.4 1.5h-2.8l-0.2-1.4 -0.3-0.1c-0.2-0.1-0.4-0.2-0.6-0.2l-0.3-0.1L45 29.2l-2-2 0.8-1.3 -0.1-0.3c-0.1-0.2-0.2-0.4-0.2-0.6l-0.1-0.3L41.7 24.2z"/><path class="st3" d="M49.3 19c2.1 0 3.8 1.7 3.8 3.8s-1.7 3.8-3.8 3.8 -3.8-1.7-3.8-3.8S47.2 19 49.3 19z"/><path class="st2" d="M49.3 25.3c1.4 0 2.5-1.1 2.5-2.5s-1.1-2.5-2.5-2.5 -2.5 1.1-2.5 2.5C46.7 24.2 47.9 25.3 49.3 25.3zM49.3 21.5c0.7 0 1.3 0.6 1.3 1.3 0 0.7-0.6 1.3-1.3 1.3 -0.7 0-1.3-0.6-1.3-1.3S48.6 21.5 49.3 21.5z"/><path class="st4" d="M31.6 48.6l-3.4 1.3c-1 0.4-1.6 1.3-1.6 2.4v1.4h13.9v-1.5c0-1.1-0.7-2-1.6-2.4l-3.4-1.3L31.6 48.6 31.6 48.6z"/><path class="st5" d="M35.4 46.6v2.5c0 0-0.3 2.5-1.9 2.5s-1.9-2.5-1.9-2.5v-2.5H35.4z"/><path class="st6" d="M31.6 48.6l0.2 0.3c0.5 0.2 1.1 0.3 1.7 0.3s1.2-0.1 1.7-0.3l0.2-0.3v-2.5h-3.8C31.6 46.1 31.6 48.6 31.6 48.6z"/><path class="st5" d="M21.5 46.1v2.5c0 1-0.8 1.9-1.9 1.9 -1 0-1.9-0.8-1.9-1.9v-2.5H21.5z"/><path class="st7" d="M17.7 48.6l-3.4 1.3c-1 0.4-1.6 1.3-1.6 2.4v1.4h13.9v-1.5c0-1.1-0.7-2-1.6-2.4l-3.4-1.3L17.7 48.6 17.7 48.6z"/><path class="st6" d="M17.7 48.6c0 0.1 0 0.1 0 0.2 0.6 0.3 1.2 0.4 1.9 0.4s1.3-0.2 1.9-0.4c0-0.1 0-0.1 0-0.2v-2.5h-3.8V48.6z"/><path class="st5" d="M16.2 41.3v3.8c0 1.2 1.5 2.2 3.4 2.2s3.4-0.9 3.4-2.2v-3.8H16.2z"/><path class="st8" d="M19.7 37.7c-1.9 0-3.4 1.5-3.4 3.3v1.6c0-0.7 0.5-1.3 1.3-1.3h4.3c0.7 0 1.3 0.5 1.3 1.3V41C23.2 39.2 21.6 37.7 19.7 37.7z"/><path class="st5" d="M30 41.3v3.8c0 1.2 1.5 2.2 3.4 2.2 1.9 0 3.4-0.9 3.4-2.2v-3.8H30z"/><path class="st8" d="M33.4 37.8c-1.9 0-3.4 1.5-3.4 3.3v1.6c0-0.7 0.5-1.3 1.3-1.3h4.3c0.7 0 1.3 0.5 1.3 1.3V41C36.9 39.3 35.4 37.8 33.4 37.8z"/><g class="st9"><path class="st10" d="M40.5 52.2c0-1.1-0.7-2-1.6-2.4l-3.4-1.3h-0.1v0.1c0 0.1 0 0.1 0 0.2 -0.6 0.2-1.2 0.4-1.8 0.4v4.5h7V52.2z"/><path class="st10" d="M33.5 49.2c0.7 0 1.3-0.2 1.8-0.4 0-0.1 0-0.1 0-0.2v-0.1 -1.6c-0.5 0.2-1.2 0.3-1.8 0.3V49.2z"/><path class="st10" d="M35.7 41.3h-2.1v6c0.7 0 1.3-0.1 1.8-0.3 0.9-0.4 1.6-1 1.6-1.8v-3.8h0v1.3C36.9 41.8 36.3 41.3 35.7 41.3z"/><path class="st10" d="M33.5 41.3h2.1c0.7 0 1.3 0.5 1.3 1.3v-1.3V41c0.1-1.8-1.4-3.3-3.3-3.3 0 0 0 0 0 0V41.3z"/></g><g class="st9"><path class="st10" d="M26.6 52.2c0-1.1-0.7-2-1.6-2.4l-3.4-1.3h-0.1v0.1c0 0.1 0 0.1 0 0.2 -0.6 0.2-1.2 0.4-1.8 0.4v4.5h7V52.2z"/><path class="st10" d="M19.7 49.2c0.7 0 1.3-0.2 1.8-0.4 0-0.1 0-0.1 0-0.2v-0.1 -1.6c-0.5 0.2-1.2 0.3-1.8 0.3V49.2z"/><path class="st10" d="M21.8 41.3h-2.1v6c0.7 0 1.3-0.1 1.8-0.3 0.9-0.4 1.6-1 1.6-1.8v-3.8h0v1.3C23 41.8 22.5 41.3 21.8 41.3z"/><path class="st10" d="M19.7 41.3h2.1c0.7 0 1.3 0.5 1.3 1.3v-1.3V41c0.1-1.8-1.4-3.3-3.3-3.3 0 0 0 0 0 0V41.3z"/></g><path class="st0" d="M24.6 28.7c0 0-0.6-4.5 2.8-4.6s7.9 0 7.9 0"/><path class="st11" d="M24.6 28.7c0 0-0.6-4.5 2.8-4.6 1.6 0 3.5 0 5 0"/><polygon class="st2" points="31.1 25.9 31.9 24.1 31.1 22.3 35.4 24.1 "/><path class="st0" d="M53.5 41.8c0 0 0.8 5.5-2.7 5.6 -3.5 0.2-8.1 0.2-8.1 0.2"/><path class="st12" d="M53.5 41.8c0 0 0.8 5.5-2.7 5.6 -1.6 0.1-3.4 0.1-4.9 0.2"/><polygon class="st2" points="47.4 45.5 46.6 47.5 47.5 49.5 42.7 47.6 "/><g class="st13"><path class="st14" d="M49.2 19c2.1 0 3.8 1.7 3.8 3.8 0 2.1-1.7 3.8-3.8 3.8 0 0 0 0 0 0v3.6h1.2l0.4-1.5 0.3-0.1c0.2 0 0.4-0.1 0.6-0.2l0.3-0.1 1.3 0.8 2-2 -0.8-1.3 0.1-0.3c0-0.2 0.1-0.4 0.2-0.6l0.1-0.3 1.5-0.4v-2.8L54.9 21l-0.1-0.3c0-0.2-0.1-0.4-0.2-0.6l-0.1-0.3 0.8-1.3 -2-2L52 17.3l-0.3-0.1c-0.2 0-0.4-0.1-0.6-0.2l-0.3-0.1 -0.4-1.5h-1.2L49.2 19C49.2 19 49.2 19 49.2 19z"/><path class="st14" d="M58 25.1v-4.8l-1.8-0.5v-0.1l1-1.6 -3.4-3.4 -1.6 1h-0.1l-0.5-1.8h-2.4v1.5h1.2l0.4 1.5 0.3 0.1c0.2 0.1 0.4 0.2 0.6 0.2l0.3 0.1 1.3-0.8 2 2 -0.8 1.3 0.1 0.3c0.1 0.2 0.2 0.4 0.2 0.6l0.1 0.3 1.5 0.4v2.8l-1.5 0.4 -0.1 0.3c-0.1 0.2-0.2 0.4-0.2 0.6l-0.1 0.3 0.8 1.3 -2 2L52 28.3l-0.3 0.1c-0.2 0.1-0.4 0.2-0.6 0.2l-0.3 0.1 -0.4 1.5h-1.2v1.3h2.4l0.5-1.8h0.1l1.6 1 3.4-3.4 -1-1.6v-0.1L58 25.1z"/><path class="st14" d="M50.5 22.8c0-0.7-0.6-1.3-1.3-1.3 0 0 0 0 0 0v2.6c0 0 0 0 0 0C49.9 24.1 50.5 23.5 50.5 22.8z"/><path class="st14" d="M53 22.8c0-2.1-1.7-3.8-3.8-3.8 0 0 0 0 0 0v1.3c0 0 0 0 0 0 1.4 0 2.5 1.1 2.5 2.5 0 1.4-1.1 2.5-2.5 2.5 0 0 0 0 0 0v1.3c0 0 0 0 0 0C51.3 26.6 53 24.9 53 22.8z"/><path class="st14" d="M51.7 22.8c0-1.4-1.1-2.5-2.5-2.5 0 0 0 0 0 0v1.2c0 0 0 0 0 0 0.7 0 1.3 0.6 1.3 1.3 0 0.7-0.6 1.3-1.3 1.3 0 0 0 0 0 0v1.2c0 0 0 0 0 0C50.6 25.3 51.7 24.2 51.7 22.8z"/></g></svg>
