<svg xmlns="http://www.w3.org/2000/svg" viewBox="0 0 67 67"><style type="text/css">
	.st0{fill:#FFFFFF;}
</style><circle class="st0" cx="33.5" cy="33.5" r="33.5"/><path d="M29.7 10.6c0.7-0.4 1.2-0.4 2 0 2 1.2 3.8 2.3 5.9 3.4 0.2 0.1 0.5 0.1 0.7-0.1 2-1.1 3.8-2.2 5.7-3.3 0.7-0.4 1.2-0.4 1.9-0.1 2.9 1.7 5.9 3.4 8.8 5.1 0.7 0.4 0.9 0.8 0.9 1.5 -0.1 3.4-0.1 6.8 0 10.2 0 0.7-0.2 1.1-0.8 1.4 -1.7 0.9-3.5 2-5.2 3 1.2 1 1.2 1 1.2 2.6 0 3.2 0 6.4 0 9.6 0 0.7-0.2 0.9-0.8 1.3 -6 3.5-12.1 7-18.1 10.4 -0.9 0.5-1.4 0.5-2.3 0 -6-3.6-12-7-18.1-10.4 -0.5-0.3-0.7-0.7-0.7-1.4 0-7.1 0-14.2 0-21.3 0-0.7 0.2-1 0.8-1.4L29.7 10.6zM29.6 34.4c0-0.4-0.1-0.7-0.4-0.9l-16.5-9.5V43c0 0.4 0.1 0.7 0.5 0.9l16.4 9.4L29.6 34.4zM48.1 43.9c0.4-0.2 0.5-0.4 0.5-0.9l-0.1-8 -7.7 4.3c-1.1 0.7-1.8 0.2-1.8-1 0-2.7 0-5.4 0-8.1 0-0.2 0-0.4-0.1-0.7l-7 4.1c-0.4 0.2-0.4 0.4-0.4 0.8v19L48.1 43.9zM30.2 31.8c0.3 0.2 0.5 0.2 0.9 0 1.3-0.8 2.7-1.5 4.1-2.3 0.9-0.5 1.9-1.2 3-1.7 -0.4-0.2-0.7-0.4-1-0.6 -2.3-1.3-4.6-2.6-6.8-4 -0.9-0.5-0.9-1.4 0-2 1.2-0.7 2.4-1.4 3.6-2 0.4-0.2 0.6-0.4 0.5-0.9 -0.1-0.2 0-0.4 0-0.5 -0.1-1 0.1-1.9 1.2-2.3 0.1 0 0.1-0.1 0.1-0.1 -1.5-0.9-3-1.7-4.5-2.6 -0.4-0.2-0.7-0.2-0.9 0l-16.4 9.5L30.2 31.8zM52.3 16.7c-0.1-0.1-0.2-0.1-0.2-0.1 -2.3-1.3-4.6-2.6-6.9-4 -0.1-0.1-0.5-0.1-0.7 0.1 -2 1.2-4.1 2.3-6.1 3.5 -0.3 0.1-0.5 0.4-0.9 0.5 0.1 0.1 0.2 0.1 0.2 0.1 2.3 1.3 4.6 2.6 6.9 4 0.1 0.1 0.5 0.1 0.7-0.1 1-0.5 2-1.2 3-1.7C49.5 18.3 50.8 17.6 52.3 16.7zM53 27.3c0.2-0.1 0.3-0.4 0.3-0.7 0.1-2.5 0-4.9 0-7.5 0-0.1-0.1-0.3-0.1-0.4 -0.1 0-0.1 0-0.2 0 -2.3 1.3-4.6 2.6-6.9 4 -0.2 0.1-0.3 0.4-0.3 0.7v8L53 27.3zM36.4 18.6c0 1.9 0 3.6 0 5.3 0 0.4 0.1 0.7 0.4 0.8 1.2 0.7 2.4 1.4 3.6 2.1 0.5 0.3 0.7 0.7 0.7 1.2 0 0.5 0 1 0 1.5 0 0.1 0.1 0.4 0.1 0.4 0.8 0.5 1.6 0.9 2.5 1.4 0.1-0.2 0.1-0.3 0.1-0.4 0-2.6 0-5.2 0-7.8 0-0.2-0.2-0.4-0.4-0.6L36.4 18.6zM41.2 32.3c0 1.5 0 3 0 4.6 2.1-1.2 4.2-2.4 6.2-3.6 -0.1-0.1-0.1-0.1-0.1-0.2 -0.1 0.1-0.3 0.1-0.4 0.1 -0.4 0.2-0.9 0.4-1.2 0.7 -0.5 0.4-1 0.4-1.5 0.1C43.2 33.4 42.2 32.9 41.2 32.3zM32.7 22.2c0.6 0.4 1 0.7 1.5 0.9 0-0.7 0-1.2 0-1.8C33.7 21.7 33.3 22 32.7 22.2z"/></svg>
