<svg xmlns="http://www.w3.org/2000/svg" viewBox="0 0 67 67"><style type="text/css">
	.st0{fill:#FFFFFF;}
	.st1{fill:#C6E2E7;}
	.st2{fill:#5A5C5E;}
	.st3{fill:#292929;}
	.st4{fill:#3AAAFF;}
	.st5{fill:#0095FF;}
	.st6{fill:#DEECF1;}
	.st7{fill:#EACAA0;}
</style><circle class="st0" cx="33.5" cy="33.5" r="33.5"/><path class="st1" d="M29.9 19.7h12.7v25.5H29.9V19.7z"/><path class="st2" d="M39.5 16.1H22.1l-6.2 2.4v27.8c0 0.2 1.6 1.3 3.3 2.3h24.5V18.5L39.5 16.1zM41.5 44H18.3V20.8h23.2V44z"/><path class="st3" d="M43.8 18.5v30.1H29.9V44h11.6V20.8H29.9v-4.7h9.7L43.8 18.5z"/><path class="st4" d="M43.8 46.3H16v3.5c0 0.6 0.5 1.2 1.2 1.2h25.5c0.6 0 1.2-0.5 1.2-1.2L43.8 46.3 43.8 46.3z"/><path class="st5" d="M43.8 46.3H29.9v4.6h12.7c0.6 0 1.2-0.5 1.2-1.2V46.3z"/><path class="st6" d="M17.1 19.7h25.5v25.5H17.1V19.7z"/><path class="st4" d="M42.7 13.7H17.1c-0.6 0-1.2 0.5-1.2 1.2v3.6h27.9v-3.6C43.9 14.2 43.4 13.7 42.7 13.7z"/><path class="st5" d="M43.8 14.9c0.1-0.7-0.4-1.2-1.1-1.2H30v4.8h13.8V14.9z"/><circle class="st0" cx="30" cy="48.9" r="1.1"/><path class="st4" d="M39.4 25.4H20.9c-0.4 0-0.8-0.4-0.8-0.8v0c0-0.4 0.4-0.8 0.8-0.8h18.5c0.4 0 0.8 0.4 0.8 0.8v0C40.2 25 39.9 25.4 39.4 25.4z"/><path class="st5" d="M39.4 23.8H30v1.6h9.5c0.4 0 0.8-0.4 0.8-0.8S39.9 23.8 39.4 23.8z"/><path class="st4" d="M39.4 30.2H20.9c-0.4 0-0.8-0.4-0.8-0.8v0c0-0.4 0.4-0.8 0.8-0.8h18.5c0.4 0 0.8 0.4 0.8 0.8v0C40.2 29.8 39.9 30.2 39.4 30.2z"/><path class="st5" d="M39.4 28.6H30v1.6h9.5c0.4 0 0.8-0.4 0.8-0.8S39.9 28.6 39.4 28.6z"/><path class="st4" d="M39.3 34.6H20.7c-0.4 0-0.8-0.4-0.8-0.8v0c0-0.4 0.4-0.8 0.8-0.8h18.5c0.4 0 0.8 0.4 0.8 0.8v0C40 34.2 39.7 34.6 39.3 34.6z"/><path class="st5" d="M39.4 33H30v1.6h9.5c0.4 0 0.8-0.4 0.8-0.8S39.9 33 39.4 33z"/><path class="st4" d="M39.1 39.1H20.6c-0.4 0-0.8-0.4-0.8-0.8v0c0-0.4 0.4-0.8 0.8-0.8h18.5c0.4 0 0.8 0.4 0.8 0.8v0C39.9 38.8 39.5 39.1 39.1 39.1z"/><path class="st5" d="M39.4 37.6H30v1.6h9.5c0.4 0 0.8-0.4 0.8-0.8S39.9 37.6 39.4 37.6z"/><path class="st7" d="M50.4 37.1c-1.4 0-2.7 1.2-2.7 2.6v-2.4c0-1.4-1.1-2.6-2.5-2.6s-2.6 1.2-2.6 2.6l0 0c0-1.4-1.2-2.6-2.6-2.6 -1.4 0-2.7 1.2-2.7 2.6V28c0-1.4-1.1-2.6-2.5-2.6s-2.6 1.2-2.6 2.6v15.3c-1.5-1.4-1.9-1.8-2.4-2.2 -0.9-0.9-2.3-0.8-3.2 0.1 -0.9 0.9-0.9 2.4 0 3.3l8.3 8.3c0.3 0.3 0.8 0.5 1.2 0.5h13.3c0.5 0 0.9-0.3 1.1-0.7 0.3-0.6 0.6-1.4 0.8-2 1.5-4 1.5-6.3 1.8-8.4 0.1-1 0.1-1.6 0.1-2.5C53 38.2 51.9 37.1 50.4 37.1z"/></svg>
