<svg xmlns="http://www.w3.org/2000/svg" viewBox="0 0 768 368"><defs><style>.cls-1{fill:none;}.cls-2{fill:#020000;}.cls-2,.cls-3,.cls-4{stroke:#231f20;stroke-miterlimit:10;}.cls-4{fill:#070000;}</style></defs><title>404</title><g id="Layer_2" data-name="Layer 2"><g id="Layer_1-2" data-name="Layer 1"><rect class="cls-1" width="768" height="368"/><g id="Layer_1-3" data-name="Layer 1"><path class="cls-2" d="M313.433,198.70884l41.94677-89.97942-24.27809-11.321L271.35532,225.53907h58.503v53.26781h26.83023v-80.098ZM351.5188,273.7026H334.9626V220.43479H279.4044L333.58834,104.2141l14.98566,7.002-43.19012,92.597h46.1349l0,69.88947Z"/><path class="cls-2" d="M271.159,278.80688V114.48811L257.74387,101.073H196.68875l-13.41511,13.41511V278.80688h26.83023V127.90322h34.29034V278.80688ZM204.99958,122.7335V273.7026H188.44337v-157.055l10.40489-10.47033h56.80156l10.40489,10.40489v157.055H249.4985V122.7335Z"/><path class="cls-3" d="M140.08352,305.179l216.605.19631V286.79052h-216.605ZM351.5188,291.8948v8.31083l-206.331-.19631v-8.17995l206.331.06542Z"/><path class="cls-4" d="M140.2144,278.80688h26.83023v-80.098H123.85451L173.654,91.12618H356.62308V73.39206H152.84424l-71.06738,152.147h58.503l-.06544,53.26781ZM89.82593,220.36935l66.29029-141.873H351.5188v7.46011H170.382l-54.5766,117.92212h46.1349v69.824H145.38412V220.43479H89.82593Z"/><polygon class="cls-2" points="341.768 113.703 336.075 111.085 287.453 215.265 340.132 215.265 340.132 268.533 346.349 268.533 346.349 208.983 297.335 208.983 341.768 113.703"/><polygon class="cls-2" points="254.668 268.533 260.885 268.533 260.885 118.742 253.556 111.347 201.008 111.347 193.613 118.742 193.613 268.533 199.895 268.533 199.895 117.629 254.668 117.629 254.668 268.533"/><polygon class="cls-2" points="150.488 268.533 156.771 268.533 156.771 208.983 107.756 208.983 164.951 85.956 158.537 85.956 97.875 215.265 150.488 215.265 150.488 268.533"/><path class="cls-2" d="M447.51867,166.44714a7.76705,7.76705,0,0,1-2.29039,5.56236,7.61139,7.61139,0,0,1-5.62779,2.35583,7.7565,7.7565,0,0,1-5.69325-2.35583,7.67766,7.67766,0,0,1-2.35581-5.56236v-31.0838a11.357,11.357,0,0,0-.91617-4.51533,12.94856,12.94856,0,0,0-2.4867-3.66462,12.08648,12.08648,0,0,0-3.6646-2.48671,10.33072,10.33072,0,0,0-4.51535-.91615,11.51838,11.51838,0,0,0-4.44988.91615,11.33236,11.33236,0,0,0-3.66462,2.48671,12.08625,12.08625,0,0,0-2.4867,3.66462,10.3307,10.3307,0,0,0-.91615,4.51533v31.0838a7.76705,7.76705,0,0,1-2.29039,5.56236,7.61137,7.61137,0,0,1-5.62781,2.35583,7.75653,7.75653,0,0,1-5.69325-2.35583,7.67776,7.67776,0,0,1-2.35583-5.56236V118.41448a7.57158,7.57158,0,0,1,2.35583-5.56236,7.75648,7.75648,0,0,1,5.69325-2.35582,7.93129,7.93129,0,0,1,7.91819,7.91819c.6544-.71983,1.57055-1.57055,2.61758-2.55214a18.33091,18.33091,0,0,1,3.9918-2.61758,27.92582,27.92582,0,0,1,5.30059-1.96319,26.34548,26.34548,0,0,1,6.74027-.85071,21.26623,21.26623,0,0,1,7.91817,1.43967,20.67488,20.67488,0,0,1,6.544,3.99181,17.33408,17.33408,0,0,1,4.38446,6.15132,19.75334,19.75334,0,0,1,1.57057,7.98363v36.44985Z"/><path class="cls-2" d="M473.43272,173.44917a29.75877,29.75877,0,0,1-10.14313-6.67483,31.59776,31.59776,0,0,1-6.80573-10.33946,36.72636,36.72636,0,0,1,0-26.56847,31.25256,31.25256,0,0,1,6.80573-10.33946,30.40206,30.40206,0,0,1,10.14313-6.67483,34.50848,34.50848,0,0,1,25.06335,0,29.75884,29.75884,0,0,1,10.14313,6.67483,31.59776,31.59776,0,0,1,6.80573,10.33946,36.72636,36.72636,0,0,1,0,26.56847,31.25256,31.25256,0,0,1-6.80573,10.33946,30.402,30.402,0,0,1-10.14313,6.67483,33.51363,33.51363,0,0,1-12.56441,2.35583A33.17622,33.17622,0,0,1,473.43272,173.44917Zm28.728-38.28215a22.51542,22.51542,0,0,0-3.40287-6.74028,16.19478,16.19478,0,0,0-5.43148-4.64621,15.91424,15.91424,0,0,0-7.32924-1.70143,15.26323,15.26323,0,0,0-7.26378,1.70143,16.0884,16.0884,0,0,0-5.43148,4.64621,21.22157,21.22157,0,0,0-3.46829,6.74028,27.14454,27.14454,0,0,0-1.24337,7.98363,25.267,25.267,0,0,0,1.24337,8.04907,20.5513,20.5513,0,0,0,3.46829,6.74028,17.35472,17.35472,0,0,0,5.43148,4.58077,16.49579,16.49579,0,0,0,14.593,0,16.00982,16.00982,0,0,0,5.43148-4.58077,21.76447,21.76447,0,0,0,3.40287-6.74028,27.24435,27.24435,0,0,0,1.24337-8.04907A28.70666,28.70666,0,0,0,502.16071,135.167Z"/><path class="cls-2" d="M546.725,110.4963V111.936h7.85275a4.99739,4.99739,0,0,1,3.59918,1.50511,4.88988,4.88988,0,0,1,1.5051,3.59918,5.03746,5.03746,0,0,1-1.5051,3.66462,4.83358,4.83358,0,0,1-3.59918,1.43967H546.725v44.368a7.57163,7.57163,0,0,1-2.35581,5.56236,7.67778,7.67778,0,0,1-5.56236,2.35583,7.7565,7.7565,0,0,1-5.69325-2.35583,7.67766,7.67766,0,0,1-2.35581-5.56236V122.0791h-4.64619a5.0285,5.0285,0,0,1-5.10428-5.10428,4.99735,4.99735,0,0,1,1.5051-3.59918,4.88987,4.88987,0,0,1,3.59918-1.50511h4.64619V98.12822a7.61142,7.61142,0,0,1,2.35581-5.62781,8.05869,8.05869,0,0,1,11.25562,0,7.61127,7.61127,0,0,1,2.35581,5.6278Z"/><path class="cls-2" d="M415.97678,270.36518a7.57165,7.57165,0,0,1-2.35581,5.56236,7.67774,7.67774,0,0,1-5.56236,2.35583,7.75657,7.75657,0,0,1-5.69325-2.35583,7.67774,7.67774,0,0,1-2.35583-5.56236v-44.368h-4.64621a5.0285,5.0285,0,0,1-5.10428-5.10429,4.99735,4.99735,0,0,1,1.5051-3.59918,4.88987,4.88987,0,0,1,3.59918-1.50511h4.64621V214.3489a47.36717,47.36717,0,0,1,.85071-9.48874,18.00358,18.00358,0,0,1,2.94478-7.32923,13.69994,13.69994,0,0,1,5.75867-4.71165,22.312,22.312,0,0,1,9.29241-1.636,27.794,27.794,0,0,1,9.227,1.24335c2.29039.78527,3.46829,2.55214,3.46829,5.30061a8.16973,8.16973,0,0,1-1.30879,4.71165c-.85071,1.24335-2.61758,1.83231-5.16974,1.83231q-4.71164,0-6.87116,2.15951c-1.37422,1.43967-2.09407,4.1227-2.09407,7.98363V215.854h7.85275a4.99739,4.99739,0,0,1,3.59918,1.50511,4.88988,4.88988,0,0,1,1.5051,3.59918,5.03747,5.03747,0,0,1-1.5051,3.66462,4.83358,4.83358,0,0,1-3.59918,1.43967h-7.85275l-.13081,44.30259Z"/><path class="cls-2" d="M453.93174,277.36722a29.7585,29.7585,0,0,1-10.14313-6.67484,31.598,31.598,0,0,1-6.80573-10.33945,36.72633,36.72633,0,0,1,0-26.56846A31.25256,31.25256,0,0,1,443.7886,223.445a30.40214,30.40214,0,0,1,10.14313-6.67483,34.50841,34.50841,0,0,1,25.06335,0,29.75877,29.75877,0,0,1,10.14313,6.67483,31.59776,31.59776,0,0,1,6.80573,10.33946,36.72633,36.72633,0,0,1,0,26.56846,31.25242,31.25242,0,0,1-6.80573,10.33945,30.40247,30.40247,0,0,1-10.14313,6.67484,33.51363,33.51363,0,0,1-12.56441,2.35583A32.93346,32.93346,0,0,1,453.93174,277.36722Zm28.66253-38.28215a22.51548,22.51548,0,0,0-3.40287-6.74028,16.19486,16.19486,0,0,0-5.43148-4.64621,15.91425,15.91425,0,0,0-7.32924-1.70143,15.26311,15.26311,0,0,0-7.26378,1.70143,16.08841,16.08841,0,0,0-5.43148,4.64621,21.22162,21.22162,0,0,0-3.46829,6.74028,27.14452,27.14452,0,0,0-1.24337,7.98364,25.267,25.267,0,0,0,1.24337,8.04906,20.55114,20.55114,0,0,0,3.46829,6.74027,17.35485,17.35485,0,0,0,5.43148,4.58077,16.49579,16.49579,0,0,0,14.593,0,16.00994,16.00994,0,0,0,5.43148-4.58077,21.76452,21.76452,0,0,0,3.40287-6.74027,27.24431,27.24431,0,0,0,1.24337-8.04906A25.153,25.153,0,0,0,482.59426,239.08507Z"/><path class="cls-2" d="M504.90914,222.398a7.57163,7.57163,0,0,1,2.35581-5.56236,7.75653,7.75653,0,0,1,5.69325-2.35583,7.93129,7.93129,0,0,1,7.91817,7.91819v31.0838a11.357,11.357,0,0,0,.91617,4.51533,12.94858,12.94858,0,0,0,2.4867,3.66462,11.0745,11.0745,0,0,0,8.11448,3.3374,11.33093,11.33093,0,0,0,4.51535-.85071,11.72258,11.72258,0,0,0,3.6646-2.4867,12.94858,12.94858,0,0,0,2.4867-3.66462,10.3307,10.3307,0,0,0,.91617-4.51533V222.398a7.57163,7.57163,0,0,1,2.35581-5.56236,7.75653,7.75653,0,0,1,5.69325-2.35583,7.93129,7.93129,0,0,1,7.91817,7.91819V270.3652a7.76707,7.76707,0,0,1-2.29039,5.56236,7.91818,7.91818,0,0,1-13.546-5.56236,24.57548,24.57548,0,0,1-2.61758,2.61758,20.97435,20.97435,0,0,1-3.9918,2.55214,27.92548,27.92548,0,0,1-5.30059,1.96319,26.34594,26.34594,0,0,1-6.74027.85071,22.63274,22.63274,0,0,1-7.91817-1.37424,18.553,18.553,0,0,1-6.544-3.99182,19.0305,19.0305,0,0,1-4.44988-6.15132,18.73812,18.73812,0,0,1-1.636-7.98364l0-36.44983Z"/><path class="cls-2" d="M623.87833,270.36518a7.76707,7.76707,0,0,1-2.29039,5.56236,7.61139,7.61139,0,0,1-5.62779,2.35583,7.75653,7.75653,0,0,1-5.69325-2.35583,7.67764,7.67764,0,0,1-2.35581-5.56236v-31.0838a11.357,11.357,0,0,0-.91617-4.51533,12.94858,12.94858,0,0,0-2.4867-3.66462,12.08639,12.08639,0,0,0-3.6646-2.48671,10.33072,10.33072,0,0,0-4.51535-.91615,11.51846,11.51846,0,0,0-4.44988.91615,11.33205,11.33205,0,0,0-3.6646,2.48671,12.08658,12.08658,0,0,0-2.4867,3.66462,10.3307,10.3307,0,0,0-.91617,4.51533v31.0838a7.76707,7.76707,0,0,1-2.29039,5.56236,7.61139,7.61139,0,0,1-5.62779,2.35583,7.75653,7.75653,0,0,1-5.69325-2.35583,7.67764,7.67764,0,0,1-2.35581-5.56236V222.398a7.57163,7.57163,0,0,1,2.35581-5.56236,7.75653,7.75653,0,0,1,5.69325-2.35583,7.93129,7.93129,0,0,1,7.91817,7.91819c.6544-.71984,1.57057-1.57055,2.61758-2.55214a18.3309,18.3309,0,0,1,3.9918-2.61758,27.92582,27.92582,0,0,1,5.30059-1.96319,26.34547,26.34547,0,0,1,6.74027-.85072,21.26623,21.26623,0,0,1,7.91817,1.43967,20.6748,20.6748,0,0,1,6.544,3.99182,17.33415,17.33415,0,0,1,4.38446,6.15132,19.75334,19.75334,0,0,1,1.57057,7.98363v36.38441Z"/><path class="cls-2" d="M670.733,272.85189a13.96854,13.96854,0,0,1-3.272,2.61758,20.26632,20.26632,0,0,1-5.16974,2.02863,32.86442,32.86442,0,0,1-7.91817.85071,21.61925,21.61925,0,0,1-9.94682-2.29039,22.4309,22.4309,0,0,1-7.52555-6.544,31.3519,31.3519,0,0,1-4.84254-10.07769,46.91258,46.91258,0,0,1-1.70141-12.8916,47.39779,47.39779,0,0,1,1.70141-12.957,31.05843,31.05843,0,0,1,4.84254-10.14313,22.332,22.332,0,0,1,7.52555-6.544,20.8289,20.8289,0,0,1,9.94682-2.29039,18.8596,18.8596,0,0,1,7.19835,1.24335,28.59684,28.59684,0,0,1,5.30059,2.683,40.65132,40.65132,0,0,1,3.53375,2.683,4.10059,4.10059,0,0,0,1.96319,1.24335c.39262,0,.52351-.45807.52351-1.43967V199.42868a7.80774,7.80774,0,0,1,2.29039-5.62781,7.552,7.552,0,0,1,5.62779-2.29039,7.9589,7.9589,0,0,1,5.69325,2.29039,7.61126,7.61126,0,0,1,2.35581,5.62781v71.19825a7.57165,7.57165,0,0,1-2.35581,5.56236,7.75653,7.75653,0,0,1-5.69325,2.35583,7.93129,7.93129,0,0,1-7.91817-7.91819A24.078,24.078,0,0,0,670.733,272.85189Zm-21.98768-40.31078c-2.61758,3.40286-3.92637,8.04906-3.92637,13.8732s1.30879,10.40489,3.92637,13.80775a14.11144,14.11144,0,0,0,21.72591,0c2.61758-3.40287,3.92637-7.98364,3.92637-13.80775,0-5.88956-1.30879-10.53578-3.92637-13.87319a14.11143,14.11143,0,0,0-21.72591,0Z"/></g></g></g></svg>