<svg xmlns="http://www.w3.org/2000/svg" width="104" height="128" viewBox="0 0 104 128"><style>  .a{fill:#252F3E;}.b{fill:#F90;}.c{fill:#535B64;}</style><title>    aws-saas-partner</title><desc>    Created with Sketch.</desc><g fill="none"><path d="M35.9 14.4C36.3 14.6 36.9 14.8 37.7 15 38.5 15.2 39.4 15.3 40.2 15.3 41.1 15.3 41.8 15.2 42.5 14.9 43.2 14.7 43.8 14.4 44.3 14 44.8 13.7 45.2 13.2 45.5 12.6 45.7 12 45.9 11.4 45.9 10.7 45.9 9.8 45.6 9.1 45.1 8.4 44.7 7.7 43.8 7.2 42.6 6.8L40.4 6.1C39.5 5.8 38.9 5.5 38.6 5.2 38.3 4.9 38.1 4.5 38.1 4 38.1 3.4 38.4 2.8 38.8 2.6 39.4 2.2 40.1 2.1 41 2.1 42.2 2.1 43.2 2.3 44.1 2.7 44.4 2.8 44.6 2.9 44.8 2.9 45 2.9 45.1 2.8 45.1 2.4L45.1 1.8C45.1 1.5 45.1 1.3 45 1.2 44.9 1.1 44.7 0.9 44.5 0.8 44.3 0.7 44.1 0.6 43.8 0.5 43.6 0.4 43.2 0.4 42.9 0.3 42.6 0.2 42.2 0.1 41.9 0.1 41.5 0 41.1 0 40.7 0 40 0 39.4 0.1 38.7 0.3 38.1 0.5 37.5 0.7 37 1.1 36.6 1.5 36.2 1.9 35.9 2.5 35.5 3 35.4 3.6 35.4 4.3 35.4 5.1 35.7 5.9 36.2 6.6 36.8 7.4 37.6 7.9 38.8 8.3L41.2 9C42 9.3 42.5 9.6 42.8 9.9 43.1 10.2 43.2 10.6 43.2 11 43.2 11.6 43 12.2 42.4 12.5 41.8 12.9 41.1 13.1 40 13.1 39.4 13.1 38.7 13 38.1 12.9 37.5 12.8 36.9 12.5 36.3 12.3 36.1 12.2 36 12.2 35.9 12.1 35.8 12.1 35.7 12.1 35.5 12.1 35.3 12.1 35.2 12.2 35.2 12.6L35.2 13.4C35.2 13.6 35.2 13.7 35.3 13.9 35.4 14.1 35.6 14.2 35.9 14.4" class="a"/><path d="M10.1 6.4C9.5 6.3 8.9 6.3 8.4 6.3 6.8 6.3 5.5 6.8 4.5 7.6 3.5 8.5 3.1 9.6 3.1 11 3.1 12.3 3.4 13.3 4.2 14.1 5 14.9 6 15.3 7.4 15.3 9.3 15.3 10.8 14.5 12.1 13 12.2 13.4 12.4 13.7 12.5 14 12.7 14.3 12.9 14.5 13.1 14.7 13.3 14.9 13.4 14.9 13.6 14.9 13.7 14.9 13.8 14.9 14 14.8L15 14.1C15.2 13.9 15.3 13.8 15.3 13.6 15.3 13.5 15.2 13.4 15.2 13.2 15 12.8 14.8 12.4 14.7 12.1 14.6 11.7 14.5 11.2 14.5 10.6L14.5 5.3C14.5 3.6 14.1 2.2 13.2 1.3 12.3 0.4 11 0 9 0 8.2 0 7.3 0.1 6.5 0.3 5.8 0.5 5.1 0.7 4.6 1.1 4.4 1.2 4.2 1.3 4.2 1.4 4 1.5 4 1.7 4 2L4 2.8C4 3.1 4.2 3.3 4.4 3.3 4.4 3.3 4.5 3.3 4.6 3.2 4.7 3.2 4.9 3.1 5.2 3 5.8 2.8 6.3 2.6 6.9 2.5 7.5 2.3 8.1 2.3 8.6 2.3 9.9 2.3 10.7 2.6 11.2 3 11.8 3.5 12 4.4 12 5.6L12 6.8C11.3 6.6 10.7 6.5 10.1 6.4ZM11.9 9.3C11.9 9.8 11.9 10.3 11.8 10.7 11.6 11.1 11.5 11.4 11.2 11.7 10.8 12.2 10.3 12.6 9.7 12.7 9.2 12.9 8.6 13 8.1 13 7.3 13 6.8 12.8 6.4 12.4 6 12.1 5.8 11.5 5.8 10.7 5.8 9.9 6.1 9.3 6.6 8.9 7.1 8.5 7.9 8.2 8.9 8.2 9.4 8.2 9.9 8.3 10.5 8.3 11 8.4 11.4 8.5 11.9 8.6L11.9 9.3Z" class="a"/><path d="M19 13.8C19.2 14.1 19.3 14.3 19.4 14.4 19.5 14.5 19.7 14.5 20 14.5L21.4 14.5C21.7 14.5 21.9 14.5 22 14.4 22.1 14.3 22.2 14.1 22.3 13.8L24.8 3.4 27.3 13.8C27.4 14.1 27.5 14.3 27.6 14.4 27.7 14.5 28 14.5 28.3 14.5L29.6 14.5C29.9 14.5 30.1 14.5 30.3 14.4 30.4 14.3 30.5 14.1 30.6 13.8L34.5 1.3C34.5 1.2 34.6 1 34.6 0.9 34.6 0.8 34.6 0.8 34.6 0.7 34.6 0.4 34.5 0.3 34.3 0.3L32.8 0.3C32.5 0.3 32.3 0.4 32.2 0.5 32 0.6 31.9 0.8 31.8 1.1L29 11.9 26.5 1.1C26.4 0.7 26.3 0.5 26.2 0.4 26 0.3 25.8 0.3 25.5 0.3L24.2 0.3C23.9 0.3 23.7 0.3 23.6 0.4 23.5 0.5 23.4 0.7 23.3 1.1L20.7 11.7 18 1.1C17.9 0.7 17.8 0.5 17.7 0.4 17.6 0.3 17.4 0.3 17.1 0.3L15.5 0.3C15.3 0.3 15.2 0.4 15.2 0.6 15.2 0.7 15.2 0.9 15.3 1.3L19 13.8" class="a"/><path d="M42.9 21.6C37 24.1 30.5 25.3 24.7 25.3 16 25.3 7.6 22.9 0.8 18.9 0.2 18.6-0.3 19.2 0.3 19.7 6.6 25.4 14.9 28.8 24.2 28.8 30.7 28.8 38.4 26.7 43.7 22.8 44.5 22.1 43.8 21.2 42.9 21.6" class="b"/><path d="M40.1 19.8C39.6 20.1 39.7 20.6 40.2 20.6 41.9 20.3 45.8 19.9 46.4 20.8 47.1 21.6 45.7 25.3 45 27 44.8 27.4 45.2 27.7 45.7 27.3 48.6 24.9 49.3 19.7 48.8 19 48.2 18.2 43.1 17.7 40.1 19.8" class="b"/><path d="M59.9 12.2C59.8 12.2 59.6 12.2 59.6 12L59.6 3.4C59.6 3.3 59.7 3.2 59.9 3.2L60.2 3.2C60.3 3.2 60.4 3.3 60.4 3.4L60.4 3.9C60.8 3.6 61.3 3.4 61.7 3.3 62.1 3.1 62.5 3.1 62.9 3.1 63.8 3.1 64.5 3.4 65 3.9 65.5 4.5 65.8 5.3 65.8 6.3 65.8 7.4 65.5 8.2 65 8.8 64.4 9.5 63.7 9.8 62.8 9.8 61.9 9.8 61.2 9.5 60.5 8.9L60.5 12C60.5 12.1 60.4 12.2 60.3 12.2L59.9 12.2ZM62.7 9.1C63.4 9.1 64 8.9 64.4 8.4 64.8 7.9 64.9 7.3 64.9 6.4 64.9 4.6 64.2 3.7 62.7 3.7 62 3.7 61.2 4 60.5 4.6L60.5 8.3C60.9 8.6 61.2 8.8 61.6 8.9 61.9 9 62.3 9.1 62.7 9.1Z" class="a"/><path d="M69.1 9.2C68.5 9.2 68.1 9 67.8 8.7 67.4 8.4 67.3 8 67.3 7.5 67.3 6.9 67.5 6.5 67.9 6.1 68.3 5.8 68.8 5.7 69.5 5.7 70 5.7 70.5 5.8 71.2 5.9L71.2 5C71.2 4.5 71.1 4.2 70.8 4 70.6 3.8 70.2 3.7 69.7 3.7 69.2 3.7 68.6 3.8 68 4 68 4 67.9 4 67.8 4 67.7 4 67.7 4 67.7 3.9L67.7 3.7C67.7 3.6 67.7 3.6 67.8 3.5 67.8 3.5 67.8 3.5 67.9 3.4 68.5 3.2 69.1 3.1 69.9 3.1 70.5 3.1 71.1 3.2 71.4 3.5 71.7 3.8 71.9 4.2 71.9 4.8L71.9 8.8C71.9 8.9 71.8 9 71.7 9L71.4 9C71.4 9 71.3 9 71.3 8.8L71.2 8.4C70.5 8.9 69.8 9.2 69.1 9.2ZM69.2 8.6C69.5 8.6 69.8 8.5 70.1 8.4 70.5 8.3 70.8 8.1 71.2 7.9L71.2 6.5C70.7 6.3 70.2 6.3 69.7 6.3 68.5 6.3 68 6.7 68 7.5 68 7.8 68.1 8.1 68.3 8.3 68.5 8.5 68.8 8.6 69.2 8.6Z" class="a"/><path d="M75.1 9.2C75 9.2 74.9 9.1 74.9 9L74.9 3.3C74.9 3.2 75 3.1 75.1 3.1L75.4 3.1C75.5 3.1 75.6 3.1 75.6 3.3L75.6 3.9C75.9 3.6 76.2 3.4 76.5 3.3 76.8 3.1 77.2 3.1 77.5 3.1 77.7 3.1 77.8 3.1 77.8 3.1 77.9 3.1 78 3.1 78 3.3L78 3.5C78 3.6 78 3.6 78 3.6 78 3.7 77.9 3.7 77.9 3.7 77.8 3.7 77.7 3.7 77.7 3.7 77.6 3.7 77.5 3.7 77.4 3.7 77.1 3.7 76.7 3.7 76.4 3.9 76.1 4 75.9 4.2 75.6 4.5L75.6 9C75.6 9.1 75.5 9.2 75.4 9.2L75.1 9.2" class="a"/><path d="M81.2 9.2C80.6 9.2 80.1 9 79.8 8.8 79.5 8.5 79.4 8.2 79.4 7.7L79.4 3.8 78.2 3.8C78.1 3.8 78 3.8 78 3.6L78 3.5C78 3.5 78 3.4 78.1 3.4 78.1 3.4 78.1 3.4 78.2 3.4L79.4 3.3 79.5 1.7C79.5 1.7 79.6 1.6 79.6 1.6 79.7 1.5 79.7 1.5 79.8 1.5L80 1.5C80.1 1.5 80.3 1.6 80.3 1.7L80.3 3.3 82.3 3.3C82.5 3.3 82.6 3.3 82.6 3.4L82.6 3.7C82.6 3.8 82.5 3.9 82.3 3.9L80.3 3.9 80.3 7.8C80.3 8.1 80.3 8.3 80.5 8.4 80.7 8.6 81 8.6 81.3 8.6 81.6 8.6 81.9 8.6 82.1 8.6 82.2 8.6 82.2 8.5 82.3 8.5 82.3 8.5 82.4 8.5 82.4 8.5 82.5 8.5 82.6 8.6 82.6 8.7L82.6 8.9C82.6 9 82.5 9.1 82.4 9.1 82.1 9.1 81.6 9.2 81.2 9.2" class="a"/><path d="M84.3 9.1C84.2 9.1 84.1 9.1 84.1 8.9L84.1 3.4C84.1 3.3 84.2 3.2 84.3 3.2L84.5 3.2C84.7 3.2 84.7 3.3 84.7 3.4L84.8 3.9C85.1 3.6 85.5 3.4 85.9 3.3 86.3 3.1 86.7 3.1 87.1 3.1 87.6 3.1 88 3.2 88.3 3.5 88.6 3.8 88.7 4.2 88.7 4.8L88.7 8.9C88.7 9 88.7 9.1 88.5 9.1L88.2 9.1C88.1 9.1 88 9 88 8.9L88 5.2C88 4.6 87.9 4.3 87.7 4.1 87.6 3.8 87.2 3.7 86.9 3.7 86.1 3.7 85.4 4 84.7 4.5L84.7 9C84.7 9.1 84.7 9.2 84.5 9.2L84.3 9.2" class="a"/><path d="M92.8 9.2C92 9.2 91.3 8.9 90.9 8.4 90.5 7.9 90.2 7.1 90.2 6.1 90.2 5.1 90.5 4.4 90.9 3.9 91.4 3.3 92 3.1 92.8 3.1 93.4 3.1 93.9 3.2 94.3 3.7 94.6 4 94.8 4.6 94.8 5.4 94.8 5.7 94.8 5.9 94.8 6.1 94.8 6.2 94.7 6.3 94.6 6.3L90.9 6.3C90.9 7.1 91.1 7.7 91.4 8.1 91.7 8.4 92.3 8.6 92.9 8.6 93.5 8.6 94 8.5 94.4 8.4 94.5 8.3 94.6 8.3 94.6 8.3 94.6 8.3 94.6 8.3 94.7 8.4 94.7 8.4 94.7 8.4 94.7 8.4L94.7 8.6C94.7 8.8 94.7 8.8 94.6 8.9 94 9 93.5 9.2 92.8 9.2ZM94.2 5.7C94.2 5.6 94.2 5.5 94.2 5.3 94.2 4.8 94.1 4.4 93.8 4.1 93.6 3.8 93.2 3.7 92.7 3.7 91.5 3.7 91 4.3 90.9 5.7L94.2 5.7Z" class="a"/><path d="M96.6 9.2C96.5 9.2 96.4 9.1 96.4 9L96.4 3.3C96.4 3.2 96.4 3.1 96.6 3.1L96.8 3.1C96.9 3.1 97 3.1 97 3.3L97 3.9C97.3 3.6 97.6 3.4 97.9 3.3 98.2 3.1 98.6 3.1 98.9 3.1 99.1 3.1 99.2 3.1 99.2 3.1 99.3 3.1 99.4 3.1 99.4 3.3L99.4 3.5C99.4 3.6 99.4 3.6 99.4 3.6 99.4 3.7 99.3 3.7 99.3 3.7 99.2 3.7 99.1 3.7 99.1 3.7 99 3.7 98.9 3.7 98.8 3.7 98.5 3.7 98.1 3.7 97.8 3.9 97.5 4 97.3 4.2 97 4.5L97 9C97 9.1 96.9 9.2 96.8 9.2L96.6 9.2" class="a"/><path d="M61.4 22.8C61.3 22.8 61.2 22.8 61.2 22.7L61.2 17.2C61.2 17.1 61.2 17 61.4 17L61.6 17C61.7 17 61.8 17 61.8 17.2L61.8 17.7C62.2 17.4 62.6 17.2 63 17 63.4 16.9 63.7 16.8 64.1 16.8 64.7 16.8 65.1 16.9 65.4 17.2 65.6 17.5 65.8 17.9 65.8 18.6L65.8 22.7C65.8 22.8 65.7 22.8 65.6 22.8L65.3 22.8C65.2 22.8 65.1 22.8 65.1 22.7L65.1 18.9C65.1 18.3 65 18 64.8 17.8 64.6 17.5 64.3 17.4 63.9 17.4 63.2 17.4 62.5 17.7 61.8 18.2L61.8 22.7C61.8 22.8 61.7 22.9 61.6 22.9L61.4 22.9" class="a"/><path d="M69.9 22.9C69 22.9 68.4 22.7 68 22.1 67.5 21.6 67.3 20.9 67.3 19.8 67.3 18.9 67.5 18.1 68 17.6 68.4 17.1 69 16.8 69.8 16.8 70.5 16.8 71 17 71.3 17.4 71.7 17.8 71.9 18.4 71.9 19.1 71.9 19.4 71.9 19.6 71.8 19.8 71.8 19.9 71.7 20 71.7 20L68 20C68 20.8 68.1 21.4 68.5 21.8 68.8 22.2 69.3 22.4 70 22.4 70.5 22.4 71 22.3 71.5 22.1 71.6 22 71.7 22 71.7 22 71.7 22 71.7 22 71.7 22.1 71.7 22.1 71.8 22.1 71.8 22.2L71.8 22.4C71.8 22.5 71.7 22.6 71.7 22.6 71.1 22.8 70.5 22.9 69.9 22.9ZM71.3 19.4C71.3 19.3 71.3 19.2 71.3 19 71.3 18.4 71.1 18.1 70.9 17.8 70.6 17.5 70.3 17.4 69.8 17.4 68.6 17.4 68 18 67.9 19.4L71.3 19.4Z" class="a"/><path d="M76.6 22.9C76 22.9 75.6 22.8 75.3 22.5 75 22.3 74.8 21.9 74.8 21.5L74.8 17.6 73.7 17.6C73.5 17.6 73.4 17.5 73.4 17.4L73.4 17.3C73.4 17.2 73.4 17.2 73.5 17.1 73.5 17.1 73.5 17.1 73.7 17.1L74.8 17 75 15.5C75 15.4 75 15.4 75 15.3 75.1 15.3 75.1 15.3 75.2 15.3L75.4 15.3C75.6 15.3 75.7 15.3 75.7 15.5L75.7 17 77.8 17C77.9 17 78 17 78 17.2L78 17.4C78 17.5 77.9 17.6 77.8 17.6L75.7 17.6 75.7 21.5C75.7 21.8 75.7 22 75.9 22.1 76.1 22.3 76.4 22.3 76.7 22.3 77 22.3 77.3 22.3 77.5 22.3 77.6 22.3 77.6 22.2 77.7 22.2 77.8 22.2 77.8 22.2 77.8 22.2 77.9 22.2 78 22.3 78 22.4L78 22.6C78 22.7 77.9 22.8 77.8 22.8 77.5 22.8 77 22.9 76.6 22.9" class="a"/><path d="M80.3 22.9C80.2 22.9 80.1 22.8 80.1 22.7L78.1 17.1C78 17 78 17 78 16.9 78 16.9 78.1 16.8 78.2 16.8L78.6 16.8C78.7 16.8 78.7 16.9 78.8 17L80.5 22.1 82.1 17C82.1 16.9 82.2 16.8 82.3 16.8L82.8 16.8C82.9 16.8 83 16.9 83.1 17L84.6 22.1 86.4 16.9C86.5 16.8 86.5 16.8 86.6 16.8L87 16.8C87.1 16.8 87.2 16.8 87.2 16.9 87.2 16.9 87.2 17 87.1 17.1L85 22.7C84.9 22.8 84.9 22.8 84.7 22.8L84.3 22.8C84.2 22.8 84.1 22.8 84 22.7L82.5 17.6 81 22.7C80.9 22.8 80.9 22.8 80.7 22.8L80.3 22.8" class="a"/><path d="M90.2 22.9C89.3 22.9 88.5 22.6 88 22.1 87.4 21.6 87.2 20.8 87.2 19.8 87.2 18.9 87.4 18.2 88 17.6 88.5 17.1 89.3 16.8 90.2 16.8 91.2 16.8 92 17.1 92.5 17.6 93 18.1 93.3 18.9 93.3 19.8 93.3 20.8 93 21.5 92.5 22.1 92 22.6 91.2 22.9 90.2 22.9ZM90.2 22.3C91.7 22.3 92.5 21.5 92.5 19.8 92.5 18.2 91.7 17.4 90.2 17.4 88.7 17.4 88 18.2 88 19.8 88 21.5 88.7 22.3 90.2 22.3Z" class="a"/><path d="M95 22.8C94.9 22.8 94.8 22.8 94.8 22.6L94.8 17C94.8 16.9 94.9 16.8 95 16.8L95.3 16.8C95.4 16.8 95.5 16.8 95.5 17L95.5 17.7C95.8 17.3 96.1 17.1 96.4 17 96.7 16.8 97 16.8 97.4 16.8 97.5 16.8 97.6 16.8 97.7 16.8 97.8 16.8 97.9 16.8 97.9 17L97.9 17.3C97.9 17.3 97.9 17.3 97.8 17.4 97.8 17.4 97.8 17.4 97.7 17.4 97.7 17.4 97.6 17.4 97.5 17.4 97.5 17.4 97.4 17.4 97.3 17.4 96.9 17.4 96.6 17.5 96.3 17.6 96 17.8 95.8 18 95.5 18.3L95.5 22.7C95.5 22.8 95.4 22.9 95.3 22.9L95 22.9" class="a"/><path d="M99.6 22.9C99.5 22.9 99.4 22.8 99.4 22.7L99.4 13.9C99.4 13.8 99.5 13.7 99.6 13.7L99.9 13.7C100 13.7 100.1 13.8 100.1 13.9L100.1 19.4 102.9 16.8C103 16.7 103.1 16.7 103.2 16.7L103.7 16.7C103.8 16.7 103.8 16.7 103.8 16.8 103.8 16.8 103.8 16.9 103.7 17L100.8 19.6 103.9 22.6C104 22.7 104 22.7 104 22.8 104 22.9 104 22.9 103.9 22.9L103.4 22.9C103.3 22.9 103.2 22.8 103.1 22.8L100.1 19.8 100.1 22.7C100.1 22.8 100.1 22.9 99.9 22.9L99.6 22.9" class="a"/><path d="M4.7 52.9L4.2 51.4 1.9 51.4 1.5 52.9 0 52.9 2.3 46.4 3.9 46.4 6.2 52.9 4.7 52.9ZM2.2 50.4L3.9 50.4 3.1 47.7 2.2 50.4ZM10.2 52.9L10.1 52.4C9.7 52.8 9.2 53 8.7 53 8.3 53 8 52.9 7.7 52.7 7.3 52.5 7.1 52.2 6.9 51.8 6.8 51.4 6.7 51 6.7 50.5 6.7 49.7 6.9 49.1 7.3 48.7 7.6 48.2 8.1 48 8.7 48 9.2 48 9.7 48.1 10 48.4L10 46 11.4 46 11.4 52.9 10.2 52.9ZM9.2 51.9C9.5 51.9 9.8 51.8 10 51.7L10 49.2C9.8 49.1 9.5 49 9.1 49 8.8 49 8.5 49.1 8.3 49.4 8.2 49.6 8.1 50 8.1 50.5 8.1 51 8.2 51.3 8.4 51.6 8.5 51.8 8.8 51.9 9.2 51.9ZM14 52.9L12.1 48.1 13.6 48.1 14.6 51.6 15.7 48.1 17.1 48.1 15.3 52.9 14 52.9ZM20.6 52.9L20.5 52.4C20.3 52.6 20.1 52.7 19.8 52.8 19.6 52.9 19.3 53 19.1 53 18.6 53 18.2 52.9 18 52.6 17.7 52.4 17.5 52 17.5 51.6 17.5 51.3 17.6 51 17.8 50.8 17.9 50.6 18.1 50.4 18.4 50.3 18.7 50.1 19 50.1 19.4 50.1 19.7 50.1 20.1 50.1 20.4 50.2L20.4 49.7C20.4 49.4 20.4 49.2 20.3 49.1 20.1 49 19.9 49 19.6 49 19.1 49 18.5 49.1 17.9 49.3L17.9 48.4C18.1 48.3 18.4 48.2 18.8 48.1 19.1 48 19.5 48 19.8 48 20.5 48 21 48.1 21.3 48.4 21.6 48.6 21.7 49 21.7 49.6L21.7 52.9 20.6 52.9ZM19.5 52.1C19.6 52.1 19.8 52.1 20 52 20.1 51.9 20.3 51.8 20.4 51.7L20.4 50.9C20.2 50.9 19.9 50.8 19.7 50.8 19.1 50.8 18.9 51.1 18.9 51.5 18.9 51.7 18.9 51.8 19 51.9 19.1 52 19.3 52.1 19.5 52.1ZM26.2 52.9L26.2 49.8C26.2 49.5 26.1 49.3 26 49.2 25.9 49.1 25.7 49 25.5 49 25.1 49 24.8 49.1 24.4 49.3L24.4 52.9 23 52.9 23 48.1 24.2 48.1 24.3 48.6C24.9 48.2 25.5 48 26.1 48 26.6 48 26.9 48.1 27.2 48.3 27.4 48.6 27.5 48.9 27.5 49.4L27.5 52.9 26.2 52.9ZM32.4 52.6C32.2 52.7 32 52.8 31.8 52.9 31.5 52.9 31.3 53 31 53 30.2 53 29.6 52.7 29.2 52.3 28.8 51.9 28.6 51.3 28.6 50.5 28.6 49.7 28.8 49.1 29.3 48.7 29.7 48.2 30.3 48 31.1 48 31.5 48 32 48.1 32.3 48.3L32.3 49.2C32 49.1 31.6 49.1 31.3 49.1 30.9 49.1 30.5 49.2 30.3 49.4 30.1 49.6 30 50 30 50.4L30 50.6C30 51 30.1 51.4 30.3 51.6 30.5 51.8 30.9 51.9 31.3 51.9 31.6 51.9 32 51.9 32.4 51.7L32.4 52.6ZM34.4 50.8C34.4 51.2 34.6 51.5 34.8 51.7 35 51.9 35.4 52 35.9 52 36.3 52 36.8 51.9 37.3 51.7L37.3 52.6C37.1 52.7 36.9 52.8 36.5 52.9 36.2 53 35.9 53 35.6 53 34.8 53 34.2 52.8 33.7 52.4 33.3 51.9 33.1 51.3 33.1 50.5 33.1 49.7 33.3 49.1 33.7 48.6 34.2 48.2 34.7 48 35.5 48 36.1 48 36.6 48.2 36.9 48.5 37.3 48.8 37.4 49.3 37.4 49.9 37.4 50.1 37.4 50.2 37.4 50.4 37.4 50.6 37.4 50.7 37.3 50.8L34.4 50.8ZM35.4 48.9C35.1 48.9 34.9 49 34.7 49.2 34.5 49.4 34.4 49.6 34.4 50L36.3 50 36.3 49.8C36.3 49.2 36 48.9 35.4 48.9ZM41.8 52.9L41.7 52.4C41.3 52.8 40.8 53 40.3 53 39.9 53 39.5 52.9 39.2 52.7 38.9 52.5 38.7 52.2 38.5 51.8 38.3 51.4 38.3 51 38.3 50.5 38.3 49.7 38.4 49.1 38.8 48.7 39.2 48.2 39.7 48 40.3 48 40.8 48 41.2 48.1 41.6 48.4L41.6 46 43 46 43 52.9 41.8 52.9ZM40.7 51.9C41 51.9 41.3 51.8 41.6 51.7L41.6 49.2C41.3 49.1 41 49 40.7 49 40.3 49 40.1 49.1 39.9 49.4 39.8 49.6 39.7 50 39.7 50.5 39.7 51 39.8 51.3 39.9 51.6 40.1 51.8 40.4 51.9 40.7 51.9Z" class="c"/><path d="M5 73.4C4.8 73.4 4.7 73.3 4.7 73.1L4.7 60.1 0.3 60.1C0.1 60.1 0 60 0 59.8L0 59.3C0 59.1 0.1 59 0.3 59L10.2 59C10.5 59 10.6 59.1 10.6 59.3L10.6 59.8C10.6 60 10.5 60.1 10.2 60.1L5.9 60.1 5.9 73.1C5.9 73.3 5.8 73.4 5.6 73.4L5 73.4ZM16.8 73.8C15.2 73.8 14 73.3 13.2 72.4 12.4 71.4 12 70 12 68.2 12 66.4 12.4 65.1 13.2 64.1 14 63.1 15.2 62.6 16.7 62.6 17.9 62.6 18.8 63 19.5 63.7 20.1 64.4 20.5 65.5 20.5 66.8 20.5 67.4 20.4 67.8 20.4 68.1 20.4 68.3 20.2 68.4 20 68.4L13.2 68.4C13.2 69.9 13.5 70.9 14.1 71.6 14.7 72.3 15.6 72.7 16.9 72.7 17.9 72.7 18.8 72.5 19.7 72.2 19.9 72.1 20 72 20.1 72 20.1 72 20.2 72.1 20.2 72.1 20.3 72.2 20.3 72.2 20.3 72.3L20.3 72.6C20.3 72.8 20.2 73 20 73 19.1 73.5 18 73.8 16.8 73.8ZM19.3 67.4C19.4 67.2 19.4 67 19.4 66.7 19.4 65.7 19.1 65 18.6 64.5 18.2 64 17.5 63.7 16.6 63.7 14.4 63.7 13.3 64.9 13.2 67.4L19.3 67.4ZM27.3 73.7C25.7 73.7 24.5 73.2 23.7 72.3 22.9 71.4 22.5 70 22.5 68.2 22.5 66.4 22.9 65.1 23.7 64.1 24.6 63.2 25.8 62.7 27.3 62.7 28.1 62.7 28.8 62.8 29.5 63.1 29.6 63.2 29.7 63.3 29.7 63.6L29.7 63.8C29.7 64 29.6 64.1 29.5 64.1 29.4 64.1 29.4 64.1 29.3 64.1 29.3 64.1 29.2 64.1 29 64 28.5 63.9 27.9 63.8 27.4 63.8 26.1 63.8 25.2 64.2 24.6 64.8 24 65.5 23.7 66.6 23.7 68.1L23.7 68.3C23.7 69.8 24 70.8 24.6 71.5 25.2 72.2 26.1 72.6 27.4 72.6 27.9 72.6 28.5 72.5 29.1 72.3 29.3 72.3 29.4 72.2 29.5 72.2 29.5 72.2 29.6 72.2 29.6 72.2 29.8 72.2 29.8 72.3 29.8 72.5L29.8 72.8C29.8 73 29.8 73.1 29.6 73.2 28.9 73.5 28.1 73.7 27.3 73.7ZM32.5 73.4C32.3 73.4 32.2 73.3 32.2 73.1L32.2 58.3C32.2 58.1 32.3 58 32.5 58L33.1 58C33.3 58 33.4 58.1 33.4 58.3L33.4 64.1C34 63.7 34.7 63.3 35.4 63 36.2 62.8 36.9 62.6 37.6 62.6 38.6 62.6 39.3 62.9 39.8 63.4 40.4 64 40.6 64.8 40.6 65.8L40.6 73.1C40.6 73.3 40.5 73.4 40.3 73.4L39.8 73.4C39.6 73.4 39.5 73.3 39.5 73.1L39.5 66.3C39.5 65.4 39.3 64.7 39 64.3 38.6 63.9 38.1 63.7 37.3 63.7 36 63.7 34.7 64.2 33.4 65.1L33.4 73.1C33.4 73.3 33.3 73.4 33.1 73.4L32.5 73.4ZM44.1 73.4C43.9 73.4 43.8 73.3 43.8 73.1L43.8 63.3C43.8 63 43.9 62.9 44.1 62.9L44.5 62.9C44.7 62.9 44.8 63 44.8 63.3L44.9 64.2C45.6 63.7 46.3 63.3 47 63 47.7 62.8 48.4 62.6 49.1 62.6 50.1 62.6 50.9 62.9 51.4 63.4 51.9 64 52.2 64.8 52.2 65.8L52.2 73.1C52.2 73.3 52.1 73.4 51.9 73.4L51.3 73.4C51.1 73.4 51 73.3 51 73.1L51 66.3C51 65.4 50.8 64.7 50.5 64.3 50.2 63.9 49.6 63.7 48.9 63.7 47.5 63.7 46.2 64.2 44.9 65.1L44.9 73.1C44.9 73.3 44.8 73.4 44.6 73.4L44.1 73.4ZM59.5 73.8C58 73.8 56.8 73.3 56 72.3 55.2 71.3 54.8 69.9 54.8 68.2 54.8 66.4 55.2 65.1 56 64.1 56.8 63.1 58 62.6 59.5 62.6 61 62.6 62.1 63.1 63 64.1 63.8 65.1 64.2 66.4 64.2 68.2 64.2 69.9 63.8 71.3 63 72.3 62.1 73.3 61 73.8 59.5 73.8ZM59.5 72.7C61.8 72.7 63 71.2 63 68.2 63 65.2 61.8 63.7 59.5 63.7 57.1 63.7 56 65.2 56 68.2 56 71.2 57.1 72.7 59.5 72.7ZM68.6 73.5C68 73.5 67.6 73.3 67.3 73 67 72.7 66.8 72.2 66.8 71.7L66.8 58.3C66.8 58.1 67 58 67.2 58L67.7 58C67.9 58 68 58.1 68 58.3L68 71.6C68 71.9 68.1 72.2 68.2 72.3 68.3 72.4 68.5 72.5 68.8 72.5 68.9 72.5 69 72.5 69.1 72.4 69.2 72.4 69.3 72.4 69.3 72.4 69.5 72.4 69.6 72.5 69.6 72.7L69.6 73.1C69.6 73.3 69.5 73.4 69.4 73.4 69.1 73.5 68.9 73.5 68.6 73.5ZM76.1 73.8C74.6 73.8 73.5 73.3 72.6 72.3 71.8 71.3 71.4 69.9 71.4 68.2 71.4 66.4 71.8 65.1 72.6 64.1 73.5 63.1 74.6 62.6 76.1 62.6 77.6 62.6 78.8 63.1 79.6 64.1 80.4 65.1 80.8 66.4 80.8 68.2 80.8 69.9 80.4 71.3 79.6 72.3 78.8 73.3 77.6 73.8 76.1 73.8ZM76.1 72.7C78.5 72.7 79.6 71.2 79.6 68.2 79.6 65.2 78.5 63.7 76.1 63.7 73.8 63.7 72.6 65.2 72.6 68.2 72.6 71.2 73.8 72.7 76.1 72.7ZM87.1 78C86.5 78 86 77.9 85.4 77.8 84.9 77.7 84.4 77.5 84 77.3 83.8 77.3 83.8 77.1 83.8 76.9L83.8 76.6C83.8 76.4 83.8 76.3 84 76.3 84 76.3 84.1 76.3 84.1 76.3 84.2 76.4 84.3 76.4 84.4 76.4 85.3 76.8 86.2 76.9 87 76.9 88.3 76.9 89.2 76.6 89.8 76 90.4 75.3 90.7 74.3 90.7 72.9L90.7 71.9C90.2 72.3 89.6 72.7 89 72.9 88.4 73.2 87.8 73.3 87.3 73.3 86 73.3 84.9 72.8 84.1 71.9 83.3 70.9 83 69.7 83 68.1 83 66.4 83.3 65.1 84.1 64.1 84.9 63.1 86 62.6 87.3 62.6 88.6 62.6 89.7 63.1 90.7 64L90.8 63.3C90.8 63 90.9 62.9 91.1 62.9L91.5 62.9C91.7 62.9 91.8 63 91.8 63.3L91.8 73C91.8 74.6 91.4 75.9 90.6 76.7 89.8 77.6 88.6 78 87.1 78ZM87.5 72.2C88.5 72.2 89.6 71.8 90.7 70.9L90.7 65.1C90.1 64.6 89.6 64.3 89.1 64 88.6 63.8 88 63.7 87.4 63.7 86.3 63.7 85.5 64.1 85 64.8 84.4 65.5 84.2 66.6 84.2 68 84.2 69.4 84.4 70.4 85 71.1 85.6 71.9 86.4 72.2 87.5 72.2ZM95.4 78C95 78 94.7 78 94.4 77.9 94.2 77.8 94.1 77.7 94.1 77.4L94.1 77.1C94.1 77 94.2 76.9 94.4 76.9 94.5 76.9 94.5 76.9 94.6 76.9 94.7 76.9 94.8 76.9 94.9 76.9 95 76.9 95.1 76.9 95.3 76.9 95.7 76.9 96.1 76.8 96.4 76.6 96.6 76.3 96.9 75.9 97.1 75.3L97.8 73.6 93.8 63.4C93.8 63.3 93.7 63.2 93.7 63.2 93.7 63 93.8 62.9 94 62.9L94.6 62.9C94.8 62.9 94.9 63 95 63.2L98.4 72.2 101.8 63.2C101.9 63 102 62.9 102.1 62.9L102.8 62.9C102.9 62.9 103 63 103 63.2 103 63.2 103 63.3 102.9 63.4L98.1 75.7C97.8 76.5 97.4 77.1 97 77.5 96.6 77.8 96 78 95.4 78Z" class="c"/><path d="M2.3 94.7C2.1 94.7 2 94.6 2 94.4L2 80.3C2 80.1 2.1 80 2.3 80L6.9 80C8.2 80 9.2 80.4 10 81.2 10.8 82 11.1 83 11.1 84.4 11.1 85.7 10.8 86.7 10 87.5 9.2 88.3 8.2 88.7 6.9 88.7L3.2 88.7 3.2 94.4C3.2 94.6 3.1 94.7 2.9 94.7L2.3 94.7ZM6.8 87.6C8.9 87.6 9.9 86.5 9.9 84.4 9.9 82.2 8.9 81.1 6.8 81.1L3.2 81.1 3.2 87.6 6.8 87.6ZM16.1 94.9C15.2 94.9 14.5 94.6 13.9 94.1 13.3 93.5 13.1 92.8 13.1 91.8 13.1 90.8 13.4 90 14.1 89.4 14.8 88.8 15.7 88.5 16.9 88.5 17.8 88.5 18.8 88.7 19.8 89L19.8 87.2C19.8 86.4 19.6 85.7 19.2 85.4 18.8 85 18.2 84.8 17.2 84.8 16.3 84.8 15.3 85 14.3 85.3 14.1 85.4 14 85.4 14 85.4 13.8 85.4 13.7 85.3 13.7 85.1L13.7 84.8C13.7 84.7 13.8 84.6 13.8 84.5 13.9 84.5 13.9 84.4 14 84.4 15.1 83.9 16.2 83.7 17.4 83.7 18.6 83.7 19.5 84 20.1 84.5 20.7 85 21 85.8 21 86.9L21 94.4C21 94.6 20.9 94.7 20.7 94.7L20.2 94.7C20 94.7 19.9 94.6 19.9 94.4L19.8 93.5C18.7 94.4 17.4 94.9 16.1 94.9ZM16.3 93.8C16.8 93.8 17.4 93.7 18 93.5 18.6 93.3 19.2 93 19.8 92.6L19.8 89.9C18.9 89.7 18 89.5 17.1 89.5 15.2 89.5 14.3 90.3 14.3 91.8 14.3 92.5 14.5 93 14.8 93.3 15.1 93.6 15.6 93.8 16.3 93.8ZM24.4 94.7C24.2 94.7 24.1 94.6 24.1 94.4L24.1 84.3C24.1 84.1 24.2 84 24.4 84L24.8 84C25 84 25.2 84.1 25.2 84.3L25.3 85.6C25.8 85 26.3 84.6 26.8 84.3 27.3 84.1 27.9 83.9 28.5 83.9 28.7 83.9 28.9 83.9 29 84 29.2 84 29.3 84.1 29.3 84.3L29.3 84.8C29.3 84.9 29.3 84.9 29.3 85 29.2 85 29.2 85.1 29.1 85.1 29 85.1 28.9 85.1 28.8 85.1 28.7 85 28.6 85 28.4 85 27.7 85 27.2 85.2 26.7 85.4 26.2 85.6 25.7 86 25.3 86.6L25.3 94.4C25.3 94.6 25.2 94.7 25 94.7L24.4 94.7ZM34.3 94.8C33.5 94.8 32.9 94.6 32.5 94.1 32.1 93.7 31.9 93.1 31.9 92.2L31.9 85.1 30.2 85.1C30 85.1 29.9 85 29.9 84.8L29.9 84.6C29.9 84.4 30 84.4 30 84.3 30 84.2 30.1 84.2 30.2 84.2L31.9 84 32 81.3C32.1 81.1 32.1 81.1 32.1 81 32.2 81 32.3 80.9 32.4 80.9L32.7 80.9C32.9 80.9 33 81 33 81.3L33 84 36 84C36.2 84 36.3 84.1 36.3 84.3L36.3 84.8C36.3 85 36.2 85.1 36 85.1L33 85.1 33 92.1C33 92.7 33.1 93.1 33.4 93.4 33.6 93.6 34 93.7 34.6 93.7 35 93.7 35.3 93.7 35.6 93.6 35.8 93.6 35.9 93.6 36 93.6 36.1 93.5 36.1 93.5 36.2 93.5 36.3 93.5 36.4 93.6 36.4 93.8L36.4 94.1C36.4 94.3 36.3 94.5 36.2 94.5 35.6 94.7 35 94.8 34.3 94.8ZM38.9 94.7C38.7 94.7 38.6 94.6 38.6 94.4L38.6 84.3C38.6 84.1 38.7 84 38.9 84L39.3 84C39.5 84 39.6 84.1 39.6 84.3L39.7 85.3C40.4 84.8 41.1 84.4 41.8 84.1 42.6 83.8 43.3 83.7 44 83.7 45 83.7 45.7 84 46.3 84.5 46.8 85.1 47 85.9 47 86.9L47 94.4C47 94.6 46.9 94.7 46.7 94.7L46.2 94.7C46 94.7 45.9 94.6 45.9 94.4L45.9 87.4C45.9 86.5 45.7 85.9 45.4 85.4 45 85 44.5 84.8 43.7 84.8 42.4 84.8 41 85.3 39.7 86.2L39.7 94.4C39.7 94.6 39.6 94.7 39.4 94.7L38.9 94.7ZM54.6 95C52.9 95 51.7 94.5 50.9 93.6 50.1 92.6 49.7 91.2 49.7 89.3 49.7 87.5 50.1 86.2 50.9 85.2 51.7 84.2 52.9 83.7 54.4 83.7 55.6 83.7 56.6 84.1 57.2 84.8 57.9 85.5 58.2 86.6 58.2 88 58.2 88.5 58.2 89 58.1 89.2 58.1 89.5 58 89.6 57.8 89.6L50.9 89.6C50.9 91 51.2 92.1 51.8 92.8 52.4 93.5 53.4 93.9 54.6 93.9 55.6 93.9 56.6 93.7 57.4 93.4 57.6 93.3 57.7 93.3 57.8 93.3 57.9 93.3 57.9 93.3 58 93.3 58 93.4 58 93.4 58 93.5L58 93.8C58 94.1 57.9 94.2 57.8 94.3 56.8 94.8 55.7 95 54.6 95ZM57.1 88.6C57.1 88.4 57.1 88.2 57.1 87.9 57.1 86.9 56.9 86.1 56.4 85.6 55.9 85.1 55.2 84.8 54.3 84.8 52.1 84.8 51 86.1 50.9 88.6L57.1 88.6ZM61.1 94.7C60.9 94.7 60.8 94.6 60.8 94.4L60.8 84.3C60.8 84.1 60.9 84 61.1 84L61.5 84C61.7 84 61.8 84.1 61.8 84.3L61.9 85.6C62.5 85 63 84.6 63.5 84.3 64 84.1 64.5 83.9 65.2 83.9 65.4 83.9 65.6 83.9 65.7 84 65.9 84 66 84.1 66 84.3L66 84.8C66 84.9 66 84.9 65.9 85 65.9 85 65.8 85.1 65.8 85.1 65.7 85.1 65.6 85.1 65.5 85.1 65.4 85 65.2 85 65 85 64.4 85 63.9 85.2 63.4 85.4 62.9 85.6 62.4 86 62 86.6L62 94.4C62 94.6 61.9 94.7 61.7 94.7L61.1 94.7Z" class="c"/><path d="M3.1 128C2.4 128 1.8 127.9 1.2 127.7 1.1 127.6 1 127.6 1 127.5L1 127.3C1 127.2 1.1 127.1 1.2 127.1 1.2 127.1 1.3 127.2 1.4 127.2 2 127.4 2.5 127.5 3.1 127.5 3.7 127.5 4.2 127.3 4.5 127.1 4.9 126.8 5 126.5 5 126.1 5 125.8 4.9 125.6 4.7 125.4 4.6 125.2 4.2 125 3.8 124.9L2.6 124.5C2 124.3 1.6 124 1.4 123.8 1.1 123.5 1 123.2 1 122.8 1 122.3 1.2 121.8 1.6 121.5 2.1 121.2 2.6 121 3.3 121 3.9 121 4.5 121.1 5.1 121.3 5.2 121.4 5.3 121.4 5.3 121.5L5.3 121.7C5.3 121.8 5.2 121.8 5.1 121.8 5.1 121.8 4.9 121.8 4.6 121.7 4.4 121.7 4.2 121.6 4 121.6 3.7 121.5 3.5 121.5 3.3 121.5 2.8 121.5 2.4 121.6 2.1 121.9 1.8 122.1 1.6 122.4 1.6 122.8 1.6 123 1.7 123.2 1.7 123.3 1.8 123.4 2 123.6 2.2 123.7 2.4 123.8 2.7 123.9 3.1 124.1L4.2 124.4C4.7 124.6 5.1 124.8 5.3 125.1 5.6 125.4 5.7 125.7 5.7 126.1 5.7 126.7 5.5 127.1 5 127.5 4.5 127.8 3.9 128 3.1 128ZM8.3 127.9C7.9 127.9 7.5 127.8 7.2 127.6 6.9 127.3 6.7 127 6.7 126.5 6.7 126.1 6.9 125.7 7.3 125.4 7.6 125.2 8.1 125 8.7 125 9.2 125 9.7 125.1 10.2 125.3L10.2 124.4C10.2 124.1 10.1 123.8 9.9 123.6 9.7 123.4 9.4 123.3 8.9 123.3 8.4 123.3 7.9 123.4 7.4 123.6 7.3 123.6 7.2 123.6 7.2 123.6 7.1 123.6 7.1 123.6 7.1 123.5L7.1 123.3C7.1 123.3 7.1 123.3 7.1 123.2 7.2 123.2 7.2 123.2 7.2 123.1 7.8 123 8.4 122.9 9 122.9 9.6 122.9 10.1 123 10.4 123.2 10.7 123.4 10.9 123.8 10.9 124.3L10.9 127.7C10.9 127.8 10.8 127.8 10.7 127.8L10.5 127.8C10.4 127.8 10.3 127.8 10.3 127.7L10.3 127.3C9.6 127.7 9 127.9 8.3 127.9ZM8.4 127.4C8.7 127.4 9 127.4 9.3 127.3 9.6 127.2 9.9 127.1 10.2 126.9L10.2 125.7C9.8 125.6 9.3 125.5 8.9 125.5 7.9 125.5 7.4 125.8 7.4 126.5 7.4 126.8 7.5 127.1 7.6 127.2 7.8 127.4 8.1 127.4 8.4 127.4ZM13.8 127.9C13.3 127.9 12.9 127.8 12.6 127.6 12.3 127.3 12.2 127 12.2 126.5 12.2 126.1 12.3 125.7 12.7 125.4 13 125.2 13.5 125 14.1 125 14.6 125 15.1 125.1 15.7 125.3L15.7 124.4C15.7 124.1 15.6 123.8 15.3 123.6 15.1 123.4 14.8 123.3 14.3 123.3 13.8 123.3 13.3 123.4 12.8 123.6 12.7 123.6 12.7 123.6 12.6 123.6 12.5 123.6 12.5 123.6 12.5 123.5L12.5 123.3C12.5 123.3 12.5 123.3 12.5 123.2 12.6 123.2 12.6 123.2 12.6 123.1 13.2 123 13.8 122.9 14.4 122.9 15 122.9 15.5 123 15.8 123.2 16.1 123.4 16.3 123.8 16.3 124.3L16.3 127.7C16.3 127.8 16.2 127.8 16.1 127.8L15.9 127.8C15.8 127.8 15.7 127.8 15.7 127.7L15.7 127.3C15.1 127.7 14.4 127.9 13.8 127.9ZM13.8 127.4C14.1 127.4 14.4 127.4 14.7 127.3 15 127.2 15.3 127.1 15.7 126.9L15.7 125.7C15.2 125.6 14.7 125.5 14.3 125.5 13.3 125.5 12.8 125.8 12.8 126.5 12.8 126.8 12.9 127.1 13 127.2 13.2 127.4 13.5 127.4 13.8 127.4ZM19.9 128C19.2 128 18.5 127.9 17.9 127.7 17.8 127.6 17.8 127.6 17.8 127.5L17.8 127.3C17.8 127.2 17.8 127.1 17.9 127.1 17.9 127.1 18 127.2 18.2 127.2 18.7 127.4 19.2 127.5 19.8 127.5 20.4 127.5 20.9 127.3 21.2 127.1 21.6 126.8 21.8 126.5 21.8 126.1 21.8 125.8 21.7 125.6 21.5 125.4 21.3 125.2 21 125 20.6 124.9L19.3 124.5C18.8 124.3 18.4 124 18.1 123.8 17.9 123.5 17.7 123.2 17.7 122.8 17.7 122.3 17.9 121.8 18.4 121.5 18.8 121.2 19.3 121 20 121 20.6 121 21.2 121.1 21.8 121.3 21.9 121.4 22 121.4 22 121.5L22 121.7C22 121.8 21.9 121.8 21.9 121.8 21.8 121.8 21.7 121.8 21.4 121.7 21.2 121.7 21 121.6 20.7 121.6 20.5 121.5 20.3 121.5 20.1 121.5 19.5 121.5 19.1 121.6 18.8 121.9 18.5 122.1 18.4 122.4 18.4 122.8 18.4 123 18.4 123.2 18.5 123.3 18.6 123.4 18.7 123.6 18.9 123.7 19.1 123.8 19.4 123.9 19.8 124.1L20.9 124.4C21.5 124.6 21.8 124.8 22.1 125.1 22.3 125.4 22.4 125.7 22.4 126.1 22.4 126.7 22.2 127.1 21.7 127.5 21.3 127.8 20.6 128 19.9 128ZM26.9 127.8C26.8 127.8 26.7 127.8 26.7 127.7L26.7 121.3C26.7 121.2 26.8 121.2 26.9 121.2L29.3 121.2C29.9 121.2 30.5 121.3 30.9 121.7 31.3 122.1 31.5 122.5 31.5 123.1 31.5 123.7 31.3 124.2 30.9 124.6 30.5 124.9 29.9 125.1 29.3 125.1L27.3 125.1 27.3 127.7C27.3 127.8 27.3 127.8 27.2 127.8L26.9 127.8ZM29.2 124.6C30.3 124.6 30.8 124.1 30.8 123.1 30.8 122.2 30.3 121.7 29.2 121.7L27.3 121.7 27.3 124.6 29.2 124.6ZM34.1 127.9C33.6 127.9 33.2 127.8 32.9 127.6 32.6 127.3 32.5 127 32.5 126.5 32.5 126.1 32.7 125.7 33 125.4 33.4 125.2 33.8 125 34.5 125 34.9 125 35.4 125.1 36 125.3L36 124.4C36 124.1 35.9 123.8 35.7 123.6 35.5 123.4 35.1 123.3 34.6 123.3 34.2 123.3 33.6 123.4 33.1 123.6 33 123.6 33 123.6 32.9 123.6 32.9 123.6 32.8 123.6 32.8 123.5L32.8 123.3C32.8 123.3 32.8 123.3 32.9 123.2 32.9 123.2 32.9 123.2 33 123.1 33.5 123 34.1 122.9 34.7 122.9 35.4 122.9 35.8 123 36.1 123.2 36.4 123.4 36.6 123.8 36.6 124.3L36.6 127.7C36.6 127.8 36.5 127.8 36.4 127.8L36.2 127.8C36.1 127.8 36 127.8 36 127.7L36 127.3C35.4 127.7 34.7 127.9 34.1 127.9ZM34.2 127.4C34.4 127.4 34.7 127.4 35 127.3 35.3 127.2 35.7 127.1 36 126.9L36 125.7C35.5 125.6 35 125.5 34.6 125.5 33.6 125.5 33.1 125.8 33.1 126.5 33.1 126.8 33.2 127.1 33.4 127.2 33.5 127.4 33.8 127.4 34.2 127.4ZM38.4 127.8C38.3 127.8 38.2 127.8 38.2 127.7L38.2 123.1C38.2 123 38.3 123 38.4 123L38.6 123C38.7 123 38.8 123 38.8 123.1L38.8 123.7C39.1 123.4 39.4 123.2 39.6 123.1 39.9 123 40.2 123 40.5 123 40.6 123 40.7 123 40.8 123 40.9 123 40.9 123 40.9 123.1L40.9 123.4C40.9 123.4 40.9 123.4 40.9 123.4 40.9 123.5 40.8 123.5 40.8 123.5 40.8 123.5 40.7 123.5 40.6 123.5 40.6 123.5 40.5 123.5 40.4 123.5 40.1 123.5 39.8 123.5 39.6 123.6 39.3 123.7 39.1 123.9 38.8 124.2L38.8 127.7C38.8 127.8 38.8 127.8 38.7 127.8L38.4 127.8ZM43.5 127.9C43.1 127.9 42.8 127.8 42.6 127.6 42.4 127.4 42.2 127.1 42.2 126.7L42.2 123.5 41.4 123.5C41.3 123.5 41.2 123.4 41.2 123.3L41.2 123.2C41.2 123.2 41.3 123.1 41.3 123.1 41.3 123.1 41.3 123.1 41.4 123.1L42.3 123 42.3 121.7C42.3 121.7 42.4 121.6 42.4 121.6 42.4 121.6 42.4 121.6 42.5 121.6L42.7 121.6C42.8 121.6 42.9 121.6 42.9 121.7L42.9 123 44.4 123C44.5 123 44.6 123 44.6 123.1L44.6 123.3C44.6 123.4 44.5 123.5 44.4 123.5L42.9 123.5 42.9 126.7C42.9 126.9 42.9 127.1 43 127.2 43.2 127.3 43.4 127.4 43.7 127.4 43.9 127.4 44 127.4 44.2 127.4 44.3 127.3 44.3 127.3 44.4 127.3 44.4 127.3 44.5 127.3 44.5 127.3 44.6 127.3 44.6 127.3 44.6 127.4L44.6 127.6C44.6 127.7 44.6 127.7 44.5 127.8 44.2 127.9 43.9 127.9 43.5 127.9ZM45.9 127.8C45.8 127.8 45.7 127.8 45.7 127.7L45.7 123.1C45.7 123 45.8 123 45.9 123L46.1 123C46.2 123 46.3 123 46.3 123.1L46.3 123.6C46.7 123.3 47 123.2 47.4 123 47.8 122.9 48.2 122.9 48.5 122.9 49.1 122.9 49.5 123 49.7 123.2 50 123.5 50.1 123.8 50.1 124.3L50.1 127.7C50.1 127.8 50.1 127.8 50 127.8L49.7 127.8C49.6 127.8 49.5 127.8 49.5 127.7L49.5 124.5C49.5 124.1 49.4 123.8 49.3 123.6 49.1 123.4 48.8 123.3 48.4 123.3 47.7 123.3 47 123.6 46.3 124L46.3 127.7C46.3 127.8 46.3 127.8 46.2 127.8L45.9 127.8ZM54 128C53.2 128 52.6 127.8 52.1 127.3 51.7 126.9 51.5 126.3 51.5 125.4 51.5 124.6 51.7 124 52.2 123.5 52.6 123.1 53.2 122.9 54 122.9 54.6 122.9 55.1 123 55.4 123.4 55.8 123.7 56 124.2 56 124.8 56 125 55.9 125.2 55.9 125.4 55.9 125.5 55.8 125.5 55.7 125.5L52.1 125.5C52.1 126.2 52.3 126.7 52.6 127 52.9 127.3 53.4 127.5 54.1 127.5 54.6 127.5 55.1 127.4 55.5 127.2 55.6 127.2 55.7 127.2 55.7 127.2 55.8 127.2 55.8 127.2 55.8 127.2 55.8 127.2 55.8 127.3 55.8 127.3L55.8 127.5C55.8 127.6 55.8 127.6 55.7 127.7 55.2 127.9 54.7 128 54 128ZM55.4 125.1C55.4 125 55.4 124.9 55.4 124.7 55.4 124.3 55.2 123.9 55 123.7 54.7 123.5 54.4 123.3 53.9 123.3 52.8 123.3 52.2 123.9 52.1 125.1L55.4 125.1ZM57.5 127.8C57.3 127.8 57.3 127.8 57.3 127.7L57.3 123.1C57.3 123 57.3 123 57.5 123L57.7 123C57.8 123 57.8 123 57.8 123.1L57.9 123.7C58.2 123.4 58.4 123.2 58.7 123.1 58.9 123 59.2 123 59.6 123 59.7 123 59.8 123 59.8 123 59.9 123 60 123 60 123.1L60 123.4C60 123.4 60 123.4 60 123.4 59.9 123.5 59.9 123.5 59.9 123.5 59.8 123.5 59.8 123.5 59.7 123.5 59.7 123.5 59.6 123.5 59.5 123.5 59.2 123.5 58.9 123.5 58.6 123.6 58.4 123.7 58.1 123.9 57.9 124.2L57.9 127.7C57.9 127.8 57.8 127.8 57.7 127.8L57.5 127.8Z" class="c"/></g></svg>
