<svg xmlns="http://www.w3.org/2000/svg" viewBox="0 0 1062.1 480"><style type="text/css">
	.st0{fill:#252F3E;}
	.st1{fill:#FF9900;}
	.st2{fill:#5A5B5E;}
</style><title>  aws-1</title><path class="st0" d="M232.1 174.8c0 5 0.5 9.1 1.5 12 1.1 3 2.4 6.2 4.3 9.7 0.7 1.1 0.9 2.2 0.9 3.1 0 1.4-0.8 2.7-2.6 4.1l-8.5 5.7c-1.2 0.8-2.4 1.2-3.5 1.2 -1.4 0-2.7-0.7-4.1-1.9 -1.9-2-3.5-4.2-4.9-6.4 -1.4-2.3-2.7-4.9-4.2-8 -10.6 12.5-23.8 18.7-39.8 18.7 -11.4 0-20.4-3.2-27.1-9.7s-10-15.2-10-26c0-11.5 4.1-20.8 12.3-27.9s19.2-10.6 33.2-10.6c4.6 0 9.3 0.4 14.3 1.1 5 0.7 10.2 1.8 15.6 3v-9.9c0-10.3-2.2-17.5-6.4-21.7 -4.3-4.2-11.6-6.2-22.1-6.2 -4.7 0-9.6 0.5-14.6 1.8 -5 1.2-9.9 2.7-14.6 4.6 -2.2 0.9-3.8 1.5-4.7 1.8 -0.9 0.3-1.6 0.4-2.2 0.4 -1.9 0-2.8-1.4-2.8-4.2v-6.6c0-2.2 0.3-3.8 0.9-4.7 0.7-0.9 1.9-1.9 3.8-2.8 4.7-2.4 10.4-4.5 17.1-6.1 6.6-1.8 13.7-2.6 21.1-2.6 16.1 0 27.9 3.7 35.5 11 7.4 7.3 11.2 18.4 11.2 33.3v43.9H232.1zM177.2 195.4c4.5 0 9.1-0.8 13.9-2.4 4.9-1.6 9.2-4.6 12.9-8.7 2.2-2.6 3.8-5.4 4.6-8.7 0.8-3.2 1.4-7.2 1.4-11.8v-5.7c-3.9-0.9-8.1-1.8-12.5-2.3 -4.3-0.5-8.5-0.8-12.7-0.8 -9.1 0-15.7 1.8-20.2 5.4 -4.5 3.7-6.6 8.8-6.6 15.6 0 6.4 1.6 11.1 5 14.3C166.2 193.8 171 195.4 177.2 195.4zM285.9 210c-2.4 0-4.1-0.4-5.1-1.4 -1.1-0.8-2-2.7-2.8-5.3L246.1 98.7c-0.8-2.7-1.2-4.5-1.2-5.4 0-2.2 1.1-3.4 3.2-3.4h13.3c2.6 0 4.3 0.4 5.3 1.4 1.1 0.8 1.9 2.7 2.7 5.3l22.7 89.6 21.1-89.6c0.7-2.7 1.5-4.5 2.6-5.3 1.1-0.8 3-1.4 5.4-1.4H332c2.6 0 4.3 0.4 5.4 1.4 1.1 0.8 2 2.7 2.6 5.3l21.4 90.7 23.4-90.7c0.8-2.7 1.8-4.5 2.7-5.3 1.1-0.8 2.8-1.4 5.3-1.4h12.6c2.2 0 3.4 1.1 3.4 3.4 0 0.7-0.1 1.4-0.3 2.2 -0.1 0.8-0.4 1.9-0.9 3.4l-32.6 104.6c-0.8 2.7-1.8 4.5-2.8 5.3 -1.1 0.8-2.8 1.4-5.1 1.4h-11.6c-2.6 0-4.3-0.4-5.4-1.4 -1.1-0.9-2-2.7-2.6-5.4l-21-87.3 -20.8 87.2c-0.7 2.7-1.5 4.5-2.6 5.4 -1.1 0.9-3 1.4-5.4 1.4H285.9zM459.8 213.7c-7 0-14.1-0.8-20.8-2.4 -6.8-1.6-12-3.4-15.6-5.4 -2.2-1.2-3.7-2.6-4.2-3.8 -0.5-1.2-0.8-2.6-0.8-3.8v-6.9c0-2.8 1.1-4.2 3.1-4.2 0.8 0 1.6 0.1 2.4 0.4s2 0.8 3.4 1.4c4.6 2 9.6 3.7 14.9 4.7 5.4 1.1 10.7 1.6 16.1 1.6 8.5 0 15.2-1.5 19.8-4.5 4.6-3 7-7.3 7-12.9 0-3.8-1.2-6.9-3.7-9.5 -2.4-2.6-7-4.9-13.7-7l-19.6-6.1c-9.9-3.1-17.2-7.7-21.7-13.8 -4.5-6-6.8-12.6-6.8-19.6 0-5.7 1.2-10.7 3.7-15 2.4-4.3 5.7-8.1 9.7-11.1 4.1-3.1 8.7-5.4 14.1-7s11.1-2.3 17.1-2.3c3 0 6.1 0.1 9.1 0.5 3.1 0.4 6 0.9 8.8 1.5 2.7 0.7 5.3 1.4 7.7 2.2 2.4 0.8 4.3 1.6 5.7 2.4 1.9 1.1 3.2 2.2 4.1 3.4 0.8 1.1 1.2 2.6 1.2 4.5v6.4c0 2.8-1.1 4.3-3.1 4.3 -1.1 0-2.8-0.5-5.1-1.6 -7.7-3.5-16.4-5.3-26-5.3 -7.7 0-13.8 1.2-18 3.8s-6.4 6.5-6.4 12c0 3.8 1.4 7 4.1 9.6 2.7 2.6 7.7 5.1 14.9 7.4l19.2 6.1c9.7 3.1 16.8 7.4 21 13s6.2 11.9 6.2 18.9c0 5.8-1.2 11.1-3.5 15.7 -2.4 4.6-5.7 8.7-9.9 11.9 -4.2 3.4-9.2 5.8-15 7.6C473.1 212.7 466.7 213.7 459.8 213.7z"/><path class="st1" d="M485.4 279.4c-44.5 32.9-109.2 50.4-164.9 50.4 -78 0-148.2-28.8-201.3-76.7 -4.2-3.8-0.4-8.9 4.6-6 57.4 33.3 128.2 53.5 201.4 53.5 49.4 0 103.7-10.3 153.6-31.4C486.3 265.8 492.7 274 485.4 279.4z"/><path class="st1" d="M503.9 258.3c-5.7-7.3-37.6-3.5-52.1-1.8 -4.3 0.5-5-3.2-1.1-6.1 25.4-17.9 67.3-12.7 72.1-6.8 4.9 6.1-1.4 47.9-25.2 67.9 -3.7 3.1-7.2 1.5-5.5-2.6C497.6 295.7 509.6 265.5 503.9 258.3z"/><path class="st0" d="M642.2 243.5c-0.7 0-1.4-0.4-1.4-1.4v-41.2c0-0.7 0.4-1.4 1.4-1.4h1.8c1.1 0 1.4 0.4 1.4 1.4l0.4 3.6c2.8-2.2 5.6-3.6 8.8-4.7 3.2-1.1 6-1.8 8.8-1.8 4.2 0 7.4 1.1 9.5 3.3 2.1 2.2 3.2 5.4 3.2 10.1v30.7c0 0.7-0.4 1.4-1.4 1.4h-2.5c-0.7 0-1.4-0.4-1.4-1.4v-28.5c0-4-0.7-6.5-2.1-8.3 -1.4-1.8-3.9-2.5-6.7-2.5 -5.6 0-11.3 1.8-16.6 5.8v34c0 0.7-0.4 1.4-1.4 1.4h-1.8V243.5z"/><path class="st0" d="M707.9 245c-6.7 0-12-1.8-15.2-5.8 -3.5-4-5.3-9.8-5.3-17.7 0-7.2 1.8-13 5.3-17 3.5-4 8.5-6.1 14.5-6.1 5.3 0 9.2 1.4 12 4.7 2.8 2.9 4.2 7.2 4.2 13 0 2.2 0 4-0.4 5.4 0 0.7-0.7 1.4-1.4 1.4h-28.9c0 6.1 1.4 10.8 3.9 13.7 2.5 2.9 6.7 4.3 12 4.3 4.2 0 8.1-0.7 11.6-2.2 0.7-0.4 1.4-0.4 1.4-0.4 0.4 0 0.4 0 0.7 0.4 0 0.4 0.4 0.4 0.4 0.7v1.4c0 1.1-0.4 1.4-1.1 1.8C717.4 243.9 712.8 245 707.9 245L707.9 245zM718.4 218.2c0-0.7 0-1.8 0-2.9 0-4.3-1.1-7.2-2.8-9.4 -2.1-2.2-4.9-3.3-8.8-3.3 -9.2 0-13.8 5.1-14.5 15.5H718.4L718.4 218.2z"/><path class="st0" d="M747.4 244.3c-3.5 0-6-1.1-7.8-2.9 -1.8-1.8-2.8-4.3-2.8-8v-29.6h-6.7c-0.7 0-1.4-0.4-1.4-1.4v-0.7c0-0.4 0-0.7 0.4-1.1 0-0.4 0.4-0.4 1.1-0.4l7.1-0.7 0.7-11.6c0-0.4 0.4-0.7 0.4-1.1 0.4-0.4 0.4-0.4 1.1-0.4h1.4c0.7 0 1.4 0.4 1.4 1.4v11.6h12.3c0.7 0 1.4 0.4 1.4 1.4v1.8c0 0.7-0.4 1.4-1.4 1.4h-12.3v29.3c0 2.5 0.4 4 1.4 5.1 1.1 1.1 2.8 1.4 4.9 1.4 1.8 0 3.2 0 4.2-0.4 0.7 0 1.1-0.4 1.4-0.4 0.4 0 0.7 0 0.7 0 0.7 0 1.1 0.4 1.1 1.1v1.4c0 1.1-0.4 1.4-1.1 1.8C752.6 243.9 750.2 244.3 747.4 244.3L747.4 244.3z"/><path class="st0" d="M775.2 243.5c-0.7 0-1.4-0.4-1.8-1.1l-13.4-40.8c-0.4-0.7-0.4-1.1-0.4-1.4s0.4-0.7 1.1-0.7h2.8c0.7 0 1.1 0.4 1.4 1.1l11.6 37.2 10.2-37.2c0.4-0.7 0.7-1.1 1.8-1.1h3.2c0.7 0 1.4 0.4 1.8 1.1l10.2 37.2 12-37.6c0.4-0.7 0.7-1.1 1.4-1.1h2.5c0.7 0 1.1 0.4 1.1 0.7 0 0.4 0 0.7-0.4 1.4l-14.1 40.8c-0.4 0.7-0.7 1.1-1.8 1.1h-2.8c-0.7 0-1.4-0.4-1.8-1.1l-10.2-37.2 -10.2 37.2c-0.4 0.7-0.7 1.1-1.8 1.1h-2.5V243.5z"/><path class="st0" d="M846.1 245c-6.3 0-11.3-2.2-14.8-6.1 -3.5-4-5.3-9.8-5.3-17.3 0-7.2 1.8-13 5.3-17.3 3.5-4 8.5-6.1 14.8-6.1 6.3 0 11.3 2.2 14.8 6.1 3.5 4 5.3 9.8 5.3 17.3 0 7.2-1.8 13-5.3 17.3C857.4 242.8 852.5 245 846.1 245L846.1 245zM846.1 240.3c9.9 0 14.8-6.1 14.8-18.8 0-12.6-4.9-18.8-14.8-18.8s-14.8 6.1-14.8 18.8C831.3 234.1 836.2 240.3 846.1 240.3L846.1 240.3z"/><path class="st0" d="M878.6 243.5c-0.7 0-1.4-0.4-1.4-1.4v-41.2c0-0.7 0.4-1.4 1.4-1.4h1.8c1.1 0 1.4 0.4 1.4 1.4l0.4 5.1c2.1-2.5 4.2-4.3 6.3-5.1 2.1-1.1 4.6-1.4 7.1-1.4 1.1 0 1.8 0 2.1 0 0.7 0 1.4 0.4 1.4 1.4v2.2c0 0.4 0 0.4-0.4 0.7 -0.4 0.4-0.4 0.4-0.7 0.4s-1.1 0-1.4 0c-0.4 0-1.1 0-1.8 0 -2.5 0-4.9 0.4-7.1 1.4 -2.1 1.1-3.9 2.5-6 4.7v32.2c0 0.7-0.4 1.4-1.4 1.4h-1.8V243.5z"/><path class="st0" d="M642.2 164.4c-0.7 0-1.4-0.4-1.4-1.4v-59.6c0-0.7 0.4-1.4 1.4-1.4h1.8c1.1 0 1.4 0.4 1.4 1.4l0.4 3.6c2.5-2.2 5.3-3.6 7.8-4.7 2.5-1.1 4.9-1.4 7.8-1.4 5.6 0 9.9 2.2 13.1 6.1 3.2 4 4.9 9.8 4.9 16.6 0 7.2-1.8 13-4.9 17.3 -3.5 4.3-7.8 6.5-13.8 6.5 -5.3 0-9.9-2.2-14.5-6.1V163c0 0.7-0.4 1.4-1.4 1.4H642.2L642.2 164.4zM659.9 142.7c4.6 0 8.1-1.4 10.6-4.7 2.5-3.3 3.5-8 3.5-14.1 0-12.3-4.6-18.4-13.8-18.4 -4.6 0-9.5 1.8-14.1 5.8v25.7c2.5 2.2 4.6 3.6 6.7 4.7C654.9 142 657.4 142.7 659.9 142.7L659.9 142.7z"/><path class="st0" d="M700.1 147.1c-3.9 0-7.1-1.1-9.5-3.6 -2.5-2.2-3.5-5.4-3.5-9.4 0-4.3 1.4-7.6 4.2-10.1 2.8-2.5 6.7-3.6 11.6-3.6 3.9 0 7.8 0.7 12.3 2.2v-7.2c0-3.6-0.7-6.1-2.5-7.6 -1.8-1.4-4.2-2.2-8.1-2.2 -3.9 0-8.1 0.7-12.3 2.2 -0.4 0-1.1 0.4-1.4 0.4 -0.7 0-0.7-0.4-0.7-1.1v-1.8c0-0.4 0-0.7 0.4-1.1 0.4-0.4 0.4-0.4 0.7-0.7 4.6-1.8 9.2-2.9 14.5-2.9 4.9 0 8.8 1.1 11.3 3.3 2.5 2.2 3.5 5.4 3.5 9.8v31.1c0 0.7-0.4 1.4-1.4 1.4h-1.8c-0.7 0-1.4-0.4-1.4-1.4l-0.4-3.6C710.7 145.2 705.4 147.1 700.1 147.1L700.1 147.1zM700.8 142.7c2.1 0 4.6-0.4 7.1-1.4 2.5-1.1 4.9-2.2 7.8-4v-10.8c-3.9-1.1-7.4-1.4-11.3-1.4 -8.1 0-12 3.3-12 9.4 0 2.5 0.7 4.7 2.1 6.1C695.9 142 698 142.7 700.8 142.7L700.8 142.7z"/><path class="st0" d="M735 146.3c-0.7 0-1.4-0.4-1.4-1.4v-41.6c0-0.7 0.4-1.4 1.4-1.4h1.8c1.1 0 1.4 0.4 1.4 1.4l0.4 5.1c2.1-2.5 4.2-4.3 6.3-5.1 2.1-1.1 4.6-1.4 7.1-1.4 1.1 0 1.8 0 2.1 0 0.7 0 1.4 0.4 1.4 1.4v2.2c0 0.4 0 0.4-0.4 0.7 0 0.4-0.4 0.4-0.7 0.4 -0.4 0-1.1 0-1.4 0 -0.4 0-1.1 0-1.8 0 -2.5 0-4.9 0.4-7.1 1.4 -2.1 1.1-3.9 2.5-6 4.7v32.2c0 0.7-0.4 1.4-1.4 1.4L735 146.3 735 146.3z"/><path class="st0" d="M778 146.7c-3.5 0-6-1.1-7.8-2.9 -1.8-1.8-2.8-4.3-2.8-8v-29.3h-6.7c-0.7 0-1.4-0.4-1.4-1.4v-0.7c0-0.4 0-0.7 0.4-1.1 0-0.4 0.4-0.4 1.1-0.4l7.1-0.7 0.7-11.6c0-0.4 0.4-0.7 0.4-1.1 0.4-0.4 0.4-0.4 1.1-0.4h1.4c0.7 0 1.4 0.4 1.4 1.4v11.6h12.3c0.7 0 1.4 0.4 1.4 1.4v1.8c0 0.7-0.4 1.4-1.4 1.4h-12.3v29.3c0 2.5 0.4 4 1.4 5.1 1.1 1.1 2.8 1.4 4.9 1.4 1.8 0 3.2 0 4.2-0.4 0.7 0 1.1-0.4 1.4-0.4 0.4 0 0.7 0 0.7 0 0.7 0 1.1 0.4 1.1 1.1v1.4c0 1.1-0.4 1.4-1.1 1.8C783.3 146.3 780.9 146.7 778 146.7L778 146.7z"/><path class="st0" d="M797.1 146.3c-0.7 0-1.4-0.4-1.4-1.4v-41.6c0-0.7 0.4-1.4 1.4-1.4h1.8c1.1 0 1.4 0.4 1.4 1.4l0.4 3.6c2.8-2.2 5.6-3.6 8.8-4.7 3.2-1.1 6-1.8 8.8-1.8 4.2 0 7.4 1.1 9.5 3.3 2.1 2.2 3.2 5.4 3.2 10.1v30.7c0 0.7-0.4 1.4-1.4 1.4h-2.5c-0.7 0-1.4-0.4-1.4-1.4v-28.2c0-4-0.7-6.5-2.1-8.3 -1.4-1.8-3.9-2.5-6.7-2.5 -5.6 0-11.3 1.8-16.6 5.8v34c0 0.7-0.4 1.4-1.4 1.4h-1.8V146.3z"/><path class="st0" d="M862.7 147.4c-6.7 0-12-1.8-15.2-5.8 -3.5-4-5.3-9.8-5.3-17.7 0-7.2 1.8-13 5.3-17 3.5-4 8.5-6.1 14.5-6.1 5.3 0 9.2 1.4 12 4.7 2.8 2.9 4.2 7.2 4.2 13 0 2.2 0 4-0.4 5.4 0 0.7-0.7 1.4-1.4 1.4h-28.9c0 6.1 1.4 10.8 3.9 13.7 2.5 2.9 6.7 4.3 12 4.3 4.2 0 8.1-0.7 11.6-2.2 0.7-0.4 1.4-0.4 1.4-0.4 0.4 0 0.4 0 0.7 0.4 0 0.4 0.4 0.4 0.4 0.7v1.4c0 1.1-0.4 1.4-1.1 1.8C871.9 146.3 867.6 147.4 862.7 147.4L862.7 147.4zM873.3 121c0-0.7 0-1.8 0-2.9 0-4.3-1.1-7.2-2.8-9.4 -2.1-2.2-4.9-3.3-8.8-3.3 -9.2 0-13.8 5.1-14.5 15.5H873.3L873.3 121z"/><path class="st0" d="M889.9 146.3c-0.7 0-1.4-0.4-1.4-1.4v-41.6c0-0.7 0.4-1.4 1.4-1.4h1.8c1.1 0 1.4 0.4 1.4 1.4l0.4 5.1c2.1-2.5 4.2-4.3 6.3-5.1 2.1-1.1 4.6-1.4 7.1-1.4 1.1 0 1.8 0 2.1 0 0.7 0 1.4 0.4 1.4 1.4v2.2c0 0.4 0 0.4-0.4 0.7 0 0.4-0.4 0.4-0.7 0.4 -0.4 0-1.1 0-1.4 0 -0.4 0-1.1 0-1.8 0 -2.5 0-4.9 0.4-7.1 1.4 -2.1 1.1-3.9 2.5-6 4.7v32.2c0 0.7-0.4 1.4-1.4 1.4L889.9 146.3 889.9 146.3z"/><path class="st0" d="M907.8 243.5c-0.7 0-1.4-0.4-1.4-1.4v-62.2c0-0.7 0.4-1.4 1.4-1.4h2.5c0.7 0 1.4 0.4 1.4 1.4v39l20.5-18.8c0.7-0.7 1.4-0.7 2.1-0.7h3.2c0.7 0 1.1 0.4 1.1 0.7s-0.4 0.7-1.1 1.4l-20.8 18.8 22.6 21.3c0.4 0.4 0.7 0.7 0.7 1.1 0 0.7-0.4 0.7-1.1 0.7h-3.5c-0.7 0-1.4-0.4-1.8-0.7l-21.9-21v20.2c0 0.7-0.4 1.4-1.4 1.4H907.8L907.8 243.5z"/><path d="M1042.1 2c9.9 0 18 8.1 18 18v440c0 9.9-8.1 18-18 18H20c-9.9 0-18-8.1-18-18V20c0-9.9 8.1-18 18-18H1042.1M1042.1 0H20C9 0 0 9 0 20v440c0 11 9 20 20 20h1022.1c11 0 20-9 20-20V20C1062.1 9 1053.1 0 1042.1 0z"/><path class="st2" d="M197.7 415.9l4.3-0.4c0.1 1.5 0.6 3 1.4 4.2 0.9 1.2 2.1 2.1 3.5 2.7 1.7 0.7 3.5 1 5.3 1 1.6 0 3.1-0.2 4.6-0.8 1.2-0.4 2.2-1.1 3-2.1 0.6-0.9 1-1.9 1-2.9 0-1-0.3-2-0.9-2.8 -0.8-0.9-1.9-1.6-3.1-2 -2-0.7-4.1-1.2-6.1-1.7 -2.3-0.5-4.5-1.2-6.6-2.1 -1.5-0.7-2.8-1.8-3.7-3.2 -0.8-1.3-1.2-2.8-1.2-4.3 0-1.7 0.5-3.4 1.5-4.9 1.1-1.6 2.6-2.8 4.3-3.4 2-0.8 4.1-1.2 6.3-1.2 2.3 0 4.6 0.4 6.7 1.2 1.8 0.7 3.4 2 4.5 3.6 1.1 1.6 1.6 3.5 1.7 5.4l-4.4 0.3c-0.1-1.9-1-3.7-2.4-4.9 -1.4-1.1-3.3-1.7-6-1.7 -2.8 0-4.8 0.5-6 1.5 -1.2 0.8-1.9 2.2-1.9 3.6 0 1.2 0.5 2.3 1.3 3 0.9 0.8 3.2 1.6 6.9 2.4 2.6 0.5 5.1 1.2 7.6 2.2 1.8 0.7 3.3 2 4.4 3.5 1 1.4 1.5 3.2 1.4 4.9 0 1.8-0.5 3.6-1.6 5.2 -1.1 1.7-2.7 3-4.5 3.8 -2.1 0.9-4.3 1.4-6.6 1.3 -2.7 0.1-5.3-0.4-7.8-1.4 -2-0.8-3.7-2.3-4.9-4.1C198.4 420.3 197.8 418.1 197.7 415.9z"/><path class="st2" d="M230 427v-34.4h24.8v4.1h-20.3v10.5h19v4h-19v11.7h21.1v4.1H230z"/><path class="st2" d="M260.5 427v-34.4h15.2c2.4-0.1 4.7 0.2 7 0.9 1.6 0.6 3 1.8 3.8 3.3 1 1.6 1.4 3.4 1.4 5.2 0.1 2.3-0.8 4.5-2.4 6.2 -1.6 1.7-4 2.7-7.3 3.2 1 0.4 1.9 1 2.7 1.7 1.4 1.4 2.7 2.9 3.8 4.6l6 9.4h-5.7l-4.5-7.1c-1.3-2.1-2.4-3.6-3.3-4.7 -0.6-0.9-1.4-1.7-2.3-2.3 -0.6-0.4-1.3-0.7-2.1-0.9 -0.8-0.1-1.7-0.2-2.5-0.2h-5.3V427H260.5zM265.1 407.8h9.8c1.6 0.1 3.3-0.2 4.9-0.6 1.1-0.4 2-1.1 2.7-2.1 0.6-0.9 0.9-2 0.9-3.1 0-1.5-0.6-3-1.8-4 -1.2-1-3-1.6-5.6-1.6h-10.9V407.8z"/><path class="st2" d="M302.6 427l-13.3-34.4h4.9l8.9 25c0.7 2 1.3 3.9 1.8 5.6 0.5-1.9 1.1-3.8 1.9-5.6l9.3-25h4.6L307.3 427H302.6z"/><path class="st2" d="M324.1 427v-34.4h4.5V427H324.1z"/><path class="st2" d="M359.8 414.9l4.5 1.1c-0.7 3.3-2.5 6.3-5.1 8.5 -2.6 2-5.8 3-9.1 2.9 -3.2 0.1-6.3-0.6-9-2.3 -2.4-1.6-4.2-3.9-5.3-6.6 -1.2-2.9-1.8-6-1.8-9.2 -0.1-3.2 0.6-6.5 2.1-9.4 1.3-2.6 3.3-4.7 5.8-6.1 2.6-1.4 5.4-2.1 8.3-2.1 3.1-0.1 6.1 0.8 8.7 2.6 2.4 1.8 4.1 4.4 4.9 7.4l-4.5 1.1c-0.6-2.1-1.8-4-3.5-5.5 -1.7-1.2-3.7-1.8-5.7-1.7 -2.4-0.1-4.7 0.6-6.6 1.9 -1.8 1.3-3.1 3-3.7 5.1 -0.7 2.1-1.1 4.4-1.1 6.6 -0.1 2.6 0.4 5.2 1.3 7.7 0.7 2 2.1 3.8 4 4.9 1.8 1.1 3.8 1.6 5.8 1.6 2.4 0.1 4.6-0.7 6.5-2.2C358.1 419.8 359.4 417.4 359.8 414.9z"/><path class="st2" d="M368.6 427v-34.4h24.8v4.1h-20.3v10.5h19v4h-19v11.7h21.1v4.1H368.6z"/><path class="st2" d="M411 427v-34.4h11.8c2.1-0.1 4.1 0.1 6.1 0.5 1.9 0.4 3.6 1.2 5 2.5 1.8 1.6 3.2 3.6 4.1 5.9 0.9 2.6 1.4 5.4 1.3 8.2 0 2.3-0.3 4.7-0.9 6.9 -0.5 1.8-1.3 3.5-2.3 5 -0.8 1.2-1.9 2.3-3.1 3.1 -1.3 0.8-2.6 1.4-4.1 1.7 -1.8 0.4-3.7 0.6-5.5 0.6H411zM415.5 422.9h7.3c1.8 0.1 3.6-0.2 5.3-0.6 1.2-0.3 2.2-1 3.1-1.8 1.2-1.2 2-2.7 2.5-4.3 0.6-2.1 1-4.4 0.9-6.6 0-3.6-0.6-6.4-1.8-8.3 -1-1.7-2.5-3.1-4.3-3.9 -1.9-0.6-3.9-0.8-5.9-0.7h-7.2L415.5 422.9z"/><path class="st2" d="M444.3 427v-34.4h24.8v4.1h-20.3v10.5h19v4h-19v11.7h21.1v4.1H444.3z"/><path class="st2" d="M474.6 427v-34.4h4.5v30.3H496v4.1H474.6z"/><path class="st2" d="M500.8 427v-34.4h4.5V427H500.8z"/><path class="st2" d="M521.7 427l-13.3-34.4h4.9l8.9 25c0.7 2 1.3 3.9 1.8 5.6 0.5-1.9 1.1-3.8 1.9-5.6l9.3-25h4.6L526.4 427H521.7z"/><path class="st2" d="M542.6 427v-34.4h24.8v4.1h-20.3v10.5h19v4h-19v11.7h21.1v4.1H542.6z"/><path class="st2" d="M573.1 427v-34.4h15.2c2.4-0.1 4.7 0.2 7 0.9 1.6 0.6 3 1.8 3.8 3.3 1 1.6 1.4 3.4 1.4 5.2 0.1 2.3-0.8 4.5-2.4 6.2 -1.6 1.7-4 2.7-7.3 3.2 1 0.4 1.9 1 2.7 1.7 1.4 1.4 2.7 2.9 3.8 4.6l6 9.4h-5.7l-4.5-7.1c-1.3-2.1-2.4-3.6-3.3-4.7 -0.6-0.9-1.4-1.7-2.3-2.3 -0.6-0.4-1.3-0.7-2.1-0.9 -0.8-0.1-1.7-0.2-2.5-0.2h-5.3V427H573.1zM577.7 407.8h9.8c1.6 0.1 3.3-0.2 4.9-0.6 1.1-0.4 2-1.1 2.7-2.1 0.6-0.9 0.9-2 0.9-3.1 0-1.5-0.6-3-1.8-4 -1.2-1-3-1.6-5.6-1.6h-10.9L577.7 407.8z"/><path class="st2" d="M615.1 427v-14.6l-13.2-19.8h5.5l6.8 10.4c1.2 1.9 2.4 3.9 3.5 5.8 1-1.8 2.3-3.8 3.8-6.1l6.7-10.1h5.3l-13.7 19.8V427H615.1z"/><path class="st2" d="M647 427v-34.4h13c1.7 0 3.5 0.1 5.2 0.3 1.5 0.2 3 0.8 4.2 1.6 1.2 0.8 2.1 2 2.8 3.3 1.9 4 1.2 8.8-1.7 12.1 -1.9 2-5.2 3-10.1 3h-8.8v14H647zM651.6 408.9h8.9c2.9 0 5-0.5 6.3-1.6 1.3-1.2 2-2.9 1.9-4.6 0-1.3-0.3-2.6-1.1-3.7 -0.7-1-1.7-1.7-2.9-2 -1.4-0.3-2.8-0.4-4.2-0.3h-8.8V408.9z"/><path class="st2" d="M670.3 427l13.2-34.4h4.9l14.1 34.4h-5.2l-4-10.4h-14.4l-3.8 10.4H670.3zM680.2 412.9h11.6l-3.6-9.5c-1.1-2.9-1.9-5.3-2.4-7.1 -0.4 2.2-1.1 4.4-1.9 6.6L680.2 412.9z"/><path class="st2" d="M704.7 427v-34.4h15.2c2.4-0.1 4.7 0.2 7 0.9 1.6 0.6 3 1.8 3.8 3.3 1 1.6 1.4 3.4 1.4 5.2 0.1 2.3-0.8 4.5-2.4 6.2 -1.6 1.7-4 2.7-7.3 3.2 1 0.4 1.9 1 2.7 1.7 1.4 1.4 2.7 2.9 3.8 4.6l6 9.4h-5.7l-4.5-7.1c-1.3-2.1-2.4-3.6-3.3-4.7 -0.6-0.9-1.4-1.7-2.3-2.3 -0.6-0.4-1.3-0.7-2.1-0.9 -0.8-0.1-1.7-0.2-2.5-0.2h-5.3V427H704.7zM709.2 407.8h9.8c1.6 0.1 3.3-0.2 4.9-0.6 1.1-0.4 2-1.1 2.7-2.1 0.6-0.9 0.9-2 0.9-3.1 0-1.5-0.6-3-1.8-4 -1.2-1-3-1.6-5.6-1.6h-10.9V407.8z"/><path class="st2" d="M745.7 427v-30.3h-11.3v-4.1h27.2v4.1h-11.4V427H745.7z"/><path class="st2" d="M764.8 427v-34.4h4.7l18 27v-27h4.4V427h-4.7l-18-27v27H764.8z"/><path class="st2" d="M798.2 427v-34.4H823v4.1h-20.3v10.5h19v4h-19v11.7h21.1v4.1H798.2z"/><path class="st2" d="M828.7 427v-34.4H844c2.4-0.1 4.7 0.2 7 0.9 1.6 0.6 3 1.8 3.8 3.3 1 1.6 1.4 3.4 1.4 5.2 0.1 2.3-0.8 4.5-2.4 6.2 -1.6 1.7-4 2.7-7.3 3.2 1 0.4 1.9 1 2.7 1.7 1.4 1.4 2.7 2.9 3.8 4.6l6 9.4h-5.7l-4.5-7.1c-1.3-2.1-2.4-3.6-3.3-4.7 -0.6-0.9-1.4-1.7-2.3-2.3 -0.6-0.4-1.3-0.7-2.1-0.9 -0.8-0.1-1.7-0.2-2.5-0.2h-5.3V427H828.7zM833.3 407.8h9.8c1.6 0.1 3.3-0.2 4.9-0.6 1.1-0.4 2-1.1 2.7-2.1 0.6-0.9 0.9-2 0.9-3.1 0-1.5-0.6-3-1.8-4 -1.2-1-3-1.6-5.6-1.6h-10.9V407.8z"/></svg>
