<svg xmlns="http://www.w3.org/2000/svg" viewBox="0 0 961.6 673.4"><style type="text/css">
	.st0{fill:#939393;}
	.st1{fill:#CAC9C2;}
	.st2{fill:#FFFFFF;}
	.st3{fill:#5072AA;}
	.st4{fill:#4D6796;}
	.st5{fill:#CC4232;}
	.st6{fill:#B23F33;}
	.st7{fill:#ECB02A;}
	.st8{fill:#C79732;}
</style><path class="st0" d="M381.7 464.8c0-14.9 11.3-26.1 26-26.1 7.6 0 13.9 3 18.4 8.2l-4.5 4.3c-3.5-4.3-8.2-6.4-13.9-6.4 -10.6 0-19.4 7.7-19.4 20 0 12.3 8.9 20 19.4 20 6.3 0 11.6-2.9 15.4-7.3l4.5 4.5c-4.4 5.2-11.5 8.9-19.9 8.9C392.9 491 381.7 479.7 381.7 464.8z"/><path class="st0" d="M432.6 489.9v-50.1h6.4v50.1H432.6z"/><path class="st0" d="M479.1 472.7c0 10.4-7.3 18.2-17.6 18.2s-17.6-7.8-17.6-18.2 7.3-18.2 17.6-18.2C471.7 454.5 479.1 462.3 479.1 472.7zM472.6 472.7c0-7.8-5.5-12.4-11.2-12.4s-11.2 4.5-11.2 12.4c0 7.8 5.5 12.4 11.2 12.4C467.2 485.1 472.6 480.6 472.6 472.7z"/><path class="st0" d="M508.1 489.9v-4.8h-0.3c-1.9 3.1-6.2 5.9-10.8 5.9 -8.8 0-13.1-5.9-13.1-14.4v-21h6.4v19.9c0 7.1 3.6 9.6 8.5 9.6 5.6 0 9-5.4 9-10.6v-18.9h6.4v34.3H508.1z"/><path class="st0" d="M519.5 472.7c0-10.5 7.6-18.2 16.3-18.2 5.5 0 9.7 2.7 11.7 5.9h0.3l-0.3-4.8v-15.8h6.4v50.1h-6.2v-4.8h-0.3c-2 3.1-6.2 5.9-11.7 5.9C527.1 491 519.5 483.2 519.5 472.7zM547.7 472.7c0-7.8-5.2-12.4-10.9-12.4s-10.9 4.7-10.9 12.4c0 7.7 5.2 12.4 10.9 12.4S547.7 480.6 547.7 472.7z"/><path class="st0" d="M571.4 489.9v-50.1h17.1c8.3 0 15.7 6.2 15.7 14.9 0 8.7-7.3 14.9-15.7 14.9h-10.7v20.3H571.4zM588.6 463.4c5.7 0 8.9-4.8 8.9-8.7 0-4-3.2-8.7-8.9-8.7h-10.8v17.5h10.8V463.4z"/><path class="st0" d="M608.7 489.9v-50.1h6.4v50.1H608.7z"/><path class="st0" d="M620.6 479.5c0-7.8 7-12 15-12 4.6 0 8 1.3 9.3 2.1v-1c0-5.2-4.1-8.3-8.9-8.3 -3.6 0-7 1.7-8.2 5l-5.9-2.5c1.2-3.1 5.3-8.3 13.9-8.3 8.4 0 15.2 5 15.2 14.7v20.7h-6.2v-4.8h-0.3c-1.9 2.9-5.4 5.9-11.3 5.9C626.4 491 620.6 486.7 620.6 479.5zM645 475.1c0 0-2.7-2.2-8.2-2.2 -6.8 0-9.4 3.6-9.4 6.8 0 3.6 3.8 5.5 7.1 5.5C639.6 485.1 645 480.7 645 475.1z"/><path class="st0" d="M660.4 479.5v-18h-6v-5.9h6v-10.5h6.4v10.5h8.4v5.9h-8.4V479c0 3.8 1.6 5.6 4.6 5.6 1.2 0 2-0.1 2.9-0.6l2.2 5.5c-1.5 0.6-3 0.9-5.2 0.9C664.2 490.4 660.4 486.4 660.4 479.5z"/><path class="st0" d="M702.2 440.4l-2.2 5.5c-0.8-0.4-1.7-0.6-2.9-0.6 -3.2 0-5.7 1.9-5.7 5.9v4.3h8.9v5.9h-8.9v28.5H685v-28.4h-6.4v-5.9h6.4v-4.5c0-7 5-11.5 12.2-11.5C699.2 439.5 700.7 439.8 702.2 440.4z"/><path class="st0" d="M737.2 472.7c0 10.4-7.3 18.2-17.6 18.2s-17.6-7.8-17.6-18.2 7.3-18.2 17.6-18.2C729.9 454.5 737.2 462.3 737.2 472.7zM730.8 472.7c0-7.8-5.5-12.4-11.2-12.4s-11.2 4.5-11.2 12.4c0 7.8 5.5 12.4 11.2 12.4S730.8 480.6 730.8 472.7z"/><path class="st0" d="M742.4 489.9v-34.3h6.2v5.6h0.3c1.4-3.9 6.4-6.4 9.9-6.4 2.1 0 3.5 0.3 4.8 0.8l-2.4 6c-0.9-0.3-2-0.5-3.4-0.5 -4.4 0-8.9 3.7-8.9 10v18.8H742.4z"/><path class="st0" d="M767.1 455.6h6.2v4.8h0.3c2-3.3 6.5-5.9 10.6-5.9 5.5 0 9.1 2.5 10.8 6.6 2.4-3.8 6.6-6.6 12-6.6 8.4 0 12.2 5.9 12.2 14.4v21h-6.4v-20c0-7.1-2.7-9.5-7.6-9.5 -5.2 0-8.7 5.3-8.7 10.6v18.9h-6.4v-20c0-7.1-2.7-9.5-7.6-9.5 -5.2 0-8.7 5.3-8.7 10.6v18.9h-6.4v-34.3H767.1z"/><path class="st0" d="M139.2 462.3c0-15.8 13.3-28.7 29.1-28.7 8.7 0 15 3.4 19.6 7.9l-5.5 5.5c-3.4-3.1-7.9-5.6-14.1-5.6 -11.5 0-20.6 9.3-20.6 20.8s9 20.8 20.6 20.8c7.5 0 11.7-3 14.5-5.7 2.2-2.2 3.7-5.5 4.3-9.9h-18.7v-7.8h26.4c0.3 1.4 0.4 3.1 0.4 4.9 0 5.9-1.6 13.1-6.8 18.3 -5 5.2-11.5 8-20 8C152.5 491 139.2 478.1 139.2 462.3z"/><path class="st0" d="M216.3 454.1c-10.2 0-18.5 7.8-18.5 18.5 0 10.6 8.3 18.5 18.5 18.5s18.5-7.8 18.5-18.5C234.9 461.8 226.5 454.1 216.3 454.1zM216.3 483.7c-5.6 0-10.4-4.6-10.4-11.2 0-6.6 4.8-11.2 10.4-11.2 5.6 0 10.4 4.5 10.4 11.2C226.8 479.1 221.9 483.7 216.3 483.7z"/><path class="st0" d="M256.8 454.1c-10.2 0-18.5 7.8-18.5 18.5 0 10.6 8.3 18.5 18.5 18.5s18.5-7.8 18.5-18.5C275.3 461.8 267 454.1 256.8 454.1zM256.8 483.7c-5.6 0-10.4-4.6-10.4-11.2 0-6.6 4.8-11.2 10.4-11.2 5.6 0 10.4 4.5 10.4 11.2C267.2 479.1 262.3 483.7 256.8 483.7z"/><path class="st0" d="M306.4 455.2v3h-0.3c-1.8-2.2-5.3-4.1-9.7-4.1 -9.2 0-17.7 8.1-17.7 18.5 0 10.3 8.5 18.4 17.7 18.4 4.4 0 7.9-2 9.7-4.2h0.3v2.7c0 7.1-3.8 10.8-9.9 10.8 -5 0-8-3.6-9.3-6.6l-7.1 2.9c2 4.9 7.4 10.9 16.4 10.9 9.5 0 17.5-5.6 17.5-19.2v-33.1C314 455.2 306.4 455.2 306.4 455.2zM297.1 483.7c-5.6 0-10.3-4.7-10.3-11.1 0-6.5 4.7-11.3 10.3-11.3 5.5 0 9.9 4.8 9.9 11.3C306.9 479 302.6 483.7 297.1 483.7z"/><rect x="319.6" y="435.6" class="st0" width="8.1" height="54.3"/><path class="st0" d="M350 483.7c-4.1 0-7.1-1.9-8.9-5.6l24.7-10.2 -0.8-2.1c-1.5-4.1-6.2-11.7-15.8-11.7 -9.5 0-17.4 7.5-17.4 18.5 0 10.3 7.8 18.5 18.3 18.5 8.5 0 13.4-5.2 15.4-8.2l-6.3-4.2C357 481.7 354.1 483.7 350 483.7zM349.4 461.2c3.2 0 5.9 1.6 6.9 3.9l-16.5 6.9C339.5 464.8 345.2 461.2 349.4 461.2z"/><path class="st0" d="M304.6 600.8v33.9h-7v-83.3H326c8.7 0 15.5 2.2 20.5 6.6s7.5 10.5 7.5 18.2c0 7.8-2.4 13.8-7.2 18.1 -4.8 4.3-11.8 6.4-21 6.4L304.6 600.8 304.6 600.8zM304.6 594.9h21.3c6.8 0 12-1.6 15.6-4.9 3.6-3.2 5.4-7.8 5.4-13.6s-1.8-10.4-5.3-13.8c-3.6-3.4-8.6-5.2-15.2-5.2h-21.8V594.9z"/><path class="st0" d="M407.1 634.7c-0.7-1.9-1.1-4.8-1.3-8.6 -2.4 3.1-5.5 5.5-9.2 7.2s-7.7 2.5-11.8 2.5c-5.9 0-10.8-1.7-14.4-5 -3.7-3.3-5.5-7.5-5.5-12.6 0-6 2.5-10.8 7.5-14.3s12-5.3 21-5.3h12.4v-7c0-4.4-1.4-7.9-4.1-10.4 -2.7-2.5-6.7-3.8-11.9-3.8 -4.8 0-8.7 1.2-11.8 3.7 -3.1 2.4-4.7 5.4-4.7 8.8l-6.9-0.1c0-4.9 2.3-9.2 6.9-12.8 4.6-3.6 10.2-5.4 16.9-5.4 6.9 0 12.3 1.7 16.3 5.2s6 8.3 6.1 14.4v29.3c0 6 0.6 10.5 1.9 13.4v0.7h-7.4V634.7zM385.6 629.8c4.6 0 8.7-1.1 12.3-3.3s6.2-5.2 7.9-8.9V604h-12.2c-6.8 0.1-12.2 1.3-16 3.7 -3.9 2.4-5.8 5.7-5.8 10 0 3.5 1.3 6.3 3.9 8.6C378.1 628.7 381.5 629.8 385.6 629.8z"/><path class="st0" d="M459.9 578.7c-1.4-0.3-3-0.4-4.6-0.4 -4.3 0-7.9 1.2-10.8 3.6 -3 2.4-5.1 5.8-6.3 10.4v42.5h-6.8v-61.9h6.7l0.1 9.8c3.6-7.3 9.4-11 17.4-11 1.9 0 3.4 0.2 4.5 0.7L459.9 578.7z"/><path class="st0" d="M484.8 557v15.9h12.8v5.6h-12.8v41.3c0 3.4 0.6 6 1.9 7.7 1.2 1.7 3.3 2.5 6.2 2.5 1.1 0 3-0.2 5.5-0.6l0.3 5.6c-1.8 0.6-4.2 1-7.3 1 -4.7 0-8.1-1.4-10.2-4.1 -2.1-2.7-3.2-6.7-3.2-12v-41.3h-11.4v-5.7H478v-15.8h6.8V557z"/><path class="st0" d="M518.9 572.9l0.2 10.6c2.3-3.8 5.2-6.7 8.7-8.7s7.3-3 11.5-3c6.6 0 11.6 1.9 14.8 5.6s4.9 9.3 4.9 16.8v40.6h-6.8v-40.7c0-5.5-1.2-9.6-3.5-12.4 -2.3-2.7-6-4.1-11.1-4.1 -4.2 0-8 1.3-11.2 4 -3.3 2.7-5.7 6.2-7.2 10.7v42.4h-6.8v-61.8H518.9z"/><path class="st0" d="M601.3 635.9c-5.3 0-10-1.3-14.3-3.9 -4.3-2.6-7.6-6.2-9.9-10.8 -2.4-4.6-3.5-9.8-3.5-15.6v-2.5c0-5.9 1.2-11.3 3.5-16.1 2.3-4.8 5.5-8.5 9.6-11.2 4.1-2.7 8.6-4.1 13.4-4.1 7.5 0 13.5 2.6 17.9 7.7s6.6 12.1 6.6 21v3.8h-44.1v1.3c0 7 2 12.9 6 17.5 4 4.7 9.1 7 15.2 7 3.7 0 6.9-0.7 9.7-2s5.3-3.5 7.6-6.4l4.3 3.3C618.2 632.2 610.9 635.9 601.3 635.9zM600 577.5c-5.1 0-9.5 1.9-13 5.7s-5.7 8.8-6.4 15.2h37.1v-0.7c-0.2-5.9-1.9-10.8-5.1-14.5C609.4 579.4 605.2 577.5 600 577.5z"/><path class="st0" d="M667 578.7c-1.4-0.3-3-0.4-4.6-0.4 -4.3 0-7.9 1.2-10.8 3.6 -3 2.4-5.1 5.8-6.3 10.4v42.5h-6.8v-61.9h6.7l0.1 9.8c3.6-7.3 9.4-11 17.4-11 1.9 0 3.4 0.2 4.5 0.7L667 578.7z"/><g transform="translate(-530 -1866)translate(65 1571)translate(371 250)translate(94 45)"><polyline class="st1" points="424.1 270.9 369 178.9 424.1 87 534.4 87 589.6 178.9 534.4 270.9 424.1 270.9 "/><path class="st2" d="M484.3 224.1c-23 0-41.8-18.7-41.8-41.8 0-23 18.7-41.8 41.8-41.8 23 0 41.8 18.7 41.8 41.8C526.1 205.3 507.3 224.1 484.3 224.1"/><path class="st3" d="M568.6 51c-3.4-6-11.7-10.8-18.5-10.8H413.9c-6.8 0-15.1 4.9-18.5 10.8l-39.8 70c-0.3 4.5 0.5 9.3 2.5 12.7l26.9 46.8 48.1-84.4h152c3.6 0 7.6 1.4 11.1 3.6L568.6 51"/><path class="st4" d="M354.2 117.1l-1.9 2.6c-0.3 3.9 0.5 7.9 2.6 10.9l28.8 40 15.3-21.5L354.2 117.1"/><path class="st2" d="M420.3 77c-4.4 0-7.9-3.7-7.9-8.4 0-4.6 3.5-8.4 7.9-8.4 4.4 0 7.9 3.7 7.9 8.4C428.2 73.2 424.7 77 420.3 77zM549.5 68.6c0 2.8-1.4 5.4-3.6 6.8 -2.3 1.4-5.1 1.4-7.4 0 -2.3-1.4-3.7-4-3.6-6.8 0.1-4.2 3.3-7.6 7.3-7.6C546.2 61 549.4 64.4 549.5 68.6z"/><path class="st5" d="M633.2 167.6l-40.8-69.5c-3.5-2.1-7.6-3.5-11.2-3.5h-55.4l47.9 82.9 -75.8 131.5c-1.7 2.8-4.5 5.4-7.8 7.3h55.7c6.8 0 15.2-4.8 18.7-10.6l68.8-117C636.6 183 636.6 173.5 633.2 167.6"/><path class="st6" d="M594.2 101.3l-1.8-3.1c-3.5-2.1-7.6-3.5-11.2-3.5h-55.4l14.4 24.9L594.2 101.3"/><path class="st2" d="M541.5 296.2c-4.6 0-8.4-3.7-8.4-8.2 0-4.6 3.8-8.2 8.4-8.2 4.6 0 8.4 3.7 8.4 8.2C549.9 292.5 546.2 296.2 541.5 296.2M606.8 186.3c-4.6 0-8.4-3.7-8.4-8.2 0-4.6 3.8-8.2 8.4-8.2 4.6 0 8.4 3.7 8.4 8.2C615.2 182.6 611.5 186.3 606.8 186.3"/><path class="st7" d="M429.3 259.9L355 127.4c-1.9-3.5-2.7-8.2-2.4-12.7l-27.6 49.9c-3.3 6-3.3 15.7 0 21.7l66.5 120.1c3.3 6 11.4 10.9 18 10.9h79.1c3.2-2 5.9-4.6 7.5-7.5l27.1-49.9L429.3 259.9"/><path class="st8" d="M484.1 317.3h4.6c3.2-2 5.9-4.6 7.5-7.5l27.1-49.9h-28.8L484.1 317.3"/><path class="st2" d="M412.9 296.5c-4.5 0-8.1-3.8-8.1-8.5 0-4.7 3.6-8.5 8.1-8.5 4.5 0 8.1 3.8 8.1 8.5C421 292.7 417.4 296.5 412.9 296.5M349.6 183.7c-4.5 0-8.1-3.8-8.1-8.5 0-4.7 3.6-8.5 8.1-8.5 4.5 0 8.1 3.8 8.1 8.5C357.7 180 354.1 183.7 349.6 183.7"/></g></svg>
