<svg xmlns="http://www.w3.org/2000/svg" viewBox="0 0 600 223"><defs><style>.cls-1,.cls-5{fill:none;}.cls-2{fill:#242424;}.cls-3{fill:#7ed257;}.cls-4{fill:#fff;}.cls-5{stroke:#242424;stroke-miterlimit:10;stroke-width:3px;}</style></defs><title>aut-data-2_2</title><g id="Layer_2" data-name="Layer 2"><g id="Layer_1-2" data-name="Layer 1"><rect class="cls-1" y="1.5" width="600" height="220"/><path class="cls-2" d="M178.56207,184.35938c-14.60791,0-30.1333-4.00293-30.1333-11.42188s15.52539-11.42188,30.1333-11.42188,30.13379,4.00293,30.13379,11.42188S193.17,184.35938,178.56207,184.35938Zm0-19.84376c-15.52929,0-27.1333,4.44629-27.1333,8.42188s11.604,8.42188,27.1333,8.42188c15.52979,0,27.13379-4.44629,27.13379-8.42188S194.09186,164.51562,178.56207,164.51562Z"/><path class="cls-2" d="M178.55963,223c-14.60791,0-30.1333-4.00293-30.1333-11.42188h3c0,3.97559,11.604,8.42188,27.1333,8.42188s27.1333-4.44629,27.1333-8.42188h3C208.69293,218.99707,193.16754,223,178.55963,223Z"/><rect class="cls-2" x="148.42877" y="172.9375" width="3" height="38.64063"/><rect class="cls-2" x="205.69586" y="172.9375" width="3" height="38.64063"/><path class="cls-2" d="M178.55963,203.42383c-14.60791,0-30.1333-4.00293-30.1333-11.42188h3c0,3.97559,11.604,8.42188,27.1333,8.42188s27.1333-4.44629,27.1333-8.42188h3C208.69293,199.4209,193.16754,203.42383,178.55963,203.42383Z"/><path class="cls-2" d="M178.55963,22.84375c-14.60791,0-30.1333-4.00293-30.1333-11.42187S163.95172,0,178.55963,0s30.1333,4.00293,30.1333,11.42188S193.16754,22.84375,178.55963,22.84375Zm0-19.84375c-15.5293,0-27.1333,4.44629-27.1333,8.42188s11.604,8.42187,27.1333,8.42187,27.1333-4.44629,27.1333-8.42187S194.08893,3,178.55963,3Z"/><path class="cls-2" d="M178.55719,61.48438c-14.60791,0-30.13379-4.00293-30.13379-11.42188h3c0,3.97559,11.604,8.42188,27.13379,8.42188,15.5293,0,27.1333-4.44629,27.1333-8.42188h3C208.69049,57.48145,193.1651,61.48438,178.55719,61.48438Z"/><rect class="cls-2" x="148.42633" y="11.42188" width="3" height="38.64063"/><rect class="cls-2" x="205.69293" y="11.42188" width="3" height="38.64063"/><path class="cls-2" d="M178.55719,41.9082c-14.60791,0-30.13379-4.00293-30.13379-11.42187h3c0,3.97558,11.604,8.42187,27.13379,8.42187,15.5293,0,27.1333-4.44629,27.1333-8.42187h3C208.69049,37.90527,193.1651,41.9082,178.55719,41.9082Z"/><path class="cls-2" d="M416.56207,184.35938c-14.60791,0-30.1333-4.00293-30.1333-11.42188s15.52539-11.42188,30.1333-11.42188,30.13379,4.00293,30.13379,11.42188S431.17,184.35938,416.56207,184.35938Zm0-19.84376c-15.52929,0-27.1333,4.44629-27.1333,8.42188s11.604,8.42188,27.1333,8.42188c15.52979,0,27.13379-4.44629,27.13379-8.42188S432.09186,164.51562,416.56207,164.51562Z"/><path class="cls-2" d="M416.55963,223c-14.60791,0-30.1333-4.00293-30.1333-11.42188h3c0,3.97559,11.604,8.42188,27.1333,8.42188s27.1333-4.44629,27.1333-8.42188h3C446.69293,218.99707,431.16754,223,416.55963,223Z"/><rect class="cls-2" x="386.42877" y="172.9375" width="3" height="38.64063"/><rect class="cls-2" x="443.69586" y="172.9375" width="3" height="38.64063"/><path class="cls-2" d="M416.55963,203.42383c-14.60791,0-30.1333-4.00293-30.1333-11.42188h3c0,3.97559,11.604,8.42188,27.1333,8.42188s27.1333-4.44629,27.1333-8.42188h3C446.69293,199.4209,431.16754,203.42383,416.55963,203.42383Z"/><path class="cls-2" d="M416.55963,22.84375c-14.60791,0-30.1333-4.00293-30.1333-11.42187S401.95172,0,416.55963,0s30.1333,4.00293,30.1333,11.42188S431.16754,22.84375,416.55963,22.84375Zm0-19.84375c-15.5293,0-27.1333,4.44629-27.1333,8.42188s11.604,8.42187,27.1333,8.42187,27.1333-4.44629,27.1333-8.42187S432.08893,3,416.55963,3Z"/><path class="cls-2" d="M416.55719,61.48438c-14.60791,0-30.13379-4.00293-30.13379-11.42188h3c0,3.97559,11.604,8.42188,27.13379,8.42188,15.5293,0,27.1333-4.44629,27.1333-8.42188h3C446.69049,57.48145,431.1651,61.48438,416.55719,61.48438Z"/><rect class="cls-2" x="386.42633" y="11.42188" width="3" height="38.64063"/><rect class="cls-2" x="443.69293" y="11.42188" width="3" height="38.64063"/><path class="cls-2" d="M416.55719,41.9082c-14.60791,0-30.13379-4.00293-30.13379-11.42187h3c0,3.97558,11.604,8.42187,27.13379,8.42187,15.5293,0,27.1333-4.44629,27.1333-8.42187h3C446.69049,37.90527,431.1651,41.9082,416.55719,41.9082Z"/><path class="cls-2" d="M513.37408,106.60156c-14.60791,0-30.1333-4.00293-30.1333-11.42187s15.52539-11.42188,30.1333-11.42188,30.13379,4.00293,30.13379,11.42188S527.982,106.60156,513.37408,106.60156Zm0-19.84375c-15.52929,0-27.1333,4.44629-27.1333,8.42188s11.604,8.42187,27.1333,8.42187c15.52979,0,27.13379-4.44629,27.13379-8.42187S528.90387,86.75781,513.37408,86.75781Z"/><path class="cls-2" d="M513.37164,145.24219c-14.60791,0-30.1333-4.00293-30.1333-11.42188h3c0,3.97559,11.604,8.42188,27.1333,8.42188s27.1333-4.44629,27.1333-8.42188h3C543.50494,141.23926,527.97955,145.24219,513.37164,145.24219Z"/><rect class="cls-2" x="483.24078" y="95.17969" width="3" height="38.64063"/><rect class="cls-2" x="540.50787" y="95.17969" width="3" height="38.64063"/><path class="cls-2" d="M513.37164,125.666c-14.60791,0-30.1333-4.00293-30.1333-11.42188h3c0,3.97559,11.604,8.42188,27.1333,8.42188s27.1333-4.44629,27.1333-8.42188h3C543.50494,121.66309,527.97955,125.666,513.37164,125.666Z"/><path class="cls-2" d="M80.42779,106.60156c-14.60791,0-30.1333-4.00293-30.1333-11.42187s15.52539-11.42188,30.1333-11.42188,30.13379,4.00293,30.13379,11.42188S95.0357,106.60156,80.42779,106.60156Zm0-19.84375c-15.52929,0-27.1333,4.44629-27.1333,8.42188s11.604,8.42187,27.1333,8.42187c15.52979,0,27.13379-4.44629,27.13379-8.42187S95.95758,86.75781,80.42779,86.75781Z"/><path class="cls-2" d="M80.42535,145.24219c-14.60791,0-30.1333-4.00293-30.1333-11.42188h3c0,3.97559,11.604,8.42188,27.1333,8.42188s27.1333-4.44629,27.1333-8.42188h3C110.55865,141.23926,95.03326,145.24219,80.42535,145.24219Z"/><rect class="cls-2" x="50.29449" y="95.17969" width="3" height="38.64063"/><rect class="cls-2" x="107.56158" y="95.17969" width="3" height="38.64063"/><path class="cls-2" d="M80.42535,125.666c-14.60791,0-30.1333-4.00293-30.1333-11.42188h3c0,3.97559,11.604,8.42188,27.1333,8.42188s27.1333-4.44629,27.1333-8.42188h3C110.55865,121.66309,95.03326,125.666,80.42535,125.666Z"/><path class="cls-3" d="M323.64361,140.98764c-14.85768,14.85768-40.17516,13.66906-53.36878.47545-7.96371-8.08258-9.03346-33.16234,5.82421-48.02s40.76947-12.9559,48.02-5.82421C337.31267,100.81249,338.50128,126.13,323.64361,140.98764Z"/><path class="cls-2" d="M296.89979,79.774A34.46981,34.46981,0,1,1,262.43,114.24382,34.49457,34.49457,0,0,1,296.89979,79.774m0-3.56585a38.03566,38.03566,0,1,0,38.03565,38.03565A37.9948,37.9948,0,0,0,296.89979,76.20817Z"/><path class="cls-4" d="M286.1309,123.03957a92.46069,92.46069,0,0,1-10.93525-6.65624c-.59431-.35658-1.18861-.832-1.78292-1.18861v-.71317a1.42352,1.42352,0,0,1,.47545-.47544c3.56584-2.49609,7.60713-4.99218,12.005-7.48827a5.49174,5.49174,0,0,1-.832.832c-.23772.11886-1.30748.832-3.0904,2.02064-2.02064,1.30748-3.56584,2.25837-4.51673,2.85268-1.90178,1.18861-2.37723,1.42633-2.37723,2.49609s0,1.06975,3.56584,3.20926c1.90179,1.18861,3.20926,2.02064,4.279,2.615a20.67486,20.67486,0,0,1,2.13951,1.30747A5.35322,5.35322,0,0,1,286.1309,123.03957Z"/><path class="cls-2" d="M287.56738,104.1406a6.87358,6.87358,0,0,0-1.66405.59431,130.7023,130.7023,0,0,0-12.36159,7.726,2.69051,2.69051,0,0,0-1.30748,2.02065v.35658a2.82336,2.82336,0,0,0,.35659,1.42634,12.06476,12.06476,0,0,0,2.1395,1.5452c7.48827,4.87331,11.76728,7.36941,12.9559,7.36941.5943,0,.95089-.59431.95089-1.90179a4.05127,4.05127,0,0,0-2.02065-2.97153,23.67566,23.67566,0,0,0-2.25836-1.42634c-1.06976-.59431-2.49609-1.42634-4.279-2.61495s-2.73381-1.66406-2.73381-1.78292a17.59536,17.59536,0,0,1,1.5452-.95089q1.42633-.89146,4.63559-2.85268c2.13951-1.30747,3.0904-2.02064,3.20926-2.02064a3.66712,3.66712,0,0,0,1.78292-2.73381c0-1.18862-.23772-1.78293-.95089-1.78293Z"/><path class="cls-4" d="M291.60289,127.67516c.71316-2.1395,3.32811-8.79574,11.41069-27.6947.11886-.23773.23772-.35659.35658-.59431h0q-.53487,1.248-.71316,1.78292a.89849.89849,0,0,0-.11886.47544l-.71317,1.78293q-.71318,1.78291-1.06975,2.49609a4.9964,4.9964,0,0,1-.23773.5943V106.399c-.11886.11886-.35658.832-3.80356,9.39-3.0904,7.60713-3.92243,9.74664-4.16015,10.22209A11.87865,11.87865,0,0,1,291.60289,127.67516Z"/><path class="cls-2" d="M303.38835,97.331q-1.38227,0-2.0734,1.78292-11.40366,27.457-11.40367,29.23991v.23772c0,.47545.57594.71317,1.61264.71317h.69113c.69113,0,1.38227-.95089,2.18859-2.73382.23037-.71316,1.61264-4.04129,4.03159-10.22208s3.686-9.27118,3.686-9.27118a3.9144,3.9144,0,0,0,.23038-.71317,19.38881,19.38881,0,0,1,.92151-2.37723l.69113-1.78292a2.04667,2.04667,0,0,1,.23037-.59431,14.84691,14.84691,0,0,0,.57595-1.5452,3.96219,3.96219,0,0,0,.46075-1.66406V98.0442c0-.47545-.57594-.71317-1.843-.71317Z"/><path class="cls-4" d="M309.38024,122.80185a3.2039,3.2039,0,0,1,.95089-.832c.11886-.11886.832-.59431,4.6356-2.85268,5.34876-3.20926,5.34876-3.20926,5.34876-4.279s0-1.06975-5.34876-4.39787c-3.92243-2.49609-4.6356-2.97154-4.75446-3.0904l-.71317-.71317.11886.11886a130.83478,130.83478,0,0,1,11.76728,7.36941.84719.84719,0,0,1,.35658.71317c0,.23772,0,.47544-.47545.71316C317.22509,118.16625,313.30266,120.66234,309.38024,122.80185Z"/><path class="cls-2" d="M308.77691,104.02174c-.71317,0-1.06976.59431-1.06976,1.66406a3.83949,3.83949,0,0,0,1.66407,2.97154q.35658.35658,4.99218,3.20926a35.29626,35.29626,0,0,1,4.51673,2.97153s-1.5452.95089-4.51673,2.85268c-2.97154,1.78292-4.6356,2.85267-4.87332,2.97153-1.18861.95089-1.90178,1.90178-1.90178,2.73381v.35659c0,1.06975.35658,1.66406.95089,1.66406a4.25763,4.25763,0,0,0,1.30747-.47545c4.04129-2.25837,8.3203-4.87331,12.71817-7.726a2.63675,2.63675,0,0,0,.23772-4.39787,112.80942,112.80942,0,0,0-12.005-7.48827A4.88158,4.88158,0,0,0,308.77691,104.02174Z"/><path class="cls-5" d="M363.93831,31.30943a38.78043,38.78043,0,0,0-38.66952,38.89038"/><polygon class="cls-2" points="367.087 30.759 365.744 32.496 357.353 25.937 358.697 24.2 367.087 30.759"/><polygon class="cls-2" points="367.088 30.759 360.66 39.074 358.933 37.724 365.36 29.409 367.088 30.759"/><path class="cls-5" d="M503.05383,68.961A41.14852,41.14852,0,0,0,461.90531,27.8125"/><rect class="cls-2" x="500.5328" y="65.96886" width="11.30875" height="2.32801" transform="translate(142.44445 425.49512) rotate(-52.12783)"/><rect class="cls-2" x="498.78741" y="62.4016" width="2.32818" height="11.14387" transform="translate(139.43114 420.9565) rotate(-52.13723)"/><path class="cls-5" d="M465.47837,197.17221a38.78041,38.78041,0,0,0,38.66951-38.89038"/><polygon class="cls-2" points="462.33 197.722 463.673 195.985 472.063 202.545 470.72 204.282 462.33 197.722"/><polygon class="cls-2" points="462.329 197.722 468.757 189.407 470.484 190.758 464.056 199.073 462.329 197.722"/><path class="cls-5" d="M328.14343,157.46086A41.14853,41.14853,0,0,0,369.292,198.60938"/><rect class="cls-2" x="319.35571" y="158.12501" width="11.30875" height="2.32801" transform="translate(-0.25414 318.05843) rotate(-52.12783)"/><rect class="cls-2" x="330.08167" y="152.87641" width="2.32818" height="11.14387" transform="translate(2.84399 322.71005) rotate(-52.13723)"/><path class="cls-5" d="M227.19435,32.28838a38.78042,38.78042,0,0,1,38.66951,38.89038"/><polygon class="cls-2" points="224.046 31.738 225.389 33.475 233.779 26.916 232.436 25.179 224.046 31.738"/><polygon class="cls-2" points="224.045 31.738 230.473 40.053 232.2 38.703 225.772 30.388 224.045 31.738"/><path class="cls-5" d="M92.24854,70.3264a41.14852,41.14852,0,0,1,41.14852-41.14852"/><rect class="cls-2" x="87.95118" y="62.84387" width="2.32801" height="11.30875" transform="translate(-23.28197 69.13491) rotate(-37.87217)"/><rect class="cls-2" x="89.77894" y="68.17483" width="11.14387" height="2.32818" transform="translate(-22.48534 73.12074) rotate(-37.86277)"/><path class="cls-5" d="M134.345,197.24976a38.78042,38.78042,0,0,1-38.66952-38.89038"/><polygon class="cls-2" points="137.494 197.8 136.151 196.063 127.76 202.623 129.103 204.359 137.494 197.8"/><polygon class="cls-2" points="137.495 197.8 131.067 189.485 129.339 190.835 135.767 199.15 137.495 197.8"/><path class="cls-5" d="M264.11261,156.27151A41.14852,41.14852,0,0,1,222.96409,197.42"/><rect class="cls-2" x="266.08196" y="152.44529" width="2.32801" height="11.30875" transform="translate(-40.77096 197.36136) rotate(-37.87217)"/><rect class="cls-2" x="255.43835" y="156.0949" width="11.14387" height="2.32818" transform="translate(-41.57413 193.30657) rotate(-37.86277)"/></g></g></svg>