<?xml version="1.0" encoding="utf-8"?>
<!-- Generator: Adobe Illustrator 21.1.0, SVG Export Plug-In . SVG Version: 6.00 Build 0)  -->
<svg version="1.1" id="Layer_1" xmlns="http://www.w3.org/2000/svg" xmlns:xlink="http://www.w3.org/1999/xlink" x="0px" y="0px"
	 viewBox="0 0 144 144" style="enable-background:new 0 0 144 144;" xml:space="preserve">
<style type="text/css">
	.st0{fill:#242424;}
	.st1{fill:#7ED257;}
	.st2{fill:none;stroke:#242424;stroke-width:3;stroke-miterlimit:10;}
	.st3{fill:#FFFFFF;}
</style>
<title>ai</title>
<path class="st0" d="M13,131v10H3v-10H13 M16,128H0v16h16V128z"/>
<path class="st0" d="M77,131v10H67v-10H77 M80,128H64v16h16V128z"/>
<path class="st0" d="M141,131v10h-10v-10H141 M144,128h-16v16h16V128z"/>
<path class="st0" d="M45,99v10H35V99H45 M48,96H32v16h16V96z"/>
<path class="st0" d="M109,99v10H99V99H109 M112,96H96v16h16V96z"/>
<path class="st0" d="M77,67v10H67V67H77 M80,64H64v16h16V64z"/>
<path class="st1" d="M54.5,54.5C42,67,20.7,66,9.6,54.9C2.9,48.1,2,27,14.5,14.5S48.8,3.6,54.9,9.6C66,20.7,67,42,54.5,54.5z"/>
<path class="st0" d="M141,67v10h-10V67H141 M144,64h-16v16h16V64z"/>
<path class="st0" d="M109,35v10H99V35H109 M112,32H96v16h16V32z"/>
<path class="st0" d="M141,3v10h-10V3H141 M144,0h-16v16h16V0z"/>
<path class="st0" d="M32,3c16,0,29,13,29,29S48,61,32,61S3,48,3,32C3,16,16,3,32,3 M32,0C14.3,0,0,14.3,0,32s14.3,32,32,32
	s32-14.3,32-32S49.7,0,32,0z"/>
<line class="st2" x1="13.5" y1="130.5" x2="34.5" y2="109.5"/>
<line class="st2" x1="45.5" y1="98.5" x2="66.5" y2="77.5"/>
<line class="st2" x1="77.5" y1="66.5" x2="98.5" y2="45.5"/>
<line class="st2" x1="109.1" y1="34.8" x2="130.1" y2="13.8"/>
<line class="st2" x1="77.4" y1="130.4" x2="98.4" y2="109.4"/>
<line class="st2" x1="109.4" y1="98.4" x2="130.4" y2="77.4"/>
<line class="st2" x1="130.5" y1="130.5" x2="109.5" y2="109.5"/>
<line class="st2" x1="66.5" y1="130.5" x2="45.5" y2="109.5"/>
<line class="st2" x1="98.5" y1="98.5" x2="77.5" y2="77.5"/>
<line class="st2" x1="130.5" y1="66.5" x2="109.5" y2="45.5"/>
<line class="st2" x1="66.5" y1="66.5" x2="54.5" y2="54.5"/>
<path class="st3" d="M23.4,39.4c-3.2-1.7-6.3-3.5-9.2-5.6c-0.5-0.3-1-0.7-1.5-1c0-0.1,0-0.2,0-0.3v-0.3c0,0,0.1-0.2,0.4-0.4
	c3-2.1,6.4-4.2,10.1-6.3c-0.2,0.3-0.5,0.5-0.7,0.7c-0.2,0.1-1.1,0.7-2.6,1.7c-1.7,1.1-3,1.9-3.8,2.4c-1.6,1-2,1.2-2,2.1
	c0,0.9,0,0.9,3,2.7c1.6,1,2.7,1.7,3.6,2.2c0.6,0.3,1.2,0.7,1.8,1.1C22.8,38.6,23.1,39,23.4,39.4z"/>
<path class="st0" d="M24,23.5c-0.5,0.1-1,0.3-1.4,0.5c-3.8,2.1-7.3,4.3-10.4,6.5c-0.6,0.3-1,1-1.1,1.7v0.3c0,0.4,0.1,0.9,0.3,1.2
	c0.6,0.5,1.2,1,1.8,1.3c6.3,4.1,9.9,6.2,10.9,6.2c0.5,0,0.8-0.5,0.8-1.6c-0.1-1-0.8-2-1.7-2.5c-0.6-0.4-1.3-0.9-1.9-1.2
	c-0.9-0.5-2.1-1.2-3.6-2.2c-1.5-1-2.3-1.4-2.3-1.5c0.4-0.3,0.8-0.5,1.3-0.8c0.8-0.5,2.1-1.3,3.9-2.4c1.8-1.1,2.6-1.7,2.7-1.7
	c0.8-0.5,1.4-1.3,1.5-2.3C24.8,24,24.6,23.5,24,23.5L24,23.5z"/>
<path class="st3" d="M28,43.3c0.6-1.8,2.8-7.4,9.6-23.3c0.1-0.2,0.2-0.3,0.3-0.5l0,0c-0.3,0.7-0.5,1.2-0.6,1.5
	c-0.1,0.2-0.1,0.3-0.1,0.4l-0.6,1.5c-0.4,1-0.7,1.7-0.9,2.1c-0.1,0.3-0.2,0.5-0.2,0.5l0-0.1c-0.1,0.1-0.3,0.7-3.2,7.9
	c-2.6,6.4-3.3,8.2-3.5,8.6C28.6,42.4,28.3,42.8,28,43.3z"/>
<path class="st0" d="M38,17.9c-0.8,0-1.4,0.5-1.8,1.5C29.6,34.8,26.3,43,26.3,44v0.2c0,0.4,0.5,0.6,1.4,0.6h0.6
	c0.6,0,1.2-0.8,1.9-2.3c0.2-0.6,1.4-3.4,3.5-8.6c2.1-5.2,3.2-7.8,3.2-7.8c0,0,0.1-0.2,0.2-0.6c0.1-0.4,0.4-1.1,0.8-2l0.6-1.5
	c0-0.1,0.1-0.3,0.2-0.5c0.1-0.2,0.3-0.7,0.5-1.3c0.2-0.4,0.4-0.9,0.4-1.4v-0.3C39.6,18.1,39.1,17.9,38,17.9L38,17.9z"/>
<path class="st3" d="M42.5,39.2c0.2-0.3,0.5-0.5,0.8-0.7c0.1-0.1,0.7-0.5,3.9-2.4c4.5-2.7,4.5-2.7,4.5-3.6c0-0.9,0-0.9-4.5-3.7
	c-3.3-2.1-3.9-2.5-4-2.6c-0.2-0.2-0.4-0.4-0.6-0.6l0.1,0.1c3.4,1.9,6.8,4,9.9,6.2c0.2,0.1,0.3,0.4,0.3,0.6c0,0.2,0,0.4-0.4,0.6
	C49.1,35.3,45.8,37.4,42.5,39.2z"/>
<path class="st0" d="M41.8,23.4c-0.6,0-0.9,0.5-0.9,1.4c0,1,0.6,1.9,1.4,2.5c0.2,0.2,1.6,1.1,4.2,2.7c2.6,1.6,3.8,2.4,3.8,2.5
	c0,0-1.3,0.8-3.8,2.4c-2.5,1.5-3.9,2.4-4.1,2.5c-1,0.8-1.6,1.6-1.6,2.3v0.3c0,0.9,0.3,1.4,0.8,1.4c0.4-0.1,0.8-0.2,1.1-0.4
	c3.4-1.9,7-4.1,10.7-6.5c0.7-0.4,1.1-1.1,1.1-1.9c0-0.7-0.3-1.4-0.9-1.8c-3.2-2.3-6.6-4.4-10.1-6.3C42.9,23.9,42.4,23.6,41.8,23.4z"
	/>
</svg>
