<?xml version="1.0" encoding="utf-8"?>
<!-- Generator: Adobe Illustrator 21.1.0, SVG Export Plug-In . SVG Version: 6.00 Build 0)  -->
<svg version="1.1" id="Layer_1" xmlns="http://www.w3.org/2000/svg" xmlns:xlink="http://www.w3.org/1999/xlink" x="0px" y="0px"
	 viewBox="0 0 144 144" style="enable-background:new 0 0 144 144;" xml:space="preserve">
<style type="text/css">
	.st0{fill:#7ED257;}
	.st1{fill:#242424;}
	.st2{fill:#FFFFFF;}
	.st3{fill:none;stroke:#242424;stroke-width:3;stroke-linecap:square;stroke-miterlimit:10;}
	.st4{fill:none;stroke:#242424;stroke-width:3;stroke-miterlimit:10;}
</style>
<title>aa</title>
<path class="st0" d="M134.5,134.5C122,147,100.7,146,89.6,134.9c-6.7-6.7-7.6-27.9,4.9-40.4s34.4-10.9,40.4-4.9
	C146,100.7,147,122,134.5,134.5z"/>
<path class="st1" d="M112,83c16,0,29,13,29,29s-13,29-29,29s-29-13-29-29l0,0C83,96,96,83,112,83 M112,80c-17.7,0-32,14.3-32,32
	s14.3,32,32,32s32-14.3,32-32S129.7,80,112,80z"/>
<path class="st2" d="M103.4,119.4c-3.2-1.7-6.3-3.5-9.2-5.6c-0.5-0.3-1-0.7-1.5-1c0-0.1,0-0.2,0-0.3v-0.3c0,0,0.1-0.2,0.4-0.4
	c3-2.1,6.4-4.2,10.1-6.3c-0.2,0.3-0.5,0.5-0.7,0.7c-0.2,0.1-1.1,0.7-2.6,1.7c-1.7,1.1-3,1.9-3.8,2.4c-1.6,1-2,1.2-2,2.1
	c0,0.9,0,0.9,3,2.7c1.6,1,2.7,1.7,3.6,2.2c0.6,0.3,1.2,0.7,1.8,1.1C102.8,118.6,103.1,119,103.4,119.4z"/>
<path class="st1" d="M104,103.5c-0.5,0.1-1,0.3-1.4,0.5c-3.8,2.1-7.3,4.3-10.4,6.5c-0.6,0.3-1,1-1.1,1.7v0.3c0,0.4,0.1,0.9,0.3,1.2
	c0.6,0.5,1.2,1,1.8,1.3c6.3,4.1,9.9,6.2,10.9,6.2c0.5,0,0.8-0.5,0.8-1.6c-0.1-1-0.8-2-1.7-2.5c-0.6-0.4-1.3-0.9-1.9-1.2
	c-0.9-0.5-2.1-1.2-3.6-2.2c-1.5-1-2.3-1.4-2.3-1.5c0.4-0.3,0.8-0.5,1.3-0.8c0.8-0.5,2.1-1.3,3.9-2.4c1.8-1.1,2.6-1.7,2.7-1.7
	c0.8-0.5,1.4-1.3,1.5-2.3C104.8,104,104.6,103.5,104,103.5L104,103.5z"/>
<path class="st2" d="M108,123.3c0.6-1.8,2.8-7.4,9.6-23.3c0.1-0.2,0.2-0.3,0.3-0.5l0,0c-0.3,0.7-0.5,1.2-0.6,1.5
	c-0.1,0.2-0.1,0.3-0.1,0.4l-0.6,1.5c-0.4,1-0.7,1.7-0.9,2.1c-0.1,0.3-0.2,0.5-0.2,0.5l0-0.1c-0.1,0.1-0.3,0.7-3.2,7.9
	c-2.6,6.4-3.3,8.2-3.5,8.6C108.6,122.4,108.3,122.8,108,123.3z"/>
<path class="st1" d="M118,97.9c-0.8,0-1.4,0.5-1.8,1.5c-6.6,15.4-9.9,23.6-9.9,24.6v0.2c0,0.4,0.5,0.6,1.4,0.6h0.6
	c0.6,0,1.2-0.8,1.9-2.3c0.2-0.6,1.4-3.4,3.5-8.6c2.1-5.2,3.2-7.8,3.2-7.8c0,0,0.1-0.2,0.2-0.6c0.1-0.4,0.4-1.1,0.8-2l0.6-1.5
	c0-0.1,0.1-0.3,0.2-0.5c0.1-0.2,0.3-0.7,0.5-1.3c0.2-0.4,0.4-0.9,0.4-1.4v-0.3C119.6,98.1,119.1,97.9,118,97.9L118,97.9z"/>
<path class="st2" d="M122.5,119.2c0.2-0.3,0.5-0.5,0.8-0.7c0.1-0.1,0.7-0.5,3.9-2.4c4.5-2.7,4.5-2.7,4.5-3.6c0-0.9,0-0.9-4.5-3.7
	c-3.3-2.1-3.9-2.5-4-2.6c-0.2-0.2-0.4-0.4-0.6-0.6l0.1,0.1c3.4,1.9,6.8,4,9.9,6.2c0.2,0.1,0.3,0.4,0.3,0.6c0,0.2,0,0.4-0.4,0.6
	C129.1,115.3,125.8,117.4,122.5,119.2z"/>
<path class="st1" d="M121.8,103.4c-0.6,0-0.9,0.5-0.9,1.4c0,1,0.6,1.9,1.4,2.5c0.2,0.2,1.6,1.1,4.2,2.7c2.6,1.6,3.8,2.4,3.8,2.5
	c0,0-1.3,0.8-3.8,2.4c-2.5,1.5-3.9,2.4-4.1,2.5c-1,0.8-1.6,1.6-1.6,2.3v0.3c0,0.9,0.3,1.4,0.8,1.4c0.4-0.1,0.8-0.2,1.1-0.4
	c3.4-1.9,7-4.1,10.7-6.5c0.7-0.4,1.1-1.1,1.1-1.9c0-0.7-0.3-1.4-0.9-1.8c-3.2-2.3-6.6-4.4-10.1-6.3
	C122.9,103.9,122.4,103.6,121.8,103.4z"/>
<path class="st0" d="M54.5,54.5C42,67,20.7,66,9.6,54.9C2.9,48.1,2,27,14.5,14.5S48.8,3.6,54.9,9.6C66,20.7,67,42,54.5,54.5z"/>
<path class="st1" d="M32,3c16,0,29,13,29,29S48,61,32,61S3,48,3,32S16,3,32,3 M32,0C14.3,0,0,14.3,0,32s14.3,32,32,32s32-14.3,32-32
	S49.7,0,32,0z"/>
<path class="st2" d="M23.4,39.4c-3.2-1.7-6.3-3.5-9.2-5.6c-0.5-0.3-1-0.7-1.5-1c0-0.1,0-0.2,0-0.3v-0.3c0,0,0.1-0.2,0.4-0.4
	c3-2.1,6.4-4.2,10.1-6.3c-0.2,0.3-0.5,0.5-0.7,0.7c-0.2,0.1-1.1,0.7-2.6,1.7c-1.7,1.1-3,1.9-3.8,2.4c-1.6,1-2,1.2-2,2.1
	c0,0.9,0,0.9,3,2.7c1.6,1,2.7,1.7,3.6,2.2c0.6,0.3,1.2,0.7,1.8,1.1C22.8,38.6,23.1,39,23.4,39.4z"/>
<path class="st1" d="M24,23.5c-0.5,0.1-1,0.3-1.4,0.5c-3.8,2.1-7.3,4.3-10.4,6.5c-0.6,0.3-1,1-1.1,1.7v0.3c0,0.4,0.1,0.9,0.3,1.2
	c0.6,0.5,1.2,1,1.8,1.3c6.3,4.1,9.9,6.2,10.9,6.2c0.5,0,0.8-0.5,0.8-1.6c-0.1-1-0.8-2-1.7-2.5c-0.6-0.4-1.3-0.9-1.9-1.2
	c-0.9-0.5-2.1-1.2-3.6-2.2c-1.5-1-2.3-1.4-2.3-1.5c0.4-0.3,0.8-0.5,1.3-0.8c0.8-0.5,2.1-1.3,3.9-2.4c1.8-1.1,2.6-1.7,2.7-1.7
	c0.8-0.5,1.4-1.3,1.5-2.3C24.8,24,24.6,23.5,24,23.5L24,23.5z"/>
<path class="st2" d="M28,43.3c0.6-1.8,2.8-7.4,9.6-23.3c0.1-0.2,0.2-0.3,0.3-0.5l0,0c-0.3,0.7-0.5,1.2-0.6,1.5
	c-0.1,0.2-0.1,0.3-0.1,0.4l-0.6,1.5c-0.4,1-0.7,1.7-0.9,2.1c-0.1,0.3-0.2,0.5-0.2,0.5l0-0.1c-0.1,0.1-0.3,0.7-3.2,7.9
	c-2.6,6.4-3.3,8.2-3.5,8.6C28.6,42.4,28.3,42.8,28,43.3z"/>
<path class="st1" d="M38,17.9c-0.8,0-1.4,0.5-1.8,1.5C29.6,34.8,26.3,43,26.3,44v0.2c0,0.4,0.5,0.6,1.4,0.6h0.6
	c0.6,0,1.2-0.8,1.9-2.3c0.2-0.6,1.4-3.4,3.5-8.6c2.1-5.2,3.2-7.8,3.2-7.8c0,0,0.1-0.2,0.2-0.6c0.1-0.4,0.4-1.1,0.8-2l0.6-1.5
	c0-0.1,0.1-0.3,0.2-0.5c0.1-0.2,0.3-0.7,0.5-1.3c0.2-0.4,0.4-0.9,0.4-1.4v-0.3C39.6,18.1,39.1,17.9,38,17.9L38,17.9z"/>
<path class="st2" d="M42.5,39.2c0.2-0.3,0.5-0.5,0.8-0.7c0.1-0.1,0.7-0.5,3.9-2.4c4.5-2.7,4.5-2.7,4.5-3.6c0-0.9,0-0.9-4.5-3.7
	c-3.3-2.1-3.9-2.5-4-2.6c-0.2-0.2-0.4-0.4-0.6-0.6l0.1,0.1c3.4,1.9,6.8,4,9.9,6.2c0.2,0.1,0.3,0.4,0.3,0.6c0,0.2,0,0.4-0.4,0.6
	C49.1,35.3,45.8,37.4,42.5,39.2z"/>
<path class="st1" d="M41.8,23.4c-0.6,0-0.9,0.5-0.9,1.4c0,1,0.6,1.9,1.4,2.5c0.2,0.2,1.6,1.1,4.2,2.7c2.6,1.6,3.8,2.4,3.8,2.5
	c0,0-1.3,0.8-3.8,2.4c-2.5,1.5-3.9,2.4-4.1,2.5c-1,0.8-1.6,1.6-1.6,2.3v0.3c0,0.9,0.3,1.4,0.8,1.4c0.4-0.1,0.8-0.2,1.1-0.4
	c3.4-1.9,7-4.1,10.7-6.5c0.7-0.4,1.1-1.1,1.1-1.9c0-0.7-0.3-1.4-0.9-1.8c-3.2-2.3-6.6-4.4-10.1-6.3C42.9,23.9,42.4,23.6,41.8,23.4z"
	/>
<line class="st3" x1="119.7" y1="60.7" x2="114.3" y2="68"/>
<line class="st3" x1="107.1" y1="62.7" x2="114.3" y2="68"/>
<path class="st4" d="M76.4,28.9c20.8,0,37.6,16.8,37.6,37.6c0,0,0,0,0,0c0,0,0,0,0,0"/>
<line class="st3" x1="24.3" y1="83.3" x2="29.6" y2="76"/>
<line class="st3" x1="36.8" y1="81.3" x2="29.6" y2="76"/>
<path class="st4" d="M67.6,115.1C46.8,115.1,30,98.3,30,77.5l0,0c0,0,0,0,0,0"/>
</svg>
