<svg xmlns="http://www.w3.org/2000/svg" viewBox="0 0 600 200"><defs><style>.cls-1{fill:none;}.cls-2{fill:#7ed257;}.cls-3,.cls-7{fill:#242424;}.cls-4{fill:#fff;}.cls-5{fill:#28b655;}.cls-6{opacity:0.1;}.cls-7{opacity:0.4;isolation:isolate;}</style></defs><title>continuous-delivery</title><g id="Layer_2" data-name="Layer 2"><g id="Layer_1-2" data-name="Layer 1"><rect class="cls-1" width="600" height="200"/><path class="cls-2" d="M46.85487,45.0337c-9.46317,9.46316-25.5884,8.70611-33.99169.30282-5.07226-5.148-5.7536-21.12179,3.70956-30.58495s25.96692-8.25188,30.585-3.70956C55.561,19.4453,56.318,35.57053,46.85487,45.0337Z"/><path class="cls-3" d="M29.82117,6.04546A21.95454,21.95454,0,1,1,7.86663,28,21.97032,21.97032,0,0,1,29.82117,6.04546m0-2.27116A24.2257,24.2257,0,1,0,54.04687,28,24.19969,24.19969,0,0,0,29.82117,3.7743Z"/><path class="cls-4" d="M22.96224,33.60219a58.89009,58.89009,0,0,1-6.96489-4.23949c-.37852-.22712-.75705-.52994-1.13558-.75706v-.45423a.90675.90675,0,0,1,.30282-.30282c2.27116-1.58981,4.84514-3.17962,7.64624-4.76943a3.49821,3.49821,0,0,1-.52994.52994c-.15141.0757-.83276.52993-1.96834,1.287-1.287.83275-2.27116,1.4384-2.8768,1.81692-1.21128.75706-1.5141.90847-1.5141,1.58982s0,.68134,2.27116,2.044c1.21128.757,2.044,1.287,2.72539,1.66552a13.16712,13.16712,0,0,1,1.36269.83275A3.40945,3.40945,0,0,1,22.96224,33.60219Z"/><path class="cls-3" d="M23.87717,21.56505a4.37742,4.37742,0,0,0-1.05988.37852,83.2483,83.2483,0,0,0-7.87335,4.92085,1.71365,1.71365,0,0,0-.83276,1.287v.22712a1.79829,1.79829,0,0,0,.22712.90846,7.68423,7.68423,0,0,0,1.36269.98417c4.76944,3.10392,7.49483,4.69373,8.25188,4.69373.37853,0,.60564-.37853.60564-1.21128a2.58031,2.58031,0,0,0-1.287-1.89264,15.07884,15.07884,0,0,0-1.4384-.90846c-.68135-.37853-1.58981-.90847-2.72539-1.66552s-1.74122-1.05987-1.74122-1.13558a11.206,11.206,0,0,1,.98417-.60564q.90846-.5678,2.9525-1.81693c1.3627-.83276,1.96834-1.287,2.044-1.287a2.33569,2.33569,0,0,0,1.13558-1.74122c0-.75706-.15141-1.13558-.60564-1.13558Z"/><path class="cls-4" d="M26.44746,36.5547c.45423-1.3627,2.11975-5.60219,7.26771-17.63934.0757-.15141.15141-.22711.22712-.37852h0q-.34068.7949-.45424,1.13558a.57229.57229,0,0,0-.0757.30282l-.45423,1.13558q-.45423,1.13557-.68135,1.58981a3.18215,3.18215,0,0,1-.15141.37852v-.0757c-.0757.0757-.22712.52994-2.42257,5.98072-1.96834,4.84514-2.49828,6.20783-2.64969,6.51066A7.56514,7.56514,0,0,1,26.44746,36.5547Z"/><path class="cls-3" d="M33.95387,17.22789q-.88039,0-1.32059,1.13558Q25.37,35.85139,25.37,36.987v.15141c0,.30283.36683.45424,1.02713.45424h.44019c.4402,0,.8804-.60565,1.394-1.74123.14673-.45423,1.02712-2.574,2.56781-6.51065s2.34771-5.905,2.34771-5.905a2.49352,2.49352,0,0,0,.14673-.45423,12.352,12.352,0,0,1,.58693-1.5141l.4402-1.13558a1.30346,1.30346,0,0,1,.14673-.37853,9.4577,9.4577,0,0,0,.36683-.98417,2.52359,2.52359,0,0,0,.29346-1.05987v-.22712c0-.30282-.36683-.45423-1.17385-.45423Z"/><path class="cls-4" d="M37.77023,33.45078a2.04076,2.04076,0,0,1,.60564-.52993c.0757-.07571.52994-.37853,2.95251-1.81693,3.40674-2.044,3.40674-2.044,3.40674-2.72539s0-.68135-3.40674-2.8011c-2.49828-1.58981-2.95251-1.89263-3.02821-1.96834l-.45423-.45423.0757.0757a83.33422,83.33422,0,0,1,7.49482,4.69373.53961.53961,0,0,1,.22712.45423c0,.15141,0,.30283-.30282.45423C42.76678,30.49827,40.2685,32.08809,37.77023,33.45078Z"/><path class="cls-3" d="M37.386,21.48934c-.45423,0-.68134.37853-.68134,1.05988a2.44546,2.44546,0,0,0,1.05987,1.89263q.22711.22712,3.17963,2.044a22.4806,22.4806,0,0,1,2.8768,1.89264s-.98417.60564-2.8768,1.81693c-1.89264,1.13557-2.95251,1.81692-3.10392,1.89263-.757.60564-1.21129,1.21128-1.21129,1.74122v.22712c0,.68134.22712,1.05987.60565,1.05987a2.71177,2.71177,0,0,0,.83275-.30282c2.574-1.4384,5.29938-3.10392,8.10047-4.92085a1.6794,1.6794,0,0,0,.15141-2.80109A71.84961,71.84961,0,0,0,38.673,22.3221,3.10916,3.10916,0,0,0,37.386,21.48934Z"/><path class="cls-2" d="M592.5156,191.70059c-9.46316,9.46316-25.58839,8.70611-33.99168.30282-5.07226-5.148-5.75361-21.12178,3.70956-30.58495s25.96692-8.25188,30.58494-3.70956C601.22171,166.11219,601.97877,182.23742,592.5156,191.70059Z"/><path class="cls-3" d="M575.48191,152.71235a21.95454,21.95454,0,1,1-21.95455,21.95454,21.97032,21.97032,0,0,1,21.95455-21.95454m0-2.27116a24.2257,24.2257,0,1,0,24.2257,24.2257A24.19969,24.19969,0,0,0,575.48191,150.44119Z"/><path class="cls-4" d="M568.623,180.26909a58.89149,58.89149,0,0,1-6.96489-4.2395c-.37853-.22712-.75706-.52994-1.13558-.75705v-.45424a.90662.90662,0,0,1,.30282-.30282c2.27116-1.58981,4.84514-3.17962,7.64624-4.76943a3.49821,3.49821,0,0,1-.52994.52994c-.15141.0757-.83276.52993-1.96834,1.287-1.287.83276-2.27116,1.4384-2.8768,1.81692-1.21129.75706-1.51411.90847-1.51411,1.58982s0,.68135,2.27116,2.044c1.21129.75705,2.04405,1.287,2.72539,1.66552a13.16791,13.16791,0,0,1,1.3627.83275A3.40979,3.40979,0,0,1,568.623,180.26909Z"/><path class="cls-3" d="M569.5379,168.23194a4.37708,4.37708,0,0,0-1.05987.37853,83.24625,83.24625,0,0,0-7.87335,4.92084,1.7136,1.7136,0,0,0-.83276,1.287v.22712a1.79828,1.79828,0,0,0,.22711.90846,7.68464,7.68464,0,0,0,1.3627.98417c4.76943,3.10392,7.49482,4.69373,8.25188,4.69373.37852,0,.60564-.37853.60564-1.21128a2.58034,2.58034,0,0,0-1.287-1.89264,15.07884,15.07884,0,0,0-1.4384-.90846c-.68135-.37853-1.58981-.90847-2.72539-1.66552s-1.74123-1.05987-1.74123-1.13558a11.21139,11.21139,0,0,1,.98417-.60564q.90848-.5678,2.95251-1.81693c1.3627-.83276,1.96834-1.287,2.044-1.287a2.33562,2.33562,0,0,0,1.13558-1.74122c0-.75705-.15141-1.13558-.60564-1.13558Z"/><path class="cls-4" d="M572.1082,183.22159c.45423-1.36269,2.11975-5.60219,7.26771-17.63934.0757-.15141.15141-.22711.22711-.37852h0q-.34067.79489-.45423,1.13558a.57229.57229,0,0,0-.0757.30282l-.45423,1.13558q-.45425,1.13557-.68135,1.58981a3.18489,3.18489,0,0,1-.15141.37853v-.07571c-.07571.07571-.22712.52994-2.42257,5.98072-1.96834,4.84514-2.49828,6.20784-2.64969,6.51066A7.56613,7.56613,0,0,1,572.1082,183.22159Z"/><path class="cls-3" d="M579.6146,163.89478q-.88038,0-1.32058,1.13558-7.26324,17.48792-7.26324,18.6235v.15142c0,.30282.36683.45423,1.02712.45423h.4402c.4402,0,.88039-.60565,1.394-1.74123.14674-.45423,1.02713-2.574,2.56781-6.51065s2.34772-5.905,2.34772-5.905a2.49352,2.49352,0,0,0,.14673-.45423,12.34859,12.34859,0,0,1,.58693-1.5141l.44019-1.13558a1.30375,1.30375,0,0,1,.14673-.37853,9.45532,9.45532,0,0,0,.36683-.98417,2.52345,2.52345,0,0,0,.29347-1.05987V164.349c0-.30282-.36683-.45423-1.17386-.45423Z"/><path class="cls-4" d="M583.431,180.11767a2.04093,2.04093,0,0,1,.60565-.52993c.0757-.07571.52993-.37853,2.9525-1.81693,3.40674-2.044,3.40674-2.044,3.40674-2.72539s0-.68135-3.40674-2.8011c-2.49827-1.58981-2.9525-1.89263-3.02821-1.96834l-.45423-.45423.07571.07571a83.33188,83.33188,0,0,1,7.49482,4.69372.5396.5396,0,0,1,.22711.45423c0,.15142,0,.30283-.30282.45424C588.42751,177.16517,585.92924,178.755,583.431,180.11767Z"/><path class="cls-3" d="M583.04669,168.15623c-.45423,0-.68135.37853-.68135,1.05988a2.44544,2.44544,0,0,0,1.05988,1.89263q.22712.22711,3.17962,2.044a22.47963,22.47963,0,0,1,2.8768,1.89264s-.98417.60564-2.8768,1.81693c-1.89263,1.13558-2.95251,1.81692-3.10392,1.89263-.757.60564-1.21128,1.21128-1.21128,1.74122v.22712c0,.68134.22712,1.05987.60564,1.05987a2.71193,2.71193,0,0,0,.83276-.30282c2.574-1.4384,5.29937-3.10392,8.10047-4.92085a1.6794,1.6794,0,0,0,.15141-2.80109,71.84875,71.84875,0,0,0-7.64624-4.76944A3.1092,3.1092,0,0,0,583.04669,168.15623Z"/><g id="Layer_2-2" data-name="Layer 2"><g id="Layer_1-2-2" data-name="Layer 1-2"><line class="cls-1" x1="296.96386" y1="49.68675" x2="296.96386" y2="34.07229"/><rect class="cls-5" x="296.53012" y="34.07229" width="0.86747" height="15.61446"/><line class="cls-1" x1="296.96386" y1="31.90361" x2="296.96386" y2="28.43373"/><rect class="cls-5" x="296.53012" y="28.43373" width="0.86747" height="3.46988"/><line class="cls-1" x1="299.56627" y1="46.21687" x2="299.56627" y2="49.68675"/><rect class="cls-5" x="299.13253" y="46.21687" width="0.86747" height="3.46988"/><line class="cls-1" x1="299.56627" y1="43.61446" x2="299.56627" y2="28.86747"/><rect class="cls-5" x="299.13253" y="28.86747" width="0.86747" height="14.74699"/><line class="cls-1" x1="294.36145" y1="49.25301" x2="294.36145" y2="44.91566"/><rect class="cls-5" x="293.92771" y="44.91566" width="0.86747" height="4.33735"/><line class="cls-1" x1="294.36145" y1="43.18072" x2="294.36145" y2="29.3012"/><rect class="cls-5" x="293.92771" y="29.3012" width="0.86747" height="13.87952"/><line class="cls-1" x1="302.16867" y1="29.3012" x2="302.16867" y2="31.90361"/><rect class="cls-5" x="301.73494" y="29.3012" width="0.86747" height="2.60241"/><line class="cls-1" x1="302.16867" y1="33.63855" x2="302.16867" y2="45.78313"/><rect class="cls-5" x="301.73494" y="33.63855" width="0.86747" height="12.14458"/><line class="cls-1" x1="304.77108" y1="44.04819" x2="304.77108" y2="30.16867"/><rect class="cls-5" x="304.33735" y="30.16867" width="0.86747" height="13.87952"/><line class="cls-1" x1="307.37349" y1="31.03614" x2="307.37349" y2="40.57831"/><rect class="cls-5" x="306.93976" y="31.03614" width="0.86747" height="9.54217"/><line class="cls-1" x1="309.9759" y1="35.37349" x2="309.9759" y2="31.90361"/><rect class="cls-5" x="309.54217" y="31.90361" width="0.86747" height="3.46988"/><line class="cls-1" x1="309.9759" y1="36.24096" x2="309.9759" y2="39.71084"/><rect class="cls-5" x="309.54217" y="36.24096" width="0.86747" height="3.46988"/><line class="cls-1" x1="312.57831" y1="37.9759" x2="312.57831" y2="32.77108"/><rect class="cls-5" x="312.14458" y="32.77108" width="0.86747" height="5.20482"/><line class="cls-1" x1="315.18072" y1="39.71084" x2="315.18072" y2="33.63855"/><rect class="cls-5" x="314.74699" y="33.63855" width="0.86747" height="6.07229"/><line class="cls-1" x1="317.78313" y1="41.01205" x2="317.78313" y2="34.93976"/><rect class="cls-5" x="317.3494" y="34.93976" width="0.86747" height="6.07229"/><line class="cls-1" x1="320.38554" y1="42.74699" x2="320.38554" y2="36.6747"/><rect class="cls-5" x="319.95181" y="36.6747" width="0.86747" height="6.07229"/><line class="cls-1" x1="322.98795" y1="45.3494" x2="322.98795" y2="39.27711"/><rect class="cls-5" x="322.55422" y="39.27711" width="0.86747" height="6.07229"/><line class="cls-1" x1="325.59036" y1="47.95181" x2="325.59036" y2="41.87952"/><rect class="cls-5" x="325.15663" y="42.74699" width="0.86747" height="6.07229"/><line class="cls-1" x1="328.19277" y1="55.3253" x2="328.19277" y2="46.21687"/><rect class="cls-5" x="327.75904" y="46.21687" width="0.86747" height="9.10843"/><line class="cls-1" x1="291.75904" y1="32.77108" x2="291.75904" y2="29.3012"/><rect class="cls-5" x="291.3253" y="29.3012" width="0.86747" height="3.46988"/><line class="cls-1" x1="291.75904" y1="33.63855" x2="291.75904" y2="46.6506"/><rect class="cls-5" x="291.3253" y="33.63855" width="0.86747" height="13.01205"/><line class="cls-1" x1="289.15663" y1="44.04819" x2="289.15663" y2="30.16867"/><rect class="cls-5" x="288.72289" y="30.16867" width="0.86747" height="13.87952"/><line class="cls-1" x1="286.55422" y1="30.16867" x2="286.55422" y2="34.50602"/><rect class="cls-5" x="286.12048" y="30.16867" width="0.86747" height="4.33735"/><line class="cls-1" x1="286.55422" y1="35.37349" x2="286.55422" y2="40.57831"/><rect class="cls-5" x="286.12048" y="35.37349" width="0.86747" height="5.20482"/><line class="cls-1" x1="283.95181" y1="38.84337" x2="283.95181" y2="31.90361"/><rect class="cls-5" x="283.51807" y="31.90361" width="0.86747" height="6.93976"/><line class="cls-1" x1="281.3494" y1="39.71084" x2="281.3494" y2="32.77108"/><rect class="cls-5" x="280.91566" y="32.77108" width="0.86747" height="6.93976"/><line class="cls-1" x1="278.74699" y1="41.44578" x2="278.74699" y2="34.50602"/><rect class="cls-5" x="278.31325" y="34.50602" width="0.86747" height="6.93976"/><line class="cls-1" x1="276.14458" y1="43.18072" x2="276.14458" y2="36.24096"/><rect class="cls-5" x="275.71084" y="36.24096" width="0.86747" height="6.93976"/><line class="cls-1" x1="273.54217" y1="44.91566" x2="273.54217" y2="37.9759"/><rect class="cls-5" x="273.10843" y="37.9759" width="0.86747" height="6.93976"/><line class="cls-1" x1="270.93976" y1="48.38554" x2="270.93976" y2="39.71084"/><rect class="cls-5" x="270.50602" y="39.71084" width="0.86747" height="8.6747"/><line class="cls-1" x1="268.33736" y1="54.45783" x2="268.33736" y2="43.18072"/><rect class="cls-5" x="267.90362" y="43.18072" width="0.86747" height="11.27711"/><line class="cls-1" x1="265.73495" y1="58.79518" x2="265.73495" y2="47.51807"/><rect class="cls-5" x="265.30121" y="47.51807" width="0.86747" height="11.27711"/><path d="M296.96386,100a36.00258,36.00258,0,1,1,36.43373-36A36.22762,36.22762,0,0,1,296.96386,100Zm0-70.26506A34.26777,34.26777,0,1,0,331.66265,64,34.4877,34.4877,0,0,0,296.96386,29.73494Z"/><polygon class="cls-5" points="297.608 158.12 271.584 158.12 274.187 141.639 297.608 141.639 297.608 158.12"/><rect x="265.04085" y="148.97612" width="15.70141" height="1.73496" transform="translate(93.83705 404.52455) rotate(-83.66171)"/><polygon class="cls-5" points="296.096 141.639 319.518 141.639 322.12 158.12 296.096 158.12 296.096 141.639"/><rect x="319.94576" y="141.99289" width="1.73496" height="15.70141" transform="matrix(0.99389, -0.1104, 0.1104, 0.99389, -14.58152, 36.33327)"/><rect x="309.54217" y="142.07229" width="1.73494" height="15.61446"/><rect x="296.53012" y="142.07229" width="1.73494" height="15.61446"/><rect class="cls-4" x="320.38554" y="141.63855" width="1.73494" height="5.20482"/><rect x="238.49639" y="156.90603" width="115.98072" height="2.42892"/><path class="cls-4" d="M236.241,66.16867H356.81928a6.03493,6.03493,0,0,1,6.07229,6.07229v68.53012a6.03493,6.03493,0,0,1-6.07229,6.07229H236.241a6.03492,6.03492,0,0,1-6.07229-6.07229V72.241A6.03494,6.03494,0,0,1,236.241,66.16867Z"/><path d="M356.81928,67.90361a4.29522,4.29522,0,0,1,4.33735,4.33735v68.53012a4.29521,4.29521,0,0,1-4.33735,4.33735H236.241a4.29522,4.29522,0,0,1-4.33735-4.33735V72.241a4.29523,4.29523,0,0,1,4.33735-4.33735H356.81928m0-1.73494H236.241a6.03492,6.03492,0,0,0-6.07229,6.07229v68.53012a6.03492,6.03492,0,0,0,6.07229,6.07229H356.81928a6.03493,6.03493,0,0,0,6.07229-6.07229V72.241A6.03492,6.03492,0,0,0,356.81928,66.16867Z"/><rect x="308.41306" y="105.90132" width="1.73496" height="54.9983" transform="matrix(0.99389, -0.1104, 0.1104, 0.99389, -12.83671, 34.95956)"/><rect x="256.60551" y="132.50435" width="54.99829" height="1.73496" transform="translate(120.18332 401.0158) rotate(-83.66171)"/><rect x="284.12531" y="105.20482" width="25.15663" height="1.73494"/><rect x="278.92049" y="159.85542" width="35.56627" height="1.73494"/><polygon class="cls-4" points="287.161 106.072 306.246 106.072 312.318 160.723 281.089 160.723 287.161 106.072"/><path d="M313.27229,161.59036H280.135l6.24578-56.38554h20.64578Zm-31.22891-1.73494h29.32048l-5.8988-52.91566H287.94217Z"/><path class="cls-2" d="M302.77591,92.8a9.69716,9.69716,0,0,1-13.359.08674c-1.99518-1.99518-2.25542-8.32771,1.4747-12.05783s10.23615-3.20964,12.05783-1.4747A9.8936,9.8936,0,0,1,302.77591,92.8Z"/><path class="cls-3" d="M296.09639,77.44578a8.6747,8.6747,0,1,1-8.6747,8.6747h0a8.7002,8.7002,0,0,1,8.6747-8.6747m0-.86747a9.54217,9.54217,0,1,0,9.54216,9.54217,9.51468,9.51468,0,0,0-9.54216-9.54217Z"/><path class="cls-3" d="M296.09635,96.16276a10.04224,10.04224,0,1,1,10.042-10.04248A10.05355,10.05355,0,0,1,296.09635,96.16276Zm0-18.21679a8.17456,8.17456,0,1,0,8.1748,8.17431A8.18369,8.18369,0,0,0,296.09635,77.946Z"/><path class="cls-4" d="M293.494,88.28916a29.24049,29.24049,0,0,1-2.77591-1.6482c-.17349-.08674-.26024-.17349-.43373-.26024v-.17349a.085.085,0,0,1,.08675-.08675c.86747-.60722,1.90843-1.21446,3.03615-1.90843l-.17349.17349a2.62235,2.62235,0,0,0-.78072.52048,6.59158,6.59158,0,0,1-1.12772.694c-.52048.26024-.60722.347-.60722.60723s0,.26024.86747.78072a7.06038,7.06038,0,0,1,1.041.694,1.815,1.815,0,0,1,.52049.347C293.40724,88.11567,293.494,88.20241,293.494,88.28916Z"/><path class="cls-3" d="M293.75422,83.60482c-.17349,0-.26024.08674-.43374.17349-1.041.60723-2.08192,1.21446-3.12289,1.90843a.58572.58572,0,0,0-.347.52048V86.294a.52155.52155,0,0,0,.08675.347,1.81474,1.81474,0,0,0,.52048.347,15.58241,15.58241,0,0,0,3.20964,1.82168q.26024,0,.26024-.52048a1.26323,1.26323,0,0,0-.52048-.78072,3.77088,3.77088,0,0,0-.60723-.347,10.62519,10.62519,0,0,1-1.041-.694,2.60209,2.60209,0,0,0-.694-.43374c.08675-.08674.26024-.17349.347-.26024.26025-.17349.60723-.347,1.12772-.694l.78071-.52048a.88457.88457,0,0,0,.43374-.694c.17349-.08672.17349-.26022,0-.26022Z"/><path class="cls-4" d="M294.88193,89.50362c.17349-.52048.86747-2.16868,2.86266-6.93976,0-.08675.08675-.08675.08675-.1735h0a1.46552,1.46552,0,0,0-.17349.43374v.08674l-.17349.43374a2.073,2.073,0,0,1-.26025.60723c0,.08674,0,.08674-.08675.17349h0s-.08675.17349-.95422,2.34216c-.78072,1.90844-.95422,2.42892-1.041,2.60241S294.96869,89.33012,294.88193,89.50362Z"/><path class="cls-3" d="M297.91808,81.95663a.54979.54979,0,0,0-.52049.43373,76.82085,76.82085,0,0,0-2.94939,7.37349v.08675c0,.08674.17349.17349.43373.17349h.17349c.1735,0,.347-.26024.60723-.694q.13013-.26024,1.041-2.60241c.60723-1.56145.95422-2.34216.95422-2.34216,0-.08675.08676-.08675.08676-.1735.08675-.17349.17349-.43373.26024-.60722l.17349-.43374c0-.08674,0-.08674.08675-.17349s.08676-.26024.17349-.347a.65.65,0,0,0,.08676-.43374v-.08674a.732.732,0,0,0-.60724-.17349Z"/><path class="cls-4" d="M299.21928,88.28916c.08675-.08675.17349-.17349.26025-.17349a6.4197,6.4197,0,0,1,1.12771-.694c1.3012-.78073,1.3012-.78073,1.3012-1.041s0-.26025-1.3012-1.12772a11.64765,11.64765,0,0,0-1.21445-.78072l-.17349-.17349h0a33.5749,33.5749,0,0,1,2.94939,1.82168c.08675,0,.08675.08675.08675.17349s0,.08675-.08675.17349C301.21447,87.0747,300.1735,87.76868,299.21928,88.28916Z"/><path class="cls-3" d="M299.04579,83.51807c-.17349,0-.26024.17349-.26024.43374a1.0351,1.0351,0,0,0,.43373.78072c.08675.08675.52049.347,1.21445.78073a5.21742,5.21742,0,0,1,1.12772.78072,10.95107,10.95107,0,0,1-1.12772.694,7.01565,7.01565,0,0,0-1.21445.78072c-.26024.26025-.52048.52048-.52048.694v.08675c0,.26024.08675.43373.26024.43373.08675,0,.26024-.08674.347-.08674,1.041-.60723,2.08192-1.21446,3.20964-1.90843a.61939.61939,0,0,0,.26024-.86747c-.08675-.08675-.08675-.1735-.17349-.1735-.95422-.694-1.99518-1.3012-3.03614-1.90843A.98386.98386,0,0,0,299.04579,83.51807Z"/><line class="cls-1" x1="278.74699" y1="164.19277" x2="369.83133" y2="164.19277"/><rect x="278.74699" y="163.3253" width="82.40963" height="1.73494"/><rect x="234.50603" y="163.3253" width="35.56627" height="1.73494"/><rect x="251.85543" y="170.26506" width="79.80722" height="1.73494"/></g></g><path d="M299.87272,199.4738l-.084-2.99805c2.30371-.06543,4.63526-.21387,6.9292-.44336l.29883,2.98438C304.65152,199.25407,302.2482,199.40739,299.87272,199.4738Zm-6.13575-.01172c-2.3789-.07617-4.78173-.23926-7.1416-.48438l.30957-2.98437c2.28955.23828,4.62061.39648,6.92871.4707Zm19.36426-1.24316-.48242-2.96094c2.27734-.3711,4.56836-.8291,6.80859-1.36133l.69434,2.918C317.81119,197.36442,315.44889,197.83708,313.10123,198.21892Zm-32.5874-.06348c-2.35645-.39258-4.7168-.875-7.0166-1.43262l.708-2.916c2.22851.541,4.51709,1.00879,6.80175,1.38964Zm45.53223-2.94629-.874-2.86914c2.20117-.6709,4.40967-1.43262,6.56348-2.26367l1.08008,2.79883C330.5944,193.73259,328.31656,194.51774,326.04606,195.20915Zm-58.46582-.11523c-2.2754-.70313-4.55274-1.499-6.76954-2.36426l1.0918-2.79492c2.14942.83984,4.35791,1.61132,6.56348,2.29394Zm70.88232-4.60157-1.251-2.72656c2.08741-.957,4.17237-2.00684,6.19629-3.11914l1.44531,2.62891C342.76529,188.423,340.61539,189.50505,338.46256,190.49235Zm-83.30518-.17578c-2.15625-1.001-4.30517-2.09375-6.3872-3.25l1.456-2.62305c2.01953,1.1211,4.10352,2.18165,6.19385,3.15235Zm94.97559-6.15918-1.60352-2.53515c1.94434-1.2295,3.87159-2.54786,5.729-3.91993l1.78222,2.41407C354.12516,181.53044,352.13785,182.88981,350.133,184.15739Zm-106.63965-.2373c-2.00244-1.2793-3.98535-2.64942-5.894-4.07032l1.792-2.40625c1.85156,1.37891,3.7749,2.707,5.71729,3.94922ZM360.862,176.32438l-1.92578-2.30078c1.76563-1.47851,3.502-3.042,5.16065-4.64648l2.08593,2.15625C364.47281,173.18767,362.68277,174.8,360.862,176.32438Zm-128.0708-.293c-1.81543-1.53418-3.59863-3.1543-5.30029-4.81543l2.0957-2.14649c1.65039,1.61133,3.37989,3.18262,5.14112,4.6709ZM370.46158,167.132l-2.21386-2.02344c1.55859-1.70605,3.07324-3.48632,4.501-5.292l2.35352,1.86133C373.63,163.53923,372.06852,165.37419,370.46158,167.132Zm-147.229-.33594c-1.59277-1.75781-3.145-3.59961-4.61377-5.47265l2.36133-1.85156c1.42431,1.81835,2.93066,3.60449,4.47607,5.31054Zm155.52783-10.05029-2.46289-1.71289c1.31592-1.89209,2.58057-3.8584,3.75879-5.84375l2.58008,1.53125C381.42154,152.76726,380.11734,154.7946,378.76041,156.74577ZM214.986,156.37956c-1.34864-1.9585-2.64258-3.98926-3.84522-6.03613l2.58692-1.51953c1.166,1.98486,2.42089,3.95459,3.729,5.854Zm170.62207-11.03711-2.66944-1.36914c1.05225-2.05225,2.04346-4.17041,2.94483-6.29492l2.76172,1.17187C387.71549,141.04118,386.69352,143.22575,385.60807,145.34245ZM208.19889,144.964c-1.07422-2.11816-2.08545-4.30224-3.0044-6.49218l2.7666-1.16114c.89112,2.12354,1.8711,4.24219,2.91358,6.2959Zm182.67138-11.84521-2.8291-.99805c.7666-2.17285,1.46338-4.40283,2.07129-6.62695l2.89356.79C392.37955,128.57829,391.66129,130.87761,390.87027,133.11882Zm-187.86962-.36817c-.78223-2.2456-1.4917-4.54834-2.10889-6.84375l2.89746-.77832c.59814,2.2251,1.28564,4.45752,2.04443,6.63477Zm191.438-12.43457-2.9375-.60937c.46778-2.2544.85938-4.55713,1.16407-6.84473l2.97363.39551C395.32486,115.61686,394.92106,117.99138,394.43863,120.31608Zm-194.95556-.38232c-.47266-2.32373-.86719-4.7002-1.17285-7.0625l2.97558-.38477c.2959,2.29151.67871,4.59571,1.13672,6.84961ZM396.2609,107.153l-2.99219-.21289c.16309-2.29248.24561-4.62744.24561-6.93994v-.23194h3v.23194C396.51432,102.38347,396.42887,104.7902,396.2609,107.153Zm-198.54883-.38916c-.15039-2.23731-.22656-4.5127-.22656-6.76367l.001-.39209,3,.01171-.001.38038c0,2.18408.07373,4.39209.21973,6.5625ZM393.32,93.82048c-.146-2.30664-.37646-4.63135-.68555-6.90967l2.97266-.40332c.31885,2.34863.55664,4.74561.707,7.12353ZM200.6901,93.6696l-2.99414-.19336c.15332-2.37061.395-4.7666.71728-7.12256l2.97266.40723C201.07291,89.04606,200.83854,91.37028,200.6901,93.6696ZM391.653,81.0402c-.44971-2.26025-.98877-4.5332-1.60156-6.75537l2.8916-.79785c.63232,2.292,1.188,4.63623,1.65234,6.96729Zm-189.27637-.14746-2.9414-.59082c.46923-2.33545,1.0288-4.67871,1.66357-6.96484l2.89063.80273C203.37418,76.35612,202.83121,78.6281,202.37662,80.89274Zm185.915-12.29394c-.74853-2.17725-1.58642-4.35449-2.49072-6.47119l2.75879-1.17871c.93261,2.1831,1.79687,4.42871,2.56885,6.67431ZM205.758,68.45622l-2.83594-.97949c.77783-2.25049,1.64795-4.5,2.58643-6.68653l2.75683,1.1836C207.35514,64.09343,206.51188,66.27458,205.758,68.45622ZM383.298,56.736c-1.03516-2.06006-2.15772-4.10694-3.33643-6.08448l2.57715-1.53613c1.21533,2.03906,2.37256,4.1499,3.43994,6.27393Zm-172.51416-.16407-2.67774-1.35156c1.07129-2.12256,2.23438-4.23389,3.457-6.27588l2.57421,1.541C212.95133,52.466,211.82291,54.51384,210.78385,56.57194ZM376.76041,45.63933c-1.30078-1.90528-2.68652-3.78565-4.11865-5.58985l2.34961-1.86523c1.47656,1.85986,2.90527,3.79883,4.24658,5.76269Zm-159.40576-.168L214.881,43.77409c1.34326-1.95849,2.77685-3.89551,4.26074-5.75732l2.3457,1.87011C220.0485,41.69255,218.65787,43.57145,217.35465,45.47136Zm151.4458-9.96826c-1.54248-1.71583-3.16553-3.397-4.82471-4.9961l2.082-2.16015c1.71045,1.64892,3.38379,3.38183,4.97413,5.15039Zm-143.46-.15674-2.22656-2.01075c1.59277-1.76416,3.27-3.49316,4.98535-5.13964L230.17643,30.36C228.51285,31.9572,226.8859,33.63493,225.34049,35.34636Zm134.22266-8.83887c-1.75489-1.49561-3.58692-2.94678-5.44532-4.31348l1.77735-2.417c1.916,1.40869,3.80468,2.90527,5.61425,4.44727Zm-124.96729-.13574-1.94043-2.28809c1.813-1.5376,3.7041-3.02881,5.62061-4.43262l1.77246,2.4209C238.18912,23.43327,236.35465,24.88005,234.59586,26.37175Zm114.6167-7.55762c-1.94189-1.25146-3.95117-2.44629-5.97266-3.55176l1.43946-2.63183c2.08447,1.13964,4.15625,2.37158,6.1582,3.66211Zm-104.25879-.10645-1.62012-2.52539c1.99952-1.28222,4.07129-2.50878,6.15821-3.645l1.43457,2.63477C248.902,16.27409,246.89274,17.464,244.95377,18.70768Zm92.97217-6.14062c-2.09082-.98047-4.24268-1.896-6.39649-2.72168l1.07422-2.80078c2.22071.85107,4.43994,1.79541,6.59571,2.80566Zm-81.69287-.07471L254.96451,9.7736c2.15039-1.00342,4.36621-1.9414,6.58643-2.78857l1.06933,2.80273C260.46744,10.60954,258.31852,11.51921,256.23307,12.49235Zm69.665-4.60693c-2.19776-.68848-4.45069-1.30566-6.69629-1.83447l.6875-2.91993c2.31592.54541,4.63916,1.18165,6.90527,1.89209ZM268.24479,7.841l-.89258-2.86426c2.26855-.70655,4.59277-1.33985,6.90869-1.88135l.68359,2.9209C272.6984,6.54167,270.44449,7.15544,268.24479,7.841ZM313.3693,4.86735c-2.269-.38769-4.58447-.69775-6.88184-.92138l.291-2.98633c2.36865.231,4.75635.55078,7.0957.95068Zm-32.5918-.02441-.5-2.958c2.34229-.396,4.73-.7124,7.09717-.93945l.28662,2.98633C285.36539,4.152,283.04947,4.45866,280.7775,4.84294Zm19.771-1.29346c-1.19092-.043-2.40332-.08056-3.58838-.064q-1.68677,0-3.35889.0581l-.10351-2.998c1.16308-.04,2.32959-.07666,3.50293-.06006q1.83544,0,3.65527.06591Z"/><path d="M186.59977,88.17741l-1.88819-.69043,1.03028-2.81738L187.63,85.36Zm-7.523-2.75146-6.57422-2.4043,1.03027-2.81738,6.57422,2.40429Zm-12.209-4.46534-6.57422-2.40429,1.03028-2.81739,6.57422,2.4043Zm-12.209-4.46533L148.08463,74.091l1.03027-2.81739,6.57422,2.4043ZM142.44986,72.03l-6.57421-2.4043,1.03027-2.81738,6.57422,2.4043Zm-12.20947-4.46533-6.57373-2.4043,1.03027-2.81738,6.57374,2.4043Zm-12.209-4.46533-6.57373-2.4043,1.03027-2.81738,6.57373,2.40429Zm-12.209-4.46534L99.2482,56.22966l1.03028-2.81739,6.57422,2.4043Zm-12.209-4.46533-6.57422-2.40429,1.03027-2.81739,6.57422,2.4043Zm-12.209-4.46533L74.83024,47.299l1.03027-2.81738,6.57422,2.4043ZM69.19547,45.238l-6.57422-2.4043,1.03027-2.81738,6.57422,2.4043Z"/><rect x="59.71107" y="36.55939" width="15.57379" height="3.0002" transform="translate(-9.9191 34.728) rotate(-26.95288)"/><rect x="63.00561" y="38.87831" width="3.00032" height="16.37848" transform="translate(-13.25679 28.92) rotate(-22.98081)"/><path class="cls-3" d="M64.0644,130.17557H26.62631a12.90887,12.90887,0,0,1-3.34305-25.4403A10.10029,10.10029,0,0,1,36.28391,95.904a16.4145,16.4145,0,0,1,15.1426-9.02825,16.62514,16.62514,0,0,1,16.0156,16.14279,16.96583,16.96583,0,0,1-.05518,1.71034,12.84809,12.84809,0,0,1,9.77576,13.86193C76.53774,124.87025,70.5391,130.17557,64.0644,130.17557ZM33.33928,96.96819a8.63631,8.63631,0,0,0-8.58685,8.39279l-.01367.60225-.59078.11694a11.37639,11.37639,0,0,0-9.12052,12.40059,11.49718,11.49718,0,0,0,11.59885,10.1949H64.0644c5.7389,0,11.05351-4.68647,11.60621-10.23349A11.35964,11.35964,0,0,0,66.43193,106.058l-.69576-.13037.08984-.70234a14.96733,14.96733,0,0,0-28.47184-8.08543l-.292.64082-.65768-.25072A8.5732,8.5732,0,0,0,33.33928,96.96819Z"/><path class="cls-3" d="M26.35563,130.6779a13.40857,13.40857,0,0,1-3.53516-26.33838A10.6,10.6,0,0,1,34.2233,95.00407a10.67132,10.67132,0,0,1,1.8042.30811,16.96772,16.96772,0,0,1,31.91455,7.69238c.00781.4502-.001.8999-.02685,1.34375a13.383,13.383,0,0,1,9.74463,14.2959c-.64893,6.52-6.875,12.03125-13.59522,12.03125H26.62613C26.5358,130.67741,26.44547,130.6779,26.35563,130.6779Zm6.97754-34.71045a9.60125,9.60125,0,0,0-9.55127,8.80908l-.02979.3584-.34912.08594a12.40865,12.40865,0,0,0,3.21338,24.45459H64.06461c6.22949,0,12-5.09863,12.60059-11.13379a12.37967,12.37967,0,0,0-9.395-13.32666l-.417-.1001.03565-.42773a16.44106,16.44106,0,0,0,.05322-1.65967A16.15973,16.15973,0,0,0,51.40836,87.37517a15.98783,15.98783,0,0,0-14.67773,8.75341l-.18946.376-.40234-.12207a9.64169,9.64169,0,0,0-1.998-.38184Q33.73575,95.9677,33.33317,95.96745Zm-6.89551,33.20947a11.95138,11.95138,0,0,1-11.90674-10.63965,11.805,11.805,0,0,1,9.521-12.94775l.19628-.03906.0044-.20069a9.09934,9.09934,0,0,1,9.08447-8.88134h.00147a8.60064,8.60064,0,0,1,3.24414.59424l.21924.08349.09716-.21387a15.46733,15.46733,0,0,1,29.42285,8.356l-.03027.23438.23242.04394a11.90938,11.90938,0,0,1,9.64356,12.92871c-.57666,5.7876-6.11914,10.68018-12.103,10.68018H26.62613C26.56363,129.17643,26.50016,129.17692,26.43766,129.17692Zm6.90283-31.70849a8.102,8.102,0,0,0-8.08789,7.90674l-.023,1.00048-.98438.19483a10.8115,10.8115,0,0,0-8.7207,11.85595,10.97369,10.97369,0,0,0,11.09375,9.749H64.06461c5.49316,0,10.58008-4.48,11.1084-9.7832a10.90714,10.90714,0,0,0-8.83154-11.84278l-1.16114-.21728.14942-1.17041a14.46724,14.46724,0,0,0-27.52051-7.81494l-.48682,1.06787-1.0957-.41748a8.02984,8.02984,0,0,0-2.87109-.52881Z"/><path class="cls-3" d="M39.18463,117.33287h-1.4999c0-7.19193-6.63875-11.24563-11.43142-11.407a10.846,10.846,0,0,0-6.56843,2.09826l-.872-1.22063a12.30241,12.30241,0,0,1,7.49123-2.37656C32.52439,104.63616,39.18463,109.87216,39.18463,117.33287Z"/><path class="cls-3" d="M39.68473,117.83268h-2.5v-.5c0-6.87646-6.3584-10.75292-10.94824-10.90722a10.46557,10.46557,0,0,0-6.25635,2.00195l-.40821.29932-1.45312-2.03467.39844-.292a12.82691,12.82691,0,0,1,7.79541-2.47315c6.46191.21778,13.37207,5.65625,13.37207,13.40576Zm-1.51026-1h.5c-.28906-6.90478-6.54-11.709-12.3872-11.90625a12.08238,12.08238,0,0,0-6.77442,1.99708l.291.40722a11.4766,11.4766,0,0,1,6.45654-1.90478C31.153,105.5905,37.87565,109.63737,38.17447,116.83268Z"/><path class="cls-3" d="M40.38523,100.809a9.06629,9.06629,0,0,0-4.03442-3.262l.55465-1.39346a10.60473,10.60473,0,0,1,4.7209,3.81372Z"/><path class="cls-3" d="M40.25406,101.50261l-.28125-.41065a8.54239,8.54239,0,0,0-3.812-3.08252l-.45752-.188.92432-2.32226.46777.19189a11.07441,11.07441,0,0,1,4.94336,3.99366l.28369.41455Zm-3.26074-4.21826a9.52824,9.52824,0,0,1,3.5127,2.83886l.41357-.28027a10.07005,10.07005,0,0,0-3.74121-3.02344Z"/><path class="cls-3" d="M58.93387,117.49351l-.73726-1.30656a15.323,15.323,0,0,0,7.748-13.11295h1.4999A16.84582,16.84582,0,0,1,58.93387,117.49351Z"/><path class="cls-3" d="M58.74479,118.176l-1.229-2.17725.4336-.24609a14.87767,14.87767,0,0,0,7.49511-12.68555l.00684-.49316h2.49951l-.00635.50634a17.41015,17.41015,0,0,1-8.76318,14.84766Zm.12841-1.80762.24561.43555a16.41436,16.41436,0,0,0,7.811-13.23h-.5A15.88834,15.88834,0,0,1,58.8732,116.36833Z"/><path d="M85.01236,108.797l-.18164-2.99414,6.98731-.42334.18164,2.99414Zm12.97608-.78662-.18164-2.99414,6.9873-.42334.18164,2.99414Zm12.97607-.78662-.18164-2.99414,6.98731-.42334.18164,2.99414Zm12.97657-.78662-.18165-2.99414,6.98682-.42334.18164,2.99414Zm12.97607-.78662-.18164-2.99414,6.9873-.42334.18164,2.99414Zm12.97607-.78663-.18164-2.99414,6.98731-.42334.18164,2.99415Zm12.97608-.78613-.18164-2.99414,6.9873-.42383.18164,2.99414Zm12.97656-.78662-.18164-2.99414,6.98682-.42383.18164,2.99414Z"/><rect x="80.21446" y="100.4356" width="16.89318" height="2.99974" transform="matrix(0.6397, -0.76862, 0.76862, 0.6397, -46.40556, 104.87372)"/><rect x="87.55426" y="103.69078" width="3.00019" height="16.3097" transform="translate(-53.40261 99.75696) rotate(-46.62189)"/><rect class="cls-4" x="557.46891" y="4.59652" width="32.01462" height="63.18674" rx="4.78343" ry="4.78343"/><path class="cls-3" d="M584.7,68.36245H562.25242a5.3687,5.3687,0,0,1-5.3628-5.36252V9.37985a5.3687,5.3687,0,0,1,5.3628-5.36252H584.7a5.3687,5.3687,0,0,1,5.3628,5.36252V62.99993A5.3687,5.3687,0,0,1,584.7,68.36245ZM562.25242,5.17576A4.209,4.209,0,0,0,558.048,9.37985V62.99993a4.209,4.209,0,0,0,4.20438,4.20409H584.7a4.20894,4.20894,0,0,0,4.20437-4.20409V9.37985A4.20894,4.20894,0,0,0,584.7,5.17576Z"/><rect class="cls-4" x="559.99638" y="11.33644" width="26.95968" height="51.39189"/><path class="cls-3" d="M587.53524,63.30764H559.41716V10.75717h28.11808Zm-26.95965-1.15843h25.80123V11.9156H560.57559Z"/><rect class="cls-3" x="570.9488" y="7.38739" width="5.05481" height="1.15842"/><g class="cls-6"><rect class="cls-3" x="561.68136" y="17.23387" width="23.58972" height="7.58241"/></g><rect class="cls-2" x="562.52385" y="18.07636" width="5.89743" height="5.89743"/><rect class="cls-7" x="569.26377" y="18.33953" width="15.16472" height="1.15842"/><rect class="cls-7" x="569.26377" y="20.86708" width="15.16472" height="1.15842"/><path class="cls-5" d="M570.10626,13.86391h7.58241a.84248.84248,0,0,1,.84249.84249h0a.84248.84248,0,0,1-.84249.84249h-7.58241a.84248.84248,0,0,1-.84249-.84249h0A.84248.84248,0,0,1,570.10626,13.86391Z"/><g class="cls-6"><rect class="cls-3" x="561.68136" y="26.50126" width="23.58972" height="7.58241"/></g><rect class="cls-2" x="562.52385" y="27.34375" width="5.89743" height="5.89743"/><rect class="cls-7" x="569.26377" y="27.60692" width="15.16472" height="1.15842"/><rect class="cls-7" x="569.26377" y="30.13447" width="15.16472" height="1.15842"/><g class="cls-6"><rect class="cls-3" x="561.68136" y="35.76865" width="23.58972" height="7.58241"/></g><rect class="cls-2" x="562.52385" y="36.61114" width="5.89743" height="5.89743"/><rect class="cls-7" x="569.26377" y="36.87431" width="15.16472" height="1.15842"/><rect class="cls-7" x="569.26377" y="39.40186" width="15.16472" height="1.15842"/><g class="cls-6"><rect class="cls-3" x="561.68136" y="45.03603" width="23.58972" height="7.58241"/></g><rect class="cls-2" x="562.52385" y="45.87852" width="5.89743" height="5.89743"/><rect class="cls-7" x="569.26377" y="46.1417" width="15.16472" height="1.15842"/><rect class="cls-7" x="569.26377" y="48.66925" width="15.16472" height="1.15842"/><g class="cls-6"><rect class="cls-3" x="561.68136" y="54.30342" width="23.58972" height="7.58241"/></g><rect class="cls-2" x="562.52385" y="55.14591" width="5.89743" height="5.89743"/><rect class="cls-7" x="569.26377" y="55.40909" width="15.16472" height="1.15842"/><rect class="cls-7" x="569.26377" y="57.93664" width="15.16472" height="1.15842"/><path d="M401.14322,62.76433l-.542-2.9502,6.88477-1.26562.542,2.95019Zm12.78614-2.35059-.543-2.9502,6.88476-1.26611.543,2.9502Zm12.78515-2.35107-.542-2.9502,6.88477-1.26562.542,2.95019Zm12.78614-2.35059-.543-2.9502,6.88476-1.26611.543,2.9502ZM452.28629,53.361l-.543-2.9502,6.88477-1.26611.543,2.95019Zm12.78516-2.35108-.542-2.95019,6.88477-1.26563.542,2.9502Zm12.78613-2.35058-.543-2.9502,6.88477-1.26611.543,2.95019Zm12.78516-2.35108-.542-2.95019,6.88477-1.26563.542,2.9502Zm12.78564-2.35107-.542-2.9502,6.88476-1.26562.542,2.95019Zm12.78613-2.35059-.543-2.95019,6.88477-1.26612.543,2.9502Zm12.78516-2.35107-.542-2.9502,6.88476-1.26562.542,2.95019Zm12.78564-2.35108-.542-2.95019,6.88477-1.26563.542,2.9502Z"/><rect x="536.88938" y="38.44119" width="16.89391" height="3.00028" transform="translate(216.2286 476.60496) rotate(-57.1841)"/><rect x="542.24699" y="21.99656" width="2.99999" height="16.30946" transform="translate(196.57831 449.72702) rotate(-53.56855)"/><path d="M541.1525,172.43767l-6.80078-1.65918.71094-2.91407,6.80078,1.65918Zm-12.62939-3.08106-6.80078-1.65918.71093-2.91406,6.80078,1.65918Zm-12.62989-3.081-6.80029-1.65918.71094-2.91407,6.80029,1.65918Zm-12.62939-3.08106-6.80078-1.65918.71094-2.91406,6.80078,1.65918ZM490.634,160.11345l-6.8003-1.65967.71094-2.91406,6.80029,1.65918Zm-12.6294-3.08155-6.80029-1.65918.71094-2.91406,6.80029,1.65918Zm-12.62939-3.08105-6.80078-1.65918.71093-2.91406,6.80078,1.65918Zm-12.62989-3.08154-6.80029-1.6587.71094-2.91406,6.80029,1.65869Zm-12.62939-3.08106-6.80078-1.65918.71094-2.91406,6.80078,1.65918ZM427.486,144.7072l-6.8003-1.65918.71094-2.91407,6.80029,1.65918Zm-12.6294-3.08106-6.80029-1.65918.71094-2.91406,6.80029,1.65918Zm-12.62939-3.08105-4.14014-1.00977.71094-2.91455,4.14014,1.00928Z"/><rect x="527.90442" y="173.50108" width="16.89313" height="3.00012" transform="translate(-8.65307 320.83791) rotate(-33.05123)"/><rect x="537.40262" y="157.26203" width="2.99977" height="16.30977" transform="translate(-11.71503 286.2432) rotate(-29.44063)"/><path class="cls-3" d="M519.41276,98.22917c-9.93067,0-19.98389-2.67822-19.98389-7.79639s10.05322-7.79638,19.98389-7.79638c9.93115,0,19.98437,2.67822,19.98437,7.79638S529.34391,98.22917,519.41276,98.22917Zm0-12.92578c-10.57081,0-17.3169,3.03808-17.3169,5.12939s6.74609,5.1294,17.3169,5.1294c10.57128,0,17.31738-3.03809,17.31738-5.1294S529.984,85.30339,519.41276,85.30339Z"/><path class="cls-3" d="M519.41129,123.39811c-9.93115,0-19.98437-2.67822-19.98437-7.79638h2.667c0,2.09131,6.74609,5.12939,17.31738,5.12939s17.31738-3.03808,17.31738-5.12939h2.667C539.39567,120.71989,529.34244,123.39811,519.41129,123.39811Z"/><rect class="cls-3" x="499.42887" y="90.43278" width="2.66699" height="25.16895"/><rect class="cls-3" x="536.73014" y="90.43278" width="2.66699" height="25.16895"/><path class="cls-3" d="M519.41129,110.64665c-9.93115,0-19.98437-2.67822-19.98437-7.79639h2.667c0,2.09131,6.74609,5.1294,17.31738,5.1294s17.31738-3.03809,17.31738-5.1294h2.667C539.39567,107.96843,529.34244,110.64665,519.41129,110.64665Z"/><path d="M488.65494,104.39665l-6.999-.12451.05371-3,6.999.12451Zm-12.998-.231-6.999-.12451.05371-3,6.999.12451Zm-12.99756-.23095-6.99854-.124.05274-3,6.99853.124Zm-12.99756-.231-6.999-.124.05273-3,6.999.124Zm-12.99805-.231-6.999-.124.05273-3,6.999.124Zm-12.99853-.23047-6.999-.12451.05371-3,6.999.12451Zm-12.99805-.231-1.7207-.03125.05371-2.99952,1.7207.03125Z"/><rect x="476.08752" y="106.4521" width="16.89363" height="2.99994" transform="translate(69.113 379.70984) rotate(-45.75177)"/><rect x="483.41741" y="89.88674" width="2.99997" height="16.30937" transform="translate(59.55062 350.66785) rotate(-42.13626)"/><path class="cls-2" d="M138.52742,189.0337c-9.46316,9.46316-25.58839,8.70611-33.99168.30282-5.07226-5.148-5.75361-21.12179,3.70956-30.585s25.96692-8.25188,30.585-3.70956C147.23354,163.4453,147.99059,179.57053,138.52742,189.0337Z"/><path class="cls-3" d="M121.49373,150.04546A21.95454,21.95454,0,1,1,99.53919,172a21.97032,21.97032,0,0,1,21.95454-21.95454m0-2.27116A24.2257,24.2257,0,1,0,145.71943,172,24.19969,24.19969,0,0,0,121.49373,147.7743Z"/><path class="cls-4" d="M114.6348,177.60219a58.89009,58.89009,0,0,1-6.96489-4.23949c-.37853-.22712-.75705-.52994-1.13558-.75706v-.45423a.90675.90675,0,0,1,.30282-.30282c2.27116-1.58981,4.84514-3.17962,7.64624-4.76943a3.49821,3.49821,0,0,1-.52994.52994c-.15141.0757-.83276.52993-1.96834,1.287-1.287.83275-2.27116,1.4384-2.8768,1.81692-1.21128.75706-1.5141.90847-1.5141,1.58982s0,.68134,2.27115,2.044c1.21129.757,2.044,1.287,2.7254,1.66552a13.16712,13.16712,0,0,1,1.36269.83275A3.4097,3.4097,0,0,1,114.6348,177.60219Z"/><path class="cls-3" d="M115.54973,165.56505a4.37742,4.37742,0,0,0-1.05988.37852,83.2483,83.2483,0,0,0-7.87335,4.92085,1.71365,1.71365,0,0,0-.83276,1.287v.22712a1.79829,1.79829,0,0,0,.22712.90846,7.68423,7.68423,0,0,0,1.36269.98417c4.76944,3.10392,7.49483,4.69373,8.25188,4.69373.37853,0,.60564-.37853.60564-1.21128a2.58031,2.58031,0,0,0-1.287-1.89264,15.07884,15.07884,0,0,0-1.4384-.90846c-.68135-.37853-1.58981-.90847-2.72539-1.66552s-1.74122-1.05987-1.74122-1.13558a11.206,11.206,0,0,1,.98417-.60564q.90846-.5678,2.9525-1.81693c1.3627-.83276,1.96834-1.287,2.044-1.287a2.33569,2.33569,0,0,0,1.13558-1.74122c0-.75706-.15141-1.13558-.60564-1.13558Z"/><path class="cls-4" d="M118.12,180.5547c.45423-1.3627,2.11975-5.60219,7.26771-17.63934.0757-.15141.15141-.22711.22711-.37852h0q-.34066.79489-.45423,1.13558a.57229.57229,0,0,0-.0757.30282l-.45423,1.13558q-.45423,1.13558-.68135,1.58981a3.18215,3.18215,0,0,1-.15141.37852v-.0757c-.07571.0757-.22712.52994-2.42257,5.98072-1.96834,4.84514-2.49828,6.20783-2.64969,6.51066A7.56514,7.56514,0,0,1,118.12,180.5547Z"/><path class="cls-3" d="M125.62643,161.22789q-.88039,0-1.32059,1.13558-7.26324,17.48791-7.26324,18.6235v.15141c0,.30283.36683.45424,1.02713.45424h.44019c.4402,0,.88039-.60565,1.394-1.74123.14673-.45423,1.02712-2.574,2.56781-6.51065s2.34771-5.905,2.34771-5.905a2.49352,2.49352,0,0,0,.14673-.45423,12.352,12.352,0,0,1,.58693-1.5141l.44019-1.13558a1.30355,1.30355,0,0,1,.14674-.37853,9.46008,9.46008,0,0,0,.36683-.98417,2.52359,2.52359,0,0,0,.29346-1.05987v-.22712c0-.30282-.36683-.45423-1.17385-.45423Z"/><path class="cls-4" d="M129.44279,177.45078a2.04076,2.04076,0,0,1,.60564-.52993c.0757-.07571.52994-.37853,2.95251-1.81693,3.40674-2.044,3.40674-2.044,3.40674-2.72539s0-.68135-3.40674-2.8011c-2.49828-1.58981-2.95251-1.89263-3.02822-1.96834l-.45423-.45423.07571.0757a83.33422,83.33422,0,0,1,7.49482,4.69373.53961.53961,0,0,1,.22712.45423c0,.15141,0,.30283-.30282.45423C134.43934,174.49827,131.94106,176.08809,129.44279,177.45078Z"/><path class="cls-3" d="M129.05851,165.48934c-.45423,0-.68135.37853-.68135,1.05988a2.44547,2.44547,0,0,0,1.05988,1.89263q.22711.22711,3.17962,2.044a22.48038,22.48038,0,0,1,2.87681,1.89264s-.98417.60564-2.87681,1.81693c-1.89263,1.13557-2.9525,1.81692-3.10391,1.89263-.75706.60564-1.21129,1.21128-1.21129,1.74122v.22712c0,.68134.22712,1.05987.60565,1.05987a2.71177,2.71177,0,0,0,.83275-.30282c2.574-1.4384,5.29937-3.10392,8.10047-4.92085a1.6794,1.6794,0,0,0,.15141-2.80109,71.84875,71.84875,0,0,0-7.64624-4.76944A3.10914,3.10914,0,0,0,129.05851,165.48934Z"/><path d="M155.339,164.37028l-.74511-2.90625,6.78076-1.73828.74512,2.90625Zm12.59278-3.22754-.74512-2.90625,6.78076-1.73877.74512,2.90577Zm12.59277-3.22851-.74512-2.90625,6.78077-1.73828.74511,2.90625Zm12.59326-3.228-.74511-2.90625,6.78076-1.73779.74511,2.90625Z"/><rect x="149.17695" y="155.44193" width="16.893" height="3.00002" transform="translate(-55.91065 219.22446) rotate(-61.1365)"/><rect x="158.38475" y="158.44356" width="3.00034" height="16.3095" transform="translate(-66.50814 212.0336) rotate(-57.52604)"/></g></g></svg>