<svg xmlns="http://www.w3.org/2000/svg" viewBox="0 0 601.34328 156.78358"><defs><style>.cls-1{fill:none;}.cls-2{fill:#242424;}.cls-3{fill:#7ed257;}.cls-4{fill:#fff;}</style></defs><title>continuous-deploy</title><g id="Layer_2" data-name="Layer 2"><g id="Layer_1-2" data-name="Layer 1"><rect class="cls-1" x="1.34328" y="0.24674" width="600" height="156"/><path class="cls-2" d="M57.70508,132.10059C23.18994,118.24219,0,81.44629,0,40.53809H3c0,39.69482,22.43359,75.37207,55.82324,88.77832Z"/><path class="cls-2" d="M117.37158,131.90527l-1.13574-2.77636a82.39888,82.39888,0,0,0,25.96191-17.04639c-17.90429-18.37891-28.14453-44.36084-28.14453-71.54443,0-2.84913.10987-5.66065.32715-8.35694.11328-1.64306.293-3.42334.54785-5.42334v-.457l.36914-.44629,2.28418,1.94531-1.14209-.97265,1.48877.02588-.0122.19043c-.25391,1.98047-.43164,3.73437-.544,5.36133-.21191,2.6333-.31885,5.36425-.31885,8.1333,0,26.92773,10.32569,52.623,28.3291,70.49658l1.07129,1.06347-1.07031,1.06446A85.637,85.637,0,0,1,117.37158,131.90527Z"/><path class="cls-2" d="M170.65674,27.0625a32.79313,32.79313,0,0,0-2.37647-7.58105l2.7295-1.24463.001.00244h0l.001.00195a34.84508,34.84508,0,0,1,2.5957,8.28076Z"/><path class="cls-2" d="M170.87744,28.419c-.05762-.39747-.124-.78565-.19092-1.18067l-.03418-.19922,2.94532-.56738c.0874.40478.15039.80811.21289,1.22607l.03857.31055Z"/><path class="cls-2" d="M171.08691,30.14648c-.03466-.35644-.07959-.71-.12451-1.063l-.08789-.71582,2.9751-.38282c.08887.62256.16748,1.24854.22461,1.88184Z"/><path class="cls-2" d="M144.32617,114.21338l-1.05713-1.04981c-18.56689-18.4331-29.21582-44.9038-29.21582-72.62548,0-2.84913.10987-5.66065.32715-8.35694.11328-1.64306.293-3.42334.54785-5.42334v-.457l.10938-.13232C118.002,10.98193,130.24756,0,144.2915,0a27.24234,27.24234,0,0,1,5.49366.55762c.39209.08252.78027.17724,1.15625.272a26.15708,26.15708,0,0,1,2.73974.84277l.15137.05616c.32861.12207.66406.24755.98975.39306l.23437.08936c.32568.14258.65137.28613.97705.44189l.12061.05908c.40771.20166.73242.36329,1.05761.5376a2.85956,2.85956,0,0,1,.26563.15235,11.3803,11.3803,0,0,1,1.07422.61132c.35547.21.73828.44532,1.12207.70752.35107.23828.68359.46485,1.00488.7041.45215.32374.9165.69043,1.37988,1.07178a7.13205,7.13205,0,0,1,.67871.57227,4.10572,4.10572,0,0,1,.314.2749c.18213.14648.43652.38379.67676.62207.07715.06592.21435.20264.35156.33984.25488.24414.5166.49707.7793.79053.53076.54492,1.12451,1.2207,1.77392,2.022.292.35254.58057.73047.856,1.12305.252.3418.51172.71.771,1.07813l.0625.09521c.23681.36572.47363.73145.70019,1.09717a30.45937,30.45937,0,0,1,1.9668,3.666l.1333.3086a34.85271,34.85271,0,0,1,2.48486,8.03564c.07129.32715.13086.69629.189,1.07959h.01465l.063.50147c.02344.16308.04444.332.06348.50244l.04053.32178c.03711.31494.07324.64306.09765.95752.34571,3.4541.52246,7.04931.52246,10.65332,0,27.70849-10.64843,54.1792-29.21533,72.625ZM117.89648,27.19824c-.24316,1.917-.415,3.62207-.52441,5.20655-.21191,2.6333-.31885,5.36425-.31885,8.1333,0,26.397,9.9209,51.60791,27.272,69.42871,17.35107-17.8335,27.27294-43.04444,27.27294-69.42871,0-3.34913-.15673-6.68946-.4663-9.93653h-.14356l-.01562-1.50488c-.03077-.311-.07178-.62256-.12354-.92236-.0581-.38575-.11035-.72754-.18408-1.06934a31.9919,31.9919,0,0,0-2.28613-7.40527l-.2334-.25293-.01026-.29541a27.39655,27.39655,0,0,0-1.65918-3.05274c-.2207-.35693-.44628-.70556-.67187-1.05371-.24512-.34961-.49219-.70117-.751-1.05273-.249-.35352-.48974-.669-.74121-.97315-.602-.74267-1.13818-1.353-1.647-1.87744-.25049-.27832-.46094-.478-.66943-.67822-.13526-.13477-.22852-.22949-.32178-.3125-.23389-.229-.417-.40283-.60108-.5542l-.32666-.28272a5.45308,5.45308,0,0,0-.52148-.44482c-.48291-.39355-.89356-.72021-1.31543-1.022-.30908-.23-.606-.43067-.90283-.63233-.356-.24365-.686-.44482-1.02686-.647a8.775,8.775,0,0,0-.88867-.50488l-.249-.145c-.34571-.18457-.64209-.33154-.93848-.47852l-.105-.05127c-.35645-.17089-.65234-.30078-.94824-.43066l-.24854-.0957c-.26806-.11914-.54394-.22071-.81347-.3208l-.14844-.05518a23.14457,23.14457,0,0,0-2.42334-.74512c-.34522-.08691-.69336-.17285-1.042-.2456A24.22269,24.22269,0,0,0,144.2915,3c-12.71582,0-23.80859,10.13477-26.377,24.09863Z"/><path class="cls-2" d="M170.65674,27.0625a32.79313,32.79313,0,0,0-2.37647-7.58105l2.7295-1.24463.001.00244h0l.001.00195a34.84508,34.84508,0,0,1,2.5957,8.28076Z"/><path class="cls-2" d="M145.38281,113.16309l-2.11426-2.12793c18.00391-17.88721,28.32959-43.582,28.32959-70.49707,0-3.50489-.17187-6.99952-.51074-10.38721l-.09765-.85059c-.04541-.30273-.082-.61425-.11817-.92578-.05176-.353-.11816-.74121-.18506-1.13623l-.03418-.19922,2.94532-.56738c.0874.40478.15039.80811.21289,1.22607l-.00782.001c.01514.09522.0293.19092.04346.28662.03809.32471.0708.604.11377.895l.11084.95606c.35059,3.50244.52734,7.09765.52734,10.70166C174.59814,68.24658,163.94971,94.71729,145.38281,113.16309Z"/><path class="cls-3" d="M104.16432,149.59158c-9.46317,9.46316-25.5884,8.70611-33.99169.30282-5.07225-5.148-5.7536-21.12179,3.70956-30.58495s25.96692-8.25188,30.585-3.70956C112.87043,124.00318,113.62748,140.12841,104.16432,149.59158Z"/><path class="cls-2" d="M87.13062,110.60334a21.95454,21.95454,0,1,1-21.95454,21.95454,21.97032,21.97032,0,0,1,21.95454-21.95454m0-2.27116a24.2257,24.2257,0,1,0,24.2257,24.2257A24.19969,24.19969,0,0,0,87.13062,108.33218Z"/><path class="cls-4" d="M80.27169,138.16007a58.8909,58.8909,0,0,1-6.96489-4.23949c-.37852-.22712-.757-.52994-1.13558-.75706v-.45423a.90673.90673,0,0,1,.30283-.30282c2.27115-1.58981,4.84514-3.17962,7.64623-4.76943a3.49762,3.49762,0,0,1-.52993.52993c-.15142.07571-.83276.52994-1.96834,1.287-1.287.83275-2.27116,1.4384-2.8768,1.81692-1.21129.75706-1.51411.90847-1.51411,1.58982s0,.68134,2.27116,2.044c1.21128.757,2.044,1.287,2.72539,1.66552a13.16829,13.16829,0,0,1,1.3627.83275A3.40968,3.40968,0,0,1,80.27169,138.16007Z"/><path class="cls-2" d="M81.18662,126.12293a4.37758,4.37758,0,0,0-1.05988.37852,83.24958,83.24958,0,0,0-7.87335,4.92085,1.71365,1.71365,0,0,0-.83276,1.287v.22712a1.79829,1.79829,0,0,0,.22712.90846,7.68392,7.68392,0,0,0,1.3627.98417c4.76943,3.10392,7.49482,4.69373,8.25187,4.69373.37853,0,.60565-.37853.60565-1.21128a2.58037,2.58037,0,0,0-1.287-1.89264,15.08009,15.08009,0,0,0-1.4384-.90846c-.68135-.37853-1.58982-.90847-2.7254-1.66552S74.676,132.785,74.676,132.70929a11.206,11.206,0,0,1,.98417-.60564q.90846-.56779,2.95251-1.81693c1.36269-.83276,1.96834-1.287,2.044-1.287a2.33566,2.33566,0,0,0,1.13558-1.74122c0-.75706-.15141-1.13558-.60564-1.13558Z"/><path class="cls-4" d="M83.75691,141.11258c.45424-1.3627,2.11975-5.60219,7.26771-17.63934.07571-.15141.15141-.22711.22712-.37852h0q-.34068.7949-.45423,1.13558a.57223.57223,0,0,0-.07571.30282l-.45423,1.13558q-.45423,1.13557-.68135,1.58981a3.18215,3.18215,0,0,1-.15141.37852v-.0757c-.0757.0757-.22711.52994-2.42257,5.98072-1.96834,4.84514-2.49827,6.20783-2.64968,6.51066A7.56523,7.56523,0,0,1,83.75691,141.11258Z"/><path class="cls-2" d="M91.26332,121.78577q-.88039,0-1.32059,1.13558-7.26323,17.48792-7.26323,18.6235v.15141c0,.30283.36683.45423,1.02712.45423h.4402c.44019,0,.88039-.60564,1.39395-1.74122.14673-.45423,1.02712-2.574,2.56781-6.51065s2.34771-5.905,2.34771-5.905a2.49291,2.49291,0,0,0,.14674-.45423,12.35038,12.35038,0,0,1,.58692-1.51411l.4402-1.13557a1.30346,1.30346,0,0,1,.14673-.37853,9.45532,9.45532,0,0,0,.36683-.98417,2.52359,2.52359,0,0,0,.29347-1.05987V122.24c0-.30282-.36683-.45423-1.17386-.45423Z"/><path class="cls-4" d="M95.07968,138.00866a2.04089,2.04089,0,0,1,.60564-.52993c.07571-.07571.52994-.37853,2.95251-1.81693,3.40674-2.044,3.40674-2.044,3.40674-2.72539s0-.68135-3.40674-2.8011c-2.49827-1.58981-2.95251-1.89263-3.02821-1.96834l-.45423-.45423.0757.0757a83.33355,83.33355,0,0,1,7.49483,4.69373.5396.5396,0,0,1,.22711.45423c0,.15141,0,.30283-.30282.45423C100.07623,135.05615,97.578,136.646,95.07968,138.00866Z"/><path class="cls-2" d="M94.69541,126.04722c-.45423,0-.68135.37853-.68135,1.05988a2.44546,2.44546,0,0,0,1.05987,1.89263q.22713.22711,3.17963,2.044a22.4806,22.4806,0,0,1,2.8768,1.89264s-.98417.60564-2.8768,1.81693c-1.89263,1.13557-2.95251,1.81692-3.10392,1.89263-.75705.60564-1.21128,1.21128-1.21128,1.74122v.22711c0,.68135.22711,1.05988.60564,1.05988a2.71193,2.71193,0,0,0,.83276-.30282c2.574-1.4384,5.29937-3.10392,8.10047-4.92085a1.67941,1.67941,0,0,0,.1514-2.80109A71.84961,71.84961,0,0,0,95.9824,126.88,3.1092,3.1092,0,0,0,94.69541,126.04722Z"/><path class="cls-2" d="M117.37207,32.40479l-2.99609-.13135a35.35771,35.35771,0,0,1,.57666-5.69043l2.96338.46045C117.66211,29.02393,117.48438,30.77783,117.37207,32.40479Z"/><path class="cls-2" d="M171.17041,131.90918c-34.23193-13.99561-57.23193-50.71484-57.23193-91.37109h3c0,39.45117,22.25048,75.05468,55.36767,88.59375Z"/><path class="cls-2" d="M230.92188,132.063l-1.12208-2.78223a82.28981,82.28981,0,0,0,26.33643-17.19824c-17.90381-18.37891-28.144-44.36084-28.144-71.54443,0-2.855.10986-5.667.32715-8.35743.1123-1.63134.2915-3.41162.54736-5.42285v-.4751l.39062-.45214,2.24219,1.99316-1.12109-.99658,1.48828.02588-.01221.19043c-.25439,1.99121-.43213,3.74511-.54345,5.36084-.21192,2.62841-.31885,5.35888-.31885,8.13379,0,26.92773,10.32568,52.62255,28.32861,70.49658l1.07129,1.06347-1.07031,1.06446A85.55261,85.55261,0,0,1,230.92188,132.063Z"/><path class="cls-2" d="M284.59521,27.0625a32.79311,32.79311,0,0,0-2.37646-7.58105l2.72949-1.24463.001.00244h0l.001.00195a34.84508,34.84508,0,0,1,2.5957,8.28076Z"/><path class="cls-2" d="M284.81592,28.419c-.05762-.39747-.124-.78565-.19092-1.18067l-.03418-.19922,2.94531-.56738c.08741.40478.15039.80811.21289,1.22607l.03858.31055Z"/><path class="cls-2" d="M285.02637,30.148c-.03516-.355-.07959-.70606-.12451-1.05713l-.08887-.72314,2.9751-.38282c.08886.62207.16748,1.24756.22461,1.88037Z"/><path class="cls-2" d="M258.26465,114.21338l-1.05713-1.04981c-18.5669-18.4331-29.21533-44.90429-29.21533-72.62548,0-2.855.10986-5.667.32715-8.35743.1123-1.63134.2915-3.41162.54736-5.42285v-.4751l.11328-.13085C231.94922,10.97363,244.19092,0,258.23,0a27.24224,27.24224,0,0,1,5.49365.55762c.39209.08252.78028.17724,1.15625.272a26.15724,26.15724,0,0,1,2.73975.84277l.14209.05274c.332.123.66992.25.999.39648l.23487.08936c.32568.14258.65136.28613.97705.44189l.11718.05762c.41114.20312.73536.36475,1.06055.53906a2.86218,2.86218,0,0,1,.26563.15235,11.379,11.379,0,0,1,1.07421.61132c.35547.21.73829.44532,1.12207.70752.35108.23828.6836.46485,1.00489.7041.45263.32325.916.69043,1.37988,1.07178a7.18856,7.18856,0,0,1,.67871.57178c.11182.0874.2168.18213.31885.2793.17822.14306.43213.38037.67187.61816.07715.06592.21436.20264.35157.33984.24951.23877.51464.49414.78027.79151.52978.54394,1.12354,1.21972,1.77295,2.021.292.35254.58057.73047.856,1.12305.24218.32715.4917.68213.7417,1.03662l.061.08887c.248.38184.49561.76416.73145,1.146a30.406,30.406,0,0,1,1.9663,3.66552l.13331.30811A34.85271,34.85271,0,0,1,287.5459,26.522c.07129.32715.13086.69629.189,1.07959h.01465l.063.50147c.02344.16308.04443.332.06348.50244l.04052.32178c.03711.314.07276.64111.09766.95507.3457,3.458.52246,7.05372.52246,10.65577,0,27.70849-10.64844,54.1792-29.21533,72.625ZM231.834,27.20605c-.24365,1.92481-.415,3.62647-.52294,5.19825-.21192,2.62841-.31885,5.35888-.31885,8.13379,0,26.397,9.9209,51.60742,27.27148,69.42871,17.35108-17.8335,27.273-43.04444,27.273-69.42871,0-3.34766-.15674-6.688-.46631-9.93653h-.14355l-.01563-1.50488c-.03076-.311-.07177-.62256-.12353-.92236-.05811-.38575-.11035-.72754-.18408-1.06934a32.013,32.013,0,0,0-2.29248-7.41992l-.22706-.25635-.01025-.27685a27.281,27.281,0,0,0-1.65918-3.05323c-.23-.373-.46582-.73584-.70117-1.09912-.23486-.33154-.47217-.66894-.7207-1.00635-.25-.35449-.49073-.66992-.74219-.97412-.60205-.74267-1.13819-1.353-1.647-1.87744-.25342-.28174-.46582-.48291-.67725-.68555-.12744-.12744-.2207-.22216-.314-.30517-.23437-.22949-.418-.40332-.60205-.55518l-.32568-.28174a5.45553,5.45553,0,0,0-.52148-.44482c-.48243-.39355-.89307-.71973-1.315-1.02148-.30957-.23047-.60644-.43116-.90332-.63282-.356-.24365-.686-.44482-1.02685-.647a8.776,8.776,0,0,0-.88867-.50488l-.249-.145c-.3457-.18457-.64257-.33154-.939-.479l.001.001c-.002,0-.05567-.02685-.10889-.05371-.35254-.16894-.64844-.29883-.94434-.42871l-.249-.0957c-.27051-.12061-.54932-.22266-.82227-.32422l-.13867-.05176a23.23124,23.23124,0,0,0-2.42431-.74512c-.34522-.08691-.69336-.17285-1.042-.2456A24.22252,24.22252,0,0,0,258.23,3c-12.71582,0-23.80859,10.13477-26.37646,24.09863Z"/><path class="cls-2" d="M284.59521,27.0625a32.79311,32.79311,0,0,0-2.37646-7.58105l2.72949-1.24463.001.00244h0l.001.00195a34.84508,34.84508,0,0,1,2.5957,8.28076Z"/><path class="cls-2" d="M259.32129,113.16309l-2.11426-2.12793c18.00391-17.88721,28.32959-43.582,28.32959-70.49707,0-3.50342-.17187-6.998-.51025-10.3877l-.09766-.84277c-.0459-.31006-.08252-.62158-.11865-.93311-.05176-.353-.11817-.74121-.18506-1.13623l-.03418-.19922,2.94531-.56738c.08741.40478.15039.80811.21289,1.22607l-.00781.001c.01514.09522.0293.19092.04346.28662.03808.32471.0708.604.11377.895l.11133.95361c.35009,3.50635.52685,7.10157.52685,10.70411C288.53662,68.24658,277.88818,94.71729,259.32129,113.16309Z"/><path class="cls-2" d="M285.59668,132.10645C251.07275,118.25244,227.877,81.4541,227.877,40.53809h3c0,39.70214,22.439,75.38183,55.83692,88.78418Z"/><path class="cls-2" d="M345.23682,131.90967l-1.13575-2.77637A82.382,82.382,0,0,0,370.0752,112.082c-17.9043-18.37842-28.14454-44.36035-28.14454-71.54394,0-2.855.10987-5.667.32715-8.35743.11231-1.63134.29151-3.41162.54737-5.42285v-.4751l.39062-.45214,2.24219,1.99316-1.1211-.99658,1.48829.02588-.01221.19043c-.2544,1.99121-.43213,3.74511-.54346,5.36084-.21191,2.62841-.31885,5.35888-.31885,8.13379,0,26.92773,10.32569,52.623,28.32911,70.49658l1.07177,1.06347-1.0708,1.06446A85.63319,85.63319,0,0,1,345.23682,131.90967Z"/><path class="cls-2" d="M372.20361,114.21338l-1.05713-1.04981c-18.56689-18.4331-29.21582-44.9038-29.21582-72.62548,0-2.855.10987-5.667.32715-8.35743.11231-1.63134.29151-3.41162.54737-5.42285v-.4751l.11328-.13085C345.8877,10.97363,358.12939,0,372.16846,0a27.24231,27.24231,0,0,1,5.49365.55762c.39209.08252.78027.17724,1.15625.272a26.158,26.158,0,0,1,2.73975.84277l.14209.05274c.332.123.66992.25.999.39648l.23486.08936c.32569.14258.65137.28613.97705.44189l.12012.05908c.4082.20166.73242.36329,1.05762.5376a2.861,2.861,0,0,1,.26562.15235,11.296,11.296,0,0,1,1.07471.61132c.35547.21045.73926.4458,1.12256.7085.3501.2373.68262.46387,1.0039.70312.45264.32325.916.69043,1.37989,1.07178a7.28123,7.28123,0,0,1,.6792.57227c.09961.07763.19336.16113.28515.24756.23877.1997.47754.42334.7041.64843.07959.06836.21631.20411.35254.34082.249.23829.51416.49366.77979.79053.53125.5459,1.12451,1.22168,1.77344,2.022.2915.35205.58007.73.856,1.12159.24219.3291.49121.68261.74024,1.03662l.0625.09033c.248.38184.4956.76416.73144,1.146a30.40465,30.40465,0,0,1,1.96631,3.66552l.1333.30811a34.85225,34.85225,0,0,1,2.48487,8.03564c.07128.32715.13085.69629.189,1.07959h.01514l.06543.521c.022.1543.042.314.05957.47461l.0415.33008c.03711.31494.07373.64306.09814.95752.34522,3.45556.522,7.05127.522,10.65332,0,27.708-10.64844,54.17871-29.21485,72.625ZM345.77246,27.20605c-.24365,1.92481-.415,3.62647-.523,5.19825-.21191,2.62841-.31885,5.35888-.31885,8.13379,0,26.397,9.9209,51.60791,27.272,69.42871,17.35107-17.8335,27.27246-43.04444,27.27246-69.42871,0-3.34766-.15674-6.688-.46631-9.93653h-.14356l-.01562-1.50488c-.03076-.311-.07178-.62256-.12354-.92236-.0581-.38575-.11035-.72754-.18408-1.06934a32.01251,32.01251,0,0,0-2.29248-7.41992l-.227-.25635-.01025-.27685a27.281,27.281,0,0,0-1.65918-3.05323c-.23-.373-.46582-.73584-.70117-1.09912-.23584-.333-.47315-.67041-.7212-1.00732-.24853-.353-.48974-.66846-.7417-.97315-.60156-.74218-1.13769-1.35254-1.647-1.87793-.25244-.28027-.46533-.48242-.67676-.68506-.1289-.12793-.22265-.22363-.3164-.30712-.231-.22608-.41406-.40039-.59863-.55225l-.32715-.28272a5.30128,5.30128,0,0,0-.52-.44384c-.48389-.39453-.89453-.72071-1.31641-1.02246-.30957-.23047-.60644-.43116-.90332-.63282-.35644-.24414-.68652-.44531-1.02685-.64746a8.72705,8.72705,0,0,0-.88868-.50439l-.249-.145c-.3457-.18457-.64258-.33154-.939-.479.00488.001-.041-.01855-.10694-.05224-.35351-.16943-.64941-.29932-.94531-.4292l-.249-.0957c-.27051-.12061-.54932-.22266-.82227-.32422l-.13867-.05176a23.23214,23.23214,0,0,0-2.42432-.74512c-.34521-.08691-.69336-.17285-1.042-.2456A24.22259,24.22259,0,0,0,372.16846,3c-12.71582,0-23.8086,10.13477-26.37647,24.09863Z"/><path class="cls-2" d="M373.26025,113.16309l-2.11425-2.12793c18.00341-17.88721,28.3291-43.58252,28.3291-70.49707,0-3.50342-.17188-6.998-.51026-10.3877l-.10107-.87646c-.04-.26221-.07568-.5625-.11084-.8628-.05615-.38965-.12256-.77783-.18994-1.17285l-.03369-.19922,2.94531-.56738c.0874.40478.15039.80811.21289,1.22607l-.00781.001q.022.14283.04345.28662c.041.34522.07227.61328.11426.89307l.11084.95556c.3501,3.50635.52686,7.10157.52686,10.70411C402.4751,68.24609,391.82666,94.7168,373.26025,113.16309Z"/><path class="cls-2" d="M399.05029,131.91016c-34.23388-13.99512-57.23486-50.71485-57.23486-91.37207h3c0,39.45263,22.25146,75.05615,55.36963,88.59472Z"/><path class="cls-2" d="M459.27,131.87109l-1.13867-2.77539a82.39877,82.39877,0,0,0,25.88232-17.01318c-17.90429-18.37891-28.14453-44.36084-28.14453-71.54443,0-2.855.10986-5.667.32715-8.35743.1123-1.63134.2915-3.41162.54736-5.42285v-.4751l.39063-.45214,1.12109.99658,1.48828.02588-.0122.19043c-.2544,1.99121-.43213,3.74511-.54346,5.36084-.21192,2.62841-.31885,5.35888-.31885,8.13379,0,26.92773,10.32568,52.623,28.3291,70.49658l1.07129,1.06347-1.07031,1.06446A85.64976,85.64976,0,0,1,459.27,131.87109Z"/><path class="cls-2" d="M486.14209,114.21338l-1.05713-1.04981c-18.56689-18.4331-29.21582-44.9038-29.21582-72.62548,0-2.855.10986-5.667.32715-8.35743.1123-1.63134.2915-3.41162.54736-5.42285v-.4751l.11328-.13085C459.82715,10.97363,472.06836,0,486.10693,0a27.24234,27.24234,0,0,1,5.49366.55762c.39257.08252.78076.17724,1.15673.272a26.25666,26.25666,0,0,1,2.73926.84277l.15186.05616c.32861.12207.66406.24755.98974.39306l.23438.08936c.32568.14258.65137.28613.977.44189l.12012.05908-.584,1.38379.68457-1.335c.31934.15869.63867.31787.958.48926a2.85643,2.85643,0,0,1,.26465.15186,11.296,11.296,0,0,1,1.07471.61132c.35546.21045.73925.4458,1.12255.7085.34961.2373.68213.46338,1.00342.70215.45362.32471.918.69189,1.38135,1.07373a7.23256,7.23256,0,0,1,.67822.57129c.09961.07763.19336.16113.28516.24756.23877.1997.47754.42334.7041.64843.07471.063.20752.19532.34033.32911.26123.25.52637.50537.792.80224.53125.5459,1.12452,1.22168,1.77344,2.022.29151.35205.58008.73.856,1.12159.24219.3291.49121.68261.74023,1.03662l.0625.09033c.24805.38184.49561.76416.73145,1.146a30.40746,30.40746,0,0,1,1.96631,3.66552l.1333.30811a34.867,34.867,0,0,1,2.48535,8.03564c.07129.32715.13037.69629.18848,1.07959h.01513l.06543.521c.022.1543.042.314.05957.47461l.04151.33008c.03711.31494.07373.64306.09814.95752.34522,3.45556.522,7.05127.522,10.65332,0,27.70849-10.64843,54.1792-29.21484,72.625ZM459.71094,27.20605c-.24365,1.92432-.415,3.62647-.52295,5.19825-.21192,2.62841-.31885,5.35888-.31885,8.13379,0,26.397,9.92139,51.60791,27.272,69.4292,17.35108-17.8335,27.27246-43.04444,27.27246-69.4292,0-3.34766-.15673-6.688-.4663-9.93653h-.14356l-.01562-1.50488c-.03077-.311-.07178-.62256-.12354-.92236-.0581-.38575-.10986-.72754-.18359-1.06934a32.02649,32.02649,0,0,0-2.293-7.41992l-.22705-.25635-.01026-.27685a27.27936,27.27936,0,0,0-1.65918-3.05323c-.23-.373-.46582-.73584-.70117-1.09912-.23584-.333-.47314-.67041-.72119-1.00732-.24853-.353-.48975-.66846-.7417-.97315-.60156-.74218-1.13769-1.35254-1.647-1.87793-.25244-.28027-.46533-.48242-.67676-.68506-.13623-.13525-.22461-.22558-.314-.30517-.2334-.228-.41651-.40234-.60108-.5542l-.32715-.28272a5.30011,5.30011,0,0,0-.52-.44384c-.48437-.395-.895-.72119-1.3164-1.02295-.30908-.22949-.606-.43067-.90283-.63184-.35694-.24463-.687-.4458-1.02735-.64795a8.72809,8.72809,0,0,0-.88867-.50439l-.249-.145c-.34034-.18164-.63135-.32617-.92188-.47022-.00732-.00293-.06592-.03173-.124-.061-.35352-.16943-.64942-.29932-.94531-.4292L495.5,4.896c-.35059-.15332-.62646-.25489-.896-.355l-.14843-.05518a23.2243,23.2243,0,0,0-2.42383-.74512c-.34473-.08691-.69287-.17285-1.04151-.2456A24.23093,24.23093,0,0,0,486.10693,3c-12.71533,0-23.8081,10.13477-26.37646,24.09863Z"/><path class="cls-2" d="M573.31445,131.87256l-1.13867-2.77539a82.68148,82.68148,0,0,0,26.96192-18.06153l2.11523,2.127A85.64559,85.64559,0,0,1,573.31445,131.87256Z"/><path class="cls-2" d="M513.01709,131.87207A85.65317,85.65317,0,0,1,485.084,113.1626l-1.07031-1.064,1.0708-1.06347c18.00342-17.88672,28.3291-43.582,28.3291-70.49707,0-3.50342-.17187-6.998-.51025-10.3877l-.10107-.87646c-.04-.26221-.07569-.5625-.11084-.8628-.05664-.39258-.12305-.78222-.19043-1.17871l-.03272-.19336,2.94531-.56738c.08741.40478.14991.80811.21241,1.22607l-.00733.001c.01465.0957.0293.19189.043.28809.041.34375.07227.61181.11426.8916l.11084.95556c.3501,3.50635.52685,7.10157.52685,10.70411,0,27.17236-10.23877,53.15283-28.14453,71.54394a82.409,82.409,0,0,0,25.88672,17.01465Z"/><path class="cls-3" d="M218.16432,149.59158c-9.46317,9.46316-25.5884,8.70611-33.99169.30282-5.07225-5.148-5.7536-21.12179,3.70956-30.58495s25.96692-8.25188,30.58495-3.70956C226.87043,124.00318,227.62748,140.12841,218.16432,149.59158Z"/><path class="cls-2" d="M201.13062,110.60334a21.95454,21.95454,0,1,1-21.95454,21.95454,21.97032,21.97032,0,0,1,21.95454-21.95454m0-2.27116a24.2257,24.2257,0,1,0,24.2257,24.2257A24.19969,24.19969,0,0,0,201.13062,108.33218Z"/><path class="cls-4" d="M194.27169,138.16007a58.8909,58.8909,0,0,1-6.96489-4.23949c-.37852-.22712-.75705-.52994-1.13558-.75706v-.45423a.90673.90673,0,0,1,.30283-.30282c2.27115-1.58981,4.84514-3.17962,7.64623-4.76943a3.49762,3.49762,0,0,1-.52993.52993c-.15142.07571-.83276.52994-1.96834,1.287-1.287.83275-2.27116,1.4384-2.8768,1.81692-1.21129.75706-1.51411.90847-1.51411,1.58982s0,.68134,2.27116,2.044c1.21128.757,2.044,1.287,2.72539,1.66552a13.16829,13.16829,0,0,1,1.3627.83275A3.40968,3.40968,0,0,1,194.27169,138.16007Z"/><path class="cls-2" d="M195.18662,126.12293a4.37758,4.37758,0,0,0-1.05988.37852,83.24958,83.24958,0,0,0-7.87335,4.92085,1.71365,1.71365,0,0,0-.83276,1.287v.22712a1.79829,1.79829,0,0,0,.22712.90846,7.68392,7.68392,0,0,0,1.3627.98417c4.76943,3.10392,7.49482,4.69373,8.25187,4.69373.37853,0,.60565-.37853.60565-1.21128a2.58037,2.58037,0,0,0-1.287-1.89264,15.08009,15.08009,0,0,0-1.4384-.90846c-.68135-.37853-1.58982-.90847-2.7254-1.66552s-1.74122-1.05987-1.74122-1.13558a11.206,11.206,0,0,1,.98417-.60564q.90846-.56779,2.95251-1.81693c1.36269-.83276,1.96834-1.287,2.044-1.287a2.33566,2.33566,0,0,0,1.13558-1.74122c0-.75706-.15141-1.13558-.60564-1.13558Z"/><path class="cls-4" d="M197.75691,141.11258c.45424-1.3627,2.11975-5.60219,7.26771-17.63934.07571-.15141.15141-.22711.22712-.37852h0q-.34068.7949-.45423,1.13558a.57223.57223,0,0,0-.07571.30282l-.45423,1.13558q-.45423,1.13557-.68135,1.58981a3.18215,3.18215,0,0,1-.15141.37852v-.0757c-.0757.0757-.22711.52994-2.42257,5.98072-1.96834,4.84514-2.49827,6.20783-2.64968,6.51066A7.56523,7.56523,0,0,1,197.75691,141.11258Z"/><path class="cls-2" d="M205.26332,121.78577q-.88039,0-1.32059,1.13558-7.26323,17.48792-7.26323,18.6235v.15141c0,.30283.36683.45423,1.02712.45423h.4402c.44019,0,.88039-.60564,1.394-1.74122.14673-.45423,1.02712-2.574,2.56781-6.51065s2.34771-5.905,2.34771-5.905a2.49291,2.49291,0,0,0,.14674-.45423,12.35038,12.35038,0,0,1,.58692-1.51411l.4402-1.13557a1.30346,1.30346,0,0,1,.14673-.37853,9.45532,9.45532,0,0,0,.36683-.98417,2.52359,2.52359,0,0,0,.29347-1.05987V122.24c0-.30282-.36683-.45423-1.17386-.45423Z"/><path class="cls-4" d="M209.07968,138.00866a2.04089,2.04089,0,0,1,.60564-.52993c.07571-.07571.52994-.37853,2.95251-1.81693,3.40674-2.044,3.40674-2.044,3.40674-2.72539s0-.68135-3.40674-2.8011c-2.49827-1.58981-2.95251-1.89263-3.02821-1.96834l-.45423-.45423.0757.0757a83.33355,83.33355,0,0,1,7.49483,4.69373.5396.5396,0,0,1,.22711.45423c0,.15141,0,.30283-.30282.45423C214.07623,135.05615,211.578,136.646,209.07968,138.00866Z"/><path class="cls-2" d="M208.69541,126.04722c-.45423,0-.68135.37853-.68135,1.05988a2.44546,2.44546,0,0,0,1.05987,1.89263q.22713.22711,3.17963,2.044a22.4806,22.4806,0,0,1,2.8768,1.89264s-.98417.60564-2.8768,1.81693c-1.89263,1.13557-2.95251,1.81692-3.10392,1.89263-.757.60564-1.21128,1.21128-1.21128,1.74122v.22711c0,.68135.22711,1.05988.60564,1.05988a2.71193,2.71193,0,0,0,.83276-.30282c2.574-1.4384,5.29937-3.10392,8.10047-4.92085a1.67941,1.67941,0,0,0,.1514-2.80109A71.84961,71.84961,0,0,0,209.9824,126.88,3.1092,3.1092,0,0,0,208.69541,126.04722Z"/><path class="cls-3" d="M332.16432,149.59158c-9.46317,9.46316-25.5884,8.70611-33.99169.30282-5.07225-5.148-5.7536-21.12179,3.70956-30.58495s25.96692-8.25188,30.58495-3.70956C340.87043,124.00318,341.62748,140.12841,332.16432,149.59158Z"/><path class="cls-2" d="M315.13062,110.60334a21.95454,21.95454,0,1,1-21.95454,21.95454,21.97032,21.97032,0,0,1,21.95454-21.95454m0-2.27116a24.2257,24.2257,0,1,0,24.2257,24.2257A24.19969,24.19969,0,0,0,315.13062,108.33218Z"/><path class="cls-4" d="M308.27169,138.16007a58.8909,58.8909,0,0,1-6.96489-4.23949c-.37852-.22712-.757-.52994-1.13558-.75706v-.45423a.90673.90673,0,0,1,.30283-.30282c2.27115-1.58981,4.84514-3.17962,7.64623-4.76943a3.49762,3.49762,0,0,1-.52993.52993c-.15142.07571-.83276.52994-1.96834,1.287-1.287.83275-2.27116,1.4384-2.8768,1.81692-1.21129.75706-1.51411.90847-1.51411,1.58982s0,.68134,2.27116,2.044c1.21128.757,2.044,1.287,2.72539,1.66552a13.16829,13.16829,0,0,1,1.3627.83275A3.40968,3.40968,0,0,1,308.27169,138.16007Z"/><path class="cls-2" d="M309.18662,126.12293a4.37758,4.37758,0,0,0-1.05988.37852,83.24958,83.24958,0,0,0-7.87335,4.92085,1.71365,1.71365,0,0,0-.83276,1.287v.22712a1.79829,1.79829,0,0,0,.22712.90846,7.68392,7.68392,0,0,0,1.3627.98417c4.76943,3.10392,7.49482,4.69373,8.25187,4.69373.37853,0,.60565-.37853.60565-1.21128a2.58037,2.58037,0,0,0-1.287-1.89264,15.08009,15.08009,0,0,0-1.4384-.90846c-.68135-.37853-1.58982-.90847-2.7254-1.66552s-1.74122-1.05987-1.74122-1.13558a11.206,11.206,0,0,1,.98417-.60564q.90846-.56779,2.95251-1.81693c1.36269-.83276,1.96834-1.287,2.044-1.287a2.33566,2.33566,0,0,0,1.13558-1.74122c0-.75706-.15141-1.13558-.60564-1.13558Z"/><path class="cls-4" d="M311.75691,141.11258c.45424-1.3627,2.11975-5.60219,7.26771-17.63934.07571-.15141.15141-.22711.22712-.37852h0q-.34068.7949-.45423,1.13558a.57223.57223,0,0,0-.07571.30282l-.45423,1.13558q-.45423,1.13557-.68135,1.58981a3.18215,3.18215,0,0,1-.15141.37852v-.0757c-.0757.0757-.22711.52994-2.42257,5.98072-1.96834,4.84514-2.49827,6.20783-2.64968,6.51066A7.56523,7.56523,0,0,1,311.75691,141.11258Z"/><path class="cls-2" d="M319.26332,121.78577q-.8804,0-1.32059,1.13558-7.26323,17.48792-7.26323,18.6235v.15141c0,.30283.36683.45423,1.02712.45423h.4402c.44019,0,.88039-.60564,1.394-1.74122.14673-.45423,1.02712-2.574,2.56781-6.51065s2.34771-5.905,2.34771-5.905a2.49291,2.49291,0,0,0,.14674-.45423,12.35038,12.35038,0,0,1,.58692-1.51411l.4402-1.13557a1.30346,1.30346,0,0,1,.14673-.37853,9.45532,9.45532,0,0,0,.36683-.98417,2.52359,2.52359,0,0,0,.29347-1.05987V122.24c0-.30282-.36683-.45423-1.17386-.45423Z"/><path class="cls-4" d="M323.07968,138.00866a2.04089,2.04089,0,0,1,.60564-.52993c.07571-.07571.52994-.37853,2.95251-1.81693,3.40674-2.044,3.40674-2.044,3.40674-2.72539s0-.68135-3.40674-2.8011c-2.49827-1.58981-2.95251-1.89263-3.02821-1.96834l-.45423-.45423.0757.0757a83.33355,83.33355,0,0,1,7.49483,4.69373.5396.5396,0,0,1,.22711.45423c0,.15141,0,.30283-.30282.45423C328.07623,135.05615,325.578,136.646,323.07968,138.00866Z"/><path class="cls-2" d="M322.69541,126.04722c-.45423,0-.68135.37853-.68135,1.05988a2.44546,2.44546,0,0,0,1.05987,1.89263q.22713.22711,3.17963,2.044a22.4806,22.4806,0,0,1,2.8768,1.89264s-.98417.60564-2.8768,1.81693c-1.89263,1.13557-2.95251,1.81692-3.10392,1.89263-.757.60564-1.21128,1.21128-1.21128,1.74122v.22711c0,.68135.22711,1.05988.60564,1.05988a2.71193,2.71193,0,0,0,.83276-.30282c2.574-1.4384,5.29937-3.10392,8.10047-4.92085a1.67941,1.67941,0,0,0,.1514-2.80109A71.84961,71.84961,0,0,0,323.9824,126.88,3.1092,3.1092,0,0,0,322.69541,126.04722Z"/><path class="cls-3" d="M446.16432,149.59158c-9.46317,9.46316-25.5884,8.70611-33.99169.30282-5.07225-5.148-5.7536-21.12179,3.70956-30.58495s25.96692-8.25188,30.58495-3.70956C454.87043,124.00318,455.62748,140.12841,446.16432,149.59158Z"/><path class="cls-2" d="M429.13062,110.60334a21.95454,21.95454,0,1,1-21.95454,21.95454,21.97032,21.97032,0,0,1,21.95454-21.95454m0-2.27116a24.2257,24.2257,0,1,0,24.2257,24.2257A24.19969,24.19969,0,0,0,429.13062,108.33218Z"/><path class="cls-4" d="M422.27169,138.16007a58.8909,58.8909,0,0,1-6.96489-4.23949c-.37852-.22712-.757-.52994-1.13558-.75706v-.45423a.90673.90673,0,0,1,.30283-.30282c2.27115-1.58981,4.84514-3.17962,7.64623-4.76943a3.49762,3.49762,0,0,1-.52993.52993c-.15142.07571-.83276.52994-1.96834,1.287-1.287.83275-2.27116,1.4384-2.8768,1.81692-1.21129.75706-1.51411.90847-1.51411,1.58982s0,.68134,2.27116,2.044c1.21128.757,2.044,1.287,2.72539,1.66552a13.16829,13.16829,0,0,1,1.3627.83275A3.40968,3.40968,0,0,1,422.27169,138.16007Z"/><path class="cls-2" d="M423.18662,126.12293a4.37758,4.37758,0,0,0-1.05988.37852,83.24958,83.24958,0,0,0-7.87335,4.92085,1.71365,1.71365,0,0,0-.83276,1.287v.22712a1.79829,1.79829,0,0,0,.22712.90846,7.68392,7.68392,0,0,0,1.3627.98417c4.76943,3.10392,7.49482,4.69373,8.25187,4.69373.37853,0,.60565-.37853.60565-1.21128a2.58037,2.58037,0,0,0-1.287-1.89264,15.08009,15.08009,0,0,0-1.4384-.90846c-.68135-.37853-1.58982-.90847-2.7254-1.66552s-1.74122-1.05987-1.74122-1.13558a11.206,11.206,0,0,1,.98417-.60564q.90846-.56779,2.95251-1.81693c1.36269-.83276,1.96834-1.287,2.044-1.287a2.33566,2.33566,0,0,0,1.13558-1.74122c0-.75706-.15141-1.13558-.60564-1.13558Z"/><path class="cls-4" d="M425.75691,141.11258c.45424-1.3627,2.11975-5.60219,7.26771-17.63934.07571-.15141.15141-.22711.22712-.37852h0q-.34068.7949-.45423,1.13558a.57223.57223,0,0,0-.07571.30282l-.45423,1.13558q-.45423,1.13557-.68135,1.58981a3.18215,3.18215,0,0,1-.15141.37852v-.0757c-.0757.0757-.22711.52994-2.42257,5.98072-1.96834,4.84514-2.49827,6.20783-2.64968,6.51066A7.56523,7.56523,0,0,1,425.75691,141.11258Z"/><path class="cls-2" d="M433.26332,121.78577q-.8804,0-1.32059,1.13558-7.26323,17.48792-7.26323,18.6235v.15141c0,.30283.36683.45423,1.02712.45423h.4402c.44019,0,.88039-.60564,1.394-1.74122.14673-.45423,1.02712-2.574,2.56781-6.51065s2.34771-5.905,2.34771-5.905a2.49291,2.49291,0,0,0,.14674-.45423,12.35038,12.35038,0,0,1,.58692-1.51411l.4402-1.13557a1.30346,1.30346,0,0,1,.14673-.37853,9.45532,9.45532,0,0,0,.36683-.98417,2.52359,2.52359,0,0,0,.29347-1.05987V122.24c0-.30282-.36683-.45423-1.17386-.45423Z"/><path class="cls-4" d="M437.07968,138.00866a2.04089,2.04089,0,0,1,.60564-.52993c.07571-.07571.52994-.37853,2.95251-1.81693,3.40674-2.044,3.40674-2.044,3.40674-2.72539s0-.68135-3.40674-2.8011c-2.49827-1.58981-2.95251-1.89263-3.02821-1.96834l-.45423-.45423.0757.0757a83.33355,83.33355,0,0,1,7.49483,4.69373.5396.5396,0,0,1,.22711.45423c0,.15141,0,.30283-.30282.45423C442.07623,135.05615,439.578,136.646,437.07968,138.00866Z"/><path class="cls-2" d="M436.69541,126.04722c-.45423,0-.68135.37853-.68135,1.05988a2.44546,2.44546,0,0,0,1.05987,1.89263q.22713.22711,3.17963,2.044a22.4806,22.4806,0,0,1,2.8768,1.89264s-.98417.60564-2.8768,1.81693c-1.89263,1.13557-2.95251,1.81692-3.10392,1.89263-.757.60564-1.21128,1.21128-1.21128,1.74122v.22711c0,.68135.22711,1.05988.60564,1.05988a2.71193,2.71193,0,0,0,.83276-.30282c2.574-1.4384,5.29937-3.10392,8.10047-4.92085a1.67941,1.67941,0,0,0,.1514-2.80109A71.84961,71.84961,0,0,0,437.9824,126.88,3.1092,3.1092,0,0,0,436.69541,126.04722Z"/><path class="cls-3" d="M560.16432,149.59158c-9.46317,9.46316-25.5884,8.70611-33.99169.30282-5.07225-5.148-5.7536-21.12179,3.70956-30.58495s25.96692-8.25188,30.58495-3.70956C568.87043,124.00318,569.62748,140.12841,560.16432,149.59158Z"/><path class="cls-2" d="M543.13062,110.60334a21.95454,21.95454,0,1,1-21.95454,21.95454,21.97032,21.97032,0,0,1,21.95454-21.95454m0-2.27116a24.2257,24.2257,0,1,0,24.2257,24.2257A24.19969,24.19969,0,0,0,543.13062,108.33218Z"/><path class="cls-4" d="M536.27169,138.16007a58.8909,58.8909,0,0,1-6.96489-4.23949c-.37852-.22712-.757-.52994-1.13558-.75706v-.45423a.90673.90673,0,0,1,.30283-.30282c2.27115-1.58981,4.84514-3.17962,7.64623-4.76943a3.49762,3.49762,0,0,1-.52993.52993c-.15142.07571-.83276.52994-1.96834,1.287-1.287.83275-2.27116,1.4384-2.8768,1.81692-1.21129.75706-1.51411.90847-1.51411,1.58982s0,.68134,2.27116,2.044c1.21128.757,2.044,1.287,2.72539,1.66552a13.16829,13.16829,0,0,1,1.3627.83275A3.40968,3.40968,0,0,1,536.27169,138.16007Z"/><path class="cls-2" d="M537.18662,126.12293a4.37758,4.37758,0,0,0-1.05988.37852,83.24958,83.24958,0,0,0-7.87335,4.92085,1.71365,1.71365,0,0,0-.83276,1.287v.22712a1.79829,1.79829,0,0,0,.22712.90846,7.68392,7.68392,0,0,0,1.3627.98417c4.76943,3.10392,7.49482,4.69373,8.25187,4.69373.37853,0,.60565-.37853.60565-1.21128a2.58037,2.58037,0,0,0-1.287-1.89264,15.08009,15.08009,0,0,0-1.4384-.90846c-.68135-.37853-1.58982-.90847-2.7254-1.66552s-1.74122-1.05987-1.74122-1.13558a11.206,11.206,0,0,1,.98417-.60564q.90846-.56779,2.95251-1.81693c1.36269-.83276,1.96834-1.287,2.044-1.287a2.33566,2.33566,0,0,0,1.13558-1.74122c0-.75706-.15141-1.13558-.60564-1.13558Z"/><path class="cls-4" d="M539.75691,141.11258c.45424-1.3627,2.11975-5.60219,7.26771-17.63934.07571-.15141.15141-.22711.22712-.37852h0q-.34068.7949-.45423,1.13558a.57223.57223,0,0,0-.07571.30282l-.45423,1.13558q-.45423,1.13557-.68135,1.58981a3.18215,3.18215,0,0,1-.15141.37852v-.0757c-.0757.0757-.22711.52994-2.42257,5.98072-1.96834,4.84514-2.49827,6.20783-2.64968,6.51066A7.56523,7.56523,0,0,1,539.75691,141.11258Z"/><path class="cls-2" d="M547.26332,121.78577q-.8804,0-1.32059,1.13558-7.26322,17.48792-7.26323,18.6235v.15141c0,.30283.36683.45423,1.02712.45423h.4402c.44019,0,.88039-.60564,1.39395-1.74122.14673-.45423,1.02712-2.574,2.56781-6.51065s2.34771-5.905,2.34771-5.905a2.49291,2.49291,0,0,0,.14674-.45423,12.35038,12.35038,0,0,1,.58692-1.51411l.4402-1.13557a1.30346,1.30346,0,0,1,.14673-.37853,9.45532,9.45532,0,0,0,.36683-.98417,2.52359,2.52359,0,0,0,.29347-1.05987V122.24c0-.30282-.36683-.45423-1.17386-.45423Z"/><path class="cls-4" d="M551.07968,138.00866a2.04089,2.04089,0,0,1,.60564-.52993c.07571-.07571.52994-.37853,2.95251-1.81693,3.40674-2.044,3.40674-2.044,3.40674-2.72539s0-.68135-3.40674-2.8011c-2.49827-1.58981-2.95251-1.89263-3.02821-1.96834l-.45423-.45423.0757.0757a83.33355,83.33355,0,0,1,7.49483,4.69373.5396.5396,0,0,1,.22711.45423c0,.15141,0,.30283-.30282.45423C556.07623,135.05615,553.578,136.646,551.07968,138.00866Z"/><path class="cls-2" d="M550.69541,126.04722c-.45423,0-.68135.37853-.68135,1.05988a2.44546,2.44546,0,0,0,1.05987,1.89263q.22713.22711,3.17963,2.044a22.4806,22.4806,0,0,1,2.8768,1.89264s-.98417.60564-2.8768,1.81693c-1.89263,1.13557-2.95251,1.81692-3.10392,1.89263-.757.60564-1.21128,1.21128-1.21128,1.74122v.22711c0,.68135.22711,1.05988.60564,1.05988a2.71193,2.71193,0,0,0,.83276-.30282c2.574-1.4384,5.29937-3.10392,8.10047-4.92085a1.67941,1.67941,0,0,0,.1514-2.80109A71.84961,71.84961,0,0,0,551.9824,126.88,3.1092,3.1092,0,0,0,550.69541,126.04722Z"/></g></g></svg>