<svg xmlns="http://www.w3.org/2000/svg" viewBox="0 0 600 210.04964"><defs><style>.cls-1{fill:none;}.cls-2{fill:#242424;}.cls-3{fill:#7ed257;}.cls-4{fill:#fff;}</style></defs><title>expantion</title><g id="Layer_2" data-name="Layer 2"><g id="Layer_1-2" data-name="Layer 1"><rect class="cls-1" y="0.04964" width="600" height="210"/><path class="cls-2" d="M337.4369,145.7163H262.556a25.81936,25.81936,0,0,1-6.68652-50.88378,20.20189,20.20189,0,0,1,26.00293-17.66358,32.83108,32.83108,0,0,1,30.28711-18.05762,33.25235,33.25235,0,0,1,32.0332,32.2876,33.94282,33.94282,0,0,1-.11035,3.4209,25.69777,25.69777,0,0,1,19.55273,27.72559C362.38514,135.105,350.3871,145.7163,337.4369,145.7163ZM275.9828,79.29736A17.27373,17.27373,0,0,0,258.808,96.084l-.02735,1.20459-1.18164.23389a22.7542,22.7542,0,0,0-18.24219,24.80273A22.99585,22.99585,0,0,0,262.556,142.7163H337.4369c11.47852,0,22.1084-9.37353,23.21387-20.46826a22.72073,22.72073,0,0,0-18.47852-24.77l-1.3916-.26074.17969-1.40478a29.93655,29.93655,0,0,0-56.94727-16.17188l-.584,1.28174-1.31543-.50147A17.14731,17.14731,0,0,0,275.9828,79.29736Z"/><path class="cls-2" d="M287.67421,120.02929h-3c0-14.38476-13.27832-22.49267-22.86426-22.81543a21.69347,21.69347,0,0,0-13.1377,4.19678l-1.74414-2.44141a24.60643,24.60643,0,0,1,14.9834-4.75341C274.35292,94.63427,287.67421,105.10693,287.67421,120.02929Z"/><path class="cls-2" d="M290.07557,86.97949a18.13383,18.13383,0,0,0-8.06933-6.52442l1.10937-2.78711a21.21072,21.21072,0,0,1,9.44239,7.62793Z"/><path class="cls-2" d="M327.17518,120.35058l-1.47461-2.61328a30.648,30.648,0,0,0,15.49707-26.22754h3A33.69371,33.69371,0,0,1,327.17518,120.35058Z"/><path class="cls-3" d="M592.54054,203.82639c-8.08594,8.08594-21.86438,7.43906-29.04469.25875-4.33406-4.39875-4.91625-18.04782,3.16969-26.13375s22.18781-7.05094,26.13375-3.16969C599.9796,181.962,600.62647,195.74045,592.54054,203.82639Z"/><path class="cls-2" d="M577.98585,170.51232a18.75938,18.75938,0,1,1-18.75938,18.75938,18.77286,18.77286,0,0,1,18.75938-18.75938m0-1.94062a20.7,20.7,0,1,0,20.7,20.7A20.67777,20.67777,0,0,0,577.98585,168.5717Z"/><path class="cls-4" d="M572.42272,194.05858a50.32119,50.32119,0,0,1-5.95125-3.6225c-.32343-.19407-.64687-.45282-.97031-.64688v-.38812a.77472.77472,0,0,1,.25875-.25875c1.94063-1.35844,4.14-2.71688,6.53344-4.07532a2.98887,2.98887,0,0,1-.45281.45282c-.12938.06468-.71157.45281-1.68188,1.09969-1.09969.71156-1.94062,1.22906-2.45812,1.55249-1.035.64688-1.29375.77626-1.29375,1.35844s0,.58219,1.94062,1.74657c1.035.64687,1.74656,1.09968,2.32875,1.42312a11.25127,11.25127,0,0,1,1.16438.71156A2.91316,2.91316,0,0,1,572.42272,194.05858Z"/><path class="cls-2" d="M572.81085,183.77326a3.74045,3.74045,0,0,0-.90563.32344,71.13323,71.13323,0,0,0-6.7275,4.20469,1.46424,1.46424,0,0,0-.71156,1.09968v.19407a1.53663,1.53663,0,0,0,.19406.77625,6.56611,6.56611,0,0,0,1.16438.84093c4.07531,2.65219,6.40406,4.01063,7.05094,4.01063.32343,0,.5175-.32344.5175-1.035a2.20482,2.20482,0,0,0-1.09969-1.61719,12.88591,12.88591,0,0,0-1.22906-.77625c-.58219-.32343-1.35844-.77625-2.32875-1.42312s-1.48782-.90563-1.48782-.97032a9.57544,9.57544,0,0,1,.84094-.51749q.77625-.48516,2.52281-1.5525c1.16438-.71157,1.68188-1.09969,1.74657-1.09969a1.99575,1.99575,0,0,0,.97031-1.48781c0-.64688-.12938-.97032-.5175-.97032Z"/><path class="cls-4" d="M575.39835,196.58139c.38812-1.16438,1.81125-4.78688,6.21-15.07219.06468-.12938.12937-.19406.19406-.32344h0q-.29109.67921-.38812.97031a.489.489,0,0,0-.06469.25875l-.38812.97032q-.38814.97031-.58219,1.35843a2.71927,2.71927,0,0,1-.12938.32344v-.06469c-.06468.06469-.19406.45282-2.07,5.11032-1.68187,4.14-2.13469,5.30437-2.26406,5.56312A6.4649,6.4649,0,0,1,575.39835,196.58139Z"/><path class="cls-2" d="M581.8671,180.15076q-.77625,0-1.16438.97031-6.40405,14.94282-6.40406,15.91313v.12938c0,.25875.32344.38812.90563.38812h.38812c.38813,0,.77625-.5175,1.22906-1.48781.12938-.38813.90563-2.19938,2.26406-5.56313s2.07-5.04562,2.07-5.04562a2.08618,2.08618,0,0,0,.12937-.38813,10.35559,10.35559,0,0,1,.5175-1.29375l.38812-.97031a1.0929,1.0929,0,0,1,.12938-.32344,7.92609,7.92609,0,0,0,.32344-.84093,2.10577,2.10577,0,0,0,.25875-.90563v-.19406c0-.25875-.32344-.38813-1.035-.38813Z"/><path class="cls-4" d="M584.778,193.9292a1.74358,1.74358,0,0,1,.5175-.45281c.06468-.06469.45281-.32344,2.52281-1.5525,2.91094-1.74657,2.91094-1.74657,2.91094-2.32875s0-.58219-2.91094-2.39344c-2.13469-1.35844-2.52281-1.61719-2.5875-1.68188l-.38812-.38812.06468.06469a71.20305,71.20305,0,0,1,6.40406,4.01062.46105.46105,0,0,1,.19407.38812c0,.12938,0,.25876-.25876.38813C589.04741,191.40639,586.91272,192.76483,584.778,193.9292Z"/><path class="cls-2" d="M584.32522,183.70857c-.38812,0-.58218.32344-.58218.90563a2.08957,2.08957,0,0,0,.90562,1.61719q.19407.19405,2.71688,1.74656a19.20836,19.20836,0,0,1,2.45812,1.61719s-.84094.5175-2.45812,1.5525c-1.61719.97031-2.52282,1.5525-2.65219,1.61719-.64687.51749-1.035,1.035-1.035,1.48781v.19406c0,.58219.19406.90563.5175.90563a2.3172,2.3172,0,0,0,.71156-.25876c2.19938-1.22906,4.52813-2.65218,6.92157-4.20468a1.435,1.435,0,0,0,.12937-2.39344,61.394,61.394,0,0,0-6.53344-4.07531A2.65666,2.65666,0,0,0,584.32522,183.70857Z"/><path class="cls-3" d="M528.49991,50.95469c-8.08594,8.08594-21.86438,7.43906-29.04469.25875-4.33406-4.39875-4.91625-18.04781,3.16969-26.13375s22.18781-7.05094,26.13375-3.16969C535.939,29.09031,536.58585,42.86875,528.49991,50.95469Z"/><path class="cls-2" d="M513.94522,17.64063A18.75938,18.75938,0,1,1,495.18585,36.4a18.77286,18.77286,0,0,1,18.75937-18.75937m0-1.94063a20.7,20.7,0,1,0,20.7,20.7A20.67777,20.67777,0,0,0,513.94522,15.7Z"/><path class="cls-4" d="M508.3821,41.18688a50.319,50.319,0,0,1-5.95125-3.6225c-.32344-.19406-.64688-.45281-.97032-.64688v-.38812a.77472.77472,0,0,1,.25875-.25875c1.94063-1.35844,4.14-2.71687,6.53344-4.07531a2.98877,2.98877,0,0,1-.45281.45281c-.12938.06469-.71156.45281-1.68188,1.09969-1.09968.71156-1.94062,1.22906-2.45812,1.5525-1.035.64687-1.29375.77625-1.29375,1.35843s0,.58219,1.94062,1.74657c1.035.64687,1.74657,1.09969,2.32875,1.42312a11.25207,11.25207,0,0,1,1.16438.71157A2.91357,2.91357,0,0,1,508.3821,41.18688Z"/><path class="cls-2" d="M508.77022,30.90156a3.74079,3.74079,0,0,0-.90562.32344,71.13067,71.13067,0,0,0-6.7275,4.20469,1.46422,1.46422,0,0,0-.71157,1.09969v.19406a1.53654,1.53654,0,0,0,.19407.77625,6.56614,6.56614,0,0,0,1.16437.84094c4.07531,2.65218,6.40406,4.01062,7.05094,4.01062.32344,0,.5175-.32344.5175-1.035a2.20478,2.20478,0,0,0-1.09969-1.61718,12.88267,12.88267,0,0,0-1.22906-.77625c-.58219-.32344-1.35844-.77626-2.32875-1.42313s-1.48781-.90563-1.48781-.97031a9.57664,9.57664,0,0,1,.84093-.5175q.77625-.48516,2.52282-1.5525c1.16437-.71157,1.68187-1.09969,1.74656-1.09969a1.99575,1.99575,0,0,0,.97031-1.48781c0-.64688-.12937-.97032-.5175-.97032Z"/><path class="cls-4" d="M511.35772,43.70969c.38813-1.16438,1.81125-4.78688,6.21-15.07219.06469-.12937.12938-.19406.19406-.32344h0q-.29109.67923-.38812.97032a.489.489,0,0,0-.06469.25875l-.38812.97031q-.38812.9703-.58219,1.35844a2.71949,2.71949,0,0,1-.12938.32343v-.06468c-.06468.06468-.19406.45281-2.07,5.11031-1.68187,4.14-2.13468,5.30437-2.26406,5.56313A6.46438,6.46438,0,0,1,511.35772,43.70969Z"/><path class="cls-2" d="M517.82647,27.27906q-.77625,0-1.16437.97032Q510.258,43.19219,510.258,44.1625v.12938c0,.25875.32344.38812.90563.38812h.38812c.38813,0,.77625-.5175,1.22907-1.48781.12937-.38812.90562-2.19938,2.26406-5.56312s2.07-5.04563,2.07-5.04563a2.08621,2.08621,0,0,0,.12937-.38812,10.355,10.355,0,0,1,.5175-1.29375l.38813-.97032a1.09268,1.09268,0,0,1,.12937-.32343,7.92742,7.92742,0,0,0,.32344-.84094,2.10564,2.10564,0,0,0,.25875-.90563v-.19406c0-.25875-.32344-.38813-1.035-.38813Z"/><path class="cls-4" d="M520.73741,41.0575a1.74382,1.74382,0,0,1,.5175-.45281c.06469-.06469.45281-.32344,2.52281-1.5525,2.91094-1.74656,2.91094-1.74656,2.91094-2.32875s0-.58219-2.91094-2.39344c-2.13468-1.35844-2.52281-1.61719-2.5875-1.68187L520.8021,32.26l.06469.06469a71.20446,71.20446,0,0,1,6.40406,4.01062.46107.46107,0,0,1,.19406.38813c0,.12937,0,.25875-.25875.38812C525.00678,38.53469,522.8721,39.89313,520.73741,41.0575Z"/><path class="cls-2" d="M520.2846,30.83688c-.38813,0-.58219.32343-.58219.90562a2.08956,2.08956,0,0,0,.90562,1.61719q.19407.19406,2.71688,1.74656a19.20836,19.20836,0,0,1,2.45812,1.61719s-.84093.5175-2.45812,1.5525c-1.61719.97031-2.52281,1.5525-2.65219,1.61719-.64687.5175-1.035,1.035-1.035,1.48781V41.575c0,.58219.19407.90563.5175.90563a2.31761,2.31761,0,0,0,.71157-.25875c2.19937-1.22907,4.52812-2.65219,6.92156-4.20469a1.435,1.435,0,0,0,.12937-2.39344,61.39294,61.39294,0,0,0-6.53344-4.07531A2.65656,2.65656,0,0,0,520.2846,30.83688Z"/><path class="cls-3" d="M467.99991,129.45838c-8.08594,8.08593-21.86438,7.43906-29.04469.25875-4.33406-4.39876-4.91625-18.04782,3.16969-26.13376s22.18781-7.05093,26.13375-3.16968C475.439,107.594,476.08585,121.37244,467.99991,129.45838Z"/><path class="cls-2" d="M453.44522,96.14431a18.75938,18.75938,0,1,1-18.75937,18.75938,18.77286,18.77286,0,0,1,18.75937-18.75938m0-1.94062a20.7,20.7,0,1,0,20.7,20.7A20.67777,20.67777,0,0,0,453.44522,94.20369Z"/><path class="cls-4" d="M447.8821,119.69056a50.31772,50.31772,0,0,1-5.95125-3.6225c-.32344-.19406-.64688-.45281-.97032-.64687v-.38812a.77472.77472,0,0,1,.25875-.25875c1.94063-1.35844,4.14-2.71688,6.53344-4.07532a2.98887,2.98887,0,0,1-.45281.45282c-.12938.06468-.71156.45281-1.68188,1.09968-1.09968.71157-1.94062,1.22907-2.45812,1.5525-1.035.64688-1.29375.77625-1.29375,1.35844s0,.58219,1.94062,1.74656c1.035.64688,1.74657,1.09969,2.32875,1.42313a11.25021,11.25021,0,0,1,1.16438.71156A2.91357,2.91357,0,0,1,447.8821,119.69056Z"/><path class="cls-2" d="M448.27022,109.40525a3.74037,3.74037,0,0,0-.90562.32344,71.1327,71.1327,0,0,0-6.7275,4.20468,1.46426,1.46426,0,0,0-.71157,1.09969v.19406a1.53657,1.53657,0,0,0,.19407.77626,6.56606,6.56606,0,0,0,1.16437.84093c4.07531,2.65219,6.40406,4.01063,7.05094,4.01063.32344,0,.5175-.32344.5175-1.035a2.2048,2.2048,0,0,0-1.09969-1.61719,12.88466,12.88466,0,0,0-1.22906-.77625c-.58219-.32344-1.35844-.77625-2.32875-1.42312s-1.48781-.90563-1.48781-.97032a9.579,9.579,0,0,1,.84093-.5175q.77625-.48514,2.52282-1.5525c1.16437-.71156,1.68187-1.09968,1.74656-1.09968a1.99575,1.99575,0,0,0,.97031-1.48782c0-.64687-.12937-.97031-.5175-.97031Z"/><path class="cls-4" d="M450.85772,122.21337c.38813-1.16437,1.81125-4.78687,6.21-15.07218.06469-.12938.12938-.19406.19406-.32344h0q-.29109.67921-.38812.97031a.489.489,0,0,0-.06469.25875l-.38812.97031q-.38812.97032-.58219,1.35844a2.72016,2.72016,0,0,1-.12938.32344v-.06469c-.06468.06469-.19406.45282-2.07,5.11031-1.68187,4.14-2.13468,5.30438-2.26406,5.56313A6.46325,6.46325,0,0,1,450.85772,122.21337Z"/><path class="cls-2" d="M457.32647,105.78275q-.77625,0-1.16437.97031-6.40407,14.94282-6.40407,15.91313v.12937c0,.25875.32344.38813.90563.38813h.38812c.38813,0,.77625-.5175,1.22907-1.48781.12937-.38813.90562-2.19938,2.26406-5.56313s2.07-5.04562,2.07-5.04562a2.08618,2.08618,0,0,0,.12937-.38813,10.35559,10.35559,0,0,1,.5175-1.29375l.38813-.97031a1.09281,1.09281,0,0,1,.12937-.32344,7.92562,7.92562,0,0,0,.32344-.84094,2.10559,2.10559,0,0,0,.25875-.90562v-.19406c0-.25876-.32344-.38813-1.035-.38813Z"/><path class="cls-4" d="M460.23741,119.56119a1.74382,1.74382,0,0,1,.5175-.45281c.06469-.06469.45281-.32344,2.52281-1.55251,2.91094-1.74656,2.91094-1.74656,2.91094-2.32875s0-.58218-2.91094-2.39343c-2.13468-1.35844-2.52281-1.61719-2.5875-1.68188l-.38812-.38812.06469.06468a71.20455,71.20455,0,0,1,6.40406,4.01063.46107.46107,0,0,1,.19406.38812c0,.12938,0,.25875-.25875.38813C464.50678,117.03837,462.3721,118.39681,460.23741,119.56119Z"/><path class="cls-2" d="M459.7846,109.34056c-.38813,0-.58219.32344-.58219.90563a2.08954,2.08954,0,0,0,.90562,1.61718q.19407.19407,2.71688,1.74657a19.21056,19.21056,0,0,1,2.45812,1.61718s-.84093.5175-2.45812,1.55251c-1.61719.97031-2.52281,1.5525-2.65219,1.61718-.64687.5175-1.035,1.035-1.035,1.48782v.19406c0,.58219.19407.90562.5175.90562a2.31709,2.31709,0,0,0,.71157-.25875c2.19937-1.22906,4.52812-2.65218,6.92156-4.20468a1.435,1.435,0,0,0,.12937-2.39344,61.393,61.393,0,0,0-6.53344-4.07532A2.65676,2.65676,0,0,0,459.7846,109.34056Z"/><path class="cls-3" d="M155.23678,35.25469c-8.08593,8.08594-21.86437,7.43906-29.04468.25875-4.33407-4.39875-4.91625-18.04781,3.16968-26.13375S151.5496,2.32875,155.49554,6.21C162.67585,13.39031,163.32272,27.16875,155.23678,35.25469Z"/><path class="cls-2" d="M140.6821,1.94063A18.75938,18.75938,0,1,1,121.92272,20.7,18.77285,18.77285,0,0,1,140.6821,1.94063m0-1.94063a20.7,20.7,0,1,0,20.7,20.7A20.67777,20.67777,0,0,0,140.6821,0Z"/><path class="cls-4" d="M135.119,25.48688a50.32119,50.32119,0,0,1-5.95125-3.6225c-.32344-.19406-.64687-.45282-.97031-.64688v-.38812a.77472.77472,0,0,1,.25875-.25875c1.94062-1.35844,4.14-2.71688,6.53344-4.07531a2.98881,2.98881,0,0,1-.45282.45281c-.12937.06469-.71156.45281-1.68187,1.09969-1.09969.71156-1.94063,1.22906-2.45813,1.5525-1.035.64687-1.29375.77625-1.29375,1.35843s0,.58219,1.94063,1.74657c1.035.64687,1.74656,1.09969,2.32875,1.42312a11.25289,11.25289,0,0,1,1.16437.71156A2.91315,2.91315,0,0,1,135.119,25.48688Z"/><path class="cls-2" d="M135.5071,15.20156a3.74087,3.74087,0,0,0-.90563.32344,71.132,71.132,0,0,0-6.7275,4.20469,1.46424,1.46424,0,0,0-.71156,1.09969v.19406a1.53663,1.53663,0,0,0,.19406.77625,6.56619,6.56619,0,0,0,1.16438.84094c4.07531,2.65218,6.40406,4.01062,7.05093,4.01062.32344,0,.5175-.32344.5175-1.035a2.20481,2.20481,0,0,0-1.09968-1.61719,12.88677,12.88677,0,0,0-1.22907-.77625c-.58218-.32343-1.35844-.77625-2.32875-1.42312s-1.48781-.90563-1.48781-.97031a9.573,9.573,0,0,1,.84094-.5175q.77625-.48516,2.52281-1.5525c1.16437-.71157,1.68188-1.09969,1.74656-1.09969a1.99576,1.99576,0,0,0,.97032-1.48781c0-.64688-.12938-.97032-.5175-.97032Z"/><path class="cls-4" d="M138.0946,28.00969c.38812-1.16438,1.81125-4.78688,6.21-15.07219.06468-.12938.12937-.19406.19406-.32344h0q-.29109.67923-.38813.97032a.489.489,0,0,0-.06468.25875l-.38813.97031q-.38813.9703-.58219,1.35844a2.71858,2.71858,0,0,1-.12937.32343v-.06468c-.06469.06468-.19406.45281-2.07,5.11031-1.68188,4.14-2.13469,5.30437-2.26406,5.56312A6.4649,6.4649,0,0,1,138.0946,28.00969Z"/><path class="cls-2" d="M144.56335,11.57906q-.77625,0-1.16438.97032-6.40405,14.94281-6.40406,15.91312v.12938c0,.25875.32344.38812.90562.38812h.38813c.38812,0,.77625-.5175,1.22906-1.48781.12938-.38813.90562-2.19938,2.26406-5.56313s2.07-5.04562,2.07-5.04562a2.0856,2.0856,0,0,0,.12938-.38813,10.354,10.354,0,0,1,.5175-1.29375l.38812-.97031a1.0929,1.0929,0,0,1,.12938-.32344,7.92669,7.92669,0,0,0,.32343-.84093,2.10564,2.10564,0,0,0,.25876-.90563v-.19406c0-.25875-.32344-.38813-1.035-.38813Z"/><path class="cls-4" d="M147.47428,25.3575a1.74382,1.74382,0,0,1,.5175-.45281c.06469-.06469.45282-.32344,2.52282-1.5525,2.91093-1.74657,2.91093-1.74657,2.91093-2.32875s0-.58219-2.91093-2.39344c-2.13469-1.35844-2.52282-1.61719-2.5875-1.68188L147.539,16.56l.06469.06469a71.20305,71.20305,0,0,1,6.40406,4.01062.461.461,0,0,1,.19406.38813c0,.12937,0,.25875-.25875.38812C151.74366,22.83469,149.609,24.19313,147.47428,25.3575Z"/><path class="cls-2" d="M147.02147,15.13688c-.38812,0-.58219.32343-.58219.90562a2.08957,2.08957,0,0,0,.90563,1.61719q.19405.19405,2.71687,1.74656a19.20813,19.20813,0,0,1,2.45813,1.61719s-.84094.5175-2.45813,1.5525c-1.61718.97031-2.52281,1.5525-2.65218,1.61719-.64688.5175-1.035,1.035-1.035,1.48781V25.875c0,.58219.19406.90563.5175.90563a2.31745,2.31745,0,0,0,.71156-.25875c2.19938-1.22907,4.52812-2.65219,6.92156-4.20469a1.435,1.435,0,0,0,.12938-2.39344,61.395,61.395,0,0,0-6.53344-4.07531A2.65658,2.65658,0,0,0,147.02147,15.13688Z"/><path class="cls-3" d="M35.25469,116.96284c-8.08594,8.08594-21.86438,7.43906-29.04469.25875-4.33406-4.39875-4.91625-18.04781,3.16969-26.13375S31.5675,84.0369,35.51344,87.91815C42.69375,95.09847,43.34063,108.8769,35.25469,116.96284Z"/><path class="cls-2" d="M20.7,83.64878A18.75938,18.75938,0,1,1,1.94063,102.40815,18.77286,18.77286,0,0,1,20.7,83.64878m0-1.94063a20.7,20.7,0,1,0,20.7,20.7A20.67778,20.67778,0,0,0,20.7,81.70815Z"/><path class="cls-4" d="M15.13688,107.195a50.31824,50.31824,0,0,1-5.95125-3.6225c-.32344-.19406-.64688-.45281-.97032-.64687v-.38813a.77482.77482,0,0,1,.25875-.25875c1.94063-1.35844,4.14-2.71687,6.53344-4.07531a2.98831,2.98831,0,0,1-.45281.45281c-.12938.06469-.71156.45281-1.68188,1.09969-1.09969.71156-1.94062,1.22906-2.45812,1.5525-1.035.64687-1.29375.77625-1.29375,1.35844s0,.58219,1.94062,1.74656c1.035.64687,1.74657,1.09969,2.32875,1.42313a11.25127,11.25127,0,0,1,1.16438.71156A2.91357,2.91357,0,0,1,15.13688,107.195Z"/><path class="cls-2" d="M15.525,96.90972a3.74036,3.74036,0,0,0-.90562.32343,71.13271,71.13271,0,0,0-6.7275,4.20469,1.46424,1.46424,0,0,0-.71157,1.09969v.19406a1.53654,1.53654,0,0,0,.19407.77625,6.56563,6.56563,0,0,0,1.16437.84094c4.07531,2.65218,6.40406,4.01062,7.05094,4.01062.32344,0,.5175-.32343.5175-1.035a2.20478,2.20478,0,0,0-1.09969-1.61718,12.88591,12.88591,0,0,0-1.22906-.77625c-.58219-.32344-1.35844-.77625-2.32875-1.42313s-1.48782-.90562-1.48782-.97031a9.57541,9.57541,0,0,1,.84094-.5175q.77625-.48516,2.52281-1.5525c1.16438-.71156,1.68188-1.09969,1.74657-1.09969A1.99575,1.99575,0,0,0,16.0425,97.88c0-.64688-.12937-.97031-.5175-.97031Z"/><path class="cls-4" d="M18.1125,109.71784c.38813-1.16437,1.81125-4.78688,6.21-15.07219.06469-.12937.12938-.19406.19406-.32343h0q-.29109.67921-.38812.97031a.489.489,0,0,0-.06469.25875l-.38812.97031q-.38813.97032-.58219,1.35844a2.72016,2.72016,0,0,1-.12938.32344v-.06469c-.06468.06469-.19406.45281-2.07,5.11031-1.68187,4.14-2.13468,5.30438-2.26406,5.56313A6.46438,6.46438,0,0,1,18.1125,109.71784Z"/><path class="cls-2" d="M24.58125,93.28722q-.77625,0-1.16437.97031-6.40407,14.9428-6.40407,15.91312V110.3c0,.25875.32344.38812.90563.38812h.38812c.38813,0,.77625-.5175,1.22906-1.48781.12938-.38812.90563-2.19938,2.26407-5.56312s2.07-5.04563,2.07-5.04563a2.08585,2.08585,0,0,0,.12937-.38812,10.355,10.355,0,0,1,.5175-1.29375l.38813-.97032a1.09278,1.09278,0,0,1,.12937-.32343,7.92742,7.92742,0,0,0,.32344-.84094,2.10577,2.10577,0,0,0,.25875-.90563v-.19406c0-.25875-.32344-.38812-1.035-.38812Z"/><path class="cls-4" d="M27.49219,107.06565a1.74384,1.74384,0,0,1,.5175-.45281c.06468-.06469.45281-.32344,2.52281-1.5525,2.91094-1.74656,2.91094-1.74656,2.91094-2.32875s0-.58219-2.91094-2.39344c-2.13469-1.35844-2.52281-1.61718-2.5875-1.68187l-.38812-.38813.06468.06469a71.20464,71.20464,0,0,1,6.40407,4.01062.46109.46109,0,0,1,.19406.38813c0,.12937,0,.25875-.25875.38812C31.76156,104.54284,29.62688,105.90128,27.49219,107.06565Z"/><path class="cls-2" d="M27.03938,96.845c-.38813,0-.58219.32344-.58219.90562a2.08956,2.08956,0,0,0,.90562,1.61719q.19407.19407,2.71688,1.74656a19.20836,19.20836,0,0,1,2.45812,1.61719s-.84093.5175-2.45812,1.5525c-1.61719.97031-2.52281,1.5525-2.65219,1.61719-.64687.5175-1.035,1.035-1.035,1.48781v.19406c0,.58219.19406.90563.5175.90563a2.31745,2.31745,0,0,0,.71156-.25875c2.19938-1.22907,4.52813-2.65219,6.92157-4.20469a1.435,1.435,0,0,0,.12937-2.39344,61.39294,61.39294,0,0,0-6.53344-4.07531A2.65666,2.65666,0,0,0,27.03938,96.845Z"/><path class="cls-3" d="M104.90312,190.12639c-8.08593,8.08593-21.86437,7.43906-29.04469.25875-4.33406-4.39875-4.91625-18.04782,3.16969-26.13375s22.18781-7.05094,26.13375-3.16969C112.34219,168.262,112.98906,182.04045,104.90312,190.12639Z"/><path class="cls-2" d="M90.34843,156.81232A18.75938,18.75938,0,1,1,71.58906,175.5717a18.77286,18.77286,0,0,1,18.75937-18.75938m0-1.94062a20.7,20.7,0,1,0,20.7,20.7A20.67778,20.67778,0,0,0,90.34843,154.8717Z"/><path class="cls-4" d="M84.78531,180.35857a50.31979,50.31979,0,0,1-5.95125-3.62249c-.32344-.19407-.64688-.45282-.97031-.64688v-.38812a.77459.77459,0,0,1,.25875-.25875c1.94062-1.35844,4.14-2.71688,6.53344-4.07532a2.98844,2.98844,0,0,1-.45282.45282c-.12937.06468-.71156.45281-1.68187,1.09968-1.09969.71157-1.94063,1.22907-2.45813,1.5525-1.035.64688-1.29375.77625-1.29375,1.35844s0,.58219,1.94063,1.74656c1.035.64688,1.74656,1.09969,2.32875,1.42313a11.25115,11.25115,0,0,1,1.16437.71156A2.91333,2.91333,0,0,1,84.78531,180.35857Z"/><path class="cls-2" d="M85.17343,170.07326a3.74052,3.74052,0,0,0-.90562.32344,71.132,71.132,0,0,0-6.7275,4.20469,1.46419,1.46419,0,0,0-.71156,1.09968v.19407a1.53656,1.53656,0,0,0,.19406.77625,6.56611,6.56611,0,0,0,1.16438.84093c4.07531,2.65219,6.40406,4.01063,7.05093,4.01063.32344,0,.5175-.32344.5175-1.035a2.20482,2.20482,0,0,0-1.09969-1.61719,12.8834,12.8834,0,0,0-1.22906-.77625c-.58219-.32344-1.35844-.77625-2.32875-1.42312s-1.48781-.90563-1.48781-.97032a9.57781,9.57781,0,0,1,.84094-.5175q.77625-.48515,2.52281-1.5525c1.16437-.71156,1.68187-1.09968,1.74656-1.09968a1.99573,1.99573,0,0,0,.97031-1.48782c0-.64687-.12937-.97031-.5175-.97031Z"/><path class="cls-4" d="M87.76093,182.88139c.38813-1.16438,1.81125-4.78688,6.21-15.07219.06469-.12938.12938-.19406.19407-.32344h0q-.29111.67921-.38813.97031a.48906.48906,0,0,0-.06468.25875l-.38813.97032q-.38813.9703-.58219,1.35843a2.71835,2.71835,0,0,1-.12937.32344v-.06469c-.06469.06469-.19406.45282-2.07,5.11032-1.68188,4.14-2.13469,5.30437-2.26407,5.56312A6.46291,6.46291,0,0,1,87.76093,182.88139Z"/><path class="cls-2" d="M94.22969,166.45076q-.77625,0-1.16438.97031-6.40405,14.94282-6.40406,15.91313v.12937c0,.25876.32343.38813.90562.38813H87.955c.38812,0,.77625-.5175,1.22906-1.48781.12937-.38813.90562-2.19938,2.26406-5.56313s2.07-5.04562,2.07-5.04562a2.0856,2.0856,0,0,0,.12938-.38813,10.354,10.354,0,0,1,.5175-1.29375l.38812-.97031a1.0929,1.0929,0,0,1,.12938-.32344,7.92622,7.92622,0,0,0,.32343-.84094,2.10555,2.10555,0,0,0,.25875-.90562v-.19406c0-.25875-.32343-.38813-1.035-.38813Z"/><path class="cls-4" d="M97.14062,180.2292a1.74382,1.74382,0,0,1,.5175-.45281c.06469-.06469.45282-.32344,2.52282-1.5525,2.91093-1.74657,2.91093-1.74657,2.91093-2.32875s0-.58219-2.91093-2.39344c-2.13469-1.35844-2.52282-1.61719-2.5875-1.68188l-.38813-.38812.06469.06469a71.20446,71.20446,0,0,1,6.40406,4.01062.46107.46107,0,0,1,.19406.38812c0,.12938,0,.25875-.25875.38813C101.41,177.70639,99.27531,179.06482,97.14062,180.2292Z"/><path class="cls-2" d="M96.68781,170.00857c-.38812,0-.58219.32344-.58219.90563a2.08959,2.08959,0,0,0,.90563,1.61719q.19405.19406,2.71687,1.74656a19.20813,19.20813,0,0,1,2.45813,1.61719s-.84094.5175-2.45813,1.5525c-1.61718.97031-2.52281,1.5525-2.65218,1.61718-.64688.5175-1.035,1.035-1.035,1.48782v.19406c0,.58219.19406.90562.5175.90562a2.31694,2.31694,0,0,0,.71156-.25875c2.19937-1.22906,4.52812-2.65218,6.92156-4.20468a1.435,1.435,0,0,0,.12937-2.39344,61.39381,61.39381,0,0,0-6.53343-4.07531A2.65672,2.65672,0,0,0,96.68781,170.00857Z"/><rect class="cls-2" x="139.68164" y="45.40006" width="2" height="3.5"/><rect class="cls-2" x="139.68164" y="53.86637" width="2" height="5.79443"/><rect class="cls-2" x="139.68164" y="64.62711" width="2" height="3.5"/><path class="cls-2" d="M252.44336,85.97916h-7v-2h7Zm-13,0h-7v-2h7Zm-13,0h-7v-2h7Zm-13,0h-7v-2h7Zm-13,0h-7v-2h7Zm-13,0h-7v-2h7Zm-13,0h-7v-2h7Zm-13,0h-3.14453v-2h3.14453Z"/><path class="cls-2" d="M158.29883,85.97916h-7v-2h7Zm-13.25391-1.564a11.08641,11.08641,0,0,1-4.75976-5.84961l1.88867-.65625a9.08422,9.08422,0,0,0,3.90039,4.791ZM141.68164,72.3h-2V67.362h2Z"/><path class="cls-2" d="M236.23242,102.98746h-7v-2h7Zm-13,0h-7v-2h7Zm-13,0h-7v-2h7Zm-13,0h-7v-2h7Zm-13,0h-7v-2h7Zm-13,0h-7v-2h7Zm-13,0h-7v-2h7Zm-13,0h-7v-2h7Zm-13,0h-7v-2h7Zm-13,0h-7v-2h7Zm-13,0h-7v-2h7Zm-13,0h-7v-2h7Zm-13,0h-7v-2h7Zm-13,0h-7v-2h7Zm-13,0h-7v-2h7Z"/><rect class="cls-2" x="88.74609" y="144.38834" width="2" height="3.5"/><rect class="cls-2" x="88.74609" y="134.95914" width="2" height="3.5"/><path class="cls-2" d="M229.98242,118.342h-7v-2h7Zm-13,0h-7v-2h7Zm-13,0h-7v-2h7Zm-13,0h-7v-2h7Zm-13,0h-7v-2h7Zm-13,0h-7v-2h7Zm-13,0h-7v-2h7Zm-13,0h-7v-2h7Zm-13,0h-7v-2h7Zm-13,0H107.335v-2h5.64746Z"/><path class="cls-2" d="M90.71777,134.95914h-2v-4.938h2ZM91.21,124.41178l-1.88867-.65625a11.08641,11.08641,0,0,1,4.75976-5.84961l1.0293,1.71484A9.08428,9.08428,0,0,0,91.21,124.41178Zm16.125-6.06982h-7v-2h7Z"/><rect class="cls-2" x="299" y="150.28385" width="2" height="3.5"/><rect class="cls-2" x="299" y="158.75016" width="2" height="5.79443"/><rect class="cls-2" x="299" y="169.5109" width="2" height="3.5"/><path class="cls-2" d="M551.38086,190.863h-7v-2h7Zm-13,0h-7v-2h7Zm-13,0h-7v-2h7Zm-13,0h-7v-2h7Zm-13,0h-7v-2h7Zm-13,0h-7v-2h7Zm-13,0h-7v-2h7Zm-13,0h-7v-2h7Zm-13,0h-7v-2h7Zm-13,0h-7v-2h7Zm-13,0h-7v-2h7Zm-13,0h-7v-2h7Zm-13,0h-7v-2h7Zm-13,0h-7v-2h7Zm-13,0h-7v-2h7Zm-13,0h-7v-2h7Zm-13,0h-7v-2h7Zm-13,0h-7v-2h7Z"/><path class="cls-2" d="M317.61719,190.863h-7v-2h7Zm-13.25391-1.564a11.08636,11.08636,0,0,1-4.75976-5.84961l1.88867-.65625a9.08429,9.08429,0,0,0,3.90039,4.791ZM301,177.18375h-2v-4.938h2Z"/><path class="cls-2" d="M427.83984,116.195h-7v-2h7Zm-13,0h-7v-2h7Zm-13,0h-7v-2h7Zm-13,0h-7v-2h7Zm-13,0h-4.292v-2h4.292Z"/><rect class="cls-2" x="281.03516" y="64.30631" width="2" height="3.5"/><rect class="cls-2" x="281.03516" y="54.87711" width="2" height="3.5"/><path class="cls-2" d="M487.06055,38.25992h-7v-2h7Zm-13,0h-7v-2h7Zm-13,0h-7v-2h7Zm-13,0h-7v-2h7Zm-13,0h-7v-2h7Zm-13,0h-7v-2h7Zm-13,0h-7v-2h7Zm-13,0h-7v-2h7Zm-13,0h-7v-2h7Zm-13,0h-7v-2h7Zm-13,0h-7v-2h7Zm-13,0h-7v-2h7Zm-13,0h-7v-2h7Zm-13,0h-7v-2h7Zm-13,0h-5.4375v-2h5.4375Z"/><path class="cls-2" d="M283.00586,54.87711h-2v-4.938h2Zm.49219-10.54736-1.88867-.65625a11.08632,11.08632,0,0,1,4.75976-5.84961l1.0293,1.71484A9.08428,9.08428,0,0,0,283.49805,44.32975Zm16.125-6.06983h-7v-2h7Z"/></g></g></svg>