<svg id="Layer_1" data-name="Layer 1" xmlns="http://www.w3.org/2000/svg" viewBox="0 0 2500 977"><defs><style>.cls-1{fill:#f90;}.cls-2{stroke:#000;}</style></defs><title>powered-by-aws</title><path class="cls-1" d="M325.4,927.7,179.1,875.2V660.7l146.3,49.9V927.7m26.9,0,146.3-52.5V660.7L352.3,710.6V927.7m-158.2-283L342.3,603l137.3,44.3-137.3,46.6L194.1,644.7m-42.9-16.6-146.3-52.5V361l146.3,49.9v217.2m26.9,0,146.4-52.5V361L178.1,410.9v217.2M19.9,345,168,303.3l137.3,44.3L168,394.2,19.9,345m472.8,283.1-146.4-52.5V361l146.4,49.9v217.2m26.9,0,146.4-52.5V361L519.6,410.9v217.2M361.4,345l148.1-41.7,137.3,44.3L509.5,394.2,361.4,345m305.5-16.6L520.5,275.9V61.4l146.4,49.9V328.4m26.9,0,146.3-52.5V61.4L693.7,111.3l.1,217.1M535.6,45.3,683.8,3.6,821.1,47.9,683.8,94.5,535.6,45.3m472.8,283.1L862,275.9V61.4l146.4,49.9V328.4m26.9,0,146.4-52.5V61.4l-146.4,49.9V328.4M877.1,45.3,1025.2,3.6l137.3,44.3L1025.2,94.5,877.1,45.3"/><path d="M934,788,884.8,958.8H863.4l-38.3-126.9L790,958.8H768.2L717.2,788h26.4l37.2,127.3L816.3,788h19.5l38.5,127.7L912.5,788Z"/><path class="cls-2" d="M934,788,884.8,958.8H863.4l-38.3-126.9L790,958.8H768.2L717.2,788h26.4l37.2,127.3L816.3,788h19.5l38.5,127.7L912.5,788Z"/><path d="M1070,907.8l24.7,5.1q-6.75,21.9-26.3,36.3c-13.1,9.6-28.4,14.4-46.1,14.4q-34.95,0-56.5-24.6-21.6-24.6-21.6-64.6,0-40.8,22.5-65.9c15-16.8,33.8-25.1,56.4-25.1q33.45007,0,53.8,23.1,20.4,23.1,20.8,69.3h-124q0,38.7,16.2,52.3,16.2,13.5,34.2,13.5Q1056.65,941.45,1070,907.8Zm-1.5-51.9a73.787,73.787,0,0,0-4.7-25.5,43.71828,43.71828,0,0,0-14.8-19c-7-5.2-15.4-7.9-25.1-7.9a44.74489,44.74489,0,0,0-33.5,14.2c-9.2,9.5-14.3,22.2-15.4,38.2Z"/><path class="cls-2" d="M1070,907.8l24.7,5.1q-6.75,21.9-26.3,36.3c-13.1,9.6-28.4,14.4-46.1,14.4q-34.95,0-56.5-24.6-21.6-24.6-21.6-64.6,0-40.8,22.5-65.9c15-16.8,33.8-25.1,56.4-25.1q33.45007,0,53.8,23.1,20.4,23.1,20.8,69.3h-124q0,38.7,16.2,52.3,16.2,13.5,34.2,13.5Q1056.65,941.45,1070,907.8Zm-1.5-51.9a73.787,73.787,0,0,0-4.7-25.5,43.71828,43.71828,0,0,0-14.8-19c-7-5.2-15.4-7.9-25.1-7.9a44.74489,44.74489,0,0,0-33.5,14.2c-9.2,9.5-14.3,22.2-15.4,38.2Z"/><path d="M1145.4,958.8h-12.8V728.2h26.6v88.3q18.15-33.15,50.3-33.2c19.6,0,35.9,7.7,49.2,23.2,13.2,15.5,19.8,37.9,19.8,67.4q0,38.1-19.5,63.9t-50.7,25.8q-34.79993,0-53.3-33Zm13.79993-67c1.2,17.5,6.6,30.3,16.1,38.2s19.6,11.9,30.1,11.9c13.5,0,24.4-5.9,32.7-17.6s12.4-27.8,12.4-48.2q0-33-12-51.9t-33.3-18.9c-11.1,0-21.2,4.5-30.1,13.4-9,9-14.3,20.5-16,34.7l.1001,38.4Z"/><path class="cls-2" d="M1145.4,958.8h-12.8V728.2h26.6v88.3q18.15-33.15,50.3-33.2c19.6,0,35.9,7.7,49.2,23.2,13.2,15.5,19.8,37.9,19.8,67.4q0,38.1-19.5,63.9t-50.7,25.8q-34.79993,0-53.3-33Zm13.79993-67c1.2,17.5,6.6,30.3,16.1,38.2s19.6,11.9,30.1,11.9c13.5,0,24.4-5.9,32.7-17.6s12.4-27.8,12.4-48.2q0-33-12-51.9t-33.3-18.9c-11.1,0-21.2,4.5-30.1,13.4-9,9-14.3,20.5-16,34.7l.1001,38.4Z"/><path d="M1346.2,914.5l25.4-5.2c5.6,21.5,23.5,32.2,53.5,32.2,11,0,20.4-2.5,28.1-7.4s11.5-11.9,11.5-20.9c0-13.4-9.8-21.9-29.3-25.5l-36-6.8q-21.15-4.05-33.6-15.9c-8.3-7.9-12.5-18.3-12.5-31.3,0-14.3,5.7-26.3,17.1-35.9s26.7-14.5,45.9-14.5c37.1,0,59.9,14.5,68.6,43.4l-24.3,5.2q-10.5-26.55-43-26.6c-10.8,0-19.7,2.2-26.6,6.7-6.9,4.4-10.4,10.6-10.4,18.6,0,12.5,8.8,20.4,26.5,23.7l33.3,6.1q52.20007,9.45,52.2,50.6c0,15.7-6.5,28.4-19.4,38q-19.5,14.55-51.7,14.5C1380.8,963.5,1355.8,947.2,1346.2,914.5Z"/><path class="cls-2" d="M1346.2,914.5l25.4-5.2c5.6,21.5,23.5,32.2,53.5,32.2,11,0,20.4-2.5,28.1-7.4s11.5-11.9,11.5-20.9c0-13.4-9.8-21.9-29.3-25.5l-36-6.8q-21.15-4.05-33.6-15.9c-8.3-7.9-12.5-18.3-12.5-31.3,0-14.3,5.7-26.3,17.1-35.9s26.7-14.5,45.9-14.5c37.1,0,59.9,14.5,68.6,43.4l-24.3,5.2q-10.5-26.55-43-26.6c-10.8,0-19.7,2.2-26.6,6.7-6.9,4.4-10.4,10.6-10.4,18.6,0,12.5,8.8,20.4,26.5,23.7l33.3,6.1q52.20007,9.45,52.2,50.6c0,15.7-6.5,28.4-19.4,38q-19.5,14.55-51.7,14.5C1380.8,963.5,1355.8,947.2,1346.2,914.5Z"/><path d="M1634,907.8l24.7,5.1q-6.75,21.9-26.3,36.3-19.5,14.4-46.1,14.4-34.95007,0-56.6-24.6-21.6-24.6-21.6-64.6,0-40.8,22.5-65.9c15-16.8,33.8-25.1,56.4-25.1q33.45007,0,53.8,23.1,20.40015,23.09995,20.8,69.3h-124q0,38.7,16.2,52.3,16.20007,13.5,34.2,13.5Q1620.70007,941.45,1634,907.8Zm-1.5-51.9a73.787,73.787,0,0,0-4.7-25.5,43.71828,43.71828,0,0,0-14.8-19c-7-5.2-15.4-7.9-25.1-7.9a44.74489,44.74489,0,0,0-33.5,14.2c-9.2,9.5-14.3,22.2-15.4,38.2Z"/><path class="cls-2" d="M1634,907.8l24.7,5.1q-6.75,21.9-26.3,36.3-19.5,14.4-46.1,14.4-34.95007,0-56.6-24.6-21.6-24.6-21.6-64.6,0-40.8,22.5-65.9c15-16.8,33.8-25.1,56.4-25.1q33.45007,0,53.8,23.1,20.40015,23.09995,20.8,69.3h-124q0,38.7,16.2,52.3,16.20007,13.5,34.2,13.5Q1620.70007,941.45,1634,907.8Zm-1.5-51.9a73.787,73.787,0,0,0-4.7-25.5,43.71828,43.71828,0,0,0-14.8-19c-7-5.2-15.4-7.9-25.1-7.9a44.74489,44.74489,0,0,0-33.5,14.2c-9.2,9.5-14.3,22.2-15.4,38.2Z"/><path d="M1716.8,958.8h-26.6V788h23.3v39.8c8.2-18.7,16.5-30.7,24.7-36.2,8.3-5.5,16.7-8.3,25.4-8.3q4.04993,0,10.5.6v25.4h-5.4c-14.6,0-26.8,5.4-36.4,16.3-9.7,10.9-14.8,25.1-15.5,42.8v90.4Z"/><path class="cls-2" d="M1716.8,958.8h-26.6V788h23.3v39.8c8.2-18.7,16.5-30.7,24.7-36.2,8.3-5.5,16.7-8.3,25.4-8.3q4.04993,0,10.5.6v25.4h-5.4c-14.6,0-26.8,5.4-36.4,16.3-9.7,10.9-14.8,25.1-15.5,42.8v90.4Z"/><path d="M1939.4,788l-59,170.8h-27.6L1791.9,788h29.4l47.4,138.8,47-138.8Z"/><path class="cls-2" d="M1939.4,788l-59,170.8h-27.6L1791.9,788h29.4l47.4,138.8,47-138.8Z"/><path d="M1960.7,728.2h28.5v29.5h-28.5ZM1961.9,788h26.6V958.8h-26.6Z"/><path class="cls-2" d="M1960.7,728.2h28.5v29.5h-28.5ZM1961.9,788h26.6V958.8h-26.6Z"/><path d="M2127.5,899l23.8999,4.2q-5.09985,28.35-22.5,44.3c-11.6001,10.7-26.1001,16-43.3999,16-23.5,0-41.5-8.7-53.8-26.1s-18.5-38.6-18.5-63.6c0-26,6.5-47.5,19.5-64.7s30.7-25.8,53.1001-25.8q27.90015,0,44.7,16.7,16.79993,16.65,20.8999,43.1L2127.5,847.7q-6.75-42.3-40.8-42.3c-14.6001,0-25.8999,6.2-33.7,18.7q-11.85,18.75-11.8,48.4c0,21.9,3.9,38.8,11.7,50.9s18.8,18.2,33,18.2Q2118.75012,941.44992,2127.5,899Z"/><path class="cls-2" d="M2127.5,899l23.8999,4.2q-5.09985,28.35-22.5,44.3c-11.6001,10.7-26.1001,16-43.3999,16-23.5,0-41.5-8.7-53.8-26.1s-18.5-38.6-18.5-63.6c0-26,6.5-47.5,19.5-64.7s30.7-25.8,53.1001-25.8q27.90015,0,44.7,16.7,16.79993,16.65,20.8999,43.1L2127.5,847.7q-6.75-42.3-40.8-42.3c-14.6001,0-25.8999,6.2-33.7,18.7q-11.85,18.75-11.8,48.4c0,21.9,3.9,38.8,11.7,50.9s18.8,18.2,33,18.2Q2118.75012,941.44992,2127.5,899Z"/><path d="M2301.5,907.8l24.7,5.1q-6.75,21.9-26.3,36.3-19.5,14.4-46.1001,14.4c-23.3,0-42.1001-8.2-56.6001-24.6q-21.59985-24.6-21.6001-64.6,0-40.8,22.5-65.9c15-16.8,33.8-25.1,56.3999-25.1q33.45007,0,53.8,23.1,20.40015,23.1,20.8,69.3h-124q0,38.7,16.2,52.3c10.8,9,22.2,13.5,34.3,13.5Q2288.15027,941.45,2301.5,907.8Zm-1.3999-51.9a73.787,73.787,0,0,0-4.7-25.5,43.71647,43.71647,0,0,0-14.8-19c-7-5.2-15.3999-7.9-25.1001-7.9a44.74489,44.74489,0,0,0-33.5,14.2c-9.2,9.5-14.3,22.2-15.3999,38.2Z"/><path class="cls-2" d="M2301.5,907.8l24.7,5.1q-6.75,21.9-26.3,36.3-19.5,14.4-46.1001,14.4c-23.3,0-42.1001-8.2-56.6001-24.6q-21.59985-24.6-21.6001-64.6,0-40.8,22.5-65.9c15-16.8,33.8-25.1,56.3999-25.1q33.45007,0,53.8,23.1,20.40015,23.1,20.8,69.3h-124q0,38.7,16.2,52.3c10.8,9,22.2,13.5,34.3,13.5Q2288.15027,941.45,2301.5,907.8Zm-1.3999-51.9a73.787,73.787,0,0,0-4.7-25.5,43.71647,43.71647,0,0,0-14.8-19c-7-5.2-15.3999-7.9-25.1001-7.9a44.74489,44.74489,0,0,0-33.5,14.2c-9.2,9.5-14.3,22.2-15.3999,38.2Z"/><path d="M2344.2,914.5l25.3999-5.2q8.40015,32.25,53.3999,32.2c11.1001,0,20.3999-2.5,28.1001-7.4,7.7-4.9,11.5-11.9,11.5-20.9,0-13.4-9.8-21.9-29.3-25.5l-36-6.8q-21.15015-4.05-33.6001-15.9c-8.3-7.9-12.5-18.3-12.5-31.3,0-14.3,5.7-26.3,17.1001-35.9,11.3999-9.6,26.7-14.5,45.8999-14.5,37.1001,0,59.8999,14.5,68.6001,43.4l-24.3,5.2q-10.5-26.55-43-26.6c-10.8,0-19.7,2.2-26.6001,6.7-6.8999,4.4-10.3999,10.6-10.3999,18.6,0,12.5,8.8,20.4,26.5,23.7l33.2,6.1q52.20007,9.45,52.2,50.6c0,15.7-6.5,28.4-19.3999,38q-19.5,14.55-51.7,14.5Q2358.55017,963.5,2344.2,914.5Z"/><path class="cls-2" d="M2344.2,914.5l25.3999-5.2q8.40015,32.25,53.3999,32.2c11.1001,0,20.3999-2.5,28.1001-7.4,7.7-4.9,11.5-11.9,11.5-20.9,0-13.4-9.8-21.9-29.3-25.5l-36-6.8q-21.15015-4.05-33.6001-15.9c-8.3-7.9-12.5-18.3-12.5-31.3,0-14.3,5.7-26.3,17.1001-35.9,11.3999-9.6,26.7-14.5,45.8999-14.5,37.1001,0,59.8999,14.5,68.6001,43.4l-24.3,5.2q-10.5-26.55-43-26.6c-10.8,0-19.7,2.2-26.6001,6.7-6.8999,4.4-10.3999,10.6-10.3999,18.6,0,12.5,8.8,20.4,26.5,23.7l33.2,6.1q52.20007,9.45,52.2,50.6c0,15.7-6.5,28.4-19.3999,38q-19.5,14.55-51.7,14.5Q2358.55017,963.5,2344.2,914.5Z"/><path d="M1945.1,601.4c-32.1-18.1-69.5-23.3-104.9-22.5l95.2-136c8.8-12.2,13.8-19.9,13.9-25.8V381.9a10.25293,10.25293,0,0,0-10.6-10.4h-184.4a10.22488,10.22488,0,0,0-9.9,10.4v41h0c0,6.1,4.8,10.3,10.6,10.3h96.1l-110.3,158.3c-6.7,10.2-6.8,21.5-6.8,28.2v41.6c0,6,6.7,12.9,13.1,9.5,62.6-33.2,137.7-30,194.3-.4,6.9,3.6,13.5-3.3,13.5-9.4v-43.8C1954.3,611.5,1952.3,605.5,1945.1,601.4ZM1382.8,397.7c-15.7-21.8-41.2-31.4-64.7-31.4-32.9,0-63.7,16.9-77.3,53.2-15.7-36.2-37.6-53.2-72.6-53.2-34.4,0-60,16.9-73.6,53.2h-1.1V382a10.42558,10.42558,0,0,0-10.2-9.6h-52.1a10.52915,10.52915,0,0,0-10.8,10.3V669.8a10.44477,10.44477,0,0,0,9.99994,9.4h55.9a10.52919,10.52919,0,0,0,10.8-10.3V516.7c0-33.2-1.6-79.1,38.6-79.1,39.7,0,34.5,47.1,34.5,79.1l.1,152.2a10.49271,10.49271,0,0,0,10,10.3h55.9a10.59269,10.59269,0,0,0,10.8-10.3V516.7c0-16.3-.5-40.5,5.2-55s19.8-23.6,33.4-23.6c16.2,0,28.7,5.4,32.9,24.8,2.6,11.5,1.6,41.7,1.6,53.8V668.9a10.49271,10.49271,0,0,0,10,10.3h55.9a10.52919,10.52919,0,0,0,10.8-10.3V487.7C1396.9,456.9,1400.6,421.8,1382.8,397.7Zm701.59985-31.4h0c-80.3,0-124.8,69.5-124.8,158.9,0,88.8,44,160.1,124.8,160.1,77.7,0,126.8999-69.5,126.8999-157.1C2211.3,437.5,2166.8,366.3,2084.3999,366.3Zm0,259.7c-43.5,0-43-67.5-43-102.6,0-35,2.6-91.2,43.5-91.2,17.6001,0,30,7.8,36.3,27.8,7.3,23,8.3,52,8.3,76.1C2129.3999,573,2127.3999,626,2084.3999,626ZM2479.8,400.1c-15.7-24.8-40.2-33.8-65.3-33.8-38.6001,0-60.6001,18.7-76.2,58H2337.2V380.4a10.49325,10.49325,0,0,0-9.8999-8h-51.8999a10.67682,10.67682,0,0,0-10.8,9.4l.1001,287.2a10.49262,10.49262,0,0,0,10,10.3h55.7A10.6818,10.6818,0,0,0,2341.3,669V514.3c0-19.3,1.1001-36.9,8.8999-54.4,6.3-13.9,18.8-23,32.3999-23,38.6001,0,35,45.9,35,77.3v155.9a10.6869,10.6869,0,0,0,10,9.1H2483.7a10.6359,10.6359,0,0,0,10.7-9.1V489.5C2494.3999,461.7,2494.3999,423,2479.8,400.1Zm-776,226.5c-10.2-14.1-21.1-25.6-21.1-51.8v-87.2c0-36.9,2.6-70.8-24.6-96.3-21.5-20.6-57-27.9-84.2-27.9-53.2,0-112.6,19.9-125.1,85.7-1.3,7,3.8,10.7,8.3,11.7l54.2,5.9c5.1-.2,8.8-5.2,9.7-10.3,4.7-22.7,23.6-33.6,45-33.6,11.5,0,24.6,4.2,31.4,14.5,7.8,11.5,6.8,27.2,6.8,40.6v7.3c-32.4,3.6-74.8,6-105.2,19.4-35.1,15.1-59.7,46-59.7,91.4,0,58.1,36.6,87.2,83.7,87.2,39.8,0,61.5-9.4,92.2-40.7,10.2,14.7,13.5,21.8,32.1,37.3a11.65428,11.65428,0,0,0,13.2-1.3l.1.1c11.2-9.9,31.5-27.6,42.9-37.1C1708.2,637.7,1707.4,631.7,1703.8,626.59995Zm-99.6001-84.5h0c0,21.8.5,40-10.5,59.3-8.9,15.8-23,25.4-38.7,25.4-21.4,0-34-16.3-34-40.6,0-47.6,42.7-56.3,83.2-56.3ZM976.9,626.59995c-10.2-14.1-21.1-25.6-21.1-51.8v-87.2c0-36.9,2.6-70.8-24.6-96.3-21.5-20.6-57-27.9-84.2-27.9-53.2,0-112.6,19.9-125.1,85.7-1.3,7,3.8,10.7,8.3,11.7l54.2,5.9c5.1-.2,8.8-5.2,9.7-10.3,4.7-22.7,23.6-33.6,45-33.6,11.5,0,24.6,4.2,31.4,14.5,7.8,11.5,6.8,27.2,6.8,40.6v7.3c-32.4,3.6-74.8,6-105.2,19.4-35.1,15.1-59.7,46-59.7,91.4,0,58.1,36.6,87.2,83.7,87.2,39.8,0,61.5-9.4,92.2-40.7,10.2,14.7,13.5,21.8,32.1,37.3a11.65438,11.65438,0,0,0,13.2-1.3l.1.1c11.2-9.9,31.5-27.6,42.9-37.1C981.2,637.7,980.4,631.7,976.9,626.59995ZM866.8,601.4c-8.9,15.8-23,25.4-38.7,25.4-21.5,0-34-16.3-34-40.6,0-47.6,42.7-56.3,83.2-56.3V542C877.2,563.9,877.8,582.09995,866.8,601.4Z"/><path d="M1315.7207,136.0383c0-14.88037-.48047-26.88086-.96-37.9209h18.96l.96,19.92041h.48047c8.63965-14.16016,22.32031-22.56055,41.28125-22.56055,28.08008,0,49.20117,23.76074,49.20117,59.0415,0,41.76074-25.44141,62.40137-52.80176,62.40137-15.36035,0-28.80078-6.72021-35.76074-18.24072h-.48047V261.801H1315.7207Zm20.87988,30.96045a47.51109,47.51109,0,0,0,.96094,8.64014,32.588,32.588,0,0,0,31.68066,24.7207c22.32031,0,35.28027-18.24023,35.28027-44.88086,0-23.28076-12.24023-43.20117-34.56055-43.20117-14.40039,0-27.84082,10.32031-31.9209,26.16064a34.26725,34.26725,0,0,0-1.44043,8.64014Z"/><path d="M1557.39941,155.2385c0,42.96094-29.76074,61.68164-57.84082,61.68164-31.44141,0-55.68164-23.04053-55.68164-59.76123,0-38.88086,25.44043-61.68164,57.60156-61.68164C1534.83887,95.47727,1557.39941,119.718,1557.39941,155.2385Zm-92.16211,1.2002c0,25.44043,14.64063,44.64111,35.28125,44.64111,20.16016,0,35.28027-18.96045,35.28027-45.12109,0-19.68066-9.83984-44.64111-34.80078-44.64111C1476.03809,111.3176,1465.23731,134.35813,1465.23731,156.43869Z"/><path d="M1590.75977,98.1174l15.36035,59.0415c3.35938,12.96,6.47949,24.96045,8.63965,36.96045h.7207c2.63965-11.76025,6.47949-24.24023,10.31934-36.7207l18.96094-59.28125h17.76074l18,58.08105c4.32031,13.92041,7.68066,26.16064,10.32031,37.9209h.71973c1.91992-11.76025,5.04-24.00049,8.88086-37.68066L1717.002,98.1174h20.88086L1700.44238,214.28h-19.20117l-17.75977-55.44141a387.07,387.07,0,0,1-10.32031-38.16064h-.48047a343.685,343.685,0,0,1-10.55957,38.40088L1623.40039,214.28h-19.2002l-35.041-116.1626Z"/><path d="M1768.3584,160.03879c.48047,28.56055,18.7207,40.3208,39.8418,40.3208,15.12012,0,24.24024-2.64014,32.16016-6l3.60059,15.12012c-7.44043,3.36035-20.16113,7.2002-38.6416,7.2002-35.76074,0-57.12109-23.52051-57.12109-58.561,0-35.041,20.64063-62.6416,54.48145-62.6416,37.9209,0,48.001,33.36084,48.001,54.72119a79.82173,79.82173,0,0,1-.71973,9.84033Zm61.92188-15.12061c.24023-13.43994-5.52051-34.3208-29.28027-34.3208-21.36133,0-30.7207,19.68066-32.40137,34.3208Z"/><path d="M1876.83594,134.35813c0-13.68018-.24023-25.44043-.96-36.24072h18.48047l.71973,22.80029h.96c5.28027-15.6001,18.001-25.44043,32.16113-25.44043a22.84725,22.84725,0,0,1,6,.72021v19.92041a31.73012,31.73012,0,0,0-7.2002-.72021c-14.88086,0-25.44043,11.28027-28.32031,27.12061a59.3962,59.3962,0,0,0-.96094,9.84033V214.28h-20.87988Z"/><path d="M1964.67676,160.03879c.48047,28.56055,18.7207,40.3208,39.8418,40.3208,15.12012,0,24.24023-2.64014,32.16016-6l3.60059,15.12012c-7.44043,3.36035-20.16113,7.2002-38.6416,7.2002-35.76074,0-57.12109-23.52051-57.12109-58.561,0-35.041,20.64063-62.6416,54.48145-62.6416,37.9209,0,48.001,33.36084,48.001,54.72119a79.82153,79.82153,0,0,1-.71973,9.84033Zm61.92188-15.12061c.24023-13.43994-5.52051-34.3208-29.28027-34.3208-21.36133,0-30.7207,19.68066-32.40137,34.3208Z"/><path d="M2173.47656,43.87619V184.27951c0,10.31982.24024,22.08008.96,30.00049h-18.96094l-.96-20.16064h-.47949c-6.48047,12.96045-20.64062,22.80078-39.60059,22.80078-28.08106,0-49.68164-23.76074-49.68164-59.0415-.24023-38.64062,23.76074-62.40137,52.08106-62.40137,17.76074,0,29.76074,8.40039,35.041,17.76025h.48047V43.87619Zm-21.12012,101.52246a37.24939,37.24939,0,0,0-.96094-8.88037c-3.11914-13.44043-14.63965-24.48047-30.48047-24.48047-21.83984,0-34.80078,19.2002-34.80078,44.88086,0,23.52051,11.52051,42.96094,34.32129,42.96094,14.16016,0,27.12012-9.36035,30.96-25.20068a36.65,36.65,0,0,0,.96094-9.12012Z"/><path d="M2258.43164,214.28c.47949-7.92041.96-19.68066.96-30.00049V43.87619h20.88086v72.96143h.47949c7.44043-12.96,20.88086-21.36035,39.60059-21.36035,28.80078,0,49.20117,24.00049,48.96191,59.28125,0,41.521-26.16113,62.16162-52.082,62.16162-16.79981,0-30.24023-6.48-38.88086-21.84033h-.71973l-.96,19.2002Zm21.84082-46.561a39.50416,39.50416,0,0,0,.96,7.68018c4.08008,14.64014,16.32031,24.7207,31.68066,24.7207,22.08008,0,35.28027-18.00049,35.28027-44.64111,0-23.28076-12-43.20117-34.56055-43.20117-14.40039,0-27.84082,9.84033-32.16113,25.9209a41.65912,41.65912,0,0,0-1.19922,8.64014Z"/><path d="M2401.9502,98.1174l25.44141,68.6416c2.63965,7.68018,5.51953,16.80029,7.43945,23.76025h.48047c2.16016-6.96,4.55957-15.84033,7.44043-24.24023l23.04-68.16162h22.32031l-31.68066,82.80176c-15.12012,39.84082-25.44043,60.2417-39.84082,72.72168-10.32031,9.12012-20.64062,12.72021-25.9209,13.68018l-5.2793-17.76025a55.87525,55.87525,0,0,0,18.48047-10.32031,64.0347,64.0347,0,0,0,17.75976-23.52051c.96-2.16016,1.68066-3.83984,1.68066-5.04a18.42,18.42,0,0,0-1.44043-5.52L2378.91016,98.1174Z"/></svg>